Track,Event Type,Midi Note,Note Name,Velocity,Duration (seconds),Time (seconds)
0,note_on,66,F#4,0.3543307086614173,0.07731962499999989,2.1649495
0,note_on,54,F#3,0.4881889763779528,0.19329906249999995,2.474228
0,note_on,78,F#5,0.44881889763779526,0.1288660416666665,2.474228
0,note_on,66,F#4,0.6614173228346457,0.3350517083333333,2.474228
0,note_on,74,D5,0.7244094488188977,0.18685576041666652,2.62886725
0,note_on,59,B3,0.4645669291338583,0.23195887500000012,2.62886725
0,note_on,71,B4,0.7637795275590551,0.09020622916666632,2.7835065
0,note_on,62,D4,0.5433070866141733,0.09020622916666632,2.7835065
0,note_on,66,F#4,0.8031496062992126,0.1997423645833334,2.9381457500000003
0,note_on,78,F#5,0.6614173228346457,0.19329906249999995,2.9381457500000003
0,note_on,54,F#3,0.6141732283464567,0.1997423645833334,2.9381457500000003
0,note_on,74,D5,0.8031496062992126,0.1739691562500001,3.24742425
0,note_on,59,B3,0.7244094488188977,0.18041245833333353,3.24742425
0,note_on,62,D4,0.6141732283464567,0.06443302083333347,3.4020635
0,note_on,71,B4,0.4645669291338583,0.07087632291666646,3.4020635
0,note_on,66,F#4,0.7244094488188977,0.20618566666666638,3.5567027500000004
0,note_on,54,F#3,0.49606299212598426,0.19329906249999995,3.5567027500000004
0,note_on,78,F#5,0.5669291338582677,0.22551557291666624,3.5567027500000004
0,note_on,59,B3,0.7244094488188977,0.1739691562500001,3.86598125
0,note_on,74,D5,0.6929133858267716,0.1739691562500001,3.86598125
0,note_on,71,B4,0.5669291338582677,0.0708763229166669,4.0206205
0,note_on,62,D4,0.6377952755905512,0.07731962500000034,4.0206205
0,note_on,66,F#4,0.7244094488188977,0.19974236458333294,4.17525975
0,note_on,78,F#5,0.5275590551181102,0.2770619895833333,4.17525975
0,note_on,54,F#3,0.44881889763779526,0.1739691562500001,4.17525975
0,note_on,59,B3,0.6929133858267716,0.4188146354166671,4.48453825
0,note_on,74,D5,0.8031496062992126,0.1932990625000004,4.48453825
0,note_on,62,D4,0.7637795275590551,0.16752585416666577,4.639177500000001
0,note_on,71,B4,0.889763779527559,0.08376292708333288,4.639177500000001
0,note_on,66,F#4,0.7244094488188977,0.05798971875000003,4.79381675
0,note_on,64,E4,0.7244094488188977,0.315721802083333,4.948456
0,note_on,76,E5,0.48031496062992124,0.12886604166666693,4.948456
0,note_on,52,E3,0.36220472440944884,0.19974236458333294,4.948456
0,note_on,71,B4,0.8031496062992126,0.19974236458333294,5.10309525
0,note_on,55,G3,0.5669291338582677,0.19974236458333294,5.10309525
0,note_on,67,G4,0.8031496062992126,0.0902062291666672,5.2577345
0,note_on,59,B3,0.6929133858267716,0.0902062291666672,5.2577345
0,note_on,62,D4,0.6929133858267716,0.20618566666666638,5.41237375
0,note_on,50,D3,0.5433070866141733,0.16108255208333233,5.41237375
0,note_on,74,D5,0.6377952755905512,0.1739691562500001,5.41237375
0,note_on,75,D#5,0.7244094488188977,0.15463925000000067,5.72165225
0,note_on,51,D#3,0.7244094488188977,0.20618566666666727,5.72165225
0,note_on,63,D#4,0.6614173228346457,0.15463925000000067,5.72165225
0,note_on,76,E5,0.5905511811023622,0.1739691562500001,6.0309307500000005
0,note_on,64,E4,0.6377952755905512,0.20618566666666638,6.0309307500000005
0,note_on,52,E3,0.6141732283464567,0.18685576041666696,6.0309307500000005
0,note_on,71,B4,0.8031496062992126,0.18685576041666696,6.34020925
0,note_on,55,G3,0.5669291338582677,0.1932990625000004,6.34020925
0,note_on,67,G4,0.7637795275590551,0.08376292708333377,6.4948485
0,note_on,59,B3,0.6141732283464567,0.08376292708333377,6.4948485
0,note_on,76,E5,0.6377952755905512,0.19974236458333294,6.6494877500000005
0,note_on,50,D3,0.6141732283464567,0.1932990624999995,6.6494877500000005
0,note_on,64,E4,0.6929133858267716,0.18041245833333264,6.6494877500000005
0,note_on,55,G3,0.5905511811023622,0.1417526458333329,6.95876625
0,note_on,71,B4,0.7244094488188977,0.20618566666666727,6.95876625
0,note_on,59,B3,0.6377952755905512,0.08376292708333288,7.113405500000001
0,note_on,67,G4,0.889763779527559,0.06443302083333258,7.113405500000001
0,note_on,69,A4,0.7244094488188977,0.051546416666666595,7.2680447500000005
0,note_on,57,A3,0.5118110236220472,0.15463924999999978,7.422684
0,note_on,69,A4,0.7244094488188977,0.22551557291666668,7.422684
0,note_on,81,A5,0.6141732283464567,0.07731962500000034,7.422684
0,note_on,60,C4,0.47244094488188976,0.18041245833333353,7.57732325
0,note_on,76,E5,0.889763779527559,0.19974236458333294,7.57732325
0,note_on,64,E4,0.6141732283464567,0.07087632291666779,7.7319625
0,note_on,72,C5,0.8031496062992126,0.0902062291666672,7.7319625
0,note_on,81,A5,0.5905511811023622,0.1546392499999989,7.8866017500000005
0,note_on,57,A3,0.6141732283464567,0.16752585416666754,7.8866017500000005
0,note_on,69,A4,0.6929133858267716,0.1739691562499992,7.8866017500000005
0,note_on,69,A4,0.41732283464566927,0.07087632291666779,8.19588025
0,note_on,60,C4,0.6929133858267716,0.2126289687499998,8.19588025
0,note_on,76,E5,0.7637795275590551,0.18041245833333264,8.19588025
0,note_on,72,C5,0.7637795275590551,0.09020622916666632,8.3505195
0,note_on,64,E4,0.5669291338582677,0.08376292708333288,8.3505195
0,note_on,79,G5,0.5118110236220472,0.21907227083333325,8.50515875
0,note_on,55,G3,0.5905511811023622,0.19329906250000128,8.50515875
0,note_on,67,G4,0.7244094488188977,0.19329906250000128,8.50515875
0,note_on,76,E5,0.8031496062992126,0.1739691562499992,8.814437250000001
0,note_on,60,C4,0.7244094488188977,0.1739691562499992,8.814437250000001
0,note_on,72,C5,0.7637795275590551,0.0902062291666681,8.9690765
0,note_on,64,E4,0.6141732283464567,0.05798971875000092,8.9690765
0,note_on,79,G5,0.3228346456692913,0.06443302083333258,9.12371575
0,note_on,67,G4,0.6929133858267716,0.07731962499999945,9.12371575
0,note_on,55,G3,0.4015748031496063,0.05798971874999914,9.12371575
0,note_on,67,G4,0.6929133858267716,0.18041245833333264,9.278355000000001
0,note_on,55,G3,0.48031496062992124,0.1932990624999995,9.278355000000001
0,note_on,79,G5,0.5118110236220472,0.3157218020833312,9.278355000000001
0,note_on,76,E5,0.8031496062992126,0.17396915625000098,9.43299425
0,note_on,60,C4,0.5905511811023622,0.17396915625000098,9.43299425
0,note_on,72,C5,0.7637795275590551,0.11597943750000006,9.5876335
0,note_on,64,E4,0.47244094488188976,0.07087632291666601,9.5876335
0,note_on,54,F#3,0.6141732283464567,0.14819594791666724,9.74227275
0,note_on,66,F#4,0.6614173228346457,0.20618566666666638,9.74227275
0,note_on,60,C4,0.5669291338582677,0.18041245833333264,10.051551250000001
0,note_on,76,E5,0.5905511811023622,0.1932990624999995,10.051551250000001
0,note_on,64,E4,0.6141732283464567,0.07731962500000122,10.2061905
0,note_on,60,C4,0.5905511811023622,0.06443302083333435,10.36082975
0,note_on,54,F#3,0.3700787401574803,0.03865981250000061,10.36082975
0,note_on,66,F#4,0.8031496062992126,0.11597943750000006,10.36082975
0,note_on,62,D4,0.49606299212598426,0.05798971875000092,10.67010825
0,note_on,60,C4,0.5669291338582677,0.05798971875000092,10.67010825
0,note_on,74,D5,0.9448818897637795,0.07087632291666601,10.67010825
0,note_on,72,C5,0.889763779527559,0.07087632291666601,10.8247475
0,note_on,69,A4,0.7244094488188977,0.08376292708333466,10.97938675
0,note_on,57,A3,0.6377952755905512,0.10953613541666662,10.97938675
0,note_on,76,E5,0.8031496062992126,0.08376292708333288,11.288665250000001
0,note_on,64,E4,0.5669291338582677,0.06443302083333258,11.288665250000001
0,note_on,62,D4,0.5118110236220472,0.05798971874999914,11.288665250000001
0,note_on,74,D5,1,0.5798971875000003,11.4433045
0,note_on,62,D4,0.8031496062992126,0.605670395833334,11.4433045
0,note_on,67,G4,0.6377952755905512,0.1610825520833341,12.37114
0,note_on,79,G5,0.44881889763779526,0.10953613541666662,12.37114
0,note_on,55,G3,0.48031496062992124,0.11597943750000006,12.37114
0,note_on,59,B3,0.5433070866141733,0.24484547916666521,12.525779250000001
0,note_on,74,D5,0.5905511811023622,0.16752585416666577,12.525779250000001
0,note_on,71,B4,0.6141732283464567,0.06443302083333435,12.6804185
0,note_on,66,F#4,0.8031496062992126,0.1610825520833341,12.83505775
0,note_on,54,F#3,0.6141732283464567,0.1739691562499992,12.83505775
0,note_on,78,F#5,0.5275590551181102,0.1417526458333338,12.83505775
0,note_on,74,D5,0.7637795275590551,0.13530934375000037,13.14433625
0,note_on,59,B3,0.5669291338582677,0.1610825520833341,13.14433625
0,note_on,71,B4,0.7637795275590551,0.07087632291666601,13.298975500000001
0,note_on,62,D4,0.44881889763779526,0.09020622916666632,13.298975500000001
0,note_on,78,F#5,0.5669291338582677,0.17396915625000098,13.45361475
0,note_on,54,F#3,0.6141732283464567,0.1804124583333344,13.45361475
0,note_on,66,F#4,0.7244094488188977,0.19329906250000128,13.45361475
0,note_on,74,D5,0.7637795275590551,0.1739691562499992,13.762893250000001
0,note_on,59,B3,0.5669291338582677,0.1739691562499992,13.762893250000001
0,note_on,71,B4,0.5669291338582677,0.06443302083333435,13.9175325
0,note_on,62,D4,0.5118110236220472,0.09020622916666632,13.9175325
0,note_on,78,F#5,0.28346456692913385,0.03865981250000061,14.07217175
0,note_on,66,F#4,0.6614173228346457,0.06443302083333435,14.07217175
0,note_on,54,F#3,0.4409448818897638,0.19974236458333294,14.226811000000001
0,note_on,66,F#4,0.6614173228346457,0.23195887499999834,14.226811000000001
0,note_on,78,F#5,0.4566929133858268,0.1353093437499986,14.226811000000001
0,note_on,59,B3,0.5433070866141733,0.3865981250000008,14.38145025
0,note_on,74,D5,0.8031496062992126,0.19974236458333472,14.38145025
0,note_on,71,B4,0.8031496062992126,0.09020622916666632,14.536089500000001
0,note_on,62,D4,0.6377952755905512,0.18685576041666607,14.536089500000001
0,note_on,66,F#4,0.7244094488188977,0.05798971875000092,14.69072875
0,note_on,78,F#5,0.3700787401574803,0.04510311458333405,14.69072875
0,note_on,76,E5,0.5118110236220472,0.13530934375000037,14.845368
0,note_on,52,E3,0.5433070866141733,0.1932990624999995,14.845368
0,note_on,64,E4,0.7244094488188977,0.18685576041666607,14.845368
0,note_on,55,G3,0.5433070866141733,0.2255155729166649,15.000007250000001
0,note_on,71,B4,0.7637795275590551,0.21907227083333325,15.000007250000001
0,note_on,59,B3,0.5669291338582677,0.10309283333333497,15.1546465
0,note_on,67,G4,0.889763779527559,0.11597943750000006,15.1546465
0,note_on,50,D3,0.5433070866141733,0.1739691562499992,15.30928575
0,note_on,74,D5,0.6141732283464567,0.14819594791666546,15.30928575
0,note_on,62,D4,0.7637795275590551,0.16752585416666577,15.30928575
0,note_on,51,D#3,0.7244094488188977,0.19974236458333472,15.61856425
0,note_on,63,D#4,0.7244094488188977,0.13530934375000037,15.61856425
0,note_on,75,D#5,0.5669291338582677,0.14819594791666546,15.61856425
0,note_on,52,E3,0.5669291338582677,0.1932990624999995,15.92784275
0,note_on,64,E4,0.6929133858267716,0.1932990624999995,15.92784275
0,note_on,76,E5,0.6141732283464567,0.18685576041666607,15.92784275
0,note_on,55,G3,0.5669291338582677,0.19974236458333294,16.23712125
0,note_on,71,B4,0.6929133858267716,0.16752585416666577,16.23712125
0,note_on,67,G4,0.7637795275590551,0.09664953125000153,16.3917605
0,note_on,59,B3,0.5433070866141733,0.08376292708333466,16.3917605
0,note_on,50,D3,0.6929133858267716,0.17396915625000275,16.54639975
0,note_on,62,D4,0.6141732283464567,0.15463925000000245,16.54639975
0,note_on,74,D5,0.6377952755905512,0.15463925000000245,16.54639975
0,note_on,71,B4,0.7637795275590551,0.18041245833333264,16.85567825
0,note_on,55,G3,0.6929133858267716,0.12886604166666515,16.85567825
0,note_on,59,B3,0.7637795275590551,0.07731962500000122,17.0103175
0,note_on,69,A4,0.7244094488188977,0.03221651041666718,17.0103175
0,note_on,67,G4,0.889763779527559,0.05154641666666748,17.0103175
0,note_on,69,A4,0.889763779527559,0.07087632291666424,17.16495675
0,note_on,69,A4,0.7244094488188977,0.22551557291666668,17.319596
0,note_on,81,A5,0.6141732283464567,0.06443302083333435,17.319596
0,note_on,57,A3,0.10236220472440945,0.16108255208333233,17.319596
0,note_on,60,C4,0.44881889763779526,0.16108255208333588,17.47423525
0,note_on,76,E5,0.8031496062992126,0.17396915625000275,17.47423525
0,note_on,64,E4,0.5905511811023622,0.07731962499999767,17.628874500000002
0,note_on,72,C5,0.8031496062992126,0.0837629270833311,17.628874500000002
0,note_on,57,A3,0.5118110236220472,0.07087632291666424,17.78351375
0,note_on,69,A4,0.7244094488188977,0.09020622916666454,17.78351375
0,note_on,81,A5,0.4645669291338583,0.06443302083333435,17.78351375
0,note_on,57,A3,0.5118110236220472,0.20618566666666638,17.938153
0,note_on,69,A4,0.6929133858267716,0.32860840625000165,17.938153
0,note_on,81,A5,0.5118110236220472,0.15463925000000245,17.938153
0,note_on,76,E5,0.7637795275590551,0.1932990624999995,18.092792250000002
0,note_on,60,C4,0.44881889763779526,0.1739691562499992,18.092792250000002
0,note_on,64,E4,0.6141732283464567,0.07731962500000122,18.2474315
0,note_on,72,C5,0.6929133858267716,0.07087632291666424,18.2474315
0,note_on,81,A5,0.5905511811023622,0.20618566666666638,18.40207075
0,note_on,69,A4,0.6929133858267716,0.23195887500000012,18.40207075
0,note_on,57,A3,0.6377952755905512,0.22551557291666668,18.40207075
0,note_on,60,C4,0.8031496062992126,0.10953613541666485,18.71134925
0,note_on,76,E5,0.8031496062992126,0.18041245833333264,18.71134925
0,note_on,69,A4,0.41732283464566927,0.07087632291666424,18.71134925
0,note_on,64,E4,0.6377952755905512,0.09664953125000153,18.8659885
0,note_on,72,C5,0.7637795275590551,0.10953613541666485,18.8659885
0,note_on,69,A4,0.7244094488188977,0.08376292708333466,19.02062775
0,note_on,67,G4,0.6929133858267716,0.22551557291666668,19.175267
0,note_on,79,G5,0.47244094488188976,0.09664953124999798,19.175267
0,note_on,55,G3,0.5433070866141733,0.12886604166666515,19.175267
0,note_on,76,E5,0.7637795275590551,0.19974236458333294,19.32990625
0,note_on,60,C4,0.5433070866141733,0.20618566666666638,19.32990625
0,note_on,64,E4,0.7244094488188977,0.08376292708333466,19.4845455
0,note_on,72,C5,0.7244094488188977,0.09664953125000153,19.4845455
0,note_on,67,G4,0.6929133858267716,0.22551557291666668,19.639184750000002
0,note_on,76,E5,0.5433070866141733,0.16752585416666577,19.639184750000002
0,note_on,79,G5,0.5118110236220472,0.2190722708333297,19.639184750000002
0,note_on,55,G3,0.5433070866141733,0.22551557291666668,19.639184750000002
0,note_on,60,C4,0.6929133858267716,0.18685576041666963,19.94846325
0,note_on,76,E5,0.8031496062992126,0.16752585416666932,19.94846325
0,note_on,72,C5,0.6929133858267716,0.07087632291666779,20.103102500000002
0,note_on,67,G4,0.6929133858267716,0.09664953125000153,20.25774175
0,note_on,79,G5,0.44881889763779526,0.07731962500000122,20.25774175
0,note_on,55,G3,0.5433070866141733,0.10309283333333141,20.25774175
0,note_on,74,D5,0.889763779527559,0.0644330208333308,20.567020250000002
0,note_on,62,D4,0.6377952755905512,0.07731962499999767,20.567020250000002
0,note_on,72,C5,0.889763779527559,0.07087632291666779,20.7216595
0,note_on,59,B3,0.5118110236220472,0.0837629270833311,20.87629875
0,note_on,69,A4,0.7244094488188977,0.0902062291666681,20.87629875
0,note_on,64,E4,0.889763779527559,0.07087632291666779,21.18557725
0,note_on,76,E5,0.9448818897637795,0.10309283333333141,21.18557725
0,note_on,74,D5,1,0.6378869062499994,21.3402165
0,note_on,62,D4,0.8031496062992126,0.7023199270833338,21.3402165
0,note_on,59,B3,0.889763779527559,1.063144843749999,22.113412750000002
0,note_on,55,G3,0.6929133858267716,1.076031447916666,22.113412750000002
0,note_on,43,G2,0.5905511811023622,1.1340211666666669,22.113412750000002
0,note_on,69,A4,0.8031496062992126,0.46391775000000024,23.35052675
0,note_on,57,A3,0.889763779527559,0.5219074687500012,23.35052675
0,note_on,64,E4,0.6377952755905512,0.4961342604166674,23.35052675
0,note_on,50,D3,0.6141732283464567,0.5025775625000009,23.96908375
0,note_on,66,F#4,0.889763779527559,0.45103114583333337,23.96908375
0,note_on,62,D4,0.6929133858267716,0.46391775000000024,23.96908375
0,note_on,55,G3,0.8031496062992126,0.4381445416666665,24.587640750000002
0,note_on,67,G4,0.7637795275590551,0.3608249166666653,24.587640750000002
0,note_on,62,D4,0.5433070866141733,0.4123713333333292,24.587640750000002
0,note_on,52,E3,0.48031496062992124,0.18041245833333264,25.20619775
0,note_on,64,E4,0.9448818897637795,0.1288660416666687,25.20619775
0,note_on,62,D4,0.7244094488188977,0.0837629270833311,25.360837
0,note_on,50,D3,0.7244094488188977,0.05798971875000092,25.360837
0,note_on,56,G#3,0.7244094488188977,1.2951037187499992,25.6701155
0,note_on,60,C4,0.5905511811023622,0.05154641666666748,25.6701155
0,note_on,64,E4,0.6141732283464567,0.8247426666666691,25.6701155
0,note_on,59,B3,0.5905511811023622,1.2951037187499992,25.6701155
0,note_on,40,E2,0.6929133858267716,1.2822171145833323,25.6701155
0,note_on,67,G4,0.6929133858267716,0.6829900208333335,27.216508
0,note_on,55,G3,0.6141732283464567,0.7023199270833302,27.216508
0,note_on,64,E4,0.6141732283464567,0.6378869062499994,27.216508
0,note_on,76,E5,0.8031496062992126,0.67654671875,27.216508
0,note_on,60,C4,0.7637795275590551,0.7603096458333312,27.216508
0,note_on,72,C5,0.7637795275590551,0.734536437500001,27.216508
0,note_on,76,E5,0.6929133858267716,1.2951037187499992,28.1443435
0,note_on,72,C5,0.5905511811023622,1.1920108854166678,28.1443435
0,note_on,60,C4,0.7637795275590551,1.1984541875000012,28.1443435
0,note_on,54,F#3,0.6141732283464567,1.262887208333332,28.1443435
0,note_on,64,E4,0.6377952755905512,1.2242273958333314,28.1443435
0,note_on,66,F#4,0.6614173228346457,1.3466501354166667,28.1443435
0,note_on,59,B3,0.48031496062992124,0.03865981250000061,28.1443435
0,note_on,66,F#4,0.8031496062992126,0.7087632291666672,29.690736
0,note_on,74,D5,0.8031496062992126,0.7280931354166675,29.690736
0,note_on,62,D4,0.7244094488188977,0.7989694583333318,29.690736
0,note_on,71,B4,0.6929133858267716,0.7667529479166681,29.690736
0,note_on,59,B3,0.6929133858267716,0.8054127604166688,29.690736
0,note_on,54,F#3,0.4881889763779528,0.6507735104166699,29.690736
0,note_on,59,B3,0.7244094488188977,1.1662376770833305,30.6185715
0,note_on,64,E4,0.6377952755905512,1.2371139999999983,30.6185715
0,note_on,70,A#4,0.47244094488188976,0.3608249166666688,30.6185715
0,note_on,52,E3,0.6377952755905512,1.0438149374999988,30.6185715
0,note_on,74,D5,0.889763779527559,1.269330510416669,30.6185715
0,note_on,73,C#5,0.5669291338582677,0.7023199270833302,30.6185715
0,note_on,71,B4,0.6929133858267716,1.2822171145833323,30.6185715
0,note_on,62,D4,0.6929133858267716,1.1855675833333308,30.6185715
0,note_on,60,C4,0.7244094488188977,0.7603096458333383,32.164964
0,note_on,55,G3,0.5905511811023622,0.6894333229166705,32.164964
0,note_on,64,E4,0.7637795275590551,0.740979739583338,32.164964
0,note_on,72,C5,0.8031496062992126,0.7603096458333383,32.164964
0,note_on,59,B3,0.5433070866141733,0.03221651041667428,32.164964
0,note_on,67,G4,0.6929133858267716,0.6636601145833367,32.164964
0,note_on,76,E5,0.889763779527559,0.6507735104166699,32.164964
0,note_on,54,F#3,0.6614173228346457,1.3595367395833335,33.0927995
0,note_on,59,B3,0.6377952755905512,0.03865981250000061,33.0927995
0,note_on,60,C4,0.8031496062992126,1.185567583333338,33.0927995
0,note_on,66,F#4,0.8031496062992126,1.320876927083333,33.0927995
0,note_on,64,E4,0.7637795275590551,1.11469126041667,33.0927995
0,note_on,72,C5,0.5669291338582677,1.024485031250002,33.0927995
0,note_on,76,E5,0.7244094488188977,1.1469077708333373,33.0927995
0,note_on,66,F#4,0.6614173228346457,0.13530934375000214,34.639192
0,note_on,78,F#5,0.8031496062992126,0.15463925000000245,34.639192
0,note_on,71,B4,0.7244094488188977,0.13530934375000214,34.639192
0,note_on,54,F#3,0.889763779527559,0.13530934375000214,34.639192
0,note_on,74,D5,0.8031496062992126,0.1095361354166684,34.639192
0,note_on,81,A5,0.5905511811023622,0.16108255208332878,37.113420000000005
0,note_on,57,A3,0.5905511811023622,0.18041245833332908,37.113420000000005
0,note_on,69,A4,0.7244094488188977,0.20618566666666283,37.113420000000005
0,note_on,60,C4,0.6377952755905512,0.20618566666666993,37.26805925
0,note_on,76,E5,0.8031496062992126,0.23840217708333,37.26805925
0,note_on,64,E4,0.7244094488188977,0.28350529166666405,37.4226985
0,note_on,72,C5,0.9448818897637795,0.10309283333332786,37.4226985
0,note_on,60,C4,0.2440944881889764,0.11597943750000184,37.57733775
0,note_on,69,A4,0.7244094488188977,0.11597943750000184,37.57733775
0,note_on,67,G4,0.7637795275590551,0.21262896875000337,37.731977
0,note_on,79,G5,0.6141732283464567,0.16108255208333588,37.731977
0,note_on,55,G3,0.6141732283464567,0.19329906250000306,37.731977
0,note_on,76,E5,0.7637795275590551,0.2577320833333303,37.88661625
0,note_on,60,C4,0.6377952755905512,0.18685576041666963,37.88661625
0,note_on,72,C5,0.9448818897637795,0.11597943750000184,38.0412555
0,note_on,64,E4,0.7637795275590551,0.13530934375000214,38.0412555
0,note_on,79,G5,0.3700787401574803,0.0902062291666681,38.19589475
0,note_on,67,G4,0.7244094488188977,0.0902062291666681,38.19589475
0,note_on,81,A5,0.5433070866141733,0.15463924999999534,38.350534
0,note_on,69,A4,0.7244094488188977,0.21262896874999626,38.350534
0,note_on,57,A3,0.6929133858267716,0.16752585416666932,38.350534
0,note_on,60,C4,0.6141732283464567,0.399484729166673,38.50517325
0,note_on,76,E5,0.8031496062992126,0.2899485937500046,38.50517325
0,note_on,64,E4,0.8031496062992126,0.23840217708333,38.6598125
0,note_on,72,C5,0.889763779527559,0.13530934375000214,38.6598125
0,note_on,69,A4,0.7244094488188977,0.10309283333332786,38.81445175
0,note_on,67,G4,0.8031496062992126,0.20618566666666993,38.969091
0,note_on,79,G5,0.49606299212598426,0.18685576041666963,38.969091
0,note_on,55,G3,0.5905511811023622,0.19329906250000306,38.969091
0,note_on,60,C4,0.6377952755905512,0.23840217708333,39.12373025
0,note_on,76,E5,0.889763779527559,0.22551557291667024,39.12373025
0,note_on,64,E4,0.7637795275590551,0.21262896874999626,39.278369500000004
0,note_on,72,C5,0.9448818897637795,0.11597943749999473,39.278369500000004
0,note_on,79,G5,0.5433070866141733,0.03221651041666718,39.43300875
0,note_on,67,G4,0.7637795275590551,0.10309283333333497,39.43300875
0,note_on,60,C4,0.2677165354330709,0.07087632291666779,39.43300875
0,note_on,57,A3,0.6141732283464567,0.15463925000000245,39.587648
0,note_on,69,A4,0.7637795275590551,0.2190722708333368,39.587648
0,note_on,81,A5,0.5669291338582677,0.16108255208333588,39.587648
0,note_on,60,C4,0.6929133858267716,0.22551557291666313,39.742287250000004
0,note_on,76,E5,0.889763779527559,0.2706186874999972,39.742287250000004
0,note_on,72,C5,0.9448818897637795,0.11597943750000184,39.8969265
0,note_on,64,E4,0.8031496062992126,0.2577320833333374,39.8969265
0,note_on,60,C4,0.2125984251968504,0.11597943750000184,40.05156575
0,note_on,69,A4,0.7637795275590551,0.11597943750000184,40.05156575
0,note_on,79,G5,0.5905511811023622,0.1481959479166619,40.206205000000004
0,note_on,55,G3,0.6141732283464567,0.14175264583333558,40.206205000000004
0,note_on,67,G4,0.8031496062992126,0.26417538541666374,40.206205000000004
0,note_on,76,E5,0.7637795275590551,0.28350529166666405,40.36084425
0,note_on,60,C4,0.6141732283464567,0.39304142708333956,40.36084425
0,note_on,72,C5,0.9448818897637795,0.11597943750000184,40.5154835
0,note_on,64,E4,0.7244094488188977,0.2384021770833371,40.5154835
0,note_on,79,G5,0.49606299212598426,0.03221651041666007,40.670122750000004
0,note_on,67,G4,0.7637795275590551,0.09020622916666099,40.670122750000004
0,note_on,69,A4,0.7637795275590551,0.20618566666666283,40.824762
0,note_on,57,A3,0.6377952755905512,0.17396915625000275,40.824762
0,note_on,81,A5,0.6141732283464567,0.14175264583333558,40.824762
0,note_on,76,E5,0.8031496062992126,0.2706186874999972,40.97940125
0,note_on,60,C4,0.5669291338582677,0.4188146354166662,40.97940125
0,note_on,64,E4,0.7637795275590551,0.26417538541666374,41.134040500000005
0,note_on,72,C5,0.889763779527559,0.11597943749999473,41.134040500000005
0,note_on,69,A4,0.8031496062992126,0.09664953125000153,41.28867975
0,note_on,79,G5,0.5118110236220472,0.15463925000000245,41.443319
0,note_on,55,G3,0.5669291338582677,0.19329906249999596,41.443319
0,note_on,67,G4,0.7637795275590551,0.21262896874999626,41.443319
0,note_on,60,C4,0.6377952755905512,0.20618566666666283,41.597958250000005
0,note_on,76,E5,0.8031496062992126,0.24484547916666344,41.597958250000005
0,note_on,72,C5,0.9448818897637795,0.11597943750000184,41.7525975
0,note_on,64,E4,0.7244094488188977,0.0902062291666681,41.7525975
0,note_on,79,G5,0.4251968503937008,0.08376292708333466,41.90723675
0,note_on,67,G4,0.7637795275590551,0.09020622916666099,41.90723675
0,note_on,79,G5,0.49606299212598426,0.161082552083343,42.061876
0,note_on,67,G4,0.7244094488188977,0.20618566666666993,42.061876
0,note_on,55,G3,0.5118110236220472,0.1997423645833365,42.061876
0,note_on,76,E5,0.8031496062992126,0.2384021770833371,42.21651525
0,note_on,60,C4,0.49606299212598426,0.20618566666666283,42.21651525
0,note_on,72,C5,0.889763779527559,0.1095361354166613,42.3711545
0,note_on,64,E4,0.7637795275590551,0.09020622916666099,42.3711545
0,note_on,55,G3,0.5433070866141733,0.0902062291666681,42.52579375
0,note_on,79,G5,0.5433070866141733,0.10309283333334207,42.52579375
0,note_on,77,F5,0.4409448818897638,0.03865981250000061,42.52579375
0,note_on,67,G4,0.8031496062992126,0.08376292708334176,42.52579375
0,note_on,79,G5,0.5905511811023622,0.15463925000000245,42.680433
0,note_on,55,G3,0.5905511811023622,0.1675258541666622,42.680433
0,note_on,67,G4,0.7637795275590551,0.19329906250000306,42.680433
0,note_on,76,E5,0.8031496062992126,0.22551557291666313,42.83507225
0,note_on,60,C4,0.48031496062992124,0.1997423645833365,42.83507225
0,note_on,72,C5,0.889763779527559,0.11597943750000184,42.9897115
0,note_on,64,E4,0.7637795275590551,0.1095361354166684,42.9897115
0,note_on,67,G4,0.8031496062992126,0.09664953125000153,43.14435075
0,note_on,78,F#5,0.44881889763779526,0.03221651041666718,43.14435075
0,note_on,60,C4,0.25984251968503935,0.11597943750000184,43.14435075
0,note_on,66,F#4,0.6141732283464567,0.3286084062499981,43.29899
0,note_on,54,F#3,0.6141732283464567,0.1997423645833365,43.29899
0,note_on,78,F#5,0.3543307086614173,0.06443302083333435,43.29899
0,note_on,78,F#5,0.41732283464566927,0.03865981250000061,43.45362925
0,note_on,60,C4,0.48031496062992124,0.2190722708333368,43.45362925
0,note_on,76,E5,0.6929133858267716,0.2190722708333368,43.45362925
0,note_on,64,E4,0.7244094488188977,0.08376292708333466,43.6082685
0,note_on,72,C5,0.7637795275590551,0.09020622916666099,43.6082685
0,note_on,78,F#5,0.49606299212598426,0.18685576041666252,43.762907750000004
0,note_on,54,F#3,0.6614173228346457,0.18685576041666252,43.762907750000004
0,note_on,66,F#4,0.889763779527559,0.1675258541666622,43.762907750000004
0,note_on,78,F#5,0.4881889763779528,0.16108255208333588,44.07218625
0,note_on,76,E5,0.8031496062992126,0.17396915625000275,44.07218625
0,note_on,66,F#4,0.5669291338582677,0.18685576041666252,44.07218625
0,note_on,60,C4,0.7637795275590551,0.22551557291666313,44.07218625
0,note_on,64,E4,0.5905511811023622,0.06443302083333435,44.226825500000004
0,note_on,72,C5,0.5905511811023622,0.07731962500000122,44.226825500000004
0,note_on,54,F#3,0.4881889763779528,0.1997423645833365,44.38146475
0,note_on,66,F#4,0.889763779527559,0.21262896875000337,44.38146475
0,note_on,78,F#5,0.4881889763779528,0.2190722708333368,44.38146475
0,note_on,59,B3,0.6929133858267716,0.21262896874999626,44.690743250000004
0,note_on,74,D5,0.7244094488188977,0.20618566666666283,44.690743250000004
0,note_on,71,B4,0.49606299212598426,0.0902062291666681,44.8453825
0,note_on,62,D4,0.7637795275590551,0.2899485937500046,44.8453825
0,note_on,66,F#4,0.8031496062992126,0.09020622916666099,45.00002175
0,note_on,59,B3,0.18110236220472442,0.1288660416666616,45.00002175
0,note_on,78,F#5,0.4094488188976378,0.08376292708333466,45.00002175
0,note_on,52,E3,0.6141732283464567,0.22551557291666313,45.154661000000004
0,note_on,64,E4,0.6929133858267716,0.23195887499999657,45.154661000000004
0,note_on,76,E5,0.6377952755905512,0.20618566666666283,45.154661000000004
0,note_on,74,D5,0.7244094488188977,0.2706186875000043,45.30930025
0,note_on,59,B3,0.6377952755905512,0.2190722708333368,45.30930025
0,note_on,71,B4,0.8031496062992126,0.11597943750000184,45.4639395
0,note_on,62,D4,0.7637795275590551,0.2384021770833371,45.4639395
0,note_on,74,D5,0.5905511811023622,0.03221651041666007,45.618578750000005
0,note_on,64,E4,0.8031496062992126,0.06443302083333435,45.618578750000005
0,note_on,59,B3,0.2755905511811024,0.07087632291666068,45.618578750000005
0,note_on,54,F#3,0.6141732283464567,0.13530934375000214,45.773218
0,note_on,78,F#5,0.3858267716535433,0.15463925000000245,45.773218
0,note_on,66,F#4,0.8031496062992126,0.19329906250000306,45.773218
0,note_on,74,D5,0.7637795275590551,0.2384021770833371,45.92785725
0,note_on,59,B3,0.5905511811023622,0.2384021770833371,45.92785725
0,note_on,71,B4,0.6141732283464567,0.10309283333333497,46.082496500000005
0,note_on,62,D4,0.6141732283464567,0.10309283333333497,46.082496500000005
0,note_on,76,E5,0.6377952755905512,0.18685576041666252,46.23713575
0,note_on,64,E4,0.8031496062992126,0.11597943750000184,46.23713575
0,note_on,52,E3,0.6377952755905512,0.16108255208333588,46.23713575
0,note_on,74,D5,0.7637795275590551,0.1804124583333362,46.546414250000005
0,note_on,59,B3,0.6929133858267716,0.2190722708333297,46.546414250000005
0,note_on,71,B4,0.5905511811023622,0.0902062291666681,46.7010535
0,note_on,62,D4,0.5669291338582677,0.0902062291666681,46.7010535
0,note_on,54,F#3,0.7244094488188977,0.1481959479166619,46.85569275
0,note_on,66,F#4,0.889763779527559,0.1675258541666622,46.85569275
0,note_on,78,F#5,0.7244094488188977,0.1804124583333362,46.85569275
0,note_on,74,D5,0.7637795275590551,0.20618566666666283,47.16497125
0,note_on,59,B3,0.6141732283464567,0.26417538541666374,47.16497125
0,note_on,62,D4,0.6929133858267716,0.09664953125000153,47.16497125
0,note_on,71,B4,0.889763779527559,0.11597943750000184,47.3196105
0,note_on,76,E5,0.6929133858267716,0.19329906250000306,47.47424975
0,note_on,52,E3,0.6929133858267716,0.21262896875000337,47.47424975
0,note_on,64,E4,0.7637795275590551,0.15463925000000245,47.47424975
0,note_on,54,F#3,0.889763779527559,0.1675258541666622,47.78352825
0,note_on,78,F#5,0.8031496062992126,0.1804124583333362,47.78352825
0,note_on,66,F#4,0.889763779527559,0.15463924999999534,47.78352825
0,note_on,55,G3,0.7244094488188977,0.1804124583333362,48.09280675
0,note_on,67,G4,0.7637795275590551,0.19329906250000306,48.09280675
0,note_on,79,G5,0.7244094488188977,0.20618566666666283,48.09280675
0,note_on,59,B3,0.7244094488188977,0.16752585416666932,48.40208525
0,note_on,74,D5,0.889763779527559,0.20618566666666993,48.40208525
0,note_on,71,B4,0.889763779527559,0.08376292708333466,48.5567245
0,note_on,62,D4,0.6377952755905512,0.08376292708333466,48.5567245
0,note_on,79,G5,0.7244094488188977,0.1675258541666622,48.711363750000004
0,note_on,55,G3,0.6141732283464567,0.15463924999999534,48.711363750000004
0,note_on,67,G4,0.7637795275590551,0.1481959479166619,48.711363750000004
0,note_on,69,A4,0.7244094488188977,0.07731962500000122,49.02064225
0,note_on,81,A5,0.7244094488188977,0.08376292708333466,49.02064225
0,note_on,57,A3,0.6377952755905512,0.07087632291666068,49.02064225
0,note_on,58,A#3,0.6614173228346457,0.12242273958333527,49.175281500000004
0,note_on,69,A4,0.8031496062992126,0.04510311458333405,49.175281500000004
0,note_on,82,A#5,0.7244094488188977,0.08376292708333466,49.175281500000004
0,note_on,70,A#4,0.8031496062992126,0.07731962500000122,49.175281500000004
0,note_on,71,B4,0.7637795275590551,0.22551557291666313,49.32992075
0,note_on,83,B5,0.6377952755905512,0.1997423645833365,49.32992075
0,note_on,59,B3,0.5905511811023622,0.21262896875000337,49.32992075
0,note_on,80,G#5,0.47244094488188976,0.03221651041666718,49.32992075
0,note_on,78,F#5,1,0.18685576041666252,49.639199250000004
0,note_on,62,D4,0.5905511811023622,0.15463924999999534,49.639199250000004
0,note_on,71,B4,0.48031496062992124,0.03221651041666007,49.639199250000004
0,note_on,66,F#4,0.6614173228346457,0.05798971875000092,49.7938385
0,note_on,75,D#5,0.8031496062992126,0.03221651041666718,49.7938385
0,note_on,74,D5,0.9448818897637795,0.0902062291666681,49.7938385
0,note_on,80,G#5,0.3779527559055118,0.03865981250000061,49.94847775
0,note_on,59,B3,0.48031496062992124,0.07087632291666068,49.94847775
0,note_on,71,B4,0.8031496062992126,0.07087632291666068,49.94847775
0,note_on,83,B5,0.5669291338582677,0.08376292708333466,49.94847775
0,note_on,59,B3,0.5433070866141733,0.1095361354166613,50.103117000000005
0,note_on,83,B5,0.6377952755905512,0.07731962499999412,50.103117000000005
0,note_on,71,B4,0.7244094488188977,0.09664953124999442,50.103117000000005
0,note_on,80,G#5,0.4409448818897638,0.03221651041666007,50.103117000000005
0,note_on,67,G4,0.8031496062992126,0.025773208333340847,50.25775625
0,note_on,57,A3,0.8031496062992126,0.148195947916669,50.25775625
0,note_on,73,C#5,0.49606299212598426,0.03221651041666718,50.25775625
0,note_on,78,F#5,0.5669291338582677,0.03865981250000061,50.25775625
0,note_on,81,A5,0.6929133858267716,0.15463925000000245,50.25775625
0,note_on,69,A4,0.7637795275590551,0.14175264583333558,50.25775625
0,note_on,80,G#5,0.7244094488188977,0.18685576041666252,50.567034750000005
0,note_on,56,G#3,0.8031496062992126,0.14175264583333558,50.567034750000005
0,note_on,68,G#4,0.889763779527559,0.19329906249999596,50.567034750000005
0,note_on,57,A3,0.6141732283464567,0.05154641666666038,50.567034750000005
0,note_on,68,G#4,0.4094488188976378,0.02577320833333374,50.87631325
0,note_on,60,C4,0.6377952755905512,0.06443302083333435,50.87631325
0,note_on,62,D4,0.5669291338582677,0.19329906249999596,50.87631325
0,note_on,77,F5,0.7637795275590551,0.1997423645833365,50.87631325
0,note_on,74,D5,0.6929133858267716,0.07087632291666068,51.030952500000005
0,note_on,65,F4,0.6377952755905512,0.07087632291666068,51.030952500000005
0,note_on,56,G#3,0.6614173228346457,0.1804124583333362,51.18559175
0,note_on,68,G#4,0.889763779527559,0.20618566666666283,51.18559175
0,note_on,80,G#5,0.6614173228346457,0.20618566666666283,51.18559175
0,note_on,65,F4,0.4645669291338583,0.05798971875000092,51.18559175
0,note_on,77,F5,0.8031496062992126,0.21262896874999626,51.494870250000005
0,note_on,68,G#4,0.49606299212598426,0.03221651041666007,51.494870250000005
0,note_on,62,D4,0.7637795275590551,0.18685576041666252,51.494870250000005
0,note_on,65,F4,0.8031496062992126,0.09664953125000153,51.6495095
0,note_on,74,D5,0.9448818897637795,0.07731962500000122,51.6495095
0,note_on,68,G#4,0.889763779527559,0.07731962500000122,51.80414875
0,note_on,80,G#5,0.4251968503937008,0.10309283333333497,51.80414875
0,note_on,57,A3,0.6929133858267716,0.148195947916669,51.958788
0,note_on,81,A5,0.6377952755905512,0.18685576041666963,51.958788
0,note_on,69,A4,0.8031496062992126,0.22551557291667024,51.958788
0,note_on,76,E5,0.8031496062992126,0.2190722708333368,52.11342725
0,note_on,60,C4,0.48031496062992124,0.20618566666666283,52.11342725
0,note_on,72,C5,0.889763779527559,0.09664953125000153,52.2680665
0,note_on,64,E4,0.7244094488188977,0.09664953125000153,52.2680665
0,note_on,69,A4,0.7637795275590551,0.0902062291666681,52.42270575
0,note_on,79,G5,0.49606299212598426,0.12242273958333527,52.577345
0,note_on,67,G4,0.7637795275590551,0.3092784999999978,52.577345
0,note_on,55,G3,0.6141732283464567,0.1481959479166619,52.577345
0,note_on,76,E5,0.7637795275590551,0.2512887812499969,52.731984250000004
0,note_on,60,C4,0.41732283464566927,0.22551557291666313,52.731984250000004
0,note_on,72,C5,0.9448818897637795,0.10309283333334207,52.8866235
0,note_on,64,E4,0.5905511811023622,0.10309283333334207,52.8866235
0,note_on,69,A4,0.8031496062992126,0.20618566666666283,53.04126275
0,note_on,81,A5,0.6929133858267716,0.1997423645833365,53.04126275
0,note_on,57,A3,0.7244094488188977,0.17396915625000275,53.04126275
0,note_on,60,C4,0.6141732283464567,0.1997423645833365,53.35054125
0,note_on,72,C5,0.889763779527559,0.1804124583333362,53.35054125
0,note_on,76,E5,0.889763779527559,0.16108255208333588,53.35054125
0,note_on,69,A4,0.7637795275590551,0.17396915625000275,53.35054125
0,note_on,77,F5,0.8031496062992126,0.05798971875000092,53.35054125
0,note_on,64,E4,0.6929133858267716,0.15463925000000245,53.35054125
0,note_on,69,A4,0.889763779527559,0.09020622916666099,53.659819750000004
0,note_on,57,A3,0.7244094488188977,0.11597943749999473,53.659819750000004
0,note_on,60,C4,0.7244094488188977,0.10309283333334207,53.814459
0,note_on,72,C5,0.889763779527559,0.06443302083334146,53.814459
0,note_on,76,E5,0.889763779527559,0.05798971875000092,53.96909825
0,note_on,64,E4,0.8031496062992126,0.05798971875000092,53.96909825
0,note_on,81,A5,0.9448818897637795,0.08376292708334176,54.27837675
0,note_on,69,A4,0.41732283464566927,0.06443302083334146,54.27837675
0,note_on,83,B5,0.889763779527559,0.05798971875000092,54.587655250000005
0,note_on,74,D5,0.7637795275590551,0.03221651041666718,54.7422945
0,note_on,62,D4,0.3937007874015748,0.03865981250000061,54.7422945
0,note_on,76,E5,0.8031496062992126,0.07087632291666779,54.7422945
0,note_on,79,G5,1,0.05798971875000092,54.89693375
0,note_on,65,F4,0.44881889763779526,0.03221651041666007,54.89693375
0,note_on,81,A5,0.9448818897637795,0.04510311458334115,55.20621225
0,note_on,81,A5,0.889763779527559,0.10309283333333497,55.515490750000005
0,note_on,69,A4,0.8031496062992126,0.07731962499999412,55.515490750000005
0,note_on,57,A3,0.7244094488188977,0.11597943749999473,55.515490750000005
0,note_on,57,A3,0.5433070866141733,0.09020622916666099,56.907244000000006
0,note_on,60,C4,0.4251968503937008,0.03221651041666007,56.907244000000006
0,note_on,66,F#4,0.6614173228346457,0.05798971874999381,56.907244000000006
0,note_on,66,F#4,0.3937007874015748,0.18685576041666252,57.06188325
0,note_on,57,A3,0.3700787401574803,0.21262896875000337,57.06188325
0,note_on,54,F#3,0.8031496062992126,0.6572168125000033,57.37116175
0,note_on,48,C3,0.6929133858267716,0.6636601145833367,57.37116175
0,note_on,57,A3,0.6929133858267716,0.728093135416664,57.37116175
0,note_on,60,C4,0.8031496062992126,0.7989694583333389,57.37116175
0,note_on,66,F#4,0.889763779527559,0.8118560625000057,57.37116175
0,note_on,57,A3,0.8031496062992126,0.3092784999999978,58.144358000000004
0,note_on,60,C4,0.8031496062992126,0.47680435416666,58.608275750000004
0,note_on,66,F#4,0.889763779527559,0.5219074687500012,58.608275750000004
0,note_on,54,F#3,0.889763779527559,0.35438161458333184,58.608275750000004
0,note_on,57,A3,0.6929133858267716,0.4381445416666594,58.608275750000004
0,note_on,79,G5,0.5905511811023622,0.15463925000000245,59.381472
0,note_on,67,G4,0.7637795275590551,0.1997423645833365,59.381472
0,note_on,55,G3,0.6377952755905512,0.12242273958333527,59.381472
0,note_on,74,D5,0.9448818897637795,0.24484547916666344,59.536111250000005
0,note_on,59,B3,0.6377952755905512,0.18685576041666252,59.536111250000005
0,note_on,71,B4,0.889763779527559,0.12242273958333527,59.6907505
0,note_on,62,D4,0.7637795275590551,0.10309283333333497,59.6907505
0,note_on,67,G4,0.7244094488188977,0.09020622916666099,59.84538975
0,note_on,54,F#3,0.5669291338582677,0.19329906249999596,60.000029000000005
0,note_on,78,F#5,0.5275590551181102,0.1675258541666622,60.000029000000005
0,note_on,66,F#4,0.889763779527559,0.1804124583333362,60.000029000000005
0,note_on,59,B3,0.3228346456692913,0.20618566666666283,60.15466825
0,note_on,74,D5,0.7637795275590551,0.23195887500000367,60.15466825
0,note_on,71,B4,0.6377952755905512,0.12242273958333527,60.3093075
0,note_on,62,D4,0.4645669291338583,0.09020622916666099,60.3093075
0,note_on,79,G5,0.5669291338582677,0.22551557291666313,60.463946750000005
0,note_on,55,G3,0.5669291338582677,0.23195887499999657,60.463946750000005
0,note_on,67,G4,0.889763779527559,0.1997423645833365,60.463946750000005
0,note_on,74,D5,0.9448818897637795,0.21262896874999626,60.77322525
0,note_on,59,B3,0.6141732283464567,0.1997423645833365,60.77322525
0,note_on,71,B4,0.889763779527559,0.10309283333333497,60.927864500000005
0,note_on,62,D4,0.7244094488188977,0.09664953124999442,60.927864500000005
0,note_on,55,G3,0.5118110236220472,0.1804124583333362,61.08250375
0,note_on,67,G4,0.7244094488188977,0.19329906250000306,61.08250375
0,note_on,79,G5,0.7244094488188977,0.17396915625000275,61.08250375
0,note_on,77,F5,0.6929133858267716,0.21262896874999626,61.391782250000006
0,note_on,65,F4,0.889763779527559,0.2512887812499969,61.391782250000006
0,note_on,53,F3,0.6929133858267716,0.22551557291666313,61.391782250000006
0,note_on,76,E5,0.7244094488188977,0.22551557291666313,61.70106075
0,note_on,52,E3,0.6377952755905512,0.20618566666666283,61.70106075
0,note_on,64,E4,0.8031496062992126,0.22551557291666313,61.70106075
0,note_on,56,G#3,0.44881889763779526,0.03221651041666718,61.8557
0,note_on,71,B4,0.8031496062992126,0.19329906250000306,62.01033925
0,note_on,56,G#3,0.7244094488188977,0.18685576041666252,62.01033925
0,note_on,59,B3,0.6141732283464567,0.09664953125000153,62.164978500000004
0,note_on,68,G#4,1,0.09664953125000153,62.164978500000004
0,note_on,50,D3,0.5433070866141733,0.16752585416666932,62.31961775
0,note_on,62,D4,0.7244094488188977,0.20618566666666993,62.31961775
0,note_on,74,D5,0.7637795275590551,0.1997423645833365,62.31961775
0,note_on,51,D#3,0.6614173228346457,0.1804124583333362,62.628896250000004
0,note_on,63,D#4,0.889763779527559,0.12242273958333527,62.628896250000004
0,note_on,75,D#5,0.8031496062992126,0.12242273958333527,62.628896250000004
0,note_on,76,E5,0.7244094488188977,0.20618566666666283,62.93817475
0,note_on,52,E3,0.6141732283464567,0.1997423645833365,62.93817475
0,note_on,73,C#5,0.4409448818897638,0.03865981250000061,62.93817475
0,note_on,64,E4,0.6929133858267716,0.19329906250000306,62.93817475
0,note_on,80,G#5,0.889763779527559,0.12242273958334238,63.24745325
0,note_on,56,G#3,0.5669291338582677,0.21262896875000337,63.24745325
0,note_on,68,G#4,0.8031496062992126,0.07087632291666779,63.24745325
0,note_on,69,A4,0.7637795275590551,0.1997423645833365,63.556731750000004
0,note_on,81,A5,0.6377952755905512,0.20618566666666283,63.556731750000004
0,note_on,59,B3,0.5669291338582677,0.23195887499999657,63.556731750000004
0,note_on,56,G#3,0.3858267716535433,0.03865981250000061,63.556731750000004
0,note_on,83,B5,0.889763779527559,0.14175264583333558,63.86601025
0,note_on,71,B4,0.889763779527559,0.1481959479166619,63.86601025
0,note_on,59,B3,0.9448818897637795,0.02577320833333374,64.0206495
0,note_on,69,A4,0.6929133858267716,0.1997423645833436,64.329928
0,note_on,57,A3,0.6377952755905512,0.20618566666666993,64.329928
0,note_on,81,A5,0.6929133858267716,0.14819594791667612,64.329928
0,note_on,76,E5,0.9448818897637795,0.22551557291666313,64.48456725
0,note_on,60,C4,0.6929133858267716,0.3608249166666724,64.48456725
0,note_on,72,C5,0.9448818897637795,0.10309283333333497,64.6392065
0,note_on,64,E4,0.8031496062992126,0.2384021770833442,64.6392065
0,note_on,69,A4,0.8031496062992126,0.09664953124999442,64.79384575
0,note_on,79,G5,0.6141732283464567,0.15463925000000245,64.948485
0,note_on,55,G3,0.6377952755905512,0.18685576041666252,64.948485
0,note_on,67,G4,0.7637795275590551,0.1997423645833294,64.948485
0,note_on,76,E5,0.8031496062992126,0.23840217708333,65.10312425000001
0,note_on,60,C4,0.5905511811023622,0.1804124583333362,65.10312425000001
0,note_on,64,E4,0.7637795275590551,0.11597943750000184,65.2577635
0,note_on,72,C5,0.9448818897637795,0.1095361354166755,65.2577635
0,note_on,79,G5,0.41732283464566927,0.08376292708334176,65.41240275
0,note_on,67,G4,0.7637795275590551,0.0902062291666681,65.41240275
0,note_on,57,A3,0.6929133858267716,0.161082552083343,65.567042
0,note_on,69,A4,0.7244094488188977,0.2190722708333368,65.567042
0,note_on,81,A5,0.5433070866141733,0.161082552083343,65.567042
0,note_on,76,E5,0.8031496062992126,0.2577320833333374,65.72168125
0,note_on,60,C4,0.6141732283464567,0.3092785000000049,65.72168125
0,note_on,72,C5,0.889763779527559,0.14175264583333558,65.8763205
0,note_on,64,E4,0.7637795275590551,0.1288660416666545,65.8763205
0,note_on,79,G5,0.7244094488188977,0.20618566666665572,66.03095975000001
0,note_on,55,G3,0.6929133858267716,0.1804124583333362,66.03095975000001
0,note_on,67,G4,0.7637795275590551,0.21262896874999626,66.03095975000001
0,note_on,80,G#5,0.6614173228346457,0.161082552083343,66.34023825
0,note_on,56,G#3,0.8031496062992126,0.22551557291666313,66.34023825
0,note_on,68,G#4,0.889763779527559,0.1288660416666687,66.34023825
0,note_on,81,A5,0.5433070866141733,0.19329906250000306,66.64951675
0,note_on,69,A4,0.6929133858267716,0.20618566666665572,66.64951675
0,note_on,57,A3,0.6377952755905512,0.14175264583333558,66.64951675
0,note_on,76,E5,0.8031496062992126,0.1804124583333362,66.95879525000001
0,note_on,60,C4,0.6929133858267716,0.20618566666665572,66.95879525000001
0,note_on,64,E4,0.7637795275590551,0.07731962500000122,67.1134345
0,note_on,72,C5,0.9448818897637795,0.08376292708334176,67.1134345
0,note_on,79,G5,0.6377952755905512,0.1804124583333362,67.26807375
0,note_on,55,G3,0.6377952755905512,0.161082552083343,67.26807375
0,note_on,67,G4,0.889763779527559,0.20618566666666993,67.26807375
0,note_on,68,G#4,0.889763779527559,0.11597943750000184,67.57735225
0,note_on,56,G#3,0.889763779527559,0.19329906250000306,67.57735225
0,note_on,80,G#5,0.6614173228346457,0.15463925000000245,67.57735225
0,note_on,75,D#5,0.8031496062992126,0.03221651041666007,67.7319915
0,note_on,57,A3,0.7244094488188977,0.12242273958332817,67.88663075000001
0,note_on,81,A5,0.6929133858267716,0.1804124583333362,67.88663075000001
0,note_on,69,A4,0.8031496062992126,0.1997423645833294,67.88663075000001
0,note_on,60,C4,0.7637795275590551,0.17396915625000986,68.19590925
0,note_on,76,E5,0.8031496062992126,0.20618566666666993,68.19590925
0,note_on,72,C5,0.889763779527559,0.11597943750000184,68.3505485
0,note_on,64,E4,0.8031496062992126,0.07087632291666068,68.3505485
0,note_on,69,A4,0.7637795275590551,0.07731962500000122,68.50518775
0,note_on,79,G5,0.4645669291338583,0.10309283333333497,68.659827
0,note_on,67,G4,0.7637795275590551,0.22551557291666313,68.659827
0,note_on,55,G3,0.6929133858267716,0.1481959479166619,68.659827
0,note_on,76,E5,0.8031496062992126,0.21262896874999626,68.81446625000001
0,note_on,60,C4,0.7637795275590551,0.19329906249998885,68.81446625000001
0,note_on,64,E4,0.889763779527559,0.08376292708334176,68.9691055
0,note_on,72,C5,0.9448818897637795,0.09664953125000864,68.9691055
0,note_on,67,G4,0.8031496062992126,0.08376292708334176,69.12374475
0,note_on,79,G5,0.5669291338582677,0.09664953125000864,69.12374475
0,note_on,55,G3,0.5905511811023622,0.13530934374999504,69.278384
0,note_on,79,G5,0.6141732283464567,0.13530934374999504,69.278384
0,note_on,67,G4,0.7244094488188977,0.1288660416666687,69.278384
0,note_on,60,C4,0.5905511811023622,0.1804124583333362,69.43302325
0,note_on,67,G4,0.4094488188976378,0.05154641666666748,69.43302325
0,note_on,76,E5,0.8031496062992126,0.20618566666665572,69.43302325
0,note_on,64,E4,0.6929133858267716,0.06443302083333435,69.58766250000001
0,note_on,72,C5,0.889763779527559,0.07731962500000122,69.58766250000001
0,note_on,64,E4,0.49606299212598426,0.04510311458334115,69.74230175
0,note_on,79,G5,0.6377952755905512,0.18685576041667673,69.74230175
0,note_on,55,G3,0.7244094488188977,0.14819594791667612,69.74230175
0,note_on,67,G4,0.7244094488188977,0.1804124583333362,69.74230175
0,note_on,76,E5,0.8031496062992126,0.13530934374999504,70.05158025
0,note_on,67,G4,0.4409448818897638,0.13530934374999504,70.05158025
0,note_on,60,C4,0.8031496062992126,0.20618566666666993,70.05158025
0,note_on,64,E4,0.7244094488188977,0.06443302083333435,70.2062195
0,note_on,72,C5,0.44881889763779526,0.07087632291666068,70.2062195
0,note_on,66,F#4,0.889763779527559,0.1804124583333362,70.36085875
0,note_on,54,F#3,0.7244094488188977,0.19329906250000306,70.36085875
0,note_on,78,F#5,0.4566929133858268,0.15463925000000245,70.36085875
0,note_on,76,E5,0.49606299212598426,0.02577320833333374,70.36085875
0,note_on,78,F#5,0.3937007874015748,0.03221651041667428,70.67013725
0,note_on,76,E5,0.7637795275590551,0.18685576041667673,70.67013725
0,note_on,66,F#4,0.3779527559055118,0.03221651041667428,70.67013725
0,note_on,60,C4,0.7244094488188977,0.16752585416666932,70.67013725
0,note_on,72,C5,0.8031496062992126,0.07087632291666068,70.8247765
0,note_on,64,E4,0.8031496062992126,0.06443302083333435,70.8247765
0,note_on,66,F#4,0.7244094488188977,0.08376292708334176,70.97941575
0,note_on,78,F#5,0.44881889763779526,0.08376292708334176,70.97941575
0,note_on,54,F#3,0.49606299212598426,0.07087632291666068,70.97941575
0,note_on,78,F#5,0.6141732283464567,0.3092785000000049,71.134055
0,note_on,54,F#3,0.7244094488188977,0.18685576041666252,71.134055
0,note_on,66,F#4,0.8031496062992126,0.20618566666666993,71.134055
0,note_on,60,C4,0.6929133858267716,0.17396915624999565,71.28869425
0,note_on,76,E5,0.6377952755905512,0.23195887500000367,71.28869425
0,note_on,64,E4,0.8031496062992126,0.06443302083333435,71.44333350000001
0,note_on,72,C5,0.8031496062992126,0.09020622916665388,71.44333350000001
0,note_on,78,F#5,0.3937007874015748,0.12242273958334238,71.59797275
0,note_on,66,F#4,0.889763779527559,0.07731962500000122,71.59797275
0,note_on,78,F#5,0.4251968503937008,0.161082552083343,71.752612
0,note_on,54,F#3,0.7244094488188977,0.13530934375000925,71.752612
0,note_on,66,F#4,0.8031496062992126,0.24484547916667054,71.752612
0,note_on,59,B3,0.6377952755905512,0.21262896874999626,71.90725125
0,note_on,74,D5,0.889763779527559,0.2190722708333368,71.90725125
0,note_on,62,D4,0.7244094488188977,0.2577320833333374,72.0618905
0,note_on,78,F#5,0.23622047244094488,0.06443302083333435,72.0618905
0,note_on,71,B4,0.889763779527559,0.07731962500000122,72.0618905
0,note_on,66,F#4,0.889763779527559,0.09020622916665388,72.21652975
0,note_on,59,B3,0.2677165354330709,0.16108255208332878,72.21652975
0,note_on,78,F#5,0.33070866141732286,0.03221651041666007,72.21652975
0,note_on,64,E4,0.7244094488188977,0.2899485937499975,72.37116900000001
0,note_on,52,E3,0.5669291338582677,0.2190722708333368,72.37116900000001
0,note_on,76,E5,0.6377952755905512,0.1675258541666551,72.37116900000001
0,note_on,74,D5,0.6141732283464567,0.21262896875001047,72.52580825
0,note_on,59,B3,0.5905511811023622,0.2190722708333368,72.52580825
0,note_on,71,B4,0.8031496062992126,0.0902062291666681,72.6804475
0,note_on,62,D4,0.5669291338582677,0.08376292708334176,72.6804475
0,note_on,66,F#4,1,0.1804124583333362,72.83508675
0,note_on,78,F#5,0.6141732283464567,0.161082552083343,72.83508675
0,note_on,54,F#3,0.8031496062992126,0.13530934374999504,72.83508675
0,note_on,74,D5,0.7637795275590551,0.18685576041666252,73.14436525
0,note_on,73,C#5,0.5669291338582677,0.10309283333333497,73.14436525
0,note_on,59,B3,0.7244094488188977,0.24484547916665633,73.14436525
0,note_on,62,D4,0.7244094488188977,0.09664953124999442,73.29900450000001
0,note_on,71,B4,0.9448818897637795,0.08376292708332755,73.29900450000001
0,note_on,76,E5,0.6141732283464567,0.18685576041666252,73.45364375
0,note_on,64,E4,0.8031496062992126,0.1481959479166619,73.45364375
0,note_on,52,E3,0.6929133858267716,0.1804124583333362,73.45364375
0,note_on,74,D5,0.7244094488188977,0.20618566666666993,73.76292225
0,note_on,59,B3,0.7637795275590551,0.1997423645833294,73.76292225
0,note_on,62,D4,0.6929133858267716,0.06443302083333435,73.9175615
0,note_on,71,B4,0.889763779527559,0.08376292708332755,73.9175615
0,note_on,54,F#3,0.5275590551181102,0.07731962500000122,74.07220075000001
0,note_on,78,F#5,0.44881889763779526,0.08376292708332755,74.07220075000001
0,note_on,66,F#4,0.8031496062992126,0.07731962500000122,74.07220075000001
0,note_on,78,F#5,0.4881889763779528,0.13530934374999504,74.22684000000001
0,note_on,66,F#4,0.8031496062992126,0.19329906249998885,74.22684000000001
0,note_on,54,F#3,0.7244094488188977,0.1804124583333362,74.22684000000001
0,note_on,59,B3,0.47244094488188976,0.19329906250000306,74.38147925
0,note_on,74,D5,0.8031496062992126,0.19329906250000306,74.38147925
0,note_on,71,B4,0.889763779527559,0.0902062291666681,74.5361185
0,note_on,64,E4,0.7637795275590551,0.15463925000000245,74.69075775
0,note_on,76,E5,0.6141732283464567,0.17396915624999565,74.69075775
0,note_on,52,E3,0.6377952755905512,0.20618566666666993,74.69075775
0,note_on,54,F#3,0.8031496062992126,0.17396915624999565,75.00003625000001
0,note_on,78,F#5,0.8031496062992126,0.1675258541666551,75.00003625000001
0,note_on,66,F#4,0.889763779527559,0.15463924999998824,75.00003625000001
0,note_on,61,C#4,0.41732283464566927,0.03221651041667428,75.1546755
0,note_on,79,G5,0.7637795275590551,0.19329906250000306,75.30931475
0,note_on,67,G4,0.7637795275590551,0.1997423645833436,75.30931475
0,note_on,55,G3,0.8031496062992126,0.15463925000000245,75.30931475
0,note_on,59,B3,0.7244094488188977,0.1804124583333362,75.61859325
0,note_on,74,D5,0.889763779527559,0.20618566666666993,75.61859325
0,note_on,62,D4,0.8031496062992126,0.08376292708332755,75.7732325
0,note_on,71,B4,0.889763779527559,0.06443302083333435,75.7732325
0,note_on,57,A3,0.8031496062992126,0.18685576041666252,75.92787175000001
0,note_on,69,A4,0.8031496062992126,0.21262896874999626,75.92787175000001
0,note_on,81,A5,0.7637795275590551,0.1997423645833294,75.92787175000001
0,note_on,70,A#4,0.889763779527559,0.161082552083343,76.23715025
0,note_on,58,A#3,0.8031496062992126,0.24484547916667054,76.23715025
0,note_on,82,A#5,0.7244094488188977,0.161082552083343,76.23715025
0,note_on,84,C6,0.5118110236220472,0.03865981250000061,76.54642875
0,note_on,83,B5,0.47244094488188976,0.19329906250000306,76.54642875
0,note_on,71,B4,0.7637795275590551,0.20618566666665572,76.54642875
0,note_on,59,B3,0.6929133858267716,0.1997423645833294,76.54642875
0,note_on,72,C5,0.6377952755905512,0.03221651041666007,76.54642875
0,note_on,71,B4,0.3700787401574803,0.03221651041666007,76.85570725000001
0,note_on,78,F#5,0.889763779527559,0.19329906249998885,76.85570725000001
0,note_on,62,D4,0.6377952755905512,0.1997423645833294,76.85570725000001
0,note_on,66,F#4,0.8031496062992126,0.0708763229166749,77.0103465
0,note_on,74,D5,0.9448818897637795,0.0902062291666681,77.0103465
0,note_on,71,B4,0.889763779527559,0.20618566666666993,77.16498575
0,note_on,83,B5,0.6377952755905512,0.15463925000000245,77.16498575
0,note_on,59,B3,0.7244094488188977,0.1804124583333362,77.16498575
0,note_on,57,A3,0.7637795275590551,0.21262896874999626,77.47426425
0,note_on,69,A4,0.7637795275590551,0.18685576041666252,77.47426425
0,note_on,81,A5,0.6929133858267716,0.1675258541666551,77.47426425
0,note_on,80,G#5,0.6614173228346457,0.1804124583333362,77.78354275000001
0,note_on,68,G#4,0.8031496062992126,0.22551557291666313,77.78354275000001
0,note_on,57,A3,0.6929133858267716,0.09020622916665388,77.78354275000001
0,note_on,62,D4,0.6929133858267716,0.1997423645833436,78.09282125
0,note_on,77,F5,0.7244094488188977,0.21262896874999626,78.09282125
0,note_on,65,F4,0.6377952755905512,0.03221651041666007,78.2474605
0,note_on,74,D5,0.8031496062992126,0.07087632291666068,78.2474605
0,note_on,68,G#4,0.889763779527559,0.08376292708332755,78.40209975
0,note_on,80,G#5,0.4566929133858268,0.10309283333333497,78.40209975
0,note_on,56,G#3,0.4015748031496063,0.03865981250000061,78.40209975
0,note_on,56,G#3,0.8031496062992126,0.15463925000000245,78.55673900000001
0,note_on,80,G#5,0.4566929133858268,0.1675258541666551,78.55673900000001
0,note_on,68,G#4,0.8031496062992126,0.23195887499998946,78.55673900000001
0,note_on,77,F5,0.6929133858267716,0.20618566666665572,78.71137825000001
0,note_on,62,D4,0.4094488188976378,0.19329906249998885,78.71137825000001
0,note_on,75,D#5,0.8031496062992126,0.03221651041667428,78.8660175
0,note_on,74,D5,0.9448818897637795,0.07731962500000122,78.8660175
0,note_on,65,F4,0.7637795275590551,0.2512887812500111,78.8660175
0,note_on,62,D4,0.23622047244094488,0.11597943750000184,79.02065675
0,note_on,80,G#5,0.4015748031496063,0.10309283333333497,79.02065675
0,note_on,68,G#4,0.889763779527559,0.08376292708334176,79.02065675
0,note_on,57,A3,0.6141732283464567,0.15463925000000245,79.175296
0,note_on,81,A5,0.6141732283464567,0.13530934374999504,79.175296
0,note_on,69,A4,0.7637795275590551,0.2190722708333226,79.175296
0,note_on,60,C4,0.5433070866141733,0.18685576041667673,79.32993525
0,note_on,76,E5,0.7637795275590551,0.26417538541666374,79.32993525
0,note_on,64,E4,0.7244094488188977,0.22551557291666313,79.48457450000001
0,note_on,72,C5,0.889763779527559,0.1095361354166613,79.48457450000001
0,note_on,69,A4,0.8031496062992126,0.10309283333333497,79.63921375
0,note_on,60,C4,0.31496062992125984,0.0708763229166749,79.63921375
0,note_on,55,G3,0.6141732283464567,0.1095361354166755,79.793853
0,note_on,67,G4,0.7637795275590551,0.3286084062499981,79.793853
0,note_on,79,G5,0.5905511811023622,0.15463925000000245,79.793853
0,note_on,76,E5,0.7637795275590551,0.22551557291667734,79.94849225
0,note_on,60,C4,0.5669291338582677,0.21262896874999626,79.94849225
0,note_on,64,E4,0.6377952755905512,0.08376292708332755,80.1031315
0,note_on,72,C5,0.8031496062992126,0.08376292708332755,80.1031315
0,note_on,57,A3,0.7244094488188977,0.18041245833332198,80.25777075
0,note_on,69,A4,0.7637795275590551,0.18685576041667673,80.25777075
0,note_on,81,A5,0.6141732283464567,0.18041245833332198,80.25777075
0,note_on,69,A4,0.47244094488188976,0.051546416666681694,80.56704925
0,note_on,60,C4,0.7244094488188977,0.09664953125000864,80.56704925
0,note_on,76,E5,0.889763779527559,0.2190722708333368,80.56704925
0,note_on,72,C5,0.8031496062992126,0.11597943750000184,80.7216885
0,note_on,64,E4,0.6377952755905512,0.057989718750008024,80.7216885
0,note_on,67,G4,0.7637795275590551,0.17396915624999565,80.87632775
0,note_on,79,G5,0.6377952755905512,0.18041245833332198,80.87632775
0,note_on,55,G3,0.6377952755905512,0.15463925000000245,80.87632775
0,note_on,56,G#3,0.8031496062992126,0.17396915624999565,81.18560625
0,note_on,68,G#4,0.889763779527559,0.10309283333332075,81.18560625
0,note_on,80,G#5,0.7244094488188977,0.1288660416666687,81.18560625
0,note_on,69,A4,0.6929133858267716,0.21262896875001047,81.49488475
0,note_on,81,A5,0.6141732283464567,0.19329906250000306,81.49488475
0,note_on,57,A3,0.7637795275590551,0.17396915625000986,81.49488475
0,note_on,69,A4,0.4330708661417323,0.05154641666666748,81.80416325
0,note_on,60,C4,0.6141732283464567,0.16752585416666932,81.80416325
0,note_on,76,E5,0.889763779527559,0.1997423645833294,81.80416325
0,note_on,72,C5,0.889763779527559,0.1095361354166755,81.9588025
0,note_on,64,E4,0.7637795275590551,0.08376292708332755,81.9588025
0,note_on,60,C4,0.30708661417322836,0.0708763229166749,82.11344175
0,note_on,64,E4,0.3937007874015748,0.07731962500000122,82.11344175
0,note_on,69,A4,0.7637795275590551,0.08376292708332755,82.11344175
0,note_on,67,G4,0.7244094488188977,0.26417538541666374,82.26808100000001
0,note_on,79,G5,0.5669291338582677,0.1288660416666687,82.26808100000001
0,note_on,55,G3,0.6377952755905512,0.11597943749998763,82.26808100000001
0,note_on,60,C4,0.49606299212598426,0.17396915625000986,82.42272025
0,note_on,76,E5,0.6377952755905512,0.20618566666668414,82.42272025
0,note_on,64,E4,0.6141732283464567,0.0708763229166749,82.5773595
0,note_on,72,C5,0.8031496062992126,0.0902062291666823,82.5773595
0,note_on,81,A5,0.6141732283464567,0.1997423645833294,82.73199875
0,note_on,69,A4,0.7637795275590551,0.2190722708333226,82.73199875
0,note_on,57,A3,0.7637795275590551,0.18041245833332198,82.73199875
0,note_on,76,E5,0.889763779527559,0.21262896874999626,83.04127725000001
0,note_on,60,C4,0.7244094488188977,0.10309283333332075,83.04127725000001
0,note_on,69,A4,0.4330708661417323,0.04510311458332694,83.04127725000001
0,note_on,64,E4,0.7244094488188977,0.05798971874999381,83.19591650000001
0,note_on,72,C5,0.8031496062992126,0.0902062291666681,83.19591650000001
0,note_on,55,G3,0.6377952755905512,0.1804124583333362,83.35055575
0,note_on,79,G5,0.6141732283464567,0.19329906250000306,83.35055575
0,note_on,67,G4,0.7637795275590551,0.19329906250000306,83.35055575
0,note_on,76,E5,0.889763779527559,0.18041245833332198,83.65983425
0,note_on,60,C4,0.7637795275590551,0.17396915624999565,83.65983425
0,note_on,64,E4,0.8031496062992126,0.05798971874999381,83.8144735
0,note_on,72,C5,0.7637795275590551,0.08376292708332755,83.8144735
0,note_on,67,G4,0.8031496062992126,0.09664953124999442,83.96911275000001
0,note_on,66,F#4,0.889763779527559,0.3157218020833312,84.123752
0,note_on,50,D3,0.8031496062992126,0.7280931354166853,84.123752
0,note_on,38,D2,0.8031496062992126,0.7860828541666791,84.123752
0,note_on,54,F#3,0.6141732283464567,0.2512887812500111,84.123752
0,note_on,78,F#5,0.4881889763779528,0.3414950104166792,84.123752
0,note_on,57,A3,0.7637795275590551,0.07731962500000122,84.89694825000001
0,note_on,45,A2,0.9448818897637795,0.0902062291666681,84.89694825000001
0,note_on,52,E3,0.7637795275590551,0.08376292708332755,85.20622675
0,note_on,64,E4,0.7637795275590551,0.1095361354166755,85.20622675
0,note_on,50,D3,0.6929133858267716,0.6701034166666773,85.360866
0,note_on,38,D2,0.7637795275590551,0.6443302083333293,85.360866
0,note_on,57,A3,0.8031496062992126,0.07731962500000122,86.13406225
0,note_on,45,A2,0.9448818897637795,0.13530934375000925,86.13406225
0,note_on,50,D3,0.889763779527559,0.08376292708332755,86.44334075
0,note_on,62,D4,0.7637795275590551,0.0902062291666681,86.44334075
0,note_on,78,F#5,0.5275590551181102,0.15463925000000245,86.59798
0,note_on,66,F#4,0.7244094488188977,0.23195887500000367,86.60442330208333
0,note_on,54,F#3,0.6614173228346457,0.17396915624999565,86.61086660416667
0,note_on,74,D5,0.8031496062992126,0.20618566666666993,86.73973264583333
0,note_on,59,B3,0.6929133858267716,0.219072270833351,86.77839245833333
0,note_on,71,B4,0.8031496062992126,0.09664953125000864,86.9072585
0,note_on,62,D4,0.7244094488188977,0.0902062291666681,86.92658840625
0,note_on,76,E5,0.6141732283464567,0.16752585416666932,87.08122765625001
0,note_on,64,E4,0.7637795275590551,0.14175264583333558,87.08767095833333
0,note_on,52,E3,0.6377952755905512,0.19329906250000306,87.09411426041667
0,note_on,74,D5,0.7637795275590551,0.12242273958332817,87.36473294791668
0,note_on,59,B3,0.7244094488188977,0.1997423645833436,87.37761955208333
0,note_on,62,D4,0.6141732283464567,0.0708763229166749,87.51292889583333
0,note_on,71,B4,0.44881889763779526,0.07731962500000122,87.52581550000001
0,note_on,78,F#5,0.7244094488188977,0.16108255208331457,87.68045475000001
0,note_on,66,F#4,0.889763779527559,0.18685576041666252,87.68689805208334
0,note_on,54,F#3,0.7244094488188977,0.15463925000000245,87.69978465625
0,note_on,59,B3,0.48031496062992124,0.20618566666666993,87.97040334375001
0,note_on,74,D5,0.5905511811023622,0.17396915624999565,87.98328994791667
0,note_on,62,D4,0.5905511811023622,0.05154641666666748,88.12504259375001
0,note_on,71,B4,0.8031496062992126,0.07087632291666068,88.13148589583334
0,note_on,76,E5,0.6929133858267716,0.14175264583332137,88.29901175
0,note_on,64,E4,0.7637795275590551,0.12242273958334238,88.30545505208333
0,note_on,52,E3,0.6377952755905512,0.19329906250000306,88.31189835416667
0,note_on,74,D5,0.6929133858267716,0.1997423645833436,88.59540364583333
0,note_on,59,B3,0.49606299212598426,0.161082552083343,88.59540364583333
0,note_on,57,A3,0.44881889763779526,0.1288660416666545,88.60184694791667
0,note_on,71,B4,0.9448818897637795,0.0902062291666823,88.7629295
0,note_on,66,F#4,0.8031496062992126,0.06443302083332014,88.93689865625001
0,note_on,78,F#5,0.36220472440944884,0.05154641666666748,88.94334195833333
0,note_on,54,F#3,0.7244094488188977,0.13530934375000925,89.09153790625
0,note_on,78,F#5,0.4251968503937008,0.161082552083343,89.09798120833334
0,note_on,66,F#4,0.889763779527559,0.3350517083333244,89.10442451041668
0,note_on,74,D5,0.889763779527559,0.21262896874999626,89.23329055208333
0,note_on,59,B3,0.49606299212598426,0.16108255208332878,89.2655070625
0,note_on,62,D4,0.6929133858267716,0.07731962500000122,89.38792980208333
0,note_on,71,B4,0.8031496062992126,0.08376292708334176,89.40725970833333
0,note_on,54,F#3,0.7244094488188977,0.23840217708333,89.55545565625
0,note_on,78,F#5,0.6614173228346457,0.23840217708333,89.55545565625
0,note_on,66,F#4,0.8031496062992126,0.22551557291667734,89.56189895833333
0,note_on,59,B3,0.6929133858267716,0.24484547916667054,89.83251764583333
0,note_on,74,D5,0.6377952755905512,0.21262896874999626,89.83896094791668
0,note_on,71,B4,0.7244094488188977,0.1095361354166755,89.98071359375
0,note_on,69,A4,0.9448818897637795,0.12242273958335659,90.18045595833333
0,note_on,57,A3,0.6929133858267716,0.13530934374999504,90.18689926041668
0,note_on,55,G3,0.6141732283464567,0.06443302083332014,90.1933425625
0,note_on,68,G#4,1,0.6507735104166699,90.48329115625
0,note_on,56,G#3,0.889763779527559,0.6443302083333435,90.48973445833333
0,note_on,57,A3,0.6929133858267716,0.17396915625000986,91.546436
0,note_on,81,A5,0.6141732283464567,0.14819594791667612,91.546436
0,note_on,69,A4,0.6929133858267716,0.24484547916667054,91.546436
0,note_on,76,E5,0.8031496062992126,0.23840217708333,91.70107525
0,note_on,60,C4,0.6929133858267716,0.2706186875000043,91.70107525
0,note_on,72,C5,0.889763779527559,0.11597943750000184,91.8557145
0,note_on,64,E4,0.7637795275590551,0.13530934374999504,91.8557145
0,note_on,79,G5,0.7637795275590551,0.19329906250000306,92.01035375000001
0,note_on,67,G4,0.889763779527559,0.21262896874999626,92.01035375000001
0,note_on,55,G3,0.6141732283464567,0.19329906250000306,92.01035375000001
0,note_on,80,G#5,0.8031496062992126,0.17396915625000986,92.31963225
0,note_on,68,G#4,0.889763779527559,0.1095361354166755,92.31963225
0,note_on,56,G#3,0.8031496062992126,0.2190722708333368,92.31963225
0,note_on,81,A5,0.7244094488188977,0.20618566666666993,92.62891075
0,note_on,57,A3,0.7244094488188977,0.18041245833332198,92.62891075
0,note_on,69,A4,0.8031496062992126,0.22551557291667734,92.62891075
0,note_on,60,C4,0.8031496062992126,0.2770619895833164,92.93818925000001
0,note_on,76,E5,0.889763779527559,0.17396915624999565,92.93818925000001
0,note_on,72,C5,0.889763779527559,0.09664953124999442,93.09282850000001
0,note_on,64,E4,0.7637795275590551,0.08376292708332755,93.09282850000001
0,note_on,79,G5,0.6929133858267716,0.1997423645833294,93.24746775
0,note_on,67,G4,0.7637795275590551,0.18685576041667673,93.24746775
0,note_on,55,G3,0.8031496062992126,0.1804124583333362,93.24746775
0,note_on,80,G#5,0.7244094488188977,0.13530934374999504,93.55674625
0,note_on,68,G#4,1,0.14175264583332137,93.55674625
0,note_on,56,G#3,0.889763779527559,0.19329906250000306,93.55674625
0,note_on,61,C#4,0.4251968503937008,0.03221651041667428,93.7113855
0,note_on,75,D#5,0.6614173228346457,0.03221651041667428,93.7113855
0,note_on,57,A3,0.7637795275590551,0.16108255208332878,93.86602475000001
0,note_on,81,A5,0.7637795275590551,0.1997423645833294,93.86602475000001
0,note_on,69,A4,0.7637795275590551,0.20618566666666993,93.86602475000001
0,note_on,76,E5,0.9448818897637795,0.1997423645833294,94.17530325
0,note_on,60,C4,0.8031496062992126,0.19329906250000306,94.17530325
0,note_on,64,E4,0.7244094488188977,0.1095361354166755,94.3299425
0,note_on,72,C5,0.889763779527559,0.0902062291666681,94.3299425
0,note_on,69,A4,0.8031496062992126,0.09664953124999442,94.48458175
0,note_on,60,C4,0.33858267716535434,0.05798971874999381,94.48458175
0,note_on,79,G5,0.6377952755905512,0.16108255208332878,94.639221
0,note_on,67,G4,0.7637795275590551,0.19329906250000306,94.639221
0,note_on,55,G3,0.6929133858267716,0.12242273958332817,94.639221
0,note_on,76,E5,0.7244094488188977,0.2512887812499969,94.79386025000001
0,note_on,60,C4,0.6141732283464567,0.2190722708333226,94.79386025000001
0,note_on,72,C5,0.9448818897637795,0.09664953125000864,94.9484995
0,note_on,64,E4,0.7244094488188977,0.0708763229166749,94.9484995
0,note_on,57,A3,0.7637795275590551,0.16752585416668353,95.10313875
0,note_on,69,A4,0.8031496062992126,0.19329906250000306,95.10313875
0,note_on,81,A5,0.6377952755905512,0.1997423645833294,95.10313875
0,note_on,69,A4,0.4409448818897638,0.05798971874999381,95.41241725
0,note_on,76,E5,0.889763779527559,0.1997423645833294,95.41241725
0,note_on,60,C4,0.8031496062992126,0.1997423645833294,95.41241725
0,note_on,64,E4,0.7244094488188977,0.06443302083332014,95.5670565
0,note_on,72,C5,0.889763779527559,0.09664953124999442,95.5670565
0,note_on,67,G4,0.7637795275590551,0.21262896874999626,95.72169575000001
0,note_on,55,G3,0.6929133858267716,0.17396915624999565,95.72169575000001
0,note_on,79,G5,0.8031496062992126,0.19329906249998885,95.72169575000001
0,note_on,80,G#5,0.6614173228346457,0.13530934375000925,96.03097425
0,note_on,68,G#4,0.889763779527559,0.1095361354166755,96.03097425
0,note_on,56,G#3,0.889763779527559,0.1997423645833294,96.03097425
0,note_on,57,A3,0.6377952755905512,0.19329906250000306,96.34025275
0,note_on,81,A5,0.6929133858267716,0.18685576041667673,96.34025275
0,note_on,69,A4,0.889763779527559,0.1997423645833294,96.34025275
0,note_on,59,B3,0.6377952755905512,0.08376292708332755,96.34025275
0,note_on,77,F5,0.7637795275590551,0.04510311458332694,96.64953125000001
0,note_on,76,E5,0.889763779527559,0.21262896874999626,96.64953125000001
0,note_on,60,C4,0.7637795275590551,0.21262896874999626,96.64953125000001
0,note_on,64,E4,0.6929133858267716,0.057989718750008024,96.8041705
0,note_on,72,C5,0.889763779527559,0.09664953125000864,96.8041705
0,note_on,67,G4,0.889763779527559,0.1997423645833294,96.95880975
0,note_on,55,G3,0.6141732283464567,0.18685576041667673,96.95880975
0,note_on,79,G5,0.7637795275590551,0.1997423645833294,96.95880975
0,note_on,79,G5,0.7244094488188977,0.16752585416666932,97.26808825
0,note_on,67,G4,0.889763779527559,0.1997423645833294,97.26808825
0,note_on,55,G3,0.8031496062992126,0.21262896874999626,97.26808825
0,note_on,78,F#5,0.6614173228346457,0.14175264583332137,97.57736675000001
0,note_on,66,F#4,0.889763779527559,0.20618566666666993,97.57736675000001
0,note_on,54,F#3,0.889763779527559,0.18685576041666252,97.57736675000001
0,note_on,76,E5,0.6929133858267716,0.16108255208332878,97.88664525
0,note_on,60,C4,0.8031496062992126,0.18685576041667673,97.88664525
0,note_on,72,C5,0.7637795275590551,0.07731962500000122,98.0412845
0,note_on,64,E4,0.6929133858267716,0.05154641666666748,98.0412845
0,note_on,54,F#3,0.5669291338582677,0.09664953124999442,98.19592375
0,note_on,78,F#5,0.47244094488188976,0.10309283333332075,98.19592375
0,note_on,66,F#4,0.8031496062992126,0.08376292708332755,98.19592375
0,note_on,78,F#5,0.5275590551181102,0.18685576041666252,98.35056300000001
0,note_on,66,F#4,0.8031496062992126,0.32216510416667177,98.35056300000001
0,note_on,54,F#3,0.6614173228346457,0.1997423645833294,98.35056300000001
0,note_on,60,C4,0.5669291338582677,0.2190722708333226,98.50520225000001
0,note_on,78,F#5,0.3543307086614173,0.09664953124999442,98.50520225000001
0,note_on,76,E5,0.5118110236220472,0.18685576041666252,98.50520225000001
0,note_on,72,C5,0.7244094488188977,0.057989718750008024,98.6598415
0,note_on,66,F#4,0.8031496062992126,0.22551557291667734,98.81448075
0,note_on,78,F#5,0.6614173228346457,0.21262896874999626,98.81448075
0,note_on,54,F#3,0.7244094488188977,0.23195887500000367,98.81448075
0,note_on,59,B3,0.7637795275590551,0.1997423645833294,99.12375925
0,note_on,74,D5,0.7244094488188977,0.19329906250000306,99.12375925
0,note_on,71,B4,0.889763779527559,0.07731962500000122,99.27839850000001
0,note_on,62,D4,0.7637795275590551,0.0902062291666681,99.27839850000001
0,note_on,66,F#4,0.8031496062992126,0.0902062291666823,99.43303775
0,note_on,78,F#5,0.4566929133858268,0.0902062291666823,99.43303775
0,note_on,59,B3,0.3700787401574803,0.12886604166668292,99.43303775
0,note_on,52,E3,0.6929133858267716,0.23195887500000367,99.587677
0,note_on,76,E5,0.6377952755905512,0.16108255208332878,99.587677
0,note_on,64,E4,0.8031496062992126,0.20618566666666993,99.587677
0,note_on,59,B3,0.6377952755905512,0.2577320833333232,99.74231625
0,note_on,74,D5,0.7244094488188977,0.20618566666666993,99.74231625
0,note_on,71,B4,0.7637795275590551,0.0902062291666681,99.8969555
0,note_on,70,A#4,0.4251968503937008,0.03221651041667428,99.8969555
0,note_on,66,F#4,0.889763779527559,0.16752585416666932,100.05159475
0,note_on,78,F#5,0.5669291338582677,0.16752585416666932,100.05159475
0,note_on,54,F#3,0.8031496062992126,0.13530934374999504,100.05159475
0,note_on,59,B3,0.7244094488188977,0.24484547916668475,100.36087325
0,note_on,74,D5,0.6929133858267716,0.1997423645833294,100.36087325
0,note_on,62,D4,0.5905511811023622,0.06443302083333435,100.5155125
0,note_on,71,B4,0.7637795275590551,0.0902062291666823,100.5155125
0,note_on,52,E3,0.7637795275590551,0.19329906250000306,100.67015175
0,note_on,75,D#5,0.3858267716535433,0.04510311458332694,100.67015175
0,note_on,76,E5,0.6141732283464567,0.1997423645833294,100.67015175
0,note_on,64,E4,0.7244094488188977,0.16752585416666932,100.67015175
0,note_on,59,B3,0.7244094488188977,0.30283519791666436,100.97943025000001
0,note_on,74,D5,0.9448818897637795,0.18041245833332198,100.97943025000001
0,note_on,71,B4,0.6929133858267716,0.10309283333332075,101.13406950000001
0,note_on,66,F#4,0.889763779527559,0.07731962500000122,101.28870875
0,note_on,54,F#3,0.5669291338582677,0.04510311458332694,101.28870875
0,note_on,78,F#5,0.4015748031496063,0.0902062291666823,101.28870875
0,note_on,66,F#4,0.8031496062992126,0.19329906250000306,101.443348
0,note_on,78,F#5,0.4881889763779528,0.14819594791667612,101.443348
0,note_on,54,F#3,0.6614173228346457,0.12242273958332817,101.443348
0,note_on,59,B3,0.5905511811023622,0.19329906250000306,101.59798725
0,note_on,74,D5,0.8031496062992126,0.19329906250000306,101.59798725
0,note_on,71,B4,0.8031496062992126,0.08376292708332755,101.7526265
0,note_on,62,D4,0.7244094488188977,0.07731962500000122,101.7526265
0,note_on,78,F#5,0.7244094488188977,0.18041245833332198,101.90726575000001
0,note_on,66,F#4,0.889763779527559,0.18041245833332198,101.90726575000001
0,note_on,54,F#3,0.7244094488188977,0.1288660416666687,101.90726575000001
0,note_on,74,D5,0.889763779527559,0.19329906250000306,102.21654425
0,note_on,59,B3,0.6377952755905512,0.20618566666668414,102.21654425
0,note_on,62,D4,0.7637795275590551,0.0708763229166749,102.3711835
0,note_on,71,B4,0.889763779527559,0.10309283333333497,102.3711835
0,note_on,79,G5,0.5905511811023622,0.19329906250000306,102.52582275
0,note_on,55,G3,0.8031496062992126,0.18041245833332198,102.52582275
0,note_on,67,G4,0.8031496062992126,0.20618566666666993,102.52582275
0,note_on,59,B3,0.7637795275590551,0.17396915624999565,102.83510125000001
0,note_on,74,D5,0.9448818897637795,0.19329906249998885,102.83510125000001
0,note_on,71,B4,0.9448818897637795,0.07731962499998701,102.98974050000001
0,note_on,62,D4,0.8031496062992126,0.08376292708332755,102.98974050000001
0,note_on,69,A4,0.8031496062992126,0.21262896875001047,103.14437975
0,note_on,81,A5,0.7637795275590551,0.20618566666668414,103.14437975
0,note_on,57,A3,0.7637795275590551,0.16752585416668353,103.14437975
0,note_on,82,A#5,0.6614173228346457,0.18041245833332198,103.45365825
0,note_on,58,A#3,0.889763779527559,0.1997423645833294,103.45365825
0,note_on,70,A#4,1,0.14175264583332137,103.45365825
0,note_on,71,B4,0.8031496062992126,0.19329906249998885,103.76293675000001
0,note_on,83,B5,0.6377952755905512,0.18041245833332198,103.76293675000001
0,note_on,80,G#5,0.3858267716535433,0.03865981250000061,103.76293675000001
0,note_on,59,B3,0.7244094488188977,0.17396915624999565,103.76293675000001
0,note_on,62,D4,0.7637795275590551,0.18685576041667673,104.07221525
0,note_on,78,F#5,1,0.19329906250000306,104.07221525
0,note_on,74,D5,0.9448818897637795,0.07731962500000122,104.2268545
0,note_on,66,F#4,0.8031496062992126,0.057989718750008024,104.2268545
0,note_on,59,B3,0.6929133858267716,0.18685576041667673,104.38149375
0,note_on,83,B5,0.7637795275590551,0.17396915624999565,104.38149375
0,note_on,71,B4,0.7637795275590551,0.21262896874999626,104.38149375
0,note_on,69,A4,0.889763779527559,0.20618566666666993,104.69077225000001
0,note_on,57,A3,0.8031496062992126,0.20618566666666993,104.69077225000001
0,note_on,81,A5,0.7244094488188977,0.1997423645833294,104.69077225000001
0,note_on,68,G#4,0.889763779527559,0.20618566666666993,105.00005075
0,note_on,56,G#3,0.889763779527559,0.17396915625000986,105.00005075
0,note_on,81,A5,0.6141732283464567,0.11597943750000184,105.00005075
0,note_on,80,G#5,0.6141732283464567,0.14819594791667612,105.00005075
0,note_on,77,F5,0.5669291338582677,0.03221651041667428,105.00005075
0,note_on,77,F5,0.6929133858267716,0.23840217708333,105.30932925
0,note_on,62,D4,0.7244094488188977,0.18685576041667673,105.30932925
0,note_on,65,F4,0.6929133858267716,0.06443302083332014,105.46396850000001
0,note_on,74,D5,0.889763779527559,0.0708763229166749,105.46396850000001
0,note_on,68,G#4,0.889763779527559,0.07731962500000122,105.61860775000001
0,note_on,56,G#3,0.4251968503937008,0.07087632291666068,105.61860775000001
0,note_on,80,G#5,0.6614173228346457,0.11597943749998763,105.61860775000001
0,note_on,56,G#3,0.8031496062992126,0.11597943750000184,105.773247
0,note_on,80,G#5,0.5669291338582677,0.15463925000000245,105.773247
0,note_on,68,G#4,0.8031496062992126,0.21262896875001047,105.773247
0,note_on,62,D4,0.7244094488188977,0.18685576041667673,105.92788625
0,note_on,77,F5,0.8031496062992126,0.24484547916667054,105.92788625
0,note_on,74,D5,0.9448818897637795,0.0708763229166749,106.0825255
0,note_on,65,F4,0.889763779527559,0.1095361354166755,106.0825255
0,note_on,75,D#5,0.7244094488188977,0.03865981250000061,106.0825255
0,note_on,68,G#4,0.889763779527559,0.07731962500000122,106.23716475
0,note_on,62,D4,0.28346456692913385,0.13530934374999504,106.23716475
0,note_on,80,G#5,0.4881889763779528,0.12242273958332817,106.23716475
0,note_on,81,A5,0.44881889763779526,0.11597943750000184,106.39180400000001
0,note_on,69,A4,0.8031496062992126,0.3350517083333244,106.39180400000001
0,note_on,79,G5,0.5118110236220472,0.0902062291666681,106.39180400000001
0,note_on,57,A3,0.47244094488188976,0.2190722708333226,106.39180400000001
0,note_on,76,E5,0.7637795275590551,0.21262896874999626,106.54644325000001
0,note_on,72,C5,0.8031496062992126,0.0902062291666823,106.7010825
0,note_on,60,C4,0.3700787401574803,0.17396915625000986,106.7010825
0,note_on,55,G3,0.6929133858267716,0.14819594791667612,106.85572175
0,note_on,67,G4,0.7637795275590551,0.1804124583333362,106.85572175
0,note_on,77,F5,0.25984251968503935,0.10309283333333497,106.85572175
0,note_on,79,G5,0.5905511811023622,0.16108255208332878,106.85572175
0,note_on,60,C4,0.7244094488188977,0.1997423645833294,107.16500025
0,note_on,76,E5,0.889763779527559,0.21262896874999626,107.16500025
0,note_on,72,C5,0.8031496062992126,0.0902062291666681,107.31963950000001
0,note_on,64,E4,0.6929133858267716,0.06443302083332014,107.31963950000001
0,note_on,57,A3,0.7244094488188977,0.15463924999998824,107.47427875000001
0,note_on,69,A4,0.8031496062992126,0.21262896874999626,107.47427875000001
0,note_on,81,A5,0.7244094488188977,0.21262896874999626,107.47427875000001
0,note_on,60,C4,0.3779527559055118,0.03221651041667428,107.628918
0,note_on,77,F5,0.5669291338582677,0.03865981250000061,107.78355725
0,note_on,76,E5,0.889763779527559,0.20618566666666993,107.78355725
0,note_on,60,C4,0.6141732283464567,0.17396915625000986,107.78355725
0,note_on,72,C5,0.889763779527559,0.08376292708332755,107.9381965
0,note_on,64,E4,0.7244094488188977,0.09664953124999442,107.9381965
0,note_on,69,A4,0.7637795275590551,0.10309283333332075,108.09283575
0,note_on,67,G4,0.7637795275590551,0.2706186874999901,108.24747500000001
0,note_on,79,G5,0.6141732283464567,0.12242273958332817,108.24747500000001
0,note_on,55,G3,0.6377952755905512,0.10309283333332075,108.24747500000001
0,note_on,76,E5,0.7637795275590551,0.22551557291666313,108.40211425000001
0,note_on,60,C4,0.5669291338582677,0.19974236458331518,108.40211425000001
0,note_on,72,C5,0.8031496062992126,0.0902062291666823,108.5567535
0,note_on,64,E4,0.6377952755905512,0.07731962500000122,108.5567535
0,note_on,69,A4,0.7637795275590551,0.19329906250000306,108.71139275
0,note_on,81,A5,0.6141732283464567,0.19329906250000306,108.71139275
0,note_on,57,A3,0.6929133858267716,0.20618566666666993,108.71139275
0,note_on,76,E5,0.889763779527559,0.20618566666666993,109.02067125
0,note_on,60,C4,0.6377952755905512,0.19329906250000306,109.02067125
0,note_on,72,C5,0.8031496062992126,0.09664953124999442,109.17531050000001
0,note_on,64,E4,0.6141732283464567,0.08376292708332755,109.17531050000001
0,note_on,55,G3,0.6141732283464567,0.14819594791667612,109.32994975
0,note_on,79,G5,0.6141732283464567,0.20618566666668414,109.32994975
0,note_on,67,G4,0.7637795275590551,0.16108255208332878,109.32994975
0,note_on,60,C4,0.6141732283464567,0.18685576041667673,109.63922825
0,note_on,76,E5,0.8031496062992126,0.20618566666666993,109.63922825
0,note_on,72,C5,0.8031496062992126,0.08376292708332755,109.7938675
0,note_on,64,E4,0.6929133858267716,0.03865981250000061,109.7938675
0,note_on,81,A5,0.6377952755905512,0.1997423645833294,109.94850675
0,note_on,57,A3,0.6377952755905512,0.16752585416666932,109.94850675
0,note_on,69,A4,0.7637795275590551,0.18685576041667673,109.94850675
0,note_on,60,C4,0.7244094488188977,0.1997423645833294,110.25778525
0,note_on,76,E5,0.889763779527559,0.19329906250000306,110.25778525
0,note_on,64,E4,0.7244094488188977,0.0708763229166749,110.4124245
0,note_on,72,C5,0.8031496062992126,0.0902062291666823,110.4124245
0,note_on,67,G4,0.7244094488188977,0.06443302083333435,110.56706375
0,note_on,79,G5,0.5669291338582677,0.08376292708332755,110.56706375
0,note_on,55,G3,0.5118110236220472,0.06443302083333435,110.56706375
0,note_on,55,G3,0.5433070866141733,0.13530934374999504,110.721703
0,note_on,79,G5,0.5905511811023622,0.15463925000000245,110.721703
0,note_on,67,G4,0.6929133858267716,0.3608249166666724,110.721703
0,note_on,60,C4,0.5905511811023622,0.3479383124999913,110.87634225000001
0,note_on,76,E5,0.7637795275590551,0.16108255208332878,110.87634225000001
0,note_on,72,C5,0.7637795275590551,0.08376292708332755,111.03098150000001
0,note_on,64,E4,0.6377952755905512,0.07731962500000122,111.03098150000001
0,note_on,54,F#3,0.4094488188976378,0.03865981250000061,111.18562075
0,note_on,78,F#5,0.6141732283464567,0.03221651041667428,111.18562075
0,note_on,67,G4,0.6141732283464567,0.07731962500000122,111.18562075
0,note_on,66,F#4,0.5275590551181102,0.3092785000000049,111.34026
0,note_on,78,F#5,0.4251968503937008,0.1804124583333362,111.34026
0,note_on,54,F#3,0.6614173228346457,0.20618566666666993,111.34026
0,note_on,60,C4,0.44881889763779526,0.18041245833332198,111.49489925
0,note_on,76,E5,0.6929133858267716,0.18685576041667673,111.49489925
0,note_on,64,E4,0.6377952755905512,0.03865981250000061,111.6495385
0,note_on,72,C5,0.6929133858267716,0.08376292708332755,111.6495385
0,note_on,54,F#3,0.5669291338582677,0.16752585416666932,111.80417775000001
0,note_on,78,F#5,0.47244094488188976,0.17396915624999565,111.80417775000001
0,note_on,66,F#4,0.8031496062992126,0.18685576041666252,111.80417775000001
0,note_on,64,E4,0.4015748031496063,0.03865981250000061,111.80417775000001
0,note_on,66,F#4,0.889763779527559,0.1804124583333362,112.11345625
0,note_on,54,F#3,0.4881889763779528,0.1804124583333362,112.11345625
0,note_on,78,F#5,0.6614173228346457,0.06443302083333435,112.11345625
0,note_on,54,F#3,0.6141732283464567,0.03865981250000061,112.42273475
0,note_on,64,E4,0.9448818897637795,0.10309283333333497,112.42273475
0,note_on,66,F#4,0.8031496062992126,0.14819594791667612,112.42273475
0,note_on,72,C5,0.7244094488188977,0.14175264583332137,112.42273475
0,note_on,76,E5,0.7637795275590551,0.14175264583332137,112.42273475
0,note_on,60,C4,0.889763779527559,0.14175264583332137,112.42273475
0,note_on,66,F#4,0.8031496062992126,0.2577320833333232,113.81448800000001
0,note_on,78,F#5,0.6141732283464567,0.17396915624999565,113.81448800000001
0,note_on,54,F#3,0.6614173228346457,0.16752585416666932,113.81448800000001
0,note_on,59,B3,0.5669291338582677,0.2577320833333374,113.96912725
0,note_on,74,D5,0.5905511811023622,0.19329906250000306,113.96912725
0,note_on,71,B4,0.6377952755905512,0.06443302083333435,114.1237665
0,note_on,62,D4,0.41732283464566927,0.0902062291666681,114.1237665
0,note_on,52,E3,0.6141732283464567,0.19329906250000306,114.27840575
0,note_on,76,E5,0.6141732283464567,0.16108255208332878,114.27840575
0,note_on,64,E4,0.8031496062992126,0.13530934374999504,114.27840575
0,note_on,59,B3,0.7244094488188977,0.2384021770833158,114.58768425000001
0,note_on,74,D5,0.8031496062992126,0.18041245833332198,114.58768425000001
0,note_on,71,B4,0.3464566929133858,0.057989718750008024,114.7423235
0,note_on,78,F#5,0.6141732283464567,0.1804124583333362,114.89696275
0,note_on,54,F#3,0.7244094488188977,0.15463925000000245,114.89696275
0,note_on,66,F#4,0.8031496062992126,0.18685576041667673,114.89696275
0,note_on,74,D5,0.6929133858267716,0.1997423645833294,115.20624125
0,note_on,59,B3,0.6377952755905512,0.22551557291667734,115.20624125
0,note_on,62,D4,0.6377952755905512,0.08376292708332755,115.36088050000001
0,note_on,71,B4,0.7637795275590551,0.08376292708332755,115.36088050000001
0,note_on,55,G3,0.7244094488188977,0.16752585416666932,115.51551975000001
0,note_on,67,G4,0.7244094488188977,0.17396915624999565,115.51551975000001
0,note_on,79,G5,0.49606299212598426,0.16108255208332878,115.51551975000001
0,note_on,59,B3,0.5433070866141733,0.2190722708333368,115.82479825
0,note_on,74,D5,0.889763779527559,0.20618566666666993,115.82479825
0,note_on,71,B4,0.8031496062992126,0.0708763229166749,115.9794375
0,note_on,62,D4,0.7244094488188977,0.08376292708332755,115.9794375
0,note_on,67,G4,0.8031496062992126,0.03865981250000061,116.13407675
0,note_on,43,G2,0.889763779527559,0.1288660416666687,116.44335525000001
0,note_on,55,G3,0.9448818897637795,0.15463924999998824,116.44335525000001
0,note_on,55,G3,0.889763779527559,0.15463925000000245,116.75263375
0,note_on,43,G2,0.8031496062992126,0.12242273958332817,116.75263375
0,note_on,43,G2,0.889763779527559,0.1288660416666687,117.06191225
0,note_on,55,G3,0.889763779527559,0.13530934374999504,117.06191225
0,note_on,55,G3,0.9448818897637795,0.1288660416666687,117.37119075000001
0,note_on,43,G2,0.9448818897637795,0.1288660416666687,117.37119075000001
0,note_on,54,F#3,0.4881889763779528,0.19329906250000306,118.762944
0,note_on,66,F#4,0.6614173228346457,0.3350517083333244,118.762944
0,note_on,78,F#5,0.44881889763779526,0.1288660416666687,118.762944
0,note_on,59,B3,0.4645669291338583,0.23195887500000367,118.91758325
0,note_on,74,D5,0.7244094488188977,0.18685576041667673,118.91758325
0,note_on,62,D4,0.5433070866141733,0.0902062291666681,119.07222250000001
0,note_on,71,B4,0.7637795275590551,0.0902062291666681,119.07222250000001
0,note_on,54,F#3,0.6141732283464567,0.1997423645833294,119.22686175
0,note_on,66,F#4,0.8031496062992126,0.1997423645833294,119.22686175
0,note_on,78,F#5,0.6614173228346457,0.19329906250000306,119.22686175
0,note_on,74,D5,0.8031496062992126,0.17396915624999565,119.53614025
0,note_on,59,B3,0.7244094488188977,0.1804124583333362,119.53614025
0,note_on,62,D4,0.6141732283464567,0.06443302083332014,119.6907795
0,note_on,71,B4,0.4645669291338583,0.0708763229166749,119.6907795
0,note_on,78,F#5,0.5669291338582677,0.22551557291666313,119.84541875000001
0,note_on,66,F#4,0.7244094488188977,0.20618566666666993,119.84541875000001
0,note_on,54,F#3,0.49606299212598426,0.19329906250000306,119.84541875000001
0,note_on,59,B3,0.7244094488188977,0.17396915625000986,120.15469725
0,note_on,74,D5,0.6929133858267716,0.17396915625000986,120.15469725
0,note_on,71,B4,0.5669291338582677,0.0708763229166749,120.3093365
0,note_on,62,D4,0.6377952755905512,0.07731962500000122,120.3093365
0,note_on,66,F#4,0.7244094488188977,0.1997423645833294,120.46397575
0,note_on,54,F#3,0.44881889763779526,0.17396915624999565,120.46397575
0,note_on,78,F#5,0.5275590551181102,0.2770619895833306,120.46397575
0,note_on,74,D5,0.8031496062992126,0.19329906250000306,120.77325425000001
0,note_on,59,B3,0.6929133858267716,0.4188146354166662,120.77325425000001
0,note_on,62,D4,0.7637795275590551,0.16752585416666932,120.92789350000001
0,note_on,71,B4,0.889763779527559,0.08376292708332755,120.92789350000001
0,note_on,66,F#4,0.7244094488188977,0.057989718750008024,121.08253275
0,note_on,64,E4,0.7244094488188977,0.3157218020833312,121.237172
0,note_on,52,E3,0.36220472440944884,0.1997423645833294,121.237172
0,note_on,76,E5,0.48031496062992124,0.12886604166668292,121.237172
0,note_on,71,B4,0.8031496062992126,0.1997423645833294,121.39181125
0,note_on,55,G3,0.5669291338582677,0.1997423645833294,121.39181125
0,note_on,67,G4,0.8031496062992126,0.0902062291666681,121.5464505
0,note_on,59,B3,0.6929133858267716,0.0902062291666681,121.5464505
0,note_on,50,D3,0.5433070866141733,0.16108255208332878,121.70108975000001
0,note_on,74,D5,0.6377952755905512,0.17396915624999565,121.70108975000001
0,note_on,62,D4,0.6929133858267716,0.20618566666666993,121.70108975000001
0,note_on,51,D#3,0.7244094488188977,0.20618566666668414,122.01036825
0,note_on,63,D#4,0.6614173228346457,0.15463925000000245,122.01036825
0,note_on,75,D#5,0.7244094488188977,0.15463925000000245,122.01036825
0,note_on,64,E4,0.6377952755905512,0.20618566666666993,122.31964675
0,note_on,76,E5,0.5905511811023622,0.17396915624999565,122.31964675
0,note_on,52,E3,0.6141732283464567,0.18685576041667673,122.31964675
0,note_on,55,G3,0.5669291338582677,0.19329906249998885,122.62892525000001
0,note_on,71,B4,0.8031496062992126,0.18685576041666252,122.62892525000001
0,note_on,59,B3,0.6141732283464567,0.08376292708332755,122.78356450000001
0,note_on,67,G4,0.7637795275590551,0.08376292708332755,122.78356450000001
0,note_on,76,E5,0.6377952755905512,0.1997423645833294,122.93820375
0,note_on,64,E4,0.6929133858267716,0.1804124583333362,122.93820375
0,note_on,50,D3,0.6141732283464567,0.19329906250000306,122.93820375
0,note_on,71,B4,0.7244094488188977,0.20618566666666993,123.24748225
0,note_on,55,G3,0.5905511811023622,0.14175264583332137,123.24748225
0,note_on,67,G4,0.889763779527559,0.06443302083332014,123.4021215
0,note_on,59,B3,0.6377952755905512,0.08376292708332755,123.4021215
0,note_on,69,A4,0.7244094488188977,0.05154641666666748,123.55676075000001
0,note_on,69,A4,0.7244094488188977,0.22551557291667734,123.7114
0,note_on,81,A5,0.6141732283464567,0.06443302083333435,123.7114
0,note_on,57,A3,0.10236220472440945,0.16108255208332878,123.7114
0,note_on,60,C4,0.44881889763779526,0.16108255208332878,123.86603925
0,note_on,76,E5,0.8031496062992126,0.17396915625000986,123.86603925
0,note_on,64,E4,0.5905511811023622,0.07731962500000122,124.0206785
0,note_on,72,C5,0.8031496062992126,0.08376292708332755,124.0206785
0,note_on,57,A3,0.5118110236220472,0.0708763229166749,124.17531775
0,note_on,69,A4,0.7244094488188977,0.0902062291666681,124.17531775
0,note_on,81,A5,0.4645669291338583,0.06443302083333435,124.17531775
0,note_on,57,A3,0.5118110236220472,0.20618566666666993,124.32995700000001
0,note_on,69,A4,0.6929133858267716,0.3286084062499981,124.32995700000001
0,note_on,81,A5,0.5118110236220472,0.15463925000000245,124.32995700000001
0,note_on,60,C4,0.44881889763779526,0.17396915624999565,124.48459625000001
0,note_on,76,E5,0.7637795275590551,0.19329906249998885,124.48459625000001
0,note_on,64,E4,0.6141732283464567,0.07731962500000122,124.6392355
0,note_on,72,C5,0.6929133858267716,0.0708763229166749,124.6392355
0,note_on,81,A5,0.5905511811023622,0.20618566666666993,124.79387475
0,note_on,69,A4,0.6929133858267716,0.23195887500000367,124.79387475
0,note_on,57,A3,0.6377952755905512,0.22551557291667734,124.79387475
0,note_on,76,E5,0.8031496062992126,0.18041245833332198,125.10315325
0,note_on,69,A4,0.41732283464566927,0.0708763229166749,125.10315325
0,note_on,60,C4,0.8031496062992126,0.1095361354166755,125.10315325
0,note_on,64,E4,0.6377952755905512,0.09664953124999442,125.25779250000001
0,note_on,72,C5,0.7637795275590551,0.1095361354166755,125.25779250000001
0,note_on,69,A4,0.7244094488188977,0.08376292708332755,125.41243175000001
0,note_on,79,G5,0.47244094488188976,0.09664953125000864,125.567071
0,note_on,67,G4,0.6929133858267716,0.22551557291667734,125.567071
0,note_on,55,G3,0.5433070866141733,0.12886604166668292,125.567071
0,note_on,60,C4,0.5433070866141733,0.20618566666666993,125.72171025
0,note_on,76,E5,0.7637795275590551,0.1997423645833294,125.72171025
0,note_on,72,C5,0.7244094488188977,0.09664953124999442,125.8763495
0,note_on,64,E4,0.7244094488188977,0.08376292708332755,125.8763495
0,note_on,67,G4,0.6929133858267716,0.22551557291667734,126.03098875
0,note_on,76,E5,0.5433070866141733,0.16752585416666932,126.03098875
0,note_on,79,G5,0.5118110236220472,0.2190722708333226,126.03098875
0,note_on,55,G3,0.5433070866141733,0.22551557291667734,126.03098875
0,note_on,60,C4,0.6929133858267716,0.18685576041666252,126.34026725000001
0,note_on,76,E5,0.8031496062992126,0.16752585416666932,126.34026725000001
0,note_on,72,C5,0.6929133858267716,0.0708763229166749,126.4949065
0,note_on,55,G3,0.5433070866141733,0.10309283333333497,126.64954575
0,note_on,79,G5,0.44881889763779526,0.07731962500000122,126.64954575
0,note_on,67,G4,0.6929133858267716,0.09664953125000864,126.64954575
0,note_on,62,D4,0.6377952755905512,0.07731962500000122,126.95882425
0,note_on,74,D5,0.889763779527559,0.06443302083332014,126.95882425
0,note_on,72,C5,0.889763779527559,0.0708763229166749,127.11346350000001
0,note_on,69,A4,0.7244094488188977,0.0902062291666681,127.26810275000001
0,note_on,59,B3,0.5118110236220472,0.08376292708332755,127.26810275000001
0,note_on,64,E4,0.889763779527559,0.0708763229166749,127.57738125
0,note_on,76,E5,0.9448818897637795,0.10309283333333497,127.57738125
0,note_on,62,D4,0.8031496062992126,0.7023199270833231,127.7320205
0,note_on,74,D5,1,0.637886906250003,127.7320205
0,note_on,55,G3,0.6929133858267716,1.0760314479166482,128.50521675000002
0,note_on,59,B3,0.889763779527559,1.0631448437499955,128.50521675000002
0,note_on,43,G2,0.5905511811023622,1.1340211666666562,128.50521675000002
0,note_on,64,E4,0.6377952755905512,0.4961342604166816,129.74233075
0,note_on,57,A3,0.889763779527559,0.521907468749987,129.74233075
0,note_on,69,A4,0.8031496062992126,0.46391775000000735,129.74233075
0,note_on,62,D4,0.6929133858267716,0.4639177499999789,130.36088775000002
0,note_on,66,F#4,0.889763779527559,0.45103114583332626,130.36088775000002
0,note_on,50,D3,0.6141732283464567,0.5025775624999937,130.36088775000002
0,note_on,62,D4,0.5433070866141733,0.41237133333333986,130.97944475
0,note_on,67,G4,0.7637795275590551,0.3608249166666724,130.97944475
0,note_on,55,G3,0.8031496062992126,0.4381445416666736,130.97944475
0,note_on,64,E4,0.9448818897637795,0.1288660416666687,131.59800175
0,note_on,52,E3,0.48031496062992124,0.1804124583333362,131.59800175
0,note_on,50,D3,0.7244094488188977,0.0579897187499796,131.752641
0,note_on,62,D4,0.7244094488188977,0.08376292708331334,131.752641
0,note_on,59,B3,0.5905511811023622,1.2951037187499992,132.06191950000002
0,note_on,40,E2,0.6929133858267716,1.282217114583318,132.06191950000002
0,note_on,64,E4,0.6141732283464567,0.8247426666666513,132.06191950000002
0,note_on,60,C4,0.5905511811023622,0.05154641666666748,132.06191950000002
0,note_on,56,G#3,0.7244094488188977,1.2951037187499992,132.06191950000002
0,note_on,76,E5,0.8031496062992126,0.6765467187499894,133.608312
0,note_on,60,C4,0.7637795275590551,0.7603096458333312,133.608312
0,note_on,72,C5,0.7637795275590551,0.7345364374999974,133.608312
0,note_on,55,G3,0.6141732283464567,0.7023199270833231,133.608312
0,note_on,64,E4,0.6141732283464567,0.637886906250003,133.608312
0,note_on,67,G4,0.6929133858267716,0.6829900208333299,133.608312
0,note_on,76,E5,0.6929133858267716,1.2951037187499992,134.5361475
0,note_on,66,F#4,0.6614173228346457,1.3466501354166667,134.5361475
0,note_on,72,C5,0.5905511811023622,1.1920108854166926,134.5361475
0,note_on,64,E4,0.6377952755905512,1.2242273958333385,134.5361475
0,note_on,54,F#3,0.6141732283464567,1.262887208333325,134.5361475
0,note_on,59,B3,0.48031496062992124,0.03865981250001482,134.5361475
0,note_on,60,C4,0.7637795275590551,1.1984541875000048,134.5361475
0,note_on,66,F#4,0.8031496062992126,0.7087632291666921,136.08254
0,note_on,71,B4,0.6929133858267716,0.7667529479166717,136.08254
0,note_on,74,D5,0.8031496062992126,0.7280931354166853,136.08254
0,note_on,59,B3,0.6929133858267716,0.8054127604166865,136.08254
0,note_on,62,D4,0.7244094488188977,0.798969458333346,136.08254
0,note_on,54,F#3,0.4881889763779528,0.6507735104166841,136.08254
0,note_on,64,E4,0.6377952755905512,1.2371139999999912,137.0103755
0,note_on,70,A#4,0.47244094488188976,0.3608249166666724,137.0103755
0,note_on,62,D4,0.6929133858267716,1.1855675833333237,137.0103755
0,note_on,73,C#5,0.5669291338582677,0.7023199270833231,137.0103755
0,note_on,52,E3,0.6377952755905512,1.0438149375000023,137.0103755
0,note_on,59,B3,0.7244094488188977,1.1662376770833305,137.0103755
0,note_on,74,D5,0.889763779527559,1.2693305104166654,137.0103755
0,note_on,71,B4,0.6929133858267716,1.282217114583318,137.0103755
0,note_on,59,B3,0.5433070866141733,0.03221651041667428,138.556768
0,note_on,60,C4,0.7244094488188977,0.7603096458333312,138.556768
0,note_on,55,G3,0.5905511811023622,0.6894333229166705,138.556768
0,note_on,72,C5,0.8031496062992126,0.7603096458333312,138.556768
0,note_on,64,E4,0.7637795275590551,0.740979739583338,138.556768
0,note_on,67,G4,0.6929133858267716,0.6636601145833367,138.556768
0,note_on,76,E5,0.889763779527559,0.6507735104166841,138.556768
0,note_on,59,B3,0.6377952755905512,0.03865981250001482,139.4846035
0,note_on,66,F#4,0.8031496062992126,1.320876927083333,139.4846035
0,note_on,64,E4,0.7637795275590551,1.1146912604166914,139.4846035
0,note_on,72,C5,0.5669291338582677,1.0244850312500091,139.4846035
0,note_on,60,C4,0.8031496062992126,1.185567583333352,139.4846035
0,note_on,54,F#3,0.6614173228346457,1.3595367395833478,139.4846035
0,note_on,76,E5,0.7244094488188977,1.1469077708333373,139.4846035
0,note_on,71,B4,0.7244094488188977,0.13530934374998083,141.03099600000002
0,note_on,66,F#4,0.6614173228346457,0.13530934374998083,141.03099600000002
0,note_on,74,D5,0.8031496062992126,0.1095361354166755,141.03099600000002
0,note_on,78,F#5,0.8031496062992126,0.15463925000000245,141.03099600000002
0,note_on,54,F#3,0.889763779527559,0.13530934374998083,141.03099600000002
0,note_on,81,A5,0.6929133858267716,0.14819594791669033,143.505224
0,note_on,69,A4,0.6929133858267716,0.1997423645833294,143.505224
0,note_on,57,A3,0.6377952755905512,0.20618566666666993,143.505224
0,note_on,60,C4,0.6929133858267716,0.3608249166666724,143.65986325
0,note_on,76,E5,0.9448818897637795,0.22551557291666313,143.65986325
0,note_on,72,C5,0.9448818897637795,0.10309283333333497,143.8145025
0,note_on,64,E4,0.8031496062992126,0.2384021770833158,143.8145025
0,note_on,69,A4,0.8031496062992126,0.09664953124999442,143.96914175
0,note_on,67,G4,0.7637795275590551,0.1997423645833294,144.123781
0,note_on,55,G3,0.6377952755905512,0.18685576041667673,144.123781
0,note_on,79,G5,0.6141732283464567,0.15463925000000245,144.123781
0,note_on,76,E5,0.8031496062992126,0.2384021770833158,144.27842025
0,note_on,60,C4,0.5905511811023622,0.1804124583333362,144.27842025
0,note_on,64,E4,0.7637795275590551,0.11597943749998763,144.4330595
0,note_on,72,C5,0.9448818897637795,0.1095361354166755,144.4330595
0,note_on,79,G5,0.41732283464566927,0.08376292708331334,144.58769875000002
0,note_on,67,G4,0.7637795275590551,0.09020622916665388,144.58769875000002
0,note_on,69,A4,0.7244094488188977,0.2190722708333226,144.74233800000002
0,note_on,81,A5,0.5433070866141733,0.16108255208331457,144.74233800000002
0,note_on,57,A3,0.6929133858267716,0.16108255208331457,144.74233800000002
0,note_on,76,E5,0.8031496062992126,0.2577320833333374,144.89697725
0,note_on,60,C4,0.6141732283464567,0.3092785000000049,144.89697725
0,note_on,64,E4,0.7637795275590551,0.12886604166669713,145.0516165
0,note_on,72,C5,0.889763779527559,0.1417526458333498,145.0516165
0,note_on,67,G4,0.7637795275590551,0.21262896875001047,145.20625575
0,note_on,79,G5,0.7244094488188977,0.20618566666666993,145.20625575
0,note_on,55,G3,0.6929133858267716,0.1804124583333362,145.20625575
0,note_on,80,G#5,0.6614173228346457,0.161082552083343,145.51553425
0,note_on,68,G#4,0.889763779527559,0.1288660416666687,145.51553425
0,note_on,56,G#3,0.8031496062992126,0.22551557291666313,145.51553425
0,note_on,69,A4,0.6929133858267716,0.20618566666666993,145.82481275
0,note_on,57,A3,0.6377952755905512,0.14175264583332137,145.82481275
0,note_on,81,A5,0.5433070866141733,0.19329906249998885,145.82481275
0,note_on,60,C4,0.6929133858267716,0.20618566666666993,146.13409125
0,note_on,76,E5,0.8031496062992126,0.18041245833330777,146.13409125
0,note_on,64,E4,0.7637795275590551,0.07731962500000122,146.2887305
0,note_on,72,C5,0.9448818897637795,0.08376292708331334,146.2887305
0,note_on,55,G3,0.6377952755905512,0.16108255208331457,146.44336975000002
0,note_on,67,G4,0.889763779527559,0.20618566666666993,146.44336975000002
0,note_on,79,G5,0.6377952755905512,0.18041245833330777,146.44336975000002
0,note_on,80,G#5,0.6614173228346457,0.15463925000000245,146.75264825
0,note_on,56,G#3,0.889763779527559,0.19329906250001727,146.75264825
0,note_on,68,G#4,0.889763779527559,0.11597943750001605,146.75264825
0,note_on,75,D#5,0.8031496062992126,0.03221651041667428,146.9072875
0,note_on,57,A3,0.7244094488188977,0.12242273958332817,147.06192675
0,note_on,81,A5,0.6929133858267716,0.1804124583333362,147.06192675
0,note_on,69,A4,0.8031496062992126,0.1997423645833294,147.06192675
0,note_on,60,C4,0.7637795275590551,0.17396915624999565,147.37120525
0,note_on,76,E5,0.8031496062992126,0.20618566666666993,147.37120525
0,note_on,72,C5,0.889763779527559,0.11597943749998763,147.5258445
0,note_on,64,E4,0.8031496062992126,0.07087632291666068,147.5258445
0,note_on,69,A4,0.7637795275590551,0.07731962500000122,147.68048375
0,note_on,55,G3,0.6929133858267716,0.1481959479166619,147.835123
0,note_on,67,G4,0.7637795275590551,0.22551557291666313,147.835123
0,note_on,79,G5,0.4645669291338583,0.10309283333333497,147.835123
0,note_on,76,E5,0.8031496062992126,0.21262896874998205,147.98976225
0,note_on,60,C4,0.7637795275590551,0.19329906249998885,147.98976225
0,note_on,72,C5,0.9448818897637795,0.09664953124999442,148.14440150000001
0,note_on,64,E4,0.889763779527559,0.08376292708331334,148.14440150000001
0,note_on,79,G5,0.5669291338582677,0.09664953124999442,148.29904075000002
0,note_on,67,G4,0.8031496062992126,0.08376292708331334,148.29904075000002
0,note_on,55,G3,0.5905511811023622,0.13530934374998083,148.45368000000002
0,note_on,79,G5,0.6141732283464567,0.13530934374998083,148.45368000000002
0,note_on,67,G4,0.7244094488188977,0.1288660416666687,148.45368000000002
0,note_on,60,C4,0.5905511811023622,0.1804124583333362,148.60831925
0,note_on,67,G4,0.4094488188976378,0.051546416666695904,148.60831925
0,note_on,76,E5,0.8031496062992126,0.20618566666669835,148.60831925
0,note_on,64,E4,0.6929133858267716,0.06443302083334856,148.7629585
0,note_on,72,C5,0.889763779527559,0.07731962500000122,148.7629585
0,note_on,79,G5,0.6377952755905512,0.18685576041667673,148.91759775
0,note_on,67,G4,0.7244094488188977,0.1804124583333362,148.91759775
0,note_on,55,G3,0.7244094488188977,0.14819594791669033,148.91759775
0,note_on,64,E4,0.49606299212598426,0.04510311458332694,148.91759775
0,note_on,76,E5,0.8031496062992126,0.13530934375000925,149.22687625
0,note_on,67,G4,0.4409448818897638,0.13530934375000925,149.22687625
0,note_on,60,C4,0.8031496062992126,0.20618566666666993,149.22687625
0,note_on,64,E4,0.7244094488188977,0.06443302083332014,149.3815155
0,note_on,72,C5,0.44881889763779526,0.07087632291666068,149.3815155
0,note_on,76,E5,0.49606299212598426,0.02577320833333374,149.53615475
0,note_on,66,F#4,0.889763779527559,0.1804124583333362,149.53615475
0,note_on,78,F#5,0.4566929133858268,0.15463925000000245,149.53615475
0,note_on,54,F#3,0.7244094488188977,0.19329906249998885,149.53615475
0,note_on,60,C4,0.7244094488188977,0.1675258541666551,149.84543325
0,note_on,76,E5,0.7637795275590551,0.18685576041667673,149.84543325
0,note_on,66,F#4,0.3779527559055118,0.03221651041667428,149.84543325
0,note_on,78,F#5,0.3937007874015748,0.03221651041667428,149.84543325
0,note_on,72,C5,0.8031496062992126,0.07087632291666068,150.00007250000002
0,note_on,64,E4,0.8031496062992126,0.06443302083332014,150.00007250000002
0,note_on,66,F#4,0.7244094488188977,0.08376292708331334,150.15471175000002
0,note_on,78,F#5,0.44881889763779526,0.08376292708331334,150.15471175000002
0,note_on,54,F#3,0.49606299212598426,0.07087632291666068,150.15471175000002
0,note_on,66,F#4,0.8031496062992126,0.20618566666669835,150.309351
0,note_on,78,F#5,0.6141732283464567,0.3092785000000049,150.309351
0,note_on,54,F#3,0.7244094488188977,0.18685576041667673,150.309351
0,note_on,76,E5,0.6377952755905512,0.23195887500000367,150.46399025
0,note_on,60,C4,0.6929133858267716,0.17396915625002407,150.46399025
0,note_on,72,C5,0.8031496062992126,0.0902062291666823,150.6186295
0,note_on,64,E4,0.8031496062992126,0.06443302083334856,150.6186295
0,note_on,66,F#4,0.889763779527559,0.07731962500000122,150.77326875
0,note_on,78,F#5,0.3937007874015748,0.12242273958332817,150.77326875
0,note_on,66,F#4,0.8031496062992126,0.24484547916668475,150.927908
0,note_on,78,F#5,0.4251968503937008,0.161082552083343,150.927908
0,note_on,54,F#3,0.7244094488188977,0.13530934375000925,150.927908
0,note_on,59,B3,0.6377952755905512,0.21262896875001047,151.08254725
0,note_on,74,D5,0.889763779527559,0.2190722708333226,151.08254725
0,note_on,71,B4,0.889763779527559,0.07731962500000122,151.2371865
0,note_on,62,D4,0.7244094488188977,0.2577320833333374,151.2371865
0,note_on,78,F#5,0.23622047244094488,0.06443302083332014,151.2371865
0,note_on,66,F#4,0.889763779527559,0.0902062291666823,151.39182575
0,note_on,59,B3,0.2677165354330709,0.16108255208331457,151.39182575
0,note_on,78,F#5,0.33070866141732286,0.03221651041667428,151.39182575
0,note_on,64,E4,0.7244094488188977,0.2899485937499833,151.546465
0,note_on,76,E5,0.6377952755905512,0.1675258541666551,151.546465
0,note_on,52,E3,0.5669291338582677,0.2190722708333226,151.546465
0,note_on,74,D5,0.6141732283464567,0.21262896874998205,151.70110425000001
0,note_on,59,B3,0.5905511811023622,0.2190722708333226,151.70110425000001
0,note_on,62,D4,0.5669291338582677,0.08376292708331334,151.85574350000002
0,note_on,71,B4,0.8031496062992126,0.09020622916665388,151.85574350000002
0,note_on,54,F#3,0.8031496062992126,0.13530934374998083,152.01038275000002
0,note_on,66,F#4,1,0.18041245833330777,152.01038275000002
0,note_on,78,F#5,0.6141732283464567,0.16108255208331457,152.01038275000002
0,note_on,73,C#5,0.5669291338582677,0.10309283333333497,152.31966125
0,note_on,74,D5,0.7637795275590551,0.18685576041667673,152.31966125
0,note_on,59,B3,0.7244094488188977,0.24484547916668475,152.31966125
0,note_on,62,D4,0.7244094488188977,0.09664953124999442,152.4743005
0,note_on,71,B4,0.9448818897637795,0.08376292708334176,152.4743005
0,note_on,52,E3,0.6929133858267716,0.1804124583333362,152.62893975
0,note_on,64,E4,0.8031496062992126,0.14819594791669033,152.62893975
0,note_on,76,E5,0.6141732283464567,0.18685576041667673,152.62893975
0,note_on,74,D5,0.7244094488188977,0.20618566666666993,152.93821825
0,note_on,59,B3,0.7637795275590551,0.1997423645833294,152.93821825
0,note_on,62,D4,0.6929133858267716,0.06443302083332014,153.0928575
0,note_on,71,B4,0.889763779527559,0.08376292708331334,153.0928575
0,note_on,78,F#5,0.44881889763779526,0.08376292708331334,153.24749675
0,note_on,66,F#4,0.8031496062992126,0.07731962500000122,153.24749675
0,note_on,54,F#3,0.5275590551181102,0.07731962500000122,153.24749675
0,note_on,66,F#4,0.8031496062992126,0.19329906249998885,153.402136
0,note_on,54,F#3,0.7244094488188977,0.18041245833330777,153.402136
0,note_on,78,F#5,0.4881889763779528,0.13530934374998083,153.402136
0,note_on,59,B3,0.47244094488188976,0.19329906249998885,153.55677525000002
0,note_on,74,D5,0.8031496062992126,0.19329906249998885,153.55677525000002
0,note_on,71,B4,0.889763779527559,0.09020622916665388,153.71141450000002
0,note_on,52,E3,0.6377952755905512,0.20618566666669835,153.86605375
0,note_on,64,E4,0.7637795275590551,0.15463925000000245,153.86605375
0,note_on,76,E5,0.6141732283464567,0.17396915625002407,153.86605375
0,note_on,54,F#3,0.8031496062992126,0.17396915624999565,154.17533225
0,note_on,66,F#4,0.889763779527559,0.15463925000000245,154.17533225
0,note_on,78,F#5,0.8031496062992126,0.16752585416668353,154.17533225
0,note_on,61,C#4,0.41732283464566927,0.03221651041667428,154.3299715
0,note_on,67,G4,0.7637795275590551,0.1997423645833294,154.48461075
0,note_on,55,G3,0.8031496062992126,0.15463925000000245,154.48461075
0,note_on,79,G5,0.7637795275590551,0.19329906250001727,154.48461075
0,note_on,59,B3,0.7244094488188977,0.1804124583333362,154.79388925
0,note_on,74,D5,0.889763779527559,0.20618566666666993,154.79388925
0,note_on,62,D4,0.8031496062992126,0.08376292708331334,154.9485285
0,note_on,71,B4,0.889763779527559,0.06443302083332014,154.9485285
0,note_on,69,A4,0.8031496062992126,0.21262896874998205,155.10316775
0,note_on,57,A3,0.8031496062992126,0.18685576041667673,155.10316775
0,note_on,81,A5,0.7637795275590551,0.1997423645833294,155.10316775
0,note_on,58,A#3,0.8031496062992126,0.24484547916665633,155.41244625000002
0,note_on,82,A#5,0.7244094488188977,0.16108255208331457,155.41244625000002
0,note_on,70,A#4,0.889763779527559,0.16108255208331457,155.41244625000002
0,note_on,84,C6,0.5118110236220472,0.03865981250001482,155.72172475
0,note_on,71,B4,0.7637795275590551,0.20618566666669835,155.72172475
0,note_on,72,C5,0.6377952755905512,0.03221651041667428,155.72172475
0,note_on,59,B3,0.6929133858267716,0.1997423645833294,155.72172475
0,note_on,83,B5,0.47244094488188976,0.19329906250001727,155.72172475
0,note_on,62,D4,0.6377952755905512,0.1997423645833294,156.03100325
0,note_on,71,B4,0.3700787401574803,0.03221651041667428,156.03100325
0,note_on,78,F#5,0.889763779527559,0.19329906250001727,156.03100325
0,note_on,74,D5,0.9448818897637795,0.0902062291666823,156.1856425
0,note_on,66,F#4,0.8031496062992126,0.0708763229166891,156.1856425
0,note_on,71,B4,0.889763779527559,0.20618566666666993,156.34028175
0,note_on,83,B5,0.6377952755905512,0.15463925000000245,156.34028175
0,note_on,59,B3,0.7244094488188977,0.1804124583333362,156.34028175
0,note_on,69,A4,0.7637795275590551,0.18685576041667673,156.64956025
0,note_on,81,A5,0.6929133858267716,0.16752585416668353,156.64956025
0,note_on,57,A3,0.7637795275590551,0.21262896875001047,156.64956025
0,note_on,80,G#5,0.6614173228346457,0.18041245833330777,156.95883875
0,note_on,57,A3,0.6929133858267716,0.09020622916665388,156.95883875
0,note_on,68,G#4,0.8031496062992126,0.22551557291666313,156.95883875
0,note_on,77,F5,0.7244094488188977,0.21262896874998205,157.26811725000002
0,note_on,62,D4,0.6929133858267716,0.1997423645833294,157.26811725000002
0,note_on,65,F4,0.6377952755905512,0.03221651041664586,157.42275650000002
0,note_on,74,D5,0.8031496062992126,0.07087632291666068,157.42275650000002
0,note_on,68,G#4,0.889763779527559,0.08376292708334176,157.57739575
0,note_on,56,G#3,0.4015748031496063,0.03865981250001482,157.57739575
0,note_on,80,G#5,0.4566929133858268,0.10309283333333497,157.57739575
0,note_on,56,G#3,0.8031496062992126,0.15463925000000245,157.732035
0,note_on,68,G#4,0.8031496062992126,0.23195887500000367,157.732035
0,note_on,80,G#5,0.4566929133858268,0.16752585416668353,157.732035
0,note_on,77,F5,0.6929133858267716,0.20618566666666993,157.88667425
0,note_on,62,D4,0.4094488188976378,0.19329906250001727,157.88667425
0,note_on,74,D5,0.9448818897637795,0.07731962500000122,158.0413135
0,note_on,65,F4,0.7637795275590551,0.2512887812499969,158.0413135
0,note_on,75,D#5,0.8031496062992126,0.03221651041667428,158.0413135
0,note_on,68,G#4,0.889763779527559,0.08376292708334176,158.19595275
0,note_on,80,G#5,0.4015748031496063,0.10309283333333497,158.19595275
0,note_on,62,D4,0.23622047244094488,0.11597943750001605,158.19595275
0,note_on,57,A3,0.6141732283464567,0.15463925000000245,158.350592
0,note_on,69,A4,0.7637795275590551,0.219072270833351,158.350592
0,note_on,81,A5,0.6141732283464567,0.13530934375000925,158.350592
0,note_on,76,E5,0.7637795275590551,0.26417538541664953,158.50523125
0,note_on,60,C4,0.5433070866141733,0.1868557604166483,158.50523125
0,note_on,72,C5,0.889763779527559,0.10953613541664708,158.6598705
0,note_on,64,E4,0.7244094488188977,0.22551557291666313,158.6598705
0,note_on,69,A4,0.8031496062992126,0.10309283333333497,158.81450975
0,note_on,60,C4,0.31496062992125984,0.07087632291666068,158.81450975
0,note_on,79,G5,0.5905511811023622,0.15463925000000245,158.96914900000002
0,note_on,55,G3,0.6141732283464567,0.10953613541664708,158.96914900000002
0,note_on,67,G4,0.7637795275590551,0.3286084062499981,158.96914900000002
0,note_on,76,E5,0.7637795275590551,0.2255155729166347,159.12378825000002
0,note_on,60,C4,0.5669291338582677,0.21262896874998205,159.12378825000002
0,note_on,72,C5,0.8031496062992126,0.08376292708337019,159.2784275
0,note_on,64,E4,0.6377952755905512,0.08376292708337019,159.2784275
0,note_on,81,A5,0.6141732283464567,0.1804124583333646,159.43306675
0,note_on,69,A4,0.7637795275590551,0.18685576041667673,159.43306675
0,note_on,57,A3,0.7244094488188977,0.1804124583333646,159.43306675
0,note_on,60,C4,0.7244094488188977,0.09664953124999442,159.74234525
0,note_on,76,E5,0.889763779527559,0.219072270833351,159.74234525
0,note_on,69,A4,0.47244094488188976,0.05154641666666748,159.74234525
0,note_on,72,C5,0.8031496062992126,0.11597943750001605,159.8969845
0,note_on,64,E4,0.6377952755905512,0.057989718750008024,159.8969845
0,note_on,55,G3,0.6377952755905512,0.15463925000000245,160.05162375
0,note_on,79,G5,0.6377952755905512,0.1804124583333362,160.05162375
0,note_on,67,G4,0.7637795275590551,0.17396915624999565,160.05162375
0,note_on,68,G#4,0.889763779527559,0.10309283333333497,160.36090225
0,note_on,56,G#3,0.8031496062992126,0.17396915624999565,160.36090225
0,note_on,80,G#5,0.7244094488188977,0.12886604166664029,160.36090225
0,note_on,57,A3,0.7637795275590551,0.17396915624999565,160.67018075000001
0,note_on,69,A4,0.6929133858267716,0.21262896874998205,160.67018075000001
0,note_on,81,A5,0.6141732283464567,0.19329906249998885,160.67018075000001
0,note_on,69,A4,0.4330708661417323,0.05154641666663906,160.97945925000002
0,note_on,60,C4,0.6141732283464567,0.1675258541666551,160.97945925000002
0,note_on,76,E5,0.889763779527559,0.1997423645833294,160.97945925000002
0,note_on,64,E4,0.7637795275590551,0.08376292708337019,161.1340985
0,note_on,72,C5,0.889763779527559,0.1095361354166755,161.1340985
0,note_on,64,E4,0.3937007874015748,0.07731962500000122,161.28873775
0,note_on,60,C4,0.30708661417322836,0.07087632291666068,161.28873775
0,note_on,69,A4,0.7637795275590551,0.08376292708334176,161.28873775
0,note_on,55,G3,0.6377952755905512,0.11597943750001605,161.443377
0,note_on,79,G5,0.5669291338582677,0.1288660416666687,161.443377
0,note_on,67,G4,0.7244094488188977,0.26417538541664953,161.443377
0,note_on,60,C4,0.49606299212598426,0.17396915624999565,161.59801625
0,note_on,76,E5,0.6377952755905512,0.20618566666666993,161.59801625
0,note_on,64,E4,0.6141732283464567,0.07087632291666068,161.7526555
0,note_on,72,C5,0.8031496062992126,0.09020622916665388,161.7526555
0,note_on,81,A5,0.6141732283464567,0.1997423645833578,161.90729475
0,note_on,57,A3,0.7637795275590551,0.1804124583333362,161.90729475
0,note_on,69,A4,0.7637795275590551,0.219072270833351,161.90729475
0,note_on,69,A4,0.4330708661417323,0.04510311458332694,162.21657325
0,note_on,60,C4,0.7244094488188977,0.10309283333333497,162.21657325
0,note_on,76,E5,0.889763779527559,0.21262896874998205,162.21657325
0,note_on,64,E4,0.7244094488188977,0.0579897187499796,162.3712125
0,note_on,72,C5,0.8031496062992126,0.09020622916665388,162.3712125
0,note_on,67,G4,0.7637795275590551,0.19329906249998885,162.52585175000002
0,note_on,79,G5,0.6141732283464567,0.19329906249998885,162.52585175000002
0,note_on,55,G3,0.6377952755905512,0.1804124583333362,162.52585175000002
0,note_on,76,E5,0.889763779527559,0.1804124583333362,162.83513025000002
0,note_on,60,C4,0.7637795275590551,0.17396915624999565,162.83513025000002
0,note_on,72,C5,0.7637795275590551,0.08376292708337019,162.9897695
0,note_on,64,E4,0.8031496062992126,0.057989718750008024,162.9897695
0,note_on,67,G4,0.8031496062992126,0.09664953125002285,163.14440875
0,note_on,78,F#5,0.4881889763779528,0.34149501041665076,163.299048
0,note_on,66,F#4,0.889763779527559,0.31572180208334544,163.299048
0,note_on,50,D3,0.8031496062992126,0.7280931354166569,163.299048
0,note_on,54,F#3,0.6141732283464567,0.2512887812499969,163.299048
0,note_on,38,D2,0.8031496062992126,0.7860828541666649,163.299048
0,note_on,45,A2,0.9448818897637795,0.09020622916665388,164.07224425
0,note_on,57,A3,0.7637795275590551,0.07731962500000122,164.07224425
0,note_on,64,E4,0.7637795275590551,0.10953613541664708,164.38152275000002
0,note_on,52,E3,0.7637795275590551,0.08376292708334176,164.38152275000002
0,note_on,50,D3,0.6929133858267716,0.6701034166666489,164.53616200000002
0,note_on,38,D2,0.7637795275590551,0.6443302083333435,164.53616200000002
0,note_on,57,A3,0.8031496062992126,0.07731962500000122,165.30935825
0,note_on,45,A2,0.9448818897637795,0.13530934375000925,165.30935825
0,note_on,62,D4,0.7637795275590551,0.09020622916665388,165.61863675
0,note_on,50,D3,0.889763779527559,0.08376292708334176,165.61863675
0,note_on,78,F#5,0.5275590551181102,0.15463925000000245,165.773276
0,note_on,66,F#4,0.7244094488188977,0.23195887500000367,165.77971930208335
0,note_on,54,F#3,0.6614173228346457,0.17396915624999565,165.78616260416666
0,note_on,74,D5,0.8031496062992126,0.2061856666666415,165.91502864583336
0,note_on,59,B3,0.6929133858267716,0.2190722708333226,165.95368845833335
0,note_on,71,B4,0.8031496062992126,0.09664953124999442,166.08255450000001
0,note_on,62,D4,0.7244094488188977,0.09020622916665388,166.10188440625
0,note_on,76,E5,0.6141732283464567,0.1675258541666551,166.25652365625
0,note_on,64,E4,0.7637795275590551,0.14175264583332137,166.26296695833335
0,note_on,52,E3,0.6377952755905512,0.19329906249998885,166.26941026041666
0,note_on,74,D5,0.7637795275590551,0.12242273958335659,166.54002894791665
0,note_on,59,B3,0.7244094488188977,0.19974236458330097,166.55291555208336
0,note_on,62,D4,0.6141732283464567,0.07087632291666068,166.68822489583334
0,note_on,71,B4,0.44881889763779526,0.07731962500000122,166.7011115
0,note_on,78,F#5,0.7244094488188977,0.161082552083343,166.85575075
0,note_on,66,F#4,0.889763779527559,0.18685576041667673,166.86219405208334
0,note_on,54,F#3,0.7244094488188977,0.15463924999997403,166.87508065625002
0,note_on,59,B3,0.48031496062992124,0.2061856666666415,167.14569934375
0,note_on,74,D5,0.5905511811023622,0.17396915624999565,167.15858594791666
0,note_on,62,D4,0.5905511811023622,0.05154641666663906,167.30033859375
0,note_on,71,B4,0.8031496062992126,0.07087632291666068,167.30678189583335
0,note_on,76,E5,0.6929133858267716,0.1417526458333498,167.47430775
0,note_on,64,E4,0.7637795275590551,0.12242273958329974,167.48075105208335
0,note_on,52,E3,0.6377952755905512,0.19329906249998885,167.48719435416666
0,note_on,74,D5,0.6929133858267716,0.19974236458330097,167.77069964583336
0,note_on,59,B3,0.49606299212598426,0.16108255208331457,167.77069964583336
0,note_on,57,A3,0.44881889763779526,0.1288660416666687,167.77714294791667
0,note_on,71,B4,0.9448818897637795,0.09020622916665388,167.93822550000002
0,note_on,66,F#4,0.8031496062992126,0.06443302083334856,168.11219465625
0,note_on,78,F#5,0.36220472440944884,0.05154641666666748,168.11863795833335
0,note_on,54,F#3,0.7244094488188977,0.13530934374998083,168.26683390625
0,note_on,78,F#5,0.4251968503937008,0.16108255208331457,168.27327720833335
0,note_on,66,F#4,0.889763779527559,0.33505170833333864,168.27972051041667
0,note_on,74,D5,0.889763779527559,0.21262896874998205,168.40858655208336
0,note_on,59,B3,0.49606299212598426,0.161082552083343,168.4408030625
0,note_on,62,D4,0.6929133858267716,0.07731962500000122,168.56322580208334
0,note_on,71,B4,0.8031496062992126,0.08376292708331334,168.58255570833336
0,note_on,54,F#3,0.7244094488188977,0.23840217708337264,168.73075165625
0,note_on,78,F#5,0.6614173228346457,0.23840217708337264,168.73075165625
0,note_on,66,F#4,0.8031496062992126,0.2255155729166347,168.73719495833336
0,note_on,59,B3,0.6929133858267716,0.24484547916665633,169.00781364583335
0,note_on,74,D5,0.6377952755905512,0.21262896875001047,169.01425694791666
0,note_on,71,B4,0.7244094488188977,0.10953613541664708,169.15600959375
0,note_on,69,A4,0.9448818897637795,0.12242273958332817,169.35575195833334
0,note_on,57,A3,0.6929133858267716,0.13530934375000925,169.36219526041666
0,note_on,55,G3,0.6141732283464567,0.06443302083334856,169.3686385625
0,note_on,68,G#4,1,0.6507735104166557,169.65858715625
0,note_on,56,G#3,0.889763779527559,0.6443302083333151,169.66503045833335
0,note_on,57,A3,0.6929133858267716,0.17396915624999565,170.721732
0,note_on,81,A5,0.6141732283464567,0.1481959479166619,170.721732
0,note_on,69,A4,0.6929133858267716,0.24484547916665633,170.721732
0,note_on,60,C4,0.6929133858267716,0.2706186874999901,170.87637125
0,note_on,76,E5,0.8031496062992126,0.2384021770833442,170.87637125
0,note_on,64,E4,0.7637795275590551,0.13530934375000925,171.0310105
0,note_on,72,C5,0.889763779527559,0.11597943749998763,171.0310105
0,note_on,79,G5,0.7637795275590551,0.19329906249998885,171.18564975
0,note_on,67,G4,0.889763779527559,0.21262896874998205,171.18564975
0,note_on,55,G3,0.6141732283464567,0.19329906249998885,171.18564975
0,note_on,68,G#4,0.889763779527559,0.10953613541664708,171.49492825000002
0,note_on,80,G#5,0.8031496062992126,0.17396915624999565,171.49492825000002
0,note_on,56,G#3,0.8031496062992126,0.2190722708333226,171.49492825000002
0,note_on,69,A4,0.8031496062992126,0.2255155729166347,171.80420675000002
0,note_on,81,A5,0.7244094488188977,0.2061856666666415,171.80420675000002
0,note_on,57,A3,0.7244094488188977,0.1804124583333362,171.80420675000002
0,note_on,60,C4,0.8031496062992126,0.27706198958335904,172.11348525
0,note_on,76,E5,0.889763779527559,0.17396915625002407,172.11348525
0,note_on,64,E4,0.7637795275590551,0.08376292708334176,172.2681245
0,note_on,72,C5,0.889763779527559,0.09664953124999442,172.2681245
0,note_on,67,G4,0.7637795275590551,0.1868557604166483,172.42276375
0,note_on,79,G5,0.6929133858267716,0.1997423645833578,172.42276375
0,note_on,55,G3,0.8031496062992126,0.1804124583333362,172.42276375
0,note_on,80,G#5,0.7244094488188977,0.13530934375000925,172.73204225
0,note_on,56,G#3,0.889763779527559,0.19329906249998885,172.73204225
0,note_on,68,G#4,1,0.1417526458333498,172.73204225
0,note_on,61,C#4,0.4251968503937008,0.03221651041664586,172.8866815
0,note_on,75,D#5,0.6614173228346457,0.03221651041664586,172.8866815
0,note_on,57,A3,0.7637795275590551,0.161082552083343,173.04132075
0,note_on,81,A5,0.7637795275590551,0.1997423645833294,173.04132075
0,note_on,69,A4,0.7637795275590551,0.2061856666666415,173.04132075
0,note_on,60,C4,0.8031496062992126,0.19329906249998885,173.35059925000002
0,note_on,76,E5,0.9448818897637795,0.1997423645833294,173.35059925000002
0,note_on,72,C5,0.889763779527559,0.09020622916665388,173.50523850000002
0,note_on,64,E4,0.7244094488188977,0.10953613541664708,173.50523850000002
0,note_on,60,C4,0.33858267716535434,0.057989718750008024,173.65987775
0,note_on,69,A4,0.8031496062992126,0.09664953125002285,173.65987775
0,note_on,67,G4,0.7637795275590551,0.19329906250001727,173.814517
0,note_on,55,G3,0.6929133858267716,0.12242273958335659,173.814517
0,note_on,79,G5,0.6377952755905512,0.161082552083343,173.814517
0,note_on,60,C4,0.6141732283464567,0.219072270833351,173.96915625
0,note_on,76,E5,0.7244094488188977,0.2512887812499969,173.96915625
0,note_on,64,E4,0.7244094488188977,0.07087632291666068,174.1237955
0,note_on,72,C5,0.9448818897637795,0.09664953124999442,174.1237955
0,note_on,81,A5,0.6377952755905512,0.1997423645833578,174.27843475
0,note_on,69,A4,0.8031496062992126,0.19329906250001727,174.27843475
0,note_on,57,A3,0.7637795275590551,0.1675258541666551,174.27843475
0,note_on,60,C4,0.8031496062992126,0.1997423645833578,174.58771325
0,note_on,69,A4,0.4409448818897638,0.057989718750008024,174.58771325
0,note_on,76,E5,0.889763779527559,0.1997423645833578,174.58771325
0,note_on,64,E4,0.7244094488188977,0.06443302083334856,174.7423525
0,note_on,72,C5,0.889763779527559,0.09664953124999442,174.7423525
0,note_on,67,G4,0.7637795275590551,0.21262896874998205,174.89699175
0,note_on,79,G5,0.8031496062992126,0.19329906249998885,174.89699175
0,note_on,55,G3,0.6929133858267716,0.17396915624999565,174.89699175
0,note_on,80,G#5,0.6614173228346457,0.13530934374998083,175.20627025000002
0,note_on,56,G#3,0.889763779527559,0.1997423645833294,175.20627025000002
0,note_on,68,G#4,0.889763779527559,0.10953613541664708,175.20627025000002
0,note_on,59,B3,0.6377952755905512,0.08376292708337019,175.51554875
0,note_on,81,A5,0.6929133858267716,0.18685576041667673,175.51554875
0,note_on,57,A3,0.6377952755905512,0.19329906250001727,175.51554875
0,note_on,69,A4,0.889763779527559,0.1997423645833578,175.51554875
0,note_on,77,F5,0.7637795275590551,0.045103114583355364,175.82482725
0,note_on,76,E5,0.889763779527559,0.21262896875001047,175.82482725
0,note_on,60,C4,0.7637795275590551,0.21262896875001047,175.82482725
0,note_on,72,C5,0.889763779527559,0.09664953124999442,175.9794665
0,note_on,64,E4,0.6929133858267716,0.057989718750008024,175.9794665
0,note_on,67,G4,0.889763779527559,0.1997423645833578,176.13410575
0,note_on,55,G3,0.6141732283464567,0.1868557604166483,176.13410575
0,note_on,79,G5,0.7637795275590551,0.1997423645833578,176.13410575
0,note_on,67,G4,0.889763779527559,0.1997423645833294,176.44338425
0,note_on,79,G5,0.7244094488188977,0.1675258541666551,176.44338425
0,note_on,55,G3,0.8031496062992126,0.21262896875001047,176.44338425
0,note_on,78,F#5,0.6614173228346457,0.1417526458333498,176.75266275
0,note_on,54,F#3,0.889763779527559,0.1868557604166483,176.75266275
0,note_on,66,F#4,0.889763779527559,0.2061856666666415,176.75266275
0,note_on,60,C4,0.8031496062992126,0.1868557604166483,177.06194125000002
0,note_on,76,E5,0.6929133858267716,0.161082552083343,177.06194125000002
0,note_on,72,C5,0.7637795275590551,0.0773196249999728,177.21658050000002
0,note_on,64,E4,0.6929133858267716,0.05154641666663906,177.21658050000002
0,note_on,66,F#4,0.8031496062992126,0.08376292708337019,177.37121975
0,note_on,78,F#5,0.47244094488188976,0.10309283333336339,177.37121975
0,note_on,54,F#3,0.5669291338582677,0.09664953125002285,177.37121975
0,note_on,66,F#4,0.8031496062992126,0.32216510416665756,177.525859
0,note_on,54,F#3,0.6614173228346457,0.1997423645833578,177.525859
0,note_on,78,F#5,0.5275590551181102,0.18685576041667673,177.525859
0,note_on,78,F#5,0.3543307086614173,0.09664953124999442,177.68049825
0,note_on,60,C4,0.5669291338582677,0.219072270833351,177.68049825
0,note_on,76,E5,0.5118110236220472,0.1868557604166483,177.68049825
0,note_on,72,C5,0.7244094488188977,0.057989718750008024,177.8351375
0,note_on,66,F#4,0.8031496062992126,0.22551557291666313,177.98977675
0,note_on,54,F#3,0.7244094488188977,0.23195887500000367,177.98977675
0,note_on,78,F#5,0.6614173228346457,0.21262896875001047,177.98977675
0,note_on,74,D5,0.7244094488188977,0.19329906249998885,178.29905525
0,note_on,59,B3,0.7637795275590551,0.1997423645833294,178.29905525
0,note_on,71,B4,0.889763779527559,0.07731962500000122,178.4536945
0,note_on,62,D4,0.7637795275590551,0.09020622916665388,178.4536945
0,note_on,66,F#4,0.8031496062992126,0.09020622916665388,178.60833375
0,note_on,59,B3,0.3700787401574803,0.12886604166664029,178.60833375
0,note_on,78,F#5,0.4566929133858268,0.09020622916665388,178.60833375
0,note_on,76,E5,0.6377952755905512,0.161082552083343,178.76297300000002
0,note_on,64,E4,0.8031496062992126,0.2061856666666415,178.76297300000002
0,note_on,52,E3,0.6929133858267716,0.23195887500000367,178.76297300000002
0,note_on,59,B3,0.6377952755905512,0.2577320833333374,178.91761225000002
0,note_on,74,D5,0.7244094488188977,0.2061856666666415,178.91761225000002
0,note_on,71,B4,0.7637795275590551,0.0902062291666823,179.0722515
0,note_on,70,A#4,0.4251968503937008,0.03221651041667428,179.0722515
0,note_on,66,F#4,0.889763779527559,0.1675258541666551,179.22689075
0,note_on,54,F#3,0.8031496062992126,0.13530934375000925,179.22689075
0,note_on,78,F#5,0.5669291338582677,0.1675258541666551,179.22689075
0,note_on,59,B3,0.7244094488188977,0.24484547916665633,179.53616925
0,note_on,74,D5,0.6929133858267716,0.1997423645833578,179.53616925
0,note_on,71,B4,0.7637795275590551,0.09020622916665388,179.6908085
0,note_on,62,D4,0.5905511811023622,0.06443302083334856,179.6908085
0,note_on,52,E3,0.7637795275590551,0.19329906249998885,179.84544775
0,note_on,75,D#5,0.3858267716535433,0.045103114583355364,179.84544775
0,note_on,76,E5,0.6141732283464567,0.1997423645833578,179.84544775
0,note_on,64,E4,0.7244094488188977,0.1675258541666551,179.84544775
0,note_on,59,B3,0.7244094488188977,0.30283519791666436,180.15472625
0,note_on,74,D5,0.9448818897637795,0.1804124583333362,180.15472625
0,note_on,71,B4,0.6929133858267716,0.10309283333333497,180.3093655
0,note_on,78,F#5,0.4015748031496063,0.09020622916665388,180.46400475000002
0,note_on,54,F#3,0.5669291338582677,0.04510311458332694,180.46400475000002
0,note_on,66,F#4,0.889763779527559,0.07731962500000122,180.46400475000002
0,note_on,54,F#3,0.6614173228346457,0.12242273958332817,180.61864400000002
0,note_on,78,F#5,0.4881889763779528,0.14819594791663349,180.61864400000002
0,note_on,66,F#4,0.8031496062992126,0.19329906249998885,180.61864400000002
0,note_on,74,D5,0.8031496062992126,0.19329906249998885,180.77328325000002
0,note_on,59,B3,0.5905511811023622,0.19329906249998885,180.77328325000002
0,note_on,62,D4,0.7244094488188977,0.07731962500000122,180.9279225
0,note_on,71,B4,0.8031496062992126,0.08376292708337019,180.9279225
0,note_on,54,F#3,0.7244094488188977,0.1288660416666687,181.08256175
0,note_on,78,F#5,0.7244094488188977,0.1804124583333646,181.08256175
0,note_on,66,F#4,0.889763779527559,0.1804124583333646,181.08256175
0,note_on,59,B3,0.6377952755905512,0.20618566666666993,181.39184025
0,note_on,74,D5,0.889763779527559,0.19329906250001727,181.39184025
0,note_on,62,D4,0.7637795275590551,0.07087632291666068,181.5464795
0,note_on,71,B4,0.889763779527559,0.10309283333333497,181.5464795
0,note_on,67,G4,0.8031496062992126,0.2061856666666415,181.70111875
0,note_on,55,G3,0.8031496062992126,0.1804124583333362,181.70111875
0,note_on,79,G5,0.5905511811023622,0.19329906249998885,181.70111875
0,note_on,74,D5,0.9448818897637795,0.19329906249998885,182.01039725
0,note_on,59,B3,0.7637795275590551,0.17396915624999565,182.01039725
0,note_on,71,B4,0.9448818897637795,0.07731962500000122,182.1650365
0,note_on,62,D4,0.8031496062992126,0.08376292708334176,182.1650365
0,note_on,81,A5,0.7637795275590551,0.2061856666666415,182.31967575000002
0,note_on,69,A4,0.8031496062992126,0.21262896874998205,182.31967575000002
0,note_on,57,A3,0.7637795275590551,0.1675258541666551,182.31967575000002
0,note_on,82,A#5,0.6614173228346457,0.1804124583333362,182.62895425000002
0,note_on,70,A#4,1,0.14175264583332137,182.62895425000002
0,note_on,58,A#3,0.889763779527559,0.1997423645833294,182.62895425000002
0,note_on,71,B4,0.8031496062992126,0.19329906250001727,182.93823275
0,note_on,59,B3,0.7244094488188977,0.17396915624999565,182.93823275
0,note_on,80,G#5,0.3858267716535433,0.03865981250001482,182.93823275
0,note_on,83,B5,0.6377952755905512,0.1804124583333646,182.93823275
0,note_on,78,F#5,1,0.19329906250001727,183.24751125
0,note_on,62,D4,0.7637795275590551,0.1868557604166483,183.24751125
0,note_on,66,F#4,0.8031496062992126,0.057989718750008024,183.4021505
0,note_on,74,D5,0.9448818897637795,0.07731962500000122,183.4021505
0,note_on,83,B5,0.7637795275590551,0.17396915624999565,183.55678975
0,note_on,71,B4,0.7637795275590551,0.21262896875001047,183.55678975
0,note_on,59,B3,0.6929133858267716,0.1868557604166483,183.55678975
0,note_on,69,A4,0.889763779527559,0.2061856666666415,183.86606825
0,note_on,81,A5,0.7244094488188977,0.1997423645833294,183.86606825
0,note_on,57,A3,0.8031496062992126,0.2061856666666415,183.86606825
0,note_on,80,G#5,0.6141732283464567,0.14819594791663349,184.17534675000002
0,note_on,68,G#4,0.889763779527559,0.2061856666666415,184.17534675000002
0,note_on,56,G#3,0.889763779527559,0.17396915624999565,184.17534675000002
0,note_on,77,F5,0.5669291338582677,0.03221651041664586,184.17534675000002
0,note_on,81,A5,0.6141732283464567,0.11597943749998763,184.17534675000002
0,note_on,77,F5,0.6929133858267716,0.23840217708337264,184.48462525
0,note_on,62,D4,0.7244094488188977,0.18685576041667673,184.48462525
0,note_on,74,D5,0.889763779527559,0.07087632291666068,184.6392645
0,note_on,65,F4,0.6929133858267716,0.06443302083334856,184.6392645
0,note_on,56,G#3,0.4251968503937008,0.07087632291666068,184.79390375
0,note_on,68,G#4,0.889763779527559,0.07731962500000122,184.79390375
0,note_on,80,G#5,0.6614173228346457,0.11597943750001605,184.79390375
0,note_on,56,G#3,0.8031496062992126,0.11597943750001605,184.948543
0,note_on,68,G#4,0.8031496062992126,0.21262896875001047,184.948543
0,note_on,80,G#5,0.5669291338582677,0.15463925000000245,184.948543
0,note_on,77,F5,0.8031496062992126,0.24484547916665633,185.10318225
0,note_on,62,D4,0.7244094488188977,0.1868557604166483,185.10318225
0,note_on,65,F4,0.889763779527559,0.10953613541664708,185.2578215
0,note_on,75,D#5,0.7244094488188977,0.03865981250001482,185.2578215
0,note_on,74,D5,0.9448818897637795,0.07087632291666068,185.2578215
0,note_on,68,G#4,0.889763779527559,0.07731962500000122,185.41246075
0,note_on,62,D4,0.28346456692913385,0.13530934375000925,185.41246075
0,note_on,80,G#5,0.4881889763779528,0.12242273958335659,185.41246075
0,note_on,81,A5,0.44881889763779526,0.11597943749998763,185.5671
0,note_on,79,G5,0.5118110236220472,0.09020622916665388,185.5671
0,note_on,69,A4,0.8031496062992126,0.33505170833333864,185.5671
0,note_on,57,A3,0.47244094488188976,0.219072270833351,185.5671
0,note_on,76,E5,0.7637795275590551,0.21262896874998205,185.72173925
0,note_on,72,C5,0.8031496062992126,0.09020622916665388,185.87637850000002
0,note_on,60,C4,0.3700787401574803,0.17396915624999565,185.87637850000002
0,note_on,77,F5,0.25984251968503935,0.10309283333333497,186.03101775000002
0,note_on,55,G3,0.6929133858267716,0.14819594791663349,186.03101775000002
0,note_on,67,G4,0.7637795275590551,0.1804124583333362,186.03101775000002
0,note_on,79,G5,0.5905511811023622,0.161082552083343,186.03101775000002
0,note_on,60,C4,0.7244094488188977,0.1997423645833578,186.34029625
0,note_on,76,E5,0.889763779527559,0.21262896875001047,186.34029625
0,note_on,64,E4,0.6929133858267716,0.06443302083334856,186.4949355
0,note_on,72,C5,0.8031496062992126,0.09020622916665388,186.4949355
0,note_on,69,A4,0.8031496062992126,0.21262896875001047,186.64957475
0,note_on,81,A5,0.7244094488188977,0.21262896875001047,186.64957475
0,note_on,57,A3,0.7244094488188977,0.15463925000000245,186.64957475
0,note_on,60,C4,0.3779527559055118,0.03221651041667428,186.804214
0,note_on,77,F5,0.5669291338582677,0.03865981250001482,186.95885325
0,note_on,76,E5,0.889763779527559,0.20618566666666993,186.95885325
0,note_on,60,C4,0.6141732283464567,0.17396915624999565,186.95885325
0,note_on,64,E4,0.7244094488188977,0.09664953124999442,187.1134925
0,note_on,72,C5,0.889763779527559,0.08376292708334176,187.1134925
0,note_on,69,A4,0.7637795275590551,0.10309283333333497,187.26813175
0,note_on,67,G4,0.7637795275590551,0.2706186874999901,187.422771
0,note_on,55,G3,0.6377952755905512,0.10309283333333497,187.422771
0,note_on,79,G5,0.6141732283464567,0.12242273958332817,187.422771
0,note_on,60,C4,0.5669291338582677,0.1997423645833294,187.57741025
0,note_on,76,E5,0.7637795275590551,0.2255155729166347,187.57741025
0,note_on,64,E4,0.6377952755905512,0.07731962500000122,187.73204950000002
0,note_on,72,C5,0.8031496062992126,0.09020622916665388,187.73204950000002
0,note_on,57,A3,0.6929133858267716,0.2061856666666415,187.88668875000002
0,note_on,81,A5,0.6141732283464567,0.19329906249998885,187.88668875000002
0,note_on,69,A4,0.7637795275590551,0.19329906249998885,187.88668875000002
0,note_on,76,E5,0.889763779527559,0.20618566666666993,188.19596725
0,note_on,60,C4,0.6377952755905512,0.19329906250001727,188.19596725
0,note_on,72,C5,0.8031496062992126,0.09664953125002285,188.3506065
0,note_on,64,E4,0.6141732283464567,0.08376292708334176,188.3506065
0,note_on,55,G3,0.6141732283464567,0.1481959479166619,188.50524575
0,note_on,67,G4,0.7637795275590551,0.161082552083343,188.50524575
0,note_on,79,G5,0.6141732283464567,0.20618566666666993,188.50524575
0,note_on,60,C4,0.6141732283464567,0.1868557604166483,188.81452425
0,note_on,76,E5,0.8031496062992126,0.20618566666666993,188.81452425
0,note_on,72,C5,0.8031496062992126,0.08376292708334176,188.9691635
0,note_on,64,E4,0.6929133858267716,0.0386598124999864,188.9691635
0,note_on,69,A4,0.7637795275590551,0.1868557604166483,189.12380275
0,note_on,57,A3,0.6377952755905512,0.1675258541666551,189.12380275
0,note_on,81,A5,0.6377952755905512,0.1997423645833294,189.12380275
0,note_on,60,C4,0.7244094488188977,0.1997423645833294,189.43308125000001
0,note_on,76,E5,0.889763779527559,0.19329906249998885,189.43308125000001
0,note_on,64,E4,0.7244094488188977,0.07087632291663226,189.58772050000002
0,note_on,72,C5,0.8031496062992126,0.09020622916665388,189.58772050000002
0,note_on,79,G5,0.5669291338582677,0.08376292708334176,189.74235975000002
0,note_on,67,G4,0.7244094488188977,0.06443302083332014,189.74235975000002
0,note_on,55,G3,0.5118110236220472,0.06443302083332014,189.74235975000002
0,note_on,67,G4,0.6929133858267716,0.3608249166666724,189.896999
0,note_on,79,G5,0.5905511811023622,0.15463925000000245,189.896999
0,note_on,55,G3,0.5433070866141733,0.13530934375000925,189.896999
0,note_on,76,E5,0.7637795275590551,0.161082552083343,190.05163825
0,note_on,60,C4,0.5905511811023622,0.3479383125000197,190.05163825
0,note_on,72,C5,0.7637795275590551,0.08376292708334176,190.2062775
0,note_on,64,E4,0.6377952755905512,0.07731962500000122,190.2062775
0,note_on,54,F#3,0.4094488188976378,0.03865981250001482,190.36091675
0,note_on,67,G4,0.6141732283464567,0.07731962500000122,190.36091675
0,note_on,78,F#5,0.6141732283464567,0.03221651041667428,190.36091675
0,note_on,54,F#3,0.6614173228346457,0.20618566666666993,190.515556
0,note_on,78,F#5,0.4251968503937008,0.1804124583333362,190.515556
0,note_on,66,F#4,0.5275590551181102,0.3092785000000049,190.515556
0,note_on,60,C4,0.44881889763779526,0.1804124583333362,190.67019525
0,note_on,76,E5,0.6929133858267716,0.1868557604166483,190.67019525
0,note_on,64,E4,0.6377952755905512,0.0386598124999864,190.8248345
0,note_on,72,C5,0.6929133858267716,0.08376292708334176,190.8248345
0,note_on,64,E4,0.4015748031496063,0.0386598124999864,190.97947375
0,note_on,54,F#3,0.5669291338582677,0.1675258541666551,190.97947375
0,note_on,66,F#4,0.8031496062992126,0.1868557604166483,190.97947375
0,note_on,78,F#5,0.47244094488188976,0.17396915624999565,190.97947375
0,note_on,66,F#4,0.889763779527559,0.1804124583333362,191.28875225000002
0,note_on,54,F#3,0.4881889763779528,0.1804124583333362,191.28875225000002
0,note_on,78,F#5,0.6614173228346457,0.06443302083334856,191.28875225000002
0,note_on,66,F#4,0.8031496062992126,0.14819594791663349,191.59803075000002
0,note_on,54,F#3,0.6141732283464567,0.0386598124999864,191.59803075000002
0,note_on,72,C5,0.7244094488188977,0.14175264583332137,191.59803075000002
0,note_on,76,E5,0.7637795275590551,0.14175264583332137,191.59803075000002
0,note_on,64,E4,0.9448818897637795,0.10309283333333497,191.59803075000002
0,note_on,60,C4,0.889763779527559,0.14175264583332137,191.59803075000002
0,note_on,78,F#5,0.6141732283464567,0.17396915624999565,192.98978400000001
0,note_on,54,F#3,0.6614173228346457,0.1675258541666551,192.98978400000001
0,note_on,66,F#4,0.8031496062992126,0.2577320833333374,192.98978400000001
0,note_on,74,D5,0.5905511811023622,0.19329906249998885,193.14442325000002
0,note_on,59,B3,0.5669291338582677,0.2577320833333374,193.14442325000002
0,note_on,62,D4,0.41732283464566927,0.09020622916665388,193.29906250000002
0,note_on,71,B4,0.6377952755905512,0.06443302083332014,193.29906250000002
0,note_on,64,E4,0.8031496062992126,0.13530934375000925,193.45370175
0,note_on,52,E3,0.6141732283464567,0.19329906250001727,193.45370175
0,note_on,76,E5,0.6141732283464567,0.1610825520833714,193.45370175
0,note_on,59,B3,0.7244094488188977,0.2384021770833442,193.76298025
0,note_on,74,D5,0.8031496062992126,0.1804124583333646,193.76298025
0,note_on,71,B4,0.3464566929133858,0.057989718750008024,193.9176195
0,note_on,66,F#4,0.8031496062992126,0.1868557604166483,194.07225875
0,note_on,54,F#3,0.7244094488188977,0.15463925000000245,194.07225875
0,note_on,78,F#5,0.6141732283464567,0.1804124583333362,194.07225875
0,note_on,74,D5,0.6929133858267716,0.1997423645833578,194.38153725
0,note_on,59,B3,0.6377952755905512,0.22551557291666313,194.38153725
0,note_on,71,B4,0.7637795275590551,0.08376292708334176,194.5361765
0,note_on,62,D4,0.6377952755905512,0.08376292708334176,194.5361765
0,note_on,79,G5,0.49606299212598426,0.161082552083343,194.69081575
0,note_on,67,G4,0.7244094488188977,0.17396915624999565,194.69081575
0,note_on,55,G3,0.7244094488188977,0.1675258541666551,194.69081575
0,note_on,59,B3,0.5433070866141733,0.2190722708333226,195.00009425000002
0,note_on,74,D5,0.889763779527559,0.2061856666666415,195.00009425000002
0,note_on,71,B4,0.8031496062992126,0.07087632291663226,195.15473350000002
0,note_on,62,D4,0.7244094488188977,0.08376292708334176,195.15473350000002
0,note_on,67,G4,0.8031496062992126,0.03865981250001482,195.30937275
0,note_on,57,A3,0.8031496062992126,0.1868557604166483,197.93824
0,note_on,69,A4,0.7244094488188977,0.3092785000000049,197.93824
0,note_on,81,A5,0.6929133858267716,0.1481959479166619,197.93824
0,note_on,60,C4,0.5905511811023622,0.1804124583333362,198.09287925
0,note_on,76,E5,0.889763779527559,0.1804124583333362,198.09287925
0,note_on,72,C5,0.889763779527559,0.07087632291666068,198.2475185
0,note_on,64,E4,0.7244094488188977,0.04510311458332694,198.2475185
0,note_on,55,G3,0.6929133858267716,0.1868557604166483,198.40215775000001
0,note_on,79,G5,0.6929133858267716,0.17396915624999565,198.40215775000001
0,note_on,67,G4,0.8031496062992126,0.17396915624999565,198.40215775000001
0,note_on,76,E5,0.9448818897637795,0.19329906249998885,198.71143625000002
0,note_on,60,C4,0.8031496062992126,0.2061856666666415,198.71143625000002
0,note_on,64,E4,0.7244094488188977,0.07087632291666068,198.8660755
0,note_on,72,C5,0.8031496062992126,0.08376292708337019,198.8660755
0,note_on,55,G3,0.6377952755905512,0.22551557291666313,199.02071475
0,note_on,77,F5,0.3700787401574803,0.045103114583355364,199.02071475
0,note_on,79,G5,0.6929133858267716,0.2384021770833442,199.02071475
0,note_on,72,C5,0.4645669291338583,0.03865981250001482,199.02071475
0,note_on,67,G4,0.7637795275590551,0.22551557291666313,199.02071475
0,note_on,77,F5,0.7244094488188977,0.03865981250001482,199.32999325
0,note_on,67,G4,0.47244094488188976,0.06443302083334856,199.32999325
0,note_on,76,E5,0.8031496062992126,0.15463925000000245,199.32999325
0,note_on,60,C4,0.889763779527559,0.21262896875001047,199.32999325
0,note_on,64,E4,0.889763779527559,0.06443302083334856,199.4846325
0,note_on,72,C5,0.7637795275590551,0.10309283333333497,199.4846325
0,note_on,78,F#5,0.7244094488188977,0.17396915624999565,199.63927175
0,note_on,66,F#4,0.889763779527559,0.19329906249998885,199.63927175
0,note_on,72,C5,0.47244094488188976,0.03221651041664586,199.63927175
0,note_on,76,E5,0.6929133858267716,0.045103114583355364,199.63927175
0,note_on,54,F#3,0.7244094488188977,0.17396915624999565,199.63927175
0,note_on,60,C4,0.8031496062992126,0.1997423645833294,199.94855025
0,note_on,76,E5,0.889763779527559,0.17396915624999565,199.94855025
0,note_on,66,F#4,0.3779527559055118,0.07087632291666068,199.94855025
0,note_on,78,F#5,0.5669291338582677,0.0193299062499932,199.94855025
0,note_on,64,E4,0.7637795275590551,0.03221651041664586,200.1031895
0,note_on,72,C5,0.5433070866141733,0.08376292708334176,200.1031895
0,note_on,66,F#4,0.889763779527559,0.07731962500000122,200.25782875000002
0,note_on,78,F#5,0.4015748031496063,0.07087632291666068,200.25782875000002
0,note_on,54,F#3,0.47244094488188976,0.05154641666663906,200.25782875000002
0,note_on,54,F#3,0.8031496062992126,0.10953613541664708,200.41246800000002
0,note_on,78,F#5,0.3779527559055118,0.13530934374998083,200.41246800000002
0,note_on,66,F#4,0.889763779527559,0.31572180208334544,200.41246800000002
0,note_on,74,D5,0.8031496062992126,0.1868557604166483,200.56710725000002
0,note_on,59,B3,0.6377952755905512,0.2061856666666415,200.56710725000002
0,note_on,71,B4,0.7637795275590551,0.08376292708337019,200.7217465
0,note_on,62,D4,0.7244094488188977,0.07731962500000122,200.7217465
0,note_on,76,E5,0.6141732283464567,0.1481959479166619,200.87638575
0,note_on,64,E4,0.8031496062992126,0.1417526458333498,200.87638575
0,note_on,52,E3,0.6377952755905512,0.161082552083343,200.87638575
0,note_on,75,D#5,0.4094488188976378,0.057989718750008024,200.87638575
0,note_on,59,B3,0.7637795275590551,0.17396915624999565,201.18566425
0,note_on,74,D5,0.7637795275590551,0.1868557604166483,201.18566425
0,note_on,71,B4,0.889763779527559,0.06443302083334856,201.3403035
0,note_on,62,D4,0.7637795275590551,0.07731962500000122,201.3403035
0,note_on,57,A3,0.48031496062992124,0.03221651041664586,201.49494275
0,note_on,81,A5,0.6141732283464567,0.05154641666666748,201.49494275
0,note_on,69,A4,0.9448818897637795,0.07087632291666068,201.49494275
0,note_on,81,A5,0.6377952755905512,0.1417526458333498,201.649582
0,note_on,69,A4,0.889763779527559,0.11597943749998763,201.649582
0,note_on,57,A3,0.5905511811023622,0.11597943749998763,201.649582
0,note_on,77,F5,0.889763779527559,0.2061856666666415,201.80422125
0,note_on,62,D4,0.6141732283464567,0.1997423645833294,201.80422125
0,note_on,74,D5,1,0.08376292708334176,201.95886050000001
0,note_on,65,F4,0.7637795275590551,0.09020622916665388,201.95886050000001
0,note_on,77,F5,0.48031496062992124,0.0386598124999864,202.11349975000002
0,note_on,56,G#3,0.3858267716535433,0.0386598124999864,202.11349975000002
0,note_on,69,A4,0.889763779527559,0.08376292708334176,202.11349975000002
0,note_on,80,G#5,0.3700787401574803,0.08376292708334176,202.26813900000002
0,note_on,56,G#3,0.8031496062992126,0.11597943749998763,202.26813900000002
0,note_on,68,G#4,0.889763779527559,0.23195887499997525,202.26813900000002
0,note_on,62,D4,0.6377952755905512,0.1997423645833294,202.42277825000002
0,note_on,77,F5,0.7637795275590551,0.21262896874998205,202.42277825000002
0,note_on,74,D5,1,0.057989718750008024,202.5774175
0,note_on,65,F4,0.8031496062992126,0.11597943750001605,202.5774175
0,note_on,75,D#5,0.889763779527559,0.03865981250001482,202.5774175
0,note_on,80,G#5,0.4566929133858268,0.11597943750001605,202.73205675
0,note_on,68,G#4,0.889763779527559,0.07087632291666068,202.73205675
0,note_on,62,D4,0.28346456692913385,0.03865981250001482,202.73205675
0,note_on,81,A5,0.5905511811023622,0.1804124583333646,202.886696
0,note_on,69,A4,0.8031496062992126,0.1868557604166483,202.886696
0,note_on,57,A3,0.7244094488188977,0.161082552083343,202.886696
0,note_on,76,E5,0.889763779527559,0.21262896875001047,203.04133525
0,note_on,60,C4,0.5433070866141733,0.22551557291666313,203.04133525
0,note_on,64,E4,0.8031496062992126,0.2384021770833442,203.1959745
0,note_on,72,C5,0.9448818897637795,0.10309283333333497,203.1959745
0,note_on,60,C4,0.2992125984251969,0.1288660416666687,203.35061375
0,note_on,69,A4,0.7637795275590551,0.09664953124999442,203.35061375
0,note_on,55,G3,0.6929133858267716,0.13530934375000925,203.505253
0,note_on,67,G4,0.7637795275590551,0.161082552083343,203.505253
0,note_on,79,G5,0.6141732283464567,0.161082552083343,203.505253
0,note_on,76,E5,0.9448818897637795,0.26417538541664953,203.65989225
0,note_on,60,C4,0.7637795275590551,0.1675258541666551,203.65989225
0,note_on,64,E4,0.8031496062992126,0.10309283333333497,203.81453150000002
0,note_on,72,C5,0.9448818897637795,0.10953613541664708,203.81453150000002
0,note_on,67,G4,0.7637795275590551,0.08376292708334176,203.96917075000002
0,note_on,79,G5,0.4330708661417323,0.10309283333333497,203.96917075000002
0,note_on,57,A3,0.7244094488188977,0.12242273958332817,204.12381000000002
0,note_on,69,A4,0.8031496062992126,0.19329906249998885,204.12381000000002
0,note_on,81,A5,0.6377952755905512,0.161082552083343,204.12381000000002
0,note_on,60,C4,0.7637795275590551,0.1804124583333646,204.27844925
0,note_on,76,E5,0.9448818897637795,0.20618566666666993,204.27844925
0,note_on,72,C5,0.9448818897637795,0.1095361354166755,204.4330885
0,note_on,64,E4,0.8031496062992126,0.09664953125002285,204.4330885
0,note_on,69,A4,0.889763779527559,0.09020622916665388,204.58772775
0,note_on,60,C4,0.4015748031496063,0.07087632291666068,204.58772775
0,note_on,67,G4,0.7637795275590551,0.1868557604166483,204.742367
0,note_on,55,G3,0.6929133858267716,0.11597943750001605,204.742367
0,note_on,79,G5,0.5905511811023622,0.1675258541666551,204.742367
0,note_on,76,E5,0.889763779527559,0.2384021770833442,204.89700625
0,note_on,60,C4,0.7244094488188977,0.1997423645833578,204.89700625
0,note_on,64,E4,0.8031496062992126,0.10953613541664708,205.0516455
0,note_on,72,C5,1,0.09020622916665388,205.0516455
0,note_on,67,G4,0.8031496062992126,0.08376292708334176,205.20628475
0,note_on,79,G5,0.4330708661417323,0.09664953124999442,205.20628475
0,note_on,67,G4,0.7637795275590551,0.15463925000000245,205.360924
0,note_on,55,G3,0.6141732283464567,0.13530934375000925,205.360924
0,note_on,79,G5,0.6141732283464567,0.1675258541666551,205.360924
0,note_on,76,E5,0.889763779527559,0.21262896874998205,205.51556325
0,note_on,60,C4,0.5905511811023622,0.161082552083343,205.51556325
0,note_on,64,E4,0.8031496062992126,0.07087632291666068,205.67020250000002
0,note_on,72,C5,0.9448818897637795,0.07731962500000122,205.67020250000002
0,note_on,79,G5,0.4251968503937008,0.07731962500000122,205.82484175000002
0,note_on,55,G3,0.44881889763779526,0.06443302083332014,205.82484175000002
0,note_on,67,G4,0.7637795275590551,0.08376292708334176,205.82484175000002
0,note_on,79,G5,0.5669291338582677,0.161082552083343,205.97948100000002
0,note_on,67,G4,0.7637795275590551,0.19329906249998885,205.97948100000002
0,note_on,55,G3,0.5669291338582677,0.13530934374998083,205.97948100000002
0,note_on,60,C4,0.5905511811023622,0.219072270833351,206.13412025
0,note_on,76,E5,0.9448818897637795,0.21262896875001047,206.13412025
0,note_on,64,E4,0.8031496062992126,0.07087632291666068,206.2887595
0,note_on,72,C5,0.9448818897637795,0.10309283333336339,206.2887595
0,note_on,67,G4,0.8031496062992126,0.1095361354166755,206.44339875
0,note_on,78,F#5,0.4881889763779528,0.19329906250001727,206.598038
0,note_on,66,F#4,0.5275590551181102,0.32216510416665756,206.598038
0,note_on,54,F#3,0.6141732283464567,0.15463925000000245,206.598038
0,note_on,76,E5,0.6377952755905512,0.03221651041667428,206.598038
0,note_on,60,C4,0.5669291338582677,0.1997423645833578,206.75267725
0,note_on,76,E5,0.7244094488188977,0.22551557291666313,206.75267725
0,note_on,72,C5,0.6929133858267716,0.07087632291666068,206.9073165
0,note_on,78,F#5,0.16535433070866143,0.0386598124999864,206.9073165
0,note_on,64,E4,0.7637795275590551,0.07731962500000122,206.9073165
0,note_on,54,F#3,0.4881889763779528,0.05154641666663906,207.06195575
0,note_on,78,F#5,0.3779527559055118,0.0386598124999864,207.06195575
0,note_on,66,F#4,0.8031496062992126,0.08376292708334176,207.06195575
0,note_on,78,F#5,0.49606299212598426,0.33505170833333864,207.216595
0,note_on,54,F#3,0.7244094488188977,0.13530934375000925,207.216595
0,note_on,66,F#4,0.8031496062992126,0.32216510416665756,207.216595
0,note_on,77,F5,0.6141732283464567,0.0579897187499796,207.37123425000001
0,note_on,76,E5,0.6929133858267716,0.1868557604166483,207.37123425000001
0,note_on,60,C4,0.6377952755905512,0.2061856666666415,207.37123425000001
0,note_on,72,C5,0.5905511811023622,0.08376292708334176,207.52587350000002
0,note_on,78,F#5,0.4881889763779528,0.21262896874998205,207.68051275000002
0,note_on,66,F#4,0.8031496062992126,0.2255155729166347,207.68051275000002
0,note_on,54,F#3,0.8031496062992126,0.1997423645833294,207.68051275000002
0,note_on,59,B3,0.8031496062992126,0.22551557291666313,207.98979125
0,note_on,74,D5,0.889763779527559,0.1997423645833578,207.98979125
0,note_on,71,B4,0.7637795275590551,0.07087632291666068,208.1444305
0,note_on,62,D4,0.7244094488188977,0.07087632291666068,208.1444305
0,note_on,65,F4,0.6929133858267716,0.03221651041667428,208.29906975
0,note_on,76,E5,0.6929133858267716,0.1675258541666551,208.29906975
0,note_on,64,E4,0.8031496062992126,0.13530934375000925,208.29906975
0,note_on,52,E3,0.6929133858267716,0.161082552083343,208.29906975
0,note_on,59,B3,0.7637795275590551,0.21262896875001047,208.60834825
0,note_on,74,D5,0.7637795275590551,0.17396915624999565,208.60834825
0,note_on,71,B4,0.889763779527559,0.07087632291666068,208.7629875
0,note_on,62,D4,0.7244094488188977,0.045103114583355364,208.7629875
0,note_on,66,F#4,0.889763779527559,0.17396915624999565,208.91762675
0,note_on,78,F#5,0.5669291338582677,0.161082552083343,208.91762675
0,note_on,54,F#3,0.8031496062992126,0.161082552083343,208.91762675
0,note_on,59,B3,0.6377952755905512,0.28350529166664273,209.22690525000002
0,note_on,74,D5,0.7637795275590551,0.1868557604166483,209.22690525000002
0,note_on,71,B4,0.9448818897637795,0.07087632291663226,209.38154450000002
0,note_on,62,D4,0.6929133858267716,0.08376292708334176,209.38154450000002
0,note_on,76,E5,0.6377952755905512,0.1997423645833294,209.53618375000002
0,note_on,64,E4,0.7637795275590551,0.14819594791663349,209.53618375000002
0,note_on,52,E3,0.6929133858267716,0.1997423645833294,209.53618375000002
0,note_on,59,B3,0.8031496062992126,0.161082552083343,209.84546225
0,note_on,74,D5,0.889763779527559,0.19329906250001727,209.84546225
0,note_on,71,B4,0.9448818897637795,0.057989718750008024,210.0001015
0,note_on,62,D4,0.889763779527559,0.07731962500000122,210.0001015
0,note_on,81,A5,0.6141732283464567,0.03865981250001482,210.15474075
0,note_on,69,A4,0.889763779527559,0.07731962500000122,210.15474075
0,note_on,57,A3,0.3858267716535433,0.03221651041667428,210.15474075
0,note_on,69,A4,0.889763779527559,0.1868557604166483,210.30938
0,note_on,57,A3,0.6377952755905512,0.13530934375000925,210.30938
0,note_on,81,A5,0.5118110236220472,0.17396915624999565,210.30938
0,note_on,62,D4,0.5905511811023622,0.1868557604166483,210.46401925
0,note_on,77,F5,0.9448818897637795,0.1997423645833578,210.46401925
0,note_on,74,D5,1,0.09020622916665388,210.6186585
0,note_on,65,F4,0.7637795275590551,0.07087632291666068,210.6186585
0,note_on,80,G#5,0.5275590551181102,0.1997423645833294,210.77329775
0,note_on,68,G#4,0.889763779527559,0.22551557291666313,210.77329775
0,note_on,56,G#3,0.8031496062992126,0.1804124583333362,210.77329775
0,note_on,77,F5,0.9448818897637795,0.19329906249998885,211.08257625000002
0,note_on,56,G#3,0.6141732283464567,0.05154641666663906,211.08257625000002
0,note_on,62,D4,0.7637795275590551,0.21262896874998205,211.08257625000002
0,note_on,74,D5,0.889763779527559,0.06443302083332014,211.23721550000002
0,note_on,81,A5,0.6377952755905512,0.2190722708333226,211.39185475000002
0,note_on,57,A3,0.7637795275590551,0.2061856666666415,211.39185475000002
0,note_on,83,B5,0.6929133858267716,0.09020622916665388,211.39185475000002
0,note_on,69,A4,0.9448818897637795,0.2190722708333226,211.39185475000002
0,note_on,71,B4,0.7637795275590551,0.02577320833333374,211.39185475000002
0,note_on,80,G#5,0.49606299212598426,0.0386598124999864,211.39185475000002
0,note_on,62,D4,0.8031496062992126,0.1997423645833578,211.70113325
0,note_on,77,F5,0.889763779527559,0.1481959479166619,211.70113325
0,note_on,74,D5,0.9448818897637795,0.07731962500000122,211.8557725
0,note_on,65,F4,0.8031496062992126,0.07087632291666068,211.8557725
0,note_on,68,G#4,0.889763779527559,0.17396915624999565,212.01041175
0,note_on,80,G#5,0.5669291338582677,0.1997423645833578,212.01041175
0,note_on,56,G#3,0.889763779527559,0.1417526458333498,212.01041175
0,note_on,62,D4,0.889763779527559,0.19329906249998885,212.31969025
0,note_on,77,F5,0.7637795275590551,0.2061856666666415,212.31969025
0,note_on,74,D5,1,0.06443302083334856,212.4743295
0,note_on,65,F4,0.889763779527559,0.10953613541664708,212.4743295
0,note_on,80,G#5,0.3937007874015748,0.09664953124999442,212.62896875
0,note_on,62,D4,0.3858267716535433,0.09020622916665388,212.62896875
0,note_on,68,G#4,0.8031496062992126,0.07731962500000122,212.62896875
0,note_on,57,A3,0.7244094488188977,0.11597943749998763,212.78360800000002
0,note_on,81,A5,0.6377952755905512,0.1481959479166619,212.78360800000002
0,note_on,69,A4,0.8031496062992126,0.17396915624999565,212.78360800000002
0,note_on,76,E5,0.889763779527559,0.19329906249998885,212.93824725000002
0,note_on,60,C4,0.7244094488188977,0.19329906249998885,212.93824725000002
0,note_on,72,C5,0.9448818897637795,0.09020622916665388,213.09288650000002
0,note_on,64,E4,0.889763779527559,0.07731962500000122,213.09288650000002
0,note_on,55,G3,0.6929133858267716,0.1610825520833714,213.24752575
0,note_on,79,G5,0.8031496062992126,0.1997423645833578,213.24752575
0,note_on,67,G4,0.889763779527559,0.19329906250001727,213.24752575
0,note_on,80,G#5,0.7244094488188977,0.17396915624999565,213.55680425
0,note_on,56,G#3,0.8031496062992126,0.19329906250001727,213.55680425
0,note_on,68,G#4,1,0.13530934375000925,213.55680425
0,note_on,63,D#4,0.4409448818897638,0.03221651041667428,213.7114435
0,note_on,75,D#5,0.7244094488188977,0.03865981250001482,213.7114435
0,note_on,61,C#4,0.4566929133858268,0.03865981250001482,213.7114435
0,note_on,69,A4,0.8031496062992126,0.1804124583333362,213.86608275
0,note_on,81,A5,0.7244094488188977,0.20618566666666993,213.86608275
0,note_on,79,G5,0.41732283464566927,0.03221651041664586,213.86608275
0,note_on,73,C#5,0.5275590551181102,0.03865981250001482,213.86608275
0,note_on,57,A3,0.7637795275590551,0.15463925000000245,213.86608275
0,note_on,60,C4,0.8031496062992126,0.1417526458333498,214.17536125
0,note_on,76,E5,0.9448818897637795,0.1868557604166483,214.17536125
0,note_on,64,E4,0.7637795275590551,0.10309283333333497,214.3300005
0,note_on,72,C5,0.9448818897637795,0.09020622916665388,214.3300005
0,note_on,69,A4,0.889763779527559,5.637889322916664,214.48463975
0,note_on,60,C4,0.4015748031496063,0.48324765625000055,214.48463975
0,note_on,81,A5,0.5905511811023622,5.863404895833327,214.48463975
0,note_on,55,G3,0.6377952755905512,0.12242273958332817,214.63927900000002
0,note_on,67,G4,0.8031496062992126,0.12886604166664029,214.63927900000002
0,note_on,79,G5,0.6141732283464567,0.1675258541666551,214.63927900000002
0,note_on,76,E5,0.889763779527559,0.2061856666666415,214.79391825000002
0,note_on,60,C4,0.7637795275590551,0.7860828541666365,214.79391825000002
0,note_on,64,E4,0.8031496062992126,0.17396915624999565,214.94855750000002
0,note_on,72,C5,0.9448818897637795,0.07731962500000122,214.94855750000002
0,note_on,67,G4,0.8031496062992126,0.07087632291666068,215.10319675
0,note_on,79,G5,0.5669291338582677,0.09664953125002285,215.10319675
0,note_on,67,G4,0.889763779527559,0.1417526458333498,215.257836
0,note_on,79,G5,0.6141732283464567,0.1417526458333498,215.257836
0,note_on,55,G3,0.6929133858267716,0.15463925000000245,215.257836
0,note_on,60,C4,0.6929133858267716,0.7796395520833528,215.41247525
0,note_on,76,E5,0.889763779527559,0.20618566666666993,215.41247525
0,note_on,72,C5,0.9448818897637795,0.09020622916665388,215.5671145
0,note_on,64,E4,0.7637795275590551,0.06443302083334856,215.5671145
0,note_on,67,G4,0.8031496062992126,0.07731962500000122,215.72175375
0,note_on,79,G5,0.5905511811023622,0.09664953124999442,215.72175375
0,note_on,55,G3,0.49606299212598426,0.06443302083334856,215.72175375
0,note_on,79,G5,0.5905511811023622,0.15463925000000245,215.876393
0,note_on,67,G4,0.8031496062992126,0.1417526458333498,215.876393
0,note_on,55,G3,0.6141732283464567,0.161082552083343,215.876393
0,note_on,60,C4,0.7244094488188977,0.798969458333346,216.03103225
0,note_on,76,E5,0.889763779527559,0.1997423645833294,216.03103225
0,note_on,71,B4,0.8031496062992126,0.07087632291666068,216.1856715
0,note_on,64,E4,0.889763779527559,0.08376292708334176,216.1856715
0,note_on,72,C5,0.9448818897637795,0.04510311458332694,216.1856715
0,note_on,67,G4,0.889763779527559,0.09664953124999442,216.34031075000001
0,note_on,76,E5,0.49606299212598426,0.03221651041664586,216.49495000000002
0,note_on,66,F#4,0.7244094488188977,0.23195887500000367,216.49495000000002
0,note_on,78,F#5,0.47244094488188976,0.0386598124999864,216.49495000000002
0,note_on,54,F#3,0.6614173228346457,0.12886604166664029,216.49495000000002
0,note_on,76,E5,0.7637795275590551,0.19329906249998885,216.64958925000002
0,note_on,78,F#5,0.5275590551181102,0.14819594791663349,216.64958925000002
0,note_on,60,C4,0.6929133858267716,6.2628896249999855,216.64958925000002
0,note_on,64,E4,0.8031496062992126,0.07087632291663226,216.80422850000002
0,note_on,72,C5,0.7244094488188977,0.08376292708334176,216.80422850000002
0,note_on,78,F#5,0.5275590551181102,0.19329906250001727,216.95886775
0,note_on,66,F#4,0.889763779527559,0.1675258541666551,216.95886775
0,note_on,64,E4,0.6141732283464567,0.09664953125002285,216.95886775
0,note_on,54,F#3,0.7244094488188977,0.1804124583333646,216.95886775
0,note_on,78,F#5,0.6141732283464567,0.19329906250001727,217.26814625
0,note_on,66,F#4,0.889763779527559,0.19329906250001727,217.26814625
0,note_on,54,F#3,0.8031496062992126,0.19329906250001727,217.26814625
0,note_on,66,F#4,0.889763779527559,0.1997423645833578,217.57742475
0,note_on,78,F#5,0.7244094488188977,0.1804124583333362,217.57742475
0,note_on,54,F#3,0.889763779527559,0.1868557604166483,217.57742475
0,note_on,59,B3,0.8031496062992126,0.1997423645833294,217.88670325
0,note_on,74,D5,0.8031496062992126,0.1868557604166483,217.88670325
0,note_on,62,D4,0.8031496062992126,0.07087632291666068,218.0413425
0,note_on,71,B4,0.8031496062992126,0.06443302083334856,218.0413425
0,note_on,76,E5,0.6377952755905512,0.1675258541666551,218.19598175000002
0,note_on,75,D#5,0.4015748031496063,0.04510311458332694,218.19598175000002
0,note_on,52,E3,0.7244094488188977,0.1675258541666551,218.19598175000002
0,note_on,64,E4,0.8031496062992126,0.14819594791663349,218.19598175000002
0,note_on,59,B3,0.889763779527559,0.1997423645833294,218.50526025000002
0,note_on,74,D5,0.889763779527559,0.17396915624999565,218.50526025000002
0,note_on,62,D4,0.8031496062992126,0.057989718750008024,218.6598995
0,note_on,71,B4,0.8031496062992126,0.07731962500000122,218.6598995
0,note_on,66,F#4,1,0.15463925000000245,218.81453875
0,note_on,54,F#3,0.8031496062992126,0.13530934375000925,218.81453875
0,note_on,78,F#5,0.6141732283464567,0.1675258541666551,218.81453875
0,note_on,59,B3,0.8031496062992126,0.2384021770833442,219.12381725
0,note_on,73,C#5,0.3779527559055118,0.161082552083343,219.12381725
0,note_on,74,D5,0.7244094488188977,0.1804124583333646,219.12381725
0,note_on,71,B4,0.7244094488188977,0.07731962500000122,219.2784565
0,note_on,70,A#4,0.5669291338582677,0.057989718750008024,219.2784565
0,note_on,62,D4,0.7637795275590551,0.07087632291666068,219.2784565
0,note_on,64,E4,0.889763779527559,0.1804124583333362,219.43309575
0,note_on,76,E5,0.7244094488188977,0.19329906249998885,219.43309575
0,note_on,74,D5,0.5118110236220472,0.03865981250001482,219.43309575
0,note_on,52,E3,0.7244094488188977,0.219072270833351,219.43309575
0,note_on,59,B3,0.41732283464566927,0.057989718750008024,219.587735
0,note_on,74,D5,0.9448818897637795,0.1997423645833294,219.74237425
0,note_on,59,B3,0.7637795275590551,0.15463925000000245,219.74237425
0,note_on,71,B4,0.9448818897637795,0.057989718750008024,219.8970135
0,note_on,62,D4,0.8031496062992126,0.09664953124999442,219.8970135
0,note_on,69,A4,0.8031496062992126,0.3672682187499845,220.05165275000002
0,note_on,57,A3,0.48031496062992124,0.12886604166664029,220.20629200000002
0,note_on,55,G3,0.49606299212598426,0.04510311458332694,220.20629200000002
0,note_on,81,A5,0.5433070866141733,2.5193311145833377,220.20629200000002
0,note_on,69,A4,0.889763779527559,2.5322177187499904,220.20629200000002
0,note_on,62,D4,0.6377952755905512,0.2061856666666415,220.36093125000002
0,note_on,77,F5,0.9448818897637795,0.1997423645833294,220.36093125000002
0,note_on,74,D5,0.889763779527559,0.06443302083334856,220.5155705
0,note_on,65,F4,0.7244094488188977,0.06443302083334856,220.5155705
0,note_on,75,D#5,1,0.03221651041667428,220.5155705
0,note_on,56,G#3,0.8031496062992126,0.1675258541666551,220.67020975
0,note_on,68,G#4,0.889763779527559,0.19329906250001727,220.67020975
0,note_on,80,G#5,0.49606299212598426,0.1997423645833578,220.67020975
0,note_on,56,G#3,0.6141732283464567,0.03865981250001482,220.97948825
0,note_on,74,D5,0.9448818897637795,0.15463925000000245,220.97948825
0,note_on,68,G#4,0.5669291338582677,0.05154641666666748,220.97948825
0,note_on,62,D4,0.7637795275590551,0.19329906250001727,220.97948825
0,note_on,77,F5,0.889763779527559,0.1481959479166619,220.97948825
0,note_on,56,G#3,0.4409448818897638,0.07087632291666068,221.1341275
0,note_on,64,E4,0.7637795275590551,0.23195887500000367,221.28876675
0,note_on,62,D4,0.7244094488188977,0.03221651041664586,221.28876675
0,note_on,50,D3,0.5118110236220472,0.03221651041664586,221.28876675
0,note_on,52,E3,0.6377952755905512,0.19329906249998885,221.28876675
0,note_on,74,D5,0.8031496062992126,0.1481959479166619,221.28876675
0,note_on,76,E5,0.7244094488188977,0.161082552083343,221.28876675
0,note_on,56,G#3,0.8031496062992126,0.21262896874998205,221.59804525
0,note_on,71,B4,0.889763779527559,0.17396915624999565,221.59804525
0,note_on,68,G#4,0.889763779527559,0.09664953124999442,221.75268450000002
0,note_on,74,D5,0.889763779527559,0.19329906249998885,221.90732375000002
0,note_on,50,D3,0.7244094488188977,0.1675258541666551,221.90732375000002
0,note_on,62,D4,0.889763779527559,0.2061856666666415,221.90732375000002
0,note_on,75,D#5,0.889763779527559,0.14175264583332137,222.21660225000002
0,note_on,51,D#3,0.889763779527559,0.15463924999997403,222.21660225000002
0,note_on,63,D#4,0.889763779527559,0.10953613541664708,222.21660225000002
0,note_on,57,A3,0.6377952755905512,0.13530934375000925,222.52588075
0,note_on,59,B3,0.6141732283464567,0.1288660416666687,222.52588075
0,note_on,69,A4,0.8031496062992126,1.4175264583333558,222.52588075
0,note_on,81,A5,0.889763779527559,1.4175264583333558,222.52588075
0,note_on,60,C4,0.8031496062992126,1.3530934375000072,222.83515925
0,note_on,76,E5,0.889763779527559,0.1804124583333362,222.83515925
0,note_on,62,D4,0.7637795275590551,0.025773208333362163,222.83515925
0,note_on,64,E4,0.889763779527559,0.08376292708334176,222.9897985
0,note_on,72,C5,0.889763779527559,0.09664953124999442,222.9897985
0,note_on,79,G5,0.6929133858267716,0.1997423645833578,223.14443775
0,note_on,55,G3,0.6929133858267716,0.1675258541666551,223.14443775
0,note_on,67,G4,0.889763779527559,0.1997423645833578,223.14443775
0,note_on,56,G#3,0.8031496062992126,0.1997423645833294,223.45371625
0,note_on,68,G#4,1,0.1417526458333498,223.45371625
0,note_on,80,G#5,0.889763779527559,0.17396915624999565,223.45371625
0,note_on,75,D#5,0.7244094488188977,0.03221651041664586,223.60835550000002
0,note_on,81,A5,0.7637795275590551,0.6701034166666489,223.76299475000002
0,note_on,57,A3,0.7637795275590551,0.15463925000000245,223.76299475000002
0,note_on,69,A4,0.8031496062992126,0.7087632291666353,223.76299475000002
0,note_on,71,B4,0.48031496062992124,0.03865981250001482,224.07227325
0,note_on,60,C4,0.889763779527559,0.8376292708333608,224.07227325
0,note_on,76,E5,0.8031496062992126,0.1675258541666551,224.07227325
0,note_on,64,E4,0.8031496062992126,0.08376292708337019,224.2269125
0,note_on,72,C5,0.889763779527559,0.09020622916665388,224.2269125
0,note_on,69,A4,0.8031496062992126,5.637889322916664,224.38155175
0,note_on,81,A5,0.41732283464566927,5.605672812500018,224.38155175
0,note_on,79,G5,0.5669291338582677,0.1288660416666687,224.536191
0,note_on,67,G4,0.8031496062992126,0.3092785000000049,224.536191
0,note_on,55,G3,0.6929133858267716,0.11597943750001605,224.536191
0,note_on,76,E5,0.889763779527559,0.219072270833351,224.69083025
0,note_on,60,C4,0.6929133858267716,0.7667529479166717,224.69083025
0,note_on,72,C5,0.8031496062992126,0.07731962500000122,224.8454695
0,note_on,55,G3,0.7637795275590551,0.21262896875001047,225.00010875
0,note_on,64,E4,0.4645669291338583,0.12242273958335659,225.00010875
0,note_on,77,F5,0.4330708661417323,0.0386598124999864,225.00010875
0,note_on,67,G4,0.8031496062992126,0.19329906249998885,225.00010875
0,note_on,79,G5,0.6377952755905512,0.2061856666666415,225.00010875
0,note_on,76,E5,0.889763779527559,0.1481959479166619,225.30938725000001
0,note_on,60,C4,0.7637795275590551,0.7667529479166433,225.30938725000001
0,note_on,64,E4,0.7244094488188977,0.0579897187499796,225.46402650000002
0,note_on,72,C5,0.889763779527559,0.07731962500000122,225.46402650000002
0,note_on,79,G5,0.5669291338582677,0.10309283333333497,225.61866575000002
0,note_on,67,G4,0.7637795275590551,0.08376292708334176,225.61866575000002
0,note_on,55,G3,0.6141732283464567,0.07087632291663226,225.61866575000002
0,note_on,55,G3,0.7244094488188977,0.11597943749998763,225.77330500000002
0,note_on,67,G4,0.8031496062992126,0.13530934374998083,225.77330500000002
0,note_on,79,G5,0.5433070866141733,0.15463924999997403,225.77330500000002
0,note_on,76,E5,0.889763779527559,0.18685576041667673,225.92794425
0,note_on,60,C4,0.5905511811023622,0.7796395520833528,225.92794425
0,note_on,64,E4,0.889763779527559,0.07087632291666068,226.0825835
0,note_on,72,C5,0.9448818897637795,0.08376292708334176,226.0825835
0,note_on,78,F#5,0.3937007874015748,0.03221651041667428,226.23722275
0,note_on,67,G4,0.7637795275590551,0.10309283333336339,226.23722275
0,note_on,78,F#5,0.3464566929133858,0.05154641666666748,226.391862
0,note_on,54,F#3,0.6141732283464567,0.1481959479166619,226.391862
0,note_on,66,F#4,0.8031496062992126,0.2384021770833442,226.391862
0,note_on,60,C4,0.7244094488188977,0.798969458333346,226.54650125
0,note_on,78,F#5,0.47244094488188976,0.05154641666666748,226.54650125
0,note_on,76,E5,0.6929133858267716,0.19329906249998885,226.54650125
0,note_on,64,E4,0.8031496062992126,0.057989718750008024,226.7011405
0,note_on,72,C5,0.9448818897637795,0.07087632291666068,226.7011405
0,note_on,54,F#3,0.4881889763779528,0.05154641666663906,226.85577975
0,note_on,78,F#5,0.4015748031496063,0.07087632291666068,226.85577975
0,note_on,66,F#4,0.889763779527559,0.07087632291666068,226.85577975
0,note_on,66,F#4,0.8031496062992126,0.29639189583335224,227.010419
0,note_on,54,F#3,0.7244094488188977,0.12242273958332817,227.010419
0,note_on,78,F#5,0.44881889763779526,0.32216510416665756,227.010419
0,note_on,76,E5,0.6929133858267716,0.2061856666666415,227.16505825000002
0,note_on,60,C4,0.7637795275590551,5.721652250000005,227.16505825000002
0,note_on,72,C5,0.8031496062992126,0.06443302083334856,227.31969750000002
0,note_on,66,F#4,0.889763779527559,0.1868557604166483,227.47433675000002
0,note_on,54,F#3,0.6614173228346457,0.1868557604166483,227.47433675000002
0,note_on,78,F#5,0.4881889763779528,0.17396915624999565,227.47433675000002
0,note_on,74,D5,0.9448818897637795,0.1997423645833578,227.78361525
0,note_on,59,B3,0.8031496062992126,0.22551557291666313,227.78361525
0,note_on,71,B4,0.8031496062992126,0.06443302083334856,227.9382545
0,note_on,62,D4,0.6929133858267716,0.06443302083334856,227.9382545
0,note_on,75,D#5,0.33070866141732286,0.03865981250001482,228.09289375
0,note_on,64,E4,0.889763779527559,0.1481959479166619,228.09289375
0,note_on,76,E5,0.6141732283464567,0.1868557604166483,228.09289375
0,note_on,52,E3,0.6929133858267716,0.17396915624999565,228.09289375
0,note_on,74,D5,0.889763779527559,0.1675258541666551,228.40217225
0,note_on,59,B3,0.8031496062992126,0.1997423645833578,228.40217225
0,note_on,62,D4,0.7637795275590551,0.057989718750008024,228.5568115
0,note_on,71,B4,0.7244094488188977,0.07731962500000122,228.5568115
0,note_on,78,F#5,0.6614173228346457,0.1804124583333362,228.71145075
0,note_on,66,F#4,0.8031496062992126,0.1868557604166483,228.71145075
0,note_on,54,F#3,0.8031496062992126,0.21262896875001047,228.71145075
0,note_on,74,D5,0.7244094488188977,0.17396915624999565,229.02072925000002
0,note_on,59,B3,0.6929133858267716,0.1997423645833294,229.02072925000002
0,note_on,71,B4,0.7637795275590551,0.08376292708334176,229.17536850000002
0,note_on,70,A#4,0.5669291338582677,0.05154641666663906,229.17536850000002
0,note_on,62,D4,0.7637795275590551,0.04510311458332694,229.17536850000002
0,note_on,52,E3,0.6929133858267716,0.19329906249998885,229.33000775000002
0,note_on,76,E5,0.7244094488188977,0.2255155729166347,229.33000775000002
0,note_on,65,F4,0.7637795275590551,0.03221651041664586,229.33000775000002
0,note_on,64,E4,0.8031496062992126,0.15463924999997403,229.33000775000002
0,note_on,59,B3,0.7244094488188977,0.15463925000000245,229.63928625
0,note_on,74,D5,0.8031496062992126,0.19329906250001727,229.63928625
0,note_on,62,D4,0.7637795275590551,0.057989718750008024,229.7939255
0,note_on,71,B4,0.9448818897637795,0.06443302083334856,229.7939255
0,note_on,69,A4,0.889763779527559,0.29639189583335224,229.94856475
0,note_on,81,A5,0.6141732283464567,0.3092785000000049,229.94856475
0,note_on,57,A3,0.44881889763779526,0.08376292708334176,229.94856475
0,note_on,81,A5,0.5118110236220472,0.5734538854166544,230.103204
0,note_on,57,A3,0.5669291338582677,0.1288660416666687,230.103204
0,note_on,69,A4,0.889763779527559,0.5412373750000086,230.103204
0,note_on,77,F5,0.8031496062992126,0.219072270833351,230.25784325
0,note_on,62,D4,0.6141732283464567,0.1675258541666551,230.25784325
0,note_on,65,F4,0.6929133858267716,0.05154641666666748,230.4124825
0,note_on,74,D5,1,0.08376292708334176,230.4124825
0,note_on,69,A4,0.8031496062992126,0.28350529166664273,230.56712175
0,note_on,56,G#3,0.3700787401574803,0.045103114583355364,230.56712175
0,note_on,81,A5,0.5433070866141733,0.3479383124999913,230.56712175
0,note_on,69,A4,0.8031496062992126,0.5476806770833491,230.72176100000001
0,note_on,79,G5,0.47244094488188976,0.0386598124999864,230.72176100000001
0,note_on,57,A3,0.6377952755905512,0.12886604166664029,230.72176100000001
0,note_on,81,A5,0.5669291338582677,0.3672682187499845,230.72176100000001
0,note_on,62,D4,0.7244094488188977,0.1804124583333362,230.87640025000002
0,note_on,77,F5,0.889763779527559,0.23195887500000367,230.87640025000002
0,note_on,81,A5,0.29133858267716534,6.456188687500003,231.03103950000002
0,note_on,74,D5,0.9448818897637795,0.09664953124999442,231.03103950000002
0,note_on,65,F4,0.8031496062992126,0.07087632291663226,231.03103950000002
0,note_on,69,A4,0.8031496062992126,1.6881451458333174,231.18567875000002
0,note_on,68,G#4,0.889763779527559,0.22551557291666313,231.340318
0,note_on,56,G#3,0.6614173228346457,0.15463925000000245,231.340318
0,note_on,80,G#5,0.47244094488188976,0.10309283333336339,231.340318
0,note_on,77,F5,0.6377952755905512,0.19329906250001727,231.49495725
0,note_on,62,D4,0.6377952755905512,0.1804124583333646,231.49495725
0,note_on,74,D5,0.9448818897637795,0.06443302083334856,231.6495965
0,note_on,65,F4,0.7244094488188977,0.05154641666666748,231.6495965
0,note_on,56,G#3,0.4881889763779528,0.05154641666666748,231.80423575
0,note_on,68,G#4,0.889763779527559,0.07087632291666068,231.80423575
0,note_on,80,G#5,0.4251968503937008,0.07731962500000122,231.80423575
0,note_on,56,G#3,0.7244094488188977,0.30283519791666436,231.958875
0,note_on,68,G#4,0.889763779527559,0.21262896875001047,231.958875
0,note_on,80,G#5,0.49606299212598426,0.3092785000000049,231.958875
0,note_on,62,D4,0.8031496062992126,0.29639189583335224,232.11351425
0,note_on,77,F5,0.7244094488188977,0.23195887500000367,232.11351425
0,note_on,65,F4,0.8031496062992126,0.11597943749998763,232.2681535
0,note_on,74,D5,1,0.07731962500000122,232.2681535
0,note_on,75,D#5,1,0.02577320833333374,232.2681535
0,note_on,68,G#4,0.889763779527559,0.07087632291666068,232.42279275
0,note_on,80,G#5,0.4015748031496063,0.08376292708334176,232.42279275
0,note_on,53,F3,0.49606299212598426,0.01288660416665266,232.57743200000002
0,note_on,64,E4,0.8031496062992126,0.2963918958333238,232.57743200000002
0,note_on,60,C4,0.6929133858267716,0.47680435416666,232.57743200000002
0,note_on,69,A4,0.9448818897637795,0.5283507708333275,232.57743200000002
0,note_on,52,E3,0.7244094488188977,0.35438161458333184,232.57743200000002
0,note_on,57,A3,0.7244094488188977,0.35438161458333184,232.57743200000002
0,note_on,69,A4,0.889763779527559,0.7796395520833528,233.04134975
0,note_on,57,A3,0.7244094488188977,0.06443302083334856,233.04134975
0,note_on,60,C4,0.5905511811023622,0.7860828541666649,233.04134975
0,note_on,64,E4,0.8031496062992126,0.05154641666666748,233.04134975
0,note_on,52,E3,0.6377952755905512,0.03221651041667428,233.04134975
0,note_on,69,A4,0.6929133858267716,0.534794072916668,233.5052675
0,note_on,60,C4,0.48031496062992124,0.5154641666666748,233.5052675
0,note_on,52,E3,0.6377952755905512,0.3801548229166656,233.5052675
0,note_on,64,E4,0.6929133858267716,0.33505170833333864,233.5052675
0,note_on,57,A3,0.7244094488188977,0.37371152083335346,233.5052675
0,note_on,69,A4,0.9448818897637795,0.7667529479166433,233.96918525
0,note_on,64,E4,0.889763779527559,0.05154641666666748,233.96918525
0,note_on,60,C4,0.7244094488188977,0.7474230416666501,233.96918525
0,note_on,52,E3,0.7637795275590551,0.057989718750008024,233.96918525
0,note_on,57,A3,0.7244094488188977,0.05154641666666748,233.96918525
0,note_on,64,E4,0.7637795275590551,0.30283519791663593,234.43310300000002
0,note_on,69,A4,0.7637795275590551,3.0605684895833463,234.43310300000002
0,note_on,57,A3,0.7637795275590551,0.34149501041665076,234.43310300000002
0,note_on,52,E3,0.6377952755905512,0.3286084062499981,234.43310300000002
0,note_on,60,C4,0.6141732283464567,3.42139340624999,234.43310300000002
0,note_on,50,D3,0.7244094488188977,0.057989718750008024,234.89702075
0,note_on,74,D5,0.9448818897637795,0.06443302083334856,234.89702075
0,note_on,62,D4,0.7244094488188977,0.05154641666666748,234.89702075
0,note_on,74,D5,0.889763779527559,0.05154641666666748,235.20629925
0,note_on,62,D4,0.7244094488188977,0.057989718750008024,235.20629925
0,note_on,50,D3,0.7244094488188977,0.09664953124999442,235.20629925
0,note_on,62,D4,0.7244094488188977,0.07087632291666068,235.51557775
0,note_on,50,D3,0.8031496062992126,0.10953613541664708,235.51557775
0,note_on,74,D5,0.8031496062992126,0.057989718750008024,235.51557775
0,note_on,62,D4,0.6929133858267716,0.07731962500000122,235.82485625
0,note_on,74,D5,0.8031496062992126,0.07087632291666068,235.82485625
0,note_on,50,D3,0.7637795275590551,0.10953613541664708,235.82485625
0,note_on,62,D4,0.7244094488188977,0.09020622916665388,236.13413475000002
0,note_on,74,D5,0.889763779527559,0.0579897187499796,236.13413475000002
0,note_on,50,D3,0.7244094488188977,0.09664953124999442,236.13413475000002
0,note_on,62,D4,0.7244094488188977,0.06443302083332014,236.44341325000002
0,note_on,74,D5,0.889763779527559,0.06443302083332014,236.44341325000002
0,note_on,50,D3,0.7244094488188977,0.08376292708334176,236.44341325000002
0,note_on,62,D4,0.6929133858267716,0.09020622916665388,236.75269175
0,note_on,50,D3,0.6929133858267716,0.09664953125002285,236.75269175
0,note_on,74,D5,0.7637795275590551,0.057989718750008024,236.75269175
0,note_on,62,D4,0.6929133858267716,0.07087632291666068,237.06197025
0,note_on,50,D3,0.6377952755905512,0.09020622916665388,237.06197025
0,note_on,74,D5,0.889763779527559,0.08376292708334176,237.06197025
0,note_on,57,A3,0.5433070866141733,0.1417526458333498,237.37124875
0,note_on,69,A4,0.7637795275590551,0.7023199270833516,237.37124875
0,note_on,81,A5,0.7637795275590551,3.7500018125000167,237.37124875
0,note_on,60,C4,0.7637795275590551,0.41237133333333986,237.68052725
0,note_on,76,E5,0.889763779527559,0.161082552083343,237.68052725
0,note_on,64,E4,0.8031496062992126,0.08376292708334176,237.8351665
0,note_on,72,C5,0.9448818897637795,0.09664953124999442,237.8351665
0,note_on,60,C4,0.36220472440944884,0.47680435416666,237.98980575000002
0,note_on,69,A4,0.7637795275590551,3.1701046249999933,237.98980575000002
0,note_on,55,G3,0.6929133858267716,0.14819594791663349,238.14444500000002
0,note_on,67,G4,0.8031496062992126,0.12242273958332817,238.14444500000002
0,note_on,79,G5,0.49606299212598426,0.10953613541664708,238.14444500000002
0,note_on,60,C4,0.8031496062992126,0.8440725729166445,238.29908425000002
0,note_on,76,E5,0.9448818897637795,0.1868557604166483,238.29908425000002
0,note_on,64,E4,0.8031496062992126,0.07087632291666068,238.4537235
0,note_on,72,C5,0.889763779527559,0.1095361354166755,238.4537235
0,note_on,67,G4,0.8031496062992126,0.09664953125002285,238.60836275
0,note_on,66,F#4,0.8031496062992126,0.1288660416666687,238.763002
0,note_on,54,F#3,0.6141732283464567,0.11597943750001605,238.763002
0,note_on,78,F#5,0.2677165354330709,0.045103114583355364,238.763002
0,note_on,66,F#4,0.3937007874015748,0.1417526458333498,238.91764125
0,note_on,60,C4,0.7244094488188977,0.856959177083354,238.91764125
0,note_on,76,E5,0.6929133858267716,0.1868557604166483,238.91764125
0,note_on,72,C5,0.7244094488188977,0.07087632291666068,239.0722805
0,note_on,64,E4,0.7244094488188977,0.07087632291666068,239.0722805
0,note_on,54,F#3,0.7244094488188977,0.15463925000000245,239.22691975
0,note_on,78,F#5,0.6614173228346457,0.1804124583333362,239.22691975
0,note_on,66,F#4,0.889763779527559,0.161082552083343,239.22691975
0,note_on,78,F#5,0.6141732283464567,0.03221651041664586,239.53619825
0,note_on,60,C4,0.9448818897637795,3.163661322916653,239.53619825
0,note_on,76,E5,0.889763779527559,0.1868557604166483,239.53619825
0,note_on,72,C5,0.7637795275590551,0.057989718750008024,239.69083750000001
0,note_on,66,F#4,0.889763779527559,0.1868557604166483,239.84547675000002
0,note_on,54,F#3,0.7244094488188977,0.1417526458333498,239.84547675000002
0,note_on,78,F#5,0.7244094488188977,0.17396915624999565,239.84547675000002
0,note_on,74,D5,1,0.1675258541666551,240.15475525000002
0,note_on,75,D#5,0.5669291338582677,0.05154641666663906,240.15475525000002
0,note_on,59,B3,0.8031496062992126,0.23195887499997525,240.15475525000002
0,note_on,62,D4,0.7637795275590551,0.03865981250001482,240.3093945
0,note_on,71,B4,0.8031496062992126,0.09664953125002285,240.3093945
0,note_on,76,E5,0.7244094488188977,0.20618566666666993,240.46403375
0,note_on,64,E4,0.7637795275590551,0.15463925000000245,240.46403375
0,note_on,52,E3,0.7244094488188977,0.1675258541666551,240.46403375
0,note_on,59,B3,0.6929133858267716,0.15463925000000245,240.77331225
0,note_on,74,D5,0.8031496062992126,0.19329906250001727,240.77331225
0,note_on,71,B4,0.889763779527559,0.06443302083334856,240.9279515
0,note_on,62,D4,0.7637795275590551,0.09664953124999442,240.9279515
0,note_on,81,A5,0.5433070866141733,0.3092785000000049,241.08259075
0,note_on,69,A4,0.889763779527559,0.26417538541664953,241.08259075
0,note_on,79,G5,0.49606299212598426,0.03865981250001482,241.08259075
0,note_on,57,A3,0.48031496062992124,0.11597943749998763,241.23723
0,note_on,69,A4,0.8031496062992126,0.5476806770833491,241.23723
0,note_on,81,A5,0.6377952755905512,1.1726809791666426,241.23723
0,note_on,62,D4,0.6929133858267716,0.1675258541666551,241.39186925
0,note_on,77,F5,0.889763779527559,0.1997423645833294,241.39186925
0,note_on,65,F4,0.889763779527559,0.08376292708334176,241.54650850000002
0,note_on,74,D5,1,0.07731962500000122,241.54650850000002
0,note_on,69,A4,0.8031496062992126,4.420105229166637,241.70114775000002
0,note_on,80,G#5,0.4251968503937008,0.14175264583332137,241.85578700000002
0,note_on,68,G#4,0.8031496062992126,0.1804124583333362,241.85578700000002
0,note_on,56,G#3,0.6614173228346457,0.12886604166664029,241.85578700000002
0,note_on,62,D4,0.7637795275590551,0.2384021770833442,242.01042625000002
0,note_on,77,F5,0.7244094488188977,0.21262896874998205,242.01042625000002
0,note_on,75,D#5,0.8031496062992126,0.03865981250001482,242.1650655
0,note_on,74,D5,0.889763779527559,0.03865981250001482,242.1650655
0,note_on,67,G4,0.8031496062992126,0.1997423645833578,242.31970475
0,note_on,79,G5,0.49606299212598426,0.1804124583333646,242.31970475
0,note_on,55,G3,0.6141732283464567,0.20618566666666993,242.31970475
0,note_on,78,F#5,0.4251968503937008,0.03865981250001482,242.31970475
0,note_on,81,A5,0.6141732283464567,3.76933171875001,242.31970475
0,note_on,60,C4,0.6929133858267716,0.7667529479166717,242.62898325
0,note_on,59,B3,0.6929133858267716,0.057989718750008024,242.62898325
0,note_on,76,E5,0.8031496062992126,0.19329906250001727,242.62898325
0,note_on,72,C5,0.889763779527559,0.09664953124999442,242.7836225
0,note_on,79,G5,0.5433070866141733,0.10309283333333497,242.93826175
0,note_on,55,G3,0.5433070866141733,0.09664953124999442,242.93826175
0,note_on,67,G4,0.7637795275590551,0.08376292708334176,242.93826175
0,note_on,55,G3,0.5905511811023622,0.1417526458333498,243.092901
0,note_on,67,G4,0.8031496062992126,0.13530934375000925,243.092901
0,note_on,79,G5,0.5118110236220472,0.1868557604166483,243.092901
0,note_on,60,C4,0.5905511811023622,0.998711822916647,243.24754025000001
0,note_on,76,E5,0.8031496062992126,0.19329906249998885,243.24754025000001
0,note_on,73,C#5,0.8031496062992126,0.0386598124999864,243.40217950000002
0,note_on,72,C5,0.7637795275590551,0.09020622916665388,243.40217950000002
0,note_on,64,E4,0.7244094488188977,0.06443302083334856,243.40217950000002
0,note_on,79,G5,0.41732283464566927,0.08376292708334176,243.40217950000002
0,note_on,67,G4,0.889763779527559,0.08376292708334176,243.55681875000002
0,note_on,78,F#5,0.2992125984251969,0.09664953124999442,243.71145800000002
0,note_on,54,F#3,0.6614173228346457,0.1804124583333362,243.71145800000002
0,note_on,76,E5,0.6141732283464567,0.0386598124999864,243.71145800000002
0,note_on,66,F#4,0.6614173228346457,0.1675258541666551,243.71145800000002
0,note_on,60,C4,0.6929133858267716,0.695876625000011,244.0207365
0,note_on,76,E5,0.7637795275590551,0.23195887500000367,244.0207365
0,note_on,78,F#5,0.47244094488188976,0.06443302083334856,244.0207365
0,note_on,66,F#4,0.6141732283464567,0.045103114583355364,244.0207365
0,note_on,72,C5,0.6929133858267716,0.20618566666666993,244.0207365
0,note_on,64,E4,0.889763779527559,0.057989718750008024,244.0207365
0,note_on,54,F#3,0.5275590551181102,0.1481959479166619,244.330015
0,note_on,66,F#4,0.8031496062992126,0.31572180208334544,244.330015
0,note_on,78,F#5,0.6614173228346457,0.1804124583333646,244.330015
0,note_on,60,C4,0.6929133858267716,3.189434531250015,244.48465425
0,note_on,76,E5,0.7637795275590551,0.1997423645833578,244.48465425
0,note_on,72,C5,0.7637795275590551,0.06443302083334856,244.6392935
0,note_on,78,F#5,0.2440944881889764,0.057989718750008024,244.6392935
0,note_on,78,F#5,0.5669291338582677,0.1997423645833578,244.79393275
0,note_on,75,D#5,0.4015748031496063,0.0386598124999864,244.79393275
0,note_on,66,F#4,0.8031496062992126,0.219072270833351,244.79393275
0,note_on,54,F#3,0.7244094488188977,0.21262896875001047,244.79393275
0,note_on,74,D5,0.8031496062992126,0.19329906249998885,245.10321125000002
0,note_on,59,B3,0.7637795275590551,0.21262896874998205,245.10321125000002
0,note_on,71,B4,0.5905511811023622,0.09664953124999442,245.25785050000002
0,note_on,62,D4,0.6377952755905512,0.06443302083334856,245.25785050000002
0,note_on,64,E4,0.7244094488188977,0.14819594791663349,245.41248975000002
0,note_on,76,E5,0.6141732283464567,0.1997423645833294,245.41248975000002
0,note_on,65,F4,0.7244094488188977,0.06443302083332014,245.41248975000002
0,note_on,52,E3,0.6929133858267716,0.17396915624999565,245.41248975000002
0,note_on,74,D5,0.8031496062992126,0.20618566666666993,245.72176825
0,note_on,59,B3,0.5905511811023622,0.13530934375000925,245.72176825
0,note_on,62,D4,0.6929133858267716,0.057989718750008024,245.8764075
0,note_on,71,B4,0.8031496062992126,0.06443302083334856,245.8764075
0,note_on,69,A4,0.8031496062992126,0.2899485937500117,246.03104675
0,note_on,81,A5,0.5905511811023622,0.2706186875000185,246.03104675
0,note_on,57,A3,0.49606299212598426,0.11597943750001605,246.185686
0,note_on,69,A4,0.8031496062992126,0.5541239791666612,246.185686
0,note_on,81,A5,0.5669291338582677,1.2822171145833465,246.185686
0,note_on,55,G3,0.47244094488188976,0.07087632291666068,246.185686
0,note_on,62,D4,0.8031496062992126,0.1675258541666551,246.34032525
0,note_on,77,F5,0.9448818897637795,0.1997423645833578,246.34032525
0,note_on,74,D5,1,0.09020622916665388,246.4949645
0,note_on,65,F4,0.8031496062992126,0.08376292708334176,246.4949645
0,note_on,69,A4,0.889763779527559,0.8247426666666513,246.64960375
0,note_on,68,G#4,0.7244094488188977,0.23195887500000367,246.804243
0,note_on,80,G#5,0.3937007874015748,0.08376292708334176,246.804243
0,note_on,56,G#3,0.6614173228346457,0.12886604166664029,246.804243
0,note_on,80,G#5,0.4015748031496063,0.02577320833333374,246.95888225000002
0,note_on,62,D4,0.6929133858267716,0.2512887812499969,246.95888225000002
0,note_on,77,F5,0.6377952755905512,0.219072270833351,246.95888225000002
0,note_on,75,D#5,0.889763779527559,0.03221651041664586,247.11352150000002
0,note_on,74,D5,0.9448818897637795,0.0579897187499796,247.11352150000002
0,note_on,81,A5,0.6141732283464567,0.6829900208333299,247.26816075000002
0,note_on,69,A4,0.8031496062992126,0.7023199270833231,247.26816075000002
0,note_on,57,A3,0.6929133858267716,0.161082552083343,247.26816075000002
0,note_on,60,C4,0.8031496062992126,0.7667529479166717,247.57743925
0,note_on,76,E5,0.889763779527559,0.18685576041667673,247.57743925
0,note_on,64,E4,0.7637795275590551,0.05154641666666748,247.7320785
0,note_on,72,C5,0.889763779527559,0.09020622916665388,247.7320785
0,note_on,69,A4,0.8031496062992126,3.1829912291666744,247.88671775
0,note_on,81,A5,0.4645669291338583,3.1443314166666596,247.88671775
0,note_on,79,G5,0.6141732283464567,0.15463925000000245,248.041357
0,note_on,67,G4,0.8031496062992126,0.15463925000000245,248.041357
0,note_on,55,G3,0.5433070866141733,0.13530934375000925,248.041357
0,note_on,60,C4,0.6929133858267716,0.7925261562500054,248.19599625
0,note_on,76,E5,0.889763779527559,0.1997423645833578,248.19599625
0,note_on,64,E4,0.8031496062992126,0.057989718750008024,248.3506355
0,note_on,72,C5,0.9448818897637795,0.09664953124999442,248.3506355
0,note_on,67,G4,0.889763779527559,0.08376292708334176,248.50527475
0,note_on,79,G5,0.41732283464566927,0.08376292708334176,248.50527475
0,note_on,67,G4,0.7637795275590551,0.15463925000000245,248.65991400000001
0,note_on,79,G5,0.5905511811023622,0.15463925000000245,248.65991400000001
0,note_on,55,G3,0.5433070866141733,0.161082552083343,248.65991400000001
0,note_on,60,C4,0.8031496062992126,0.9085055937499931,248.81455325000002
0,note_on,76,E5,0.889763779527559,0.19329906249998885,248.81455325000002
0,note_on,71,B4,0.8031496062992126,0.07087632291663226,248.96919250000002
0,note_on,72,C5,0.889763779527559,0.07087632291663226,248.96919250000002
0,note_on,64,E4,0.7637795275590551,0.05154641666663906,248.96919250000002
0,note_on,67,G4,0.889763779527559,0.07731962500000122,249.12383175000002
0,note_on,78,F#5,0.3858267716535433,0.045103114583355364,249.278471
0,note_on,66,F#4,0.7244094488188977,0.3479383125000197,249.278471
0,note_on,54,F#3,0.6141732283464567,0.11597943750001605,249.278471
0,note_on,76,E5,0.5118110236220472,0.18685576041667673,249.43311025
0,note_on,78,F#5,0.4881889763779528,0.03865981250001482,249.43311025
0,note_on,60,C4,0.5669291338582677,3.2860840625000094,249.43311025
0,note_on,72,C5,0.8031496062992126,0.057989718750008024,249.5877495
0,note_on,78,F#5,0.5275590551181102,0.1675258541666551,249.74238875
0,note_on,66,F#4,0.8031496062992126,0.1804124583333646,249.74238875
0,note_on,54,F#3,0.6614173228346457,0.1675258541666551,249.74238875
0,note_on,74,D5,0.889763779527559,0.19329906249998885,250.05166725
0,note_on,59,B3,0.7244094488188977,0.09664953124999442,250.05166725
0,note_on,59,B3,0.2677165354330709,0.0386598124999864,250.2063065
0,note_on,62,D4,0.6929133858267716,0.057989718750008024,250.2063065
0,note_on,71,B4,0.889763779527559,0.09664953124999442,250.2063065
0,note_on,76,E5,0.7244094488188977,0.1997423645833294,250.36094575
0,note_on,52,E3,0.6929133858267716,0.19329906249998885,250.36094575
0,note_on,64,E4,0.8031496062992126,0.1481959479166619,250.36094575
0,note_on,59,B3,0.7637795275590551,0.14819594791663349,250.67022425000002
0,note_on,74,D5,0.8031496062992126,0.1868557604166483,250.67022425000002
0,note_on,62,D4,0.7637795275590551,0.07087632291663226,250.82486350000002
0,note_on,71,B4,0.9448818897637795,0.06443302083332014,250.82486350000002
0,note_on,81,A5,0.6377952755905512,0.2706186874999901,250.97950275000002
0,note_on,69,A4,0.889763779527559,0.2706186874999901,250.97950275000002
0,note_on,57,A3,0.6377952755905512,0.05154641666663906,250.97950275000002
0,note_on,57,A3,0.5905511811023622,0.1288660416666687,251.134142
0,note_on,81,A5,0.49606299212598426,1.8814442083333631,251.134142
0,note_on,69,A4,0.8031496062992126,0.5605672812500018,251.134142
0,note_on,62,D4,0.7244094488188977,0.13530934375000925,251.28878125
0,note_on,77,F5,0.889763779527559,0.21262896875001047,251.28878125
0,note_on,65,F4,0.8031496062992126,0.07731962500000122,251.4434205
0,note_on,74,D5,1,0.12242273958335659,251.4434205
0,note_on,69,A4,0.889763779527559,1.4497429687500016,251.59805975
0,note_on,56,G#3,0.4015748031496063,0.03221651041664586,251.59805975
0,note_on,80,G#5,0.3858267716535433,0.057989718750008024,251.752699
0,note_on,68,G#4,0.8031496062992126,0.20618566666666993,251.752699
0,note_on,56,G#3,0.7244094488188977,0.1288660416666687,251.752699
0,note_on,77,F5,0.8031496062992126,0.219072270833351,251.90733825
0,note_on,62,D4,0.6929133858267716,0.24484547916665633,251.90733825
0,note_on,74,D5,1,0.07087632291666068,252.0619775
0,note_on,55,G3,0.5905511811023622,0.17396915624999565,252.21661675000001
0,note_on,67,G4,0.8031496062992126,0.2061856666666415,252.21661675000001
0,note_on,79,G5,0.5669291338582677,0.219072270833351,252.21661675000001
0,note_on,78,F#5,0.4566929133858268,0.0386598124999864,252.21661675000001
0,note_on,76,E5,0.889763779527559,0.2190722708333226,252.52589525000002
0,note_on,60,C4,0.7244094488188977,1.4239697604166395,252.52589525000002
0,note_on,64,E4,0.6377952755905512,0.0579897187499796,252.68053450000002
0,note_on,72,C5,0.8031496062992126,0.08376292708334176,252.68053450000002
0,note_on,69,A4,0.8031496062992126,14.555419406250024,252.83517375
0,note_on,57,A3,0.7244094488188977,0.19329906250001727,252.83517375
0,note_on,81,A5,0.7637795275590551,14.529646197916662,252.83517375
0,note_on,55,G3,0.5905511811023622,0.18685576041667673,253.14445225
0,note_on,79,G5,0.6377952755905512,0.161082552083343,253.14445225
0,note_on,67,G4,0.889763779527559,0.1804124583333646,253.14445225
0,note_on,78,F#5,0.47244094488188976,0.09664953124999442,253.45373075
0,note_on,66,F#4,0.889763779527559,0.20618566666666993,253.45373075
0,note_on,54,F#3,0.889763779527559,0.161082552083343,253.45373075
0,note_on,79,G5,0.5669291338582677,0.06443302083334856,253.45373075
0,note_on,60,C4,0.8031496062992126,0.8182993645833392,253.76300925
0,note_on,76,E5,0.7244094488188977,0.1804124583333362,253.76300925
0,note_on,64,E4,0.7637795275590551,0.057989718750008024,253.9176485
0,note_on,72,C5,0.889763779527559,0.08376292708334176,253.9176485
0,note_on,76,E5,0.49606299212598426,0.05154641666663906,254.07228775000002
0,note_on,78,F#5,0.4094488188976378,0.05154641666663906,254.07228775000002
0,note_on,66,F#4,0.8031496062992126,0.08376292708334176,254.07228775000002
0,note_on,54,F#3,0.4881889763779528,0.08376292708334176,254.07228775000002
0,note_on,54,F#3,0.6614173228346457,0.10309283333333497,254.22692700000002
0,note_on,66,F#4,0.889763779527559,0.34149501041665076,254.22692700000002
0,note_on,76,E5,0.5905511811023622,0.0386598124999864,254.22692700000002
0,note_on,78,F#5,0.3464566929133858,0.0579897187499796,254.22692700000002
0,note_on,78,F#5,0.3543307086614173,0.13530934374998083,254.38156625000002
0,note_on,76,E5,0.7244094488188977,0.1997423645833294,254.38156625000002
0,note_on,60,C4,0.6141732283464567,3.266754156250016,254.38156625000002
0,note_on,71,B4,0.47244094488188976,0.05154641666663906,254.53620550000002
0,note_on,78,F#5,0.8031496062992126,0.21262896875001047,254.69084475
0,note_on,54,F#3,0.8031496062992126,0.1997423645833578,254.69084475
0,note_on,66,F#4,0.889763779527559,0.21262896875001047,254.69084475
0,note_on,66,F#4,0.4409448818897638,0.03221651041667428,255.00012325
0,note_on,59,B3,0.7637795275590551,0.1675258541666551,255.00012325
0,note_on,74,D5,0.7244094488188977,0.19329906250001727,255.00012325
0,note_on,62,D4,0.6141732283464567,0.03865981250001482,255.1547625
0,note_on,71,B4,0.8031496062992126,0.07087632291666068,255.1547625
0,note_on,66,F#4,0.8031496062992126,0.045103114583355364,255.30940175
0,note_on,54,F#3,0.6614173228346457,0.07731962500000122,255.30940175
0,note_on,78,F#5,0.4566929133858268,0.08376292708334176,255.30940175
0,note_on,78,F#5,0.4881889763779528,0.15463925000000245,255.464041
0,note_on,66,F#4,0.8031496062992126,0.19329906249998885,255.464041
0,note_on,54,F#3,0.6141732283464567,0.10953613541664708,255.464041
0,note_on,59,B3,0.6141732283464567,0.1804124583333362,255.61868025
0,note_on,74,D5,0.6929133858267716,0.21262896875001047,255.61868025
0,note_on,62,D4,0.6377952755905512,0.06443302083334856,255.7733195
0,note_on,71,B4,0.889763779527559,0.09020622916665388,255.7733195
0,note_on,66,F#4,0.889763779527559,0.09020622916665388,255.92795875000002
0,note_on,65,F4,0.5905511811023622,0.03221651041667428,256.082598
0,note_on,64,E4,0.7244094488188977,0.1997423645833578,256.082598
0,note_on,76,E5,0.5669291338582677,0.25128878124996845,256.082598
0,note_on,52,E3,0.5433070866141733,0.26417538541664953,256.082598
0,note_on,59,B3,0.5433070866141733,0.20618566666666993,256.23723725
0,note_on,74,D5,0.8031496062992126,0.19329906249998885,256.23723725
0,note_on,71,B4,0.7637795275590551,0.07087632291666068,256.3918765
0,note_on,79,G5,0.6141732283464567,0.06443302083334856,256.54651575
0,note_on,65,F4,0.7244094488188977,0.18041245833330777,256.54651575
0,note_on,77,F5,0.6377952755905512,0.1675258541666267,256.54651575
0,note_on,67,G4,0.6929133858267716,0.0386598124999864,256.54651575
0,note_on,53,F3,0.6377952755905512,0.12242273958332817,256.54651575
0,note_on,55,G3,0.6929133858267716,0.10309283333333497,256.54651575
0,note_on,54,F#3,0.8031496062992126,0.19974236458330097,256.85579425000003
0,note_on,78,F#5,0.8031496062992126,0.19329906249998885,256.85579425000003
0,note_on,66,F#4,0.889763779527559,0.12886604166664029,256.85579425000003
0,note_on,75,D#5,0.8031496062992126,0.0386598124999864,257.01043350000003
0,note_on,79,G5,0.6377952755905512,0.21907227083329417,257.16507275000004
0,note_on,67,G4,0.8031496062992126,0.19974236458330097,257.16507275000004
0,note_on,73,C#5,0.4251968503937008,0.0386598124999864,257.16507275000004
0,note_on,55,G3,0.6377952755905512,0.16108255208331457,257.16507275000004
0,note_on,76,E5,0.7244094488188977,0.18685576041667673,257.47435125
0,note_on,60,C4,0.7244094488188977,0.8118560624999986,257.47435125
0,note_on,64,E4,0.5905511811023622,0.057989718750036445,257.6289905
0,note_on,72,C5,0.8031496062992126,0.09664953125002285,257.6289905
0,note_on,79,G5,0.6141732283464567,0.10309283333339181,257.78362975
0,note_on,67,G4,0.7637795275590551,0.07731962500002965,257.78362975
0,note_on,55,G3,0.4645669291338583,0.08376292708334176,257.78362975
0,note_on,79,G5,0.49606299212598426,0.09664953125002285,257.938269
0,note_on,55,G3,0.6377952755905512,0.15463925000000245,257.938269
0,note_on,67,G4,0.7244094488188977,0.1417526458333782,257.938269
0,note_on,67,G4,0.41732283464566927,0.038659812500043245,258.09290825
0,note_on,76,E5,0.889763779527559,0.19329906249998885,258.09290825
0,note_on,60,C4,0.6929133858267716,0.9536087083333769,258.09290825
0,note_on,64,E4,0.7637795275590551,0.09020622916665388,258.2475475
0,note_on,72,C5,0.9448818897637795,0.10953613541664708,258.2475475
0,note_on,67,G4,0.8031496062992126,0.09664953125002285,258.40218675
0,note_on,54,F#3,0.8031496062992126,0.11597943750001605,258.556826
0,note_on,66,F#4,0.7244094488188977,0.26417538541664953,258.556826
0,note_on,78,F#5,0.4881889763779528,0.1610825520833714,258.556826
0,note_on,60,C4,0.5905511811023622,3.8659812500000044,258.71146525
0,note_on,76,E5,0.6929133858267716,0.19329906249998885,258.71146525
0,note_on,64,E4,0.48031496062992124,0.0579897187499796,258.8661045
0,note_on,72,C5,0.7244094488188977,0.10309283333333497,258.8661045
0,note_on,78,F#5,0.8031496062992126,0.10309283333333497,259.02074375
0,note_on,54,F#3,0.49606299212598426,0.1804124583333646,259.02074375
0,note_on,66,F#4,0.889763779527559,0.07731962500002965,259.02074375
0,note_on,76,E5,0.5669291338582677,0.025773208333362163,259.33002225
0,note_on,74,D5,0.6929133858267716,0.0579897187499796,259.33002225
0,note_on,64,E4,0.6929133858267716,0.0386598124999864,259.33002225
0,note_on,62,D4,0.889763779527559,0.07087632291666068,259.33002225
0,note_on,48,C3,0.47244094488188976,0.07087632291666068,259.33002225
0,note_on,51,D#3,0.3937007874015748,0.0386598124999864,259.4846615
0,note_on,75,D#5,0.8031496062992126,0.0579897187499796,259.4846615
0,note_on,63,D#4,0.8031496062992126,0.0579897187499796,259.4846615
0,note_on,62,D4,0.7637795275590551,0.03221651041667428,259.4846615
0,note_on,52,E3,0.6141732283464567,0.12242273958332817,259.63930075
0,note_on,76,E5,0.7637795275590551,0.20618566666666993,259.63930075
0,note_on,64,E4,0.9448818897637795,0.22551557291666313,259.63930075
0,note_on,50,D3,0.6141732283464567,0.12242273958332817,259.63930075
0,note_on,55,G3,0.5433070866141733,0.18041245833330777,259.94857925
0,note_on,71,B4,0.889763779527559,0.19329906249998885,259.94857925
0,note_on,59,B3,0.6929133858267716,0.08376292708334176,260.1032185
0,note_on,67,G4,0.889763779527559,0.10309283333333497,260.1032185
0,note_on,62,D4,0.7637795275590551,0.19329906249998885,260.25785775
0,note_on,50,D3,0.6141732283464567,0.14175264583332137,260.25785775
0,note_on,74,D5,0.8031496062992126,0.1868557604166199,260.25785775
0,note_on,51,D#3,0.8031496062992126,0.17396915624999565,260.56713625000003
0,note_on,63,D#4,0.889763779527559,0.12886604166664029,260.56713625000003
0,note_on,75,D#5,0.6614173228346457,0.17396915624999565,260.56713625000003
0,note_on,64,E4,0.7637795275590551,0.17396915624999565,260.87641475000004
0,note_on,76,E5,0.6929133858267716,0.18041245833330777,260.87641475000004
0,note_on,52,E3,0.6141732283464567,0.14819594791663349,260.87641475000004
0,note_on,55,G3,0.6141732283464567,0.20618566666666993,261.18569325
0,note_on,71,B4,0.8031496062992126,0.1610825520833714,261.18569325
0,note_on,59,B3,0.6141732283464567,0.07731962500002965,261.3403325
0,note_on,67,G4,0.8031496062992126,0.11597943750001605,261.3403325
0,note_on,50,D3,0.5905511811023622,0.11597943750001605,261.49497175
0,note_on,74,D5,0.8031496062992126,0.1610825520833714,261.49497175
0,note_on,62,D4,0.7637795275590551,0.15463925000000245,261.49497175
0,note_on,75,D#5,0.7244094488188977,0.1417526458333782,261.80425025
0,note_on,51,D#3,0.8031496062992126,0.16752585416668353,261.80425025
0,note_on,63,D#4,0.889763779527559,0.12886604166669713,261.80425025
0,note_on,57,A3,0.41732283464566927,0.15463925000000245,262.11352875
0,note_on,67,G4,0.8031496062992126,0.20618566666666993,262.11352875
0,note_on,79,G5,0.8031496062992126,0.1997423645833578,262.11352875
0,note_on,55,G3,0.41732283464566927,0.1804124583333646,262.11352875
0,note_on,60,C4,0.5433070866141733,0.7667529479166433,262.42280725
0,note_on,76,E5,0.889763779527559,0.1610825520833714,262.42280725
0,note_on,72,C5,0.889763779527559,0.08376292708334176,262.5774465
0,note_on,64,E4,0.6377952755905512,0.05154641666666748,262.5774465
0,note_on,67,G4,0.8031496062992126,0.07087632291666068,262.73208575
0,note_on,79,G5,0.5905511811023622,0.10309283333333497,262.73208575
0,note_on,55,G3,0.48031496062992124,0.0773196249999728,262.73208575
0,note_on,79,G5,0.5433070866141733,0.06443302083334856,262.886725
0,note_on,67,G4,0.8031496062992126,0.10953613541664708,262.886725
0,note_on,55,G3,0.6141732283464567,0.13530934375000925,262.886725
0,note_on,60,C4,0.5905511811023622,0.7860828541666365,263.04136425
0,note_on,76,E5,0.889763779527559,0.17396915624999565,263.04136425
0,note_on,79,G5,0.4015748031496063,0.0386598124999864,263.04136425
0,note_on,72,C5,0.9448818897637795,0.11597943750001605,263.1960035
0,note_on,64,E4,0.6929133858267716,0.07087632291666068,263.1960035
0,note_on,67,G4,0.8031496062992126,0.09020622916665388,263.35064275
0,note_on,54,F#3,0.6614173228346457,0.12242273958332817,263.505282
0,note_on,66,F#4,0.8031496062992126,0.20618566666666993,263.505282
0,note_on,60,C4,0.6141732283464567,0.8054127604166297,263.65992125
0,note_on,76,E5,0.8031496062992126,0.23195887499997525,263.65992125
0,note_on,78,F#5,0.4015748031496063,0.03221651041661744,263.65992125
0,note_on,72,C5,0.9448818897637795,0.07087632291666068,263.8145605
0,note_on,64,E4,0.5118110236220472,0.03221651041661744,263.8145605
0,note_on,54,F#3,0.5275590551181102,0.1675258541666267,263.96919975000003
0,note_on,78,F#5,0.4881889763779528,0.17396915624999565,263.96919975000003
0,note_on,66,F#4,0.8031496062992126,0.17396915624999565,263.96919975000003
0,note_on,72,C5,0.889763779527559,0.10953613541664708,264.27847825000003
0,note_on,76,E5,0.7637795275590551,0.17396915624999565,264.27847825000003
0,note_on,78,F#5,0.49606299212598426,0.0386598124999864,264.27847825000003
0,note_on,60,C4,0.7244094488188977,3.286084062499981,264.27847825000003
0,note_on,75,D#5,0.5275590551181102,0.0773196249999728,264.27847825000003
0,note_on,64,E4,0.7637795275590551,0.05154641666661064,264.43311750000004
0,note_on,66,F#4,0.8031496062992126,0.03221651041661744,264.43311750000004
0,note_on,66,F#4,0.7244094488188977,0.06443302083334856,264.742396
0,note_on,78,F#5,0.6614173228346457,0.057989718750036445,264.742396
0,note_on,59,B3,0.6929133858267716,0.057989718750036445,264.742396
0,note_on,54,F#3,0.4566929133858268,0.019329906250050044,264.742396
0,note_on,62,D4,0.6929133858267716,0.045103114583355364,264.742396
0,note_on,71,B4,0.6141732283464567,0.05154641666666748,264.742396
0,note_on,62,D4,0.6377952755905512,0.07087632291666068,264.89703525
0,note_on,59,B3,0.6141732283464567,0.10953613541670393,264.89703525
0,note_on,66,F#4,0.7244094488188977,0.10309283333339181,264.89703525
0,note_on,71,B4,0.8031496062992126,0.07731962500002965,264.89703525
0,note_on,62,D4,0.7637795275590551,0.09664953125002285,265.20631375
0,note_on,59,B3,0.7637795275590551,0.10309283333333497,265.20631375
0,note_on,66,F#4,0.7244094488188977,0.09020622916665388,265.20631375
0,note_on,71,B4,0.8031496062992126,0.09020622916665388,265.20631375
0,note_on,54,F#3,0.5669291338582677,0.05154641666666748,265.20631375
0,note_on,71,B4,0.889763779527559,0.07087632291666068,265.51559225
0,note_on,66,F#4,0.8031496062992126,0.07087632291666068,265.51559225
0,note_on,54,F#3,0.7244094488188977,0.025773208333362163,265.51559225
0,note_on,62,D4,0.7637795275590551,0.06443302083334856,265.51559225
0,note_on,59,B3,0.7637795275590551,0.07087632291666068,265.51559225
0,note_on,57,A3,0.7244094488188977,0.1159794374999592,267.216624
0,note_on,69,A4,0.8031496062992126,1.262887208333325,267.216624
0,note_on,81,A5,0.6377952755905512,1.2886604166666302,267.216624
0,note_on,76,E5,0.889763779527559,0.19329906249998885,267.37126325
0,note_on,60,C4,0.7244094488188977,1.378866645833341,267.37126325
0,note_on,72,C5,0.9448818897637795,0.09020622916665388,267.52590250000003
0,note_on,64,E4,0.889763779527559,0.0773196249999728,267.52590250000003
0,note_on,55,G3,0.6929133858267716,0.16108255208331457,267.68054175000003
0,note_on,79,G5,0.8031496062992126,0.19974236458330097,267.68054175000003
0,note_on,67,G4,0.889763779527559,0.19329906249998885,267.68054175000003
0,note_on,56,G#3,0.8031496062992126,0.19329906249998885,267.98982025000004
0,note_on,80,G#5,0.7244094488188977,0.17396915624999565,267.98982025000004
0,note_on,68,G#4,1,0.1353093437499524,267.98982025000004
0,note_on,61,C#4,0.4566929133858268,0.038659812500043245,268.1444595
0,note_on,63,D#4,0.4409448818897638,0.03221651041667428,268.1444595
0,note_on,75,D#5,0.7244094488188977,0.038659812500043245,268.1444595
0,note_on,73,C#5,0.5275590551181102,0.038659812500043245,268.29909875
0,note_on,69,A4,0.8031496062992126,0.6894333229166705,268.29909875
0,note_on,81,A5,0.7244094488188977,0.7216498333333448,268.29909875
0,note_on,57,A3,0.7637795275590551,0.15463925000000245,268.29909875
0,note_on,79,G5,0.41732283464566927,0.03221651041667428,268.29909875
0,note_on,76,E5,0.9448818897637795,0.18685576041667673,268.60837725
0,note_on,60,C4,0.8031496062992126,0.418814635416652,268.60837725
0,note_on,64,E4,0.7637795275590551,0.10309283333333497,268.7630165
0,note_on,72,C5,0.9448818897637795,0.09020622916665388,268.7630165
0,note_on,69,A4,0.889763779527559,5.637889322916692,268.91765575
0,note_on,81,A5,0.5905511811023622,5.863404895833355,268.91765575
0,note_on,60,C4,0.4015748031496063,0.48324765625000055,268.91765575
0,note_on,67,G4,0.8031496062992126,0.12886604166664029,269.072295
0,note_on,79,G5,0.6141732283464567,0.16752585416668353,269.072295
0,note_on,55,G3,0.6377952755905512,0.12242273958338501,269.072295
0,note_on,60,C4,0.7637795275590551,0.7860828541666933,269.22693425
0,note_on,76,E5,0.889763779527559,0.20618566666666993,269.22693425
0,note_on,64,E4,0.8031496062992126,0.17396915624999565,269.3815735
0,note_on,72,C5,0.9448818897637795,0.07731962500002965,269.3815735
0,note_on,79,G5,0.5669291338582677,0.09664953125002285,269.53621275
0,note_on,67,G4,0.8031496062992126,0.07087632291666068,269.53621275
0,note_on,79,G5,0.6141732283464567,0.14175264583332137,269.690852
0,note_on,67,G4,0.889763779527559,0.14175264583332137,269.690852
0,note_on,55,G3,0.6929133858267716,0.15463925000000245,269.690852
0,note_on,60,C4,0.6929133858267716,0.7796395520833244,269.84549125
0,note_on,76,E5,0.889763779527559,0.20618566666666993,269.84549125
0,note_on,72,C5,0.9448818897637795,0.09020622916665388,270.0001305
0,note_on,64,E4,0.7637795275590551,0.06443302083334856,270.0001305
0,note_on,67,G4,0.8031496062992126,0.0773196249999728,270.15476975
0,note_on,55,G3,0.49606299212598426,0.06443302083334856,270.15476975
0,note_on,79,G5,0.5905511811023622,0.09664953125002285,270.15476975
0,note_on,55,G3,0.6141732283464567,0.16108255208331457,270.309409
0,note_on,79,G5,0.5905511811023622,0.15463925000000245,270.309409
0,note_on,67,G4,0.8031496062992126,0.14175264583332137,270.309409
0,note_on,76,E5,0.889763779527559,0.1997423645833578,270.46404825
0,note_on,60,C4,0.7244094488188977,0.7989694583333176,270.46404825
0,note_on,72,C5,0.9448818897637795,0.045103114583355364,270.6186875
0,note_on,71,B4,0.8031496062992126,0.07087632291666068,270.6186875
0,note_on,64,E4,0.889763779527559,0.08376292708334176,270.6186875
0,note_on,67,G4,0.889763779527559,0.096649531249966,270.77332675
0,note_on,78,F#5,0.47244094488188976,0.0386598124999864,270.927966
0,note_on,54,F#3,0.6614173228346457,0.12886604166664029,270.927966
0,note_on,76,E5,0.49606299212598426,0.03221651041661744,270.927966
0,note_on,66,F#4,0.7244094488188977,0.23195887499997525,270.927966
0,note_on,78,F#5,0.5275590551181102,0.14819594791663349,271.08260525000003
0,note_on,76,E5,0.7637795275590551,0.19329906249998885,271.08260525000003
0,note_on,60,C4,0.6929133858267716,6.262889624999957,271.08260525000003
0,note_on,72,C5,0.7244094488188977,0.08376292708334176,271.23724450000003
0,note_on,64,E4,0.8031496062992126,0.07087632291666068,271.23724450000003
0,note_on,66,F#4,0.889763779527559,0.1675258541666267,271.39188375000003
0,note_on,54,F#3,0.7244094488188977,0.18041245833330777,271.39188375000003
0,note_on,64,E4,0.6141732283464567,0.096649531249966,271.39188375000003
0,note_on,78,F#5,0.5275590551181102,0.19329906249998885,271.39188375000003
0,note_on,78,F#5,0.6141732283464567,0.19329906249998885,271.70116225000004
0,note_on,54,F#3,0.8031496062992126,0.19329906249998885,271.70116225000004
0,note_on,66,F#4,0.889763779527559,0.19329906249998885,271.70116225000004
0,note_on,54,F#3,0.889763779527559,0.18685576041667673,272.01044075
0,note_on,66,F#4,0.889763779527559,0.1997423645833578,272.01044075
0,note_on,78,F#5,0.7244094488188977,0.1804124583333646,272.01044075
0,note_on,59,B3,0.8031496062992126,0.1997423645833578,272.31971925
0,note_on,74,D5,0.8031496062992126,0.18685576041667673,272.31971925
0,note_on,71,B4,0.8031496062992126,0.06443302083334856,272.4743585
0,note_on,62,D4,0.8031496062992126,0.07087632291666068,272.4743585
0,note_on,76,E5,0.6377952755905512,0.16752585416668353,272.62899775
0,note_on,52,E3,0.7244094488188977,0.16752585416668353,272.62899775
0,note_on,75,D#5,0.4015748031496063,0.045103114583355364,272.62899775
0,note_on,64,E4,0.8031496062992126,0.14819594791669033,272.62899775
0,note_on,59,B3,0.889763779527559,0.1997423645833578,272.93827625
0,note_on,74,D5,0.889763779527559,0.17396915624999565,272.93827625
0,note_on,71,B4,0.8031496062992126,0.07731962500002965,273.0929155
0,note_on,62,D4,0.8031496062992126,0.0579897187499796,273.0929155
0,note_on,54,F#3,0.8031496062992126,0.13530934375000925,273.24755475
0,note_on,78,F#5,0.6141732283464567,0.16752585416668353,273.24755475
0,note_on,66,F#4,1,0.15463925000000245,273.24755475
0,note_on,59,B3,0.8031496062992126,0.2384021770833442,273.55683325
0,note_on,74,D5,0.7244094488188977,0.1804124583333646,273.55683325
0,note_on,73,C#5,0.3779527559055118,0.1610825520833714,273.55683325
0,note_on,71,B4,0.7244094488188977,0.0773196249999728,273.7114725
0,note_on,62,D4,0.7637795275590551,0.07087632291666068,273.7114725
0,note_on,70,A#4,0.5669291338582677,0.0579897187499796,273.7114725
0,note_on,76,E5,0.7244094488188977,0.19329906249998885,273.86611175
0,note_on,74,D5,0.5118110236220472,0.0386598124999864,273.86611175
0,note_on,64,E4,0.889763779527559,0.1804124583333646,273.86611175
0,note_on,52,E3,0.7244094488188977,0.219072270833351,273.86611175
0,note_on,59,B3,0.41732283464566927,0.0579897187499796,274.020751
0,note_on,59,B3,0.7637795275590551,0.15463925000000245,274.17539025
0,note_on,74,D5,0.9448818897637795,0.1997423645833578,274.17539025
0,note_on,62,D4,0.8031496062992126,0.096649531249966,274.3300295
0,note_on,71,B4,0.9448818897637795,0.0579897187499796,274.3300295
0,note_on,69,A4,0.8031496062992126,0.3672682187499845,274.48466875
0,note_on,81,A5,0.5433070866141733,2.5193311145833377,274.639308
0,note_on,55,G3,0.49606299212598426,0.045103114583355364,274.639308
0,note_on,57,A3,0.48031496062992124,0.12886604166664029,274.639308
0,note_on,69,A4,0.889763779527559,2.532217718749962,274.639308
0,note_on,62,D4,0.6377952755905512,0.2061856666666131,274.79394725000003
0,note_on,77,F5,0.9448818897637795,0.19974236458330097,274.79394725000003
0,note_on,65,F4,0.7244094488188977,0.06443302083334856,274.94858650000003
0,note_on,75,D#5,1,0.03221651041661744,274.94858650000003
0,note_on,74,D5,0.889763779527559,0.06443302083334856,274.94858650000003
0,note_on,80,G#5,0.49606299212598426,0.19974236458330097,275.10322575000004
0,note_on,68,G#4,0.889763779527559,0.19329906249998885,275.10322575000004
0,note_on,56,G#3,0.8031496062992126,0.1675258541666267,275.10322575000004
0,note_on,68,G#4,0.5669291338582677,0.05154641666666748,275.41250425
0,note_on,62,D4,0.7637795275590551,0.1932990625000457,275.41250425
0,note_on,74,D5,0.9448818897637795,0.15463925000000245,275.41250425
0,note_on,56,G#3,0.6141732283464567,0.038659812500043245,275.41250425
0,note_on,77,F5,0.889763779527559,0.14819594791669033,275.41250425
0,note_on,56,G#3,0.4409448818897638,0.07087632291666068,275.5671435
0,note_on,64,E4,0.7637795275590551,0.2319588750000321,275.72178275
0,note_on,76,E5,0.7244094488188977,0.1610825520833714,275.72178275
0,note_on,62,D4,0.7244094488188977,0.03221651041667428,275.72178275
0,note_on,74,D5,0.8031496062992126,0.14819594791669033,275.72178275
0,note_on,52,E3,0.6377952755905512,0.1932990625000457,275.72178275
0,note_on,50,D3,0.5118110236220472,0.03221651041667428,275.72178275
0,note_on,56,G#3,0.8031496062992126,0.2126289687500389,276.03106125
0,note_on,71,B4,0.889763779527559,0.17396915624999565,276.03106125
0,note_on,68,G#4,0.889763779527559,0.09664953125002285,276.1857005
0,note_on,50,D3,0.7244094488188977,0.16752585416668353,276.34033975
0,note_on,74,D5,0.889763779527559,0.19329906249998885,276.34033975
0,note_on,62,D4,0.889763779527559,0.20618566666666993,276.34033975
0,note_on,75,D#5,0.889763779527559,0.1417526458333782,276.64961825
0,note_on,51,D#3,0.889763779527559,0.15463925000000245,276.64961825
0,note_on,63,D#4,0.889763779527559,0.10953613541664708,276.64961825
0,note_on,81,A5,0.889763779527559,1.4175264583333274,276.95889675
0,note_on,69,A4,0.8031496062992126,1.4175264583333274,276.95889675
0,note_on,59,B3,0.6141732283464567,0.12886604166664029,276.95889675
0,note_on,57,A3,0.6377952755905512,0.13530934375000925,276.95889675
0,note_on,76,E5,0.889763779527559,0.1804124583333646,277.26817525
0,note_on,62,D4,0.7637795275590551,0.025773208333362163,277.26817525
0,note_on,60,C4,0.8031496062992126,1.3530934374999788,277.26817525
0,note_on,72,C5,0.889763779527559,0.09664953125002285,277.4228145
0,note_on,64,E4,0.889763779527559,0.08376292708334176,277.4228145
0,note_on,79,G5,0.6929133858267716,0.1997423645833578,277.57745375
0,note_on,55,G3,0.6929133858267716,0.1675258541666267,277.57745375
0,note_on,67,G4,0.889763779527559,0.1997423645833578,277.57745375
0,note_on,80,G#5,0.889763779527559,0.17396915624999565,277.88673225
0,note_on,68,G#4,1,0.14175264583332137,277.88673225
0,note_on,56,G#3,0.8031496062992126,0.1997423645833578,277.88673225
0,note_on,75,D#5,0.7244094488188977,0.03221651041661744,278.0413715
0,note_on,57,A3,0.7637795275590551,0.15463925000000245,278.19601075
0,note_on,69,A4,0.8031496062992126,0.7087632291666637,278.19601075
0,note_on,81,A5,0.7637795275590551,0.6701034166666204,278.19601075
0,note_on,60,C4,0.889763779527559,0.837629270833304,278.50528925000003
0,note_on,71,B4,0.48031496062992124,0.0386598124999864,278.50528925000003
0,note_on,76,E5,0.8031496062992126,0.1675258541666267,278.50528925000003
0,note_on,64,E4,0.8031496062992126,0.08376292708334176,278.65992850000004
0,note_on,72,C5,0.889763779527559,0.09020622916665388,278.65992850000004
0,note_on,69,A4,0.8031496062992126,5.637889322916635,278.81456775000004
0,note_on,81,A5,0.41732283464566927,5.605672812499961,278.81456775000004
0,note_on,55,G3,0.6929133858267716,0.11597943750001605,278.969207
0,note_on,79,G5,0.5669291338582677,0.12886604166669713,278.969207
0,note_on,67,G4,0.8031496062992126,0.3092785000000049,278.969207
0,note_on,76,E5,0.889763779527559,0.219072270833351,279.12384625
0,note_on,60,C4,0.6929133858267716,0.7667529479167001,279.12384625
0,note_on,72,C5,0.8031496062992126,0.07731962500002965,279.2784855
0,note_on,79,G5,0.6377952755905512,0.20618566666666993,279.43312475
0,note_on,64,E4,0.4645669291338583,0.12242273958338501,279.43312475
0,note_on,55,G3,0.7637795275590551,0.2126289687500389,279.43312475
0,note_on,77,F5,0.4330708661417323,0.038659812500043245,279.43312475
0,note_on,67,G4,0.8031496062992126,0.1932990625000457,279.43312475
0,note_on,60,C4,0.7637795275590551,0.7667529479166433,279.74240325
0,note_on,76,E5,0.889763779527559,0.14819594791669033,279.74240325
0,note_on,72,C5,0.889763779527559,0.07731962500002965,279.8970425
0,note_on,64,E4,0.7244094488188977,0.057989718750036445,279.8970425
0,note_on,79,G5,0.5669291338582677,0.10309283333333497,280.05168175
0,note_on,67,G4,0.7637795275590551,0.08376292708334176,280.05168175
0,note_on,55,G3,0.6141732283464567,0.07087632291666068,280.05168175
0,note_on,55,G3,0.7244094488188977,0.11597943750001605,280.206321
0,note_on,79,G5,0.5433070866141733,0.15463925000000245,280.206321
0,note_on,67,G4,0.8031496062992126,0.13530934375000925,280.206321
0,note_on,76,E5,0.889763779527559,0.18685576041667673,280.36096025
0,note_on,60,C4,0.5905511811023622,0.7796395520833244,280.36096025
0,note_on,64,E4,0.889763779527559,0.07087632291666068,280.5155995
0,note_on,72,C5,0.9448818897637795,0.08376292708334176,280.5155995
0,note_on,78,F#5,0.3937007874015748,0.03221651041667428,280.67023875
0,note_on,67,G4,0.7637795275590551,0.10309283333333497,280.67023875
0,note_on,78,F#5,0.3464566929133858,0.05154641666666748,280.824878
0,note_on,66,F#4,0.8031496062992126,0.2384021770833442,280.824878
0,note_on,54,F#3,0.6141732283464567,0.14819594791663349,280.824878
0,note_on,78,F#5,0.47244094488188976,0.05154641666666748,280.97951725
0,note_on,76,E5,0.6929133858267716,0.19329906249998885,280.97951725
0,note_on,60,C4,0.7244094488188977,0.7989694583333176,280.97951725
0,note_on,72,C5,0.9448818897637795,0.07087632291666068,281.1341565
0,note_on,64,E4,0.8031496062992126,0.0579897187499796,281.1341565
0,note_on,78,F#5,0.4015748031496063,0.07087632291666068,281.28879575
0,note_on,54,F#3,0.4881889763779528,0.05154641666666748,281.28879575
0,note_on,66,F#4,0.889763779527559,0.07087632291666068,281.28879575
0,note_on,78,F#5,0.44881889763779526,0.32216510416662913,281.443435
0,note_on,66,F#4,0.8031496062992126,0.2963918958333238,281.443435
0,note_on,54,F#3,0.7244094488188977,0.12242273958332817,281.443435
0,note_on,76,E5,0.6929133858267716,0.2061856666666131,281.59807425
0,note_on,60,C4,0.7637795275590551,5.721652249999977,281.59807425
0,note_on,72,C5,0.8031496062992126,0.06443302083334856,281.7527135
0,note_on,54,F#3,0.6614173228346457,0.1868557604166199,281.90735275000003
0,note_on,66,F#4,0.889763779527559,0.1868557604166199,281.90735275000003
0,note_on,78,F#5,0.4881889763779528,0.17396915624999565,281.90735275000003
0,note_on,74,D5,0.9448818897637795,0.19974236458330097,282.21663125000003
0,note_on,59,B3,0.8031496062992126,0.2255155729166063,282.21663125000003
0,note_on,62,D4,0.6929133858267716,0.06443302083329172,282.37127050000004
0,note_on,71,B4,0.8031496062992126,0.06443302083329172,282.37127050000004
0,note_on,52,E3,0.6929133858267716,0.1739691562500525,282.52590975
0,note_on,75,D#5,0.33070866141732286,0.038659812500043245,282.52590975
0,note_on,64,E4,0.889763779527559,0.14819594791669033,282.52590975
0,note_on,76,E5,0.6141732283464567,0.18685576041667673,282.52590975
0,note_on,74,D5,0.889763779527559,0.16752585416668353,282.83518825
0,note_on,59,B3,0.8031496062992126,0.1997423645833578,282.83518825
0,note_on,71,B4,0.7244094488188977,0.07731962500002965,282.9898275
0,note_on,62,D4,0.7637795275590551,0.057989718750036445,282.9898275
0,note_on,66,F#4,0.8031496062992126,0.18685576041667673,283.14446675
0,note_on,78,F#5,0.6614173228346457,0.1804124583333646,283.14446675
0,note_on,54,F#3,0.8031496062992126,0.2126289687500389,283.14446675
0,note_on,59,B3,0.6929133858267716,0.1997423645833578,283.45374525
0,note_on,74,D5,0.7244094488188977,0.17396915624999565,283.45374525
0,note_on,70,A#4,0.5669291338582677,0.05154641666666748,283.6083845
0,note_on,71,B4,0.7637795275590551,0.08376292708334176,283.6083845
0,note_on,62,D4,0.7637795275590551,0.045103114583355364,283.6083845
0,note_on,64,E4,0.8031496062992126,0.15463925000000245,283.76302375
0,note_on,52,E3,0.6929133858267716,0.19329906249998885,283.76302375
0,note_on,65,F4,0.7637795275590551,0.03221651041667428,283.76302375
0,note_on,76,E5,0.7244094488188977,0.22551557291666313,283.76302375
0,note_on,59,B3,0.7244094488188977,0.15463925000000245,284.07230225
0,note_on,74,D5,0.8031496062992126,0.19329906249998885,284.07230225
0,note_on,62,D4,0.7637795275590551,0.0579897187499796,284.2269415
0,note_on,71,B4,0.9448818897637795,0.06443302083334856,284.2269415
0,note_on,81,A5,0.6141732283464567,0.3092785000000049,284.38158075
0,note_on,57,A3,0.44881889763779526,0.08376292708334176,284.38158075
0,note_on,69,A4,0.889763779527559,0.2963918958333238,284.38158075
0,note_on,69,A4,0.889763779527559,0.5412373749999801,284.53622
0,note_on,81,A5,0.5118110236220472,0.5734538854166544,284.53622
0,note_on,57,A3,0.5669291338582677,0.12886604166664029,284.53622
0,note_on,62,D4,0.6141732283464567,0.1675258541666267,284.69085925
0,note_on,77,F5,0.8031496062992126,0.219072270833351,284.69085925
0,note_on,74,D5,1,0.08376292708334176,284.8454985
0,note_on,65,F4,0.6929133858267716,0.05154641666666748,284.8454985
0,note_on,56,G#3,0.3700787401574803,0.045103114583355364,285.00013775
0,note_on,81,A5,0.5433070866141733,0.3479383124999913,285.00013775
0,note_on,69,A4,0.8031496062992126,0.28350529166664273,285.00013775
0,note_on,79,G5,0.47244094488188976,0.0386598124999864,285.154777
0,note_on,69,A4,0.8031496062992126,0.5476806770833491,285.154777
0,note_on,57,A3,0.6377952755905512,0.12886604166664029,285.154777
0,note_on,81,A5,0.5669291338582677,0.3672682187499845,285.154777
0,note_on,62,D4,0.7244094488188977,0.18041245833330777,285.30941625
0,note_on,77,F5,0.889763779527559,0.23195887499997525,285.30941625
0,note_on,81,A5,0.29133858267716534,351.28238628125,285.46405550000003
0,note_on,74,D5,0.9448818897637795,0.096649531249966,285.46405550000003
0,note_on,65,F4,0.8031496062992126,0.07087632291666068,285.46405550000003
0,note_on,69,A4,0.8031496062992126,1.6881451458333459,285.61869475000003
0,note_on,68,G#4,0.889763779527559,0.2255155729166063,285.77333400000003
0,note_on,56,G#3,0.6614173228346457,0.15463925000000245,285.77333400000003
0,note_on,80,G#5,0.47244094488188976,0.10309283333333497,285.77333400000003
0,note_on,62,D4,0.6377952755905512,0.18041245833330777,285.92797325000004
0,note_on,77,F5,0.6377952755905512,0.19329906249998885,285.92797325000004
0,note_on,65,F4,0.7244094488188977,0.05154641666661064,286.08261250000004
0,note_on,74,D5,0.9448818897637795,0.06443302083329172,286.08261250000004
0,note_on,56,G#3,0.4881889763779528,0.05154641666666748,286.23725175
0,note_on,80,G#5,0.4251968503937008,0.07731962500002965,286.23725175
0,note_on,68,G#4,0.889763779527559,0.07087632291666068,286.23725175
0,note_on,56,G#3,0.7244094488188977,0.3028351979166928,286.391891
0,note_on,68,G#4,0.889763779527559,0.2126289687500389,286.391891
0,note_on,80,G#5,0.49606299212598426,0.3092785000000049,286.391891
0,note_on,77,F5,0.7244094488188977,0.2319588750000321,286.54653025
0,note_on,62,D4,0.8031496062992126,0.29639189583338066,286.54653025
0,note_on,75,D#5,1,0.025773208333362163,286.7011695
0,note_on,74,D5,1,0.07731962500002965,286.7011695
0,note_on,65,F4,0.8031496062992126,0.11597943750001605,286.7011695
0,note_on,80,G#5,0.4015748031496063,0.08376292708334176,286.85580875
0,note_on,68,G#4,0.889763779527559,0.07087632291666068,286.85580875
0,note_on,69,A4,0.9448818897637795,0.5283507708333559,287.010448
0,note_on,52,E3,0.7244094488188977,0.35438161458336026,287.010448
0,note_on,53,F3,0.49606299212598426,0.012886604166681082,287.010448
0,note_on,57,A3,0.7244094488188977,0.35438161458336026,287.010448
0,note_on,64,E4,0.8031496062992126,0.29639189583338066,287.010448
0,note_on,60,C4,0.6929133858267716,0.4768043541666884,287.010448
0,note_on,69,A4,0.889763779527559,0.7796395520833244,287.47436575
0,note_on,64,E4,0.8031496062992126,0.05154641666666748,287.47436575
0,note_on,57,A3,0.7244094488188977,0.06443302083334856,287.47436575
0,note_on,60,C4,0.5905511811023622,0.7860828541666365,287.47436575
0,note_on,52,E3,0.6377952755905512,0.03221651041667428,287.47436575
0,note_on,52,E3,0.6377952755905512,0.3801548229166656,287.9382835
0,note_on,57,A3,0.7244094488188977,0.37371152083335346,287.9382835
0,note_on,69,A4,0.6929133858267716,0.534794072916668,287.9382835
0,note_on,64,E4,0.6929133858267716,0.33505170833336706,287.9382835
0,note_on,60,C4,0.48031496062992124,0.5154641666666748,287.9382835
0,note_on,52,E3,0.7637795275590551,0.0579897187499796,288.40220125
0,note_on,60,C4,0.7244094488188977,0.7474230416666501,288.40220125
0,note_on,57,A3,0.7244094488188977,0.05154641666666748,288.40220125
0,note_on,69,A4,0.9448818897637795,0.7667529479166433,288.40220125
0,note_on,64,E4,0.889763779527559,0.05154641666666748,288.40220125
0,note_on,69,A4,0.7637795275590551,347.88032278125,288.866119
0,note_on,57,A3,0.7637795275590551,0.34149501041662234,288.866119
0,note_on,52,E3,0.6377952755905512,0.3286084062499981,288.866119
0,note_on,60,C4,0.6141732283464567,347.88032278125,288.866119
0,note_on,64,E4,0.7637795275590551,0.30283519791663593,288.866119
0,note_on,50,D3,0.7244094488188977,0.0579897187499796,289.33003675000003
0,note_on,74,D5,0.9448818897637795,0.06443302083334856,289.33003675000003
0,note_on,62,D4,0.7244094488188977,0.05154641666661064,289.33003675000003
0,note_on,50,D3,0.889763779527559,0.12886604166669713,289.61998534375
0,note_on,62,D4,0.9448818897637795,0.09020622916665388,289.62642864583336
0,note_on,62,D4,0.889763779527559,0.09020622916665388,289.94859375
0,note_on,50,D3,0.889763779527559,0.096649531249966,289.96792365625004
0,note_on,62,D4,0.889763779527559,0.09020622916665388,290.24498564583337
0,note_on,50,D3,0.9448818897637795,0.09020622916665388,290.27720215625
0,note_on,62,D4,0.889763779527559,0.07731962500002965,290.56715075
0,note_on,50,D3,0.9448818897637795,0.0773196249999728,290.59936726041667
0,note_on,62,D4,0.9448818897637795,0.0579897187499796,290.8699859479167
0,note_on,50,D3,0.9448818897637795,0.06443302083329172,290.88287255208337
0,note_on,62,D4,0.889763779527559,0.06443302083329172,291.0181818958334
0,note_on,50,D3,0.8031496062992126,0.07087632291666068,291.0310685
0,note_on,62,D4,0.9448818897637795,0.07087632291666068,291.18570775
0,note_on,50,D3,0.9448818897637795,0.07087632291666068,291.20503765625
0,note_on,62,D4,0.9448818897637795,0.06443302083334856,291.48209964583333
0,note_on,50,D3,1,0.09020622916665388,291.49498625
0,note_on,43,G2,0.889763779527559,0.07087632291666068,291.94601739583334
0,note_on,55,G3,0.9448818897637795,0.06443302083334856,291.95246069791665
0,note_on,55,G3,0.889763779527559,0.07087632291666068,292.13287315625
0,note_on,43,G2,0.889763779527559,0.06443302083334856,292.14575976041664
0,note_on,55,G3,0.9448818897637795,0.36082491666661554,292.40349184375003
0,note_on,43,G2,1,0.3350517083333102,292.42282175
0,note_on,55,G3,1,0.07731962500002965,292.89962610416666
0,note_on,43,G2,1,0.08376292708334176,292.91895601041665
3,note_on,62,D4,0.7244094488188977,0.9278355,2.3324753541666667
3,note_on,59,B3,0.7637795275590551,0.05798971875000003,3.253867552083334
3,note_on,54,F#3,0.8031496062992126,0.11597943750000006,3.5438161458333335
3,note_on,62,D4,0.889763779527559,0.9149488958333336,4.81314665625
3,note_on,59,B3,0.9448818897637795,0.06443302083333347,5.72165225
3,note_on,54,F#3,1,0.10309283333333319,6.0309307500000005
3,note_on,64,E4,0.7637795275590551,0.1932990624999995,6.939436343750001
3,note_on,66,F#4,0.889763779527559,0.13530934375000037,7.087632291666667
3,note_on,64,E4,1,0.302835197916667,7.24871484375
3,note_on,64,E4,1,0.07731962500000034,7.590209854166667
3,note_on,64,E4,0.8031496062992126,0.07087632291666601,7.725519197916667
3,note_on,64,E4,0.889763779527559,0.0708763229166669,7.873715145833334
3,note_on,64,E4,0.889763779527559,0.07087632291666779,8.17655034375
3,note_on,64,E4,0.8031496062992126,0.08376292708333466,8.83376715625
3,note_on,64,E4,0.8031496062992126,0.07087632291666779,9.265468395833333
3,note_on,64,E4,0.889763779527559,0.07087632291666779,9.45232415625
3,note_on,65,F4,0.889763779527559,0.515464166666666,9.722942843750001
3,note_on,66,F#4,1,0.1224227395833335,10.34149984375
3,note_on,62,D4,0.889763779527559,0.7925261562500001,12.248717260416667
3,note_on,59,B3,0.7637795275590551,0.05798971875000092,13.150779552083334
3,note_on,54,F#3,0.8031496062992126,0.11597943750000006,13.440728145833335
3,note_on,62,D4,0.889763779527559,0.9149488958333336,14.71005865625
3,note_on,59,B3,0.9448818897637795,0.06443302083333435,15.61856425
3,note_on,54,F#3,1,0.10309283333333497,15.92784275
3,note_on,64,E4,0.7637795275590551,0.1932990624999995,16.83634834375
3,note_on,66,F#4,0.889763779527559,0.13530934375000214,16.984544291666666
3,note_on,64,E4,1,0.30283519791666436,17.14562684375
3,note_on,64,E4,1,0.07731962500000122,17.487121854166666
3,note_on,64,E4,0.8031496062992126,0.07087632291667134,17.622431197916665
3,note_on,64,E4,0.889763779527559,0.07087632291666779,17.770627145833334
3,note_on,64,E4,0.889763779527559,0.07087632291666424,18.073462343750002
3,note_on,64,E4,0.8031496062992126,0.08376292708333466,18.73067915625
3,note_on,64,E4,0.8031496062992126,0.07087632291666424,19.162380395833335
3,note_on,64,E4,0.889763779527559,0.07087632291666424,19.34923615625
3,note_on,65,F4,0.889763779527559,0.5154641666666677,19.61985484375
3,note_on,66,F#4,1,0.12242273958333172,20.23841184375
3,note_on,50,D3,0.7637795275590551,0.11597943749999828,21.501299052083333
3,note_on,50,D3,0.8031496062992126,0.16108255208333588,21.501299052083333
3,note_on,52,E3,1,0.09664953125000153,21.63660839583333
3,note_on,52,E3,0.9448818897637795,0.11597943750000184,21.63660839583333
3,note_on,55,G3,0.9448818897637795,0.0902062291666681,21.791247645833334
3,note_on,55,G3,0.889763779527559,0.0837629270833311,21.82346415625
3,note_on,54,F#3,1,0.07731962500000122,22.10052614583333
3,note_on,54,F#3,1,0.05798971875000092,22.12629935416667
3,note_on,50,D3,0.9448818897637795,0.1095361354166684,22.42269125
3,note_on,50,D3,0.9448818897637795,0.12242273958333172,22.42269125
3,note_on,47,B2,0.7244094488188977,0.1739691562499992,22.55155729166667
3,note_on,47,B2,0.7637795275590551,0.1997423645833294,22.558000593750002
3,note_on,50,D3,0.889763779527559,0.06443302083333435,22.719083145833334
3,note_on,50,D3,0.9448818897637795,0.05154641666666748,22.73196975
3,note_on,52,E3,0.6929133858267716,0.12242273958333527,23.028361645833332
3,note_on,52,E3,0.7244094488188977,0.1353093437499986,23.041248250000002
3,note_on,55,G3,0.9448818897637795,0.10953613541666485,23.150784385416667
3,note_on,55,G3,0.8031496062992126,0.1095361354166684,23.1572276875
3,note_on,59,B3,0.9448818897637795,0.07087632291666779,23.3118669375
3,note_on,59,B3,0.889763779527559,0.07087632291666779,23.318310239583333
3,note_on,55,G3,0.9448818897637795,0.07087632291666779,23.627588739583334
3,note_on,55,G3,0.9448818897637795,0.07087632291666424,23.634032041666668
3,note_on,52,E3,0.8031496062992126,0.10309283333333852,23.936867239583332
3,note_on,52,E3,0.889763779527559,0.11597943749999828,23.94331054166667
3,note_on,50,D3,0.9448818897637795,0.057989718749997365,24.27191894791667
3,note_on,50,D3,0.9448818897637795,0.05154641666666748,24.27836225
3,note_on,57,A3,0.9448818897637795,0.0644330208333308,24.58119744791667
3,note_on,57,A3,0.9448818897637795,0.07087632291666779,24.587640750000002
3,note_on,59,B3,0.889763779527559,0.14175264583333558,24.884032645833333
3,note_on,59,B3,0.9448818897637795,0.1288660416666687,24.89691925
3,note_on,55,G3,0.889763779527559,0.5476806770833313,25.051558500000002
3,note_on,55,G3,0.889763779527559,0.5605672812499982,25.06444510416667
3,note_on,58,A#3,0.8031496062992126,0.03865981250000061,25.6314556875
3,note_on,61,C#4,0.889763779527559,0.02577320833333374,25.637898989583334
3,note_on,62,D4,0.889763779527559,1.2757738125000024,25.663672197916668
3,note_on,59,B3,0.889763779527559,1.262887208333332,25.6701155
3,note_on,52,E3,0.9448818897637795,0.46391775000000024,38.98197760416667
3,note_on,59,B3,0.9448818897637795,0.08376292708332755,39.44589535416667
3,note_on,57,A3,1,0.06443302083334146,39.73584394791666
3,note_on,52,E3,0.9448818897637795,1.2822171145833323,40.02579254166667
3,note_on,54,F#3,0.889763779527559,0.03865981249999351,46.79125972916667
3,note_on,54,F#3,0.889763779527559,0.03865981249999351,46.79125972916667
3,note_on,55,G3,0.9448818897637795,0.534794072916668,46.823476239583336
3,note_on,50,D3,1,0.5283507708333275,46.823476239583336
3,note_on,50,D3,1,0.5283507708333275,46.823476239583336
3,note_on,55,G3,0.9448818897637795,0.534794072916668,46.823476239583336
3,note_on,59,B3,0.9448818897637795,0.30283519791667146,49.90337463541667
3,note_on,64,E4,0.9448818897637795,0.37371152083332504,51.15337523958334
3,note_on,57,A3,0.8031496062992126,0.11597943750000184,53.65337644791666
3,note_on,60,C4,0.9448818897637795,0.09020622916666099,53.80157239583334
3,note_on,64,E4,0.889763779527559,0.05798971875000092,53.956211645833335
3,note_on,69,A4,0.889763779527559,0.06443302083334146,54.25904684375
3,note_on,71,B4,0.8031496062992126,0.05798971875000092,54.568325343750004
3,note_on,64,E4,0.7637795275590551,0.07087632291666779,54.72296459375
3,note_on,67,G4,0.8031496062992126,0.05798971875000092,54.884047145833335
3,note_on,69,A4,0.9448818897637795,0.05798971875000092,55.19332564583334
3,note_on,57,A3,0.889763779527559,0.09664953125000153,55.48327423958334
3,note_on,63,D#4,0.4409448818897638,0.025773208333340847,61.8557
3,note_on,55,G3,0.41732283464566927,0.06443302083334146,61.8557
3,note_on,56,G#3,0.7244094488188977,2.158506197916658,61.88147320833334
3,note_on,64,E4,0.889763779527559,2.1649494999999987,61.88147320833334
3,note_on,48,C3,0.9448818897637795,0.43170123958331885,66.21137220833334
3,note_on,52,E3,0.9448818897637795,0.09664953124999442,66.64951675
3,note_on,55,G3,0.9448818897637795,0.0708763229166749,66.97168185416666
3,note_on,59,B3,1,0.0902062291666681,67.26163044791667
3,note_on,60,C4,0.9448818897637795,0.15463925000000245,67.55802234375
3,note_on,57,A3,1,1.1984541875000048,67.71266159375
3,note_on,59,B3,0.889763779527559,0.1804124583333362,73.608283
3,note_on,66,F#4,1,0.14175264583333558,73.6469428125
3,note_on,60,C4,0.8031496062992126,0.10309283333333497,73.75647894791666
3,note_on,67,G4,0.8031496062992126,0.12242273958334238,73.76292225
3,note_on,62,D4,0.889763779527559,0.08376292708332755,74.05931414583334
3,note_on,69,A4,0.9448818897637795,0.09664953124999442,74.07220075000001
3,note_on,66,F#4,1,0.07731962500000122,74.35570604166666
3,note_on,59,B3,0.9448818897637795,0.08376292708334176,74.35570604166666
3,note_on,55,G3,0.7637795275590551,0.08376292708332755,74.65854123958334
3,note_on,62,D4,0.8031496062992126,0.0902062291666681,74.66498454166667
3,note_on,59,B3,0.9448818897637795,0.07731962500000122,74.96781973958333
3,note_on,66,F#4,0.889763779527559,0.08376292708334176,74.99359294791667
3,note_on,62,D4,1,0.0708763229166749,75.28354154166666
3,note_on,55,G3,0.889763779527559,0.07087632291666068,75.28998484375
3,note_on,59,B3,0.889763779527559,0.1288660416666687,75.59926334375
3,note_on,50,D3,0.8031496062992126,0.13530934375000925,75.60570664583334
3,note_on,62,D4,0.9448818897637795,0.6250003020833361,75.75390259375
3,note_on,55,G3,0.889763779527559,0.4896909583333411,75.76678919791667
3,note_on,54,F#3,1,0.6701034166666773,77.25519197916667
3,note_on,61,C#4,0.49606299212598426,0.03865981250000061,77.2809651875
3,note_on,62,D4,0.7637795275590551,0.3672682187499987,77.32606830208334
3,note_on,61,C#4,0.5669291338582677,0.06443302083333435,77.89307888541667
3,note_on,56,G#3,0.8031496062992126,0.9664953125000011,77.938182
3,note_on,62,D4,0.7637795275590551,0.979381916666668,77.95751190625
3,note_on,61,C#4,0.889763779527559,0.03221651041667428,79.80029630208332
3,note_on,62,D4,0.8031496062992126,0.3092785000000049,79.8325128125
3,note_on,62,D4,0.9448818897637795,0.11597943750000184,80.25132744791668
3,note_on,62,D4,0.889763779527559,0.08376292708334176,80.86344114583333
3,note_on,62,D4,0.9448818897637795,0.31572180208334544,81.03741030208333
3,note_on,62,D4,0.9448818897637795,0.11597943750000184,81.48199814583333
3,note_on,62,D4,0.9448818897637795,0.07731962500000122,82.26163769791667
3,note_on,62,D4,0.889763779527559,0.0708763229166749,82.42272025
3,note_on,62,D4,1,0.08376292708334176,82.71911214583334
3,note_on,62,D4,0.7637795275590551,0.0902062291666681,87.37761955208333
3,note_on,59,B3,0.889763779527559,0.1095361354166613,87.38406285416667
3,note_on,60,C4,0.8031496062992126,0.13530934374999504,87.66756814583333
3,note_on,64,E4,0.9448818897637795,0.1288660416666687,87.68045475000001
3,note_on,66,F#4,0.889763779527559,0.5090208645833201,87.81576409375
3,note_on,62,D4,0.9448818897637795,0.5219074687500012,87.82865069791667
3,note_on,64,E4,0.8031496062992126,0.14175264583332137,88.62117685416668
3,note_on,59,B3,0.7244094488188977,0.1481959479166477,88.77581610416668
3,note_on,62,D4,0.889763779527559,0.19329906250000306,88.91756875
3,note_on,64,E4,0.889763779527559,0.15463925000000245,89.23973385416667
3,note_on,59,B3,0.6929133858267716,0.1804124583333362,89.40081640625
3,note_on,62,D4,0.889763779527559,0.16752585416666932,89.54256905208334
3,note_on,64,E4,0.889763779527559,0.14819594791667612,89.85184755208333
3,note_on,59,B3,0.8031496062992126,0.13530934374999504,90.02581670833334
3,note_on,65,F4,0.9448818897637795,0.07731962500000122,90.17401265625
3,note_on,64,E4,1,0.44458784374999993,90.47684785416668
3,note_on,66,F#4,0.889763779527559,0.03865981250000061,93.41499360416668
3,note_on,55,G3,0.9448818897637795,0.4123713333333541,93.44721011458333
3,note_on,67,G4,0.889763779527559,0.39304142708331824,93.45365341666668
3,note_on,60,C4,1,0.0708763229166749,93.88535465625
3,note_on,48,C3,0.9448818897637795,0.10309283333332075,93.90468456250001
3,note_on,60,C4,1,1.0309283333333212,94.18818985416668
3,note_on,48,C3,0.9448818897637795,1.0309283333333497,94.20107645833333
3,note_on,62,D4,0.8031496062992126,0.16108255208332878,100.83767760416667
3,note_on,59,B3,0.8031496062992126,0.11597943750000184,100.83767760416667
3,note_on,60,C4,0.9448818897637795,0.07087632291666068,100.99231685416667
3,note_on,64,E4,0.9448818897637795,0.0708763229166749,100.99876015625
3,note_on,66,F#4,1,0.057989718750008024,101.28226544791667
3,note_on,62,D4,0.9448818897637795,0.05798971874999381,101.30159535416668
3,note_on,67,G4,0.889763779527559,0.08376292708332755,101.59154394791668
3,note_on,64,E4,0.889763779527559,0.06443302083332014,101.61731715625001
3,note_on,69,A4,0.9448818897637795,0.08376292708332755,101.90082244791668
3,note_on,66,F#4,1,0.06443302083332014,101.90726575000001
3,note_on,71,B4,0.889763779527559,0.09020622916665388,102.03613179166668
3,note_on,67,G4,0.9448818897637795,0.07087632291666068,102.05546169791667
3,note_on,72,C5,0.9448818897637795,0.07731962500000122,102.20365764583333
3,note_on,69,A4,0.9448818897637795,0.0708763229166749,102.24231745833333
3,note_on,74,D5,1,0.2899485937499975,102.51937944791668
3,note_on,71,B4,0.9448818897637795,0.3157218020833312,102.52582275
3,note_on,72,C5,0.41732283464566927,0.0708763229166749,102.80288473958333
3,note_on,69,A4,0.44881889763779526,0.06443302083332014,102.82865794791668
3,note_on,71,B4,0.4015748031496063,0.12242273958332817,102.85443115625
3,note_on,67,G4,0.47244094488188976,0.08376292708332755,102.87376106250001
3,note_on,65,F4,0.36220472440944884,0.057989718750008024,102.94463738541667
3,note_on,69,A4,0.28346456692913385,0.04510311458332694,102.96396729166668
3,note_on,64,E4,0.5118110236220472,0.02577320833331953,103.00262710416668
3,note_on,59,B3,0.889763779527559,0.4961342604166532,104.54901960416667
3,note_on,62,D4,0.7637795275590551,0.4961342604166532,104.54901960416667
3,note_on,58,A#3,0.49606299212598426,0.1288660416666687,105.01938065625001
3,note_on,61,C#4,0.6141732283464567,0.1288660416666545,105.03226726041667
3,note_on,59,B3,0.8031496062992126,0.9987118229166754,105.15469
3,note_on,62,D4,0.8031496062992126,0.9729386145833274,105.15469
3,note_on,60,C4,0.7244094488188977,1.275773812500006,106.37247409375
3,note_on,57,A3,0.6929133858267716,1.275773812500006,106.37891739583333
3,note_on,64,E4,1,0.14819594791667612,108.7500525625
3,note_on,60,C4,1,0.1288660416666545,108.87891860416667
3,note_on,57,A3,0.889763779527559,0.6314436041666625,109.03355785416667
3,note_on,59,B3,1,0.1288660416666687,112.42917805208333
3,note_on,62,D4,1,0.12242273958332817,112.43562135416667
3,note_on,55,G3,0.9448818897637795,0.1095361354166755,114.89696275
3,note_on,59,B3,0.9448818897637795,0.15463925000000245,115.20624125
3,note_on,60,C4,0.9448818897637795,0.1095361354166755,115.36088050000001
3,note_on,62,D4,1,0.08376292708332755,115.51551975000001
3,note_on,64,E4,1,0.08376292708332755,115.82479825
3,note_on,67,G4,0.9448818897637795,0.08376292708332755,116.13407675
3,note_on,62,D4,0.7244094488188977,0.9278355000000005,118.62119135416668
3,note_on,59,B3,0.7637795275590551,0.057989718750008024,119.54258355208333
3,note_on,54,F#3,0.8031496062992126,0.11597943750000184,119.83253214583333
3,note_on,62,D4,0.889763779527559,0.9149488958333194,121.10186265625
3,note_on,59,B3,0.9448818897637795,0.06443302083333435,122.01036825
3,note_on,54,F#3,1,0.10309283333333497,122.31964675
3,note_on,64,E4,0.7637795275590551,0.19329906249998885,123.22815234375001
3,note_on,66,F#4,0.889763779527559,0.13530934375000925,123.37634829166667
3,note_on,64,E4,1,0.30283519791667857,123.53743084375
3,note_on,64,E4,1,0.07731962500000122,123.87892585416668
3,note_on,64,E4,0.8031496062992126,0.07087632291666068,124.01423519791668
3,note_on,64,E4,0.889763779527559,0.07087632291666068,124.16243114583334
3,note_on,64,E4,0.889763779527559,0.0708763229166749,124.46526634375
3,note_on,64,E4,0.8031496062992126,0.08376292708332755,125.12248315625
3,note_on,64,E4,0.8031496062992126,0.0708763229166749,125.55418439583333
3,note_on,64,E4,0.889763779527559,0.0708763229166749,125.74104015625001
3,note_on,65,F4,0.889763779527559,0.5154641666666748,126.01165884375
3,note_on,66,F#4,1,0.12242273958332817,126.63021584375001
3,note_on,50,D3,0.8031496062992126,0.11597943750000184,127.89310305208333
3,note_on,50,D3,0.7637795275590551,0.1610825520833572,127.89310305208333
3,note_on,52,E3,1,0.09664953124999442,128.02841239583333
3,note_on,52,E3,0.9448818897637795,0.11597943750001605,128.02841239583333
3,note_on,55,G3,0.9448818897637795,0.0902062291666823,128.18305164583333
3,note_on,55,G3,0.889763779527559,0.08376292708331334,128.21526815625
3,note_on,54,F#3,1,0.07731962500000122,128.49233014583334
3,note_on,54,F#3,1,0.057989718750008024,128.51810335416667
3,note_on,50,D3,0.9448818897637795,0.1095361354166755,128.81449525
3,note_on,50,D3,0.9448818897637795,0.12242273958332817,128.81449525
3,note_on,47,B2,0.7244094488188977,0.17396915624999565,128.9433612916667
3,note_on,47,B2,0.7637795275590551,0.1997423645833294,128.94980459375
3,note_on,50,D3,0.889763779527559,0.06443302083332014,129.11088714583335
3,note_on,50,D3,0.9448818897637795,0.05154641666666748,129.12377375
3,note_on,52,E3,0.6929133858267716,0.12242273958335659,129.42016564583332
3,note_on,52,E3,0.7244094488188977,0.13530934375000925,129.43305225
3,note_on,55,G3,0.9448818897637795,0.10953613541664708,129.54258838541668
3,note_on,55,G3,0.8031496062992126,0.10953613541664708,129.54903168750002
3,note_on,59,B3,0.9448818897637795,0.0708763229166891,129.7036709375
3,note_on,59,B3,0.889763779527559,0.07087632291666068,129.71011423958333
3,note_on,55,G3,0.9448818897637795,0.07087632291666068,130.01939273958334
3,note_on,55,G3,0.9448818897637795,0.07087632291666068,130.02583604166668
3,note_on,52,E3,0.8031496062992126,0.10309283333333497,130.32867123958334
3,note_on,52,E3,0.889763779527559,0.11597943749998763,130.33511454166668
3,note_on,50,D3,0.9448818897637795,0.057989718750008024,130.66372294791668
3,note_on,50,D3,0.9448818897637795,0.051546416666695904,130.67016625
3,note_on,57,A3,0.9448818897637795,0.06443302083332014,130.9730014479167
3,note_on,57,A3,0.9448818897637795,0.0708763229166891,130.97944475
3,note_on,59,B3,0.889763779527559,0.1417526458333498,131.27583664583332
3,note_on,59,B3,0.9448818897637795,0.1288660416666687,131.28872325
3,note_on,55,G3,0.889763779527559,0.5476806770833207,131.4433625
3,note_on,55,G3,0.889763779527559,0.5605672812500018,131.4562491041667
3,note_on,58,A#3,0.8031496062992126,0.03865981250001482,132.0232596875
3,note_on,61,C#4,0.889763779527559,0.02577320833333374,132.02970298958334
3,note_on,62,D4,0.889763779527559,1.275773812500006,132.05547619791668
3,note_on,59,B3,0.889763779527559,1.262887208333325,132.06191950000002
3,note_on,48,C3,0.9448818897637795,0.43170123958333306,145.38666820833333
3,note_on,52,E3,0.9448818897637795,0.09664953124999442,145.82481275
3,note_on,55,G3,0.9448818897637795,0.07087632291666068,146.14697785416666
3,note_on,59,B3,1,0.09020622916665388,146.43692644791668
3,note_on,60,C4,0.9448818897637795,0.15463925000000245,146.73331834375
3,note_on,57,A3,1,1.1984541875000048,146.88795759375
3,note_on,59,B3,0.889763779527559,0.1804124583333362,152.783579
3,note_on,66,F#4,1,0.14175264583332137,152.82223881250002
3,note_on,60,C4,0.8031496062992126,0.10309283333333497,152.93177494791667
3,note_on,67,G4,0.8031496062992126,0.12242273958332817,152.93821825
3,note_on,62,D4,0.889763779527559,0.08376292708334176,153.23461014583333
3,note_on,69,A4,0.9448818897637795,0.09664953124999442,153.24749675
3,note_on,59,B3,0.9448818897637795,0.08376292708331334,153.53100204166668
3,note_on,66,F#4,1,0.07731962500000122,153.53100204166668
3,note_on,55,G3,0.7637795275590551,0.08376292708334176,153.83383723958335
3,note_on,62,D4,0.8031496062992126,0.09020622916665388,153.8402805416667
3,note_on,59,B3,0.9448818897637795,0.07731962500000122,154.14311573958332
3,note_on,66,F#4,0.889763779527559,0.08376292708331334,154.16888894791668
3,note_on,62,D4,1,0.07087632291666068,154.45883754166667
3,note_on,55,G3,0.889763779527559,0.07087632291666068,154.46528084375
3,note_on,59,B3,0.889763779527559,0.1288660416666687,154.77455934375
3,note_on,50,D3,0.8031496062992126,0.13530934375000925,154.78100264583333
3,note_on,62,D4,0.9448818897637795,0.6250003020833219,154.92919859375002
3,note_on,55,G3,0.889763779527559,0.4896909583333411,154.94208519791667
3,note_on,54,F#3,1,0.6701034166666489,156.43048797916668
3,note_on,61,C#4,0.49606299212598426,0.0386598124999864,156.45626118750002
3,note_on,62,D4,0.7637795275590551,0.3672682187499845,156.50136430208335
3,note_on,61,C#4,0.5669291338582677,0.06443302083332014,157.0683748854167
3,note_on,56,G#3,0.8031496062992126,0.9664953125000011,157.11347800000001
3,note_on,62,D4,0.7637795275590551,0.9793819166666822,157.13280790625
3,note_on,61,C#4,0.889763779527559,0.03221651041664586,158.97559230208336
3,note_on,62,D4,0.8031496062992126,0.3092785000000049,159.0078088125
3,note_on,62,D4,0.9448818897637795,0.11597943750001605,159.42662344791665
3,note_on,62,D4,0.889763779527559,0.08376292708331334,160.03873714583335
3,note_on,62,D4,0.9448818897637795,0.315721802083317,160.21270630208335
3,note_on,62,D4,0.9448818897637795,0.11597943749998763,160.65729414583336
3,note_on,62,D4,0.9448818897637795,0.07731962500000122,161.43693369791666
3,note_on,62,D4,0.889763779527559,0.07087632291666068,161.59801625
3,note_on,62,D4,1,0.08376292708331334,161.89440814583335
3,note_on,62,D4,0.7637795275590551,0.09020622916665388,166.55291555208336
3,note_on,59,B3,0.889763779527559,0.1095361354166755,166.55935885416667
3,note_on,60,C4,0.8031496062992126,0.13530934375000925,166.84286414583335
3,note_on,64,E4,0.9448818897637795,0.1288660416666687,166.85575075
3,note_on,66,F#4,0.889763779527559,0.5090208645833343,166.99106009375
3,note_on,62,D4,0.9448818897637795,0.521907468749987,167.00394669791666
3,note_on,64,E4,0.8031496062992126,0.1417526458333498,167.79647285416667
3,note_on,59,B3,0.7244094488188977,0.14819594791669033,167.95111210416667
3,note_on,62,D4,0.889763779527559,0.19329906249998885,168.09286475000002
3,note_on,64,E4,0.889763779527559,0.15463925000000245,168.41502985416665
3,note_on,59,B3,0.6929133858267716,0.1804124583333362,168.57611240625002
3,note_on,62,D4,0.889763779527559,0.1675258541666551,168.71786505208334
3,note_on,64,E4,0.889763779527559,0.1481959479166619,169.02714355208334
3,note_on,59,B3,0.8031496062992126,0.13530934375000925,169.20111270833334
3,note_on,65,F4,0.9448818897637795,0.07731962500000122,169.34930865625
3,note_on,64,E4,1,0.4445878437499857,169.65214385416667
3,note_on,66,F#4,0.889763779527559,0.03865981250001482,172.59028960416666
3,note_on,55,G3,0.9448818897637795,0.41237133333331144,172.62250611458336
3,note_on,67,G4,0.889763779527559,0.39304142708334666,172.62894941666667
3,note_on,60,C4,1,0.07087632291666068,173.06065065625
3,note_on,48,C3,0.9448818897637795,0.10309283333336339,173.0799805625
3,note_on,60,C4,1,1.0309283333333497,173.36348585416667
3,note_on,48,C3,0.9448818897637795,1.0309283333333212,173.37637245833335
3,note_on,59,B3,0.8031496062992126,0.11597943749998763,180.01297360416666
3,note_on,62,D4,0.8031496062992126,0.161082552083343,180.01297360416666
3,note_on,60,C4,0.9448818897637795,0.0708763229166891,180.16761285416666
3,note_on,64,E4,0.9448818897637795,0.07087632291666068,180.17405615625
3,note_on,66,F#4,1,0.0579897187499796,180.45756144791667
3,note_on,62,D4,0.9448818897637795,0.057989718750008024,180.47689135416667
3,note_on,67,G4,0.889763779527559,0.08376292708334176,180.76683994791665
3,note_on,64,E4,0.889763779527559,0.06443302083334856,180.79261315625
3,note_on,69,A4,0.9448818897637795,0.08376292708334176,181.07611844791666
3,note_on,66,F#4,1,0.06443302083334856,181.08256175
3,note_on,71,B4,0.889763779527559,0.0902062291666823,181.21142779166667
3,note_on,67,G4,0.9448818897637795,0.0708763229166891,181.23075769791666
3,note_on,72,C5,0.9448818897637795,0.07731962500000122,181.37895364583335
3,note_on,69,A4,0.9448818897637795,0.07087632291663226,181.41761345833336
3,note_on,74,D5,1,0.2899485937499833,181.69467544791667
3,note_on,71,B4,0.9448818897637795,0.31572180208334544,181.70111875
3,note_on,72,C5,0.41732283464566927,0.07087632291663226,181.97818073958337
3,note_on,69,A4,0.44881889763779526,0.06443302083334856,182.00395394791667
3,note_on,71,B4,0.4015748031496063,0.12242273958335659,182.02972715625
3,note_on,67,G4,0.47244094488188976,0.08376292708334176,182.0490570625
3,note_on,65,F4,0.36220472440944884,0.057989718750008024,182.11993338541666
3,note_on,69,A4,0.28346456692913385,0.045103114583355364,182.13926329166665
3,note_on,64,E4,0.5118110236220472,0.02577320833333374,182.17792310416667
3,note_on,62,D4,0.7637795275590551,0.4961342604166816,183.72431560416666
3,note_on,59,B3,0.889763779527559,0.4961342604166816,183.72431560416666
3,note_on,58,A#3,0.49606299212598426,0.12886604166664029,184.19467665625
3,note_on,61,C#4,0.6141732283464567,0.12886604166669713,184.20756326041666
3,note_on,59,B3,0.8031496062992126,0.998711822916647,184.32998600000002
3,note_on,62,D4,0.8031496062992126,0.9729386145833416,184.32998600000002
3,note_on,60,C4,0.7244094488188977,1.2757738124999776,185.54777009375002
3,note_on,57,A3,0.6929133858267716,1.275773812500006,185.55421339583336
3,note_on,64,E4,1,0.1481959479166619,187.9253485625
3,note_on,60,C4,1,0.1288660416666687,188.05421460416667
3,note_on,57,A3,0.889763779527559,0.6314436041666909,188.20885385416665
3,note_on,59,B3,1,0.12886604166664029,191.60447405208336
3,note_on,62,D4,1,0.12242273958332817,191.61091735416667
3,note_on,55,G3,0.9448818897637795,0.10953613541664708,194.07225875
3,note_on,59,B3,0.9448818897637795,0.15463925000000245,194.38153725
3,note_on,60,C4,0.9448818897637795,0.10953613541664708,194.5361765
3,note_on,62,D4,1,0.08376292708334176,194.69081575
3,note_on,64,E4,1,0.08376292708334176,195.00009425000002
3,note_on,67,G4,0.9448818897637795,0.08376292708337019,195.30937275
3,note_on,60,C4,0.7637795275590551,0.38015482291663716,197.33901290625002
3,note_on,64,E4,0.8031496062992126,0.3865981249999777,197.33901290625002
3,note_on,60,C4,0.7637795275590551,0.09020622916665388,197.78360075
3,note_on,64,E4,0.889763779527559,0.09664953124999442,197.79004405208335
3,note_on,60,C4,0.7637795275590551,0.07731962500000122,198.09287925
3,note_on,57,A3,0.6929133858267716,0.09020622916665388,198.09932255208335
3,note_on,55,G3,0.9448818897637795,0.09664953124999442,198.41504435416667
3,note_on,57,A3,0.9448818897637795,0.08376292708334176,198.72432285416667
3,note_on,54,F#3,1,0.7796395520833528,199.02071475
3,note_on,66,F#4,1,0.09664953124999442,200.25138544791668
3,note_on,62,D4,0.9448818897637795,0.08376292708331334,200.55422064583334
3,note_on,62,D4,0.9448818897637795,0.09020622916665388,200.85705584375
3,note_on,60,C4,0.9448818897637795,0.13530934375000925,201.17922094791666
3,note_on,64,E4,0.9448818897637795,1.2242273958333385,201.33386019791666
3,note_on,61,C#4,1,0.02577320833333374,232.57743200000002
3,note_on,62,D4,0.889763779527559,0.37371152083332504,232.60320520833335
3,note_on,62,D4,0.9448818897637795,0.0579897187499796,233.06067965625002
3,note_on,61,C#4,0.889763779527559,0.0579897187499796,233.46016438541668
3,note_on,62,D4,0.889763779527559,0.3479383125000197,233.51171080208334
3,note_on,62,D4,0.889763779527559,0.07731962500000122,233.96274194791667
3,note_on,61,C#4,1,0.04510311458332694,234.38155658333335
3,note_on,62,D4,0.889763779527559,0.3801548229166656,234.42665969791668
3,note_on,62,D4,0.889763779527559,0.07087632291666068,234.89702075
3,note_on,64,E4,0.889763779527559,0.09020622916665388,237.35836214583335
3,note_on,60,C4,0.889763779527559,0.07731962500000122,237.37124875
3,note_on,57,A3,0.7637795275590551,0.08376292708331334,237.68697055208335
3,note_on,60,C4,0.8031496062992126,0.07087632291666068,237.69985715625
3,note_on,64,E4,0.9448818897637795,0.08376292708334176,237.98336244791668
3,note_on,67,G4,0.889763779527559,0.06443302083332014,237.99624905208336
3,note_on,57,A3,0.8031496062992126,0.10953613541664708,238.30552755208336
3,note_on,60,C4,0.8031496062992126,0.0902062291666823,238.31197085416667
3,note_on,62,D4,0.9448818897637795,0.057989718750008024,238.62124935416665
3,note_on,66,F#4,0.889763779527559,0.06443302083329172,238.63413595833336
3,note_on,66,F#4,1,0.10953613541670393,238.93052785416666
3,note_on,62,D4,0.889763779527559,0.11597943750001605,238.93052785416666
3,note_on,60,C4,0.8031496062992126,0.15463925000000245,239.05295059375
3,note_on,64,E4,0.9448818897637795,0.0902062291666823,239.06583719791666
3,note_on,59,B3,0.889763779527559,0.07731962500000122,239.23336305208335
3,note_on,62,D4,0.889763779527559,0.08376292708334176,239.23980635416666
3,note_on,62,D4,0.9448818897637795,0.08376292708331334,239.52331164583336
3,note_on,66,F#4,1,0.07731962500000122,239.53619825
3,note_on,59,B3,0.9448818897637795,0.08376292708331334,239.83259014583336
3,note_on,62,D4,0.8031496062992126,0.0708763229166891,239.83903344791668
3,note_on,55,G3,0.7637795275590551,0.08376292708334176,240.14831194791665
3,note_on,59,B3,0.8031496062992126,0.07731962500000122,240.14831194791665
3,note_on,62,D4,0.889763779527559,0.0708763229166891,240.45759044791666
3,note_on,59,B3,0.889763779527559,0.07731962500000122,240.46403375
3,note_on,59,B3,0.8031496062992126,0.08376292708334176,240.76686894791666
3,note_on,55,G3,0.8031496062992126,0.10309283333336339,240.78619885416666
3,note_on,60,C4,0.889763779527559,0.06443302083334856,241.05681754166667
3,note_on,64,E4,0.9448818897637795,0.057989718750008024,241.07614744791667
3,note_on,60,C4,0.9448818897637795,0.0579897187499796,241.38542594791667
3,note_on,60,C4,0.8031496062992126,0.07087632291666068,241.39831255208335
3,note_on,62,D4,0.8031496062992126,0.09020622916665388,241.68826114583337
3,note_on,62,D4,0.8031496062992126,0.06443302083334856,241.71403435416667
3,note_on,64,E4,0.889763779527559,0.06443302083334856,242.00398294791665
3,note_on,64,E4,0.9448818897637795,0.0579897187499796,242.02331285416668
3,note_on,64,E4,0.889763779527559,0.09020622916665388,242.30681814583335
3,note_on,60,C4,0.889763779527559,0.07731962500000122,242.31970475
3,note_on,57,A3,0.7637795275590551,0.08376292708331334,242.63542655208335
3,note_on,60,C4,0.8031496062992126,0.07087632291666068,242.64831315625
3,note_on,64,E4,0.9448818897637795,0.08376292708334176,242.93181844791667
3,note_on,67,G4,0.889763779527559,0.06443302083332014,242.94470505208335
3,note_on,57,A3,0.8031496062992126,0.10953613541664708,243.25398355208335
3,note_on,60,C4,0.8031496062992126,0.0902062291666823,243.26042685416667
3,note_on,62,D4,0.9448818897637795,0.0579897187499796,243.56970535416667
3,note_on,66,F#4,0.889763779527559,0.06443302083332014,243.58259195833335
3,note_on,66,F#4,1,0.1095361354166755,243.87898385416668
3,note_on,62,D4,0.889763779527559,0.11597943749998763,243.87898385416668
3,note_on,60,C4,0.8031496062992126,0.15463925000000245,244.00140659375
3,note_on,64,E4,0.9448818897637795,0.09020622916671073,244.01429319791666
3,note_on,59,B3,0.889763779527559,0.07731962500000122,244.18181905208334
3,note_on,62,D4,0.889763779527559,0.08376292708337019,244.18826235416665
3,note_on,62,D4,0.9448818897637795,0.08376292708331334,244.47176764583335
3,note_on,66,F#4,1,0.07731962500000122,244.48465425
3,note_on,59,B3,0.9448818897637795,0.08376292708331334,244.78104614583336
3,note_on,62,D4,0.8031496062992126,0.0708763229166891,244.78748944791667
3,note_on,55,G3,0.7637795275590551,0.08376292708334176,245.09676794791667
3,note_on,59,B3,0.8031496062992126,0.07731962500000122,245.09676794791667
3,note_on,62,D4,0.889763779527559,0.0708763229166891,245.40604644791665
3,note_on,59,B3,0.889763779527559,0.07731962500000122,245.41248975000002
3,note_on,59,B3,0.8031496062992126,0.08376292708334176,245.71532494791666
3,note_on,55,G3,0.8031496062992126,0.10309283333333497,245.73465485416668
3,note_on,60,C4,0.889763779527559,0.06443302083334856,246.00527354166667
3,note_on,64,E4,0.9448818897637795,0.057989718750008024,246.02460344791666
3,note_on,60,C4,0.9448818897637795,0.057989718750008024,246.33388194791667
3,note_on,60,C4,0.8031496062992126,0.07087632291666068,246.34676855208335
3,note_on,62,D4,0.8031496062992126,0.09020622916665388,246.63671714583336
3,note_on,62,D4,0.8031496062992126,0.06443302083334856,246.66249035416666
3,note_on,64,E4,0.889763779527559,0.06443302083332014,246.95243894791668
3,note_on,64,E4,0.9448818897637795,0.057989718750008024,246.97176885416667
3,note_on,64,E4,0.889763779527559,0.09020622916671073,247.26171744791665
3,note_on,60,C4,0.889763779527559,0.09020622916671073,247.26171744791665
3,note_on,57,A3,0.7637795275590551,0.08376292708328492,247.58388255208337
3,note_on,60,C4,0.8031496062992126,0.07087632291663226,247.59676915625002
3,note_on,64,E4,0.9448818897637795,0.08376292708334176,247.88027444791666
3,note_on,67,G4,0.889763779527559,0.06443302083332014,247.89316105208334
3,note_on,57,A3,0.8031496062992126,0.1095361354166755,248.20243955208335
3,note_on,60,C4,0.8031496062992126,0.0902062291666823,248.20888285416666
3,note_on,62,D4,0.9448818897637795,0.057989718750008024,248.51816135416666
3,note_on,66,F#4,0.889763779527559,0.06443302083332014,248.53104795833335
3,note_on,66,F#4,1,0.1095361354166755,248.82743985416667
3,note_on,62,D4,0.889763779527559,0.11597943749998763,248.82743985416667
3,note_on,60,C4,0.8031496062992126,0.15463925000000245,248.94986259375
3,note_on,64,E4,0.9448818897637795,0.09020622916671073,248.96274919791665
3,note_on,59,B3,0.889763779527559,0.07731962500000122,249.13027505208336
3,note_on,62,D4,0.889763779527559,0.08376292708334176,249.13671835416667
3,note_on,62,D4,0.9448818897637795,0.08376292708331334,249.42022364583335
3,note_on,66,F#4,1,0.07731962500000122,249.43311025
3,note_on,59,B3,0.9448818897637795,0.08376292708331334,249.72950214583335
3,note_on,62,D4,0.8031496062992126,0.0708763229166891,249.73594544791666
3,note_on,55,G3,0.7637795275590551,0.08376292708334176,250.04522394791667
3,note_on,59,B3,0.8031496062992126,0.07731962500000122,250.04522394791667
3,note_on,62,D4,0.889763779527559,0.0708763229166891,250.35450244791667
3,note_on,59,B3,0.889763779527559,0.07731962500000122,250.36094575
3,note_on,59,B3,0.8031496062992126,0.08376292708334176,250.66378094791668
3,note_on,55,G3,0.8031496062992126,0.10309283333333497,250.68311085416667
3,note_on,60,C4,0.889763779527559,0.06443302083334856,250.95372954166666
3,note_on,64,E4,0.9448818897637795,0.057989718750008024,250.97305944791665
3,note_on,60,C4,0.9448818897637795,0.057989718750008024,251.28233794791666
3,note_on,60,C4,0.8031496062992126,0.07087632291663226,251.29522455208337
3,note_on,62,D4,0.8031496062992126,0.09020622916665388,251.58517314583335
3,note_on,62,D4,0.8031496062992126,0.06443302083334856,251.61094635416666
3,note_on,64,E4,0.889763779527559,0.06443302083334856,251.90089494791667
3,note_on,64,E4,0.9448818897637795,0.057989718750008024,251.92022485416666
3,note_on,60,C4,0.7637795275590551,0.09664953124999442,252.21661675000001
3,note_on,64,E4,0.8031496062992126,0.09664953124999442,252.21661675000001
3,note_on,57,A3,0.7637795275590551,0.08376292708331334,252.53233855208336
3,note_on,60,C4,0.8031496062992126,0.07087632291666068,252.54522515625
3,note_on,64,E4,0.9448818897637795,0.08376292708334176,252.82873044791666
3,note_on,67,G4,0.889763779527559,0.06443302083329172,252.84161705208336
3,note_on,57,A3,0.8031496062992126,0.1095361354166755,253.15089555208334
3,note_on,60,C4,0.8031496062992126,0.09020622916671073,253.15733885416665
3,note_on,62,D4,0.9448818897637795,0.057989718750008024,253.46661735416666
3,note_on,66,F#4,0.889763779527559,0.06443302083329172,253.47950395833337
3,note_on,62,D4,0.889763779527559,0.11597943749998763,253.77589585416666
3,note_on,66,F#4,1,0.10953613541670393,253.77589585416666
3,note_on,60,C4,0.8031496062992126,0.15463925000000245,253.89831859375002
3,note_on,64,E4,0.9448818897637795,0.0902062291666823,253.91120519791667
3,note_on,59,B3,0.889763779527559,0.07731962500000122,254.07873105208336
3,note_on,62,D4,0.889763779527559,0.08376292708334176,254.08517435416667
3,note_on,62,D4,0.9448818897637795,0.08376292708328492,254.36867964583337
3,note_on,66,F#4,1,0.07731962500000122,254.38156625000002
3,note_on,59,B3,0.9448818897637795,0.08376292708331334,254.67795814583334
3,note_on,62,D4,0.8031496062992126,0.0708763229166891,254.68440144791666
3,note_on,55,G3,0.7637795275590551,0.08376292708334176,254.99367994791666
3,note_on,59,B3,0.8031496062992126,0.07731962500000122,254.99367994791666
3,note_on,62,D4,0.889763779527559,0.0708763229166891,255.30295844791667
3,note_on,59,B3,0.889763779527559,0.07731962500000122,255.30940175
3,note_on,59,B3,0.8031496062992126,0.08376292708334176,255.61223694791667
3,note_on,55,G3,0.8031496062992126,0.10309283333333497,255.63156685416666
3,note_on,60,C4,0.889763779527559,0.06443302083334856,255.90218554166665
3,note_on,64,E4,0.9448818897637795,0.0579897187499796,255.92151544791668
3,note_on,60,C4,0.9448818897637795,0.057989718750036445,256.23079394791665
3,note_on,60,C4,0.8031496062992126,0.07087632291666068,256.24368055208333
3,note_on,62,D4,0.8031496062992126,0.09020622916665388,256.53362914583334
3,note_on,62,D4,0.8031496062992126,0.06443302083334856,256.55940235416665
3,note_on,64,E4,0.889763779527559,0.06443302083334856,256.84935094791666
3,note_on,64,E4,0.9448818897637795,0.057989718750036445,256.86868085416666
3,note_on,62,D4,0.7244094488188977,0.12886604166664029,257.46146464583336
3,note_on,64,E4,0.8031496062992126,0.096649531249966,257.6032172916667
3,note_on,67,G4,0.889763779527559,0.10309283333327812,257.75141323958337
3,note_on,64,E4,0.889763779527559,0.07731962500002965,258.07357834375
3,note_on,62,D4,0.6929133858267716,0.14819594791669033,258.40218675
3,note_on,64,E4,0.8031496062992126,0.10953613541664708,258.53749609375
3,note_on,67,G4,0.889763779527559,0.4574744479166952,258.68569204166664
3,note_on,64,E4,0.889763779527559,0.11597943750001605,259.15605309375
3,note_on,67,G4,0.9448818897637795,0.07087632291671753,260.09677519791666
3,note_on,67,G4,0.8031496062992126,0.07731962500002965,260.25141444791666
3,note_on,67,G4,0.889763779527559,0.07087632291666068,260.53491973958336
3,note_on,67,G4,0.889763779527559,0.07087632291666068,260.8313116354167
3,note_on,67,G4,0.889763779527559,0.0773196249999728,261.0052807916667
3,note_on,67,G4,0.8031496062992126,0.07087632291666068,261.1599200416667
3,note_on,67,G4,1,0.06443302083334856,261.4691985416667
3,note_on,62,D4,0.7244094488188977,0.12886604166664029,262.4099206458334
3,note_on,64,E4,0.8031496062992126,0.09664953125002285,262.55167329166665
3,note_on,67,G4,0.889763779527559,0.10309283333333497,262.69986923958334
3,note_on,64,E4,0.889763779527559,0.0773196249999728,263.02203434375
3,note_on,62,D4,0.6929133858267716,0.14819594791663349,263.35064275
3,note_on,64,E4,0.8031496062992126,0.10953613541664708,263.48595209375003
3,note_on,67,G4,0.889763779527559,0.4574744479166952,263.63414804166666
3,note_on,64,E4,0.889763779527559,0.11597943750001605,264.10450909375
3,note_on,67,G4,0.9448818897637795,0.07087632291666068,264.72950939583336
3,note_on,67,G4,0.7637795275590551,0.06443302083329172,264.91636515625004
3,note_on,67,G4,0.8031496062992126,0.06443302083334856,265.20631375
3,note_on,67,G4,0.7244094488188977,0.0579897187499796,265.5027056458334
3,note_on,61,C#4,0.7244094488188977,0.051546416666724326,265.79909754166664
3,note_on,56,G#3,0.8031496062992126,1.2435573020833317,265.8184274479167
3,note_on,62,D4,0.7244094488188977,1.1533510729166778,265.8570872604167
3,note_on,61,C#4,1,0.025773208333362163,287.010448
3,note_on,62,D4,0.889763779527559,0.3737115208332966,287.03622120833336
3,note_on,62,D4,0.9448818897637795,0.057989718750036445,287.49369565625
3,note_on,61,C#4,0.889763779527559,0.057989718750036445,287.89318038541666
3,note_on,62,D4,0.889763779527559,0.3479383124999913,287.9447268020834
3,note_on,62,D4,0.889763779527559,0.07731962500002965,288.39575794791665
3,note_on,61,C#4,1,0.04510311458329852,288.81457258333336
3,note_on,62,D4,0.889763779527559,0.3801548229167224,288.85967569791666
3,note_on,62,D4,0.889763779527559,0.07087632291666068,289.33003675000003
3,note_on,66,F#4,0.47244094488188976,0.0386598124999864,291.8751410729167
3,note_on,62,D4,0.6377952755905512,0.10953613541670393,291.91380088541666
3,note_on,67,G4,0.7637795275590551,0.10309283333333497,291.91380088541666
3,note_on,67,G4,0.6929133858267716,0.08376292708334176,292.10709994791665
3,note_on,62,D4,0.6141732283464567,0.0773196249999728,292.11354325
3,note_on,67,G4,0.8031496062992126,0.418814635416652,292.37127533333336
3,note_on,62,D4,0.7244094488188977,0.39948472916660194,292.38416193750004
4,note_on,31,G1,0.7637795275590551,0.3737115208333335,2.474228
4,note_on,38,D2,1,0.34793831249999974,2.9381457500000003
4,note_on,38,D2,0.9448818897637795,0.20618566666666638,3.4020635
4,note_on,33,A1,0.7244094488188977,0.03865981250000017,3.711342
4,note_on,31,G1,0.8031496062992126,0.34149501041666674,3.711342
4,note_on,38,D2,1,0.3479383125000002,4.17525975
4,note_on,38,D2,0.9448818897637795,0.16752585416666577,4.639177500000001
4,note_on,40,E2,0.9448818897637795,0.3221651041666673,4.948456
4,note_on,35,B1,0.8031496062992126,0.28994859375000015,5.41237375
4,note_on,35,B1,0.9448818897637795,0.2126289687499998,5.876291500000001
4,note_on,40,E2,0.9448818897637795,0.36082491666666705,6.18557
4,note_on,35,B1,0.889763779527559,0.3350517083333324,6.6494877500000005
4,note_on,35,B1,0.889763779527559,0.19974236458333294,7.113405500000001
4,note_on,33,A1,0.8031496062992126,0.38015482291666736,7.422684
4,note_on,40,E2,0.9448818897637795,0.45103114583333337,7.8866017500000005
4,note_on,47,B2,0.9448818897637795,0.16108255208333233,8.3505195
4,note_on,33,A1,0.8031496062992126,0.4252579374999996,8.659798
4,note_on,40,E2,0.9448818897637795,0.30927849999999957,9.12371575
4,note_on,40,E2,0.9448818897637795,0.18685576041666607,9.5876335
4,note_on,38,D2,0.9448818897637795,0.32216510416666644,9.896912
4,note_on,38,D2,0.9448818897637795,0.12886604166666515,10.36082975
4,note_on,38,D2,1,0.09664953124999975,10.67010825
4,note_on,36,C2,0.8031496062992126,0.12886604166666515,10.8247475
4,note_on,33,A1,0.8031496062992126,0.12242273958333527,10.97938675
4,note_on,40,E2,0.9448818897637795,0.09664953124999975,11.288665250000001
4,note_on,38,D2,0.9448818897637795,0.8634024791666661,11.4433045
4,note_on,31,G1,0.889763779527559,0.3286084062499999,12.37114
4,note_on,38,D2,0.889763779527559,0.2963918958333345,12.83505775
4,note_on,38,D2,0.9448818897637795,0.2255155729166649,13.298975500000001
4,note_on,31,G1,0.7244094488188977,0.3286084062499999,13.608254
4,note_on,38,D2,0.9448818897637795,0.30283519791666613,14.07217175
4,note_on,38,D2,0.9448818897637795,0.1739691562499992,14.536089500000001
4,note_on,40,E2,0.9448818897637795,0.3157218020833348,14.845368
4,note_on,35,B1,0.8031496062992126,0.23195887500000012,15.30928575
4,note_on,35,B1,0.8031496062992126,0.19974236458333294,15.773203500000001
4,note_on,40,E2,0.889763779527559,0.34793831250000196,16.082482
4,note_on,35,B1,0.889763779527559,0.28994859375000104,16.54639975
4,note_on,35,B1,0.8031496062992126,0.17396915625000275,17.0103175
4,note_on,33,A1,0.8031496062992126,0.3479383124999984,17.319596
4,note_on,40,E2,0.9448818897637795,0.28994859375000104,17.78351375
4,note_on,40,E2,0.9448818897637795,0.2126289687499998,18.2474315
4,note_on,33,A1,0.8031496062992126,0.3092784999999978,18.556710000000002
4,note_on,40,E2,1,0.2835052916666676,19.02062775
4,note_on,40,E2,0.9448818897637795,0.16752585416666577,19.4845455
4,note_on,38,D2,0.9448818897637795,0.28994859375000104,19.793824
4,note_on,33,A1,0.7637795275590551,0.16752585416666932,20.25774175
4,note_on,38,D2,0.889763779527559,0.0902062291666681,20.567020250000002
4,note_on,36,C2,0.8031496062992126,0.10309283333333141,20.7216595
4,note_on,33,A1,0.889763779527559,0.12242273958333172,20.87629875
4,note_on,40,E2,0.9448818897637795,0.1095361354166684,21.18557725
4,note_on,38,D2,0.9448818897637795,0.5219074687500012,21.3402165
4,note_on,33,A1,0.9448818897637795,0.07731962500000122,21.80413425
4,note_on,31,G1,0.889763779527559,1.076031447916666,22.113412750000002
4,note_on,33,A1,0.9448818897637795,0.6378869062499994,23.35052675
4,note_on,38,D2,0.889763779527559,0.43814454166667005,23.96908375
4,note_on,31,G1,0.889763779527559,0.6121136979166657,24.587640750000002
4,note_on,40,E2,0.9448818897637795,0.11597943749999828,25.20619775
4,note_on,38,D2,0.9448818897637795,0.11597943750000184,25.360837
4,note_on,28,E1,1,1.2371139999999983,25.6701155
4,note_on,33,A1,0.9448818897637795,0.23840217708333356,27.216508
4,note_on,40,E2,0.9448818897637795,0.07087632291666779,27.37114725
4,note_on,38,D2,0.9448818897637795,0.0837629270833311,27.68042575
4,note_on,40,E2,0.9448818897637795,0.0837629270833311,27.989704250000003
4,note_on,26,D1,0.8031496062992126,1.5141759895833324,28.1443435
4,note_on,31,G1,0.9448818897637795,0.1095361354166684,29.690736
4,note_on,40,E2,0.889763779527559,0.09664953125000153,29.84537525
4,note_on,38,D2,0.889763779527559,0.0902062291666681,30.15465375
4,note_on,40,E2,0.9448818897637795,0.10953613541666485,30.463932250000003
4,note_on,28,E1,0.8031496062992126,1.469072875000002,30.6185715
4,note_on,26,D1,0.7244094488188977,0.07087632291666779,30.6185715
4,note_on,33,A1,0.9448818897637795,0.1288660416666687,32.164964
4,note_on,40,E2,0.9448818897637795,0.0902062291666681,32.31960325
4,note_on,38,D2,1,0.0902062291666681,32.62888175
4,note_on,40,E2,0.9448818897637795,0.0902062291666681,32.93816025
4,note_on,26,D1,0.8031496062992126,1.4884027812500022,33.0927995
4,note_on,31,G1,1,0.08376292708333466,34.639192
4,note_on,33,A1,0.8031496062992126,0.4059280312499993,37.113420000000005
4,note_on,40,E2,0.889763779527559,0.32216510416666466,37.59022435416667
4,note_on,40,E2,1,0.20618566666666283,38.05414210416667
4,note_on,33,A1,0.8031496062992126,0.3608249166666724,38.37630720833333
4,note_on,40,E2,0.889763779527559,0.28350529166666405,38.853111562500004
4,note_on,40,E2,0.9448818897637795,0.2190722708333297,39.29125610416667
4,note_on,33,A1,0.7637795275590551,0.33505170833333864,39.60697790625
4,note_on,40,E2,1,0.23840217708333,40.06445235416667
4,note_on,40,E2,0.889763779527559,0.2190722708333297,40.502596895833335
4,note_on,33,A1,0.8031496062992126,0.3479383124999984,40.83764860416667
4,note_on,40,E2,0.889763779527559,0.3801548229166727,41.28223644791667
4,note_on,33,A1,0.889763779527559,0.21262896874999626,41.76548410416667
4,note_on,38,D2,0.9448818897637795,0.3672682187499987,42.074762604166665
4,note_on,33,A1,0.889763779527559,0.2899485937499975,42.538680354166665
4,note_on,33,A1,0.8031496062992126,0.2190722708333368,42.9897115
4,note_on,38,D2,0.9448818897637795,0.37371152083333214,43.29899
4,note_on,33,A1,0.8031496062992126,0.3994847291666588,43.762907750000004
4,note_on,38,D2,0.9448818897637795,0.22551557291666313,44.23326880208334
4,note_on,31,G1,0.7637795275590551,0.37371152083333925,44.55543390625
4,note_on,38,D2,0.9448818897637795,0.2577320833333303,45.01290835416667
4,note_on,38,D2,0.9448818897637795,0.23840217708333,45.43816629166667
4,note_on,31,G1,0.7244094488188977,0.3608249166666653,45.773218
4,note_on,38,D2,0.9448818897637795,0.2706186875000043,46.23713575
4,note_on,38,D2,0.889763779527559,0.18685576041666252,46.68172359375
4,note_on,31,G1,0.8031496062992126,0.3672682187499987,47.023218604166665
4,note_on,38,D2,0.9448818897637795,0.24484547916666344,47.49357965625
4,note_on,38,D2,0.9448818897637795,0.18685576041666963,47.931724197916665
4,note_on,31,G1,0.889763779527559,0.3286084062500052,48.26033260416666
4,note_on,38,D2,0.889763779527559,0.35438161458333184,48.71780705208334
4,note_on,31,G1,0.8031496062992126,0.19329906250000306,49.188168104166664
4,note_on,35,B1,0.7637795275590551,0.37371152083333925,49.46523009375
4,note_on,42,F#2,1,0.4188146354166662,49.935591145833335
4,note_on,35,B1,0.8031496062992126,0.1997423645833365,50.4123955
4,note_on,40,E2,0.9448818897637795,0.3672682187499987,50.70878739583334
4,note_on,35,B1,0.8031496062992126,0.386598124999999,51.18559175
4,note_on,40,E2,0.9448818897637795,0.21262896874999626,51.64306619791667
4,note_on,33,A1,0.8031496062992126,0.4252579374999996,51.94590139583334
4,note_on,40,E2,0.9448818897637795,0.30283519791667146,52.435592354166666
4,note_on,40,E2,0.889763779527559,0.23195887500000367,52.860850291666665
4,note_on,33,A1,0.889763779527559,0.1095361354166684,53.16368548958334
4,note_on,33,A1,0.7244094488188977,0.1095361354166755,53.65337644791666
4,note_on,36,C2,0.8031496062992126,0.11597943750000184,53.82090230208334
4,note_on,40,E2,0.9448818897637795,0.09664953124999442,53.96265494791667
4,note_on,45,A2,0.9448818897637795,0.12242273958332817,54.28482005208334
4,note_on,47,B2,0.9448818897637795,0.06443302083333435,54.587655250000005
4,note_on,40,E2,0.7637795275590551,0.12242273958333527,54.72296459375
4,note_on,43,G2,0.889763779527559,0.12242273958333527,54.87760384375
4,note_on,45,A2,0.9448818897637795,0.07087632291666779,55.20621225
4,note_on,33,A1,0.8031496062992126,0.13530934375000214,55.50260414583334
4,note_on,26,D1,0.9448818897637795,0.4059280312499993,56.939460510416666
4,note_on,37,C#2,0.7244094488188977,0.025773208333326636,57.35827514583334
4,note_on,38,D2,0.889763779527559,0.6507735104166699,57.384048354166666
4,note_on,26,D1,0.9448818897637795,0.39304142708333245,58.144358000000004
4,note_on,37,C#2,0.7244094488188977,0.03865981250000061,58.588945843750004
4,note_on,38,D2,0.9448818897637795,0.6121136979166764,58.621162354166664
4,note_on,31,G1,0.8031496062992126,0.41237133333333276,59.37502869791667
4,note_on,38,D2,0.9448818897637795,0.28350529166666405,59.89049286458334
4,note_on,38,D2,0.9448818897637795,0.24484547916666344,60.296420895833336
4,note_on,31,G1,0.8031496062992126,0.3801548229166585,60.60569939583334
4,note_on,38,D2,0.9448818897637795,0.34149501041666497,61.05028723958334
4,note_on,38,D2,0.9448818897637795,0.2190722708333226,61.51420498958334
4,note_on,28,E1,0.889763779527559,0.4059280312499993,61.829926791666665
4,note_on,35,B1,0.9448818897637795,0.296391895833338,62.33894765625
4,note_on,35,B1,0.9448818897637795,0.24484547916666344,62.7835355
4,note_on,28,E1,0.889763779527559,0.3672682187499987,63.105700604166664
4,note_on,35,B1,0.9448818897637795,0.3801548229166727,63.569618354166664
4,note_on,28,E1,0.889763779527559,0.15463924999998824,64.02709280208335
4,note_on,33,A1,0.889763779527559,0.34149501041666497,64.33637130208334
4,note_on,40,E2,0.9448818897637795,0.33505170833333864,64.79384575
4,note_on,40,E2,1,0.22551557291666313,65.27709340625
4,note_on,33,A1,0.889763779527559,0.31572180208334544,65.59925851041666
4,note_on,40,E2,0.9448818897637795,0.3286084062500123,66.04384635416666
4,note_on,40,E2,1,0.2190722708333368,66.50776410416667
4,note_on,33,A1,0.889763779527559,0.3479383125000055,66.82348590625
4,note_on,40,E2,1,0.2963918958333238,67.26163044791667
4,note_on,40,E2,0.9448818897637795,0.19329906250000306,67.72554819791667
4,note_on,33,A1,0.889763779527559,0.3672682187499987,68.06059990625
4,note_on,40,E2,0.9448818897637795,0.3479383125000055,68.53740426041666
4,note_on,33,A1,0.8031496062992126,0.21262896874999626,68.98843540625
4,note_on,38,D2,0.9448818897637795,0.3608249166666724,69.29127060416667
4,note_on,33,A1,0.889763779527559,0.30283519791666436,69.74874505208334
4,note_on,33,A1,0.8031496062992126,0.26417538541666374,70.19333289583334
4,note_on,38,D2,0.889763779527559,0.3286084062499981,70.54127120833334
4,note_on,33,A1,0.8031496062992126,0.3608249166666724,70.97297244791666
4,note_on,38,D2,1,0.20618566666665572,71.46910670833334
4,note_on,31,G1,0.7637795275590551,0.3608249166666724,71.78482851041667
4,note_on,38,D2,0.9448818897637795,0.28350529166667116,72.22941635416667
4,note_on,38,D2,1,0.2577320833333374,72.66756089583333
4,note_on,31,G1,0.8031496062992126,0.3672682187499987,73.00905590625
4,note_on,38,D2,1,0.07731962500000122,73.44720044791667
4,note_on,38,D2,0.9448818897637795,0.15463925000000245,73.608283
4,note_on,38,D2,1,0.2706186875000043,73.89823159375
4,note_on,31,G1,0.7637795275590551,0.3608249166666724,74.23328330208334
4,note_on,38,D2,0.9448818897637795,0.2512887812499969,74.70364435416667
4,note_on,38,D2,1,0.18685576041666252,75.13534559375
4,note_on,31,G1,0.8031496062992126,0.3994847291666588,75.463954
4,note_on,38,D2,0.889763779527559,0.34149501041666497,75.93431505208333
4,note_on,31,G1,0.7637795275590551,0.23195887500000367,76.37890289583333
4,note_on,35,B1,0.889763779527559,0.39304142708333245,76.70751130208333
4,note_on,42,F#2,0.889763779527559,0.3479383125000055,77.15209914583333
4,note_on,35,B1,0.8031496062992126,0.2512887812499969,77.60313029166667
4,note_on,40,E2,1,0.3801548229166798,77.95106860416666
4,note_on,35,B1,0.8031496062992126,0.41237133333332565,78.40854305208335
4,note_on,40,E2,0.9448818897637795,0.2384021770833442,78.87890410416666
4,note_on,33,A1,0.7244094488188977,0.41237133333333986,79.19462590625
4,note_on,40,E2,0.9448818897637795,0.3157218020833312,79.67143026041667
4,note_on,40,E2,0.889763779527559,0.2190722708333368,80.11601810416667
4,note_on,33,A1,0.7244094488188977,0.3672682187499987,80.44462651041668
4,note_on,40,E2,0.889763779527559,0.26417538541666374,80.89565765625001
4,note_on,40,E2,0.889763779527559,0.21262896874999626,81.34668880208334
4,note_on,33,A1,0.8031496062992126,0.39304142708331824,81.66885390625
4,note_on,40,E2,0.889763779527559,0.22551557291667734,82.13921495833333
4,note_on,40,E2,0.9448818897637795,0.20618566666666993,82.5773595
4,note_on,33,A1,0.889763779527559,0.3672682187499987,82.88019469791668
4,note_on,40,E2,0.889763779527559,0.24484547916667054,83.33122584375
4,note_on,40,E2,0.889763779527559,0.09664953125000864,83.83380340625
4,note_on,26,D1,0.889763779527559,0.7474230416666643,84.13019530208334
4,note_on,33,A1,0.889763779527559,0.09664953124999442,84.89694825000001
4,note_on,40,E2,0.9448818897637795,0.1095361354166755,85.18689684375
4,note_on,26,D1,0.889763779527559,0.7345364374999974,85.34797939583333
4,note_on,33,A1,0.9448818897637795,0.08376292708332755,86.1727220625
4,note_on,38,D2,0.7637795275590551,0.0902062291666681,86.44334075
4,note_on,31,G1,0.6141732283464567,0.4059280312499993,86.59153669791668
4,note_on,33,A1,0.6141732283464567,0.03865981250000061,86.59798
4,note_on,38,D2,0.9448818897637795,0.26417538541664953,87.07478435416668
4,note_on,38,D2,1,0.2384021770833442,87.51292889583333
4,note_on,31,G1,0.8031496062992126,0.4188146354166662,87.82865069791667
4,note_on,38,D2,0.9448818897637795,0.26417538541667795,88.31834165625
4,note_on,38,D2,1,0.21262896874999626,88.77581610416668
4,note_on,31,G1,0.889763779527559,0.4381445416666594,89.09798120833334
4,note_on,38,D2,1,0.1481959479166477,89.58767216666668
4,note_on,26,D1,0.6377952755905512,0.1675258541666551,89.87762076041668
4,note_on,29,F1,0.9448818897637795,0.12242273958332817,90.17401265625
4,note_on,28,E1,1,0.6894333229166563,90.47684785416668
4,note_on,33,A1,0.889763779527559,0.399484729166673,91.546436
4,note_on,40,E2,1,0.3479383124999913,92.00391044791668
4,note_on,40,E2,0.9448818897637795,0.24484547916665633,92.48715810416668
4,note_on,33,A1,0.889763779527559,0.3286084062500123,92.80932320833332
4,note_on,40,E2,1,0.32216510416667177,93.24746775
4,note_on,40,E2,0.9448818897637795,0.24484547916665633,93.70494219791668
4,note_on,33,A1,0.889763779527559,0.39304142708331824,94.02066400000001
4,note_on,40,E2,0.9448818897637795,0.2963918958333238,94.51679826041668
4,note_on,40,E2,0.889763779527559,0.2577320833333232,94.96138610416668
4,note_on,33,A1,0.7637795275590551,0.3672682187499987,95.28999451041668
4,note_on,40,E2,1,0.3608249166666724,95.72169575000001
4,note_on,33,A1,0.8031496062992126,0.26417538541664953,96.17917019791668
4,note_on,38,D2,0.889763779527559,0.39948472916664457,96.48844869791668
4,note_on,33,A1,0.889763779527559,0.2899485937499975,96.96525305208333
4,note_on,33,A1,0.889763779527559,0.2512887812500111,97.40984089583333
4,note_on,38,D2,0.9448818897637795,0.3672682187499987,97.72556269791667
4,note_on,33,A1,0.889763779527559,0.4059280312499993,98.20881035416667
4,note_on,38,D2,1,0.22551557291666313,98.69205801041667
4,note_on,31,G1,0.889763779527559,0.3865981250000061,98.98844990625
4,note_on,38,D2,0.9448818897637795,0.28350529166667116,99.45236765625
4,note_on,38,D2,1,0.1997423645833294,99.89051219791668
4,note_on,31,G1,0.889763779527559,0.3286084062499981,100.21267730208334
4,note_on,38,D2,0.9448818897637795,0.24484547916665633,100.66370844791668
4,note_on,38,D2,0.9448818897637795,0.2384021770833442,101.10185298958334
4,note_on,31,G1,0.8031496062992126,0.3801548229166656,101.43046139583333
4,note_on,38,D2,0.9448818897637795,0.2512887812499969,101.90726575000001
4,note_on,38,D2,1,0.22551557291667734,102.33896698958333
4,note_on,31,G1,0.8031496062992126,0.32216510416667177,102.66113209375
4,note_on,38,D2,0.9448818897637795,0.23840217708333,103.12504984375
4,note_on,38,D2,0.9448818897637795,0.219072270833351,103.59541089583333
4,note_on,35,B1,0.889763779527559,0.4059280312499993,103.91113269791667
4,note_on,42,F#2,0.889763779527559,0.35438161458333184,104.37505044791668
4,note_on,35,B1,0.889763779527559,0.23840217708333,104.83896819791667
4,note_on,40,E2,0.889763779527559,0.39304142708334666,105.16113330208333
4,note_on,35,B1,0.7637795275590551,0.3994847291666588,105.63149435416668
4,note_on,40,E2,0.9448818897637795,0.26417538541667795,106.08896880208333
4,note_on,33,A1,0.889763779527559,0.37371152083332504,106.40469060416667
4,note_on,40,E2,0.889763779527559,0.32216510416667177,106.85572175
4,note_on,40,E2,0.9448818897637795,0.2384021770833158,107.31319619791668
4,note_on,33,A1,0.8031496062992126,0.37371152083332504,107.64180460416668
4,note_on,40,E2,0.9448818897637795,0.2963918958333238,108.09283575
4,note_on,40,E2,0.9448818897637795,0.20618566666668414,108.56319680208333
4,note_on,33,A1,0.7637795275590551,0.33505170833333864,108.87891860416667
4,note_on,40,E2,0.889763779527559,0.296391895833338,109.32350644791667
4,note_on,40,E2,0.889763779527559,0.1997423645833436,109.80031080208333
4,note_on,33,A1,0.8031496062992126,0.3479383124999913,110.10958930208334
4,note_on,40,E2,1,0.30283519791667857,110.57350705208333
4,note_on,33,A1,0.889763779527559,0.22551557291664892,111.02453819791668
4,note_on,38,D2,0.9448818897637795,0.35438161458333184,111.34026
4,note_on,33,A1,0.889763779527559,0.3286084062499981,111.79773444791668
4,note_on,26,D1,0.9448818897637795,0.16108255208331457,112.44206465625001
4,note_on,31,G1,0.9448818897637795,0.3865981249999919,113.81448800000001
4,note_on,38,D2,0.9448818897637795,0.4059280312499993,114.27840575
4,note_on,31,G1,0.9448818897637795,0.695876625000011,114.7423235
4,note_on,38,D2,0.9448818897637795,0.5541239791666612,115.51551975000001
4,note_on,31,G1,0.9448818897637795,0.0902062291666681,116.13407675
4,note_on,31,G1,1,0.12242273958332817,116.45624185416668
4,note_on,31,G1,0.9448818897637795,0.12886604166668292,116.75907705208333
4,note_on,31,G1,0.9448818897637795,0.11597943750000184,117.07479885416667
4,note_on,31,G1,0.9448818897637795,0.10309283333332075,117.38407735416668
4,note_on,31,G1,0.7637795275590551,0.37371152083332504,118.762944
4,note_on,38,D2,1,0.3479383125000055,119.22686175
4,note_on,38,D2,0.9448818897637795,0.20618566666666993,119.6907795
4,note_on,33,A1,0.7244094488188977,0.03865981250000061,120.00005800000001
4,note_on,31,G1,0.8031496062992126,0.34149501041666497,120.00005800000001
4,note_on,38,D2,1,0.3479383125000055,120.46397575
4,note_on,38,D2,0.9448818897637795,0.16752585416666932,120.92789350000001
4,note_on,40,E2,0.9448818897637795,0.32216510416667177,121.237172
4,note_on,35,B1,0.8031496062992126,0.2899485937499975,121.70108975000001
4,note_on,35,B1,0.9448818897637795,0.21262896874999626,122.1650075
4,note_on,40,E2,0.9448818897637795,0.3608249166666724,122.474286
4,note_on,35,B1,0.889763779527559,0.33505170833333864,122.93820375
4,note_on,35,B1,0.889763779527559,0.1997423645833294,123.4021215
4,note_on,33,A1,0.8031496062992126,0.3479383125000055,123.7114
4,note_on,40,E2,0.9448818897637795,0.2899485937499975,124.17531775
4,note_on,40,E2,0.9448818897637795,0.21262896875001047,124.6392355
4,note_on,33,A1,0.8031496062992126,0.3092785000000049,124.948514
4,note_on,40,E2,1,0.28350529166667116,125.41243175000001
4,note_on,40,E2,0.9448818897637795,0.16752585416666932,125.8763495
4,note_on,38,D2,0.9448818897637795,0.2899485937499975,126.18562800000001
4,note_on,33,A1,0.7637795275590551,0.16752585416666932,126.64954575
4,note_on,38,D2,0.889763779527559,0.0902062291666681,126.95882425
4,note_on,36,C2,0.8031496062992126,0.10309283333332075,127.11346350000001
4,note_on,33,A1,0.889763779527559,0.12242273958331396,127.26810275000001
4,note_on,40,E2,0.9448818897637795,0.1095361354166755,127.57738125
4,note_on,38,D2,0.9448818897637795,0.521907468749987,127.7320205
4,note_on,33,A1,0.9448818897637795,0.07731962500000122,128.19593825
4,note_on,31,G1,0.889763779527559,1.0760314479166482,128.50521675000002
4,note_on,33,A1,0.9448818897637795,0.637886906250003,129.74233075
4,note_on,38,D2,0.889763779527559,0.4381445416666736,130.36088775000002
4,note_on,31,G1,0.889763779527559,0.6121136979166693,130.97944475
4,note_on,40,E2,0.9448818897637795,0.11597943749998763,131.59800175
4,note_on,38,D2,0.9448818897637795,0.11597943749998763,131.752641
4,note_on,28,E1,1,1.2371139999999912,132.06191950000002
4,note_on,33,A1,0.9448818897637795,0.2384021770833158,133.608312
4,note_on,40,E2,0.9448818897637795,0.07087632291666068,133.76295125000001
4,note_on,38,D2,0.9448818897637795,0.08376292708334176,134.07222975
4,note_on,40,E2,0.9448818897637795,0.08376292708334176,134.38150825
4,note_on,26,D1,0.8031496062992126,1.5141759895833218,134.5361475
4,note_on,31,G1,0.9448818897637795,0.1095361354166755,136.08254
4,note_on,40,E2,0.889763779527559,0.09664953124999442,136.23717925
4,note_on,38,D2,0.889763779527559,0.0902062291666823,136.54645775
4,note_on,40,E2,0.9448818897637795,0.1095361354166755,136.85573625
4,note_on,28,E1,0.8031496062992126,1.4690728749999948,137.0103755
4,note_on,26,D1,0.7244094488188977,0.07087632291666068,137.0103755
4,note_on,33,A1,0.9448818897637795,0.1288660416666687,138.556768
4,note_on,40,E2,0.9448818897637795,0.0902062291666823,138.71140725
4,note_on,38,D2,1,0.09020622916665388,139.02068575
4,note_on,40,E2,0.9448818897637795,0.09020622916665388,139.32996425000002
4,note_on,26,D1,0.8031496062992126,1.4884027812500165,139.4846035
4,note_on,31,G1,1,0.08376292708331334,141.03099600000002
4,note_on,33,A1,0.889763779527559,0.3414950104166792,143.51166730208334
4,note_on,40,E2,0.9448818897637795,0.33505170833333864,143.96914175
4,note_on,40,E2,1,0.22551557291666313,144.45238940625
4,note_on,33,A1,0.889763779527559,0.315721802083317,144.7745545104167
4,note_on,40,E2,0.9448818897637795,0.3286084062499981,145.21914235416668
4,note_on,40,E2,1,0.2190722708333226,145.68306010416669
4,note_on,33,A1,0.889763779527559,0.3479383124999913,145.99878190625
4,note_on,40,E2,1,0.2963918958333238,146.43692644791668
4,note_on,40,E2,0.9448818897637795,0.19329906249998885,146.90084419791668
4,note_on,33,A1,0.889763779527559,0.3672682187500129,147.23589590625
4,note_on,40,E2,0.9448818897637795,0.3479383124999913,147.71270026041668
4,note_on,33,A1,0.8031496062992126,0.21262896875001047,148.16373140625
4,note_on,38,D2,0.9448818897637795,0.3608249166666724,148.46656660416667
4,note_on,33,A1,0.889763779527559,0.30283519791666436,148.92404105208334
4,note_on,33,A1,0.8031496062992126,0.26417538541667795,149.36862889583333
4,note_on,38,D2,0.889763779527559,0.3286084062499981,149.71656720833334
4,note_on,33,A1,0.8031496062992126,0.36082491666664396,150.14826844791668
4,note_on,38,D2,1,0.20618566666666993,150.64440270833333
4,note_on,31,G1,0.7637795275590551,0.36082491666664396,150.96012451041668
4,note_on,38,D2,0.9448818897637795,0.28350529166664273,151.4047123541667
4,note_on,38,D2,1,0.2577320833333374,151.84285689583334
4,note_on,31,G1,0.8031496062992126,0.3672682187499845,152.18435190625001
4,note_on,38,D2,1,0.07731962500000122,152.6224964479167
4,note_on,38,D2,0.9448818897637795,0.15463925000000245,152.783579
4,note_on,38,D2,1,0.2706186874999901,153.07352759375001
4,note_on,31,G1,0.7637795275590551,0.3608249166666724,153.40857930208333
4,note_on,38,D2,0.9448818897637795,0.2512887812499969,153.87894035416667
4,note_on,38,D2,1,0.18685576041667673,154.31064159375
4,note_on,31,G1,0.8031496062992126,0.3994847291666872,154.63925
4,note_on,38,D2,0.889763779527559,0.3414950104166792,155.10961105208332
4,note_on,31,G1,0.7637795275590551,0.23195887500000367,155.55419889583334
4,note_on,35,B1,0.889763779527559,0.39304142708334666,155.88280730208334
4,note_on,42,F#2,0.889763779527559,0.3479383125000197,156.32739514583332
4,note_on,35,B1,0.8031496062992126,0.2512887812499969,156.77842629166668
4,note_on,40,E2,1,0.3801548229166656,157.12636460416667
4,note_on,35,B1,0.8031496062992126,0.41237133333333986,157.58383905208333
4,note_on,40,E2,0.9448818897637795,0.2384021770833158,158.05420010416668
4,note_on,33,A1,0.7244094488188977,0.41237133333333986,158.36992190625
4,note_on,40,E2,0.9448818897637795,0.31572180208334544,158.84672626041666
4,note_on,40,E2,0.889763779527559,0.2190722708333226,159.29131410416667
4,note_on,33,A1,0.7244094488188977,0.3672682187499845,159.61992251041667
4,note_on,40,E2,0.889763779527559,0.26417538541664953,160.07095365625
4,note_on,40,E2,0.889763779527559,0.21262896875001047,160.52198480208335
4,note_on,33,A1,0.8031496062992126,0.39304142708334666,160.84414990625
4,note_on,40,E2,0.889763779527559,0.2255155729166347,161.31451095833336
4,note_on,40,E2,0.9448818897637795,0.20618566666666993,161.7526555
4,note_on,33,A1,0.889763779527559,0.3672682187499845,162.05549069791667
4,note_on,40,E2,0.889763779527559,0.24484547916665633,162.50652184375
4,note_on,40,E2,0.889763779527559,0.09664953124999442,163.00909940625002
4,note_on,26,D1,0.889763779527559,0.7474230416666785,163.30549130208334
4,note_on,33,A1,0.889763779527559,0.09664953124999442,164.07224425
4,note_on,40,E2,0.9448818897637795,0.1095361354166755,164.36219284375
4,note_on,26,D1,0.889763779527559,0.7345364375000258,164.52327539583334
4,note_on,33,A1,0.9448818897637795,0.08376292708334176,165.34801806250002
4,note_on,38,D2,0.7637795275590551,0.09020622916665388,165.61863675
4,note_on,31,G1,0.6141732283464567,0.4059280312499993,165.76683269791667
4,note_on,33,A1,0.6141732283464567,0.0386598124999864,165.773276
4,note_on,38,D2,0.9448818897637795,0.26417538541667795,166.25008035416667
4,note_on,38,D2,1,0.2384021770833158,166.68822489583334
4,note_on,31,G1,0.8031496062992126,0.4188146354166804,167.00394669791666
4,note_on,38,D2,0.9448818897637795,0.26417538541664953,167.49363765625
4,note_on,38,D2,1,0.21262896874998205,167.95111210416667
4,note_on,31,G1,0.889763779527559,0.4381445416666452,168.27327720833335
4,note_on,38,D2,1,0.14819594791669033,168.76296816666667
4,note_on,26,D1,0.6377952755905512,0.16752585416671195,169.05291676041665
4,note_on,29,F1,0.9448818897637795,0.12242273958335659,169.34930865625
4,note_on,28,E1,1,0.6894333229166705,169.65214385416667
4,note_on,33,A1,0.889763779527559,0.3994847291666588,170.721732
4,note_on,40,E2,1,0.3479383124999913,171.17920644791667
4,note_on,40,E2,0.9448818897637795,0.24484547916668475,171.66245410416667
4,note_on,33,A1,0.889763779527559,0.3286084062499981,171.98461920833336
4,note_on,40,E2,1,0.32216510416665756,172.42276375
4,note_on,40,E2,0.9448818897637795,0.24484547916668475,172.88023819791667
4,note_on,33,A1,0.889763779527559,0.39304142708334666,173.19596
4,note_on,40,E2,0.9448818897637795,0.29639189583335224,173.69209426041667
4,note_on,40,E2,0.889763779527559,0.25773208333336584,174.13668210416665
4,note_on,33,A1,0.7637795275590551,0.3672682187500129,174.46529051041665
4,note_on,40,E2,1,0.36082491666664396,174.89699175
4,note_on,33,A1,0.8031496062992126,0.2641753854167064,175.35446619791665
4,note_on,38,D2,0.889763779527559,0.3994847291666872,175.66374469791666
4,note_on,33,A1,0.889763779527559,0.2899485937500117,176.14054905208334
4,note_on,33,A1,0.889763779527559,0.2512887812499969,176.58513689583336
4,note_on,38,D2,0.9448818897637795,0.3672682187499845,176.90085869791668
4,note_on,33,A1,0.889763779527559,0.4059280312499993,177.38410635416668
4,note_on,38,D2,1,0.22551557291669155,177.86735401041665
4,note_on,31,G1,0.889763779527559,0.3865981250000061,178.16374590625
4,note_on,38,D2,0.9448818897637795,0.28350529166664273,178.62766365625
4,note_on,38,D2,1,0.1997423645833578,179.06580819791665
4,note_on,31,G1,0.889763779527559,0.3286084062500265,179.38797330208334
4,note_on,38,D2,0.9448818897637795,0.24484547916668475,179.83900444791666
4,note_on,38,D2,0.9448818897637795,0.2384021770833158,180.27714898958334
4,note_on,31,G1,0.8031496062992126,0.38015482291663716,180.60575739583336
4,note_on,38,D2,0.9448818897637795,0.2512887812499969,181.08256175
4,note_on,38,D2,1,0.22551557291666313,181.51426298958336
4,note_on,31,G1,0.8031496062992126,0.32216510416665756,181.83642809375002
4,note_on,38,D2,0.9448818897637795,0.2384021770833442,182.30034584375
4,note_on,38,D2,0.9448818897637795,0.2190722708333226,182.77070689583334
4,note_on,35,B1,0.889763779527559,0.4059280312499993,183.08642869791666
4,note_on,42,F#2,0.889763779527559,0.35438161458333184,183.55034644791667
4,note_on,35,B1,0.889763779527559,0.2384021770833442,184.01426419791667
4,note_on,40,E2,0.889763779527559,0.3930414270832898,184.33642930208336
4,note_on,35,B1,0.7637795275590551,0.3994847291666872,184.80679035416665
4,note_on,40,E2,0.9448818897637795,0.26417538541664953,185.26426480208335
4,note_on,33,A1,0.889763779527559,0.37371152083335346,185.57998660416666
4,note_on,40,E2,0.889763779527559,0.32216510416665756,186.03101775000002
4,note_on,40,E2,0.9448818897637795,0.2384021770833442,186.48849219791666
4,note_on,33,A1,0.8031496062992126,0.37371152083335346,186.81710060416665
4,note_on,40,E2,0.9448818897637795,0.29639189583335224,187.26813175
4,note_on,40,E2,0.9448818897637795,0.2061856666666415,187.73849280208336
4,note_on,33,A1,0.7637795275590551,0.33505170833333864,188.05421460416667
4,note_on,40,E2,0.889763779527559,0.29639189583335224,188.49880244791666
4,note_on,40,E2,0.889763779527559,0.19974236458330097,188.97560680208335
4,note_on,33,A1,0.8031496062992126,0.3479383124999913,189.28488530208335
4,note_on,40,E2,1,0.30283519791663593,189.74880305208336
4,note_on,33,A1,0.889763779527559,0.22551557291669155,190.19983419791666
4,note_on,38,D2,0.9448818897637795,0.35438161458336026,190.515556
4,note_on,33,A1,0.889763779527559,0.3286084062499981,190.97303044791667
4,note_on,26,D1,0.9448818897637795,0.161082552083343,191.61736065625
4,note_on,31,G1,0.9448818897637795,0.3865981250000061,192.98978400000001
4,note_on,38,D2,0.9448818897637795,0.40592803125002774,193.45370175
4,note_on,31,G1,0.9448818897637795,0.695876625000011,193.9176195
4,note_on,38,D2,0.9448818897637795,0.5541239791666612,194.69081575
4,note_on,31,G1,0.9448818897637795,0.09020622916665388,195.30937275
4,note_on,31,G1,1,0.12242273958335659,195.63153785416665
4,note_on,31,G1,0.9448818897637795,0.1288660416666687,195.93437305208334
4,note_on,31,G1,0.9448818897637795,0.11597943749998763,196.25009485416666
4,note_on,31,G1,0.9448818897637795,0.10309283333333497,196.55937335416667
4,note_on,33,A1,0.889763779527559,0.43170123958333306,197.93179669791667
4,note_on,40,E2,0.9448818897637795,0.32216510416665756,198.40215775000001
4,note_on,38,D2,1,0.6507735104166557,198.8660755
4,note_on,33,A1,0.9448818897637795,0.30283519791666436,199.63927175
4,note_on,31,G1,0.9448818897637795,0.6443302083333435,200.1031895
4,note_on,38,D2,0.9448818897637795,0.32216510416665756,200.87638575
4,note_on,40,E2,1,0.6572168124999962,201.3403035
4,note_on,35,B1,0.9448818897637795,0.3092785000000049,202.11349975000002
4,note_on,40,E2,0.9448818897637795,0.1095361354166755,202.5774175
4,note_on,33,A1,0.889763779527559,0.43170123958333306,202.89313930208334
4,note_on,40,E2,0.9448818897637795,0.3672682187500129,203.3892735625
4,note_on,33,A1,0.889763779527559,0.6443302083333435,203.82741810416667
4,note_on,40,E2,1,0.08376292708337019,204.60061435416665
4,note_on,40,E2,0.9448818897637795,0.1804124583333646,204.76169690625
4,note_on,38,D2,0.9448818897637795,0.695876625000011,205.05808880208335
4,note_on,33,A1,0.889763779527559,0.08376292708334176,205.83772835416667
4,note_on,33,A1,0.7637795275590551,0.21262896875001047,206.00525420833335
4,note_on,38,D2,1,0.6250003020833219,206.27587289583334
4,note_on,33,A1,0.8031496062992126,0.3092785000000049,207.04906914583336
4,note_on,31,G1,0.889763779527559,0.6250003020833503,207.50654359375
4,note_on,38,D2,1,0.09020622916665388,208.29906975
4,note_on,38,D2,0.9448818897637795,0.219072270833351,208.46659560416666
4,note_on,31,G1,0.889763779527559,0.637886906250003,208.75654419791667
4,note_on,38,D2,0.9448818897637795,0.3286084062499981,209.54262705208336
4,note_on,40,E2,0.9448818897637795,0.637886906250003,209.99365819791666
4,note_on,35,B1,0.9448818897637795,0.3479383124999913,210.75396784375002
4,note_on,40,E2,0.9448818897637795,0.6636601145833652,211.21788559375
4,note_on,35,B1,0.9448818897637795,0.08376292708334176,212.01041175
4,note_on,33,A1,0.8031496062992126,0.08376292708334176,212.01041175
4,note_on,35,B1,0.8031496062992126,0.1804124583333362,212.19082420833334
4,note_on,33,A1,0.889763779527559,0.5670105833333139,212.48077280208335
4,note_on,40,E2,0.9448818897637795,0.3672682187500129,213.22175254166666
4,note_on,33,A1,0.8031496062992126,0.6056703958333287,213.71788680208334
4,note_on,40,E2,0.9448818897637795,0.30283519791666436,214.50396965625
4,note_on,38,D2,1,0.6185569999999814,214.94855750000002
4,note_on,33,A1,0.889763779527559,0.3865981250000061,215.71531044791666
4,note_on,38,D2,0.9448818897637795,0.6765467187499894,216.17922819791667
4,note_on,33,A1,0.889763779527559,0.3865981249999777,216.97175435416668
4,note_on,38,D2,0.9448818897637795,0.22551557291669155,217.41634219791666
4,note_on,31,G1,0.889763779527559,0.380154822916694,217.72562069791667
4,note_on,38,D2,0.9448818897637795,0.3543816145833034,218.20242505208336
4,note_on,31,G1,0.9448818897637795,0.6701034166667057,218.65345619791665
4,note_on,38,D2,0.9448818897637795,0.3865981250000061,219.45242565625
4,note_on,31,G1,0.889763779527559,0.2190722708333226,219.89057019791667
4,note_on,40,E2,0.9448818897637795,0.3930414270832898,220.21273530208336
4,note_on,35,B1,0.889763779527559,0.3479383124999913,220.67665305208337
4,note_on,40,E2,0.9448818897637795,0.7152065312500042,221.11479759375
4,note_on,35,B1,0.9448818897637795,0.09664953124999442,221.92021035416667
4,note_on,35,B1,0.8031496062992126,0.1868557604166483,222.1006228125
4,note_on,33,A1,0.889763779527559,0.6250003020832935,222.39701470833336
4,note_on,40,E2,0.9448818897637795,0.3672682187499845,223.11222123958336
4,note_on,33,A1,0.889763779527559,0.7345364375000258,223.57613898958334
4,note_on,40,E2,0.9448818897637795,0.3286084062499981,224.39443835416665
4,note_on,33,A1,0.889763779527559,0.21262896875001047,224.83258289583335
4,note_on,38,D2,0.9448818897637795,0.38015482291663716,225.14186139583336
4,note_on,33,A1,0.889763779527559,0.36082491666664396,225.62510905208336
4,note_on,38,D2,0.9448818897637795,0.6636601145833652,226.0825835
4,note_on,33,A1,0.8031496062992126,0.34149501041665076,226.85577975
4,note_on,31,G1,0.889763779527559,0.6185569999999814,227.31325419791668
4,note_on,38,D2,1,0.34149501041665076,228.05423393750002
4,note_on,31,G1,0.9448818897637795,0.6572168124999962,228.51815168750002
4,note_on,38,D2,0.9448818897637795,0.3479383125000197,229.31067784375
4,note_on,40,E2,0.9448818897637795,0.7023199270833516,229.7939255
4,note_on,35,B1,0.8031496062992126,0.08376292708331334,230.59289495833335
4,note_on,35,B1,0.7637795275590551,0.19329906250001727,230.7604208125
4,note_on,40,E2,0.889763779527559,0.637886906250003,231.05681270833335
4,note_on,35,B1,0.889763779527559,0.3865981250000061,231.79779244791666
4,note_on,40,E2,0.9448818897637795,0.15463925000000245,232.28104010416666
4,note_on,45,A2,1,0.34149501041665076,232.57743200000002
4,note_on,45,A2,1,0.07731962500000122,233.04134975
4,note_on,45,A2,1,0.3994847291666588,233.5052675
4,note_on,45,A2,1,0.11597943749998763,233.96918525
4,note_on,45,A2,1,0.35438161458333184,234.43310300000002
4,note_on,38,D2,1,0.10309283333333497,234.91635065625002
4,note_on,38,D2,0.9448818897637795,0.12242273958335659,235.20629925
4,note_on,38,D2,0.9448818897637795,0.1288660416666687,235.51557775
4,note_on,38,D2,0.9448818897637795,0.12242273958335659,235.82485625
4,note_on,38,D2,0.9448818897637795,0.12242273958332817,236.13413475000002
4,note_on,38,D2,0.889763779527559,0.12886604166664029,236.44341325000002
4,note_on,38,D2,0.9448818897637795,0.11597943750001605,236.75269175
4,note_on,38,D2,0.9448818897637795,0.1095361354166755,237.06197025
4,note_on,33,A1,0.889763779527559,0.37371152083335346,237.525888
4,note_on,40,E2,1,0.3350517083333102,237.97691914583336
4,note_on,38,D2,0.9448818897637795,0.637886906250003,238.4537235
4,note_on,33,A1,0.889763779527559,0.34149501041665076,239.21403314583335
4,note_on,31,G1,0.9448818897637795,0.6829900208333015,239.69728080208336
4,note_on,38,D2,0.9448818897637795,0.3221651041667144,240.47692035416665
4,note_on,40,E2,1,0.637886906250003,240.9279515
4,note_on,35,B1,0.889763779527559,0.3092785000000049,241.71403435416667
4,note_on,33,A1,0.889763779527559,0.6185570000000098,242.1650655
4,note_on,40,E2,0.9448818897637795,0.322165104166686,242.93181844791667
4,note_on,38,D2,1,0.6185569999999814,243.39573619791668
4,note_on,33,A1,0.889763779527559,0.31572180208334544,244.15604584375
4,note_on,31,G1,0.889763779527559,0.6829900208333584,244.65862340625
4,note_on,38,D2,0.9448818897637795,0.3350517083333102,245.39960314583337
4,note_on,40,E2,0.9448818897637795,0.6443302083333151,245.86352089583335
4,note_on,35,B1,0.889763779527559,0.31572180208334544,246.64316044791667
4,note_on,33,A1,0.889763779527559,0.5927837916666476,247.13285140625
4,note_on,40,E2,0.9448818897637795,0.33505170833333864,247.86738784375
4,note_on,38,D2,0.9448818897637795,0.6314436041666625,248.33774889583336
4,note_on,33,A1,0.889763779527559,0.37371152083332504,249.09161523958335
4,note_on,31,G1,0.889763779527559,0.6250003020833219,249.60707940625002
4,note_on,38,D2,0.9448818897637795,0.315721802083317,250.36738905208335
4,note_on,40,E2,1,0.6250003020833503,250.84419340625
4,note_on,35,B1,0.889763779527559,0.3028351979166928,251.63027626041665
4,note_on,33,A1,0.8031496062992126,0.6443302083333151,252.06842080208335
4,note_on,40,E2,0.9448818897637795,0.31572180208334544,252.81584384375
4,note_on,38,D2,0.9448818897637795,0.6443302083333435,253.27976159375
4,note_on,33,A1,0.889763779527559,0.3479383125000197,254.04651454166665
4,note_on,31,G1,0.8031496062992126,0.5670105833333423,254.55553540625002
4,note_on,38,D2,1,0.32216510416665756,255.30940175
4,note_on,40,E2,0.9448818897637795,0.6443302083332867,255.77976280208335
4,note_on,35,B1,0.889763779527559,0.3092785000000049,256.57873226041664
4,note_on,33,A1,0.889763779527559,0.6701034166666773,257.03620670833334
4,note_on,40,E2,0.9448818897637795,0.3092785000000049,257.79007305208336
4,note_on,38,D2,1,0.7216498333332879,258.2346608958334
4,note_on,33,A1,0.889763779527559,0.3479383124999913,259.0271870520834
4,note_on,40,E2,1,0.6314436041666909,259.47177489583333
4,note_on,35,B1,0.9448818897637795,0.3994847291666588,260.22564123958335
4,note_on,40,E2,1,0.5863404895833355,260.73466210416666
4,note_on,35,B1,0.889763779527559,0.3092785000000049,261.48208514583337
4,note_on,33,A1,0.8031496062992126,0.6701034166666773,261.9524461979167
4,note_on,40,E2,0.9448818897637795,0.32216510416662913,262.7385290520834
4,note_on,38,D2,0.9448818897637795,0.7087632291667205,263.18956019791665
4,note_on,33,A1,0.889763779527559,0.3801548229166656,263.98852965625
4,note_on,43,G2,0.9448818897637795,0.057989718750036445,264.742396
4,note_on,43,G2,0.9448818897637795,0.08376292708334176,264.8905919479167
4,note_on,43,G2,1,0.0773196249999728,265.1998704479167
4,note_on,43,G2,1,0.10953613541664708,265.54136545833336
4,note_on,40,E2,0.889763779527559,0.21262896874998205,265.85064395833336
4,note_on,47,B2,0.889763779527559,0.16752585416674037,266.12770594791664
4,note_on,52,E3,1,0.7796395520833244,266.3016751041667
4,note_on,45,A2,1,0.3801548229166656,267.216624
4,note_on,40,E2,0.9448818897637795,0.3672682187499845,267.65476854166667
4,note_on,33,A1,0.8031496062992126,0.6056703958333287,268.15090280208335
4,note_on,40,E2,0.9448818897637795,0.3028351979166928,268.93698565625
4,note_on,38,D2,1,0.6185570000000098,269.3815735
4,note_on,33,A1,0.889763779527559,0.38659812500003454,270.14832644791665
4,note_on,38,D2,0.9448818897637795,0.6765467187499894,270.61224419791665
4,note_on,33,A1,0.889763779527559,0.38659812500003454,271.40477035416666
4,note_on,38,D2,0.9448818897637795,0.22551557291666313,271.8493581979167
4,note_on,31,G1,0.889763779527559,0.3801548229166656,272.1586366979167
4,note_on,38,D2,0.9448818897637795,0.3543816145833034,272.63544105208337
4,note_on,31,G1,0.9448818897637795,0.6701034166666773,273.0864721979167
4,note_on,38,D2,0.9448818897637795,0.3865981249999777,273.88544165625
4,note_on,31,G1,0.889763779527559,0.219072270833351,274.32358619791665
4,note_on,40,E2,0.9448818897637795,0.39304142708334666,274.64575130208334
4,note_on,35,B1,0.889763779527559,0.3479383124999913,275.10966905208335
4,note_on,40,E2,0.9448818897637795,0.7152065312500326,275.54781359375
4,note_on,35,B1,0.9448818897637795,0.096649531249966,276.3532263541667
4,note_on,35,B1,0.8031496062992126,0.18685576041667673,276.5336388125
4,note_on,33,A1,0.889763779527559,0.6250003020833219,276.83003070833337
4,note_on,40,E2,0.9448818897637795,0.3672682187499845,277.54523723958334
4,note_on,33,A1,0.889763779527559,0.7345364375000258,278.00915498958335
4,note_on,40,E2,0.9448818897637795,0.3286084062499981,278.82745435416666
4,note_on,33,A1,0.889763779527559,0.21262896874998205,279.26559889583336
4,note_on,38,D2,0.9448818897637795,0.3801548229166656,279.57487739583337
4,note_on,33,A1,0.889763779527559,0.36082491666661554,280.05812505208337
4,note_on,38,D2,0.9448818897637795,0.6636601145833652,280.5155995
4,note_on,33,A1,0.8031496062992126,0.34149501041662234,281.28879575
4,note_on,31,G1,0.889763779527559,0.6185570000000098,281.74627019791666
4,note_on,38,D2,1,0.3414950104166792,282.4872499375
4,note_on,31,G1,0.9448818897637795,0.6572168124999962,282.9511676875
4,note_on,38,D2,0.9448818897637795,0.3479383124999913,283.74369384375
4,note_on,40,E2,0.9448818897637795,0.7023199270833516,284.2269415
4,note_on,35,B1,0.8031496062992126,0.08376292708328492,285.0259109583334
4,note_on,35,B1,0.7637795275590551,0.19329906249998885,285.1934368125
4,note_on,40,E2,0.889763779527559,0.637886906250003,285.48982870833333
4,note_on,35,B1,0.889763779527559,0.3865981249999777,286.2308084479167
4,note_on,40,E2,0.9448818897637795,0.15463925000000245,286.7140561041667
4,note_on,45,A2,1,0.3414950104166792,287.010448
4,note_on,45,A2,1,0.07731962500002965,287.47436575
4,note_on,45,A2,1,0.3994847291666588,287.9382835
4,note_on,45,A2,1,0.11597943750001605,288.40220125
4,note_on,45,A2,1,0.3543816145833034,288.866119
4,note_on,38,D2,1,0.10309283333333497,289.34936665625
4,note_on,38,D2,0.9448818897637795,0.10309283333333497,289.63931525000004
4,note_on,38,D2,0.889763779527559,0.096649531249966,289.96792365625004
4,note_on,38,D2,0.9448818897637795,0.07731962500002965,290.27720215625
4,note_on,38,D2,0.889763779527559,0.07087632291666068,290.58648065625
4,note_on,38,D2,0.9448818897637795,0.07087632291666068,290.87642925
4,note_on,38,D2,0.9448818897637795,0.07087632291666068,291.0375118020834
4,note_on,38,D2,0.9448818897637795,0.08376292708334176,291.2179242604167
4,note_on,38,D2,0.9448818897637795,0.09664953125002285,291.48209964583333
4,note_on,43,G2,0.9448818897637795,0.0579897187499796,291.958904
4,note_on,43,G2,0.889763779527559,0.07731962500002965,292.12642985416664
4,note_on,43,G2,1,0.5025775624999937,292.42282175
4,note_on,31,G1,1,0.2577320833333374,292.90606940625
6,note_on,67,G4,1,0.16108255208333344,1.37242334375
6,note_on,55,G3,1,0.16108255208333322,1.39175325
6,note_on,69,A4,1,0.07087632291666668,1.5077326875000001
6,note_on,57,A3,1,0.06443302083333347,1.5335058958333334
6,note_on,71,B4,1,0.07731962500000011,1.5592791041666667
6,note_on,59,B3,1,0.0708763229166669,1.5850523125
6,note_on,69,A4,1,0.09664953124999998,1.6172688229166667
6,note_on,57,A3,1,0.07087632291666668,1.64304203125
6,note_on,67,G4,1,0.16108255208333322,1.70103175
6,note_on,55,G3,1,0.14175264583333358,1.7074750520833333
6,note_on,71,B4,1,0.15463925,1.8298977916666668
6,note_on,59,B3,1,0.14819594791666657,1.8427843958333334
6,note_on,74,D5,1,0.1804124583333333,1.965207135416667
6,note_on,62,D4,1,0.1739691562500001,1.99098034375
6,note_on,76,E5,1,0.0966495312500002,2.1262896875
6,note_on,64,E4,1,0.09664953124999975,2.14561959375
6,note_on,78,F#5,1,0.9471654062499999,2.2809289375
6,note_on,66,F#4,1,0.9085055937499997,2.293815541666667
6,note_on,74,D5,1,0.03865981250000017,3.2216510416666666
6,note_on,62,D4,1,0.0451031145833336,3.2409809479166665
6,note_on,59,B3,1,0.07087632291666646,3.5438161458333335
6,note_on,71,B4,1,0.07731962500000034,3.5502594479166665
6,note_on,67,G4,1,0.1739691562499992,4.639177500000001
6,note_on,79,G5,1,0.15463924999999978,4.652064104166667
6,note_on,66,F#4,1,0.934278802083333,4.79381675
6,note_on,78,F#5,1,0.9407221041666665,4.800260052083334
6,note_on,62,D4,1,0.07731962500000034,5.708765645833333
6,note_on,74,D5,1,0.051546416666666595,5.728095552083333
6,note_on,59,B3,1,0.0902062291666672,6.01160084375
6,note_on,71,B4,1,0.09020622916666632,6.024487447916667
6,note_on,76,E5,1,0.1932990625000004,6.945879645833333
6,note_on,64,E4,1,0.1739691562500001,6.971652854166667
6,note_on,78,F#5,1,0.1739691562500001,7.087632291666667
6,note_on,66,F#4,1,0.10309283333333319,7.106962197916667
6,note_on,76,E5,1,0.2963918958333336,7.235828239583333
6,note_on,79,G5,1,0.27061868749999984,7.242271541666668
6,note_on,67,G4,1,0.19974236458333294,7.24871484375
6,note_on,65,F4,1,0.02577320833333374,7.255158145833334
6,note_on,79,G5,1,0.06443302083333347,7.57732325
6,note_on,67,G4,1,0.0708763229166669,7.5837665520833335
6,note_on,76,E5,1,0.07731962500000034,7.590209854166667
6,note_on,79,G5,1,0.06443302083333258,7.71263259375
6,note_on,67,G4,1,0.06443302083333258,7.725519197916667
6,note_on,76,E5,1,0.07087632291666779,7.7319625
6,note_on,79,G5,1,0.06443302083333347,7.86727184375
6,note_on,67,G4,1,0.07087632291666601,7.880158447916667
6,note_on,76,E5,1,0.06443302083333435,7.893045052083333
6,note_on,79,G5,1,0.07731962499999945,8.170107041666668
6,note_on,67,G4,1,0.10309283333333319,8.17655034375
6,note_on,76,E5,1,0.07087632291666779,8.182993645833333
6,note_on,67,G4,1,0.10953613541666662,8.79510734375
6,note_on,76,E5,1,0.08376292708333288,8.827323854166668
6,note_on,79,G5,1,0.09664953125000153,8.83376715625
6,note_on,76,E5,1,0.06443302083333435,9.284798302083333
6,note_on,67,G4,1,0.07731962499999945,9.291241604166668
6,note_on,79,G5,1,0.07087632291666779,9.29768490625
6,note_on,67,G4,1,0.07731962499999945,9.45232415625
6,note_on,79,G5,1,0.07087632291666779,9.45232415625
6,note_on,76,E5,1,0.06443302083333258,9.45232415625
6,note_on,80,G#5,1,0.5927837916666672,9.716499541666668
6,note_on,68,G#4,1,0.5670105833333334,9.768045958333333
6,note_on,81,A5,1,0.14819594791666546,10.309283333333335
6,note_on,69,A4,1,0.14175264583333025,10.328613239583335
6,note_on,71,B4,1,0.1739691562499992,11.765469604166666
6,note_on,59,B3,1,0.1804124583333344,11.77191290625
6,note_on,57,A3,1,0.025773208333331965,11.778356208333335
6,note_on,74,D5,1,0.18685576041666607,11.913665552083334
6,note_on,62,D4,1,0.18685576041666607,11.92655215625
6,note_on,76,E5,1,0.1932990624999995,12.061861500000001
6,note_on,64,E4,1,0.18685576041666785,12.074748104166666
6,note_on,65,F4,1,0.038659812499998836,12.081191406250001
6,note_on,78,F#5,1,0.947165406249999,12.229387354166667
6,note_on,66,F#4,1,0.8891756874999999,12.229387354166667
6,note_on,74,D5,1,0.03865981250000061,13.118563041666667
6,note_on,62,D4,1,0.04510311458333405,13.137892947916667
6,note_on,59,B3,1,0.07087632291666601,13.440728145833335
6,note_on,71,B4,1,0.07731962499999945,13.447171447916666
6,note_on,67,G4,1,0.1739691562499992,14.536089500000001
6,note_on,79,G5,1,0.15463925000000067,14.548976104166666
6,note_on,66,F#4,1,0.9342788020833339,14.69072875
6,note_on,78,F#5,1,0.9407221041666656,14.697172052083335
6,note_on,62,D4,1,0.07731962499999945,15.605677645833335
6,note_on,74,D5,1,0.05154641666666748,15.625007552083334
6,note_on,59,B3,1,0.09020622916666454,15.908512843750001
6,note_on,71,B4,1,0.0902062291666681,15.921399447916667
6,note_on,76,E5,1,0.1932990624999995,16.842791645833334
6,note_on,64,E4,1,0.1739691562499992,16.868564854166667
6,note_on,78,F#5,1,0.17396915625000275,16.984544291666666
6,note_on,66,F#4,1,0.10309283333333497,17.003874197916666
6,note_on,76,E5,1,0.2963918958333309,17.132740239583335
6,note_on,79,G5,1,0.2706186874999972,17.139183541666668
6,note_on,67,G4,1,0.19974236458333294,17.14562684375
6,note_on,65,F4,1,0.02577320833333019,17.152070145833335
6,note_on,79,G5,1,0.06443302083333435,17.47423525
6,note_on,67,G4,1,0.07087632291666779,17.480678552083333
6,note_on,76,E5,1,0.07731962500000122,17.487121854166666
6,note_on,79,G5,1,0.06443302083333435,17.60954459375
6,note_on,67,G4,1,0.06443302083333435,17.622431197916665
6,note_on,76,E5,1,0.07087632291666424,17.628874500000002
6,note_on,79,G5,1,0.06443302083333435,17.76418384375
6,note_on,67,G4,1,0.07087632291666779,17.777070447916667
6,note_on,76,E5,1,0.0644330208333308,17.789957052083334
6,note_on,79,G5,1,0.07731962500000122,18.067019041666665
6,note_on,67,G4,1,0.10309283333333141,18.073462343750002
6,note_on,76,E5,1,0.07087632291666424,18.079905645833335
6,note_on,67,G4,1,0.10953613541666485,18.69201934375
6,note_on,76,E5,1,0.0837629270833311,18.72423585416667
6,note_on,79,G5,1,0.09664953124999798,18.73067915625
6,note_on,76,E5,1,0.0644330208333308,19.181710302083335
6,note_on,67,G4,1,0.07731962500000122,19.188153604166665
6,note_on,79,G5,1,0.07087632291666424,19.194596906250002
6,note_on,79,G5,1,0.07087632291666424,19.34923615625
6,note_on,76,E5,1,0.06443302083333435,19.34923615625
6,note_on,67,G4,1,0.07731962500000122,19.34923615625
6,note_on,80,G#5,1,0.5927837916666654,19.613411541666668
6,note_on,68,G#4,1,0.5670105833333317,19.664957958333336
6,note_on,81,A5,1,0.148195947916669,20.206195333333334
6,note_on,69,A4,1,0.14175264583333558,20.225525239583334
6,note_on,74,D5,1,0.06443302083332725,45.006465052083335
6,note_on,71,B4,1,0.07087632291666779,45.006465052083335
6,note_on,66,F#4,1,0.08376292708334176,45.03223826041666
6,note_on,78,F#5,1,0.07087632291666068,45.0386815625
6,note_on,71,B4,1,0.3286084062499981,45.14177439583334
6,note_on,74,D5,1,0.32216510416667177,45.148217697916664
6,note_on,66,F#4,1,0.3157218020833241,45.18043420833334
6,note_on,78,F#5,1,0.3157218020833241,45.18043420833334
6,note_on,71,B4,1,0.08376292708333466,45.599248843750004
6,note_on,74,D5,1,0.08376292708332755,45.60569214583334
6,note_on,78,F#5,1,0.08376292708333466,45.631465354166664
6,note_on,66,F#4,1,0.09020622916666099,45.64435195833334
6,note_on,74,D5,1,0.05154641666666748,45.90208404166667
6,note_on,71,B4,1,0.05798971874999381,45.90208404166667
6,note_on,78,F#5,1,0.06443302083332725,45.934300552083336
6,note_on,66,F#4,1,0.07731962500000122,45.953630458333336
6,note_on,74,D5,1,0.08376292708332755,46.05027998958334
6,note_on,71,B4,1,0.07087632291666068,46.05027998958334
6,note_on,66,F#4,1,0.12242273958333527,46.056723291666664
6,note_on,78,F#5,1,0.09020622916666099,46.082496500000005
6,note_on,72,C5,1,0.19329906249999596,46.34667188541667
6,note_on,64,E4,1,0.1288660416666616,46.37244509375
6,note_on,76,E5,1,0.09664953125000153,46.378888395833336
6,note_on,74,D5,1,0.09664953125000153,46.520641041666664
6,note_on,78,F#5,1,0.10309283333333497,46.539970947916665
6,note_on,66,F#4,1,0.11597943749999473,46.546414250000005
6,note_on,62,D4,1,0.1804124583333362,47.62244569791667
6,note_on,74,D5,1,0.1095361354166613,47.63533230208334
6,note_on,76,E5,1,0.07731962500000122,47.77708494791666
6,note_on,64,E4,1,0.09664953125000153,47.78352825
6,note_on,65,F4,1,0.09020622916666099,47.78352825
6,note_on,67,G4,1,0.2899485937499975,48.08636344791667
6,note_on,79,G5,1,0.30283519791667146,48.08636344791667
6,note_on,71,B4,1,0.14175264583333558,48.12502326041667
6,note_on,74,D5,1,0.14175264583333558,48.1314665625
6,note_on,77,F5,1,0.06443302083333435,48.376312041666665
6,note_on,76,E5,1,0.0902062291666681,48.42141515625
6,note_on,74,D5,1,0.07087632291666068,48.48584817708334
6,note_on,72,C5,1,0.04510311458333405,48.55028119791667
6,note_on,66,F#4,1,0.3672682187500058,49.916261239583335
6,note_on,62,D4,1,0.3479383124999984,49.92914784375
6,note_on,74,D5,1,0.30283519791666436,49.94847775
6,note_on,78,F#5,1,0.2899485937499975,49.94847775
6,note_on,71,B4,1,0.4059280312499993,51.16626184375
6,note_on,68,G#4,1,0.35438161458333184,51.17914844791667
6,note_on,76,E5,1,0.3479383124999984,51.19847835416667
6,note_on,83,B5,1,0.3608249166666724,51.19847835416667
6,note_on,69,A4,1,0.1095361354166755,53.672706354166664
6,note_on,57,A3,1,0.09020622916666099,53.679149656250004
6,note_on,72,C5,1,0.08376292708333466,53.808015697916666
6,note_on,60,C4,1,0.07731962500000122,53.814459
6,note_on,64,E4,1,0.05798971875000092,53.96909825
6,note_on,76,E5,1,0.05798971875000092,53.96909825
6,note_on,81,A5,1,0.06443302083332725,54.26549014583334
6,note_on,69,A4,1,0.0708763229166749,54.271933447916666
6,note_on,83,B5,1,0.06443302083334146,54.561882041666664
6,note_on,71,B4,1,0.06443302083332725,54.57476864583334
6,note_on,76,E5,1,0.09020622916666099,54.71007798958334
6,note_on,64,E4,1,0.0902062291666681,54.72296459375
6,note_on,79,G5,1,0.07087632291666779,54.87116054166667
6,note_on,67,G4,1,0.08376292708333466,54.87760384375
6,note_on,81,A5,1,0.06443302083332725,55.17399573958334
6,note_on,69,A4,1,0.05798971875000092,55.18688234375
6,note_on,57,A3,1,0.13530934375000214,55.489717541666664
6,note_on,69,A4,1,0.1095361354166613,55.50260414583334
6,note_on,65,F4,1,0.09664953125000153,62.332504354166666
6,note_on,77,F5,1,0.09664953125000153,62.332504354166666
6,note_on,77,F5,1,0.0902062291666752,62.641782854166664
6,note_on,65,F4,1,0.0902062291666681,62.65466945833334
6,note_on,77,F5,1,0.07731962499999412,62.95106135416667
6,note_on,65,F4,1,0.08376292708332755,62.963947958333335
6,note_on,76,E5,1,0.740979739583338,63.241009947916666
6,note_on,64,E4,1,0.7409797395833237,63.25389655208334
6,note_on,60,C4,1,0.44458784374999993,66.21137220833334
6,note_on,72,C5,1,0.4381445416666736,66.2242588125
6,note_on,76,E5,1,0.09664953124999442,66.64951675
6,note_on,64,E4,1,0.07731962500000122,66.66240335416667
6,note_on,79,G5,1,0.05154641666666748,66.95235194791667
6,note_on,67,G4,1,0.07087632291666068,66.95879525000001
6,note_on,79,G5,1,0.07087632291666068,66.95879525000001
6,note_on,83,B5,1,0.07731962500000122,67.25518714583333
6,note_on,71,B4,1,0.07731962500000122,67.25518714583333
6,note_on,84,C6,1,0.15463925000000245,67.55157904166667
6,note_on,72,C5,1,0.16752585416666932,67.55802234375
6,note_on,81,A5,1,1.1469077708333373,67.71266159375
6,note_on,69,A4,1,1.1662376770833305,67.7319915
6,note_on,73,C#5,1,0.03865981250000061,77.31318169791666
6,note_on,61,C#4,1,0.02577320833333374,77.319625
6,note_on,62,D4,1,0.6250003020833219,77.32606830208334
6,note_on,74,D5,1,0.5992270937500024,77.35184151041666
6,note_on,75,D#5,1,0.07731962500000122,77.8995221875
6,note_on,64,E4,1,0.9600520104166606,77.94462530208334
6,note_on,74,D5,1,0.02577320833333374,77.97039851041667
6,note_on,76,E5,1,0.9342788020833268,77.97039851041667
6,note_on,69,A4,1,0.3608249166666724,79.78096639583333
6,note_on,64,E4,1,0.3672682187499987,79.78096639583333
6,note_on,74,D5,1,0.32216510416665756,79.80673960416668
6,note_on,62,D4,1,0.3157218020833312,79.81318290625
6,note_on,74,D5,1,0.0902062291666681,80.25777075
6,note_on,69,A4,1,0.0708763229166749,80.26421405208333
6,note_on,62,D4,1,0.10309283333334918,80.26421405208333
6,note_on,64,E4,1,0.08376292708332755,80.27065735416667
6,note_on,69,A4,1,0.1288660416666687,80.85699784375001
6,note_on,64,E4,1,0.13530934374999504,80.85699784375001
6,note_on,67,G4,1,0.03221651041667428,80.86344114583333
6,note_on,74,D5,1,0.07087632291666068,80.90854426041668
6,note_on,62,D4,1,0.06443302083334856,80.92143086458333
6,note_on,64,E4,1,0.08376292708332755,81.02452369791668
6,note_on,69,A4,1,0.07087632291664647,81.02452369791668
6,note_on,64,E4,1,0.42525793750000673,81.04385360416667
6,note_on,69,A4,1,0.42525793750000673,81.05029690625
6,note_on,74,D5,1,0.322165104166686,81.05674020833332
6,note_on,62,D4,1,0.3157218020833312,81.06318351041668
6,note_on,74,D5,1,0.0902062291666823,81.49488475
6,note_on,69,A4,1,0.0902062291666823,81.49488475
6,note_on,64,E4,1,0.09664953125000864,81.49488475
6,note_on,62,D4,1,0.10309283333333497,81.50132805208334
6,note_on,74,D5,1,0.0708763229166749,82.25519439583333
6,note_on,62,D4,1,0.07087632291666068,82.26163769791667
6,note_on,69,A4,1,0.07087632291666068,82.28096760416668
6,note_on,64,E4,1,0.07731962500000122,82.28096760416668
6,note_on,74,D5,1,0.07087632291666068,82.41627694791667
6,note_on,62,D4,1,0.07087632291666068,82.41627694791667
6,note_on,64,E4,1,0.07731962500000122,82.43560685416668
6,note_on,69,A4,1,0.06443302083332014,82.44205015625
6,note_on,69,A4,1,0.0902062291666681,82.73199875
6,note_on,64,E4,1,0.08376292708332755,82.73199875
6,note_on,74,D5,1,0.08376292708332755,82.73199875
6,note_on,62,D4,1,0.0902062291666681,82.74488535416667
6,note_on,64,E4,1,0.1288660416666687,88.60829025000001
6,note_on,76,E5,1,0.13530934374999504,88.60829025000001
6,note_on,71,B4,1,0.15463925000000245,88.7629295
6,note_on,59,B3,1,0.14819594791667612,88.7629295
6,note_on,74,D5,1,0.16752585416666932,88.91756875
6,note_on,62,D4,1,0.14175264583333558,88.91756875
6,note_on,64,E4,1,0.1288660416666687,89.22684725
6,note_on,76,E5,1,0.13530934374999504,89.22684725
6,note_on,71,B4,1,0.18041245833332198,89.38148650000001
6,note_on,59,B3,1,0.1997423645833294,89.38148650000001
6,note_on,74,D5,1,0.12886604166668292,89.53612575
6,note_on,62,D4,1,0.13530934375000925,89.53612575
6,note_on,76,E5,1,0.12242273958332817,89.84540425
6,note_on,64,E4,1,0.1288660416666687,89.84540425
6,note_on,59,B3,1,0.19329906250000306,90.0000435
6,note_on,71,B4,1,0.18685576041667673,90.0000435
6,note_on,57,A3,1,0.02577320833333374,90.0000435
6,note_on,65,F4,1,0.10309283333332075,90.15468275
6,note_on,77,F5,1,0.1095361354166755,90.15468275
6,note_on,72,C5,1,0.09664953124999442,90.15468275
6,note_on,69,A4,1,0.11597943750000184,90.15468275
6,note_on,74,D5,1,0.05154641666666748,90.15468275
6,note_on,71,B4,1,0.5670105833333281,90.46396125
6,note_on,68,G#4,1,0.5670105833333281,90.46396125
6,note_on,64,E4,1,0.4768043541666742,90.46396125
6,note_on,76,E5,1,0.6443302083333293,90.46396125
6,note_on,64,E4,1,0.1675258541666551,108.10572235416667
6,note_on,76,E5,1,0.1417526458333498,108.11860895833333
6,note_on,60,C4,1,0.13530934374999504,108.26036160416668
6,note_on,72,C5,1,0.13530934374999504,108.26036160416668
6,note_on,57,A3,1,0.5863404895833213,108.41500085416668
6,note_on,69,A4,1,0.6314436041666767,108.42144415625
6,note_on,64,E4,1,0.14175264583332137,109.34283635416668
6,note_on,76,E5,1,0.16108255208332878,109.34927965625
6,note_on,60,C4,1,0.14175264583333558,109.484589
6,note_on,72,C5,1,0.12886604166668292,109.49103230208333
6,note_on,57,A3,1,0.6443302083333293,109.63922825
6,note_on,69,A4,1,0.6572168124999962,109.64567155208333
6,note_on,83,B5,1,0.09664953125000864,112.43562135416667
6,note_on,71,B4,1,0.08376292708332755,112.44206465625001
6,note_on,86,D6,1,0.0902062291666681,112.44206465625001
6,note_on,74,D5,1,0.05798971874999381,112.44206465625001
6,note_on,62,D4,1,0.07731962499998701,112.44206465625001
6,note_on,79,G5,1,0.16752585416666932,116.13407675
6,note_on,71,B4,1,0.0902062291666681,116.13407675
6,note_on,74,D5,1,0.08376292708332755,116.13407675
6,note_on,67,G4,1,0.16108255208332878,116.13407675
6,note_on,67,G4,1,0.16108255208332878,117.66113934375001
6,note_on,55,G3,1,0.16108255208332878,117.68046925
6,note_on,69,A4,1,0.0708763229166749,117.7964486875
6,note_on,57,A3,1,0.06443302083333435,117.82222189583334
6,note_on,71,B4,1,0.07731962500000122,117.84799510416667
6,note_on,59,B3,1,0.0708763229166749,117.8737683125
6,note_on,69,A4,1,0.09664953124999442,117.90598482291668
6,note_on,57,A3,1,0.0708763229166749,117.93175803125
6,note_on,67,G4,1,0.16108255208332878,117.98974775
6,note_on,55,G3,1,0.1417526458333498,117.99619105208333
6,note_on,71,B4,1,0.15463925000000245,118.11861379166668
6,note_on,59,B3,1,0.14819594791667612,118.13150039583333
6,note_on,74,D5,1,0.1804124583333362,118.25392313541667
6,note_on,62,D4,1,0.17396915624999565,118.27969634375
6,note_on,76,E5,1,0.09664953125000864,118.4150056875
6,note_on,64,E4,1,0.09664953124999442,118.43433559375
6,note_on,78,F#5,1,0.9471654062500079,118.5696449375
6,note_on,66,F#4,1,0.9085055937499931,118.58253154166668
6,note_on,74,D5,1,0.03865981250000061,119.51036704166668
6,note_on,62,D4,1,0.04510311458332694,119.52969694791668
6,note_on,59,B3,1,0.0708763229166749,119.83253214583333
6,note_on,71,B4,1,0.07731962500000122,119.83897544791668
6,note_on,67,G4,1,0.17396915624999565,120.92789350000001
6,note_on,79,G5,1,0.15463925000000245,120.94078010416668
6,note_on,66,F#4,1,0.9342788020833268,121.08253275
6,note_on,78,F#5,1,0.9407221041666674,121.08897605208334
6,note_on,62,D4,1,0.07731962500000122,121.99748164583333
6,note_on,74,D5,1,0.051546416666681694,122.01681155208333
6,note_on,59,B3,1,0.0902062291666681,122.30031684375001
6,note_on,71,B4,1,0.09020622916665388,122.31320344791668
6,note_on,76,E5,1,0.19329906249998885,123.23459564583334
6,note_on,64,E4,1,0.17396915625000986,123.26036885416667
6,note_on,78,F#5,1,0.17396915625000986,123.37634829166667
6,note_on,66,F#4,1,0.10309283333332075,123.39567819791668
6,note_on,76,E5,1,0.296391895833338,123.52454423958334
6,note_on,79,G5,1,0.2706186875000043,123.53098754166668
6,note_on,67,G4,1,0.1997423645833294,123.53743084375
6,note_on,65,F4,1,0.025773208333347952,123.54387414583333
6,note_on,79,G5,1,0.06443302083333435,123.86603925
6,note_on,67,G4,1,0.0708763229166749,123.87248255208333
6,note_on,76,E5,1,0.07731962500000122,123.87892585416668
6,note_on,79,G5,1,0.06443302083332014,124.00134859375001
6,note_on,67,G4,1,0.06443302083333435,124.01423519791668
6,note_on,76,E5,1,0.0708763229166749,124.0206785
6,note_on,79,G5,1,0.06443302083332014,124.15598784375001
6,note_on,67,G4,1,0.07087632291666068,124.16887444791668
6,note_on,76,E5,1,0.06443302083334856,124.18176105208333
6,note_on,79,G5,1,0.07731962500000122,124.45882304166668
6,note_on,67,G4,1,0.10309283333333497,124.46526634375
6,note_on,76,E5,1,0.0708763229166749,124.47170964583333
6,note_on,67,G4,1,0.1095361354166755,125.08382334375
6,note_on,76,E5,1,0.08376292708332755,125.11603985416667
6,note_on,79,G5,1,0.09664953125000864,125.12248315625
6,note_on,76,E5,1,0.06443302083333435,125.57351430208334
6,note_on,67,G4,1,0.07731962500000122,125.57995760416668
6,note_on,79,G5,1,0.0708763229166749,125.58640090625
6,note_on,76,E5,1,0.06443302083332014,125.74104015625001
6,note_on,79,G5,1,0.0708763229166749,125.74104015625001
6,note_on,67,G4,1,0.07731962500000122,125.74104015625001
6,note_on,80,G#5,1,0.5927837916666618,126.00521554166667
6,note_on,68,G#4,1,0.5670105833333565,126.05676195833333
6,note_on,81,A5,1,0.14819594791667612,126.59799933333333
6,note_on,69,A4,1,0.1417526458333498,126.61732923958333
6,note_on,60,C4,1,0.44458784375001414,145.38666820833333
6,note_on,72,C5,1,0.4381445416666736,145.3995548125
6,note_on,76,E5,1,0.09664953124999442,145.82481275
6,note_on,64,E4,1,0.07731962500000122,145.8376993541667
6,note_on,79,G5,1,0.05154641666666748,146.12764794791667
6,note_on,79,G5,1,0.07087632291666068,146.13409125
6,note_on,67,G4,1,0.07087632291666068,146.13409125
6,note_on,71,B4,1,0.07731962500000122,146.43048314583334
6,note_on,83,B5,1,0.07731962500000122,146.43048314583334
6,note_on,84,C6,1,0.15463925000000245,146.7268750416667
6,note_on,72,C5,1,0.16752585416668353,146.73331834375
6,note_on,81,A5,1,1.1469077708333373,146.88795759375
6,note_on,69,A4,1,1.1662376770833305,146.9072875
6,note_on,73,C#5,1,0.03865981250001482,156.48847769791666
6,note_on,61,C#4,1,0.02577320833333374,156.494921
6,note_on,62,D4,1,0.6250003020833219,156.50136430208335
6,note_on,74,D5,1,0.5992270937499882,156.52713751041668
6,note_on,75,D#5,1,0.07731962500000122,157.0748181875
6,note_on,64,E4,1,0.960052010416689,157.11992130208333
6,note_on,76,E5,1,0.9342788020833268,157.1456945104167
6,note_on,74,D5,1,0.02577320833330532,157.1456945104167
6,note_on,69,A4,1,0.36082491666664396,158.95626239583336
6,note_on,64,E4,1,0.3672682187499845,158.95626239583336
6,note_on,74,D5,1,0.322165104166686,158.98203560416667
6,note_on,62,D4,1,0.31572180208334544,158.98847890625
6,note_on,74,D5,1,0.09020622916665388,159.43306675
6,note_on,69,A4,1,0.07087632291663226,159.43951005208336
6,note_on,62,D4,1,0.10309283333330654,159.43951005208336
6,note_on,64,E4,1,0.08376292708337019,159.44595335416665
6,note_on,69,A4,1,0.12886604166664029,160.03229384375
6,note_on,64,E4,1,0.13530934374998083,160.03229384375
6,note_on,67,G4,1,0.03221651041664586,160.03873714583335
6,note_on,74,D5,1,0.0708763229166891,160.08384026041665
6,note_on,62,D4,1,0.06443302083329172,160.09672686458336
6,note_on,69,A4,1,0.0708763229166891,160.19981969791667
6,note_on,64,E4,1,0.08376292708334176,160.19981969791667
6,note_on,64,E4,1,0.4252579374999925,160.21914960416666
6,note_on,69,A4,1,0.4252579374999925,160.22559290625
6,note_on,74,D5,1,0.32216510416665756,160.23203620833334
6,note_on,62,D4,1,0.31572180208334544,160.23847951041665
6,note_on,64,E4,1,0.09664953124999442,160.67018075000001
6,note_on,74,D5,1,0.09020622916665388,160.67018075000001
6,note_on,69,A4,1,0.09020622916665388,160.67018075000001
6,note_on,62,D4,1,0.10309283333330654,160.67662405208335
6,note_on,74,D5,1,0.07087632291666068,161.43049039583335
6,note_on,62,D4,1,0.0708763229166891,161.43693369791666
6,note_on,69,A4,1,0.0708763229166891,161.45626360416665
6,note_on,64,E4,1,0.07731962500000122,161.45626360416665
6,note_on,74,D5,1,0.0708763229166891,161.59157294791666
6,note_on,62,D4,1,0.0708763229166891,161.59157294791666
6,note_on,64,E4,1,0.07731962500000122,161.61090285416665
6,note_on,69,A4,1,0.06443302083334856,161.61734615625
6,note_on,69,A4,1,0.09020622916665388,161.90729475
6,note_on,64,E4,1,0.08376292708334176,161.90729475
6,note_on,74,D5,1,0.08376292708334176,161.90729475
6,note_on,62,D4,1,0.0902062291666823,161.92018135416666
6,note_on,64,E4,1,0.12886604166664029,167.78358625
6,note_on,76,E5,1,0.13530934374998083,167.78358625
6,note_on,71,B4,1,0.15463925000000245,167.93822550000002
6,note_on,59,B3,1,0.14819594791663349,167.93822550000002
6,note_on,74,D5,1,0.1675258541666551,168.09286475000002
6,note_on,62,D4,1,0.14175264583332137,168.09286475000002
6,note_on,64,E4,1,0.1288660416666687,168.40214325
6,note_on,76,E5,1,0.13530934375000925,168.40214325
6,note_on,59,B3,1,0.1997423645833578,168.5567825
6,note_on,71,B4,1,0.1804124583333646,168.5567825
6,note_on,62,D4,1,0.13530934375000925,168.71142175
6,note_on,74,D5,1,0.1288660416666687,168.71142175
6,note_on,76,E5,1,0.12242273958335659,169.02070025
6,note_on,64,E4,1,0.1288660416666687,169.02070025
6,note_on,71,B4,1,0.1868557604166483,169.1753395
6,note_on,57,A3,1,0.02577320833333374,169.1753395
6,note_on,59,B3,1,0.19329906249998885,169.1753395
6,note_on,72,C5,1,0.09664953124999442,169.32997875
6,note_on,77,F5,1,0.10953613541664708,169.32997875
6,note_on,65,F4,1,0.10309283333333497,169.32997875
6,note_on,74,D5,1,0.05154641666663906,169.32997875
6,note_on,69,A4,1,0.11597943749998763,169.32997875
6,note_on,68,G#4,1,0.5670105833333423,169.63925725
6,note_on,76,E5,1,0.6443302083333435,169.63925725
6,note_on,64,E4,1,0.47680435416666,169.63925725
6,note_on,71,B4,1,0.5670105833333423,169.63925725
6,note_on,64,E4,1,0.16752585416668353,187.28101835416666
6,note_on,76,E5,1,0.14175264583332137,187.29390495833334
6,note_on,60,C4,1,0.13530934375000925,187.43565760416666
6,note_on,72,C5,1,0.13530934375000925,187.43565760416666
6,note_on,57,A3,1,0.5863404895833355,187.59029685416667
6,note_on,69,A4,1,0.6314436041666625,187.59674015625
6,note_on,64,E4,1,0.1417526458333498,188.51813235416665
6,note_on,76,E5,1,0.1610825520833714,188.52457565625
6,note_on,60,C4,1,0.1417526458333498,188.659885
6,note_on,72,C5,1,0.1288660416666687,188.66632830208334
6,note_on,57,A3,1,0.6443302083333435,188.81452425
6,note_on,69,A4,1,0.6572168124999962,188.82096755208335
6,note_on,83,B5,1,0.09664953124999442,191.61091735416667
6,note_on,86,D6,1,0.09020622916665388,191.61736065625
6,note_on,71,B4,1,0.08376292708334176,191.61736065625
6,note_on,74,D5,1,0.0579897187499796,191.61736065625
6,note_on,62,D4,1,0.07731962500000122,191.61736065625
6,note_on,74,D5,1,0.08376292708337019,195.30937275
6,note_on,71,B4,1,0.09020622916665388,195.30937275
6,note_on,67,G4,1,0.1610825520833714,195.30937275
6,note_on,79,G5,1,0.1675258541666551,195.30937275
6,note_on,79,G5,1,0.39948472916663036,197.33901290625002
6,note_on,67,G4,0.9448818897637795,0.41237133333331144,197.34545620833336
6,note_on,79,G5,1,0.09020622916665388,197.82226056250002
6,note_on,67,G4,1,0.07731962500000122,197.83514716666667
6,note_on,72,C5,1,0.07087632291671753,198.14442566666665
6,note_on,60,C4,0.9448818897637795,0.07087632291671753,198.14442566666665
6,note_on,60,C4,0.9448818897637795,0.5734538854166544,198.40860105208336
6,note_on,72,C5,0.9448818897637795,0.6507735104166841,198.41504435416667
6,note_on,60,C4,0.9448818897637795,0.0902062291666823,199.36220976041668
6,note_on,72,C5,0.9448818897637795,0.0708763229166891,199.36220976041668
6,note_on,60,C4,0.889763779527559,0.11597943749998763,199.63927175
6,note_on,72,C5,0.9448818897637795,0.14175264583332137,199.66504495833334
6,note_on,60,C4,0.9448818897637795,0.06443302083334856,199.78746769791667
6,note_on,62,D4,0.9448818897637795,0.19329906249998885,199.78746769791667
6,note_on,74,D5,1,0.18685576041670515,199.80679760416666
6,note_on,64,E4,0.9448818897637795,0.09664953124999442,199.94855025
6,note_on,76,E5,1,0.09664953124999442,199.96143685416666
6,note_on,66,F#4,0.9448818897637795,0.09020622916671073,200.23205554166665
6,note_on,78,F#5,0.9448818897637795,0.07731962500000122,200.26427205208336
6,note_on,62,D4,0.9448818897637795,0.07731962500000122,200.55422064583334
6,note_on,74,D5,1,0.06443302083329172,200.57355055208336
6,note_on,62,D4,1,0.08376292708334176,200.85061254166666
6,note_on,74,D5,1,0.0902062291666823,200.86994244791666
6,note_on,60,C4,0.9448818897637795,0.14819594791669033,201.15989104166667
6,note_on,72,C5,1,0.17396915624999565,201.19855085416665
6,note_on,64,E4,1,1.1340211666666846,201.31453029166667
6,note_on,76,E5,1,1.185567583333352,201.35319010416666
6,note_on,82,A#5,1,0.03221651041664586,232.57743200000002
6,note_on,73,C#5,1,0.02577320833333374,232.57743200000002
6,note_on,74,D5,1,0.3286084062499981,232.60320520833335
6,note_on,70,A#4,0.889763779527559,0.03221651041664586,232.60320520833335
6,note_on,83,B5,0.9448818897637795,0.3608249166666724,232.60320520833335
6,note_on,71,B4,0.9448818897637795,0.39304142708334666,232.60964851041666
6,note_on,74,D5,1,0.07087632291663226,233.04779305208336
6,note_on,83,B5,0.9448818897637795,0.09664953124999442,233.07356626041667
6,note_on,71,B4,0.9448818897637795,0.10309283333333497,233.09289616666666
6,note_on,74,D5,1,0.41237133333333986,233.47949429166667
6,note_on,82,A#5,1,0.025773208333362163,233.52459740625
6,note_on,83,B5,0.9448818897637795,0.3608249166666724,233.53748401041668
6,note_on,71,B4,1,0.38015482291663716,233.54392731250002
6,note_on,74,D5,1,0.07731962500000122,234.00140176041666
6,note_on,83,B5,0.9448818897637795,0.1095361354166755,234.0078450625
6,note_on,71,B4,0.9448818897637795,0.14175264583329295,234.01428836458336
6,note_on,82,A#5,0.889763779527559,0.057989718750008024,234.41377309375
6,note_on,71,B4,1,0.39304142708334666,234.45243290625
6,note_on,74,D5,1,0.3286084062499981,234.45887620833335
6,note_on,83,B5,0.9448818897637795,0.3994847291666588,234.4717628125
6,note_on,81,A5,1,0.07731962500000122,234.88413414583334
6,note_on,74,D5,1,0.07087632291666068,234.89702075
6,note_on,69,A4,0.9448818897637795,0.12242273958335659,234.89702075
6,note_on,74,D5,0.9448818897637795,0.10309283333336339,236.43696994791665
6,note_on,62,D4,1,0.12242273958332817,236.44341325000002
6,note_on,86,D6,0.889763779527559,0.12242273958332817,236.44341325000002
6,note_on,86,D6,0.889763779527559,0.12242273958332817,236.73980514583334
6,note_on,74,D5,0.9448818897637795,0.10309283333336339,236.74624844791666
6,note_on,62,D4,0.9448818897637795,0.10309283333330654,236.75913505208337
6,note_on,86,D6,0.889763779527559,0.10953613541670393,237.05552694791666
6,note_on,74,D5,1,0.08376292708334176,237.05552694791666
6,note_on,62,D4,1,0.10309283333333497,237.06841355208334
6,note_on,62,D4,1,0.3286084062499981,248.51816135416666
6,note_on,86,D6,1,0.35438161458336026,248.52460465625
6,note_on,74,D5,1,0.3286084062499981,248.52460465625
6,note_on,64,E4,1,0.10953613541664708,248.84032645833335
6,note_on,76,E5,1,0.10953613541664708,248.8532130625
6,note_on,88,E6,0.7244094488188977,0.12242273958335659,248.86609966666666
6,note_on,86,D6,0.6141732283464567,0.15463925000000245,248.92408938541666
6,note_on,62,D4,1,0.07731962500000122,248.92408938541666
6,note_on,74,D5,1,0.08376292708331334,248.93697598958335
6,note_on,60,C4,1,0.1288660416666687,248.99496570833335
6,note_on,84,C6,0.6377952755905512,0.13530934375000925,249.0078523125
6,note_on,72,C5,1,0.12242273958332817,249.01429561458335
6,note_on,57,A3,1,0.1288660416666687,249.11094514583334
6,note_on,69,A4,1,0.14175264583332137,249.12383175000002
6,note_on,81,A5,0.889763779527559,0.10953613541664708,249.14316165625002
6,note_on,62,D4,1,0.22551557291666313,249.26558439583334
6,note_on,74,D5,1,0.20618566666669835,249.27202769791666
6,note_on,86,D6,1,0.2384021770833442,249.29780090625002
6,note_on,59,B3,0.889763779527559,0.09664953125002285,251.28878125
6,note_on,71,B4,0.9448818897637795,0.11597943750001605,251.28878125
6,note_on,62,D4,0.9448818897637795,0.08376292708334176,251.59161644791666
6,note_on,74,D5,1,0.09020622916665388,251.60450305208334
6,note_on,64,E4,1,0.07731962500000122,251.90733825
6,note_on,76,E5,0.9448818897637795,0.07731962500000122,251.92022485416666
6,note_on,71,B4,0.9448818897637795,0.23195887500000367,252.19084354166665
6,note_on,72,C5,0.7637795275590551,0.19974236458330097,252.20373014583336
6,note_on,76,E5,0.8031496062992126,0.1804124583333362,252.21017344791667
6,note_on,83,B5,1,0.19329906249998885,252.23594665625
6,note_on,69,A4,0.3858267716535433,0.07731962500000122,252.38414260416667
6,note_on,67,G4,0.5905511811023622,0.05154641666663906,252.44857562500002
6,note_on,81,A5,0.47244094488188976,0.07731962500000122,252.53233855208336
6,note_on,79,G5,0.5669291338582677,0.0902062291666823,252.57744166666666
6,note_on,77,F5,0.48031496062992124,0.09020622916665388,252.62898808333335
6,note_on,76,E5,0.5118110236220472,0.057989718750008024,252.69986440625001
6,note_on,62,D4,0.9448818897637795,0.3286084062499981,253.46661735416666
6,note_on,86,D6,0.9448818897637795,0.3608249166666724,253.47306065625
6,note_on,74,D5,1,0.3286084062499981,253.47306065625
6,note_on,64,E4,0.6377952755905512,0.1095361354166755,253.78878245833334
6,note_on,76,E5,0.7244094488188977,0.1095361354166755,253.8016690625
6,note_on,88,E6,0.7637795275590551,0.11597943749998763,253.82099896875002
6,note_on,62,D4,0.8031496062992126,0.07731962500000122,253.87254538541666
6,note_on,74,D5,0.9448818897637795,0.08376292708328492,253.88543198958337
6,note_on,86,D6,0.7244094488188977,0.07731962500000122,253.91120519791667
6,note_on,60,C4,0.7244094488188977,0.1288660416666687,253.94342170833335
6,note_on,72,C5,0.7244094488188977,0.12242273958329974,253.96275161458337
6,note_on,84,C6,0.6377952755905512,0.11597943749998763,253.96275161458337
6,note_on,57,A3,0.9448818897637795,0.12886604166664029,254.05940114583336
6,note_on,69,A4,0.8031496062992126,0.1417526458333498,254.07228775000002
6,note_on,81,A5,0.889763779527559,0.10309283333336339,254.1109475625
6,note_on,62,D4,0.9448818897637795,0.2255155729166347,254.21404039583336
6,note_on,86,D6,0.9448818897637795,0.2577320833333374,254.22048369791668
6,note_on,74,D5,1,0.20618566666666993,254.22048369791668
6,note_on,59,B3,0.889763779527559,0.096649531249966,256.23723725
6,note_on,71,B4,0.9448818897637795,0.11597943750001605,256.23723725
6,note_on,62,D4,0.9448818897637795,0.08376292708334176,256.54007244791666
6,note_on,74,D5,1,0.09020622916665388,256.55295905208334
6,note_on,64,E4,1,0.0773196249999728,256.85579425000003
6,note_on,76,E5,0.9448818897637795,0.045103114583355364,256.86868085416666
6,note_on,71,B4,0.9448818897637795,0.045103114583355364,257.1392995416667
6,note_on,72,C5,0.7637795275590551,0.04510311458329852,257.15218614583335
6,note_on,76,E5,1,0.045103114583355364,257.15862944791667
6,note_on,83,B5,1,0.04510311458329852,257.18440265625003
6,note_on,62,D4,0.7637795275590551,0.16108255208331457,257.4679079479167
6,note_on,74,D5,0.9448818897637795,0.10309283333339181,257.47435125
6,note_on,64,E4,0.889763779527559,0.10309283333327812,257.59677398958337
6,note_on,76,E5,0.9448818897637795,0.08376292708328492,257.61610389583336
6,note_on,67,G4,0.9448818897637795,0.08376292708328492,257.75141323958337
6,note_on,79,G5,0.9448818897637795,0.0773196249999728,257.7771864479167
6,note_on,64,E4,0.9448818897637795,0.06443302083334856,258.07357834375
6,note_on,76,E5,1,0.06443302083334856,258.0864649479167
6,note_on,74,D5,0.9448818897637795,0.1353093437499524,258.3957434479167
6,note_on,62,D4,0.7244094488188977,0.1610825520833714,258.40218675
6,note_on,76,E5,0.9448818897637795,0.10309283333327812,258.5439393958334
6,note_on,64,E4,0.9448818897637795,0.05154641666661064,258.5439393958334
6,note_on,83,B5,1,0.44458784375001414,258.71146525
6,note_on,71,B4,0.9448818897637795,0.4574744479166384,258.7179085520834
6,note_on,79,G5,1,0.09020622916665388,259.16249639583333
6,note_on,67,G4,1,0.09020622916665388,259.1818263020834
6,note_on,81,A5,1,0.0773196249999728,260.1032185
6,note_on,74,D5,0.8031496062992126,0.07087632291666068,260.1032185
6,note_on,69,A4,0.9448818897637795,0.07087632291666068,260.1032185
6,note_on,79,G5,0.7637795275590551,0.07087632291666068,260.10966180208334
6,note_on,74,D5,0.7637795275590551,0.07087632291666068,260.26430105208334
6,note_on,81,A5,1,0.045103114583355364,260.27074435416665
6,note_on,69,A4,0.9448818897637795,0.045103114583355364,260.27074435416665
6,note_on,79,G5,0.7244094488188977,0.0579897187499796,260.27718765625
6,note_on,81,A5,0.9448818897637795,0.096649531249966,260.5220331354167
6,note_on,69,A4,1,0.04510311458329852,260.53491973958336
6,note_on,79,G5,0.7637795275590551,0.07731962500002965,260.55424964583335
6,note_on,74,D5,0.7637795275590551,0.0579897187499796,260.56069294791666
6,note_on,79,G5,0.6377952755905512,0.06443302083334856,260.8506415416667
6,note_on,74,D5,0.7637795275590551,0.05154641666666748,260.8506415416667
6,note_on,81,A5,1,0.06443302083334856,260.85708484375
6,note_on,69,A4,0.9448818897637795,0.0579897187499796,260.86997144791667
6,note_on,81,A5,0.9448818897637795,0.07087632291666068,261.01172409375
6,note_on,69,A4,0.9448818897637795,0.07087632291666068,261.01172409375
6,note_on,74,D5,0.8031496062992126,0.07087632291666068,261.01172409375
6,note_on,79,G5,0.7637795275590551,0.0579897187499796,261.01816739583336
6,note_on,69,A4,0.9448818897637795,0.0773196249999728,261.17280664583336
6,note_on,81,A5,0.9448818897637795,0.0773196249999728,261.17280664583336
6,note_on,79,G5,0.8031496062992126,0.07087632291666068,261.18569325
6,note_on,74,D5,0.889763779527559,0.06443302083334856,261.18569325
6,note_on,74,D5,0.8031496062992126,0.0579897187499796,261.48208514583337
6,note_on,81,A5,1,0.0773196249999728,261.48208514583337
6,note_on,69,A4,1,0.09020622916665388,261.48208514583337
6,note_on,79,G5,0.8031496062992126,0.06443302083329172,261.48208514583337
6,note_on,62,D4,0.7637795275590551,0.16108255208331457,262.4163639479167
6,note_on,74,D5,0.9448818897637795,0.10309283333333497,262.42280725
6,note_on,64,E4,0.889763779527559,0.10309283333333497,262.54522998958333
6,note_on,76,E5,0.9448818897637795,0.08376292708334176,262.5645598958333
6,note_on,67,G4,0.9448818897637795,0.08376292708334176,262.69986923958334
6,note_on,79,G5,0.9448818897637795,0.07731962500002965,262.72564244791664
6,note_on,64,E4,0.9448818897637795,0.06443302083334856,263.02203434375
6,note_on,76,E5,1,0.06443302083334856,263.03492094791665
6,note_on,74,D5,0.9448818897637795,0.13530934375000925,263.34419944791665
6,note_on,62,D4,0.7244094488188977,0.16108255208331457,263.35064275
6,note_on,64,E4,0.9448818897637795,0.05154641666666748,263.49239539583334
6,note_on,76,E5,0.9448818897637795,0.10309283333333497,263.49239539583334
6,note_on,83,B5,1,0.4445878437499573,263.65992125
6,note_on,71,B4,0.9448818897637795,0.4574744479166952,263.66636455208334
6,note_on,79,G5,1,0.09020622916665388,264.11095239583335
6,note_on,67,G4,1,0.09020622916665388,264.13028230208334
6,note_on,71,B4,0.9448818897637795,0.05154641666666748,264.742396
6,note_on,74,D5,1,0.057989718750036445,264.742396
6,note_on,81,A5,0.9448818897637795,0.08376292708334176,264.742396
6,note_on,69,A4,1,0.09020622916665388,264.742396
6,note_on,74,D5,1,0.08376292708334176,264.89703525
6,note_on,71,B4,0.9448818897637795,0.0773196249999728,264.90347855208336
6,note_on,81,A5,0.9448818897637795,0.10953613541664708,264.91636515625004
6,note_on,69,A4,0.9448818897637795,0.10309283333333497,264.92280845833335
6,note_on,74,D5,1,0.08376292708334176,265.1998704479167
6,note_on,71,B4,0.9448818897637795,0.07087632291666068,265.1998704479167
6,note_on,81,A5,0.9448818897637795,0.09020622916665388,265.22564365625
6,note_on,69,A4,1,0.09664953125002285,265.22564365625
6,note_on,74,D5,1,0.09020622916665388,265.51559225
6,note_on,71,B4,1,0.07731962500002965,265.51559225
6,note_on,81,A5,1,0.08376292708334176,265.53492215625
6,note_on,72,C5,0.6929133858267716,0.025773208333362163,265.53492215625
6,note_on,69,A4,0.9448818897637795,0.09020622916665388,265.54136545833336
6,note_on,73,C#5,1,0.025773208333362163,287.010448
6,note_on,82,A#5,1,0.03221651041667428,287.010448
6,note_on,74,D5,1,0.3286084062499981,287.03622120833336
6,note_on,70,A#4,0.889763779527559,0.03221651041667428,287.03622120833336
6,note_on,83,B5,0.9448818897637795,0.3608249166666724,287.03622120833336
6,note_on,71,B4,0.9448818897637795,0.39304142708334666,287.04266451041667
6,note_on,74,D5,1,0.07087632291666068,287.4808090520834
6,note_on,83,B5,0.9448818897637795,0.096649531249966,287.5065822604167
6,note_on,71,B4,0.9448818897637795,0.10309283333333497,287.52591216666667
6,note_on,74,D5,1,0.41237133333333986,287.91251029166665
6,note_on,82,A#5,1,0.025773208333362163,287.95761340625
6,note_on,83,B5,0.9448818897637795,0.3608249166666724,287.9705000104167
6,note_on,71,B4,1,0.3801548229166656,287.9769433125
6,note_on,74,D5,1,0.0773196249999728,288.4344177604167
6,note_on,83,B5,0.9448818897637795,0.10953613541664708,288.4408610625
6,note_on,71,B4,0.9448818897637795,0.14175264583326452,288.4473043645834
6,note_on,82,A#5,0.889763779527559,0.0579897187499796,288.84678909375003
6,note_on,71,B4,1,0.39304142708334666,288.88544890625
6,note_on,74,D5,1,0.3286084062499981,288.89189220833333
6,note_on,83,B5,0.9448818897637795,0.3994847291666588,288.9047788125
6,note_on,81,A5,1,0.07731962500002965,289.31715014583335
6,note_on,69,A4,0.9448818897637795,0.12242273958332817,289.33003675000003
6,note_on,74,D5,1,0.07087632291666068,289.33003675000003
6,note_on,74,D5,1,0.0579897187499796,290.88287255208337
6,note_on,62,D4,0.9448818897637795,0.06443302083329172,290.90220245833336
6,note_on,74,D5,1,0.06443302083334856,291.0310685
6,note_on,62,D4,0.889763779527559,0.0773196249999728,291.0375118020834
6,note_on,74,D5,1,0.08376292708334176,291.20503765625
6,note_on,62,D4,0.889763779527559,0.0773196249999728,291.23081086458336
6,note_on,74,D5,1,0.14819594791663349,291.49498625
6,note_on,62,D4,0.9448818897637795,0.16752585416668353,291.51431615625
6,note_on,70,A#4,0.8031496062992126,0.05154641666661064,291.92024418750003
6,note_on,73,C#5,0.6141732283464567,0.03221651041667428,291.92668748958334
6,note_on,74,D5,0.8031496062992126,0.08376292708334176,291.95246069791665
6,note_on,71,B4,0.8031496062992126,0.07087632291666068,291.96534730208333
6,note_on,67,G4,1,0.09020622916665388,292.0040071145834
6,note_on,79,G5,1,0.07087632291666068,292.0104504166667
6,note_on,71,B4,0.5433070866141733,0.09664953125002285,292.12642985416664
6,note_on,74,D5,0.9448818897637795,0.08376292708334176,292.13287315625
6,note_on,79,G5,0.889763779527559,0.09020622916665388,292.1586463645834
6,note_on,67,G4,0.889763779527559,0.09020622916665388,292.1650896666667
6,note_on,71,B4,0.7637795275590551,0.418814635416652,292.38416193750004
6,note_on,74,D5,0.9448818897637795,0.418814635416652,292.39060523958335
6,note_on,79,G5,0.9448818897637795,0.418814635416652,292.42282175
6,note_on,67,G4,1,0.3865981249999777,292.44215165625
6,note_on,77,F5,0.5905511811023622,0.025773208333362163,292.44215165625
6,note_on,90,F#6,1,0.03221651041661744,292.83519308333337
6,note_on,91,G6,0.9448818897637795,0.3286084062499981,292.85452298958336
6,note_on,78,F#5,1,0.0386598124999864,292.89962610416666
6,note_on,67,G4,0.9448818897637795,0.19329906249998885,292.9253993125
6,note_on,79,G5,1,0.18685576041667673,292.93184261458333
7,note_on,42,F#2,1,0.06443302083333334,0
7,note_on,42,F#2,1,0.06443302083333335,0.618557
7,note_on,42,F#2,1,0.06443302083333324,1.237114
7,note_on,42,F#2,1,0.06443302083333324,1.5463925
7,note_on,42,F#2,1,0.06443302083333324,1.855671
7,note_on,42,F#2,1,0.06443302083333347,2.1649495
7,note_on,63,D#4,1,0.03221651041666629,2.474228
7,note_on,42,F#2,1,0.06443302083333347,2.474228
7,note_on,60,C4,0.6299212598425197,0.06443302083333347,2.474228
7,note_on,70,A#4,1,0.06443302083333347,2.474228
7,note_on,42,F#2,1,0.06443302083333391,2.62886725
7,note_on,60,C4,0.6299212598425197,0.06443302083333391,2.62886725
7,note_on,70,A#4,1,0.06443302083333391,2.62886725
7,note_on,62,D4,1,0.06443302083333347,2.7835065
7,note_on,70,A#4,1,0.06443302083333347,2.7835065
7,note_on,42,F#2,1,0.06443302083333347,2.7835065
7,note_on,60,C4,0.6299212598425197,0.06443302083333347,2.7835065
7,note_on,70,A#4,1,0.06443302083333347,2.9381457500000003
7,note_on,42,F#2,1,0.06443302083333347,2.9381457500000003
7,note_on,60,C4,0.6299212598425197,0.06443302083333347,2.9381457500000003
7,note_on,60,C4,0.6299212598425197,0.06443302083333347,3.092785
7,note_on,70,A#4,1,0.06443302083333347,3.092785
7,note_on,42,F#2,1,0.06443302083333347,3.092785
7,note_on,70,A#4,1,0.06443302083333391,3.24742425
7,note_on,60,C4,0.6299212598425197,0.06443302083333391,3.24742425
7,note_on,42,F#2,1,0.06443302083333391,3.24742425
7,note_on,61,C#4,0.7559055118110236,0.06443302083333347,3.4020635
7,note_on,63,D#4,1,0.06443302083333347,3.4020635
7,note_on,70,A#4,1,0.06443302083333347,3.4020635
7,note_on,42,F#2,1,0.06443302083333347,3.4020635
7,note_on,42,F#2,1,0.06443302083333347,3.5567027500000004
7,note_on,70,A#4,1,0.06443302083333347,3.5567027500000004
7,note_on,63,D#4,1,0.06443302083333347,3.5567027500000004
7,note_on,42,F#2,1,0.06443302083333347,3.711342
7,note_on,60,C4,0.6299212598425197,0.06443302083333347,3.711342
7,note_on,70,A#4,1,0.06443302083333347,3.711342
7,note_on,42,F#2,1,0.06443302083333391,3.86598125
7,note_on,60,C4,0.6299212598425197,0.06443302083333391,3.86598125
7,note_on,70,A#4,1,0.06443302083333391,3.86598125
7,note_on,60,C4,0.6299212598425197,0.06443302083333435,4.0206205
7,note_on,70,A#4,1,0.06443302083333435,4.0206205
7,note_on,62,D4,1,0.06443302083333435,4.0206205
7,note_on,42,F#2,1,0.06443302083333435,4.0206205
7,note_on,70,A#4,1,0.06443302083333347,4.17525975
7,note_on,60,C4,0.6299212598425197,0.06443302083333347,4.17525975
7,note_on,42,F#2,1,0.06443302083333347,4.17525975
7,note_on,60,C4,0.6299212598425197,0.06443302083333347,4.329899
7,note_on,42,F#2,1,0.06443302083333347,4.329899
7,note_on,70,A#4,1,0.06443302083333347,4.329899
7,note_on,70,A#4,1,0.06443302083333347,4.48453825
7,note_on,42,F#2,1,0.06443302083333347,4.48453825
7,note_on,60,C4,0.6299212598425197,0.06443302083333347,4.48453825
7,note_on,70,A#4,1,0.06443302083333347,4.639177500000001
7,note_on,42,F#2,1,0.06443302083333347,4.639177500000001
7,note_on,61,C#4,0.7559055118110236,0.06443302083333347,4.639177500000001
7,note_on,63,D#4,1,0.06443302083333347,4.639177500000001
7,note_on,42,F#2,1,0.06443302083333347,4.79381675
7,note_on,63,D#4,1,0.06443302083333347,4.79381675
7,note_on,70,A#4,1,0.06443302083333347,4.79381675
7,note_on,60,C4,0.6299212598425197,0.06443302083333258,4.948456
7,note_on,42,F#2,1,0.06443302083333258,4.948456
7,note_on,70,A#4,1,0.06443302083333258,4.948456
7,note_on,60,C4,0.6299212598425197,0.06443302083333347,5.10309525
7,note_on,70,A#4,1,0.06443302083333347,5.10309525
7,note_on,42,F#2,1,0.06443302083333347,5.10309525
7,note_on,62,D4,1,0.06443302083333347,5.2577345
7,note_on,60,C4,0.6299212598425197,0.06443302083333347,5.2577345
7,note_on,42,F#2,1,0.06443302083333347,5.2577345
7,note_on,70,A#4,1,0.06443302083333347,5.2577345
7,note_on,42,F#2,1,0.06443302083333258,5.41237375
7,note_on,70,A#4,1,0.06443302083333258,5.41237375
7,note_on,60,C4,0.6299212598425197,0.06443302083333258,5.41237375
7,note_on,70,A#4,1,0.06443302083333258,5.567013
7,note_on,60,C4,0.6299212598425197,0.06443302083333258,5.567013
7,note_on,42,F#2,1,0.06443302083333258,5.567013
7,note_on,60,C4,0.6299212598425197,0.06443302083333347,5.72165225
7,note_on,42,F#2,1,0.06443302083333347,5.72165225
7,note_on,70,A#4,1,0.06443302083333347,5.72165225
7,note_on,70,A#4,1,0.06443302083333258,5.876291500000001
7,note_on,63,D#4,1,0.06443302083333258,5.876291500000001
7,note_on,42,F#2,1,0.06443302083333258,5.876291500000001
7,note_on,61,C#4,0.7559055118110236,0.06443302083333258,5.876291500000001
7,note_on,42,F#2,1,0.06443302083333258,6.0309307500000005
7,note_on,63,D#4,1,0.06443302083333258,6.0309307500000005
7,note_on,70,A#4,1,0.06443302083333258,6.0309307500000005
7,note_on,70,A#4,1,0.06443302083333258,6.18557
7,note_on,42,F#2,1,0.06443302083333258,6.18557
7,note_on,60,C4,0.6299212598425197,0.06443302083333258,6.18557
7,note_on,60,C4,0.6299212598425197,0.06443302083333347,6.34020925
7,note_on,42,F#2,1,0.06443302083333347,6.34020925
7,note_on,70,A#4,1,0.06443302083333347,6.34020925
7,note_on,60,C4,0.6299212598425197,0.06443302083333347,6.4948485
7,note_on,42,F#2,1,0.06443302083333347,6.4948485
7,note_on,70,A#4,1,0.06443302083333347,6.4948485
7,note_on,62,D4,1,0.06443302083333347,6.4948485
7,note_on,60,C4,0.6299212598425197,0.06443302083333258,6.6494877500000005
7,note_on,70,A#4,1,0.06443302083333258,6.6494877500000005
7,note_on,42,F#2,1,0.06443302083333258,6.6494877500000005
7,note_on,60,C4,0.6299212598425197,0.06443302083333258,6.804127
7,note_on,42,F#2,1,0.06443302083333258,6.804127
7,note_on,70,A#4,1,0.06443302083333258,6.804127
7,note_on,42,F#2,1,0.06443302083333347,6.95876625
7,note_on,60,C4,0.6299212598425197,0.06443302083333347,6.95876625
7,note_on,70,A#4,1,0.06443302083333347,6.95876625
7,note_on,42,F#2,1,0.06443302083333258,7.113405500000001
7,note_on,70,A#4,1,0.06443302083333258,7.113405500000001
7,note_on,61,C#4,0.7559055118110236,0.06443302083333258,7.113405500000001
7,note_on,63,D#4,1,0.06443302083333258,7.113405500000001
7,note_on,42,F#2,1,0.06443302083333258,7.2680447500000005
7,note_on,63,D#4,1,0.06443302083333258,7.2680447500000005
7,note_on,70,A#4,1,0.06443302083333258,7.2680447500000005
7,note_on,42,F#2,1,0.06443302083333258,7.422684
7,note_on,60,C4,0.6299212598425197,0.06443302083333258,7.422684
7,note_on,70,A#4,1,0.06443302083333258,7.422684
7,note_on,70,A#4,1,0.06443302083333347,7.57732325
7,note_on,60,C4,0.6299212598425197,0.06443302083333347,7.57732325
7,note_on,42,F#2,1,0.06443302083333347,7.57732325
7,note_on,70,A#4,1,0.06443302083333347,7.7319625
7,note_on,42,F#2,1,0.06443302083333347,7.7319625
7,note_on,62,D4,1,0.06443302083333347,7.7319625
7,note_on,60,C4,0.6299212598425197,0.06443302083333347,7.7319625
7,note_on,60,C4,0.6299212598425197,0.06443302083333258,7.8866017500000005
7,note_on,42,F#2,1,0.06443302083333258,7.8866017500000005
7,note_on,70,A#4,1,0.06443302083333258,7.8866017500000005
7,note_on,60,C4,0.6299212598425197,0.06443302083333435,8.041241
7,note_on,70,A#4,1,0.06443302083333435,8.041241
7,note_on,42,F#2,1,0.06443302083333435,8.041241
7,note_on,70,A#4,1,0.06443302083333258,8.19588025
7,note_on,42,F#2,1,0.06443302083333258,8.19588025
7,note_on,60,C4,0.6299212598425197,0.06443302083333258,8.19588025
7,note_on,42,F#2,1,0.06443302083333258,8.3505195
7,note_on,61,C#4,0.7559055118110236,0.06443302083333258,8.3505195
7,note_on,70,A#4,1,0.06443302083333258,8.3505195
7,note_on,63,D#4,1,0.06443302083333258,8.3505195
7,note_on,63,D#4,1,0.06443302083333435,8.50515875
7,note_on,70,A#4,1,0.06443302083333435,8.50515875
7,note_on,42,F#2,1,0.06443302083333435,8.50515875
7,note_on,70,A#4,1,0.06443302083333258,8.659798
7,note_on,60,C4,0.6299212598425197,0.06443302083333258,8.659798
7,note_on,42,F#2,1,0.06443302083333258,8.659798
7,note_on,60,C4,0.6299212598425197,0.06443302083333258,8.814437250000001
7,note_on,42,F#2,1,0.06443302083333258,8.814437250000001
7,note_on,70,A#4,1,0.06443302083333258,8.814437250000001
7,note_on,42,F#2,1,0.06443302083333258,8.9690765
7,note_on,70,A#4,1,0.06443302083333258,8.9690765
7,note_on,60,C4,0.6299212598425197,0.06443302083333258,8.9690765
7,note_on,62,D4,1,0.06443302083333258,8.9690765
7,note_on,70,A#4,1,0.06443302083333258,9.12371575
7,note_on,42,F#2,1,0.06443302083333258,9.12371575
7,note_on,60,C4,0.6299212598425197,0.06443302083333258,9.12371575
7,note_on,42,F#2,1,0.06443302083333258,9.278355000000001
7,note_on,70,A#4,1,0.06443302083333258,9.278355000000001
7,note_on,60,C4,0.6299212598425197,0.06443302083333258,9.278355000000001
7,note_on,42,F#2,1,0.06443302083333258,9.43299425
7,note_on,60,C4,0.6299212598425197,0.06443302083333258,9.43299425
7,note_on,70,A#4,1,0.06443302083333258,9.43299425
7,note_on,42,F#2,1,0.06443302083333258,9.5876335
7,note_on,61,C#4,0.7559055118110236,0.06443302083333258,9.5876335
7,note_on,63,D#4,1,0.06443302083333258,9.5876335
7,note_on,70,A#4,1,0.06443302083333258,9.5876335
7,note_on,70,A#4,1,0.06443302083333435,9.74227275
7,note_on,42,F#2,1,0.06443302083333435,9.74227275
7,note_on,63,D#4,1,0.06443302083333435,9.74227275
7,note_on,70,A#4,1,0.06443302083333435,9.896912
7,note_on,60,C4,0.6299212598425197,0.06443302083333435,9.896912
7,note_on,42,F#2,1,0.06443302083333435,9.896912
7,note_on,42,F#2,1,0.06443302083333258,10.051551250000001
7,note_on,70,A#4,1,0.06443302083333258,10.051551250000001
7,note_on,60,C4,0.6299212598425197,0.06443302083333258,10.051551250000001
7,note_on,70,A#4,1,0.06443302083333435,10.2061905
7,note_on,60,C4,0.6299212598425197,0.06443302083333435,10.2061905
7,note_on,42,F#2,1,0.06443302083333435,10.2061905
7,note_on,62,D4,1,0.06443302083333435,10.2061905
7,note_on,70,A#4,1,0.06443302083333435,10.36082975
7,note_on,42,F#2,1,0.06443302083333435,10.36082975
7,note_on,60,C4,0.6299212598425197,0.06443302083333435,10.36082975
7,note_on,60,C4,0.6299212598425197,0.06443302083333435,10.515469
7,note_on,70,A#4,1,0.06443302083333435,10.515469
7,note_on,42,F#2,1,0.06443302083333435,10.515469
7,note_on,60,C4,0.6299212598425197,0.06443302083333435,10.67010825
7,note_on,70,A#4,1,0.06443302083333435,10.67010825
7,note_on,42,F#2,1,0.06443302083333435,10.67010825
7,note_on,63,D#4,1,0.06443302083333435,10.8247475
7,note_on,70,A#4,1,0.06443302083333435,10.8247475
7,note_on,61,C#4,0.7559055118110236,0.06443302083333435,10.8247475
7,note_on,42,F#2,1,0.06443302083333435,10.8247475
7,note_on,63,D#4,1,0.06443302083333435,10.97938675
7,note_on,70,A#4,1,0.06443302083333435,10.97938675
7,note_on,42,F#2,1,0.06443302083333435,10.97938675
7,note_on,60,C4,0.6299212598425197,0.06443302083333435,11.134026
7,note_on,70,A#4,1,0.06443302083333435,11.134026
7,note_on,42,F#2,1,0.06443302083333435,11.134026
7,note_on,60,C4,0.6299212598425197,0.06443302083333258,11.288665250000001
7,note_on,42,F#2,1,0.06443302083333258,11.288665250000001
7,note_on,70,A#4,1,0.06443302083333258,11.288665250000001
7,note_on,42,F#2,1,0.06443302083333435,11.4433045
7,note_on,60,C4,0.6299212598425197,0.06443302083333435,11.4433045
7,note_on,62,D4,1,0.06443302083333435,11.4433045
7,note_on,70,A#4,1,0.06443302083333435,11.4433045
7,note_on,42,F#2,1,0.06443302083333435,11.59794375
7,note_on,60,C4,0.6299212598425197,0.06443302083333435,11.59794375
7,note_on,70,A#4,1,0.06443302083333435,11.59794375
7,note_on,60,C4,0.6299212598425197,0.06443302083333258,11.752583000000001
7,note_on,70,A#4,1,0.06443302083333258,11.752583000000001
7,note_on,42,F#2,1,0.06443302083333258,11.752583000000001
7,note_on,60,C4,0.6299212598425197,0.06443302083333435,11.90722225
7,note_on,70,A#4,1,0.06443302083333435,11.90722225
7,note_on,42,F#2,1,0.06443302083333435,11.90722225
7,note_on,63,D#4,1,0.06443302083333435,12.061861500000001
7,note_on,61,C#4,0.7559055118110236,0.06443302083333435,12.061861500000001
7,note_on,70,A#4,1,0.06443302083333435,12.061861500000001
7,note_on,42,F#2,1,0.06443302083333435,12.061861500000001
7,note_on,42,F#2,1,0.06443302083333435,12.21650075
7,note_on,70,A#4,1,0.06443302083333435,12.21650075
7,note_on,63,D#4,1,0.06443302083333435,12.21650075
7,note_on,70,A#4,1,0.06443302083333435,12.37114
7,note_on,42,F#2,1,0.06443302083333435,12.37114
7,note_on,60,C4,0.6299212598425197,0.06443302083333435,12.37114
7,note_on,70,A#4,1,0.06443302083333258,12.525779250000001
7,note_on,60,C4,0.6299212598425197,0.06443302083333258,12.525779250000001
7,note_on,42,F#2,1,0.06443302083333258,12.525779250000001
7,note_on,62,D4,1,0.06443302083333435,12.6804185
7,note_on,60,C4,0.6299212598425197,0.06443302083333435,12.6804185
7,note_on,70,A#4,1,0.06443302083333435,12.6804185
7,note_on,42,F#2,1,0.06443302083333435,12.6804185
7,note_on,42,F#2,1,0.06443302083333435,12.83505775
7,note_on,60,C4,0.6299212598425197,0.06443302083333435,12.83505775
7,note_on,70,A#4,1,0.06443302083333435,12.83505775
7,note_on,42,F#2,1,0.06443302083333435,12.989697
7,note_on,60,C4,0.6299212598425197,0.06443302083333435,12.989697
7,note_on,70,A#4,1,0.06443302083333435,12.989697
7,note_on,70,A#4,1,0.06443302083333435,13.14433625
7,note_on,60,C4,0.6299212598425197,0.06443302083333435,13.14433625
7,note_on,42,F#2,1,0.06443302083333435,13.14433625
7,note_on,42,F#2,1,0.06443302083333435,13.298975500000001
7,note_on,61,C#4,0.7559055118110236,0.06443302083333435,13.298975500000001
7,note_on,63,D#4,1,0.06443302083333435,13.298975500000001
7,note_on,70,A#4,1,0.06443302083333435,13.298975500000001
7,note_on,70,A#4,1,0.06443302083333435,13.45361475
7,note_on,63,D#4,1,0.06443302083333435,13.45361475
7,note_on,42,F#2,1,0.06443302083333435,13.45361475
7,note_on,60,C4,0.6299212598425197,0.06443302083333435,13.608254
7,note_on,42,F#2,1,0.06443302083333435,13.608254
7,note_on,70,A#4,1,0.06443302083333435,13.608254
7,note_on,42,F#2,1,0.06443302083333258,13.762893250000001
7,note_on,60,C4,0.6299212598425197,0.06443302083333258,13.762893250000001
7,note_on,70,A#4,1,0.06443302083333258,13.762893250000001
7,note_on,60,C4,0.6299212598425197,0.06443302083333435,13.9175325
7,note_on,70,A#4,1,0.06443302083333435,13.9175325
7,note_on,42,F#2,1,0.06443302083333435,13.9175325
7,note_on,62,D4,1,0.06443302083333435,13.9175325
7,note_on,42,F#2,1,0.06443302083333435,14.07217175
7,note_on,60,C4,0.6299212598425197,0.06443302083333435,14.07217175
7,note_on,70,A#4,1,0.06443302083333435,14.07217175
7,note_on,60,C4,0.6299212598425197,0.06443302083333258,14.226811000000001
7,note_on,70,A#4,1,0.06443302083333258,14.226811000000001
7,note_on,42,F#2,1,0.06443302083333258,14.226811000000001
7,note_on,42,F#2,1,0.06443302083333435,14.38145025
7,note_on,60,C4,0.6299212598425197,0.06443302083333435,14.38145025
7,note_on,70,A#4,1,0.06443302083333435,14.38145025
7,note_on,70,A#4,1,0.06443302083333435,14.536089500000001
7,note_on,42,F#2,1,0.06443302083333435,14.536089500000001
7,note_on,63,D#4,1,0.06443302083333435,14.536089500000001
7,note_on,61,C#4,0.7559055118110236,0.06443302083333435,14.536089500000001
7,note_on,70,A#4,1,0.06443302083333435,14.69072875
7,note_on,63,D#4,1,0.06443302083333435,14.69072875
7,note_on,42,F#2,1,0.06443302083333435,14.69072875
7,note_on,70,A#4,1,0.06443302083333435,14.845368
7,note_on,42,F#2,1,0.06443302083333435,14.845368
7,note_on,60,C4,0.6299212598425197,0.06443302083333435,14.845368
7,note_on,70,A#4,1,0.06443302083333258,15.000007250000001
7,note_on,42,F#2,1,0.06443302083333258,15.000007250000001
7,note_on,60,C4,0.6299212598425197,0.06443302083333258,15.000007250000001
7,note_on,62,D4,1,0.06443302083333435,15.1546465
7,note_on,60,C4,0.6299212598425197,0.06443302083333435,15.1546465
7,note_on,42,F#2,1,0.06443302083333435,15.1546465
7,note_on,70,A#4,1,0.06443302083333435,15.1546465
7,note_on,42,F#2,1,0.06443302083333435,15.30928575
7,note_on,70,A#4,1,0.06443302083333435,15.30928575
7,note_on,60,C4,0.6299212598425197,0.06443302083333435,15.30928575
7,note_on,42,F#2,1,0.06443302083333435,15.463925
7,note_on,60,C4,0.6299212598425197,0.06443302083333435,15.463925
7,note_on,70,A#4,1,0.06443302083333435,15.463925
7,note_on,60,C4,0.6299212598425197,0.06443302083333435,15.61856425
7,note_on,42,F#2,1,0.06443302083333435,15.61856425
7,note_on,70,A#4,1,0.06443302083333435,15.61856425
7,note_on,70,A#4,1,0.06443302083333435,15.773203500000001
7,note_on,42,F#2,1,0.06443302083333435,15.773203500000001
7,note_on,61,C#4,0.7559055118110236,0.06443302083333435,15.773203500000001
7,note_on,63,D#4,1,0.06443302083333435,15.773203500000001
7,note_on,70,A#4,1,0.06443302083333435,15.92784275
7,note_on,63,D#4,1,0.06443302083333435,15.92784275
7,note_on,42,F#2,1,0.06443302083333435,15.92784275
7,note_on,70,A#4,1,0.06443302083333435,16.082482
7,note_on,60,C4,0.6299212598425197,0.06443302083333435,16.082482
7,note_on,42,F#2,1,0.06443302083333435,16.082482
7,note_on,42,F#2,1,0.06443302083333435,16.23712125
7,note_on,60,C4,0.6299212598425197,0.06443302083333435,16.23712125
7,note_on,70,A#4,1,0.06443302083333435,16.23712125
7,note_on,70,A#4,1,0.06443302083333435,16.3917605
7,note_on,62,D4,1,0.06443302083333435,16.3917605
7,note_on,42,F#2,1,0.06443302083333435,16.3917605
7,note_on,60,C4,0.6299212598425197,0.06443302083333435,16.3917605
7,note_on,70,A#4,1,0.06443302083333435,16.54639975
7,note_on,60,C4,0.6299212598425197,0.06443302083333435,16.54639975
7,note_on,42,F#2,1,0.06443302083333435,16.54639975
7,note_on,42,F#2,1,0.06443302083333435,16.701039
7,note_on,60,C4,0.6299212598425197,0.06443302083333435,16.701039
7,note_on,70,A#4,1,0.06443302083333435,16.701039
7,note_on,70,A#4,1,0.06443302083333435,16.85567825
7,note_on,60,C4,0.6299212598425197,0.06443302083333435,16.85567825
7,note_on,42,F#2,1,0.06443302083333435,16.85567825
7,note_on,42,F#2,1,0.06443302083333435,17.0103175
7,note_on,61,C#4,0.7559055118110236,0.06443302083333435,17.0103175
7,note_on,63,D#4,1,0.06443302083333435,17.0103175
7,note_on,70,A#4,1,0.06443302083333435,17.0103175
7,note_on,42,F#2,1,0.06443302083333435,17.16495675
7,note_on,63,D#4,1,0.06443302083333435,17.16495675
7,note_on,70,A#4,1,0.06443302083333435,17.16495675
7,note_on,70,A#4,1,0.06443302083333435,17.319596
7,note_on,60,C4,0.6299212598425197,0.06443302083333435,17.319596
7,note_on,42,F#2,1,0.06443302083333435,17.319596
7,note_on,42,F#2,1,0.06443302083333435,17.47423525
7,note_on,70,A#4,1,0.06443302083333435,17.47423525
7,note_on,60,C4,0.6299212598425197,0.06443302083333435,17.47423525
7,note_on,62,D4,1,0.06443302083333435,17.628874500000002
7,note_on,60,C4,0.6299212598425197,0.06443302083333435,17.628874500000002
7,note_on,70,A#4,1,0.06443302083333435,17.628874500000002
7,note_on,42,F#2,1,0.06443302083333435,17.628874500000002
7,note_on,42,F#2,1,0.06443302083333435,17.78351375
7,note_on,60,C4,0.6299212598425197,0.06443302083333435,17.78351375
7,note_on,70,A#4,1,0.06443302083333435,17.78351375
7,note_on,70,A#4,1,0.06443302083333435,17.938153
7,note_on,42,F#2,1,0.06443302083333435,17.938153
7,note_on,60,C4,0.6299212598425197,0.06443302083333435,17.938153
7,note_on,70,A#4,1,0.0644330208333308,18.092792250000002
7,note_on,42,F#2,1,0.0644330208333308,18.092792250000002
7,note_on,60,C4,0.6299212598425197,0.0644330208333308,18.092792250000002
7,note_on,61,C#4,0.7559055118110236,0.06443302083333435,18.2474315
7,note_on,63,D#4,1,0.06443302083333435,18.2474315
7,note_on,42,F#2,1,0.06443302083333435,18.2474315
7,note_on,70,A#4,1,0.06443302083333435,18.2474315
7,note_on,63,D#4,1,0.06443302083333435,18.40207075
7,note_on,70,A#4,1,0.06443302083333435,18.40207075
7,note_on,42,F#2,1,0.06443302083333435,18.40207075
7,note_on,70,A#4,1,0.0644330208333308,18.556710000000002
7,note_on,42,F#2,1,0.0644330208333308,18.556710000000002
7,note_on,60,C4,0.6299212598425197,0.0644330208333308,18.556710000000002
7,note_on,70,A#4,1,0.06443302083333435,18.71134925
7,note_on,42,F#2,1,0.06443302083333435,18.71134925
7,note_on,60,C4,0.6299212598425197,0.06443302083333435,18.71134925
7,note_on,60,C4,0.6299212598425197,0.06443302083333435,18.8659885
7,note_on,42,F#2,1,0.06443302083333435,18.8659885
7,note_on,62,D4,1,0.06443302083333435,18.8659885
7,note_on,70,A#4,1,0.06443302083333435,18.8659885
7,note_on,70,A#4,1,0.06443302083333435,19.02062775
7,note_on,60,C4,0.6299212598425197,0.06443302083333435,19.02062775
7,note_on,42,F#2,1,0.06443302083333435,19.02062775
7,note_on,42,F#2,1,0.06443302083333435,19.175267
7,note_on,60,C4,0.6299212598425197,0.06443302083333435,19.175267
7,note_on,70,A#4,1,0.06443302083333435,19.175267
7,note_on,42,F#2,1,0.06443302083333435,19.32990625
7,note_on,70,A#4,1,0.06443302083333435,19.32990625
7,note_on,60,C4,0.6299212598425197,0.06443302083333435,19.32990625
7,note_on,70,A#4,1,0.06443302083333435,19.4845455
7,note_on,63,D#4,1,0.06443302083333435,19.4845455
7,note_on,42,F#2,1,0.06443302083333435,19.4845455
7,note_on,61,C#4,0.7559055118110236,0.06443302083333435,19.4845455
7,note_on,42,F#2,1,0.06443302083333435,19.639184750000002
7,note_on,63,D#4,1,0.06443302083333435,19.639184750000002
7,note_on,70,A#4,1,0.06443302083333435,19.639184750000002
7,note_on,42,F#2,1,0.0644330208333308,19.793824
7,note_on,70,A#4,1,0.0644330208333308,19.793824
7,note_on,60,C4,0.6299212598425197,0.0644330208333308,19.793824
7,note_on,42,F#2,1,0.06443302083333435,19.94846325
7,note_on,60,C4,0.6299212598425197,0.06443302083333435,19.94846325
7,note_on,70,A#4,1,0.06443302083333435,19.94846325
7,note_on,42,F#2,1,0.0644330208333308,20.103102500000002
7,note_on,60,C4,0.6299212598425197,0.0644330208333308,20.103102500000002
7,note_on,70,A#4,1,0.0644330208333308,20.103102500000002
7,note_on,62,D4,1,0.0644330208333308,20.103102500000002
7,note_on,70,A#4,1,0.0644330208333308,20.25774175
7,note_on,42,F#2,1,0.0644330208333308,20.25774175
7,note_on,60,C4,0.6299212598425197,0.0644330208333308,20.25774175
7,note_on,70,A#4,1,0.06443302083333435,20.412381
7,note_on,42,F#2,1,0.06443302083333435,20.412381
7,note_on,60,C4,0.6299212598425197,0.06443302083333435,20.412381
7,note_on,60,C4,0.6299212598425197,0.0644330208333308,20.567020250000002
7,note_on,70,A#4,1,0.0644330208333308,20.567020250000002
7,note_on,42,F#2,1,0.0644330208333308,20.567020250000002
7,note_on,70,A#4,1,0.0644330208333308,20.7216595
7,note_on,63,D#4,1,0.0644330208333308,20.7216595
7,note_on,42,F#2,1,0.0644330208333308,20.7216595
7,note_on,61,C#4,0.7559055118110236,0.0644330208333308,20.7216595
7,note_on,63,D#4,1,0.0644330208333308,20.87629875
7,note_on,70,A#4,1,0.0644330208333308,20.87629875
7,note_on,42,F#2,1,0.0644330208333308,20.87629875
7,note_on,60,C4,0.6299212598425197,0.06443302083333435,21.030938
7,note_on,70,A#4,1,0.06443302083333435,21.030938
7,note_on,42,F#2,1,0.06443302083333435,21.030938
7,note_on,60,C4,0.6299212598425197,0.0644330208333308,21.18557725
7,note_on,70,A#4,1,0.0644330208333308,21.18557725
7,note_on,42,F#2,1,0.0644330208333308,21.18557725
7,note_on,60,C4,0.6299212598425197,0.0644330208333308,21.3402165
7,note_on,70,A#4,1,0.0644330208333308,21.3402165
7,note_on,62,D4,1,0.0644330208333308,21.3402165
7,note_on,42,F#2,1,0.0644330208333308,21.3402165
7,note_on,60,C4,0.6299212598425197,0.06443302083333435,21.49485575
7,note_on,70,A#4,1,0.06443302083333435,21.49485575
7,note_on,42,F#2,1,0.06443302083333435,21.49485575
7,note_on,60,C4,0.6299212598425197,0.0644330208333308,21.649495
7,note_on,42,F#2,1,0.0644330208333308,21.649495
7,note_on,70,A#4,1,0.0644330208333308,21.649495
7,note_on,60,C4,0.6299212598425197,0.0644330208333308,21.80413425
7,note_on,42,F#2,1,0.0644330208333308,21.80413425
7,note_on,70,A#4,1,0.0644330208333308,21.80413425
7,note_on,42,F#2,1,0.06443302083333435,21.9587735
7,note_on,70,A#4,1,0.06443302083333435,21.9587735
7,note_on,61,C#4,0.7559055118110236,0.06443302083333435,21.9587735
7,note_on,63,D#4,1,0.06443302083333435,21.9587735
7,note_on,70,A#4,1,0.0644330208333308,22.113412750000002
7,note_on,63,D#4,1,0.0644330208333308,22.113412750000002
7,note_on,42,F#2,1,0.0644330208333308,22.113412750000002
7,note_on,70,A#4,1,0.0644330208333308,22.268052
7,note_on,42,F#2,1,0.0644330208333308,22.268052
7,note_on,60,C4,0.6299212598425197,0.0644330208333308,22.268052
7,note_on,42,F#2,1,0.06443302083333435,22.42269125
7,note_on,70,A#4,1,0.06443302083333435,22.42269125
7,note_on,60,C4,0.6299212598425197,0.06443302083333435,22.42269125
7,note_on,62,D4,1,0.0644330208333308,22.577330500000002
7,note_on,70,A#4,1,0.0644330208333308,22.577330500000002
7,note_on,60,C4,0.6299212598425197,0.0644330208333308,22.577330500000002
7,note_on,42,F#2,1,0.0644330208333308,22.577330500000002
7,note_on,42,F#2,1,0.0644330208333308,22.73196975
7,note_on,60,C4,0.6299212598425197,0.0644330208333308,22.73196975
7,note_on,70,A#4,1,0.0644330208333308,22.73196975
7,note_on,42,F#2,1,0.06443302083333435,22.886609
7,note_on,60,C4,0.6299212598425197,0.06443302083333435,22.886609
7,note_on,70,A#4,1,0.06443302083333435,22.886609
7,note_on,42,F#2,1,0.0644330208333308,23.041248250000002
7,note_on,70,A#4,1,0.0644330208333308,23.041248250000002
7,note_on,60,C4,0.6299212598425197,0.0644330208333308,23.041248250000002
7,note_on,70,A#4,1,0.0644330208333308,23.1958875
7,note_on,63,D#4,1,0.0644330208333308,23.1958875
7,note_on,61,C#4,0.7559055118110236,0.0644330208333308,23.1958875
7,note_on,42,F#2,1,0.0644330208333308,23.1958875
7,note_on,42,F#2,1,0.0644330208333308,23.35052675
7,note_on,70,A#4,1,0.0644330208333308,23.35052675
7,note_on,63,D#4,1,0.0644330208333308,23.35052675
7,note_on,42,F#2,1,0.0644330208333308,23.505166000000003
7,note_on,60,C4,0.6299212598425197,0.0644330208333308,23.505166000000003
7,note_on,70,A#4,1,0.0644330208333308,23.505166000000003
7,note_on,42,F#2,1,0.0644330208333308,23.65980525
7,note_on,70,A#4,1,0.0644330208333308,23.65980525
7,note_on,60,C4,0.6299212598425197,0.0644330208333308,23.65980525
7,note_on,60,C4,0.6299212598425197,0.0644330208333308,23.8144445
7,note_on,62,D4,1,0.0644330208333308,23.8144445
7,note_on,70,A#4,1,0.0644330208333308,23.8144445
7,note_on,42,F#2,1,0.0644330208333308,23.8144445
7,note_on,42,F#2,1,0.06443302083333435,23.96908375
7,note_on,70,A#4,1,0.06443302083333435,23.96908375
7,note_on,60,C4,0.6299212598425197,0.06443302083333435,23.96908375
7,note_on,42,F#2,1,0.0644330208333308,24.123723000000002
7,note_on,70,A#4,1,0.0644330208333308,24.123723000000002
7,note_on,60,C4,0.6299212598425197,0.0644330208333308,24.123723000000002
7,note_on,70,A#4,1,0.0644330208333308,24.27836225
7,note_on,60,C4,0.6299212598425197,0.0644330208333308,24.27836225
7,note_on,42,F#2,1,0.0644330208333308,24.27836225
7,note_on,70,A#4,1,0.06443302083333435,24.4330015
7,note_on,63,D#4,1,0.06443302083333435,24.4330015
7,note_on,61,C#4,0.7559055118110236,0.06443302083333435,24.4330015
7,note_on,42,F#2,1,0.06443302083333435,24.4330015
7,note_on,42,F#2,1,0.0644330208333308,24.587640750000002
7,note_on,63,D#4,1,0.0644330208333308,24.587640750000002
7,note_on,70,A#4,1,0.0644330208333308,24.587640750000002
7,note_on,70,A#4,1,0.03221651041666718,24.74228
7,note_on,60,C4,0.6299212598425197,0.03221651041666718,24.74228
7,note_on,42,F#2,1,0.0644330208333308,24.74228
7,note_on,42,F#2,1,0.06443302083333435,24.89691925
7,note_on,70,A#4,1,0.03221651041667073,24.89691925
7,note_on,60,C4,0.6299212598425197,0.03221651041667073,24.89691925
7,note_on,60,C4,0.6299212598425197,0.03221651041666718,25.051558500000002
7,note_on,70,A#4,1,0.03221651041666718,25.051558500000002
7,note_on,62,D4,1,0.0644330208333308,25.051558500000002
7,note_on,42,F#2,1,0.0644330208333308,25.051558500000002
7,note_on,60,C4,0.6299212598425197,0.03221651041666718,25.20619775
7,note_on,70,A#4,1,0.03221651041666718,25.20619775
7,note_on,42,F#2,1,0.0644330208333308,25.20619775
7,note_on,42,F#2,1,0.06443302083333435,25.360837
7,note_on,60,C4,0.6299212598425197,0.03221651041667073,25.360837
7,note_on,70,A#4,1,0.03221651041667073,25.360837
7,note_on,42,F#2,1,0.0644330208333308,25.515476250000003
7,note_on,70,A#4,1,0.03221651041666718,25.515476250000003
7,note_on,60,C4,0.6299212598425197,0.03221651041666718,25.515476250000003
7,note_on,63,D#4,1,0.0644330208333308,25.6701155
7,note_on,42,F#2,1,0.0644330208333308,25.6701155
7,note_on,35,B1,0.6299212598425197,0.0644330208333308,25.6701155
7,note_on,70,A#4,1,0.03221651041666718,25.6701155
7,note_on,61,C#4,0.7559055118110236,0.0644330208333308,25.6701155
7,note_on,51,D#3,0.7559055118110236,0.0644330208333308,25.6701155
7,note_on,65,F4,1,0.06443302083333435,26.9072295
7,note_on,70,A#4,1,0.0644330208333308,27.216508
7,note_on,60,C4,0.6299212598425197,0.0644330208333308,27.216508
7,note_on,63,D#4,1,0.03221651041666718,27.216508
7,note_on,42,F#2,1,0.0644330208333308,27.216508
7,note_on,70,A#4,1,0.06443302083333435,27.37114725
7,note_on,42,F#2,1,0.06443302083333435,27.37114725
7,note_on,60,C4,0.6299212598425197,0.06443302083333435,27.37114725
7,note_on,60,C4,0.6299212598425197,0.0644330208333308,27.525786500000002
7,note_on,70,A#4,1,0.0644330208333308,27.525786500000002
7,note_on,42,F#2,1,0.0644330208333308,27.525786500000002
7,note_on,62,D4,1,0.0644330208333308,27.525786500000002
7,note_on,60,C4,0.6299212598425197,0.0644330208333308,27.68042575
7,note_on,42,F#2,1,0.0644330208333308,27.68042575
7,note_on,70,A#4,1,0.0644330208333308,27.68042575
7,note_on,60,C4,0.6299212598425197,0.06443302083333435,27.835065
7,note_on,42,F#2,1,0.06443302083333435,27.835065
7,note_on,70,A#4,1,0.06443302083333435,27.835065
7,note_on,42,F#2,1,0.0644330208333308,27.989704250000003
7,note_on,70,A#4,1,0.0644330208333308,27.989704250000003
7,note_on,60,C4,0.6299212598425197,0.0644330208333308,27.989704250000003
7,note_on,63,D#4,1,0.0644330208333308,28.1443435
7,note_on,70,A#4,1,0.0644330208333308,28.1443435
7,note_on,42,F#2,1,0.0644330208333308,28.1443435
7,note_on,61,C#4,0.7559055118110236,0.0644330208333308,28.1443435
7,note_on,42,F#2,1,0.0644330208333308,28.29898275
7,note_on,63,D#4,1,0.0644330208333308,28.29898275
7,note_on,70,A#4,1,0.0644330208333308,28.29898275
7,note_on,70,A#4,1,0.0644330208333308,28.453622000000003
7,note_on,60,C4,0.6299212598425197,0.0644330208333308,28.453622000000003
7,note_on,42,F#2,1,0.0644330208333308,28.453622000000003
7,note_on,60,C4,0.6299212598425197,0.0644330208333308,28.60826125
7,note_on,70,A#4,1,0.0644330208333308,28.60826125
7,note_on,42,F#2,1,0.0644330208333308,28.60826125
7,note_on,42,F#2,1,0.0644330208333308,28.7629005
7,note_on,60,C4,0.6299212598425197,0.0644330208333308,28.7629005
7,note_on,70,A#4,1,0.0644330208333308,28.7629005
7,note_on,62,D4,1,0.0644330208333308,28.7629005
7,note_on,42,F#2,1,0.06443302083333435,28.91753975
7,note_on,60,C4,0.6299212598425197,0.06443302083333435,28.91753975
7,note_on,70,A#4,1,0.06443302083333435,28.91753975
7,note_on,60,C4,0.6299212598425197,0.0644330208333308,29.072179000000002
7,note_on,70,A#4,1,0.0644330208333308,29.072179000000002
7,note_on,42,F#2,1,0.0644330208333308,29.072179000000002
7,note_on,42,F#2,1,0.0644330208333308,29.22681825
7,note_on,70,A#4,1,0.0644330208333308,29.22681825
7,note_on,60,C4,0.6299212598425197,0.0644330208333308,29.22681825
7,note_on,42,F#2,1,0.06443302083333435,29.3814575
7,note_on,63,D#4,1,0.06443302083333435,29.3814575
7,note_on,61,C#4,0.7559055118110236,0.06443302083333435,29.3814575
7,note_on,70,A#4,1,0.06443302083333435,29.3814575
7,note_on,42,F#2,1,0.0644330208333308,29.536096750000002
7,note_on,63,D#4,1,0.0644330208333308,29.536096750000002
7,note_on,70,A#4,1,0.0644330208333308,29.536096750000002
7,note_on,70,A#4,1,0.0644330208333308,29.690736
7,note_on,42,F#2,1,0.0644330208333308,29.690736
7,note_on,60,C4,0.6299212598425197,0.0644330208333308,29.690736
7,note_on,42,F#2,1,0.06443302083333435,29.84537525
7,note_on,70,A#4,1,0.06443302083333435,29.84537525
7,note_on,60,C4,0.6299212598425197,0.06443302083333435,29.84537525
7,note_on,62,D4,1,0.0644330208333308,30.000014500000002
7,note_on,70,A#4,1,0.0644330208333308,30.000014500000002
7,note_on,60,C4,0.6299212598425197,0.0644330208333308,30.000014500000002
7,note_on,42,F#2,1,0.0644330208333308,30.000014500000002
7,note_on,60,C4,0.6299212598425197,0.0644330208333308,30.15465375
7,note_on,42,F#2,1,0.0644330208333308,30.15465375
7,note_on,70,A#4,1,0.0644330208333308,30.15465375
7,note_on,70,A#4,1,0.06443302083333435,30.309293
7,note_on,42,F#2,1,0.06443302083333435,30.309293
7,note_on,60,C4,0.6299212598425197,0.06443302083333435,30.309293
7,note_on,60,C4,0.6299212598425197,0.0644330208333308,30.463932250000003
7,note_on,70,A#4,1,0.0644330208333308,30.463932250000003
7,note_on,42,F#2,1,0.0644330208333308,30.463932250000003
7,note_on,70,A#4,1,0.0644330208333308,30.6185715
7,note_on,63,D#4,1,0.0644330208333308,30.6185715
7,note_on,42,F#2,1,0.0644330208333308,30.6185715
7,note_on,61,C#4,0.7559055118110236,0.0644330208333308,30.6185715
7,note_on,63,D#4,1,0.0644330208333308,30.77321075
7,note_on,70,A#4,1,0.0644330208333308,30.77321075
7,note_on,42,F#2,1,0.0644330208333308,30.77321075
7,note_on,42,F#2,1,0.06443302083333435,30.92785
7,note_on,60,C4,0.6299212598425197,0.06443302083333435,30.92785
7,note_on,70,A#4,1,0.06443302083333435,30.92785
7,note_on,60,C4,0.6299212598425197,0.0644330208333308,31.082489250000002
7,note_on,70,A#4,1,0.0644330208333308,31.082489250000002
7,note_on,42,F#2,1,0.0644330208333308,31.082489250000002
7,note_on,60,C4,0.6299212598425197,0.0644330208333308,31.2371285
7,note_on,42,F#2,1,0.0644330208333308,31.2371285
7,note_on,62,D4,1,0.0644330208333308,31.2371285
7,note_on,70,A#4,1,0.0644330208333308,31.2371285
7,note_on,42,F#2,1,0.06443302083333435,31.39176775
7,note_on,70,A#4,1,0.06443302083333435,31.39176775
7,note_on,60,C4,0.6299212598425197,0.06443302083333435,31.39176775
7,note_on,70,A#4,1,0.0644330208333308,31.546407000000002
7,note_on,60,C4,0.6299212598425197,0.0644330208333308,31.546407000000002
7,note_on,42,F#2,1,0.0644330208333308,31.546407000000002
7,note_on,60,C4,0.6299212598425197,0.0644330208333308,31.70104625
7,note_on,42,F#2,1,0.0644330208333308,31.70104625
7,note_on,70,A#4,1,0.0644330208333308,31.70104625
7,note_on,63,D#4,1,0.06443302083333435,31.8556855
7,note_on,61,C#4,0.7559055118110236,0.06443302083333435,31.8556855
7,note_on,42,F#2,1,0.06443302083333435,31.8556855
7,note_on,70,A#4,1,0.06443302083333435,31.8556855
7,note_on,42,F#2,1,0.06443302083332725,32.01032475
7,note_on,63,D#4,1,0.06443302083332725,32.01032475
7,note_on,70,A#4,1,0.06443302083332725,32.01032475
7,note_on,42,F#2,1,0.06443302083333435,32.164964
7,note_on,60,C4,0.6299212598425197,0.06443302083333435,32.164964
7,note_on,70,A#4,1,0.06443302083333435,32.164964
7,note_on,70,A#4,1,0.06443302083333435,32.31960325
7,note_on,42,F#2,1,0.06443302083333435,32.31960325
7,note_on,60,C4,0.6299212598425197,0.06443302083333435,32.31960325
7,note_on,70,A#4,1,0.06443302083332725,32.4742425
7,note_on,42,F#2,1,0.06443302083332725,32.4742425
7,note_on,62,D4,1,0.06443302083332725,32.4742425
7,note_on,60,C4,0.6299212598425197,0.06443302083332725,32.4742425
7,note_on,42,F#2,1,0.06443302083333435,32.62888175
7,note_on,60,C4,0.6299212598425197,0.06443302083333435,32.62888175
7,note_on,70,A#4,1,0.06443302083333435,32.62888175
7,note_on,42,F#2,1,0.06443302083333435,32.783521
7,note_on,60,C4,0.6299212598425197,0.06443302083333435,32.783521
7,note_on,70,A#4,1,0.06443302083333435,32.783521
7,note_on,42,F#2,1,0.06443302083332725,32.93816025
7,note_on,70,A#4,1,0.06443302083332725,32.93816025
7,note_on,60,C4,0.6299212598425197,0.06443302083332725,32.93816025
7,note_on,42,F#2,1,0.06443302083333435,33.0927995
7,note_on,63,D#4,1,0.06443302083333435,33.0927995
7,note_on,70,A#4,1,0.06443302083333435,33.0927995
7,note_on,61,C#4,0.7559055118110236,0.06443302083333435,33.0927995
7,note_on,42,F#2,1,0.06443302083333435,33.24743875
7,note_on,63,D#4,1,0.06443302083333435,33.24743875
7,note_on,70,A#4,1,0.06443302083333435,33.24743875
7,note_on,70,A#4,1,0.06443302083332725,33.402078
7,note_on,42,F#2,1,0.06443302083332725,33.402078
7,note_on,60,C4,0.6299212598425197,0.06443302083332725,33.402078
7,note_on,70,A#4,1,0.06443302083333435,33.55671725
7,note_on,60,C4,0.6299212598425197,0.06443302083333435,33.55671725
7,note_on,42,F#2,1,0.06443302083333435,33.55671725
7,note_on,70,A#4,1,0.06443302083333435,33.7113565
7,note_on,60,C4,0.6299212598425197,0.06443302083333435,33.7113565
7,note_on,62,D4,1,0.06443302083333435,33.7113565
7,note_on,42,F#2,1,0.06443302083333435,33.7113565
7,note_on,42,F#2,1,0.06443302083332725,33.86599575
7,note_on,60,C4,0.6299212598425197,0.06443302083332725,33.86599575
7,note_on,70,A#4,1,0.06443302083332725,33.86599575
7,note_on,42,F#2,1,0.06443302083333435,34.020635
7,note_on,70,A#4,1,0.06443302083333435,34.020635
7,note_on,60,C4,0.6299212598425197,0.06443302083333435,34.020635
7,note_on,42,F#2,1,0.06443302083333435,34.17527425
7,note_on,60,C4,0.6299212598425197,0.06443302083333435,34.17527425
7,note_on,70,A#4,1,0.06443302083333435,34.17527425
7,note_on,42,F#2,1,0.06443302083332725,34.3299135
7,note_on,63,D#4,1,0.06443302083332725,34.3299135
7,note_on,61,C#4,0.7559055118110236,0.06443302083332725,34.3299135
7,note_on,70,A#4,1,0.06443302083332725,34.3299135
7,note_on,42,F#2,1,0.06443302083333435,34.48455275
7,note_on,63,D#4,1,0.06443302083333435,34.48455275
7,note_on,70,A#4,1,0.06443302083333435,34.48455275
7,note_on,64,E4,1,0.06443302083333435,34.639192
7,note_on,42,F#2,1,0.06443302083333435,34.639192
7,note_on,35,B1,0.6299212598425197,0.06443302083333435,34.639192
7,note_on,66,F#4,1,0.06443302083333435,34.639192
7,note_on,65,F4,1,0.06443302083333435,36.8041415
7,note_on,42,F#2,1,0.06443302083332725,37.113420000000005
7,note_on,70,A#4,1,0.06443302083332725,37.113420000000005
7,note_on,60,C4,0.6299212598425197,0.06443302083332725,37.113420000000005
7,note_on,42,F#2,1,0.06443302083333435,37.26805925
7,note_on,60,C4,0.6299212598425197,0.06443302083333435,37.26805925
7,note_on,70,A#4,1,0.06443302083333435,37.26805925
7,note_on,62,D4,1,0.06443302083332725,37.4226985
7,note_on,60,C4,0.6299212598425197,0.06443302083332725,37.4226985
7,note_on,70,A#4,1,0.06443302083332725,37.4226985
7,note_on,42,F#2,1,0.06443302083332725,37.4226985
7,note_on,42,F#2,1,0.06443302083333435,37.57733775
7,note_on,60,C4,0.6299212598425197,0.06443302083333435,37.57733775
7,note_on,70,A#4,1,0.06443302083333435,37.57733775
7,note_on,60,C4,0.6299212598425197,0.06443302083333435,37.731977
7,note_on,70,A#4,1,0.06443302083333435,37.731977
7,note_on,42,F#2,1,0.06443302083333435,37.731977
7,note_on,70,A#4,1,0.06443302083332725,37.88661625
7,note_on,42,F#2,1,0.06443302083332725,37.88661625
7,note_on,60,C4,0.6299212598425197,0.06443302083332725,37.88661625
7,note_on,63,D#4,1,0.06443302083333435,38.0412555
7,note_on,42,F#2,1,0.06443302083333435,38.0412555
7,note_on,70,A#4,1,0.06443302083333435,38.0412555
7,note_on,61,C#4,0.7559055118110236,0.06443302083333435,38.0412555
7,note_on,63,D#4,1,0.06443302083333435,38.19589475
7,note_on,42,F#2,1,0.06443302083333435,38.19589475
7,note_on,70,A#4,1,0.06443302083333435,38.19589475
7,note_on,60,C4,0.6299212598425197,0.06443302083332725,38.350534
7,note_on,70,A#4,1,0.06443302083332725,38.350534
7,note_on,42,F#2,1,0.06443302083332725,38.350534
7,note_on,42,F#2,1,0.06443302083333435,38.50517325
7,note_on,70,A#4,1,0.06443302083333435,38.50517325
7,note_on,60,C4,0.6299212598425197,0.06443302083333435,38.50517325
7,note_on,62,D4,1,0.06443302083333435,38.6598125
7,note_on,42,F#2,1,0.06443302083333435,38.6598125
7,note_on,60,C4,0.6299212598425197,0.06443302083333435,38.6598125
7,note_on,70,A#4,1,0.06443302083333435,38.6598125
7,note_on,70,A#4,1,0.06443302083332725,38.81445175
7,note_on,42,F#2,1,0.06443302083332725,38.81445175
7,note_on,60,C4,0.6299212598425197,0.06443302083332725,38.81445175
7,note_on,70,A#4,1,0.06443302083333435,38.969091
7,note_on,42,F#2,1,0.06443302083333435,38.969091
7,note_on,60,C4,0.6299212598425197,0.06443302083333435,38.969091
7,note_on,60,C4,0.6299212598425197,0.06443302083333435,39.12373025
7,note_on,42,F#2,1,0.06443302083333435,39.12373025
7,note_on,70,A#4,1,0.06443302083333435,39.12373025
7,note_on,42,F#2,1,0.06443302083332725,39.278369500000004
7,note_on,70,A#4,1,0.06443302083332725,39.278369500000004
7,note_on,61,C#4,0.7559055118110236,0.06443302083332725,39.278369500000004
7,note_on,63,D#4,1,0.06443302083332725,39.278369500000004
7,note_on,42,F#2,1,0.06443302083333435,39.43300875
7,note_on,70,A#4,1,0.06443302083333435,39.43300875
7,note_on,63,D#4,1,0.06443302083333435,39.43300875
7,note_on,42,F#2,1,0.06443302083333435,39.587648
7,note_on,60,C4,0.6299212598425197,0.06443302083333435,39.587648
7,note_on,70,A#4,1,0.06443302083333435,39.587648
7,note_on,42,F#2,1,0.06443302083333435,39.742287250000004
7,note_on,60,C4,0.6299212598425197,0.06443302083333435,39.742287250000004
7,note_on,70,A#4,1,0.06443302083333435,39.742287250000004
7,note_on,42,F#2,1,0.06443302083334146,39.8969265
7,note_on,60,C4,0.6299212598425197,0.06443302083334146,39.8969265
7,note_on,70,A#4,1,0.06443302083334146,39.8969265
7,note_on,62,D4,1,0.06443302083334146,39.8969265
7,note_on,60,C4,0.6299212598425197,0.06443302083333435,40.05156575
7,note_on,70,A#4,1,0.06443302083333435,40.05156575
7,note_on,42,F#2,1,0.06443302083333435,40.05156575
7,note_on,42,F#2,1,0.06443302083333435,40.206205000000004
7,note_on,70,A#4,1,0.06443302083333435,40.206205000000004
7,note_on,60,C4,0.6299212598425197,0.06443302083333435,40.206205000000004
7,note_on,42,F#2,1,0.06443302083334146,40.36084425
7,note_on,60,C4,0.6299212598425197,0.06443302083334146,40.36084425
7,note_on,70,A#4,1,0.06443302083334146,40.36084425
7,note_on,63,D#4,1,0.06443302083333435,40.5154835
7,note_on,70,A#4,1,0.06443302083333435,40.5154835
7,note_on,61,C#4,0.7559055118110236,0.06443302083333435,40.5154835
7,note_on,42,F#2,1,0.06443302083333435,40.5154835
7,note_on,70,A#4,1,0.06443302083333435,40.670122750000004
7,note_on,42,F#2,1,0.06443302083333435,40.670122750000004
7,note_on,63,D#4,1,0.06443302083333435,40.670122750000004
7,note_on,60,C4,0.6299212598425197,0.06443302083334146,40.824762
7,note_on,42,F#2,1,0.06443302083334146,40.824762
7,note_on,70,A#4,1,0.06443302083334146,40.824762
7,note_on,60,C4,0.6299212598425197,0.06443302083333435,40.97940125
7,note_on,70,A#4,1,0.06443302083333435,40.97940125
7,note_on,42,F#2,1,0.06443302083333435,40.97940125
7,note_on,62,D4,1,0.06443302083333435,41.134040500000005
7,note_on,70,A#4,1,0.06443302083333435,41.134040500000005
7,note_on,42,F#2,1,0.06443302083333435,41.134040500000005
7,note_on,60,C4,0.6299212598425197,0.06443302083333435,41.134040500000005
7,note_on,60,C4,0.6299212598425197,0.06443302083333435,41.28867975
7,note_on,42,F#2,1,0.06443302083333435,41.28867975
7,note_on,70,A#4,1,0.06443302083333435,41.28867975
7,note_on,42,F#2,1,0.06443302083333435,41.443319
7,note_on,60,C4,0.6299212598425197,0.06443302083333435,41.443319
7,note_on,70,A#4,1,0.06443302083333435,41.443319
7,note_on,70,A#4,1,0.06443302083333435,41.597958250000005
7,note_on,42,F#2,1,0.06443302083333435,41.597958250000005
7,note_on,60,C4,0.6299212598425197,0.06443302083333435,41.597958250000005
7,note_on,61,C#4,0.7559055118110236,0.06443302083333435,41.7525975
7,note_on,42,F#2,1,0.06443302083333435,41.7525975
7,note_on,70,A#4,1,0.06443302083333435,41.7525975
7,note_on,63,D#4,1,0.06443302083333435,41.7525975
7,note_on,63,D#4,1,0.06443302083333435,41.90723675
7,note_on,42,F#2,1,0.06443302083333435,41.90723675
7,note_on,70,A#4,1,0.06443302083333435,41.90723675
7,note_on,70,A#4,1,0.06443302083334146,42.061876
7,note_on,60,C4,0.6299212598425197,0.06443302083334146,42.061876
7,note_on,42,F#2,1,0.06443302083334146,42.061876
7,note_on,60,C4,0.6299212598425197,0.06443302083333435,42.21651525
7,note_on,42,F#2,1,0.06443302083333435,42.21651525
7,note_on,70,A#4,1,0.06443302083333435,42.21651525
7,note_on,70,A#4,1,0.06443302083333435,42.3711545
7,note_on,60,C4,0.6299212598425197,0.06443302083333435,42.3711545
7,note_on,62,D4,1,0.06443302083333435,42.3711545
7,note_on,42,F#2,1,0.06443302083333435,42.3711545
7,note_on,42,F#2,1,0.06443302083334146,42.52579375
7,note_on,70,A#4,1,0.06443302083334146,42.52579375
7,note_on,60,C4,0.6299212598425197,0.06443302083334146,42.52579375
7,note_on,42,F#2,1,0.06443302083333435,42.680433
7,note_on,60,C4,0.6299212598425197,0.06443302083333435,42.680433
7,note_on,70,A#4,1,0.06443302083333435,42.680433
7,note_on,70,A#4,1,0.06443302083333435,42.83507225
7,note_on,60,C4,0.6299212598425197,0.06443302083333435,42.83507225
7,note_on,42,F#2,1,0.06443302083333435,42.83507225
7,note_on,61,C#4,0.7559055118110236,0.06443302083334146,42.9897115
7,note_on,63,D#4,1,0.06443302083334146,42.9897115
7,note_on,42,F#2,1,0.06443302083334146,42.9897115
7,note_on,70,A#4,1,0.06443302083334146,42.9897115
7,note_on,42,F#2,1,0.06443302083333435,43.14435075
7,note_on,70,A#4,1,0.06443302083333435,43.14435075
7,note_on,63,D#4,1,0.06443302083333435,43.14435075
7,note_on,70,A#4,1,0.06443302083333435,43.29899
7,note_on,42,F#2,1,0.06443302083333435,43.29899
7,note_on,60,C4,0.6299212598425197,0.06443302083333435,43.29899
7,note_on,60,C4,0.6299212598425197,0.06443302083334146,43.45362925
7,note_on,70,A#4,1,0.06443302083334146,43.45362925
7,note_on,42,F#2,1,0.06443302083334146,43.45362925
7,note_on,42,F#2,1,0.06443302083333435,43.6082685
7,note_on,62,D4,1,0.06443302083333435,43.6082685
7,note_on,60,C4,0.6299212598425197,0.06443302083333435,43.6082685
7,note_on,70,A#4,1,0.06443302083333435,43.6082685
7,note_on,42,F#2,1,0.06443302083333435,43.762907750000004
7,note_on,70,A#4,1,0.06443302083333435,43.762907750000004
7,note_on,60,C4,0.6299212598425197,0.06443302083333435,43.762907750000004
7,note_on,60,C4,0.6299212598425197,0.06443302083334146,43.917547
7,note_on,42,F#2,1,0.06443302083334146,43.917547
7,note_on,70,A#4,1,0.06443302083334146,43.917547
7,note_on,70,A#4,1,0.06443302083333435,44.07218625
7,note_on,60,C4,0.6299212598425197,0.06443302083333435,44.07218625
7,note_on,42,F#2,1,0.06443302083333435,44.07218625
7,note_on,70,A#4,1,0.06443302083333435,44.226825500000004
7,note_on,42,F#2,1,0.06443302083333435,44.226825500000004
7,note_on,63,D#4,1,0.06443302083333435,44.226825500000004
7,note_on,61,C#4,0.7559055118110236,0.06443302083333435,44.226825500000004
7,note_on,63,D#4,1,0.06443302083334146,44.38146475
7,note_on,42,F#2,1,0.06443302083334146,44.38146475
7,note_on,70,A#4,1,0.06443302083334146,44.38146475
7,note_on,42,F#2,1,0.06443302083333435,44.536104
7,note_on,60,C4,0.6299212598425197,0.06443302083333435,44.536104
7,note_on,70,A#4,1,0.06443302083333435,44.536104
7,note_on,60,C4,0.6299212598425197,0.06443302083333435,44.690743250000004
7,note_on,42,F#2,1,0.06443302083333435,44.690743250000004
7,note_on,70,A#4,1,0.06443302083333435,44.690743250000004
7,note_on,70,A#4,1,0.06443302083334146,44.8453825
7,note_on,62,D4,1,0.06443302083334146,44.8453825
7,note_on,42,F#2,1,0.06443302083334146,44.8453825
7,note_on,60,C4,0.6299212598425197,0.06443302083334146,44.8453825
7,note_on,42,F#2,1,0.06443302083333435,45.00002175
7,note_on,60,C4,0.6299212598425197,0.06443302083333435,45.00002175
7,note_on,70,A#4,1,0.06443302083333435,45.00002175
7,note_on,60,C4,0.6299212598425197,0.06443302083333435,45.154661000000004
7,note_on,70,A#4,1,0.06443302083333435,45.154661000000004
7,note_on,42,F#2,1,0.06443302083333435,45.154661000000004
7,note_on,42,F#2,1,0.06443302083334146,45.30930025
7,note_on,70,A#4,1,0.06443302083334146,45.30930025
7,note_on,60,C4,0.6299212598425197,0.06443302083334146,45.30930025
7,note_on,61,C#4,0.7559055118110236,0.06443302083333435,45.4639395
7,note_on,63,D#4,1,0.06443302083333435,45.4639395
7,note_on,42,F#2,1,0.06443302083333435,45.4639395
7,note_on,70,A#4,1,0.06443302083333435,45.4639395
7,note_on,42,F#2,1,0.06443302083333435,45.618578750000005
7,note_on,70,A#4,1,0.06443302083333435,45.618578750000005
7,note_on,63,D#4,1,0.06443302083333435,45.618578750000005
7,note_on,70,A#4,1,0.06443302083334146,45.773218
7,note_on,60,C4,0.6299212598425197,0.06443302083334146,45.773218
7,note_on,42,F#2,1,0.06443302083334146,45.773218
7,note_on,60,C4,0.6299212598425197,0.06443302083333435,45.92785725
7,note_on,70,A#4,1,0.06443302083333435,45.92785725
7,note_on,42,F#2,1,0.06443302083333435,45.92785725
7,note_on,42,F#2,1,0.06443302083333435,46.082496500000005
7,note_on,70,A#4,1,0.06443302083333435,46.082496500000005
7,note_on,62,D4,1,0.06443302083333435,46.082496500000005
7,note_on,60,C4,0.6299212598425197,0.06443302083333435,46.082496500000005
7,note_on,60,C4,0.6299212598425197,0.06443302083333435,46.23713575
7,note_on,42,F#2,1,0.06443302083333435,46.23713575
7,note_on,70,A#4,1,0.06443302083333435,46.23713575
7,note_on,42,F#2,1,0.06443302083333435,46.391775
7,note_on,60,C4,0.6299212598425197,0.06443302083333435,46.391775
7,note_on,70,A#4,1,0.06443302083333435,46.391775
7,note_on,60,C4,0.6299212598425197,0.06443302083333435,46.546414250000005
7,note_on,70,A#4,1,0.06443302083333435,46.546414250000005
7,note_on,42,F#2,1,0.06443302083333435,46.546414250000005
7,note_on,63,D#4,1,0.06443302083333435,46.7010535
7,note_on,61,C#4,0.7559055118110236,0.06443302083333435,46.7010535
7,note_on,70,A#4,1,0.06443302083333435,46.7010535
7,note_on,42,F#2,1,0.06443302083333435,46.7010535
7,note_on,42,F#2,1,0.06443302083333435,46.85569275
7,note_on,70,A#4,1,0.06443302083333435,46.85569275
7,note_on,63,D#4,1,0.06443302083333435,46.85569275
7,note_on,60,C4,0.6299212598425197,0.06443302083333435,47.010332000000005
7,note_on,42,F#2,1,0.06443302083333435,47.010332000000005
7,note_on,70,A#4,1,0.06443302083333435,47.010332000000005
7,note_on,70,A#4,1,0.06443302083333435,47.16497125
7,note_on,60,C4,0.6299212598425197,0.06443302083333435,47.16497125
7,note_on,42,F#2,1,0.06443302083333435,47.16497125
7,note_on,62,D4,1,0.06443302083333435,47.3196105
7,note_on,42,F#2,1,0.06443302083333435,47.3196105
7,note_on,70,A#4,1,0.06443302083333435,47.3196105
7,note_on,60,C4,0.6299212598425197,0.06443302083333435,47.3196105
7,note_on,42,F#2,1,0.06443302083334146,47.47424975
7,note_on,60,C4,0.6299212598425197,0.06443302083334146,47.47424975
7,note_on,70,A#4,1,0.06443302083334146,47.47424975
7,note_on,42,F#2,1,0.06443302083333435,47.628889
7,note_on,70,A#4,1,0.06443302083333435,47.628889
7,note_on,60,C4,0.6299212598425197,0.06443302083333435,47.628889
7,note_on,70,A#4,1,0.06443302083333435,47.78352825
7,note_on,60,C4,0.6299212598425197,0.06443302083333435,47.78352825
7,note_on,42,F#2,1,0.06443302083333435,47.78352825
7,note_on,42,F#2,1,0.06443302083334146,47.9381675
7,note_on,70,A#4,1,0.06443302083334146,47.9381675
7,note_on,63,D#4,1,0.06443302083334146,47.9381675
7,note_on,61,C#4,0.7559055118110236,0.06443302083334146,47.9381675
7,note_on,70,A#4,1,0.06443302083333435,48.09280675
7,note_on,42,F#2,1,0.06443302083333435,48.09280675
7,note_on,63,D#4,1,0.06443302083333435,48.09280675
7,note_on,70,A#4,1,0.06443302083333435,48.247446000000004
7,note_on,42,F#2,1,0.06443302083333435,48.247446000000004
7,note_on,60,C4,0.6299212598425197,0.06443302083333435,48.247446000000004
7,note_on,60,C4,0.6299212598425197,0.06443302083334146,48.40208525
7,note_on,42,F#2,1,0.06443302083334146,48.40208525
7,note_on,70,A#4,1,0.06443302083334146,48.40208525
7,note_on,70,A#4,1,0.06443302083333435,48.5567245
7,note_on,62,D4,1,0.06443302083333435,48.5567245
7,note_on,42,F#2,1,0.06443302083333435,48.5567245
7,note_on,60,C4,0.6299212598425197,0.06443302083333435,48.5567245
7,note_on,42,F#2,1,0.06443302083333435,48.711363750000004
7,note_on,70,A#4,1,0.06443302083333435,48.711363750000004
7,note_on,60,C4,0.6299212598425197,0.06443302083333435,48.711363750000004
7,note_on,70,A#4,1,0.06443302083334146,48.866003
7,note_on,42,F#2,1,0.06443302083334146,48.866003
7,note_on,60,C4,0.6299212598425197,0.06443302083334146,48.866003
7,note_on,60,C4,0.6299212598425197,0.06443302083333435,49.02064225
7,note_on,42,F#2,1,0.06443302083333435,49.02064225
7,note_on,70,A#4,1,0.06443302083333435,49.02064225
7,note_on,70,A#4,1,0.06443302083333435,49.175281500000004
7,note_on,61,C#4,0.7559055118110236,0.06443302083333435,49.175281500000004
7,note_on,42,F#2,1,0.06443302083333435,49.175281500000004
7,note_on,63,D#4,1,0.06443302083333435,49.175281500000004
7,note_on,70,A#4,1,0.06443302083334146,49.32992075
7,note_on,42,F#2,1,0.06443302083334146,49.32992075
7,note_on,63,D#4,1,0.06443302083334146,49.32992075
7,note_on,60,C4,0.6299212598425197,0.06443302083333435,49.48456
7,note_on,42,F#2,1,0.06443302083333435,49.48456
7,note_on,70,A#4,1,0.06443302083333435,49.48456
7,note_on,42,F#2,1,0.06443302083333435,49.639199250000004
7,note_on,60,C4,0.6299212598425197,0.06443302083333435,49.639199250000004
7,note_on,70,A#4,1,0.06443302083333435,49.639199250000004
7,note_on,62,D4,1,0.06443302083334146,49.7938385
7,note_on,70,A#4,1,0.06443302083334146,49.7938385
7,note_on,60,C4,0.6299212598425197,0.06443302083334146,49.7938385
7,note_on,42,F#2,1,0.06443302083334146,49.7938385
7,note_on,60,C4,0.6299212598425197,0.06443302083333435,49.94847775
7,note_on,42,F#2,1,0.06443302083333435,49.94847775
7,note_on,70,A#4,1,0.06443302083333435,49.94847775
7,note_on,42,F#2,1,0.06443302083333435,50.103117000000005
7,note_on,70,A#4,1,0.06443302083333435,50.103117000000005
7,note_on,60,C4,0.6299212598425197,0.06443302083333435,50.103117000000005
7,note_on,42,F#2,1,0.06443302083334146,50.25775625
7,note_on,70,A#4,1,0.06443302083334146,50.25775625
7,note_on,60,C4,0.6299212598425197,0.06443302083334146,50.25775625
7,note_on,42,F#2,1,0.06443302083333435,50.4123955
7,note_on,63,D#4,1,0.06443302083333435,50.4123955
7,note_on,70,A#4,1,0.06443302083333435,50.4123955
7,note_on,61,C#4,0.7559055118110236,0.06443302083333435,50.4123955
7,note_on,63,D#4,1,0.06443302083333435,50.567034750000005
7,note_on,42,F#2,1,0.06443302083333435,50.567034750000005
7,note_on,70,A#4,1,0.06443302083333435,50.567034750000005
7,note_on,70,A#4,1,0.06443302083334146,50.721674
7,note_on,42,F#2,1,0.06443302083334146,50.721674
7,note_on,60,C4,0.6299212598425197,0.06443302083334146,50.721674
7,note_on,42,F#2,1,0.06443302083333435,50.87631325
7,note_on,60,C4,0.6299212598425197,0.06443302083333435,50.87631325
7,note_on,70,A#4,1,0.06443302083333435,50.87631325
7,note_on,42,F#2,1,0.06443302083333435,51.030952500000005
7,note_on,60,C4,0.6299212598425197,0.06443302083333435,51.030952500000005
7,note_on,70,A#4,1,0.06443302083333435,51.030952500000005
7,note_on,62,D4,1,0.06443302083333435,51.030952500000005
7,note_on,42,F#2,1,0.06443302083333435,51.18559175
7,note_on,60,C4,0.6299212598425197,0.06443302083333435,51.18559175
7,note_on,70,A#4,1,0.06443302083333435,51.18559175
7,note_on,42,F#2,1,0.06443302083333435,51.340231
7,note_on,70,A#4,1,0.06443302083333435,51.340231
7,note_on,60,C4,0.6299212598425197,0.06443302083333435,51.340231
7,note_on,42,F#2,1,0.06443302083333435,51.494870250000005
7,note_on,60,C4,0.6299212598425197,0.06443302083333435,51.494870250000005
7,note_on,70,A#4,1,0.06443302083333435,51.494870250000005
7,note_on,42,F#2,1,0.06443302083333435,51.6495095
7,note_on,70,A#4,1,0.06443302083333435,51.6495095
7,note_on,61,C#4,0.7559055118110236,0.06443302083333435,51.6495095
7,note_on,63,D#4,1,0.06443302083333435,51.6495095
7,note_on,70,A#4,1,0.06443302083333435,51.80414875
7,note_on,42,F#2,1,0.06443302083333435,51.80414875
7,note_on,63,D#4,1,0.06443302083333435,51.80414875
7,note_on,60,C4,0.6299212598425197,0.06443302083334146,51.958788
7,note_on,42,F#2,1,0.06443302083334146,51.958788
7,note_on,70,A#4,1,0.06443302083334146,51.958788
7,note_on,42,F#2,1,0.06443302083333435,52.11342725
7,note_on,70,A#4,1,0.06443302083333435,52.11342725
7,note_on,60,C4,0.6299212598425197,0.06443302083333435,52.11342725
7,note_on,42,F#2,1,0.06443302083333435,52.2680665
7,note_on,70,A#4,1,0.06443302083333435,52.2680665
7,note_on,60,C4,0.6299212598425197,0.06443302083333435,52.2680665
7,note_on,62,D4,1,0.06443302083333435,52.2680665
7,note_on,60,C4,0.6299212598425197,0.06443302083334146,52.42270575
7,note_on,42,F#2,1,0.06443302083334146,52.42270575
7,note_on,70,A#4,1,0.06443302083334146,52.42270575
7,note_on,60,C4,0.6299212598425197,0.06443302083333435,52.577345
7,note_on,70,A#4,1,0.06443302083333435,52.577345
7,note_on,42,F#2,1,0.06443302083333435,52.577345
7,note_on,60,C4,0.6299212598425197,0.06443302083333435,52.731984250000004
7,note_on,42,F#2,1,0.06443302083333435,52.731984250000004
7,note_on,70,A#4,1,0.06443302083333435,52.731984250000004
7,note_on,63,D#4,1,0.06443302083334146,52.8866235
7,note_on,61,C#4,0.7559055118110236,0.06443302083334146,52.8866235
7,note_on,42,F#2,1,0.06443302083334146,52.8866235
7,note_on,70,A#4,1,0.06443302083334146,52.8866235
7,note_on,63,D#4,1,0.06443302083333435,53.04126275
7,note_on,70,A#4,1,0.06443302083333435,53.04126275
7,note_on,42,F#2,1,0.06443302083333435,53.04126275
7,note_on,60,C4,0.6299212598425197,0.06443302083333435,53.195902000000004
7,note_on,42,F#2,1,0.06443302083333435,53.195902000000004
7,note_on,70,A#4,1,0.06443302083333435,53.195902000000004
7,note_on,60,C4,0.6299212598425197,0.06443302083334146,53.35054125
7,note_on,70,A#4,1,0.06443302083334146,53.35054125
7,note_on,42,F#2,1,0.06443302083334146,53.35054125
7,note_on,62,D4,1,0.06443302083333435,53.5051805
7,note_on,60,C4,0.6299212598425197,0.06443302083333435,53.5051805
7,note_on,70,A#4,1,0.06443302083333435,53.5051805
7,note_on,42,F#2,1,0.06443302083333435,53.5051805
7,note_on,60,C4,0.6299212598425197,0.06443302083333435,53.659819750000004
7,note_on,42,F#2,1,0.06443302083333435,53.659819750000004
7,note_on,70,A#4,1,0.06443302083333435,53.659819750000004
7,note_on,70,A#4,1,0.06443302083334146,53.814459
7,note_on,42,F#2,1,0.06443302083334146,53.814459
7,note_on,60,C4,0.6299212598425197,0.06443302083334146,53.814459
7,note_on,42,F#2,1,0.06443302083333435,53.96909825
7,note_on,70,A#4,1,0.06443302083333435,53.96909825
7,note_on,60,C4,0.6299212598425197,0.06443302083333435,53.96909825
7,note_on,63,D#4,1,0.06443302083333435,54.123737500000004
7,note_on,61,C#4,0.7559055118110236,0.06443302083333435,54.123737500000004
7,note_on,42,F#2,1,0.06443302083333435,54.123737500000004
7,note_on,70,A#4,1,0.06443302083333435,54.123737500000004
7,note_on,63,D#4,1,0.06443302083334146,54.27837675
7,note_on,42,F#2,1,0.06443302083334146,54.27837675
7,note_on,70,A#4,1,0.06443302083334146,54.27837675
7,note_on,42,F#2,1,0.06443302083333435,54.433016
7,note_on,70,A#4,1,0.06443302083333435,54.433016
7,note_on,60,C4,0.6299212598425197,0.06443302083333435,54.433016
7,note_on,70,A#4,1,0.06443302083333435,54.587655250000005
7,note_on,60,C4,0.6299212598425197,0.06443302083333435,54.587655250000005
7,note_on,42,F#2,1,0.06443302083333435,54.587655250000005
7,note_on,70,A#4,1,0.06443302083334146,54.7422945
7,note_on,42,F#2,1,0.06443302083334146,54.7422945
7,note_on,60,C4,0.6299212598425197,0.06443302083334146,54.7422945
7,note_on,62,D4,1,0.06443302083334146,54.7422945
7,note_on,42,F#2,1,0.06443302083333435,54.89693375
7,note_on,60,C4,0.6299212598425197,0.06443302083333435,54.89693375
7,note_on,70,A#4,1,0.06443302083333435,54.89693375
7,note_on,60,C4,0.6299212598425197,0.06443302083333435,55.051573000000005
7,note_on,42,F#2,1,0.06443302083333435,55.051573000000005
7,note_on,70,A#4,1,0.06443302083333435,55.051573000000005
7,note_on,60,C4,0.6299212598425197,0.06443302083334146,55.20621225
7,note_on,70,A#4,1,0.06443302083334146,55.20621225
7,note_on,42,F#2,1,0.06443302083334146,55.20621225
7,note_on,42,F#2,1,0.06443302083333435,55.3608515
7,note_on,61,C#4,0.7559055118110236,0.06443302083333435,55.3608515
7,note_on,70,A#4,1,0.06443302083333435,55.3608515
7,note_on,63,D#4,1,0.06443302083333435,55.3608515
7,note_on,42,F#2,1,0.06443302083333435,55.515490750000005
7,note_on,63,D#4,1,0.06443302083333435,55.515490750000005
7,note_on,70,A#4,1,0.06443302083333435,55.515490750000005
7,note_on,60,C4,0.6299212598425197,0.06443302083334146,55.67013
7,note_on,42,F#2,1,0.06443302083334146,55.67013
7,note_on,70,A#4,1,0.06443302083334146,55.67013
7,note_on,60,C4,0.6299212598425197,0.06443302083333435,55.82476925
7,note_on,42,F#2,1,0.06443302083333435,55.82476925
7,note_on,70,A#4,1,0.06443302083333435,55.82476925
7,note_on,60,C4,0.6299212598425197,0.06443302083333435,55.979408500000005
7,note_on,70,A#4,1,0.06443302083333435,55.979408500000005
7,note_on,62,D4,1,0.06443302083333435,55.979408500000005
7,note_on,42,F#2,1,0.06443302083333435,55.979408500000005
7,note_on,42,F#2,1,0.06443302083333435,56.13404775
7,note_on,70,A#4,1,0.06443302083333435,56.13404775
7,note_on,60,C4,0.6299212598425197,0.06443302083333435,56.13404775
7,note_on,70,A#4,1,0.06443302083333435,56.288687
7,note_on,42,F#2,1,0.06443302083333435,56.288687
7,note_on,60,C4,0.6299212598425197,0.06443302083333435,56.288687
7,note_on,42,F#2,1,0.06443302083333435,56.443326250000005
7,note_on,60,C4,0.6299212598425197,0.06443302083333435,56.443326250000005
7,note_on,70,A#4,1,0.06443302083333435,56.443326250000005
7,note_on,63,D#4,1,0.06443302083333435,56.5979655
7,note_on,61,C#4,0.7559055118110236,0.06443302083333435,56.5979655
7,note_on,42,F#2,1,0.06443302083333435,56.5979655
7,note_on,70,A#4,1,0.06443302083333435,56.5979655
7,note_on,70,A#4,1,0.06443302083333435,56.75260475
7,note_on,63,D#4,1,0.06443302083333435,56.75260475
7,note_on,42,F#2,1,0.06443302083333435,56.75260475
7,note_on,60,C4,0.6299212598425197,0.06443302083333435,56.907244000000006
7,note_on,42,F#2,1,0.06443302083333435,56.907244000000006
7,note_on,70,A#4,1,0.06443302083333435,56.907244000000006
7,note_on,70,A#4,1,0.06443302083333435,57.06188325
7,note_on,60,C4,0.6299212598425197,0.06443302083333435,57.06188325
7,note_on,42,F#2,1,0.06443302083333435,57.06188325
7,note_on,42,F#2,1,0.06443302083333435,57.2165225
7,note_on,62,D4,1,0.06443302083333435,57.2165225
7,note_on,70,A#4,1,0.06443302083333435,57.2165225
7,note_on,60,C4,0.6299212598425197,0.06443302083333435,57.2165225
7,note_on,60,C4,0.6299212598425197,0.06443302083334146,57.37116175
7,note_on,42,F#2,1,0.06443302083334146,57.37116175
7,note_on,70,A#4,1,0.06443302083334146,57.37116175
7,note_on,60,C4,0.6299212598425197,0.06443302083333435,57.525801
7,note_on,42,F#2,1,0.06443302083333435,57.525801
7,note_on,70,A#4,1,0.06443302083333435,57.525801
7,note_on,70,A#4,1,0.06443302083333435,57.680440250000004
7,note_on,42,F#2,1,0.06443302083333435,57.680440250000004
7,note_on,60,C4,0.6299212598425197,0.06443302083333435,57.680440250000004
7,note_on,42,F#2,1,0.06443302083334146,57.8350795
7,note_on,70,A#4,1,0.06443302083334146,57.8350795
7,note_on,61,C#4,0.7559055118110236,0.06443302083334146,57.8350795
7,note_on,63,D#4,1,0.06443302083334146,57.8350795
7,note_on,42,F#2,1,0.06443302083333435,57.98971875
7,note_on,63,D#4,1,0.06443302083333435,57.98971875
7,note_on,70,A#4,1,0.06443302083333435,57.98971875
7,note_on,60,C4,0.6299212598425197,0.06443302083333435,58.144358000000004
7,note_on,42,F#2,1,0.06443302083333435,58.144358000000004
7,note_on,70,A#4,1,0.06443302083333435,58.144358000000004
7,note_on,70,A#4,1,0.06443302083334146,58.29899725
7,note_on,42,F#2,1,0.06443302083334146,58.29899725
7,note_on,60,C4,0.6299212598425197,0.06443302083334146,58.29899725
7,note_on,62,D4,1,0.06443302083333435,58.4536365
7,note_on,42,F#2,1,0.06443302083333435,58.4536365
7,note_on,60,C4,0.6299212598425197,0.06443302083333435,58.4536365
7,note_on,70,A#4,1,0.06443302083333435,58.4536365
7,note_on,70,A#4,1,0.06443302083333435,58.608275750000004
7,note_on,60,C4,0.6299212598425197,0.06443302083333435,58.608275750000004
7,note_on,42,F#2,1,0.06443302083333435,58.608275750000004
7,note_on,42,F#2,1,0.06443302083334146,58.762915
7,note_on,70,A#4,1,0.06443302083334146,58.762915
7,note_on,60,C4,0.6299212598425197,0.06443302083334146,58.762915
7,note_on,60,C4,0.6299212598425197,0.06443302083333435,58.91755425
7,note_on,70,A#4,1,0.06443302083333435,58.91755425
7,note_on,42,F#2,1,0.06443302083333435,58.91755425
7,note_on,63,D#4,1,0.06443302083333435,59.072193500000004
7,note_on,70,A#4,1,0.06443302083333435,59.072193500000004
7,note_on,42,F#2,1,0.06443302083333435,59.072193500000004
7,note_on,61,C#4,0.7559055118110236,0.06443302083333435,59.072193500000004
7,note_on,42,F#2,1,0.06443302083334146,59.22683275
7,note_on,63,D#4,1,0.06443302083334146,59.22683275
7,note_on,70,A#4,1,0.06443302083334146,59.22683275
7,note_on,70,A#4,1,0.06443302083333435,59.381472
7,note_on,60,C4,0.6299212598425197,0.06443302083333435,59.381472
7,note_on,42,F#2,1,0.06443302083333435,59.381472
7,note_on,60,C4,0.6299212598425197,0.06443302083333435,59.536111250000005
7,note_on,70,A#4,1,0.06443302083333435,59.536111250000005
7,note_on,42,F#2,1,0.06443302083333435,59.536111250000005
7,note_on,60,C4,0.6299212598425197,0.06443302083334146,59.6907505
7,note_on,42,F#2,1,0.06443302083334146,59.6907505
7,note_on,62,D4,1,0.06443302083334146,59.6907505
7,note_on,70,A#4,1,0.06443302083334146,59.6907505
7,note_on,42,F#2,1,0.06443302083333435,59.84538975
7,note_on,70,A#4,1,0.06443302083333435,59.84538975
7,note_on,60,C4,0.6299212598425197,0.06443302083333435,59.84538975
7,note_on,70,A#4,1,0.06443302083333435,60.000029000000005
7,note_on,42,F#2,1,0.06443302083333435,60.000029000000005
7,note_on,60,C4,0.6299212598425197,0.06443302083333435,60.000029000000005
7,note_on,60,C4,0.6299212598425197,0.06443302083334146,60.15466825
7,note_on,70,A#4,1,0.06443302083334146,60.15466825
7,note_on,42,F#2,1,0.06443302083334146,60.15466825
7,note_on,61,C#4,0.7559055118110236,0.06443302083333435,60.3093075
7,note_on,42,F#2,1,0.06443302083333435,60.3093075
7,note_on,63,D#4,1,0.06443302083333435,60.3093075
7,note_on,70,A#4,1,0.06443302083333435,60.3093075
7,note_on,70,A#4,1,0.06443302083333435,60.463946750000005
7,note_on,42,F#2,1,0.06443302083333435,60.463946750000005
7,note_on,63,D#4,1,0.06443302083333435,60.463946750000005
7,note_on,70,A#4,1,0.06443302083334146,60.618586
7,note_on,42,F#2,1,0.06443302083334146,60.618586
7,note_on,60,C4,0.6299212598425197,0.06443302083334146,60.618586
7,note_on,60,C4,0.6299212598425197,0.06443302083333435,60.77322525
7,note_on,42,F#2,1,0.06443302083333435,60.77322525
7,note_on,70,A#4,1,0.06443302083333435,60.77322525
7,note_on,42,F#2,1,0.06443302083333435,60.927864500000005
7,note_on,60,C4,0.6299212598425197,0.06443302083333435,60.927864500000005
7,note_on,70,A#4,1,0.06443302083333435,60.927864500000005
7,note_on,62,D4,1,0.06443302083333435,60.927864500000005
7,note_on,70,A#4,1,0.06443302083333435,61.08250375
7,note_on,42,F#2,1,0.06443302083333435,61.08250375
7,note_on,60,C4,0.6299212598425197,0.06443302083333435,61.08250375
7,note_on,42,F#2,1,0.06443302083333435,61.237143
7,note_on,70,A#4,1,0.06443302083333435,61.237143
7,note_on,60,C4,0.6299212598425197,0.06443302083333435,61.237143
7,note_on,42,F#2,1,0.06443302083333435,61.391782250000006
7,note_on,70,A#4,1,0.06443302083333435,61.391782250000006
7,note_on,60,C4,0.6299212598425197,0.06443302083333435,61.391782250000006
7,note_on,63,D#4,1,0.06443302083333435,61.5464215
7,note_on,70,A#4,1,0.06443302083333435,61.5464215
7,note_on,42,F#2,1,0.06443302083333435,61.5464215
7,note_on,61,C#4,0.7559055118110236,0.06443302083333435,61.5464215
7,note_on,42,F#2,1,0.06443302083333435,61.70106075
7,note_on,70,A#4,1,0.06443302083333435,61.70106075
7,note_on,63,D#4,1,0.06443302083333435,61.70106075
7,note_on,42,F#2,1,0.06443302083334146,61.8557
7,note_on,60,C4,0.6299212598425197,0.06443302083334146,61.8557
7,note_on,70,A#4,1,0.06443302083334146,61.8557
7,note_on,60,C4,0.6299212598425197,0.06443302083333435,62.01033925
7,note_on,70,A#4,1,0.06443302083333435,62.01033925
7,note_on,42,F#2,1,0.06443302083333435,62.01033925
7,note_on,70,A#4,1,0.06443302083333435,62.164978500000004
7,note_on,60,C4,0.6299212598425197,0.06443302083333435,62.164978500000004
7,note_on,62,D4,1,0.06443302083333435,62.164978500000004
7,note_on,42,F#2,1,0.06443302083333435,62.164978500000004
7,note_on,70,A#4,1,0.06443302083334146,62.31961775
7,note_on,42,F#2,1,0.06443302083334146,62.31961775
7,note_on,60,C4,0.6299212598425197,0.06443302083334146,62.31961775
7,note_on,70,A#4,1,0.06443302083333435,62.474257
7,note_on,60,C4,0.6299212598425197,0.06443302083333435,62.474257
7,note_on,42,F#2,1,0.06443302083333435,62.474257
7,note_on,42,F#2,1,0.06443302083333435,62.628896250000004
7,note_on,70,A#4,1,0.06443302083333435,62.628896250000004
7,note_on,60,C4,0.6299212598425197,0.06443302083333435,62.628896250000004
7,note_on,61,C#4,0.7559055118110236,0.06443302083334146,62.7835355
7,note_on,70,A#4,1,0.06443302083334146,62.7835355
7,note_on,63,D#4,1,0.06443302083334146,62.7835355
7,note_on,42,F#2,1,0.06443302083334146,62.7835355
7,note_on,63,D#4,1,0.06443302083333435,62.93817475
7,note_on,70,A#4,1,0.06443302083333435,62.93817475
7,note_on,42,F#2,1,0.06443302083333435,62.93817475
7,note_on,70,A#4,1,0.06443302083333435,63.092814000000004
7,note_on,60,C4,0.6299212598425197,0.06443302083333435,63.092814000000004
7,note_on,42,F#2,1,0.06443302083333435,63.092814000000004
7,note_on,70,A#4,1,0.06443302083334146,63.24745325
7,note_on,60,C4,0.6299212598425197,0.06443302083334146,63.24745325
7,note_on,42,F#2,1,0.06443302083334146,63.24745325
7,note_on,62,D4,1,0.06443302083333435,63.4020925
7,note_on,60,C4,0.6299212598425197,0.06443302083333435,63.4020925
7,note_on,70,A#4,1,0.06443302083333435,63.4020925
7,note_on,42,F#2,1,0.06443302083333435,63.4020925
7,note_on,70,A#4,1,0.06443302083333435,63.556731750000004
7,note_on,60,C4,0.6299212598425197,0.06443302083333435,63.556731750000004
7,note_on,42,F#2,1,0.06443302083333435,63.556731750000004
7,note_on,42,F#2,1,0.06443302083334146,63.711371
7,note_on,60,C4,0.6299212598425197,0.06443302083334146,63.711371
7,note_on,70,A#4,1,0.06443302083334146,63.711371
7,note_on,60,C4,0.6299212598425197,0.06443302083333435,63.86601025
7,note_on,42,F#2,1,0.06443302083333435,63.86601025
7,note_on,70,A#4,1,0.06443302083333435,63.86601025
7,note_on,70,A#4,1,0.06443302083333435,64.0206495
7,note_on,63,D#4,1,0.06443302083333435,64.0206495
7,note_on,61,C#4,0.7559055118110236,0.06443302083333435,64.0206495
7,note_on,42,F#2,1,0.06443302083333435,64.0206495
7,note_on,42,F#2,1,0.06443302083333435,64.17528875
7,note_on,70,A#4,1,0.06443302083333435,64.17528875
7,note_on,63,D#4,1,0.06443302083333435,64.17528875
7,note_on,60,C4,0.6299212598425197,0.06443302083334856,64.329928
7,note_on,70,A#4,1,0.06443302083334856,64.329928
7,note_on,42,F#2,1,0.06443302083334856,64.329928
7,note_on,70,A#4,1,0.06443302083333435,64.48456725
7,note_on,60,C4,0.6299212598425197,0.06443302083333435,64.48456725
7,note_on,42,F#2,1,0.06443302083333435,64.48456725
7,note_on,42,F#2,1,0.06443302083333435,64.6392065
7,note_on,60,C4,0.6299212598425197,0.06443302083333435,64.6392065
7,note_on,70,A#4,1,0.06443302083333435,64.6392065
7,note_on,62,D4,1,0.06443302083333435,64.6392065
7,note_on,70,A#4,1,0.06443302083333435,64.79384575
7,note_on,60,C4,0.6299212598425197,0.06443302083333435,64.79384575
7,note_on,42,F#2,1,0.06443302083333435,64.79384575
7,note_on,70,A#4,1,0.06443302083333435,64.948485
7,note_on,42,F#2,1,0.06443302083333435,64.948485
7,note_on,60,C4,0.6299212598425197,0.06443302083333435,64.948485
7,note_on,60,C4,0.6299212598425197,0.06443302083333435,65.10312425000001
7,note_on,70,A#4,1,0.06443302083333435,65.10312425000001
7,note_on,42,F#2,1,0.06443302083333435,65.10312425000001
7,note_on,61,C#4,0.7559055118110236,0.06443302083334856,65.2577635
7,note_on,42,F#2,1,0.06443302083334856,65.2577635
7,note_on,63,D#4,1,0.06443302083334856,65.2577635
7,note_on,70,A#4,1,0.06443302083334856,65.2577635
7,note_on,42,F#2,1,0.06443302083333435,65.41240275
7,note_on,70,A#4,1,0.06443302083333435,65.41240275
7,note_on,63,D#4,1,0.06443302083333435,65.41240275
7,note_on,60,C4,0.6299212598425197,0.06443302083333435,65.567042
7,note_on,70,A#4,1,0.06443302083333435,65.567042
7,note_on,42,F#2,1,0.06443302083333435,65.567042
7,note_on,42,F#2,1,0.06443302083333435,65.72168125
7,note_on,60,C4,0.6299212598425197,0.06443302083333435,65.72168125
7,note_on,70,A#4,1,0.06443302083333435,65.72168125
7,note_on,70,A#4,1,0.06443302083333435,65.8763205
7,note_on,60,C4,0.6299212598425197,0.06443302083333435,65.8763205
7,note_on,62,D4,1,0.06443302083333435,65.8763205
7,note_on,42,F#2,1,0.06443302083333435,65.8763205
7,note_on,60,C4,0.6299212598425197,0.06443302083333435,66.03095975000001
7,note_on,42,F#2,1,0.06443302083333435,66.03095975000001
7,note_on,70,A#4,1,0.06443302083333435,66.03095975000001
7,note_on,42,F#2,1,0.06443302083334856,66.185599
7,note_on,70,A#4,1,0.06443302083334856,66.185599
7,note_on,60,C4,0.6299212598425197,0.06443302083334856,66.185599
7,note_on,70,A#4,1,0.06443302083333435,66.34023825
7,note_on,42,F#2,1,0.06443302083333435,66.34023825
7,note_on,60,C4,0.6299212598425197,0.06443302083333435,66.34023825
7,note_on,63,D#4,1,0.06443302083333435,66.4948775
7,note_on,61,C#4,0.7559055118110236,0.06443302083333435,66.4948775
7,note_on,42,F#2,1,0.06443302083333435,66.4948775
7,note_on,70,A#4,1,0.06443302083333435,66.4948775
7,note_on,70,A#4,1,0.06443302083333435,66.64951675
7,note_on,63,D#4,1,0.06443302083333435,66.64951675
7,note_on,42,F#2,1,0.06443302083333435,66.64951675
7,note_on,42,F#2,1,0.06443302083333435,66.804156
7,note_on,70,A#4,1,0.06443302083333435,66.804156
7,note_on,60,C4,0.6299212598425197,0.06443302083333435,66.804156
7,note_on,42,F#2,1,0.06443302083333435,66.95879525000001
7,note_on,60,C4,0.6299212598425197,0.06443302083333435,66.95879525000001
7,note_on,70,A#4,1,0.06443302083333435,66.95879525000001
7,note_on,62,D4,1,0.06443302083334856,67.1134345
7,note_on,60,C4,0.6299212598425197,0.06443302083334856,67.1134345
7,note_on,42,F#2,1,0.06443302083334856,67.1134345
7,note_on,70,A#4,1,0.06443302083334856,67.1134345
7,note_on,70,A#4,1,0.06443302083333435,67.26807375
7,note_on,60,C4,0.6299212598425197,0.06443302083333435,67.26807375
7,note_on,42,F#2,1,0.06443302083333435,67.26807375
7,note_on,42,F#2,1,0.06443302083333435,67.422713
7,note_on,70,A#4,1,0.06443302083333435,67.422713
7,note_on,60,C4,0.6299212598425197,0.06443302083333435,67.422713
7,note_on,70,A#4,1,0.06443302083333435,67.57735225
7,note_on,60,C4,0.6299212598425197,0.06443302083333435,67.57735225
7,note_on,42,F#2,1,0.06443302083333435,67.57735225
7,note_on,42,F#2,1,0.06443302083333435,67.7319915
7,note_on,61,C#4,0.7559055118110236,0.06443302083333435,67.7319915
7,note_on,70,A#4,1,0.06443302083333435,67.7319915
7,note_on,63,D#4,1,0.06443302083333435,67.7319915
7,note_on,70,A#4,1,0.06443302083333435,67.88663075000001
7,note_on,63,D#4,1,0.06443302083333435,67.88663075000001
7,note_on,42,F#2,1,0.06443302083333435,67.88663075000001
7,note_on,70,A#4,1,0.06443302083334856,68.04127
7,note_on,60,C4,0.6299212598425197,0.06443302083334856,68.04127
7,note_on,42,F#2,1,0.06443302083334856,68.04127
7,note_on,60,C4,0.6299212598425197,0.06443302083333435,68.19590925
7,note_on,42,F#2,1,0.06443302083333435,68.19590925
7,note_on,70,A#4,1,0.06443302083333435,68.19590925
7,note_on,62,D4,1,0.06443302083333435,68.3505485
7,note_on,70,A#4,1,0.06443302083333435,68.3505485
7,note_on,60,C4,0.6299212598425197,0.06443302083333435,68.3505485
7,note_on,42,F#2,1,0.06443302083333435,68.3505485
7,note_on,42,F#2,1,0.06443302083333435,68.50518775
7,note_on,60,C4,0.6299212598425197,0.06443302083333435,68.50518775
7,note_on,70,A#4,1,0.06443302083333435,68.50518775
7,note_on,60,C4,0.6299212598425197,0.06443302083333435,68.659827
7,note_on,42,F#2,1,0.06443302083333435,68.659827
7,note_on,70,A#4,1,0.06443302083333435,68.659827
7,note_on,42,F#2,1,0.06443302083333435,68.81446625000001
7,note_on,60,C4,0.6299212598425197,0.06443302083333435,68.81446625000001
7,note_on,70,A#4,1,0.06443302083333435,68.81446625000001
7,note_on,63,D#4,1,0.06443302083333435,68.9691055
7,note_on,70,A#4,1,0.06443302083333435,68.9691055
7,note_on,61,C#4,0.7559055118110236,0.06443302083333435,68.9691055
7,note_on,42,F#2,1,0.06443302083333435,68.9691055
7,note_on,42,F#2,1,0.06443302083333435,69.12374475
7,note_on,70,A#4,1,0.06443302083333435,69.12374475
7,note_on,63,D#4,1,0.06443302083333435,69.12374475
7,note_on,42,F#2,1,0.06443302083333435,69.278384
7,note_on,70,A#4,1,0.06443302083333435,69.278384
7,note_on,60,C4,0.6299212598425197,0.06443302083333435,69.278384
7,note_on,60,C4,0.6299212598425197,0.06443302083333435,69.43302325
7,note_on,70,A#4,1,0.06443302083333435,69.43302325
7,note_on,42,F#2,1,0.06443302083333435,69.43302325
7,note_on,60,C4,0.6299212598425197,0.06443302083333435,69.58766250000001
7,note_on,42,F#2,1,0.06443302083333435,69.58766250000001
7,note_on,70,A#4,1,0.06443302083333435,69.58766250000001
7,note_on,62,D4,1,0.06443302083333435,69.58766250000001
7,note_on,70,A#4,1,0.06443302083334856,69.74230175
7,note_on,60,C4,0.6299212598425197,0.06443302083334856,69.74230175
7,note_on,42,F#2,1,0.06443302083334856,69.74230175
7,note_on,60,C4,0.6299212598425197,0.06443302083333435,69.896941
7,note_on,70,A#4,1,0.06443302083333435,69.896941
7,note_on,42,F#2,1,0.06443302083333435,69.896941
7,note_on,60,C4,0.6299212598425197,0.06443302083333435,70.05158025
7,note_on,42,F#2,1,0.06443302083333435,70.05158025
7,note_on,70,A#4,1,0.06443302083333435,70.05158025
7,note_on,70,A#4,1,0.06443302083333435,70.2062195
7,note_on,42,F#2,1,0.06443302083333435,70.2062195
7,note_on,63,D#4,1,0.06443302083333435,70.2062195
7,note_on,61,C#4,0.7559055118110236,0.06443302083333435,70.2062195
7,note_on,42,F#2,1,0.06443302083333435,70.36085875
7,note_on,70,A#4,1,0.06443302083333435,70.36085875
7,note_on,63,D#4,1,0.06443302083333435,70.36085875
7,note_on,60,C4,0.6299212598425197,0.06443302083333435,70.51549800000001
7,note_on,70,A#4,1,0.06443302083333435,70.51549800000001
7,note_on,42,F#2,1,0.06443302083333435,70.51549800000001
7,note_on,70,A#4,1,0.06443302083334856,70.67013725
7,note_on,60,C4,0.6299212598425197,0.06443302083334856,70.67013725
7,note_on,42,F#2,1,0.06443302083334856,70.67013725
7,note_on,62,D4,1,0.06443302083333435,70.8247765
7,note_on,70,A#4,1,0.06443302083333435,70.8247765
7,note_on,42,F#2,1,0.06443302083333435,70.8247765
7,note_on,60,C4,0.6299212598425197,0.06443302083333435,70.8247765
7,note_on,60,C4,0.6299212598425197,0.06443302083333435,70.97941575
7,note_on,42,F#2,1,0.06443302083333435,70.97941575
7,note_on,70,A#4,1,0.06443302083333435,70.97941575
7,note_on,42,F#2,1,0.06443302083333435,71.134055
7,note_on,60,C4,0.6299212598425197,0.06443302083333435,71.134055
7,note_on,70,A#4,1,0.06443302083333435,71.134055
7,note_on,42,F#2,1,0.06443302083333435,71.28869425
7,note_on,60,C4,0.6299212598425197,0.06443302083333435,71.28869425
7,note_on,70,A#4,1,0.06443302083333435,71.28869425
7,note_on,63,D#4,1,0.06443302083333435,71.44333350000001
7,note_on,61,C#4,0.7559055118110236,0.06443302083333435,71.44333350000001
7,note_on,42,F#2,1,0.06443302083333435,71.44333350000001
7,note_on,70,A#4,1,0.06443302083333435,71.44333350000001
7,note_on,63,D#4,1,0.06443302083334856,71.59797275
7,note_on,70,A#4,1,0.06443302083334856,71.59797275
7,note_on,42,F#2,1,0.06443302083334856,71.59797275
7,note_on,70,A#4,1,0.06443302083333435,71.752612
7,note_on,60,C4,0.6299212598425197,0.06443302083333435,71.752612
7,note_on,42,F#2,1,0.06443302083333435,71.752612
7,note_on,60,C4,0.6299212598425197,0.06443302083333435,71.90725125
7,note_on,42,F#2,1,0.06443302083333435,71.90725125
7,note_on,70,A#4,1,0.06443302083333435,71.90725125
7,note_on,70,A#4,1,0.06443302083333435,72.0618905
7,note_on,60,C4,0.6299212598425197,0.06443302083333435,72.0618905
7,note_on,62,D4,1,0.06443302083333435,72.0618905
7,note_on,42,F#2,1,0.06443302083333435,72.0618905
7,note_on,70,A#4,1,0.06443302083333435,72.21652975
7,note_on,60,C4,0.6299212598425197,0.06443302083333435,72.21652975
7,note_on,42,F#2,1,0.06443302083333435,72.21652975
7,note_on,70,A#4,1,0.06443302083333435,72.37116900000001
7,note_on,42,F#2,1,0.06443302083333435,72.37116900000001
7,note_on,60,C4,0.6299212598425197,0.06443302083333435,72.37116900000001
7,note_on,42,F#2,1,0.06443302083334856,72.52580825
7,note_on,70,A#4,1,0.06443302083334856,72.52580825
7,note_on,60,C4,0.6299212598425197,0.06443302083334856,72.52580825
7,note_on,42,F#2,1,0.06443302083333435,72.6804475
7,note_on,61,C#4,0.7559055118110236,0.06443302083333435,72.6804475
7,note_on,70,A#4,1,0.06443302083333435,72.6804475
7,note_on,63,D#4,1,0.06443302083333435,72.6804475
7,note_on,42,F#2,1,0.06443302083333435,72.83508675
7,note_on,63,D#4,1,0.06443302083333435,72.83508675
7,note_on,70,A#4,1,0.06443302083333435,72.83508675
7,note_on,60,C4,0.6299212598425197,0.06443302083333435,72.989726
7,note_on,70,A#4,1,0.06443302083333435,72.989726
7,note_on,42,F#2,1,0.06443302083333435,72.989726
7,note_on,42,F#2,1,0.06443302083333435,73.14436525
7,note_on,70,A#4,1,0.06443302083333435,73.14436525
7,note_on,60,C4,0.6299212598425197,0.06443302083333435,73.14436525
7,note_on,70,A#4,1,0.06443302083333435,73.29900450000001
7,note_on,62,D4,1,0.06443302083333435,73.29900450000001
7,note_on,42,F#2,1,0.06443302083333435,73.29900450000001
7,note_on,60,C4,0.6299212598425197,0.06443302083333435,73.29900450000001
7,note_on,70,A#4,1,0.06443302083333435,73.45364375
7,note_on,42,F#2,1,0.06443302083333435,73.45364375
7,note_on,60,C4,0.6299212598425197,0.06443302083333435,73.45364375
7,note_on,42,F#2,1,0.06443302083333435,73.608283
7,note_on,70,A#4,1,0.06443302083333435,73.608283
7,note_on,60,C4,0.6299212598425197,0.06443302083333435,73.608283
7,note_on,60,C4,0.6299212598425197,0.06443302083333435,73.76292225
7,note_on,70,A#4,1,0.06443302083333435,73.76292225
7,note_on,42,F#2,1,0.06443302083333435,73.76292225
7,note_on,70,A#4,1,0.06443302083333435,73.9175615
7,note_on,63,D#4,1,0.06443302083333435,73.9175615
7,note_on,42,F#2,1,0.06443302083333435,73.9175615
7,note_on,61,C#4,0.7559055118110236,0.06443302083333435,73.9175615
7,note_on,42,F#2,1,0.06443302083333435,74.07220075000001
7,note_on,63,D#4,1,0.06443302083333435,74.07220075000001
7,note_on,70,A#4,1,0.06443302083333435,74.07220075000001
7,note_on,42,F#2,1,0.06443302083333435,74.22684000000001
7,note_on,70,A#4,1,0.06443302083333435,74.22684000000001
7,note_on,60,C4,0.6299212598425197,0.06443302083333435,74.22684000000001
7,note_on,70,A#4,1,0.06443302083333435,74.38147925
7,note_on,42,F#2,1,0.06443302083333435,74.38147925
7,note_on,60,C4,0.6299212598425197,0.06443302083333435,74.38147925
7,note_on,62,D4,1,0.06443302083333435,74.5361185
7,note_on,70,A#4,1,0.06443302083333435,74.5361185
7,note_on,42,F#2,1,0.06443302083333435,74.5361185
7,note_on,60,C4,0.6299212598425197,0.06443302083333435,74.5361185
7,note_on,42,F#2,1,0.06443302083333435,74.69075775
7,note_on,70,A#4,1,0.06443302083333435,74.69075775
7,note_on,60,C4,0.6299212598425197,0.06443302083333435,74.69075775
7,note_on,70,A#4,1,0.06443302083333435,74.845397
7,note_on,42,F#2,1,0.06443302083333435,74.845397
7,note_on,60,C4,0.6299212598425197,0.06443302083333435,74.845397
7,note_on,60,C4,0.6299212598425197,0.06443302083333435,75.00003625000001
7,note_on,42,F#2,1,0.06443302083333435,75.00003625000001
7,note_on,70,A#4,1,0.06443302083333435,75.00003625000001
7,note_on,70,A#4,1,0.06443302083334856,75.1546755
7,note_on,63,D#4,1,0.06443302083334856,75.1546755
7,note_on,61,C#4,0.7559055118110236,0.06443302083334856,75.1546755
7,note_on,42,F#2,1,0.06443302083334856,75.1546755
7,note_on,63,D#4,1,0.06443302083333435,75.30931475
7,note_on,70,A#4,1,0.06443302083333435,75.30931475
7,note_on,42,F#2,1,0.06443302083333435,75.30931475
7,note_on,42,F#2,1,0.06443302083333435,75.463954
7,note_on,70,A#4,1,0.06443302083333435,75.463954
7,note_on,60,C4,0.6299212598425197,0.06443302083333435,75.463954
7,note_on,60,C4,0.6299212598425197,0.06443302083333435,75.61859325
7,note_on,42,F#2,1,0.06443302083333435,75.61859325
7,note_on,70,A#4,1,0.06443302083333435,75.61859325
7,note_on,62,D4,1,0.06443302083333435,75.7732325
7,note_on,60,C4,0.6299212598425197,0.06443302083333435,75.7732325
7,note_on,70,A#4,1,0.06443302083333435,75.7732325
7,note_on,42,F#2,1,0.06443302083333435,75.7732325
7,note_on,60,C4,0.6299212598425197,0.06443302083333435,75.92787175000001
7,note_on,42,F#2,1,0.06443302083333435,75.92787175000001
7,note_on,70,A#4,1,0.06443302083333435,75.92787175000001
7,note_on,42,F#2,1,0.06443302083334856,76.082511
7,note_on,60,C4,0.6299212598425197,0.06443302083334856,76.082511
7,note_on,70,A#4,1,0.06443302083334856,76.082511
7,note_on,70,A#4,1,0.06443302083333435,76.23715025
7,note_on,60,C4,0.6299212598425197,0.06443302083333435,76.23715025
7,note_on,42,F#2,1,0.06443302083333435,76.23715025
7,note_on,63,D#4,1,0.06443302083333435,76.3917895
7,note_on,70,A#4,1,0.06443302083333435,76.3917895
7,note_on,61,C#4,0.7559055118110236,0.06443302083333435,76.3917895
7,note_on,42,F#2,1,0.06443302083333435,76.3917895
7,note_on,70,A#4,1,0.06443302083333435,76.54642875
7,note_on,63,D#4,1,0.06443302083333435,76.54642875
7,note_on,42,F#2,1,0.06443302083333435,76.54642875
7,note_on,70,A#4,1,0.06443302083333435,76.701068
7,note_on,60,C4,0.6299212598425197,0.06443302083333435,76.701068
7,note_on,42,F#2,1,0.06443302083333435,76.701068
7,note_on,70,A#4,1,0.06443302083333435,76.85570725000001
7,note_on,42,F#2,1,0.06443302083333435,76.85570725000001
7,note_on,60,C4,0.6299212598425197,0.06443302083333435,76.85570725000001
7,note_on,62,D4,1,0.06443302083334856,77.0103465
7,note_on,60,C4,0.6299212598425197,0.06443302083334856,77.0103465
7,note_on,70,A#4,1,0.06443302083334856,77.0103465
7,note_on,42,F#2,1,0.06443302083334856,77.0103465
7,note_on,70,A#4,1,0.06443302083333435,77.16498575
7,note_on,60,C4,0.6299212598425197,0.06443302083333435,77.16498575
7,note_on,42,F#2,1,0.06443302083333435,77.16498575
7,note_on,70,A#4,1,0.06443302083333435,77.319625
7,note_on,60,C4,0.6299212598425197,0.06443302083333435,77.319625
7,note_on,42,F#2,1,0.06443302083333435,77.319625
7,note_on,70,A#4,1,0.06443302083333435,77.47426425
7,note_on,42,F#2,1,0.06443302083333435,77.47426425
7,note_on,60,C4,0.6299212598425197,0.06443302083333435,77.47426425
7,note_on,42,F#2,1,0.06443302083333435,77.6289035
7,note_on,61,C#4,0.7559055118110236,0.06443302083333435,77.6289035
7,note_on,70,A#4,1,0.06443302083333435,77.6289035
7,note_on,63,D#4,1,0.06443302083333435,77.6289035
7,note_on,70,A#4,1,0.06443302083333435,77.78354275000001
7,note_on,63,D#4,1,0.06443302083333435,77.78354275000001
7,note_on,42,F#2,1,0.06443302083333435,77.78354275000001
7,note_on,60,C4,0.6299212598425197,0.06443302083334856,77.938182
7,note_on,42,F#2,1,0.06443302083334856,77.938182
7,note_on,70,A#4,1,0.06443302083334856,77.938182
7,note_on,60,C4,0.6299212598425197,0.06443302083333435,78.09282125
7,note_on,42,F#2,1,0.06443302083333435,78.09282125
7,note_on,70,A#4,1,0.06443302083333435,78.09282125
7,note_on,70,A#4,1,0.06443302083333435,78.2474605
7,note_on,60,C4,0.6299212598425197,0.06443302083333435,78.2474605
7,note_on,62,D4,1,0.06443302083333435,78.2474605
7,note_on,42,F#2,1,0.06443302083333435,78.2474605
7,note_on,42,F#2,1,0.06443302083333435,78.40209975
7,note_on,70,A#4,1,0.06443302083333435,78.40209975
7,note_on,60,C4,0.6299212598425197,0.06443302083333435,78.40209975
7,note_on,70,A#4,1,0.06443302083333435,78.55673900000001
7,note_on,60,C4,0.6299212598425197,0.06443302083333435,78.55673900000001
7,note_on,42,F#2,1,0.06443302083333435,78.55673900000001
7,note_on,42,F#2,1,0.06443302083333435,78.71137825000001
7,note_on,60,C4,0.6299212598425197,0.06443302083333435,78.71137825000001
7,note_on,70,A#4,1,0.06443302083333435,78.71137825000001
7,note_on,70,A#4,1,0.06443302083333435,78.8660175
7,note_on,63,D#4,1,0.06443302083333435,78.8660175
7,note_on,61,C#4,0.7559055118110236,0.06443302083333435,78.8660175
7,note_on,42,F#2,1,0.06443302083333435,78.8660175
7,note_on,70,A#4,1,0.06443302083333435,79.02065675
7,note_on,63,D#4,1,0.06443302083333435,79.02065675
7,note_on,42,F#2,1,0.06443302083333435,79.02065675
7,note_on,60,C4,0.6299212598425197,0.06443302083333435,79.175296
7,note_on,42,F#2,1,0.06443302083333435,79.175296
7,note_on,70,A#4,1,0.06443302083333435,79.175296
7,note_on,60,C4,0.6299212598425197,0.06443302083332014,79.32993525
7,note_on,70,A#4,1,0.06443302083332014,79.32993525
7,note_on,42,F#2,1,0.06443302083332014,79.32993525
7,note_on,42,F#2,1,0.06443302083332014,79.48457450000001
7,note_on,60,C4,0.6299212598425197,0.06443302083332014,79.48457450000001
7,note_on,62,D4,1,0.06443302083332014,79.48457450000001
7,note_on,70,A#4,1,0.06443302083332014,79.48457450000001
7,note_on,60,C4,0.6299212598425197,0.06443302083333435,79.63921375
7,note_on,70,A#4,1,0.06443302083333435,79.63921375
7,note_on,42,F#2,1,0.06443302083333435,79.63921375
7,note_on,42,F#2,1,0.06443302083333435,79.793853
7,note_on,70,A#4,1,0.06443302083333435,79.793853
7,note_on,60,C4,0.6299212598425197,0.06443302083333435,79.793853
7,note_on,42,F#2,1,0.06443302083333435,79.94849225
7,note_on,70,A#4,1,0.06443302083333435,79.94849225
7,note_on,60,C4,0.6299212598425197,0.06443302083333435,79.94849225
7,note_on,63,D#4,1,0.06443302083332014,80.1031315
7,note_on,70,A#4,1,0.06443302083332014,80.1031315
7,note_on,42,F#2,1,0.06443302083332014,80.1031315
7,note_on,61,C#4,0.7559055118110236,0.06443302083332014,80.1031315
7,note_on,42,F#2,1,0.06443302083332014,80.25777075
7,note_on,63,D#4,1,0.06443302083332014,80.25777075
7,note_on,70,A#4,1,0.06443302083332014,80.25777075
7,note_on,42,F#2,1,0.06443302083332014,80.41241000000001
7,note_on,70,A#4,1,0.06443302083332014,80.41241000000001
7,note_on,60,C4,0.6299212598425197,0.06443302083332014,80.41241000000001
7,note_on,70,A#4,1,0.06443302083333435,80.56704925
7,note_on,60,C4,0.6299212598425197,0.06443302083333435,80.56704925
7,note_on,42,F#2,1,0.06443302083333435,80.56704925
7,note_on,42,F#2,1,0.06443302083333435,80.7216885
7,note_on,60,C4,0.6299212598425197,0.06443302083333435,80.7216885
7,note_on,62,D4,1,0.06443302083333435,80.7216885
7,note_on,70,A#4,1,0.06443302083333435,80.7216885
7,note_on,60,C4,0.6299212598425197,0.06443302083333435,80.87632775
7,note_on,42,F#2,1,0.06443302083333435,80.87632775
7,note_on,70,A#4,1,0.06443302083333435,80.87632775
7,note_on,70,A#4,1,0.06443302083332014,81.030967
7,note_on,60,C4,0.6299212598425197,0.06443302083332014,81.030967
7,note_on,42,F#2,1,0.06443302083332014,81.030967
7,note_on,60,C4,0.6299212598425197,0.06443302083332014,81.18560625
7,note_on,70,A#4,1,0.06443302083332014,81.18560625
7,note_on,42,F#2,1,0.06443302083332014,81.18560625
7,note_on,42,F#2,1,0.06443302083332014,81.34024550000001
7,note_on,70,A#4,1,0.06443302083332014,81.34024550000001
7,note_on,61,C#4,0.7559055118110236,0.06443302083332014,81.34024550000001
7,note_on,63,D#4,1,0.06443302083332014,81.34024550000001
7,note_on,42,F#2,1,0.06443302083333435,81.49488475
7,note_on,63,D#4,1,0.06443302083333435,81.49488475
7,note_on,70,A#4,1,0.06443302083333435,81.49488475
7,note_on,70,A#4,1,0.06443302083333435,81.649524
7,note_on,42,F#2,1,0.06443302083333435,81.649524
7,note_on,60,C4,0.6299212598425197,0.06443302083333435,81.649524
7,note_on,70,A#4,1,0.06443302083333435,81.80416325
7,note_on,60,C4,0.6299212598425197,0.06443302083333435,81.80416325
7,note_on,42,F#2,1,0.06443302083333435,81.80416325
7,note_on,60,C4,0.6299212598425197,0.06443302083332014,81.9588025
7,note_on,70,A#4,1,0.06443302083332014,81.9588025
7,note_on,62,D4,1,0.06443302083332014,81.9588025
7,note_on,42,F#2,1,0.06443302083332014,81.9588025
7,note_on,70,A#4,1,0.06443302083332014,82.11344175
7,note_on,60,C4,0.6299212598425197,0.06443302083332014,82.11344175
7,note_on,42,F#2,1,0.06443302083332014,82.11344175
7,note_on,70,A#4,1,0.06443302083332014,82.26808100000001
7,note_on,42,F#2,1,0.06443302083332014,82.26808100000001
7,note_on,60,C4,0.6299212598425197,0.06443302083332014,82.26808100000001
7,note_on,70,A#4,1,0.06443302083333435,82.42272025
7,note_on,42,F#2,1,0.06443302083333435,82.42272025
7,note_on,60,C4,0.6299212598425197,0.06443302083333435,82.42272025
7,note_on,42,F#2,1,0.06443302083333435,82.5773595
7,note_on,70,A#4,1,0.06443302083333435,82.5773595
7,note_on,61,C#4,0.7559055118110236,0.06443302083333435,82.5773595
7,note_on,63,D#4,1,0.06443302083333435,82.5773595
7,note_on,42,F#2,1,0.06443302083333435,82.73199875
7,note_on,63,D#4,1,0.06443302083333435,82.73199875
7,note_on,70,A#4,1,0.06443302083333435,82.73199875
7,note_on,70,A#4,1,0.06443302083332014,82.886638
7,note_on,42,F#2,1,0.06443302083332014,82.886638
7,note_on,60,C4,0.6299212598425197,0.06443302083332014,82.886638
7,note_on,60,C4,0.6299212598425197,0.06443302083332014,83.04127725000001
7,note_on,70,A#4,1,0.06443302083332014,83.04127725000001
7,note_on,42,F#2,1,0.06443302083332014,83.04127725000001
7,note_on,60,C4,0.6299212598425197,0.06443302083332014,83.19591650000001
7,note_on,42,F#2,1,0.06443302083332014,83.19591650000001
7,note_on,62,D4,1,0.06443302083332014,83.19591650000001
7,note_on,70,A#4,1,0.06443302083332014,83.19591650000001
7,note_on,42,F#2,1,0.06443302083333435,83.35055575
7,note_on,60,C4,0.6299212598425197,0.06443302083333435,83.35055575
7,note_on,70,A#4,1,0.06443302083333435,83.35055575
7,note_on,42,F#2,1,0.06443302083333435,83.505195
7,note_on,70,A#4,1,0.06443302083333435,83.505195
7,note_on,60,C4,0.6299212598425197,0.06443302083333435,83.505195
7,note_on,60,C4,0.6299212598425197,0.06443302083333435,83.65983425
7,note_on,42,F#2,1,0.06443302083333435,83.65983425
7,note_on,70,A#4,1,0.06443302083333435,83.65983425
7,note_on,70,A#4,1,0.06443302083332014,83.8144735
7,note_on,63,D#4,1,0.06443302083332014,83.8144735
7,note_on,42,F#2,1,0.06443302083332014,83.8144735
7,note_on,61,C#4,0.7559055118110236,0.06443302083332014,83.8144735
7,note_on,63,D#4,1,0.06443302083332014,83.96911275000001
7,note_on,70,A#4,1,0.06443302083332014,83.96911275000001
7,note_on,42,F#2,1,0.06443302083332014,83.96911275000001
7,note_on,70,A#4,1,0.06443302083333435,84.123752
7,note_on,60,C4,0.6299212598425197,0.06443302083333435,84.123752
7,note_on,42,F#2,1,0.06443302083333435,84.123752
7,note_on,60,C4,0.6299212598425197,0.06443302083333435,84.27839125
7,note_on,42,F#2,1,0.06443302083333435,84.27839125
7,note_on,70,A#4,1,0.06443302083333435,84.27839125
7,note_on,70,A#4,1,0.06443302083333435,84.4330305
7,note_on,62,D4,1,0.06443302083333435,84.4330305
7,note_on,42,F#2,1,0.06443302083333435,84.4330305
7,note_on,60,C4,0.6299212598425197,0.06443302083333435,84.4330305
7,note_on,42,F#2,1,0.06443302083333435,84.58766975
7,note_on,60,C4,0.6299212598425197,0.06443302083333435,84.58766975
7,note_on,70,A#4,1,0.06443302083333435,84.58766975
7,note_on,70,A#4,1,0.06443302083332014,84.742309
7,note_on,60,C4,0.6299212598425197,0.06443302083332014,84.742309
7,note_on,42,F#2,1,0.06443302083332014,84.742309
7,note_on,42,F#2,1,0.06443302083332014,84.89694825000001
7,note_on,60,C4,0.6299212598425197,0.06443302083332014,84.89694825000001
7,note_on,70,A#4,1,0.06443302083332014,84.89694825000001
7,note_on,61,C#4,0.7559055118110236,0.06443302083333435,85.0515875
7,note_on,42,F#2,1,0.06443302083333435,85.0515875
7,note_on,70,A#4,1,0.06443302083333435,85.0515875
7,note_on,63,D#4,1,0.06443302083333435,85.0515875
7,note_on,70,A#4,1,0.06443302083333435,85.20622675
7,note_on,63,D#4,1,0.06443302083333435,85.20622675
7,note_on,42,F#2,1,0.06443302083333435,85.20622675
7,note_on,60,C4,0.6299212598425197,0.06443302083333435,85.360866
7,note_on,42,F#2,1,0.06443302083333435,85.360866
7,note_on,70,A#4,1,0.06443302083333435,85.360866
7,note_on,60,C4,0.6299212598425197,0.06443302083332014,85.51550525
7,note_on,42,F#2,1,0.06443302083332014,85.51550525
7,note_on,70,A#4,1,0.06443302083332014,85.51550525
7,note_on,60,C4,0.6299212598425197,0.06443302083332014,85.6701445
7,note_on,70,A#4,1,0.06443302083332014,85.6701445
7,note_on,42,F#2,1,0.06443302083332014,85.6701445
7,note_on,62,D4,1,0.06443302083332014,85.6701445
7,note_on,60,C4,0.6299212598425197,0.06443302083332014,85.82478375000001
7,note_on,42,F#2,1,0.06443302083332014,85.82478375000001
7,note_on,70,A#4,1,0.06443302083332014,85.82478375000001
7,note_on,70,A#4,1,0.06443302083333435,85.979423
7,note_on,60,C4,0.6299212598425197,0.06443302083333435,85.979423
7,note_on,42,F#2,1,0.06443302083333435,85.979423
7,note_on,70,A#4,1,0.06443302083333435,86.13406225
7,note_on,60,C4,0.6299212598425197,0.06443302083333435,86.13406225
7,note_on,42,F#2,1,0.06443302083333435,86.13406225
7,note_on,61,C#4,0.7559055118110236,0.06443302083333435,86.2887015
7,note_on,42,F#2,1,0.06443302083333435,86.2887015
7,note_on,70,A#4,1,0.06443302083333435,86.2887015
7,note_on,63,D#4,1,0.06443302083333435,86.2887015
7,note_on,70,A#4,1,0.06443302083332014,86.44334075
7,note_on,63,D#4,1,0.06443302083332014,86.44334075
7,note_on,42,F#2,1,0.06443302083332014,86.44334075
7,note_on,42,F#2,1,0.06443302083332014,86.59798
7,note_on,70,A#4,1,0.06443302083332014,86.59798
7,note_on,60,C4,0.6299212598425197,0.06443302083332014,86.59798
7,note_on,42,F#2,1,0.06443302083332014,86.75261925000001
7,note_on,60,C4,0.6299212598425197,0.06443302083332014,86.75261925000001
7,note_on,70,A#4,1,0.06443302083332014,86.75261925000001
7,note_on,70,A#4,1,0.06443302083333435,86.9072585
7,note_on,60,C4,0.6299212598425197,0.06443302083333435,86.9072585
7,note_on,62,D4,1,0.06443302083333435,86.9072585
7,note_on,42,F#2,1,0.06443302083333435,86.9072585
7,note_on,70,A#4,1,0.06443302083333435,87.06189775
7,note_on,60,C4,0.6299212598425197,0.06443302083333435,87.06189775
7,note_on,42,F#2,1,0.06443302083333435,87.06189775
7,note_on,42,F#2,1,0.06443302083333435,87.216537
7,note_on,70,A#4,1,0.06443302083333435,87.216537
7,note_on,60,C4,0.6299212598425197,0.06443302083333435,87.216537
7,note_on,70,A#4,1,0.06443302083332014,87.37117625
7,note_on,60,C4,0.6299212598425197,0.06443302083332014,87.37117625
7,note_on,42,F#2,1,0.06443302083332014,87.37117625
7,note_on,61,C#4,0.7559055118110236,0.06443302083332014,87.52581550000001
7,note_on,63,D#4,1,0.06443302083332014,87.52581550000001
7,note_on,70,A#4,1,0.06443302083332014,87.52581550000001
7,note_on,42,F#2,1,0.06443302083332014,87.52581550000001
7,note_on,63,D#4,1,0.06443302083332014,87.68045475000001
7,note_on,42,F#2,1,0.06443302083332014,87.68045475000001
7,note_on,70,A#4,1,0.06443302083332014,87.68045475000001
7,note_on,42,F#2,1,0.06443302083333435,87.835094
7,note_on,70,A#4,1,0.06443302083333435,87.835094
7,note_on,60,C4,0.6299212598425197,0.06443302083333435,87.835094
7,note_on,70,A#4,1,0.06443302083333435,87.98973325
7,note_on,60,C4,0.6299212598425197,0.06443302083333435,87.98973325
7,note_on,42,F#2,1,0.06443302083333435,87.98973325
7,note_on,62,D4,1,0.06443302083333435,88.1443725
7,note_on,70,A#4,1,0.06443302083333435,88.1443725
7,note_on,42,F#2,1,0.06443302083333435,88.1443725
7,note_on,60,C4,0.6299212598425197,0.06443302083333435,88.1443725
7,note_on,70,A#4,1,0.06443302083332014,88.29901175
7,note_on,60,C4,0.6299212598425197,0.06443302083332014,88.29901175
7,note_on,42,F#2,1,0.06443302083332014,88.29901175
7,note_on,70,A#4,1,0.06443302083332014,88.45365100000001
7,note_on,60,C4,0.6299212598425197,0.06443302083332014,88.45365100000001
7,note_on,42,F#2,1,0.06443302083332014,88.45365100000001
7,note_on,60,C4,0.6299212598425197,0.06443302083332014,88.60829025000001
7,note_on,42,F#2,1,0.06443302083332014,88.60829025000001
7,note_on,70,A#4,1,0.06443302083332014,88.60829025000001
7,note_on,63,D#4,1,0.06443302083333435,88.7629295
7,note_on,70,A#4,1,0.06443302083333435,88.7629295
7,note_on,61,C#4,0.7559055118110236,0.06443302083333435,88.7629295
7,note_on,42,F#2,1,0.06443302083333435,88.7629295
7,note_on,70,A#4,1,0.06443302083333435,88.91756875
7,note_on,63,D#4,1,0.06443302083333435,88.91756875
7,note_on,42,F#2,1,0.06443302083333435,88.91756875
7,note_on,60,C4,0.6299212598425197,0.06443302083333435,89.072208
7,note_on,70,A#4,1,0.06443302083333435,89.072208
7,note_on,42,F#2,1,0.06443302083333435,89.072208
7,note_on,42,F#2,1,0.06443302083332014,89.22684725
7,note_on,70,A#4,1,0.06443302083332014,89.22684725
7,note_on,60,C4,0.6299212598425197,0.06443302083332014,89.22684725
7,note_on,42,F#2,1,0.06443302083332014,89.38148650000001
7,note_on,70,A#4,1,0.06443302083332014,89.38148650000001
7,note_on,62,D4,1,0.06443302083332014,89.38148650000001
7,note_on,60,C4,0.6299212598425197,0.06443302083332014,89.38148650000001
7,note_on,42,F#2,1,0.06443302083333435,89.53612575
7,note_on,70,A#4,1,0.06443302083333435,89.53612575
7,note_on,60,C4,0.6299212598425197,0.06443302083333435,89.53612575
7,note_on,70,A#4,1,0.06443302083333435,89.690765
7,note_on,60,C4,0.6299212598425197,0.06443302083333435,89.690765
7,note_on,42,F#2,1,0.06443302083333435,89.690765
7,note_on,42,F#2,1,0.06443302083333435,89.84540425
7,note_on,60,C4,0.6299212598425197,0.06443302083333435,89.84540425
7,note_on,70,A#4,1,0.06443302083333435,89.84540425
7,note_on,63,D#4,1,0.06443302083332014,90.0000435
7,note_on,70,A#4,1,0.06443302083332014,90.0000435
7,note_on,42,F#2,1,0.06443302083332014,90.0000435
7,note_on,61,C#4,0.7559055118110236,0.06443302083332014,90.0000435
7,note_on,70,A#4,1,0.06443302083332014,90.15468275
7,note_on,63,D#4,1,0.06443302083332014,90.15468275
7,note_on,42,F#2,1,0.06443302083332014,90.15468275
7,note_on,60,C4,0.6299212598425197,0.06443302083332014,90.30932200000001
7,note_on,70,A#4,1,0.06443302083332014,90.30932200000001
7,note_on,42,F#2,1,0.06443302083332014,90.30932200000001
7,note_on,42,F#2,1,0.06443302083333435,90.46396125
7,note_on,60,C4,0.6299212598425197,0.06443302083333435,90.46396125
7,note_on,70,A#4,1,0.06443302083333435,90.46396125
7,note_on,70,A#4,1,0.06443302083333435,90.6186005
7,note_on,60,C4,0.6299212598425197,0.06443302083333435,90.6186005
7,note_on,42,F#2,1,0.06443302083333435,90.6186005
7,note_on,62,D4,1,0.06443302083333435,90.6186005
7,note_on,60,C4,0.6299212598425197,0.06443302083333435,90.77323975
7,note_on,42,F#2,1,0.06443302083333435,90.77323975
7,note_on,70,A#4,1,0.06443302083333435,90.77323975
7,note_on,70,A#4,1,0.06443302083332014,90.927879
7,note_on,60,C4,0.6299212598425197,0.06443302083332014,90.927879
7,note_on,42,F#2,1,0.06443302083332014,90.927879
7,note_on,42,F#2,1,0.06443302083332014,91.08251825
7,note_on,70,A#4,1,0.06443302083332014,91.08251825
7,note_on,60,C4,0.6299212598425197,0.06443302083332014,91.08251825
7,note_on,70,A#4,1,0.06443302083332014,91.23715750000001
7,note_on,61,C#4,0.7559055118110236,0.06443302083332014,91.23715750000001
7,note_on,42,F#2,1,0.06443302083332014,91.23715750000001
7,note_on,63,D#4,1,0.06443302083332014,91.23715750000001
7,note_on,70,A#4,1,0.06443302083333435,91.39179675
7,note_on,42,F#2,1,0.06443302083333435,91.39179675
7,note_on,63,D#4,1,0.06443302083333435,91.39179675
7,note_on,42,F#2,1,0.06443302083333435,91.546436
7,note_on,60,C4,0.6299212598425197,0.06443302083333435,91.546436
7,note_on,70,A#4,1,0.06443302083333435,91.546436
7,note_on,42,F#2,1,0.06443302083333435,91.70107525
7,note_on,60,C4,0.6299212598425197,0.06443302083333435,91.70107525
7,note_on,70,A#4,1,0.06443302083333435,91.70107525
7,note_on,42,F#2,1,0.06443302083332014,91.8557145
7,note_on,70,A#4,1,0.06443302083332014,91.8557145
7,note_on,60,C4,0.6299212598425197,0.06443302083332014,91.8557145
7,note_on,62,D4,1,0.06443302083332014,91.8557145
7,note_on,42,F#2,1,0.06443302083332014,92.01035375000001
7,note_on,70,A#4,1,0.06443302083332014,92.01035375000001
7,note_on,60,C4,0.6299212598425197,0.06443302083332014,92.01035375000001
7,note_on,70,A#4,1,0.06443302083332014,92.16499300000001
7,note_on,60,C4,0.6299212598425197,0.06443302083332014,92.16499300000001
7,note_on,42,F#2,1,0.06443302083332014,92.16499300000001
7,note_on,70,A#4,1,0.06443302083333435,92.31963225
7,note_on,60,C4,0.6299212598425197,0.06443302083333435,92.31963225
7,note_on,42,F#2,1,0.06443302083333435,92.31963225
7,note_on,70,A#4,1,0.06443302083333435,92.4742715
7,note_on,42,F#2,1,0.06443302083333435,92.4742715
7,note_on,61,C#4,0.7559055118110236,0.06443302083333435,92.4742715
7,note_on,63,D#4,1,0.06443302083333435,92.4742715
7,note_on,63,D#4,1,0.06443302083333435,92.62891075
7,note_on,70,A#4,1,0.06443302083333435,92.62891075
7,note_on,42,F#2,1,0.06443302083333435,92.62891075
7,note_on,70,A#4,1,0.06443302083332014,92.78355
7,note_on,60,C4,0.6299212598425197,0.06443302083332014,92.78355
7,note_on,42,F#2,1,0.06443302083332014,92.78355
7,note_on,42,F#2,1,0.06443302083332014,92.93818925000001
7,note_on,70,A#4,1,0.06443302083332014,92.93818925000001
7,note_on,60,C4,0.6299212598425197,0.06443302083332014,92.93818925000001
7,note_on,60,C4,0.6299212598425197,0.06443302083332014,93.09282850000001
7,note_on,62,D4,1,0.06443302083332014,93.09282850000001
7,note_on,42,F#2,1,0.06443302083332014,93.09282850000001
7,note_on,70,A#4,1,0.06443302083332014,93.09282850000001
7,note_on,70,A#4,1,0.06443302083333435,93.24746775
7,note_on,60,C4,0.6299212598425197,0.06443302083333435,93.24746775
7,note_on,42,F#2,1,0.06443302083333435,93.24746775
7,note_on,42,F#2,1,0.06443302083333435,93.402107
7,note_on,60,C4,0.6299212598425197,0.06443302083333435,93.402107
7,note_on,70,A#4,1,0.06443302083333435,93.402107
7,note_on,42,F#2,1,0.06443302083333435,93.55674625
7,note_on,60,C4,0.6299212598425197,0.06443302083333435,93.55674625
7,note_on,70,A#4,1,0.06443302083333435,93.55674625
7,note_on,63,D#4,1,0.06443302083332014,93.7113855
7,note_on,70,A#4,1,0.06443302083332014,93.7113855
7,note_on,61,C#4,0.7559055118110236,0.06443302083332014,93.7113855
7,note_on,42,F#2,1,0.06443302083332014,93.7113855
7,note_on,63,D#4,1,0.06443302083332014,93.86602475000001
7,note_on,70,A#4,1,0.06443302083332014,93.86602475000001
7,note_on,42,F#2,1,0.06443302083332014,93.86602475000001
7,note_on,42,F#2,1,0.06443302083332014,94.02066400000001
7,note_on,70,A#4,1,0.06443302083332014,94.02066400000001
7,note_on,60,C4,0.6299212598425197,0.06443302083332014,94.02066400000001
7,note_on,70,A#4,1,0.06443302083333435,94.17530325
7,note_on,42,F#2,1,0.06443302083333435,94.17530325
7,note_on,60,C4,0.6299212598425197,0.06443302083333435,94.17530325
7,note_on,70,A#4,1,0.06443302083333435,94.3299425
7,note_on,62,D4,1,0.06443302083333435,94.3299425
7,note_on,60,C4,0.6299212598425197,0.06443302083333435,94.3299425
7,note_on,42,F#2,1,0.06443302083333435,94.3299425
7,note_on,42,F#2,1,0.06443302083333435,94.48458175
7,note_on,70,A#4,1,0.06443302083333435,94.48458175
7,note_on,60,C4,0.6299212598425197,0.06443302083333435,94.48458175
7,note_on,60,C4,0.6299212598425197,0.06443302083332014,94.639221
7,note_on,70,A#4,1,0.06443302083332014,94.639221
7,note_on,42,F#2,1,0.06443302083332014,94.639221
7,note_on,70,A#4,1,0.06443302083332014,94.79386025000001
7,note_on,60,C4,0.6299212598425197,0.06443302083332014,94.79386025000001
7,note_on,42,F#2,1,0.06443302083332014,94.79386025000001
7,note_on,42,F#2,1,0.06443302083333435,94.9484995
7,note_on,61,C#4,0.7559055118110236,0.06443302083333435,94.9484995
7,note_on,70,A#4,1,0.06443302083333435,94.9484995
7,note_on,63,D#4,1,0.06443302083333435,94.9484995
7,note_on,42,F#2,1,0.06443302083333435,95.10313875
7,note_on,70,A#4,1,0.06443302083333435,95.10313875
7,note_on,63,D#4,1,0.06443302083333435,95.10313875
7,note_on,70,A#4,1,0.06443302083333435,95.257778
7,note_on,42,F#2,1,0.06443302083333435,95.257778
7,note_on,60,C4,0.6299212598425197,0.06443302083333435,95.257778
7,note_on,70,A#4,1,0.06443302083332014,95.41241725
7,note_on,42,F#2,1,0.06443302083332014,95.41241725
7,note_on,60,C4,0.6299212598425197,0.06443302083332014,95.41241725
7,note_on,42,F#2,1,0.06443302083332014,95.5670565
7,note_on,62,D4,1,0.06443302083332014,95.5670565
7,note_on,60,C4,0.6299212598425197,0.06443302083332014,95.5670565
7,note_on,70,A#4,1,0.06443302083332014,95.5670565
7,note_on,70,A#4,1,0.06443302083332014,95.72169575000001
7,note_on,60,C4,0.6299212598425197,0.06443302083332014,95.72169575000001
7,note_on,42,F#2,1,0.06443302083332014,95.72169575000001
7,note_on,70,A#4,1,0.06443302083333435,95.876335
7,note_on,42,F#2,1,0.06443302083333435,95.876335
7,note_on,60,C4,0.6299212598425197,0.06443302083333435,95.876335
7,note_on,60,C4,0.6299212598425197,0.06443302083333435,96.03097425
7,note_on,70,A#4,1,0.06443302083333435,96.03097425
7,note_on,42,F#2,1,0.06443302083333435,96.03097425
7,note_on,61,C#4,0.7559055118110236,0.06443302083333435,96.1856135
7,note_on,42,F#2,1,0.06443302083333435,96.1856135
7,note_on,70,A#4,1,0.06443302083333435,96.1856135
7,note_on,63,D#4,1,0.06443302083333435,96.1856135
7,note_on,70,A#4,1,0.06443302083332014,96.34025275
7,note_on,63,D#4,1,0.06443302083332014,96.34025275
7,note_on,42,F#2,1,0.06443302083332014,96.34025275
7,note_on,60,C4,0.6299212598425197,0.06443302083332014,96.49489200000001
7,note_on,70,A#4,1,0.06443302083332014,96.49489200000001
7,note_on,42,F#2,1,0.06443302083332014,96.49489200000001
7,note_on,60,C4,0.6299212598425197,0.06443302083332014,96.64953125000001
7,note_on,70,A#4,1,0.06443302083332014,96.64953125000001
7,note_on,42,F#2,1,0.06443302083332014,96.64953125000001
7,note_on,42,F#2,1,0.06443302083333435,96.8041705
7,note_on,70,A#4,1,0.06443302083333435,96.8041705
7,note_on,60,C4,0.6299212598425197,0.06443302083333435,96.8041705
7,note_on,62,D4,1,0.06443302083333435,96.8041705
7,note_on,70,A#4,1,0.06443302083333435,96.95880975
7,note_on,42,F#2,1,0.06443302083333435,96.95880975
7,note_on,60,C4,0.6299212598425197,0.06443302083333435,96.95880975
7,note_on,70,A#4,1,0.06443302083333435,97.113449
7,note_on,42,F#2,1,0.06443302083333435,97.113449
7,note_on,60,C4,0.6299212598425197,0.06443302083333435,97.113449
7,note_on,60,C4,0.6299212598425197,0.06443302083332014,97.26808825
7,note_on,42,F#2,1,0.06443302083332014,97.26808825
7,note_on,70,A#4,1,0.06443302083332014,97.26808825
7,note_on,61,C#4,0.7559055118110236,0.06443302083332014,97.42272750000001
7,note_on,42,F#2,1,0.06443302083332014,97.42272750000001
7,note_on,70,A#4,1,0.06443302083332014,97.42272750000001
7,note_on,63,D#4,1,0.06443302083332014,97.42272750000001
7,note_on,63,D#4,1,0.06443302083332014,97.57736675000001
7,note_on,42,F#2,1,0.06443302083332014,97.57736675000001
7,note_on,70,A#4,1,0.06443302083332014,97.57736675000001
7,note_on,42,F#2,1,0.06443302083333435,97.732006
7,note_on,60,C4,0.6299212598425197,0.06443302083333435,97.732006
7,note_on,70,A#4,1,0.06443302083333435,97.732006
7,note_on,42,F#2,1,0.06443302083333435,97.88664525
7,note_on,60,C4,0.6299212598425197,0.06443302083333435,97.88664525
7,note_on,70,A#4,1,0.06443302083333435,97.88664525
7,note_on,42,F#2,1,0.06443302083333435,98.0412845
7,note_on,62,D4,1,0.06443302083333435,98.0412845
7,note_on,60,C4,0.6299212598425197,0.06443302083333435,98.0412845
7,note_on,70,A#4,1,0.06443302083333435,98.0412845
7,note_on,60,C4,0.6299212598425197,0.06443302083332014,98.19592375
7,note_on,42,F#2,1,0.06443302083332014,98.19592375
7,note_on,70,A#4,1,0.06443302083332014,98.19592375
7,note_on,60,C4,0.6299212598425197,0.06443302083332014,98.35056300000001
7,note_on,42,F#2,1,0.06443302083332014,98.35056300000001
7,note_on,70,A#4,1,0.06443302083332014,98.35056300000001
7,note_on,42,F#2,1,0.06443302083332014,98.50520225000001
7,note_on,60,C4,0.6299212598425197,0.06443302083332014,98.50520225000001
7,note_on,70,A#4,1,0.06443302083332014,98.50520225000001
7,note_on,42,F#2,1,0.06443302083333435,98.6598415
7,note_on,70,A#4,1,0.06443302083333435,98.6598415
7,note_on,63,D#4,1,0.06443302083333435,98.6598415
7,note_on,61,C#4,0.7559055118110236,0.06443302083333435,98.6598415
7,note_on,63,D#4,1,0.06443302083333435,98.81448075
7,note_on,70,A#4,1,0.06443302083333435,98.81448075
7,note_on,42,F#2,1,0.06443302083333435,98.81448075
7,note_on,42,F#2,1,0.06443302083333435,98.96912
7,note_on,70,A#4,1,0.06443302083333435,98.96912
7,note_on,60,C4,0.6299212598425197,0.06443302083333435,98.96912
7,note_on,60,C4,0.6299212598425197,0.06443302083332014,99.12375925
7,note_on,70,A#4,1,0.06443302083332014,99.12375925
7,note_on,42,F#2,1,0.06443302083332014,99.12375925
7,note_on,62,D4,1,0.06443302083332014,99.27839850000001
7,note_on,42,F#2,1,0.06443302083332014,99.27839850000001
7,note_on,70,A#4,1,0.06443302083332014,99.27839850000001
7,note_on,60,C4,0.6299212598425197,0.06443302083332014,99.27839850000001
7,note_on,70,A#4,1,0.06443302083333435,99.43303775
7,note_on,42,F#2,1,0.06443302083333435,99.43303775
7,note_on,60,C4,0.6299212598425197,0.06443302083333435,99.43303775
7,note_on,42,F#2,1,0.06443302083333435,99.587677
7,note_on,60,C4,0.6299212598425197,0.06443302083333435,99.587677
7,note_on,70,A#4,1,0.06443302083333435,99.587677
7,note_on,60,C4,0.6299212598425197,0.06443302083333435,99.74231625
7,note_on,70,A#4,1,0.06443302083333435,99.74231625
7,note_on,42,F#2,1,0.06443302083333435,99.74231625
7,note_on,70,A#4,1,0.06443302083332014,99.8969555
7,note_on,42,F#2,1,0.06443302083332014,99.8969555
7,note_on,63,D#4,1,0.06443302083332014,99.8969555
7,note_on,61,C#4,0.7559055118110236,0.06443302083332014,99.8969555
7,note_on,63,D#4,1,0.06443302083332014,100.05159475
7,note_on,42,F#2,1,0.06443302083332014,100.05159475
7,note_on,70,A#4,1,0.06443302083332014,100.05159475
7,note_on,42,F#2,1,0.06443302083332014,100.20623400000001
7,note_on,60,C4,0.6299212598425197,0.06443302083332014,100.20623400000001
7,note_on,70,A#4,1,0.06443302083332014,100.20623400000001
7,note_on,70,A#4,1,0.06443302083333435,100.36087325
7,note_on,60,C4,0.6299212598425197,0.06443302083333435,100.36087325
7,note_on,42,F#2,1,0.06443302083333435,100.36087325
7,note_on,60,C4,0.6299212598425197,0.06443302083333435,100.5155125
7,note_on,70,A#4,1,0.06443302083333435,100.5155125
7,note_on,42,F#2,1,0.06443302083333435,100.5155125
7,note_on,62,D4,1,0.06443302083333435,100.5155125
7,note_on,42,F#2,1,0.06443302083333435,100.67015175
7,note_on,70,A#4,1,0.06443302083333435,100.67015175
7,note_on,60,C4,0.6299212598425197,0.06443302083333435,100.67015175
7,note_on,60,C4,0.6299212598425197,0.06443302083332014,100.824791
7,note_on,42,F#2,1,0.06443302083332014,100.824791
7,note_on,70,A#4,1,0.06443302083332014,100.824791
7,note_on,70,A#4,1,0.06443302083332014,100.97943025000001
7,note_on,60,C4,0.6299212598425197,0.06443302083332014,100.97943025000001
7,note_on,42,F#2,1,0.06443302083332014,100.97943025000001
7,note_on,61,C#4,0.7559055118110236,0.06443302083332014,101.13406950000001
7,note_on,42,F#2,1,0.06443302083332014,101.13406950000001
7,note_on,63,D#4,1,0.06443302083332014,101.13406950000001
7,note_on,70,A#4,1,0.06443302083332014,101.13406950000001
7,note_on,42,F#2,1,0.06443302083333435,101.28870875
7,note_on,63,D#4,1,0.06443302083333435,101.28870875
7,note_on,70,A#4,1,0.06443302083333435,101.28870875
7,note_on,60,C4,0.6299212598425197,0.06443302083333435,101.443348
7,note_on,70,A#4,1,0.06443302083333435,101.443348
7,note_on,42,F#2,1,0.06443302083333435,101.443348
7,note_on,70,A#4,1,0.06443302083333435,101.59798725
7,note_on,42,F#2,1,0.06443302083333435,101.59798725
7,note_on,60,C4,0.6299212598425197,0.06443302083333435,101.59798725
7,note_on,42,F#2,1,0.06443302083332014,101.7526265
7,note_on,62,D4,1,0.06443302083332014,101.7526265
7,note_on,70,A#4,1,0.06443302083332014,101.7526265
7,note_on,60,C4,0.6299212598425197,0.06443302083332014,101.7526265
7,note_on,42,F#2,1,0.06443302083332014,101.90726575000001
7,note_on,70,A#4,1,0.06443302083332014,101.90726575000001
7,note_on,60,C4,0.6299212598425197,0.06443302083332014,101.90726575000001
7,note_on,60,C4,0.6299212598425197,0.06443302083332014,102.06190500000001
7,note_on,70,A#4,1,0.06443302083332014,102.06190500000001
7,note_on,42,F#2,1,0.06443302083332014,102.06190500000001
7,note_on,70,A#4,1,0.06443302083333435,102.21654425
7,note_on,42,F#2,1,0.06443302083333435,102.21654425
7,note_on,60,C4,0.6299212598425197,0.06443302083333435,102.21654425
7,note_on,42,F#2,1,0.06443302083333435,102.3711835
7,note_on,70,A#4,1,0.06443302083333435,102.3711835
7,note_on,63,D#4,1,0.06443302083333435,102.3711835
7,note_on,61,C#4,0.7559055118110236,0.06443302083333435,102.3711835
7,note_on,42,F#2,1,0.06443302083333435,102.52582275
7,note_on,70,A#4,1,0.06443302083333435,102.52582275
7,note_on,63,D#4,1,0.06443302083333435,102.52582275
7,note_on,70,A#4,1,0.06443302083332014,102.680462
7,note_on,42,F#2,1,0.06443302083332014,102.680462
7,note_on,60,C4,0.6299212598425197,0.06443302083332014,102.680462
7,note_on,60,C4,0.6299212598425197,0.06443302083332014,102.83510125000001
7,note_on,42,F#2,1,0.06443302083332014,102.83510125000001
7,note_on,70,A#4,1,0.06443302083332014,102.83510125000001
7,note_on,42,F#2,1,0.06443302083332014,102.98974050000001
7,note_on,60,C4,0.6299212598425197,0.06443302083332014,102.98974050000001
7,note_on,62,D4,1,0.06443302083332014,102.98974050000001
7,note_on,70,A#4,1,0.06443302083332014,102.98974050000001
7,note_on,60,C4,0.6299212598425197,0.06443302083333435,103.14437975
7,note_on,42,F#2,1,0.06443302083333435,103.14437975
7,note_on,70,A#4,1,0.06443302083333435,103.14437975
7,note_on,42,F#2,1,0.06443302083333435,103.299019
7,note_on,60,C4,0.6299212598425197,0.06443302083333435,103.299019
7,note_on,70,A#4,1,0.06443302083333435,103.299019
7,note_on,70,A#4,1,0.06443302083333435,103.45365825
7,note_on,60,C4,0.6299212598425197,0.06443302083333435,103.45365825
7,note_on,42,F#2,1,0.06443302083333435,103.45365825
7,note_on,61,C#4,0.7559055118110236,0.06443302083332014,103.6082975
7,note_on,63,D#4,1,0.06443302083332014,103.6082975
7,note_on,70,A#4,1,0.06443302083332014,103.6082975
7,note_on,42,F#2,1,0.06443302083332014,103.6082975
7,note_on,70,A#4,1,0.06443302083332014,103.76293675000001
7,note_on,42,F#2,1,0.06443302083332014,103.76293675000001
7,note_on,63,D#4,1,0.06443302083332014,103.76293675000001
7,note_on,60,C4,0.6299212598425197,0.06443302083333435,103.917576
7,note_on,70,A#4,1,0.06443302083333435,103.917576
7,note_on,42,F#2,1,0.06443302083333435,103.917576
7,note_on,60,C4,0.6299212598425197,0.06443302083333435,104.07221525
7,note_on,42,F#2,1,0.06443302083333435,104.07221525
7,note_on,70,A#4,1,0.06443302083333435,104.07221525
7,note_on,70,A#4,1,0.06443302083333435,104.2268545
7,note_on,60,C4,0.6299212598425197,0.06443302083333435,104.2268545
7,note_on,62,D4,1,0.06443302083333435,104.2268545
7,note_on,42,F#2,1,0.06443302083333435,104.2268545
7,note_on,42,F#2,1,0.06443302083333435,104.38149375
7,note_on,70,A#4,1,0.06443302083333435,104.38149375
7,note_on,60,C4,0.6299212598425197,0.06443302083333435,104.38149375
7,note_on,70,A#4,1,0.06443302083332014,104.536133
7,note_on,42,F#2,1,0.06443302083332014,104.536133
7,note_on,60,C4,0.6299212598425197,0.06443302083332014,104.536133
7,note_on,42,F#2,1,0.06443302083332014,104.69077225000001
7,note_on,60,C4,0.6299212598425197,0.06443302083332014,104.69077225000001
7,note_on,70,A#4,1,0.06443302083332014,104.69077225000001
7,note_on,63,D#4,1,0.06443302083333435,104.8454115
7,note_on,42,F#2,1,0.06443302083333435,104.8454115
7,note_on,70,A#4,1,0.06443302083333435,104.8454115
7,note_on,61,C#4,0.7559055118110236,0.06443302083333435,104.8454115
7,note_on,70,A#4,1,0.06443302083333435,105.00005075
7,note_on,42,F#2,1,0.06443302083333435,105.00005075
7,note_on,63,D#4,1,0.06443302083333435,105.00005075
7,note_on,70,A#4,1,0.06443302083333435,105.15469
7,note_on,42,F#2,1,0.06443302083333435,105.15469
7,note_on,60,C4,0.6299212598425197,0.06443302083333435,105.15469
7,note_on,70,A#4,1,0.06443302083332014,105.30932925
7,note_on,42,F#2,1,0.06443302083332014,105.30932925
7,note_on,60,C4,0.6299212598425197,0.06443302083332014,105.30932925
7,note_on,70,A#4,1,0.06443302083332014,105.46396850000001
7,note_on,60,C4,0.6299212598425197,0.06443302083332014,105.46396850000001
7,note_on,42,F#2,1,0.06443302083332014,105.46396850000001
7,note_on,62,D4,1,0.06443302083332014,105.46396850000001
7,note_on,70,A#4,1,0.06443302083332014,105.61860775000001
7,note_on,60,C4,0.6299212598425197,0.06443302083332014,105.61860775000001
7,note_on,42,F#2,1,0.06443302083332014,105.61860775000001
7,note_on,42,F#2,1,0.06443302083333435,105.773247
7,note_on,60,C4,0.6299212598425197,0.06443302083333435,105.773247
7,note_on,70,A#4,1,0.06443302083333435,105.773247
7,note_on,42,F#2,1,0.06443302083333435,105.92788625
7,note_on,60,C4,0.6299212598425197,0.06443302083333435,105.92788625
7,note_on,70,A#4,1,0.06443302083333435,105.92788625
7,note_on,70,A#4,1,0.06443302083333435,106.0825255
7,note_on,63,D#4,1,0.06443302083333435,106.0825255
7,note_on,42,F#2,1,0.06443302083333435,106.0825255
7,note_on,61,C#4,0.7559055118110236,0.06443302083333435,106.0825255
7,note_on,42,F#2,1,0.06443302083332014,106.23716475
7,note_on,70,A#4,1,0.06443302083332014,106.23716475
7,note_on,63,D#4,1,0.06443302083332014,106.23716475
7,note_on,70,A#4,1,0.06443302083332014,106.39180400000001
7,note_on,42,F#2,1,0.06443302083332014,106.39180400000001
7,note_on,60,C4,0.6299212598425197,0.06443302083332014,106.39180400000001
7,note_on,60,C4,0.6299212598425197,0.06443302083332014,106.54644325000001
7,note_on,70,A#4,1,0.06443302083332014,106.54644325000001
7,note_on,42,F#2,1,0.06443302083332014,106.54644325000001
7,note_on,42,F#2,1,0.06443302083333435,106.7010825
7,note_on,62,D4,1,0.06443302083333435,106.7010825
7,note_on,60,C4,0.6299212598425197,0.06443302083333435,106.7010825
7,note_on,70,A#4,1,0.06443302083333435,106.7010825
7,note_on,70,A#4,1,0.06443302083333435,106.85572175
7,note_on,42,F#2,1,0.06443302083333435,106.85572175
7,note_on,60,C4,0.6299212598425197,0.06443302083333435,106.85572175
7,note_on,42,F#2,1,0.06443302083333435,107.010361
7,note_on,70,A#4,1,0.06443302083333435,107.010361
7,note_on,60,C4,0.6299212598425197,0.06443302083333435,107.010361
7,note_on,60,C4,0.6299212598425197,0.06443302083332014,107.16500025
7,note_on,42,F#2,1,0.06443302083332014,107.16500025
7,note_on,70,A#4,1,0.06443302083332014,107.16500025
7,note_on,70,A#4,1,0.06443302083332014,107.31963950000001
7,note_on,61,C#4,0.7559055118110236,0.06443302083332014,107.31963950000001
7,note_on,42,F#2,1,0.06443302083332014,107.31963950000001
7,note_on,63,D#4,1,0.06443302083332014,107.31963950000001
7,note_on,42,F#2,1,0.06443302083332014,107.47427875000001
7,note_on,63,D#4,1,0.06443302083332014,107.47427875000001
7,note_on,70,A#4,1,0.06443302083332014,107.47427875000001
7,note_on,70,A#4,1,0.06443302083333435,107.628918
7,note_on,60,C4,0.6299212598425197,0.06443302083333435,107.628918
7,note_on,42,F#2,1,0.06443302083333435,107.628918
7,note_on,70,A#4,1,0.06443302083333435,107.78355725
7,note_on,60,C4,0.6299212598425197,0.06443302083333435,107.78355725
7,note_on,42,F#2,1,0.06443302083333435,107.78355725
7,note_on,60,C4,0.6299212598425197,0.06443302083333435,107.9381965
7,note_on,42,F#2,1,0.06443302083333435,107.9381965
7,note_on,70,A#4,1,0.06443302083333435,107.9381965
7,note_on,62,D4,1,0.06443302083333435,107.9381965
7,note_on,42,F#2,1,0.06443302083332014,108.09283575
7,note_on,70,A#4,1,0.06443302083332014,108.09283575
7,note_on,60,C4,0.6299212598425197,0.06443302083332014,108.09283575
7,note_on,70,A#4,1,0.06443302083332014,108.24747500000001
7,note_on,42,F#2,1,0.06443302083332014,108.24747500000001
7,note_on,60,C4,0.6299212598425197,0.06443302083332014,108.24747500000001
7,note_on,42,F#2,1,0.06443302083332014,108.40211425000001
7,note_on,60,C4,0.6299212598425197,0.06443302083332014,108.40211425000001
7,note_on,70,A#4,1,0.06443302083332014,108.40211425000001
7,note_on,42,F#2,1,0.06443302083333435,108.5567535
7,note_on,61,C#4,0.7559055118110236,0.06443302083333435,108.5567535
7,note_on,63,D#4,1,0.06443302083333435,108.5567535
7,note_on,70,A#4,1,0.06443302083333435,108.5567535
7,note_on,70,A#4,1,0.06443302083333435,108.71139275
7,note_on,42,F#2,1,0.06443302083333435,108.71139275
7,note_on,63,D#4,1,0.06443302083333435,108.71139275
7,note_on,60,C4,0.6299212598425197,0.06443302083333435,108.866032
7,note_on,70,A#4,1,0.06443302083333435,108.866032
7,note_on,42,F#2,1,0.06443302083333435,108.866032
7,note_on,70,A#4,1,0.06443302083332014,109.02067125
7,note_on,60,C4,0.6299212598425197,0.06443302083332014,109.02067125
7,note_on,42,F#2,1,0.06443302083332014,109.02067125
7,note_on,60,C4,0.6299212598425197,0.06443302083332014,109.17531050000001
7,note_on,42,F#2,1,0.06443302083332014,109.17531050000001
7,note_on,70,A#4,1,0.06443302083332014,109.17531050000001
7,note_on,62,D4,1,0.06443302083332014,109.17531050000001
7,note_on,42,F#2,1,0.06443302083333435,109.32994975
7,note_on,70,A#4,1,0.06443302083333435,109.32994975
7,note_on,60,C4,0.6299212598425197,0.06443302083333435,109.32994975
7,note_on,70,A#4,1,0.06443302083333435,109.484589
7,note_on,60,C4,0.6299212598425197,0.06443302083333435,109.484589
7,note_on,42,F#2,1,0.06443302083333435,109.484589
7,note_on,42,F#2,1,0.06443302083333435,109.63922825
7,note_on,70,A#4,1,0.06443302083333435,109.63922825
7,note_on,60,C4,0.6299212598425197,0.06443302083333435,109.63922825
7,note_on,42,F#2,1,0.06443302083332014,109.7938675
7,note_on,61,C#4,0.7559055118110236,0.06443302083332014,109.7938675
7,note_on,63,D#4,1,0.06443302083332014,109.7938675
7,note_on,70,A#4,1,0.06443302083332014,109.7938675
7,note_on,42,F#2,1,0.06443302083332014,109.94850675
7,note_on,70,A#4,1,0.06443302083332014,109.94850675
7,note_on,63,D#4,1,0.06443302083332014,109.94850675
7,note_on,70,A#4,1,0.06443302083332014,110.10314600000001
7,note_on,42,F#2,1,0.06443302083332014,110.10314600000001
7,note_on,60,C4,0.6299212598425197,0.06443302083332014,110.10314600000001
7,note_on,42,F#2,1,0.06443302083333435,110.25778525
7,note_on,60,C4,0.6299212598425197,0.06443302083333435,110.25778525
7,note_on,70,A#4,1,0.06443302083333435,110.25778525
7,note_on,70,A#4,1,0.06443302083333435,110.4124245
7,note_on,62,D4,1,0.06443302083333435,110.4124245
7,note_on,42,F#2,1,0.06443302083333435,110.4124245
7,note_on,60,C4,0.6299212598425197,0.06443302083333435,110.4124245
7,note_on,70,A#4,1,0.06443302083333435,110.56706375
7,note_on,42,F#2,1,0.06443302083333435,110.56706375
7,note_on,60,C4,0.6299212598425197,0.06443302083333435,110.56706375
7,note_on,42,F#2,1,0.06443302083332014,110.721703
7,note_on,70,A#4,1,0.06443302083332014,110.721703
7,note_on,60,C4,0.6299212598425197,0.06443302083332014,110.721703
7,note_on,70,A#4,1,0.06443302083332014,110.87634225000001
7,note_on,42,F#2,1,0.06443302083332014,110.87634225000001
7,note_on,60,C4,0.6299212598425197,0.06443302083332014,110.87634225000001
7,note_on,63,D#4,1,0.06443302083332014,111.03098150000001
7,note_on,70,A#4,1,0.06443302083332014,111.03098150000001
7,note_on,61,C#4,0.7559055118110236,0.06443302083332014,111.03098150000001
7,note_on,42,F#2,1,0.06443302083332014,111.03098150000001
7,note_on,42,F#2,1,0.06443302083333435,111.18562075
7,note_on,63,D#4,1,0.06443302083333435,111.18562075
7,note_on,70,A#4,1,0.06443302083333435,111.18562075
7,note_on,60,C4,0.6299212598425197,0.06443302083333435,111.34026
7,note_on,42,F#2,1,0.06443302083333435,111.34026
7,note_on,70,A#4,1,0.06443302083333435,111.34026
7,note_on,60,C4,0.6299212598425197,0.06443302083333435,111.49489925
7,note_on,42,F#2,1,0.06443302083333435,111.49489925
7,note_on,70,A#4,1,0.06443302083333435,111.49489925
7,note_on,60,C4,0.6299212598425197,0.06443302083332014,111.6495385
7,note_on,70,A#4,1,0.06443302083332014,111.6495385
7,note_on,62,D4,1,0.06443302083332014,111.6495385
7,note_on,42,F#2,1,0.06443302083332014,111.6495385
7,note_on,60,C4,0.6299212598425197,0.06443302083332014,111.80417775000001
7,note_on,70,A#4,1,0.06443302083332014,111.80417775000001
7,note_on,42,F#2,1,0.06443302083332014,111.80417775000001
7,note_on,70,A#4,1,0.06443302083332014,111.95881700000001
7,note_on,42,F#2,1,0.06443302083332014,111.95881700000001
7,note_on,60,C4,0.6299212598425197,0.06443302083332014,111.95881700000001
7,note_on,70,A#4,1,0.06443302083333435,112.11345625
7,note_on,60,C4,0.6299212598425197,0.06443302083333435,112.11345625
7,note_on,42,F#2,1,0.06443302083333435,112.11345625
7,note_on,70,A#4,1,0.06443302083333435,112.2680955
7,note_on,60,C4,0.6299212598425197,0.06443302083333435,112.2680955
7,note_on,61,C#4,0.7559055118110236,0.06443302083333435,112.2680955
7,note_on,42,F#2,1,0.06443302083333435,112.2680955
7,note_on,70,A#4,1,0.06443302083333435,112.42273475
7,note_on,42,F#2,1,0.06443302083333435,112.42273475
7,note_on,35,B1,0.6299212598425197,0.06443302083333435,112.42273475
7,note_on,64,E4,1,0.06443302083333435,112.42273475
7,note_on,70,A#4,1,0.06443302083332014,113.81448800000001
7,note_on,60,C4,0.6299212598425197,0.06443302083332014,113.81448800000001
7,note_on,42,F#2,1,0.06443302083332014,113.81448800000001
7,note_on,60,C4,0.6299212598425197,0.06443302083333435,113.96912725
7,note_on,70,A#4,1,0.06443302083333435,113.96912725
7,note_on,42,F#2,1,0.06443302083333435,113.96912725
7,note_on,60,C4,0.6299212598425197,0.06443302083333435,114.1237665
7,note_on,42,F#2,1,0.06443302083333435,114.1237665
7,note_on,70,A#4,1,0.06443302083333435,114.1237665
7,note_on,62,D4,1,0.06443302083333435,114.1237665
7,note_on,42,F#2,1,0.06443302083333435,114.27840575
7,note_on,60,C4,0.6299212598425197,0.06443302083333435,114.27840575
7,note_on,70,A#4,1,0.06443302083333435,114.27840575
7,note_on,70,A#4,1,0.06443302083332014,114.433045
7,note_on,60,C4,0.6299212598425197,0.06443302083332014,114.433045
7,note_on,42,F#2,1,0.06443302083332014,114.433045
7,note_on,42,F#2,1,0.06443302083332014,114.58768425000001
7,note_on,70,A#4,1,0.06443302083332014,114.58768425000001
7,note_on,60,C4,0.6299212598425197,0.06443302083332014,114.58768425000001
7,note_on,63,D#4,1,0.06443302083333435,114.7423235
7,note_on,70,A#4,1,0.06443302083333435,114.7423235
7,note_on,61,C#4,0.7559055118110236,0.06443302083333435,114.7423235
7,note_on,42,F#2,1,0.06443302083333435,114.7423235
7,note_on,70,A#4,1,0.06443302083333435,114.89696275
7,note_on,63,D#4,1,0.06443302083333435,114.89696275
7,note_on,42,F#2,1,0.06443302083333435,114.89696275
7,note_on,60,C4,0.6299212598425197,0.06443302083333435,115.051602
7,note_on,42,F#2,1,0.06443302083333435,115.051602
7,note_on,70,A#4,1,0.06443302083333435,115.051602
7,note_on,70,A#4,1,0.06443302083332014,115.20624125
7,note_on,42,F#2,1,0.06443302083332014,115.20624125
7,note_on,60,C4,0.6299212598425197,0.06443302083332014,115.20624125
7,note_on,70,A#4,1,0.06443302083332014,115.36088050000001
7,note_on,62,D4,1,0.06443302083332014,115.36088050000001
7,note_on,60,C4,0.6299212598425197,0.06443302083332014,115.36088050000001
7,note_on,42,F#2,1,0.06443302083332014,115.36088050000001
7,note_on,70,A#4,1,0.06443302083332014,115.51551975000001
7,note_on,42,F#2,1,0.06443302083332014,115.51551975000001
7,note_on,60,C4,0.6299212598425197,0.06443302083332014,115.51551975000001
7,note_on,42,F#2,1,0.06443302083333435,115.670159
7,note_on,70,A#4,1,0.06443302083333435,115.670159
7,note_on,60,C4,0.6299212598425197,0.06443302083333435,115.670159
7,note_on,70,A#4,1,0.06443302083333435,115.82479825
7,note_on,60,C4,0.6299212598425197,0.06443302083333435,115.82479825
7,note_on,42,F#2,1,0.06443302083333435,115.82479825
7,note_on,61,C#4,0.7559055118110236,0.06443302083333435,115.9794375
7,note_on,42,F#2,1,0.06443302083333435,115.9794375
7,note_on,63,D#4,1,0.06443302083333435,115.9794375
7,note_on,70,A#4,1,0.06443302083333435,115.9794375
7,note_on,63,D#4,1,0.06443302083332014,116.13407675
7,note_on,70,A#4,1,0.06443302083332014,116.13407675
7,note_on,66,F#4,1,0.06443302083332014,116.13407675
7,note_on,37,C#2,1,0.06443302083332014,116.13407675
7,note_on,42,F#2,1,0.06443302083332014,116.13407675
7,note_on,35,B1,0.6299212598425197,0.06443302083332014,116.13407675
7,note_on,56,G#3,1,0.06443302083332014,116.44335525000001
7,note_on,42,F#2,1,0.06443302083332014,116.44335525000001
7,note_on,70,A#4,1,0.06443302083332014,116.44335525000001
7,note_on,35,B1,0.6299212598425197,0.06443302083332014,116.44335525000001
7,note_on,64,E4,1,0.06443302083332014,116.44335525000001
7,note_on,64,E4,1,0.06443302083333435,116.75263375
7,note_on,56,G#3,1,0.06443302083333435,116.75263375
7,note_on,35,B1,0.6299212598425197,0.06443302083333435,116.75263375
7,note_on,42,F#2,1,0.06443302083333435,116.75263375
7,note_on,70,A#4,1,0.06443302083333435,116.75263375
7,note_on,70,A#4,1,0.06443302083332014,117.06191225
7,note_on,56,G#3,1,0.06443302083332014,117.06191225
7,note_on,42,F#2,1,0.06443302083332014,117.06191225
7,note_on,64,E4,1,0.06443302083332014,117.06191225
7,note_on,35,B1,0.6299212598425197,0.06443302083332014,117.06191225
7,note_on,70,A#4,1,0.06443302083332014,117.37119075000001
7,note_on,64,E4,1,0.06443302083332014,117.37119075000001
7,note_on,42,F#2,1,0.06443302083332014,117.37119075000001
7,note_on,35,B1,0.6299212598425197,0.06443302083332014,117.37119075000001
7,note_on,56,G#3,1,0.06443302083332014,117.37119075000001
7,note_on,65,F4,0.9448818897637795,0.04510311458334115,118.44077889583333
7,note_on,60,C4,0.6299212598425197,0.06443302083333435,118.762944
7,note_on,42,F#2,1,0.06443302083333435,118.762944
7,note_on,70,A#4,1,0.06443302083333435,118.762944
7,note_on,63,D#4,1,0.0193299062499932,118.762944
7,note_on,42,F#2,1,0.06443302083332014,118.91758325
7,note_on,70,A#4,1,0.06443302083332014,118.91758325
7,note_on,60,C4,0.6299212598425197,0.06443302083332014,118.91758325
7,note_on,70,A#4,1,0.06443302083332014,119.07222250000001
7,note_on,42,F#2,1,0.06443302083332014,119.07222250000001
7,note_on,60,C4,0.6299212598425197,0.06443302083332014,119.07222250000001
7,note_on,62,D4,1,0.06443302083332014,119.07222250000001
7,note_on,60,C4,0.6299212598425197,0.06443302083333435,119.22686175
7,note_on,70,A#4,1,0.06443302083333435,119.22686175
7,note_on,42,F#2,1,0.06443302083333435,119.22686175
7,note_on,70,A#4,1,0.06443302083333435,119.381501
7,note_on,60,C4,0.6299212598425197,0.06443302083333435,119.381501
7,note_on,42,F#2,1,0.06443302083333435,119.381501
7,note_on,70,A#4,1,0.06443302083333435,119.53614025
7,note_on,42,F#2,1,0.06443302083333435,119.53614025
7,note_on,60,C4,0.6299212598425197,0.06443302083333435,119.53614025
7,note_on,70,A#4,1,0.06443302083332014,119.6907795
7,note_on,42,F#2,1,0.06443302083332014,119.6907795
7,note_on,61,C#4,0.7559055118110236,0.06443302083332014,119.6907795
7,note_on,63,D#4,1,0.06443302083332014,119.6907795
7,note_on,63,D#4,1,0.06443302083332014,119.84541875000001
7,note_on,42,F#2,1,0.06443302083332014,119.84541875000001
7,note_on,70,A#4,1,0.06443302083332014,119.84541875000001
7,note_on,60,C4,0.6299212598425197,0.06443302083332014,120.00005800000001
7,note_on,70,A#4,1,0.06443302083332014,120.00005800000001
7,note_on,42,F#2,1,0.06443302083332014,120.00005800000001
7,note_on,70,A#4,1,0.06443302083333435,120.15469725
7,note_on,60,C4,0.6299212598425197,0.06443302083333435,120.15469725
7,note_on,42,F#2,1,0.06443302083333435,120.15469725
7,note_on,60,C4,0.6299212598425197,0.06443302083333435,120.3093365
7,note_on,70,A#4,1,0.06443302083333435,120.3093365
7,note_on,62,D4,1,0.06443302083333435,120.3093365
7,note_on,42,F#2,1,0.06443302083333435,120.3093365
7,note_on,42,F#2,1,0.06443302083333435,120.46397575
7,note_on,60,C4,0.6299212598425197,0.06443302083333435,120.46397575
7,note_on,70,A#4,1,0.06443302083333435,120.46397575
7,note_on,70,A#4,1,0.06443302083332014,120.618615
7,note_on,42,F#2,1,0.06443302083332014,120.618615
7,note_on,60,C4,0.6299212598425197,0.06443302083332014,120.618615
7,note_on,42,F#2,1,0.06443302083332014,120.77325425000001
7,note_on,60,C4,0.6299212598425197,0.06443302083332014,120.77325425000001
7,note_on,70,A#4,1,0.06443302083332014,120.77325425000001
7,note_on,70,A#4,1,0.06443302083332014,120.92789350000001
7,note_on,63,D#4,1,0.06443302083332014,120.92789350000001
7,note_on,42,F#2,1,0.06443302083332014,120.92789350000001
7,note_on,61,C#4,0.7559055118110236,0.06443302083332014,120.92789350000001
7,note_on,70,A#4,1,0.06443302083333435,121.08253275
7,note_on,42,F#2,1,0.06443302083333435,121.08253275
7,note_on,63,D#4,1,0.06443302083333435,121.08253275
7,note_on,42,F#2,1,0.06443302083333435,121.237172
7,note_on,70,A#4,1,0.06443302083333435,121.237172
7,note_on,60,C4,0.6299212598425197,0.06443302083333435,121.237172
7,note_on,60,C4,0.6299212598425197,0.06443302083333435,121.39181125
7,note_on,42,F#2,1,0.06443302083333435,121.39181125
7,note_on,70,A#4,1,0.06443302083333435,121.39181125
7,note_on,60,C4,0.6299212598425197,0.06443302083332014,121.5464505
7,note_on,42,F#2,1,0.06443302083332014,121.5464505
7,note_on,62,D4,1,0.06443302083332014,121.5464505
7,note_on,70,A#4,1,0.06443302083332014,121.5464505
7,note_on,70,A#4,1,0.06443302083332014,121.70108975000001
7,note_on,60,C4,0.6299212598425197,0.06443302083332014,121.70108975000001
7,note_on,42,F#2,1,0.06443302083332014,121.70108975000001
7,note_on,60,C4,0.6299212598425197,0.06443302083332014,121.85572900000001
7,note_on,70,A#4,1,0.06443302083332014,121.85572900000001
7,note_on,42,F#2,1,0.06443302083332014,121.85572900000001
7,note_on,70,A#4,1,0.06443302083333435,122.01036825
7,note_on,42,F#2,1,0.06443302083333435,122.01036825
7,note_on,60,C4,0.6299212598425197,0.06443302083333435,122.01036825
7,note_on,63,D#4,1,0.06443302083333435,122.1650075
7,note_on,42,F#2,1,0.06443302083333435,122.1650075
7,note_on,70,A#4,1,0.06443302083333435,122.1650075
7,note_on,61,C#4,0.7559055118110236,0.06443302083333435,122.1650075
7,note_on,70,A#4,1,0.06443302083333435,122.31964675
7,note_on,63,D#4,1,0.06443302083333435,122.31964675
7,note_on,42,F#2,1,0.06443302083333435,122.31964675
7,note_on,60,C4,0.6299212598425197,0.06443302083332014,122.474286
7,note_on,42,F#2,1,0.06443302083332014,122.474286
7,note_on,70,A#4,1,0.06443302083332014,122.474286
7,note_on,70,A#4,1,0.06443302083332014,122.62892525000001
7,note_on,60,C4,0.6299212598425197,0.06443302083332014,122.62892525000001
7,note_on,42,F#2,1,0.06443302083332014,122.62892525000001
7,note_on,70,A#4,1,0.06443302083332014,122.78356450000001
7,note_on,42,F#2,1,0.06443302083332014,122.78356450000001
7,note_on,60,C4,0.6299212598425197,0.06443302083332014,122.78356450000001
7,note_on,62,D4,1,0.06443302083332014,122.78356450000001
7,note_on,42,F#2,1,0.06443302083333435,122.93820375
7,note_on,60,C4,0.6299212598425197,0.06443302083333435,122.93820375
7,note_on,70,A#4,1,0.06443302083333435,122.93820375
7,note_on,70,A#4,1,0.06443302083333435,123.092843
7,note_on,42,F#2,1,0.06443302083333435,123.092843
7,note_on,60,C4,0.6299212598425197,0.06443302083333435,123.092843
7,note_on,70,A#4,1,0.06443302083333435,123.24748225
7,note_on,42,F#2,1,0.06443302083333435,123.24748225
7,note_on,60,C4,0.6299212598425197,0.06443302083333435,123.24748225
7,note_on,63,D#4,1,0.06443302083332014,123.4021215
7,note_on,70,A#4,1,0.06443302083332014,123.4021215
7,note_on,42,F#2,1,0.06443302083332014,123.4021215
7,note_on,61,C#4,0.7559055118110236,0.06443302083332014,123.4021215
7,note_on,42,F#2,1,0.06443302083332014,123.55676075000001
7,note_on,63,D#4,1,0.06443302083332014,123.55676075000001
7,note_on,70,A#4,1,0.06443302083332014,123.55676075000001
7,note_on,70,A#4,1,0.06443302083333435,123.7114
7,note_on,60,C4,0.6299212598425197,0.06443302083333435,123.7114
7,note_on,42,F#2,1,0.06443302083333435,123.7114
7,note_on,70,A#4,1,0.06443302083333435,123.86603925
7,note_on,42,F#2,1,0.06443302083333435,123.86603925
7,note_on,60,C4,0.6299212598425197,0.06443302083333435,123.86603925
7,note_on,42,F#2,1,0.06443302083333435,124.0206785
7,note_on,60,C4,0.6299212598425197,0.06443302083333435,124.0206785
7,note_on,70,A#4,1,0.06443302083333435,124.0206785
7,note_on,62,D4,1,0.06443302083333435,124.0206785
7,note_on,42,F#2,1,0.06443302083333435,124.17531775
7,note_on,60,C4,0.6299212598425197,0.06443302083333435,124.17531775
7,note_on,70,A#4,1,0.06443302083333435,124.17531775
7,note_on,42,F#2,1,0.06443302083332014,124.32995700000001
7,note_on,70,A#4,1,0.06443302083332014,124.32995700000001
7,note_on,60,C4,0.6299212598425197,0.06443302083332014,124.32995700000001
7,note_on,42,F#2,1,0.06443302083332014,124.48459625000001
7,note_on,60,C4,0.6299212598425197,0.06443302083332014,124.48459625000001
7,note_on,70,A#4,1,0.06443302083332014,124.48459625000001
7,note_on,42,F#2,1,0.06443302083333435,124.6392355
7,note_on,70,A#4,1,0.06443302083333435,124.6392355
7,note_on,63,D#4,1,0.06443302083333435,124.6392355
7,note_on,61,C#4,0.7559055118110236,0.06443302083333435,124.6392355
7,note_on,63,D#4,1,0.06443302083333435,124.79387475
7,note_on,70,A#4,1,0.06443302083333435,124.79387475
7,note_on,42,F#2,1,0.06443302083333435,124.79387475
7,note_on,60,C4,0.6299212598425197,0.06443302083333435,124.948514
7,note_on,42,F#2,1,0.06443302083333435,124.948514
7,note_on,70,A#4,1,0.06443302083333435,124.948514
7,note_on,42,F#2,1,0.06443302083332014,125.10315325
7,note_on,70,A#4,1,0.06443302083332014,125.10315325
7,note_on,60,C4,0.6299212598425197,0.06443302083332014,125.10315325
7,note_on,70,A#4,1,0.06443302083332014,125.25779250000001
7,note_on,42,F#2,1,0.06443302083332014,125.25779250000001
7,note_on,60,C4,0.6299212598425197,0.06443302083332014,125.25779250000001
7,note_on,62,D4,1,0.06443302083332014,125.25779250000001
7,note_on,42,F#2,1,0.06443302083332014,125.41243175000001
7,note_on,60,C4,0.6299212598425197,0.06443302083332014,125.41243175000001
7,note_on,70,A#4,1,0.06443302083332014,125.41243175000001
7,note_on,70,A#4,1,0.06443302083333435,125.567071
7,note_on,42,F#2,1,0.06443302083333435,125.567071
7,note_on,60,C4,0.6299212598425197,0.06443302083333435,125.567071
7,note_on,60,C4,0.6299212598425197,0.06443302083333435,125.72171025
7,note_on,70,A#4,1,0.06443302083333435,125.72171025
7,note_on,42,F#2,1,0.06443302083333435,125.72171025
7,note_on,61,C#4,0.7559055118110236,0.06443302083333435,125.8763495
7,note_on,70,A#4,1,0.06443302083333435,125.8763495
7,note_on,63,D#4,1,0.06443302083333435,125.8763495
7,note_on,42,F#2,1,0.06443302083333435,125.8763495
7,note_on,63,D#4,1,0.06443302083332014,126.03098875
7,note_on,70,A#4,1,0.06443302083332014,126.03098875
7,note_on,42,F#2,1,0.06443302083332014,126.03098875
7,note_on,42,F#2,1,0.06443302083332014,126.18562800000001
7,note_on,70,A#4,1,0.06443302083332014,126.18562800000001
7,note_on,60,C4,0.6299212598425197,0.06443302083332014,126.18562800000001
7,note_on,42,F#2,1,0.06443302083332014,126.34026725000001
7,note_on,60,C4,0.6299212598425197,0.06443302083332014,126.34026725000001
7,note_on,70,A#4,1,0.06443302083332014,126.34026725000001
7,note_on,62,D4,1,0.06443302083333435,126.4949065
7,note_on,42,F#2,1,0.06443302083333435,126.4949065
7,note_on,70,A#4,1,0.06443302083333435,126.4949065
7,note_on,60,C4,0.6299212598425197,0.06443302083333435,126.4949065
7,note_on,42,F#2,1,0.06443302083333435,126.64954575
7,note_on,70,A#4,1,0.06443302083333435,126.64954575
7,note_on,60,C4,0.6299212598425197,0.06443302083333435,126.64954575
7,note_on,42,F#2,1,0.06443302083333435,126.804185
7,note_on,60,C4,0.6299212598425197,0.06443302083333435,126.804185
7,note_on,70,A#4,1,0.06443302083333435,126.804185
7,note_on,42,F#2,1,0.06443302083332014,126.95882425
7,note_on,70,A#4,1,0.06443302083332014,126.95882425
7,note_on,60,C4,0.6299212598425197,0.06443302083332014,126.95882425
7,note_on,63,D#4,1,0.06443302083332014,127.11346350000001
7,note_on,61,C#4,0.7559055118110236,0.06443302083332014,127.11346350000001
7,note_on,42,F#2,1,0.06443302083332014,127.11346350000001
7,note_on,70,A#4,1,0.06443302083332014,127.11346350000001
7,note_on,70,A#4,1,0.06443302083332014,127.26810275000001
7,note_on,63,D#4,1,0.06443302083332014,127.26810275000001
7,note_on,42,F#2,1,0.06443302083332014,127.26810275000001
7,note_on,70,A#4,1,0.06443302083333435,127.422742
7,note_on,60,C4,0.6299212598425197,0.06443302083333435,127.422742
7,note_on,42,F#2,1,0.06443302083333435,127.422742
7,note_on,42,F#2,1,0.06443302083333435,127.57738125
7,note_on,60,C4,0.6299212598425197,0.06443302083333435,127.57738125
7,note_on,70,A#4,1,0.06443302083333435,127.57738125
7,note_on,62,D4,1,0.06443302083333435,127.7320205
7,note_on,70,A#4,1,0.06443302083333435,127.7320205
7,note_on,42,F#2,1,0.06443302083333435,127.7320205
7,note_on,60,C4,0.6299212598425197,0.06443302083333435,127.7320205
7,note_on,42,F#2,1,0.06443302083332014,127.88665975
7,note_on,60,C4,0.6299212598425197,0.06443302083332014,127.88665975
7,note_on,70,A#4,1,0.06443302083332014,127.88665975
7,note_on,70,A#4,1,0.06443302083332014,128.041299
7,note_on,60,C4,0.6299212598425197,0.06443302083332014,128.041299
7,note_on,42,F#2,1,0.06443302083332014,128.041299
7,note_on,70,A#4,1,0.06443302083332014,128.19593825
7,note_on,60,C4,0.6299212598425197,0.06443302083332014,128.19593825
7,note_on,42,F#2,1,0.06443302083332014,128.19593825
7,note_on,61,C#4,0.7559055118110236,0.06443302083332014,128.3505775
7,note_on,63,D#4,1,0.06443302083332014,128.3505775
7,note_on,70,A#4,1,0.06443302083332014,128.3505775
7,note_on,42,F#2,1,0.06443302083332014,128.3505775
7,note_on,63,D#4,1,0.06443302083332014,128.50521675000002
7,note_on,70,A#4,1,0.06443302083332014,128.50521675000002
7,note_on,42,F#2,1,0.06443302083332014,128.50521675000002
7,note_on,70,A#4,1,0.06443302083334856,128.659856
7,note_on,42,F#2,1,0.06443302083334856,128.659856
7,note_on,60,C4,0.6299212598425197,0.06443302083334856,128.659856
7,note_on,60,C4,0.6299212598425197,0.06443302083334856,128.81449525
7,note_on,42,F#2,1,0.06443302083334856,128.81449525
7,note_on,70,A#4,1,0.06443302083334856,128.81449525
7,note_on,70,A#4,1,0.06443302083334856,128.9691345
7,note_on,62,D4,1,0.06443302083334856,128.9691345
7,note_on,42,F#2,1,0.06443302083334856,128.9691345
7,note_on,60,C4,0.6299212598425197,0.06443302083334856,128.9691345
7,note_on,60,C4,0.6299212598425197,0.06443302083334856,129.12377375
7,note_on,70,A#4,1,0.06443302083334856,129.12377375
7,note_on,42,F#2,1,0.06443302083334856,129.12377375
7,note_on,60,C4,0.6299212598425197,0.06443302083332014,129.278413
7,note_on,70,A#4,1,0.06443302083332014,129.278413
7,note_on,42,F#2,1,0.06443302083332014,129.278413
7,note_on,70,A#4,1,0.06443302083332014,129.43305225
7,note_on,42,F#2,1,0.06443302083332014,129.43305225
7,note_on,60,C4,0.6299212598425197,0.06443302083332014,129.43305225
7,note_on,42,F#2,1,0.06443302083332014,129.5876915
7,note_on,70,A#4,1,0.06443302083332014,129.5876915
7,note_on,63,D#4,1,0.06443302083332014,129.5876915
7,note_on,61,C#4,0.7559055118110236,0.06443302083332014,129.5876915
7,note_on,63,D#4,1,0.06443302083332014,129.74233075
7,note_on,42,F#2,1,0.06443302083332014,129.74233075
7,note_on,70,A#4,1,0.06443302083332014,129.74233075
7,note_on,70,A#4,1,0.06443302083332014,129.89697
7,note_on,42,F#2,1,0.06443302083332014,129.89697
7,note_on,60,C4,0.6299212598425197,0.06443302083332014,129.89697
7,note_on,42,F#2,1,0.06443302083332014,130.05160925
7,note_on,60,C4,0.6299212598425197,0.06443302083332014,130.05160925
7,note_on,70,A#4,1,0.06443302083332014,130.05160925
7,note_on,70,A#4,1,0.06443302083332014,130.20624850000002
7,note_on,42,F#2,1,0.06443302083332014,130.20624850000002
7,note_on,60,C4,0.6299212598425197,0.06443302083332014,130.20624850000002
7,note_on,62,D4,1,0.06443302083332014,130.20624850000002
7,note_on,70,A#4,1,0.06443302083332014,130.36088775000002
7,note_on,42,F#2,1,0.06443302083332014,130.36088775000002
7,note_on,60,C4,0.6299212598425197,0.06443302083332014,130.36088775000002
7,note_on,60,C4,0.6299212598425197,0.06443302083334856,130.515527
7,note_on,42,F#2,1,0.06443302083334856,130.515527
7,note_on,70,A#4,1,0.06443302083334856,130.515527
7,note_on,70,A#4,1,0.06443302083334856,130.67016625
7,note_on,42,F#2,1,0.06443302083334856,130.67016625
7,note_on,60,C4,0.6299212598425197,0.06443302083334856,130.67016625
7,note_on,63,D#4,1,0.06443302083334856,130.8248055
7,note_on,70,A#4,1,0.06443302083334856,130.8248055
7,note_on,61,C#4,0.7559055118110236,0.06443302083334856,130.8248055
7,note_on,42,F#2,1,0.06443302083334856,130.8248055
7,note_on,63,D#4,1,0.06443302083332014,130.97944475
7,note_on,70,A#4,1,0.06443302083332014,130.97944475
7,note_on,42,F#2,1,0.06443302083332014,130.97944475
7,note_on,42,F#2,1,0.06443302083332014,131.134084
7,note_on,60,C4,0.6299212598425197,0.03221651041667428,131.134084
7,note_on,70,A#4,1,0.03221651041667428,131.134084
7,note_on,42,F#2,1,0.06443302083332014,131.28872325
7,note_on,60,C4,0.6299212598425197,0.03221651041667428,131.28872325
7,note_on,70,A#4,1,0.03221651041667428,131.28872325
7,note_on,70,A#4,1,0.03221651041667428,131.4433625
7,note_on,62,D4,1,0.06443302083332014,131.4433625
7,note_on,42,F#2,1,0.06443302083332014,131.4433625
7,note_on,60,C4,0.6299212598425197,0.03221651041667428,131.4433625
7,note_on,60,C4,0.6299212598425197,0.03221651041667428,131.59800175
7,note_on,70,A#4,1,0.03221651041667428,131.59800175
7,note_on,42,F#2,1,0.06443302083332014,131.59800175
7,note_on,42,F#2,1,0.06443302083332014,131.752641
7,note_on,60,C4,0.6299212598425197,0.03221651041667428,131.752641
7,note_on,70,A#4,1,0.03221651041667428,131.752641
7,note_on,60,C4,0.6299212598425197,0.03221651041667428,131.90728025
7,note_on,42,F#2,1,0.06443302083332014,131.90728025
7,note_on,70,A#4,1,0.03221651041667428,131.90728025
7,note_on,42,F#2,1,0.06443302083332014,132.06191950000002
7,note_on,35,B1,0.6299212598425197,0.06443302083332014,132.06191950000002
7,note_on,61,C#4,0.7559055118110236,0.06443302083332014,132.06191950000002
7,note_on,63,D#4,1,0.06443302083332014,132.06191950000002
7,note_on,70,A#4,1,0.03221651041667428,132.06191950000002
7,note_on,51,D#3,0.7559055118110236,0.06443302083332014,132.06191950000002
7,note_on,65,F4,1,0.06443302083332014,133.2990335
7,note_on,42,F#2,1,0.06443302083332014,133.608312
7,note_on,63,D#4,1,0.03221651041667428,133.608312
7,note_on,60,C4,0.6299212598425197,0.06443302083332014,133.608312
7,note_on,70,A#4,1,0.06443302083332014,133.608312
7,note_on,60,C4,0.6299212598425197,0.06443302083332014,133.76295125000001
7,note_on,42,F#2,1,0.06443302083332014,133.76295125000001
7,note_on,70,A#4,1,0.06443302083332014,133.76295125000001
7,note_on,60,C4,0.6299212598425197,0.06443302083332014,133.91759050000002
7,note_on,42,F#2,1,0.06443302083332014,133.91759050000002
7,note_on,70,A#4,1,0.06443302083332014,133.91759050000002
7,note_on,62,D4,1,0.06443302083332014,133.91759050000002
7,note_on,70,A#4,1,0.06443302083334856,134.07222975
7,note_on,42,F#2,1,0.06443302083334856,134.07222975
7,note_on,60,C4,0.6299212598425197,0.06443302083334856,134.07222975
7,note_on,60,C4,0.6299212598425197,0.06443302083334856,134.226869
7,note_on,70,A#4,1,0.06443302083334856,134.226869
7,note_on,42,F#2,1,0.06443302083334856,134.226869
7,note_on,42,F#2,1,0.06443302083334856,134.38150825
7,note_on,70,A#4,1,0.06443302083334856,134.38150825
7,note_on,60,C4,0.6299212598425197,0.06443302083334856,134.38150825
7,note_on,61,C#4,0.7559055118110236,0.06443302083332014,134.5361475
7,note_on,63,D#4,1,0.06443302083332014,134.5361475
7,note_on,70,A#4,1,0.06443302083332014,134.5361475
7,note_on,42,F#2,1,0.06443302083332014,134.5361475
7,note_on,63,D#4,1,0.06443302083332014,134.69078675
7,note_on,42,F#2,1,0.06443302083332014,134.69078675
7,note_on,70,A#4,1,0.06443302083332014,134.69078675
7,note_on,42,F#2,1,0.06443302083332014,134.845426
7,note_on,60,C4,0.6299212598425197,0.06443302083332014,134.845426
7,note_on,70,A#4,1,0.06443302083332014,134.845426
7,note_on,60,C4,0.6299212598425197,0.06443302083332014,135.00006525
7,note_on,42,F#2,1,0.06443302083332014,135.00006525
7,note_on,70,A#4,1,0.06443302083332014,135.00006525
7,note_on,42,F#2,1,0.06443302083332014,135.1547045
7,note_on,70,A#4,1,0.06443302083332014,135.1547045
7,note_on,62,D4,1,0.06443302083332014,135.1547045
7,note_on,60,C4,0.6299212598425197,0.06443302083332014,135.1547045
7,note_on,70,A#4,1,0.06443302083332014,135.30934375
7,note_on,42,F#2,1,0.06443302083332014,135.30934375
7,note_on,60,C4,0.6299212598425197,0.06443302083332014,135.30934375
7,note_on,60,C4,0.6299212598425197,0.06443302083332014,135.463983
7,note_on,42,F#2,1,0.06443302083332014,135.463983
7,note_on,70,A#4,1,0.06443302083332014,135.463983
7,note_on,70,A#4,1,0.06443302083332014,135.61862225000002
7,note_on,60,C4,0.6299212598425197,0.06443302083332014,135.61862225000002
7,note_on,42,F#2,1,0.06443302083332014,135.61862225000002
7,note_on,70,A#4,1,0.06443302083332014,135.77326150000002
7,note_on,63,D#4,1,0.06443302083332014,135.77326150000002
7,note_on,61,C#4,0.7559055118110236,0.06443302083332014,135.77326150000002
7,note_on,42,F#2,1,0.06443302083332014,135.77326150000002
7,note_on,70,A#4,1,0.06443302083334856,135.92790075
7,note_on,63,D#4,1,0.06443302083334856,135.92790075
7,note_on,42,F#2,1,0.06443302083334856,135.92790075
7,note_on,70,A#4,1,0.06443302083334856,136.08254
7,note_on,60,C4,0.6299212598425197,0.06443302083334856,136.08254
7,note_on,42,F#2,1,0.06443302083334856,136.08254
7,note_on,42,F#2,1,0.06443302083334856,136.23717925
7,note_on,60,C4,0.6299212598425197,0.06443302083334856,136.23717925
7,note_on,70,A#4,1,0.06443302083334856,136.23717925
7,note_on,70,A#4,1,0.06443302083332014,136.3918185
7,note_on,42,F#2,1,0.06443302083332014,136.3918185
7,note_on,60,C4,0.6299212598425197,0.06443302083332014,136.3918185
7,note_on,62,D4,1,0.06443302083332014,136.3918185
7,note_on,42,F#2,1,0.06443302083332014,136.54645775
7,note_on,70,A#4,1,0.06443302083332014,136.54645775
7,note_on,60,C4,0.6299212598425197,0.06443302083332014,136.54645775
7,note_on,70,A#4,1,0.06443302083332014,136.701097
7,note_on,60,C4,0.6299212598425197,0.06443302083332014,136.701097
7,note_on,42,F#2,1,0.06443302083332014,136.701097
7,note_on,60,C4,0.6299212598425197,0.06443302083332014,136.85573625
7,note_on,70,A#4,1,0.06443302083332014,136.85573625
7,note_on,42,F#2,1,0.06443302083332014,136.85573625
7,note_on,70,A#4,1,0.06443302083332014,137.0103755
7,note_on,63,D#4,1,0.06443302083332014,137.0103755
7,note_on,42,F#2,1,0.06443302083332014,137.0103755
7,note_on,61,C#4,0.7559055118110236,0.06443302083332014,137.0103755
7,note_on,70,A#4,1,0.06443302083332014,137.16501475
7,note_on,42,F#2,1,0.06443302083332014,137.16501475
7,note_on,63,D#4,1,0.06443302083332014,137.16501475
7,note_on,60,C4,0.6299212598425197,0.06443302083332014,137.319654
7,note_on,42,F#2,1,0.06443302083332014,137.319654
7,note_on,70,A#4,1,0.06443302083332014,137.319654
7,note_on,42,F#2,1,0.06443302083332014,137.47429325000002
7,note_on,70,A#4,1,0.06443302083332014,137.47429325000002
7,note_on,60,C4,0.6299212598425197,0.06443302083332014,137.47429325000002
7,note_on,42,F#2,1,0.06443302083332014,137.62893250000002
7,note_on,62,D4,1,0.06443302083332014,137.62893250000002
7,note_on,70,A#4,1,0.06443302083332014,137.62893250000002
7,note_on,60,C4,0.6299212598425197,0.06443302083332014,137.62893250000002
7,note_on,70,A#4,1,0.06443302083334856,137.78357175
7,note_on,60,C4,0.6299212598425197,0.06443302083334856,137.78357175
7,note_on,42,F#2,1,0.06443302083334856,137.78357175
7,note_on,42,F#2,1,0.06443302083334856,137.938211
7,note_on,70,A#4,1,0.06443302083334856,137.938211
7,note_on,60,C4,0.6299212598425197,0.06443302083334856,137.938211
7,note_on,60,C4,0.6299212598425197,0.06443302083334856,138.09285025
7,note_on,42,F#2,1,0.06443302083334856,138.09285025
7,note_on,70,A#4,1,0.06443302083334856,138.09285025
7,note_on,63,D#4,1,0.06443302083332014,138.2474895
7,note_on,61,C#4,0.7559055118110236,0.06443302083332014,138.2474895
7,note_on,70,A#4,1,0.06443302083332014,138.2474895
7,note_on,42,F#2,1,0.06443302083332014,138.2474895
7,note_on,63,D#4,1,0.06443302083332014,138.40212875
7,note_on,70,A#4,1,0.06443302083332014,138.40212875
7,note_on,42,F#2,1,0.06443302083332014,138.40212875
7,note_on,60,C4,0.6299212598425197,0.06443302083332014,138.556768
7,note_on,42,F#2,1,0.06443302083332014,138.556768
7,note_on,70,A#4,1,0.06443302083332014,138.556768
7,note_on,70,A#4,1,0.06443302083332014,138.71140725
7,note_on,60,C4,0.6299212598425197,0.06443302083332014,138.71140725
7,note_on,42,F#2,1,0.06443302083332014,138.71140725
7,note_on,42,F#2,1,0.06443302083332014,138.8660465
7,note_on,70,A#4,1,0.06443302083332014,138.8660465
7,note_on,62,D4,1,0.06443302083332014,138.8660465
7,note_on,60,C4,0.6299212598425197,0.06443302083332014,138.8660465
7,note_on,42,F#2,1,0.06443302083332014,139.02068575
7,note_on,70,A#4,1,0.06443302083332014,139.02068575
7,note_on,60,C4,0.6299212598425197,0.06443302083332014,139.02068575
7,note_on,42,F#2,1,0.06443302083332014,139.17532500000002
7,note_on,60,C4,0.6299212598425197,0.06443302083332014,139.17532500000002
7,note_on,70,A#4,1,0.06443302083332014,139.17532500000002
7,note_on,42,F#2,1,0.06443302083332014,139.32996425000002
7,note_on,60,C4,0.6299212598425197,0.06443302083332014,139.32996425000002
7,note_on,70,A#4,1,0.06443302083332014,139.32996425000002
7,note_on,70,A#4,1,0.06443302083334856,139.4846035
7,note_on,63,D#4,1,0.06443302083334856,139.4846035
7,note_on,61,C#4,0.7559055118110236,0.06443302083334856,139.4846035
7,note_on,42,F#2,1,0.06443302083334856,139.4846035
7,note_on,70,A#4,1,0.06443302083334856,139.63924275
7,note_on,63,D#4,1,0.06443302083334856,139.63924275
7,note_on,42,F#2,1,0.06443302083334856,139.63924275
7,note_on,60,C4,0.6299212598425197,0.06443302083334856,139.793882
7,note_on,42,F#2,1,0.06443302083334856,139.793882
7,note_on,70,A#4,1,0.06443302083334856,139.793882
7,note_on,70,A#4,1,0.06443302083332014,139.94852125
7,note_on,60,C4,0.6299212598425197,0.06443302083332014,139.94852125
7,note_on,42,F#2,1,0.06443302083332014,139.94852125
7,note_on,70,A#4,1,0.06443302083332014,140.1031605
7,note_on,62,D4,1,0.06443302083332014,140.1031605
7,note_on,42,F#2,1,0.06443302083332014,140.1031605
7,note_on,60,C4,0.6299212598425197,0.06443302083332014,140.1031605
7,note_on,42,F#2,1,0.06443302083332014,140.25779975
7,note_on,70,A#4,1,0.06443302083332014,140.25779975
7,note_on,60,C4,0.6299212598425197,0.06443302083332014,140.25779975
7,note_on,42,F#2,1,0.06443302083332014,140.412439
7,note_on,60,C4,0.6299212598425197,0.06443302083332014,140.412439
7,note_on,70,A#4,1,0.06443302083332014,140.412439
7,note_on,42,F#2,1,0.06443302083332014,140.56707825
7,note_on,60,C4,0.6299212598425197,0.06443302083332014,140.56707825
7,note_on,70,A#4,1,0.06443302083332014,140.56707825
7,note_on,63,D#4,1,0.06443302083332014,140.7217175
7,note_on,70,A#4,1,0.06443302083332014,140.7217175
7,note_on,42,F#2,1,0.06443302083332014,140.7217175
7,note_on,61,C#4,0.7559055118110236,0.06443302083332014,140.7217175
7,note_on,70,A#4,1,0.06443302083332014,140.87635675
7,note_on,42,F#2,1,0.06443302083332014,140.87635675
7,note_on,63,D#4,1,0.06443302083332014,140.87635675
7,note_on,66,F#4,1,0.06443302083332014,141.03099600000002
7,note_on,42,F#2,1,0.06443302083332014,141.03099600000002
7,note_on,64,E4,1,0.06443302083332014,141.03099600000002
7,note_on,35,B1,0.6299212598425197,0.06443302083332014,141.03099600000002
7,note_on,65,F4,1,0.06443302083334856,143.1959455
7,note_on,42,F#2,1,0.06443302083334856,143.505224
7,note_on,70,A#4,1,0.06443302083334856,143.505224
7,note_on,60,C4,0.6299212598425197,0.06443302083334856,143.505224
7,note_on,60,C4,0.6299212598425197,0.06443302083332014,143.65986325
7,note_on,70,A#4,1,0.06443302083332014,143.65986325
7,note_on,42,F#2,1,0.06443302083332014,143.65986325
7,note_on,42,F#2,1,0.06443302083332014,143.8145025
7,note_on,70,A#4,1,0.06443302083332014,143.8145025
7,note_on,62,D4,1,0.06443302083332014,143.8145025
7,note_on,60,C4,0.6299212598425197,0.06443302083332014,143.8145025
7,note_on,70,A#4,1,0.06443302083332014,143.96914175
7,note_on,42,F#2,1,0.06443302083332014,143.96914175
7,note_on,60,C4,0.6299212598425197,0.06443302083332014,143.96914175
7,note_on,60,C4,0.6299212598425197,0.06443302083332014,144.123781
7,note_on,42,F#2,1,0.06443302083332014,144.123781
7,note_on,70,A#4,1,0.06443302083332014,144.123781
7,note_on,42,F#2,1,0.06443302083332014,144.27842025
7,note_on,70,A#4,1,0.06443302083332014,144.27842025
7,note_on,60,C4,0.6299212598425197,0.06443302083332014,144.27842025
7,note_on,61,C#4,0.7559055118110236,0.06443302083332014,144.4330595
7,note_on,70,A#4,1,0.06443302083332014,144.4330595
7,note_on,63,D#4,1,0.06443302083332014,144.4330595
7,note_on,42,F#2,1,0.06443302083332014,144.4330595
7,note_on,63,D#4,1,0.06443302083332014,144.58769875000002
7,note_on,42,F#2,1,0.06443302083332014,144.58769875000002
7,note_on,70,A#4,1,0.06443302083332014,144.58769875000002
7,note_on,42,F#2,1,0.06443302083332014,144.74233800000002
7,note_on,70,A#4,1,0.06443302083332014,144.74233800000002
7,note_on,60,C4,0.6299212598425197,0.06443302083332014,144.74233800000002
7,note_on,60,C4,0.6299212598425197,0.06443302083334856,144.89697725
7,note_on,42,F#2,1,0.06443302083334856,144.89697725
7,note_on,70,A#4,1,0.06443302083334856,144.89697725
7,note_on,62,D4,1,0.06443302083334856,145.0516165
7,note_on,60,C4,0.6299212598425197,0.06443302083334856,145.0516165
7,note_on,70,A#4,1,0.06443302083334856,145.0516165
7,note_on,42,F#2,1,0.06443302083334856,145.0516165
7,note_on,70,A#4,1,0.06443302083334856,145.20625575
7,note_on,42,F#2,1,0.06443302083334856,145.20625575
7,note_on,60,C4,0.6299212598425197,0.06443302083334856,145.20625575
7,note_on,42,F#2,1,0.06443302083332014,145.360895
7,note_on,60,C4,0.6299212598425197,0.06443302083332014,145.360895
7,note_on,70,A#4,1,0.06443302083332014,145.360895
7,note_on,70,A#4,1,0.06443302083332014,145.51553425
7,note_on,60,C4,0.6299212598425197,0.06443302083332014,145.51553425
7,note_on,42,F#2,1,0.06443302083332014,145.51553425
7,note_on,63,D#4,1,0.06443302083332014,145.6701735
7,note_on,61,C#4,0.7559055118110236,0.06443302083332014,145.6701735
7,note_on,70,A#4,1,0.06443302083332014,145.6701735
7,note_on,42,F#2,1,0.06443302083332014,145.6701735
7,note_on,70,A#4,1,0.06443302083332014,145.82481275
7,note_on,63,D#4,1,0.06443302083332014,145.82481275
7,note_on,42,F#2,1,0.06443302083332014,145.82481275
7,note_on,70,A#4,1,0.06443302083332014,145.979452
7,note_on,60,C4,0.6299212598425197,0.06443302083332014,145.979452
7,note_on,42,F#2,1,0.06443302083332014,145.979452
7,note_on,60,C4,0.6299212598425197,0.06443302083332014,146.13409125
7,note_on,70,A#4,1,0.06443302083332014,146.13409125
7,note_on,42,F#2,1,0.06443302083332014,146.13409125
7,note_on,70,A#4,1,0.06443302083332014,146.2887305
7,note_on,42,F#2,1,0.06443302083332014,146.2887305
7,note_on,62,D4,1,0.06443302083332014,146.2887305
7,note_on,60,C4,0.6299212598425197,0.06443302083332014,146.2887305
7,note_on,70,A#4,1,0.06443302083332014,146.44336975000002
7,note_on,60,C4,0.6299212598425197,0.06443302083332014,146.44336975000002
7,note_on,42,F#2,1,0.06443302083332014,146.44336975000002
7,note_on,60,C4,0.6299212598425197,0.06443302083332014,146.59800900000002
7,note_on,42,F#2,1,0.06443302083332014,146.59800900000002
7,note_on,70,A#4,1,0.06443302083332014,146.59800900000002
7,note_on,42,F#2,1,0.06443302083334856,146.75264825
7,note_on,70,A#4,1,0.06443302083334856,146.75264825
7,note_on,60,C4,0.6299212598425197,0.06443302083334856,146.75264825
7,note_on,63,D#4,1,0.06443302083334856,146.9072875
7,note_on,61,C#4,0.7559055118110236,0.06443302083334856,146.9072875
7,note_on,42,F#2,1,0.06443302083334856,146.9072875
7,note_on,70,A#4,1,0.06443302083334856,146.9072875
7,note_on,42,F#2,1,0.06443302083334856,147.06192675
7,note_on,63,D#4,1,0.06443302083334856,147.06192675
7,note_on,70,A#4,1,0.06443302083334856,147.06192675
7,note_on,42,F#2,1,0.06443302083332014,147.216566
7,note_on,60,C4,0.6299212598425197,0.06443302083332014,147.216566
7,note_on,70,A#4,1,0.06443302083332014,147.216566
7,note_on,70,A#4,1,0.06443302083332014,147.37120525
7,note_on,42,F#2,1,0.06443302083332014,147.37120525
7,note_on,60,C4,0.6299212598425197,0.06443302083332014,147.37120525
7,note_on,42,F#2,1,0.06443302083332014,147.5258445
7,note_on,62,D4,1,0.06443302083332014,147.5258445
7,note_on,60,C4,0.6299212598425197,0.06443302083332014,147.5258445
7,note_on,70,A#4,1,0.06443302083332014,147.5258445
7,note_on,60,C4,0.6299212598425197,0.06443302083332014,147.68048375
7,note_on,42,F#2,1,0.06443302083332014,147.68048375
7,note_on,70,A#4,1,0.06443302083332014,147.68048375
7,note_on,70,A#4,1,0.06443302083332014,147.835123
7,note_on,60,C4,0.6299212598425197,0.06443302083332014,147.835123
7,note_on,42,F#2,1,0.06443302083332014,147.835123
7,note_on,42,F#2,1,0.06443302083332014,147.98976225
7,note_on,60,C4,0.6299212598425197,0.06443302083332014,147.98976225
7,note_on,70,A#4,1,0.06443302083332014,147.98976225
7,note_on,70,A#4,1,0.06443302083332014,148.14440150000001
7,note_on,63,D#4,1,0.06443302083332014,148.14440150000001
7,note_on,42,F#2,1,0.06443302083332014,148.14440150000001
7,note_on,61,C#4,0.7559055118110236,0.06443302083332014,148.14440150000001
7,note_on,42,F#2,1,0.06443302083332014,148.29904075000002
7,note_on,70,A#4,1,0.06443302083332014,148.29904075000002
7,note_on,63,D#4,1,0.06443302083332014,148.29904075000002
7,note_on,42,F#2,1,0.06443302083332014,148.45368000000002
7,note_on,60,C4,0.6299212598425197,0.06443302083332014,148.45368000000002
7,note_on,70,A#4,1,0.06443302083332014,148.45368000000002
7,note_on,70,A#4,1,0.06443302083334856,148.60831925
7,note_on,42,F#2,1,0.06443302083334856,148.60831925
7,note_on,60,C4,0.6299212598425197,0.06443302083334856,148.60831925
7,note_on,42,F#2,1,0.06443302083334856,148.7629585
7,note_on,60,C4,0.6299212598425197,0.06443302083334856,148.7629585
7,note_on,62,D4,1,0.06443302083334856,148.7629585
7,note_on,70,A#4,1,0.06443302083334856,148.7629585
7,note_on,60,C4,0.6299212598425197,0.06443302083334856,148.91759775
7,note_on,42,F#2,1,0.06443302083334856,148.91759775
7,note_on,70,A#4,1,0.06443302083334856,148.91759775
7,note_on,70,A#4,1,0.06443302083332014,149.072237
7,note_on,60,C4,0.6299212598425197,0.06443302083332014,149.072237
7,note_on,42,F#2,1,0.06443302083332014,149.072237
7,note_on,60,C4,0.6299212598425197,0.06443302083332014,149.22687625
7,note_on,70,A#4,1,0.06443302083332014,149.22687625
7,note_on,42,F#2,1,0.06443302083332014,149.22687625
7,note_on,61,C#4,0.7559055118110236,0.06443302083332014,149.3815155
7,note_on,42,F#2,1,0.06443302083332014,149.3815155
7,note_on,70,A#4,1,0.06443302083332014,149.3815155
7,note_on,63,D#4,1,0.06443302083332014,149.3815155
7,note_on,63,D#4,1,0.06443302083332014,149.53615475
7,note_on,42,F#2,1,0.06443302083332014,149.53615475
7,note_on,70,A#4,1,0.06443302083332014,149.53615475
7,note_on,42,F#2,1,0.06443302083332014,149.690794
7,note_on,60,C4,0.6299212598425197,0.06443302083332014,149.690794
7,note_on,70,A#4,1,0.06443302083332014,149.690794
7,note_on,70,A#4,1,0.06443302083332014,149.84543325
7,note_on,42,F#2,1,0.06443302083332014,149.84543325
7,note_on,60,C4,0.6299212598425197,0.06443302083332014,149.84543325
7,note_on,60,C4,0.6299212598425197,0.06443302083332014,150.00007250000002
7,note_on,42,F#2,1,0.06443302083332014,150.00007250000002
7,note_on,62,D4,1,0.06443302083332014,150.00007250000002
7,note_on,70,A#4,1,0.06443302083332014,150.00007250000002
7,note_on,42,F#2,1,0.06443302083332014,150.15471175000002
7,note_on,60,C4,0.6299212598425197,0.06443302083332014,150.15471175000002
7,note_on,70,A#4,1,0.06443302083332014,150.15471175000002
7,note_on,70,A#4,1,0.06443302083334856,150.309351
7,note_on,42,F#2,1,0.06443302083334856,150.309351
7,note_on,60,C4,0.6299212598425197,0.06443302083334856,150.309351
7,note_on,70,A#4,1,0.06443302083334856,150.46399025
7,note_on,42,F#2,1,0.06443302083334856,150.46399025
7,note_on,60,C4,0.6299212598425197,0.06443302083334856,150.46399025
7,note_on,70,A#4,1,0.06443302083334856,150.6186295
7,note_on,63,D#4,1,0.06443302083334856,150.6186295
7,note_on,61,C#4,0.7559055118110236,0.06443302083334856,150.6186295
7,note_on,42,F#2,1,0.06443302083334856,150.6186295
7,note_on,42,F#2,1,0.06443302083332014,150.77326875
7,note_on,70,A#4,1,0.06443302083332014,150.77326875
7,note_on,63,D#4,1,0.06443302083332014,150.77326875
7,note_on,60,C4,0.6299212598425197,0.06443302083332014,150.927908
7,note_on,42,F#2,1,0.06443302083332014,150.927908
7,note_on,70,A#4,1,0.06443302083332014,150.927908
7,note_on,70,A#4,1,0.06443302083332014,151.08254725
7,note_on,42,F#2,1,0.06443302083332014,151.08254725
7,note_on,60,C4,0.6299212598425197,0.06443302083332014,151.08254725
7,note_on,62,D4,1,0.06443302083332014,151.2371865
7,note_on,60,C4,0.6299212598425197,0.06443302083332014,151.2371865
7,note_on,42,F#2,1,0.06443302083332014,151.2371865
7,note_on,70,A#4,1,0.06443302083332014,151.2371865
7,note_on,60,C4,0.6299212598425197,0.06443302083332014,151.39182575
7,note_on,70,A#4,1,0.06443302083332014,151.39182575
7,note_on,42,F#2,1,0.06443302083332014,151.39182575
7,note_on,70,A#4,1,0.06443302083332014,151.546465
7,note_on,60,C4,0.6299212598425197,0.06443302083332014,151.546465
7,note_on,42,F#2,1,0.06443302083332014,151.546465
7,note_on,70,A#4,1,0.06443302083332014,151.70110425000001
7,note_on,42,F#2,1,0.06443302083332014,151.70110425000001
7,note_on,60,C4,0.6299212598425197,0.06443302083332014,151.70110425000001
7,note_on,70,A#4,1,0.06443302083332014,151.85574350000002
7,note_on,42,F#2,1,0.06443302083332014,151.85574350000002
7,note_on,63,D#4,1,0.06443302083332014,151.85574350000002
7,note_on,61,C#4,0.7559055118110236,0.06443302083332014,151.85574350000002
7,note_on,42,F#2,1,0.06443302083332014,152.01038275000002
7,note_on,70,A#4,1,0.06443302083332014,152.01038275000002
7,note_on,63,D#4,1,0.06443302083332014,152.01038275000002
7,note_on,70,A#4,1,0.06443302083334856,152.165022
7,note_on,60,C4,0.6299212598425197,0.06443302083334856,152.165022
7,note_on,42,F#2,1,0.06443302083334856,152.165022
7,note_on,42,F#2,1,0.06443302083334856,152.31966125
7,note_on,60,C4,0.6299212598425197,0.06443302083334856,152.31966125
7,note_on,70,A#4,1,0.06443302083334856,152.31966125
7,note_on,60,C4,0.6299212598425197,0.06443302083334856,152.4743005
7,note_on,62,D4,1,0.06443302083334856,152.4743005
7,note_on,70,A#4,1,0.06443302083334856,152.4743005
7,note_on,42,F#2,1,0.06443302083334856,152.4743005
7,note_on,60,C4,0.6299212598425197,0.06443302083332014,152.62893975
7,note_on,42,F#2,1,0.06443302083332014,152.62893975
7,note_on,70,A#4,1,0.06443302083332014,152.62893975
7,note_on,42,F#2,1,0.06443302083332014,152.783579
7,note_on,70,A#4,1,0.06443302083332014,152.783579
7,note_on,60,C4,0.6299212598425197,0.06443302083332014,152.783579
7,note_on,42,F#2,1,0.06443302083332014,152.93821825
7,note_on,70,A#4,1,0.06443302083332014,152.93821825
7,note_on,60,C4,0.6299212598425197,0.06443302083332014,152.93821825
7,note_on,63,D#4,1,0.06443302083332014,153.0928575
7,note_on,42,F#2,1,0.06443302083332014,153.0928575
7,note_on,61,C#4,0.7559055118110236,0.06443302083332014,153.0928575
7,note_on,70,A#4,1,0.06443302083332014,153.0928575
7,note_on,63,D#4,1,0.06443302083332014,153.24749675
7,note_on,42,F#2,1,0.06443302083332014,153.24749675
7,note_on,70,A#4,1,0.06443302083332014,153.24749675
7,note_on,42,F#2,1,0.06443302083332014,153.402136
7,note_on,70,A#4,1,0.06443302083332014,153.402136
7,note_on,60,C4,0.6299212598425197,0.06443302083332014,153.402136
7,note_on,70,A#4,1,0.06443302083332014,153.55677525000002
7,note_on,60,C4,0.6299212598425197,0.06443302083332014,153.55677525000002
7,note_on,42,F#2,1,0.06443302083332014,153.55677525000002
7,note_on,42,F#2,1,0.06443302083332014,153.71141450000002
7,note_on,60,C4,0.6299212598425197,0.06443302083332014,153.71141450000002
7,note_on,70,A#4,1,0.06443302083332014,153.71141450000002
7,note_on,62,D4,1,0.06443302083332014,153.71141450000002
7,note_on,70,A#4,1,0.06443302083334856,153.86605375
7,note_on,60,C4,0.6299212598425197,0.06443302083334856,153.86605375
7,note_on,42,F#2,1,0.06443302083334856,153.86605375
7,note_on,60,C4,0.6299212598425197,0.06443302083334856,154.020693
7,note_on,70,A#4,1,0.06443302083334856,154.020693
7,note_on,42,F#2,1,0.06443302083334856,154.020693
7,note_on,42,F#2,1,0.06443302083334856,154.17533225
7,note_on,60,C4,0.6299212598425197,0.06443302083334856,154.17533225
7,note_on,70,A#4,1,0.06443302083334856,154.17533225
7,note_on,70,A#4,1,0.06443302083332014,154.3299715
7,note_on,42,F#2,1,0.06443302083332014,154.3299715
7,note_on,61,C#4,0.7559055118110236,0.06443302083332014,154.3299715
7,note_on,63,D#4,1,0.06443302083332014,154.3299715
7,note_on,70,A#4,1,0.06443302083332014,154.48461075
7,note_on,63,D#4,1,0.06443302083332014,154.48461075
7,note_on,42,F#2,1,0.06443302083332014,154.48461075
7,note_on,70,A#4,1,0.06443302083332014,154.63925
7,note_on,42,F#2,1,0.06443302083332014,154.63925
7,note_on,60,C4,0.6299212598425197,0.06443302083332014,154.63925
7,note_on,70,A#4,1,0.06443302083332014,154.79388925
7,note_on,42,F#2,1,0.06443302083332014,154.79388925
7,note_on,60,C4,0.6299212598425197,0.06443302083332014,154.79388925
7,note_on,42,F#2,1,0.06443302083332014,154.9485285
7,note_on,60,C4,0.6299212598425197,0.06443302083332014,154.9485285
7,note_on,62,D4,1,0.06443302083332014,154.9485285
7,note_on,70,A#4,1,0.06443302083332014,154.9485285
7,note_on,70,A#4,1,0.06443302083332014,155.10316775
7,note_on,60,C4,0.6299212598425197,0.06443302083332014,155.10316775
7,note_on,42,F#2,1,0.06443302083332014,155.10316775
7,note_on,70,A#4,1,0.06443302083332014,155.257807
7,note_on,60,C4,0.6299212598425197,0.06443302083332014,155.257807
7,note_on,42,F#2,1,0.06443302083332014,155.257807
7,note_on,42,F#2,1,0.06443302083332014,155.41244625000002
7,note_on,60,C4,0.6299212598425197,0.06443302083332014,155.41244625000002
7,note_on,70,A#4,1,0.06443302083332014,155.41244625000002
7,note_on,61,C#4,0.7559055118110236,0.06443302083332014,155.56708550000002
7,note_on,70,A#4,1,0.06443302083332014,155.56708550000002
7,note_on,42,F#2,1,0.06443302083332014,155.56708550000002
7,note_on,63,D#4,1,0.06443302083332014,155.56708550000002
7,note_on,42,F#2,1,0.06443302083334856,155.72172475
7,note_on,63,D#4,1,0.06443302083334856,155.72172475
7,note_on,70,A#4,1,0.06443302083334856,155.72172475
7,note_on,42,F#2,1,0.06443302083334856,155.876364
7,note_on,60,C4,0.6299212598425197,0.06443302083334856,155.876364
7,note_on,70,A#4,1,0.06443302083334856,155.876364
7,note_on,42,F#2,1,0.06443302083334856,156.03100325
7,note_on,60,C4,0.6299212598425197,0.06443302083334856,156.03100325
7,note_on,70,A#4,1,0.06443302083334856,156.03100325
7,note_on,62,D4,1,0.06443302083332014,156.1856425
7,note_on,70,A#4,1,0.06443302083332014,156.1856425
7,note_on,42,F#2,1,0.06443302083332014,156.1856425
7,note_on,60,C4,0.6299212598425197,0.06443302083332014,156.1856425
7,note_on,70,A#4,1,0.06443302083332014,156.34028175
7,note_on,60,C4,0.6299212598425197,0.06443302083332014,156.34028175
7,note_on,42,F#2,1,0.06443302083332014,156.34028175
7,note_on,60,C4,0.6299212598425197,0.06443302083332014,156.494921
7,note_on,42,F#2,1,0.06443302083332014,156.494921
7,note_on,70,A#4,1,0.06443302083332014,156.494921
7,note_on,60,C4,0.6299212598425197,0.06443302083332014,156.64956025
7,note_on,70,A#4,1,0.06443302083332014,156.64956025
7,note_on,42,F#2,1,0.06443302083332014,156.64956025
7,note_on,70,A#4,1,0.06443302083332014,156.8041995
7,note_on,61,C#4,0.7559055118110236,0.06443302083332014,156.8041995
7,note_on,42,F#2,1,0.06443302083332014,156.8041995
7,note_on,63,D#4,1,0.06443302083332014,156.8041995
7,note_on,63,D#4,1,0.06443302083332014,156.95883875
7,note_on,42,F#2,1,0.06443302083332014,156.95883875
7,note_on,70,A#4,1,0.06443302083332014,156.95883875
7,note_on,42,F#2,1,0.06443302083332014,157.11347800000001
7,note_on,60,C4,0.6299212598425197,0.06443302083332014,157.11347800000001
7,note_on,70,A#4,1,0.06443302083332014,157.11347800000001
7,note_on,42,F#2,1,0.06443302083332014,157.26811725000002
7,note_on,70,A#4,1,0.06443302083332014,157.26811725000002
7,note_on,60,C4,0.6299212598425197,0.06443302083332014,157.26811725000002
7,note_on,70,A#4,1,0.06443302083332014,157.42275650000002
7,note_on,62,D4,1,0.06443302083332014,157.42275650000002
7,note_on,60,C4,0.6299212598425197,0.06443302083332014,157.42275650000002
7,note_on,42,F#2,1,0.06443302083332014,157.42275650000002
7,note_on,70,A#4,1,0.06443302083334856,157.57739575
7,note_on,42,F#2,1,0.06443302083334856,157.57739575
7,note_on,60,C4,0.6299212598425197,0.06443302083334856,157.57739575
7,note_on,42,F#2,1,0.06443302083334856,157.732035
7,note_on,60,C4,0.6299212598425197,0.06443302083334856,157.732035
7,note_on,70,A#4,1,0.06443302083334856,157.732035
7,note_on,70,A#4,1,0.06443302083334856,157.88667425
7,note_on,60,C4,0.6299212598425197,0.06443302083334856,157.88667425
7,note_on,42,F#2,1,0.06443302083334856,157.88667425
7,note_on,61,C#4,0.7559055118110236,0.06443302083332014,158.0413135
7,note_on,63,D#4,1,0.06443302083332014,158.0413135
7,note_on,70,A#4,1,0.06443302083332014,158.0413135
7,note_on,42,F#2,1,0.06443302083332014,158.0413135
7,note_on,42,F#2,1,0.06443302083332014,158.19595275
7,note_on,70,A#4,1,0.06443302083332014,158.19595275
7,note_on,63,D#4,1,0.06443302083332014,158.19595275
7,note_on,60,C4,0.6299212598425197,0.06443302083334856,158.350592
7,note_on,42,F#2,1,0.06443302083334856,158.350592
7,note_on,70,A#4,1,0.06443302083334856,158.350592
7,note_on,42,F#2,1,0.06443302083334856,158.50523125
7,note_on,70,A#4,1,0.06443302083334856,158.50523125
7,note_on,60,C4,0.6299212598425197,0.06443302083334856,158.50523125
7,note_on,60,C4,0.6299212598425197,0.06443302083334856,158.6598705
7,note_on,42,F#2,1,0.06443302083334856,158.6598705
7,note_on,62,D4,1,0.06443302083334856,158.6598705
7,note_on,70,A#4,1,0.06443302083334856,158.6598705
7,note_on,60,C4,0.6299212598425197,0.06443302083334856,158.81450975
7,note_on,42,F#2,1,0.06443302083334856,158.81450975
7,note_on,70,A#4,1,0.06443302083334856,158.81450975
7,note_on,70,A#4,1,0.06443302083334856,158.96914900000002
7,note_on,60,C4,0.6299212598425197,0.06443302083334856,158.96914900000002
7,note_on,42,F#2,1,0.06443302083334856,158.96914900000002
7,note_on,60,C4,0.6299212598425197,0.06443302083332014,159.12378825000002
7,note_on,70,A#4,1,0.06443302083332014,159.12378825000002
7,note_on,42,F#2,1,0.06443302083332014,159.12378825000002
7,note_on,63,D#4,1,0.06443302083334856,159.2784275
7,note_on,61,C#4,0.7559055118110236,0.06443302083334856,159.2784275
7,note_on,42,F#2,1,0.06443302083334856,159.2784275
7,note_on,70,A#4,1,0.06443302083334856,159.2784275
7,note_on,63,D#4,1,0.06443302083334856,159.43306675
7,note_on,70,A#4,1,0.06443302083334856,159.43306675
7,note_on,42,F#2,1,0.06443302083334856,159.43306675
7,note_on,60,C4,0.6299212598425197,0.06443302083334856,159.587706
7,note_on,70,A#4,1,0.06443302083334856,159.587706
7,note_on,42,F#2,1,0.06443302083334856,159.587706
7,note_on,42,F#2,1,0.06443302083334856,159.74234525
7,note_on,60,C4,0.6299212598425197,0.06443302083334856,159.74234525
7,note_on,70,A#4,1,0.06443302083334856,159.74234525
7,note_on,42,F#2,1,0.06443302083334856,159.8969845
7,note_on,62,D4,1,0.06443302083334856,159.8969845
7,note_on,60,C4,0.6299212598425197,0.06443302083334856,159.8969845
7,note_on,70,A#4,1,0.06443302083334856,159.8969845
7,note_on,60,C4,0.6299212598425197,0.06443302083334856,160.05162375
7,note_on,70,A#4,1,0.06443302083334856,160.05162375
7,note_on,42,F#2,1,0.06443302083334856,160.05162375
7,note_on,60,C4,0.6299212598425197,0.06443302083334856,160.206263
7,note_on,70,A#4,1,0.06443302083334856,160.206263
7,note_on,42,F#2,1,0.06443302083334856,160.206263
7,note_on,70,A#4,1,0.06443302083334856,160.36090225
7,note_on,60,C4,0.6299212598425197,0.06443302083334856,160.36090225
7,note_on,42,F#2,1,0.06443302083334856,160.36090225
7,note_on,63,D#4,1,0.06443302083334856,160.5155415
7,note_on,61,C#4,0.7559055118110236,0.06443302083334856,160.5155415
7,note_on,42,F#2,1,0.06443302083334856,160.5155415
7,note_on,70,A#4,1,0.06443302083334856,160.5155415
7,note_on,70,A#4,1,0.06443302083334856,160.67018075000001
7,note_on,63,D#4,1,0.06443302083334856,160.67018075000001
7,note_on,42,F#2,1,0.06443302083334856,160.67018075000001
7,note_on,60,C4,0.6299212598425197,0.06443302083334856,160.82482000000002
7,note_on,42,F#2,1,0.06443302083334856,160.82482000000002
7,note_on,70,A#4,1,0.06443302083334856,160.82482000000002
7,note_on,42,F#2,1,0.06443302083332014,160.97945925000002
7,note_on,60,C4,0.6299212598425197,0.06443302083332014,160.97945925000002
7,note_on,70,A#4,1,0.06443302083332014,160.97945925000002
7,note_on,42,F#2,1,0.06443302083334856,161.1340985
7,note_on,60,C4,0.6299212598425197,0.06443302083334856,161.1340985
7,note_on,70,A#4,1,0.06443302083334856,161.1340985
7,note_on,62,D4,1,0.06443302083334856,161.1340985
7,note_on,60,C4,0.6299212598425197,0.06443302083334856,161.28873775
7,note_on,70,A#4,1,0.06443302083334856,161.28873775
7,note_on,42,F#2,1,0.06443302083334856,161.28873775
7,note_on,70,A#4,1,0.06443302083334856,161.443377
7,note_on,60,C4,0.6299212598425197,0.06443302083334856,161.443377
7,note_on,42,F#2,1,0.06443302083334856,161.443377
7,note_on,42,F#2,1,0.06443302083334856,161.59801625
7,note_on,60,C4,0.6299212598425197,0.06443302083334856,161.59801625
7,note_on,70,A#4,1,0.06443302083334856,161.59801625
7,note_on,61,C#4,0.7559055118110236,0.06443302083334856,161.7526555
7,note_on,63,D#4,1,0.06443302083334856,161.7526555
7,note_on,70,A#4,1,0.06443302083334856,161.7526555
7,note_on,42,F#2,1,0.06443302083334856,161.7526555
7,note_on,70,A#4,1,0.06443302083334856,161.90729475
7,note_on,63,D#4,1,0.06443302083334856,161.90729475
7,note_on,42,F#2,1,0.06443302083334856,161.90729475
7,note_on,70,A#4,1,0.06443302083334856,162.061934
7,note_on,60,C4,0.6299212598425197,0.06443302083334856,162.061934
7,note_on,42,F#2,1,0.06443302083334856,162.061934
7,note_on,42,F#2,1,0.06443302083334856,162.21657325
7,note_on,60,C4,0.6299212598425197,0.06443302083334856,162.21657325
7,note_on,70,A#4,1,0.06443302083334856,162.21657325
7,note_on,70,A#4,1,0.06443302083334856,162.3712125
7,note_on,60,C4,0.6299212598425197,0.06443302083334856,162.3712125
7,note_on,62,D4,1,0.06443302083334856,162.3712125
7,note_on,42,F#2,1,0.06443302083334856,162.3712125
7,note_on,42,F#2,1,0.06443302083334856,162.52585175000002
7,note_on,70,A#4,1,0.06443302083334856,162.52585175000002
7,note_on,60,C4,0.6299212598425197,0.06443302083334856,162.52585175000002
7,note_on,42,F#2,1,0.06443302083332014,162.68049100000002
7,note_on,60,C4,0.6299212598425197,0.06443302083332014,162.68049100000002
7,note_on,70,A#4,1,0.06443302083332014,162.68049100000002
7,note_on,42,F#2,1,0.06443302083332014,162.83513025000002
7,note_on,60,C4,0.6299212598425197,0.06443302083332014,162.83513025000002
7,note_on,70,A#4,1,0.06443302083332014,162.83513025000002
7,note_on,70,A#4,1,0.06443302083334856,162.9897695
7,note_on,42,F#2,1,0.06443302083334856,162.9897695
7,note_on,61,C#4,0.7559055118110236,0.06443302083334856,162.9897695
7,note_on,63,D#4,1,0.06443302083334856,162.9897695
7,note_on,63,D#4,1,0.06443302083334856,163.14440875
7,note_on,42,F#2,1,0.06443302083334856,163.14440875
7,note_on,70,A#4,1,0.06443302083334856,163.14440875
7,note_on,42,F#2,1,0.06443302083334856,163.299048
7,note_on,60,C4,0.6299212598425197,0.06443302083334856,163.299048
7,note_on,70,A#4,1,0.06443302083334856,163.299048
7,note_on,60,C4,0.6299212598425197,0.06443302083334856,163.45368725
7,note_on,42,F#2,1,0.06443302083334856,163.45368725
7,note_on,70,A#4,1,0.06443302083334856,163.45368725
7,note_on,42,F#2,1,0.06443302083334856,163.6083265
7,note_on,62,D4,1,0.06443302083334856,163.6083265
7,note_on,60,C4,0.6299212598425197,0.06443302083334856,163.6083265
7,note_on,70,A#4,1,0.06443302083334856,163.6083265
7,note_on,60,C4,0.6299212598425197,0.06443302083334856,163.76296575
7,note_on,42,F#2,1,0.06443302083334856,163.76296575
7,note_on,70,A#4,1,0.06443302083334856,163.76296575
7,note_on,60,C4,0.6299212598425197,0.06443302083334856,163.917605
7,note_on,42,F#2,1,0.06443302083334856,163.917605
7,note_on,70,A#4,1,0.06443302083334856,163.917605
7,note_on,70,A#4,1,0.06443302083334856,164.07224425
7,note_on,42,F#2,1,0.06443302083334856,164.07224425
7,note_on,60,C4,0.6299212598425197,0.06443302083334856,164.07224425
7,note_on,63,D#4,1,0.06443302083334856,164.2268835
7,note_on,70,A#4,1,0.06443302083334856,164.2268835
7,note_on,61,C#4,0.7559055118110236,0.06443302083334856,164.2268835
7,note_on,42,F#2,1,0.06443302083334856,164.2268835
7,note_on,42,F#2,1,0.06443302083334856,164.38152275000002
7,note_on,70,A#4,1,0.06443302083334856,164.38152275000002
7,note_on,63,D#4,1,0.06443302083334856,164.38152275000002
7,note_on,60,C4,0.6299212598425197,0.06443302083332014,164.53616200000002
7,note_on,70,A#4,1,0.06443302083332014,164.53616200000002
7,note_on,42,F#2,1,0.06443302083332014,164.53616200000002
7,note_on,60,C4,0.6299212598425197,0.06443302083334856,164.69080125
7,note_on,70,A#4,1,0.06443302083334856,164.69080125
7,note_on,42,F#2,1,0.06443302083334856,164.69080125
7,note_on,42,F#2,1,0.06443302083334856,164.8454405
7,note_on,62,D4,1,0.06443302083334856,164.8454405
7,note_on,70,A#4,1,0.06443302083334856,164.8454405
7,note_on,60,C4,0.6299212598425197,0.06443302083334856,164.8454405
7,note_on,60,C4,0.6299212598425197,0.06443302083334856,165.00007975
7,note_on,42,F#2,1,0.06443302083334856,165.00007975
7,note_on,70,A#4,1,0.06443302083334856,165.00007975
7,note_on,70,A#4,1,0.06443302083334856,165.154719
7,note_on,60,C4,0.6299212598425197,0.06443302083334856,165.154719
7,note_on,42,F#2,1,0.06443302083334856,165.154719
7,note_on,70,A#4,1,0.06443302083334856,165.30935825
7,note_on,60,C4,0.6299212598425197,0.06443302083334856,165.30935825
7,note_on,42,F#2,1,0.06443302083334856,165.30935825
7,note_on,61,C#4,0.7559055118110236,0.06443302083334856,165.4639975
7,note_on,42,F#2,1,0.06443302083334856,165.4639975
7,note_on,70,A#4,1,0.06443302083334856,165.4639975
7,note_on,63,D#4,1,0.06443302083334856,165.4639975
7,note_on,70,A#4,1,0.06443302083334856,165.61863675
7,note_on,63,D#4,1,0.06443302083334856,165.61863675
7,note_on,42,F#2,1,0.06443302083334856,165.61863675
7,note_on,42,F#2,1,0.06443302083334856,165.773276
7,note_on,60,C4,0.6299212598425197,0.06443302083334856,165.773276
7,note_on,70,A#4,1,0.06443302083334856,165.773276
7,note_on,70,A#4,1,0.06443302083334856,165.92791525
7,note_on,42,F#2,1,0.06443302083334856,165.92791525
7,note_on,60,C4,0.6299212598425197,0.06443302083334856,165.92791525
7,note_on,60,C4,0.6299212598425197,0.06443302083334856,166.08255450000001
7,note_on,62,D4,1,0.06443302083334856,166.08255450000001
7,note_on,42,F#2,1,0.06443302083334856,166.08255450000001
7,note_on,70,A#4,1,0.06443302083334856,166.08255450000001
7,note_on,60,C4,0.6299212598425197,0.06443302083332014,166.23719375000002
7,note_on,70,A#4,1,0.06443302083332014,166.23719375000002
7,note_on,42,F#2,1,0.06443302083332014,166.23719375000002
7,note_on,70,A#4,1,0.06443302083332014,166.39183300000002
7,note_on,60,C4,0.6299212598425197,0.06443302083332014,166.39183300000002
7,note_on,42,F#2,1,0.06443302083332014,166.39183300000002
7,note_on,60,C4,0.6299212598425197,0.06443302083334856,166.54647225
7,note_on,70,A#4,1,0.06443302083334856,166.54647225
7,note_on,42,F#2,1,0.06443302083334856,166.54647225
7,note_on,42,F#2,1,0.06443302083334856,166.7011115
7,note_on,63,D#4,1,0.06443302083334856,166.7011115
7,note_on,70,A#4,1,0.06443302083334856,166.7011115
7,note_on,61,C#4,0.7559055118110236,0.06443302083334856,166.7011115
7,note_on,70,A#4,1,0.06443302083334856,166.85575075
7,note_on,42,F#2,1,0.06443302083334856,166.85575075
7,note_on,63,D#4,1,0.06443302083334856,166.85575075
7,note_on,60,C4,0.6299212598425197,0.06443302083334856,167.01039
7,note_on,42,F#2,1,0.06443302083334856,167.01039
7,note_on,70,A#4,1,0.06443302083334856,167.01039
7,note_on,70,A#4,1,0.06443302083334856,167.16502925
7,note_on,60,C4,0.6299212598425197,0.06443302083334856,167.16502925
7,note_on,42,F#2,1,0.06443302083334856,167.16502925
7,note_on,62,D4,1,0.06443302083334856,167.3196685
7,note_on,42,F#2,1,0.06443302083334856,167.3196685
7,note_on,60,C4,0.6299212598425197,0.06443302083334856,167.3196685
7,note_on,70,A#4,1,0.06443302083334856,167.3196685
7,note_on,42,F#2,1,0.06443302083334856,167.47430775
7,note_on,70,A#4,1,0.06443302083334856,167.47430775
7,note_on,60,C4,0.6299212598425197,0.06443302083334856,167.47430775
7,note_on,60,C4,0.6299212598425197,0.06443302083334856,167.628947
7,note_on,42,F#2,1,0.06443302083334856,167.628947
7,note_on,70,A#4,1,0.06443302083334856,167.628947
7,note_on,42,F#2,1,0.06443302083334856,167.78358625
7,note_on,60,C4,0.6299212598425197,0.06443302083334856,167.78358625
7,note_on,70,A#4,1,0.06443302083334856,167.78358625
7,note_on,70,A#4,1,0.06443302083334856,167.93822550000002
7,note_on,63,D#4,1,0.06443302083334856,167.93822550000002
7,note_on,42,F#2,1,0.06443302083334856,167.93822550000002
7,note_on,61,C#4,0.7559055118110236,0.06443302083334856,167.93822550000002
7,note_on,63,D#4,1,0.06443302083332014,168.09286475000002
7,note_on,42,F#2,1,0.06443302083332014,168.09286475000002
7,note_on,70,A#4,1,0.06443302083332014,168.09286475000002
7,note_on,42,F#2,1,0.06443302083334856,168.247504
7,note_on,70,A#4,1,0.06443302083334856,168.247504
7,note_on,60,C4,0.6299212598425197,0.06443302083334856,168.247504
7,note_on,60,C4,0.6299212598425197,0.06443302083334856,168.40214325
7,note_on,70,A#4,1,0.06443302083334856,168.40214325
7,note_on,42,F#2,1,0.06443302083334856,168.40214325
7,note_on,70,A#4,1,0.06443302083334856,168.5567825
7,note_on,62,D4,1,0.06443302083334856,168.5567825
7,note_on,42,F#2,1,0.06443302083334856,168.5567825
7,note_on,60,C4,0.6299212598425197,0.06443302083334856,168.5567825
7,note_on,60,C4,0.6299212598425197,0.06443302083334856,168.71142175
7,note_on,42,F#2,1,0.06443302083334856,168.71142175
7,note_on,70,A#4,1,0.06443302083334856,168.71142175
7,note_on,42,F#2,1,0.06443302083334856,168.866061
7,note_on,70,A#4,1,0.06443302083334856,168.866061
7,note_on,60,C4,0.6299212598425197,0.06443302083334856,168.866061
7,note_on,42,F#2,1,0.06443302083334856,169.02070025
7,note_on,70,A#4,1,0.06443302083334856,169.02070025
7,note_on,60,C4,0.6299212598425197,0.06443302083334856,169.02070025
7,note_on,61,C#4,0.7559055118110236,0.06443302083334856,169.1753395
7,note_on,63,D#4,1,0.06443302083334856,169.1753395
7,note_on,70,A#4,1,0.06443302083334856,169.1753395
7,note_on,42,F#2,1,0.06443302083334856,169.1753395
7,note_on,63,D#4,1,0.06443302083334856,169.32997875
7,note_on,70,A#4,1,0.06443302083334856,169.32997875
7,note_on,42,F#2,1,0.06443302083334856,169.32997875
7,note_on,42,F#2,1,0.06443302083334856,169.484618
7,note_on,70,A#4,1,0.06443302083334856,169.484618
7,note_on,60,C4,0.6299212598425197,0.06443302083334856,169.484618
7,note_on,70,A#4,1,0.06443302083334856,169.63925725
7,note_on,42,F#2,1,0.06443302083334856,169.63925725
7,note_on,60,C4,0.6299212598425197,0.06443302083334856,169.63925725
7,note_on,60,C4,0.6299212598425197,0.06443302083334856,169.79389650000002
7,note_on,70,A#4,1,0.06443302083334856,169.79389650000002
7,note_on,42,F#2,1,0.06443302083334856,169.79389650000002
7,note_on,62,D4,1,0.06443302083334856,169.79389650000002
7,note_on,42,F#2,1,0.06443302083332014,169.94853575000002
7,note_on,60,C4,0.6299212598425197,0.06443302083332014,169.94853575000002
7,note_on,70,A#4,1,0.06443302083332014,169.94853575000002
7,note_on,42,F#2,1,0.06443302083334856,170.103175
7,note_on,70,A#4,1,0.06443302083334856,170.103175
7,note_on,60,C4,0.6299212598425197,0.06443302083334856,170.103175
7,note_on,60,C4,0.6299212598425197,0.06443302083334856,170.25781425
7,note_on,70,A#4,1,0.06443302083334856,170.25781425
7,note_on,42,F#2,1,0.06443302083334856,170.25781425
7,note_on,42,F#2,1,0.06443302083334856,170.4124535
7,note_on,63,D#4,1,0.06443302083334856,170.4124535
7,note_on,61,C#4,0.7559055118110236,0.06443302083334856,170.4124535
7,note_on,70,A#4,1,0.06443302083334856,170.4124535
7,note_on,63,D#4,1,0.06443302083334856,170.56709275
7,note_on,42,F#2,1,0.06443302083334856,170.56709275
7,note_on,70,A#4,1,0.06443302083334856,170.56709275
7,note_on,42,F#2,1,0.06443302083334856,170.721732
7,note_on,70,A#4,1,0.06443302083334856,170.721732
7,note_on,60,C4,0.6299212598425197,0.06443302083334856,170.721732
7,note_on,60,C4,0.6299212598425197,0.06443302083334856,170.87637125
7,note_on,42,F#2,1,0.06443302083334856,170.87637125
7,note_on,70,A#4,1,0.06443302083334856,170.87637125
7,note_on,62,D4,1,0.06443302083334856,171.0310105
7,note_on,60,C4,0.6299212598425197,0.06443302083334856,171.0310105
7,note_on,70,A#4,1,0.06443302083334856,171.0310105
7,note_on,42,F#2,1,0.06443302083334856,171.0310105
7,note_on,60,C4,0.6299212598425197,0.06443302083334856,171.18564975
7,note_on,70,A#4,1,0.06443302083334856,171.18564975
7,note_on,42,F#2,1,0.06443302083334856,171.18564975
7,note_on,70,A#4,1,0.06443302083334856,171.340289
7,note_on,60,C4,0.6299212598425197,0.06443302083334856,171.340289
7,note_on,42,F#2,1,0.06443302083334856,171.340289
7,note_on,70,A#4,1,0.06443302083334856,171.49492825000002
7,note_on,42,F#2,1,0.06443302083334856,171.49492825000002
7,note_on,60,C4,0.6299212598425197,0.06443302083334856,171.49492825000002
7,note_on,70,A#4,1,0.06443302083332014,171.64956750000002
7,note_on,61,C#4,0.7559055118110236,0.06443302083332014,171.64956750000002
7,note_on,42,F#2,1,0.06443302083332014,171.64956750000002
7,note_on,63,D#4,1,0.06443302083332014,171.64956750000002
7,note_on,70,A#4,1,0.06443302083332014,171.80420675000002
7,note_on,42,F#2,1,0.06443302083332014,171.80420675000002
7,note_on,63,D#4,1,0.06443302083332014,171.80420675000002
7,note_on,42,F#2,1,0.06443302083334856,171.958846
7,note_on,60,C4,0.6299212598425197,0.06443302083334856,171.958846
7,note_on,70,A#4,1,0.06443302083334856,171.958846
7,note_on,70,A#4,1,0.06443302083334856,172.11348525
7,note_on,42,F#2,1,0.06443302083334856,172.11348525
7,note_on,60,C4,0.6299212598425197,0.06443302083334856,172.11348525
7,note_on,60,C4,0.6299212598425197,0.06443302083334856,172.2681245
7,note_on,62,D4,1,0.06443302083334856,172.2681245
7,note_on,42,F#2,1,0.06443302083334856,172.2681245
7,note_on,70,A#4,1,0.06443302083334856,172.2681245
7,note_on,42,F#2,1,0.06443302083334856,172.42276375
7,note_on,60,C4,0.6299212598425197,0.06443302083334856,172.42276375
7,note_on,70,A#4,1,0.06443302083334856,172.42276375
7,note_on,42,F#2,1,0.06443302083334856,172.577403
7,note_on,70,A#4,1,0.06443302083334856,172.577403
7,note_on,60,C4,0.6299212598425197,0.06443302083334856,172.577403
7,note_on,70,A#4,1,0.06443302083334856,172.73204225
7,note_on,60,C4,0.6299212598425197,0.06443302083334856,172.73204225
7,note_on,42,F#2,1,0.06443302083334856,172.73204225
7,note_on,61,C#4,0.7559055118110236,0.06443302083334856,172.8866815
7,note_on,42,F#2,1,0.06443302083334856,172.8866815
7,note_on,70,A#4,1,0.06443302083334856,172.8866815
7,note_on,63,D#4,1,0.06443302083334856,172.8866815
7,note_on,42,F#2,1,0.06443302083334856,173.04132075
7,note_on,63,D#4,1,0.06443302083334856,173.04132075
7,note_on,70,A#4,1,0.06443302083334856,173.04132075
7,note_on,70,A#4,1,0.06443302083334856,173.19596
7,note_on,60,C4,0.6299212598425197,0.06443302083334856,173.19596
7,note_on,42,F#2,1,0.06443302083334856,173.19596
7,note_on,42,F#2,1,0.06443302083334856,173.35059925000002
7,note_on,60,C4,0.6299212598425197,0.06443302083334856,173.35059925000002
7,note_on,70,A#4,1,0.06443302083334856,173.35059925000002
7,note_on,70,A#4,1,0.06443302083332014,173.50523850000002
7,note_on,62,D4,1,0.06443302083332014,173.50523850000002
7,note_on,42,F#2,1,0.06443302083332014,173.50523850000002
7,note_on,60,C4,0.6299212598425197,0.06443302083332014,173.50523850000002
7,note_on,60,C4,0.6299212598425197,0.06443302083334856,173.65987775
7,note_on,70,A#4,1,0.06443302083334856,173.65987775
7,note_on,42,F#2,1,0.06443302083334856,173.65987775
7,note_on,70,A#4,1,0.06443302083334856,173.814517
7,note_on,60,C4,0.6299212598425197,0.06443302083334856,173.814517
7,note_on,42,F#2,1,0.06443302083334856,173.814517
7,note_on,42,F#2,1,0.06443302083334856,173.96915625
7,note_on,60,C4,0.6299212598425197,0.06443302083334856,173.96915625
7,note_on,70,A#4,1,0.06443302083334856,173.96915625
7,note_on,61,C#4,0.7559055118110236,0.06443302083334856,174.1237955
7,note_on,70,A#4,1,0.06443302083334856,174.1237955
7,note_on,63,D#4,1,0.06443302083334856,174.1237955
7,note_on,42,F#2,1,0.06443302083334856,174.1237955
7,note_on,63,D#4,1,0.06443302083334856,174.27843475
7,note_on,42,F#2,1,0.06443302083334856,174.27843475
7,note_on,70,A#4,1,0.06443302083334856,174.27843475
7,note_on,42,F#2,1,0.06443302083334856,174.433074
7,note_on,60,C4,0.6299212598425197,0.06443302083334856,174.433074
7,note_on,70,A#4,1,0.06443302083334856,174.433074
7,note_on,60,C4,0.6299212598425197,0.06443302083334856,174.58771325
7,note_on,70,A#4,1,0.06443302083334856,174.58771325
7,note_on,42,F#2,1,0.06443302083334856,174.58771325
7,note_on,70,A#4,1,0.06443302083334856,174.7423525
7,note_on,42,F#2,1,0.06443302083334856,174.7423525
7,note_on,60,C4,0.6299212598425197,0.06443302083334856,174.7423525
7,note_on,62,D4,1,0.06443302083334856,174.7423525
7,note_on,70,A#4,1,0.06443302083334856,174.89699175
7,note_on,60,C4,0.6299212598425197,0.06443302083334856,174.89699175
7,note_on,42,F#2,1,0.06443302083334856,174.89699175
7,note_on,60,C4,0.6299212598425197,0.06443302083334856,175.05163100000001
7,note_on,70,A#4,1,0.06443302083334856,175.05163100000001
7,note_on,42,F#2,1,0.06443302083334856,175.05163100000001
7,note_on,60,C4,0.6299212598425197,0.06443302083334856,175.20627025000002
7,note_on,42,F#2,1,0.06443302083334856,175.20627025000002
7,note_on,70,A#4,1,0.06443302083334856,175.20627025000002
7,note_on,70,A#4,1,0.06443302083332014,175.36090950000002
7,note_on,63,D#4,1,0.06443302083332014,175.36090950000002
7,note_on,61,C#4,0.7559055118110236,0.06443302083332014,175.36090950000002
7,note_on,42,F#2,1,0.06443302083332014,175.36090950000002
7,note_on,42,F#2,1,0.06443302083334856,175.51554875
7,note_on,70,A#4,1,0.06443302083334856,175.51554875
7,note_on,63,D#4,1,0.06443302083334856,175.51554875
7,note_on,60,C4,0.6299212598425197,0.06443302083334856,175.670188
7,note_on,70,A#4,1,0.06443302083334856,175.670188
7,note_on,42,F#2,1,0.06443302083334856,175.670188
7,note_on,70,A#4,1,0.06443302083334856,175.82482725
7,note_on,60,C4,0.6299212598425197,0.06443302083334856,175.82482725
7,note_on,42,F#2,1,0.06443302083334856,175.82482725
7,note_on,42,F#2,1,0.06443302083334856,175.9794665
7,note_on,60,C4,0.6299212598425197,0.06443302083334856,175.9794665
7,note_on,70,A#4,1,0.06443302083334856,175.9794665
7,note_on,62,D4,1,0.06443302083334856,175.9794665
7,note_on,60,C4,0.6299212598425197,0.06443302083334856,176.13410575
7,note_on,70,A#4,1,0.06443302083334856,176.13410575
7,note_on,42,F#2,1,0.06443302083334856,176.13410575
7,note_on,70,A#4,1,0.06443302083334856,176.288745
7,note_on,42,F#2,1,0.06443302083334856,176.288745
7,note_on,60,C4,0.6299212598425197,0.06443302083334856,176.288745
7,note_on,70,A#4,1,0.06443302083334856,176.44338425
7,note_on,60,C4,0.6299212598425197,0.06443302083334856,176.44338425
7,note_on,42,F#2,1,0.06443302083334856,176.44338425
7,note_on,63,D#4,1,0.06443302083334856,176.5980235
7,note_on,70,A#4,1,0.06443302083334856,176.5980235
7,note_on,42,F#2,1,0.06443302083334856,176.5980235
7,note_on,61,C#4,0.7559055118110236,0.06443302083334856,176.5980235
7,note_on,42,F#2,1,0.06443302083334856,176.75266275
7,note_on,70,A#4,1,0.06443302083334856,176.75266275
7,note_on,63,D#4,1,0.06443302083334856,176.75266275
7,note_on,60,C4,0.6299212598425197,0.06443302083334856,176.90730200000002
7,note_on,42,F#2,1,0.06443302083334856,176.90730200000002
7,note_on,70,A#4,1,0.06443302083334856,176.90730200000002
7,note_on,60,C4,0.6299212598425197,0.06443302083332014,177.06194125000002
7,note_on,70,A#4,1,0.06443302083332014,177.06194125000002
7,note_on,42,F#2,1,0.06443302083332014,177.06194125000002
7,note_on,70,A#4,1,0.06443302083332014,177.21658050000002
7,note_on,60,C4,0.6299212598425197,0.06443302083332014,177.21658050000002
7,note_on,62,D4,1,0.06443302083332014,177.21658050000002
7,note_on,42,F#2,1,0.06443302083332014,177.21658050000002
7,note_on,42,F#2,1,0.06443302083334856,177.37121975
7,note_on,60,C4,0.6299212598425197,0.06443302083334856,177.37121975
7,note_on,70,A#4,1,0.06443302083334856,177.37121975
7,note_on,70,A#4,1,0.06443302083334856,177.525859
7,note_on,42,F#2,1,0.06443302083334856,177.525859
7,note_on,60,C4,0.6299212598425197,0.06443302083334856,177.525859
7,note_on,70,A#4,1,0.06443302083334856,177.68049825
7,note_on,60,C4,0.6299212598425197,0.06443302083334856,177.68049825
7,note_on,42,F#2,1,0.06443302083334856,177.68049825
7,note_on,42,F#2,1,0.06443302083334856,177.8351375
7,note_on,63,D#4,1,0.06443302083334856,177.8351375
7,note_on,70,A#4,1,0.06443302083334856,177.8351375
7,note_on,61,C#4,0.7559055118110236,0.06443302083334856,177.8351375
7,note_on,70,A#4,1,0.06443302083334856,177.98977675
7,note_on,63,D#4,1,0.06443302083334856,177.98977675
7,note_on,42,F#2,1,0.06443302083334856,177.98977675
7,note_on,60,C4,0.6299212598425197,0.06443302083334856,178.144416
7,note_on,42,F#2,1,0.06443302083334856,178.144416
7,note_on,70,A#4,1,0.06443302083334856,178.144416
7,note_on,70,A#4,1,0.06443302083334856,178.29905525
7,note_on,60,C4,0.6299212598425197,0.06443302083334856,178.29905525
7,note_on,42,F#2,1,0.06443302083334856,178.29905525
7,note_on,62,D4,1,0.06443302083334856,178.4536945
7,note_on,70,A#4,1,0.06443302083334856,178.4536945
7,note_on,60,C4,0.6299212598425197,0.06443302083334856,178.4536945
7,note_on,42,F#2,1,0.06443302083334856,178.4536945
7,note_on,70,A#4,1,0.06443302083334856,178.60833375
7,note_on,60,C4,0.6299212598425197,0.06443302083334856,178.60833375
7,note_on,42,F#2,1,0.06443302083334856,178.60833375
7,note_on,42,F#2,1,0.06443302083334856,178.76297300000002
7,note_on,70,A#4,1,0.06443302083334856,178.76297300000002
7,note_on,60,C4,0.6299212598425197,0.06443302083334856,178.76297300000002
7,note_on,70,A#4,1,0.06443302083332014,178.91761225000002
7,note_on,60,C4,0.6299212598425197,0.06443302083332014,178.91761225000002
7,note_on,42,F#2,1,0.06443302083332014,178.91761225000002
7,note_on,42,F#2,1,0.06443302083334856,179.0722515
7,note_on,61,C#4,0.7559055118110236,0.06443302083334856,179.0722515
7,note_on,70,A#4,1,0.06443302083334856,179.0722515
7,note_on,63,D#4,1,0.06443302083334856,179.0722515
7,note_on,63,D#4,1,0.06443302083334856,179.22689075
7,note_on,70,A#4,1,0.06443302083334856,179.22689075
7,note_on,42,F#2,1,0.06443302083334856,179.22689075
7,note_on,70,A#4,1,0.06443302083334856,179.38153
7,note_on,60,C4,0.6299212598425197,0.06443302083334856,179.38153
7,note_on,42,F#2,1,0.06443302083334856,179.38153
7,note_on,70,A#4,1,0.06443302083334856,179.53616925
7,note_on,42,F#2,1,0.06443302083334856,179.53616925
7,note_on,60,C4,0.6299212598425197,0.06443302083334856,179.53616925
7,note_on,60,C4,0.6299212598425197,0.06443302083334856,179.6908085
7,note_on,70,A#4,1,0.06443302083334856,179.6908085
7,note_on,62,D4,1,0.06443302083334856,179.6908085
7,note_on,42,F#2,1,0.06443302083334856,179.6908085
7,note_on,60,C4,0.6299212598425197,0.06443302083334856,179.84544775
7,note_on,42,F#2,1,0.06443302083334856,179.84544775
7,note_on,70,A#4,1,0.06443302083334856,179.84544775
7,note_on,42,F#2,1,0.06443302083334856,180.000087
7,note_on,70,A#4,1,0.06443302083334856,180.000087
7,note_on,60,C4,0.6299212598425197,0.06443302083334856,180.000087
7,note_on,60,C4,0.6299212598425197,0.06443302083334856,180.15472625
7,note_on,42,F#2,1,0.06443302083334856,180.15472625
7,note_on,70,A#4,1,0.06443302083334856,180.15472625
7,note_on,61,C#4,0.7559055118110236,0.06443302083334856,180.3093655
7,note_on,42,F#2,1,0.06443302083334856,180.3093655
7,note_on,63,D#4,1,0.06443302083334856,180.3093655
7,note_on,70,A#4,1,0.06443302083334856,180.3093655
7,note_on,42,F#2,1,0.06443302083334856,180.46400475000002
7,note_on,70,A#4,1,0.06443302083334856,180.46400475000002
7,note_on,63,D#4,1,0.06443302083334856,180.46400475000002
7,note_on,60,C4,0.6299212598425197,0.06443302083334856,180.61864400000002
7,note_on,42,F#2,1,0.06443302083334856,180.61864400000002
7,note_on,70,A#4,1,0.06443302083334856,180.61864400000002
7,note_on,70,A#4,1,0.06443302083332014,180.77328325000002
7,note_on,42,F#2,1,0.06443302083332014,180.77328325000002
7,note_on,60,C4,0.6299212598425197,0.06443302083332014,180.77328325000002
7,note_on,42,F#2,1,0.06443302083334856,180.9279225
7,note_on,70,A#4,1,0.06443302083334856,180.9279225
7,note_on,60,C4,0.6299212598425197,0.06443302083334856,180.9279225
7,note_on,62,D4,1,0.06443302083334856,180.9279225
7,note_on,70,A#4,1,0.06443302083334856,181.08256175
7,note_on,60,C4,0.6299212598425197,0.06443302083334856,181.08256175
7,note_on,42,F#2,1,0.06443302083334856,181.08256175
7,note_on,70,A#4,1,0.06443302083334856,181.237201
7,note_on,42,F#2,1,0.06443302083334856,181.237201
7,note_on,60,C4,0.6299212598425197,0.06443302083334856,181.237201
7,note_on,42,F#2,1,0.06443302083334856,181.39184025
7,note_on,60,C4,0.6299212598425197,0.06443302083334856,181.39184025
7,note_on,70,A#4,1,0.06443302083334856,181.39184025
7,note_on,70,A#4,1,0.06443302083334856,181.5464795
7,note_on,42,F#2,1,0.06443302083334856,181.5464795
7,note_on,61,C#4,0.7559055118110236,0.06443302083334856,181.5464795
7,note_on,63,D#4,1,0.06443302083334856,181.5464795
7,note_on,42,F#2,1,0.06443302083334856,181.70111875
7,note_on,70,A#4,1,0.06443302083334856,181.70111875
7,note_on,63,D#4,1,0.06443302083334856,181.70111875
7,note_on,60,C4,0.6299212598425197,0.06443302083334856,181.855758
7,note_on,70,A#4,1,0.06443302083334856,181.855758
7,note_on,42,F#2,1,0.06443302083334856,181.855758
7,note_on,42,F#2,1,0.06443302083334856,182.01039725
7,note_on,60,C4,0.6299212598425197,0.06443302083334856,182.01039725
7,note_on,70,A#4,1,0.06443302083334856,182.01039725
7,note_on,62,D4,1,0.06443302083334856,182.1650365
7,note_on,70,A#4,1,0.06443302083334856,182.1650365
7,note_on,60,C4,0.6299212598425197,0.06443302083334856,182.1650365
7,note_on,42,F#2,1,0.06443302083334856,182.1650365
7,note_on,70,A#4,1,0.06443302083334856,182.31967575000002
7,note_on,42,F#2,1,0.06443302083334856,182.31967575000002
7,note_on,60,C4,0.6299212598425197,0.06443302083334856,182.31967575000002
7,note_on,42,F#2,1,0.06443302083332014,182.47431500000002
7,note_on,60,C4,0.6299212598425197,0.06443302083332014,182.47431500000002
7,note_on,70,A#4,1,0.06443302083332014,182.47431500000002
7,note_on,60,C4,0.6299212598425197,0.06443302083332014,182.62895425000002
7,note_on,70,A#4,1,0.06443302083332014,182.62895425000002
7,note_on,42,F#2,1,0.06443302083332014,182.62895425000002
7,note_on,42,F#2,1,0.06443302083334856,182.7835935
7,note_on,63,D#4,1,0.06443302083334856,182.7835935
7,note_on,61,C#4,0.7559055118110236,0.06443302083334856,182.7835935
7,note_on,70,A#4,1,0.06443302083334856,182.7835935
7,note_on,42,F#2,1,0.06443302083334856,182.93823275
7,note_on,70,A#4,1,0.06443302083334856,182.93823275
7,note_on,63,D#4,1,0.06443302083334856,182.93823275
7,note_on,42,F#2,1,0.06443302083334856,183.092872
7,note_on,60,C4,0.6299212598425197,0.06443302083334856,183.092872
7,note_on,70,A#4,1,0.06443302083334856,183.092872
7,note_on,60,C4,0.6299212598425197,0.06443302083334856,183.24751125
7,note_on,70,A#4,1,0.06443302083334856,183.24751125
7,note_on,42,F#2,1,0.06443302083334856,183.24751125
7,note_on,60,C4,0.6299212598425197,0.06443302083334856,183.4021505
7,note_on,62,D4,1,0.06443302083334856,183.4021505
7,note_on,42,F#2,1,0.06443302083334856,183.4021505
7,note_on,70,A#4,1,0.06443302083334856,183.4021505
7,note_on,60,C4,0.6299212598425197,0.06443302083334856,183.55678975
7,note_on,70,A#4,1,0.06443302083334856,183.55678975
7,note_on,42,F#2,1,0.06443302083334856,183.55678975
7,note_on,60,C4,0.6299212598425197,0.06443302083334856,183.711429
7,note_on,70,A#4,1,0.06443302083334856,183.711429
7,note_on,42,F#2,1,0.06443302083334856,183.711429
7,note_on,42,F#2,1,0.06443302083334856,183.86606825
7,note_on,70,A#4,1,0.06443302083334856,183.86606825
7,note_on,60,C4,0.6299212598425197,0.06443302083334856,183.86606825
7,note_on,63,D#4,1,0.06443302083334856,184.02070750000001
7,note_on,61,C#4,0.7559055118110236,0.06443302083334856,184.02070750000001
7,note_on,70,A#4,1,0.06443302083334856,184.02070750000001
7,note_on,42,F#2,1,0.06443302083334856,184.02070750000001
7,note_on,70,A#4,1,0.06443302083334856,184.17534675000002
7,note_on,63,D#4,1,0.06443302083334856,184.17534675000002
7,note_on,42,F#2,1,0.06443302083334856,184.17534675000002
7,note_on,60,C4,0.6299212598425197,0.06443302083332014,184.32998600000002
7,note_on,70,A#4,1,0.06443302083332014,184.32998600000002
7,note_on,42,F#2,1,0.06443302083332014,184.32998600000002
7,note_on,70,A#4,1,0.06443302083334856,184.48462525
7,note_on,60,C4,0.6299212598425197,0.06443302083334856,184.48462525
7,note_on,42,F#2,1,0.06443302083334856,184.48462525
7,note_on,62,D4,1,0.06443302083334856,184.6392645
7,note_on,42,F#2,1,0.06443302083334856,184.6392645
7,note_on,60,C4,0.6299212598425197,0.06443302083334856,184.6392645
7,note_on,70,A#4,1,0.06443302083334856,184.6392645
7,note_on,60,C4,0.6299212598425197,0.06443302083334856,184.79390375
7,note_on,42,F#2,1,0.06443302083334856,184.79390375
7,note_on,70,A#4,1,0.06443302083334856,184.79390375
7,note_on,42,F#2,1,0.06443302083334856,184.948543
7,note_on,60,C4,0.6299212598425197,0.06443302083334856,184.948543
7,note_on,70,A#4,1,0.06443302083334856,184.948543
7,note_on,60,C4,0.6299212598425197,0.06443302083334856,185.10318225
7,note_on,70,A#4,1,0.06443302083334856,185.10318225
7,note_on,42,F#2,1,0.06443302083334856,185.10318225
7,note_on,63,D#4,1,0.06443302083334856,185.2578215
7,note_on,42,F#2,1,0.06443302083334856,185.2578215
7,note_on,61,C#4,0.7559055118110236,0.06443302083334856,185.2578215
7,note_on,70,A#4,1,0.06443302083334856,185.2578215
7,note_on,63,D#4,1,0.06443302083334856,185.41246075
7,note_on,70,A#4,1,0.06443302083334856,185.41246075
7,note_on,42,F#2,1,0.06443302083334856,185.41246075
7,note_on,60,C4,0.6299212598425197,0.06443302083334856,185.5671
7,note_on,70,A#4,1,0.06443302083334856,185.5671
7,note_on,42,F#2,1,0.06443302083334856,185.5671
7,note_on,70,A#4,1,0.06443302083334856,185.72173925
7,note_on,60,C4,0.6299212598425197,0.06443302083334856,185.72173925
7,note_on,42,F#2,1,0.06443302083334856,185.72173925
7,note_on,42,F#2,1,0.06443302083334856,185.87637850000002
7,note_on,60,C4,0.6299212598425197,0.06443302083334856,185.87637850000002
7,note_on,70,A#4,1,0.06443302083334856,185.87637850000002
7,note_on,62,D4,1,0.06443302083334856,185.87637850000002
7,note_on,60,C4,0.6299212598425197,0.06443302083332014,186.03101775000002
7,note_on,42,F#2,1,0.06443302083332014,186.03101775000002
7,note_on,70,A#4,1,0.06443302083332014,186.03101775000002
7,note_on,60,C4,0.6299212598425197,0.06443302083332014,186.18565700000002
7,note_on,70,A#4,1,0.06443302083332014,186.18565700000002
7,note_on,42,F#2,1,0.06443302083332014,186.18565700000002
7,note_on,42,F#2,1,0.06443302083334856,186.34029625
7,note_on,60,C4,0.6299212598425197,0.06443302083334856,186.34029625
7,note_on,70,A#4,1,0.06443302083334856,186.34029625
7,note_on,61,C#4,0.7559055118110236,0.06443302083334856,186.4949355
7,note_on,42,F#2,1,0.06443302083334856,186.4949355
7,note_on,63,D#4,1,0.06443302083334856,186.4949355
7,note_on,70,A#4,1,0.06443302083334856,186.4949355
7,note_on,63,D#4,1,0.06443302083334856,186.64957475
7,note_on,42,F#2,1,0.06443302083334856,186.64957475
7,note_on,70,A#4,1,0.06443302083334856,186.64957475
7,note_on,60,C4,0.6299212598425197,0.06443302083334856,186.804214
7,note_on,42,F#2,1,0.06443302083334856,186.804214
7,note_on,70,A#4,1,0.06443302083334856,186.804214
7,note_on,60,C4,0.6299212598425197,0.06443302083334856,186.95885325
7,note_on,70,A#4,1,0.06443302083334856,186.95885325
7,note_on,42,F#2,1,0.06443302083334856,186.95885325
7,note_on,70,A#4,1,0.06443302083334856,187.1134925
7,note_on,62,D4,1,0.06443302083334856,187.1134925
7,note_on,42,F#2,1,0.06443302083334856,187.1134925
7,note_on,60,C4,0.6299212598425197,0.06443302083334856,187.1134925
7,note_on,60,C4,0.6299212598425197,0.06443302083334856,187.26813175
7,note_on,42,F#2,1,0.06443302083334856,187.26813175
7,note_on,70,A#4,1,0.06443302083334856,187.26813175
7,note_on,70,A#4,1,0.06443302083334856,187.422771
7,note_on,60,C4,0.6299212598425197,0.06443302083334856,187.422771
7,note_on,42,F#2,1,0.06443302083334856,187.422771
7,note_on,70,A#4,1,0.06443302083334856,187.57741025
7,note_on,42,F#2,1,0.06443302083334856,187.57741025
7,note_on,60,C4,0.6299212598425197,0.06443302083334856,187.57741025
7,note_on,63,D#4,1,0.06443302083334856,187.73204950000002
7,note_on,70,A#4,1,0.06443302083334856,187.73204950000002
7,note_on,42,F#2,1,0.06443302083334856,187.73204950000002
7,note_on,61,C#4,0.7559055118110236,0.06443302083334856,187.73204950000002
7,note_on,70,A#4,1,0.06443302083332014,187.88668875000002
7,note_on,42,F#2,1,0.06443302083332014,187.88668875000002
7,note_on,63,D#4,1,0.06443302083332014,187.88668875000002
7,note_on,42,F#2,1,0.06443302083332014,188.04132800000002
7,note_on,60,C4,0.6299212598425197,0.06443302083332014,188.04132800000002
7,note_on,70,A#4,1,0.06443302083332014,188.04132800000002
7,note_on,70,A#4,1,0.06443302083334856,188.19596725
7,note_on,42,F#2,1,0.06443302083334856,188.19596725
7,note_on,60,C4,0.6299212598425197,0.06443302083334856,188.19596725
7,note_on,62,D4,1,0.06443302083334856,188.3506065
7,note_on,70,A#4,1,0.06443302083334856,188.3506065
7,note_on,42,F#2,1,0.06443302083334856,188.3506065
7,note_on,60,C4,0.6299212598425197,0.06443302083334856,188.3506065
7,note_on,42,F#2,1,0.06443302083334856,188.50524575
7,note_on,60,C4,0.6299212598425197,0.06443302083334856,188.50524575
7,note_on,70,A#4,1,0.06443302083334856,188.50524575
7,note_on,70,A#4,1,0.06443302083334856,188.659885
7,note_on,42,F#2,1,0.06443302083334856,188.659885
7,note_on,60,C4,0.6299212598425197,0.06443302083334856,188.659885
7,note_on,42,F#2,1,0.06443302083334856,188.81452425
7,note_on,70,A#4,1,0.06443302083334856,188.81452425
7,note_on,60,C4,0.6299212598425197,0.06443302083334856,188.81452425
7,note_on,70,A#4,1,0.06443302083334856,188.9691635
7,note_on,61,C#4,0.7559055118110236,0.06443302083334856,188.9691635
7,note_on,63,D#4,1,0.06443302083334856,188.9691635
7,note_on,42,F#2,1,0.06443302083334856,188.9691635
7,note_on,63,D#4,1,0.06443302083334856,189.12380275
7,note_on,42,F#2,1,0.06443302083334856,189.12380275
7,note_on,70,A#4,1,0.06443302083334856,189.12380275
7,note_on,42,F#2,1,0.06443302083334856,189.278442
7,note_on,60,C4,0.6299212598425197,0.06443302083334856,189.278442
7,note_on,70,A#4,1,0.06443302083334856,189.278442
7,note_on,60,C4,0.6299212598425197,0.06443302083334856,189.43308125000001
7,note_on,42,F#2,1,0.06443302083334856,189.43308125000001
7,note_on,70,A#4,1,0.06443302083334856,189.43308125000001
7,note_on,60,C4,0.6299212598425197,0.06443302083334856,189.58772050000002
7,note_on,42,F#2,1,0.06443302083334856,189.58772050000002
7,note_on,62,D4,1,0.06443302083334856,189.58772050000002
7,note_on,70,A#4,1,0.06443302083334856,189.58772050000002
7,note_on,42,F#2,1,0.06443302083332014,189.74235975000002
7,note_on,70,A#4,1,0.06443302083332014,189.74235975000002
7,note_on,60,C4,0.6299212598425197,0.06443302083332014,189.74235975000002
7,note_on,70,A#4,1,0.06443302083334856,189.896999
7,note_on,42,F#2,1,0.06443302083334856,189.896999
7,note_on,60,C4,0.6299212598425197,0.06443302083334856,189.896999
7,note_on,70,A#4,1,0.06443302083334856,190.05163825
7,note_on,60,C4,0.6299212598425197,0.06443302083334856,190.05163825
7,note_on,42,F#2,1,0.06443302083334856,190.05163825
7,note_on,63,D#4,1,0.06443302083334856,190.2062775
7,note_on,61,C#4,0.7559055118110236,0.06443302083334856,190.2062775
7,note_on,70,A#4,1,0.06443302083334856,190.2062775
7,note_on,42,F#2,1,0.06443302083334856,190.2062775
7,note_on,63,D#4,1,0.06443302083334856,190.36091675
7,note_on,42,F#2,1,0.06443302083334856,190.36091675
7,note_on,70,A#4,1,0.06443302083334856,190.36091675
7,note_on,70,A#4,1,0.06443302083334856,190.515556
7,note_on,60,C4,0.6299212598425197,0.06443302083334856,190.515556
7,note_on,42,F#2,1,0.06443302083334856,190.515556
7,note_on,60,C4,0.6299212598425197,0.06443302083334856,190.67019525
7,note_on,70,A#4,1,0.06443302083334856,190.67019525
7,note_on,42,F#2,1,0.06443302083334856,190.67019525
7,note_on,62,D4,1,0.06443302083334856,190.8248345
7,note_on,42,F#2,1,0.06443302083334856,190.8248345
7,note_on,60,C4,0.6299212598425197,0.06443302083334856,190.8248345
7,note_on,70,A#4,1,0.06443302083334856,190.8248345
7,note_on,60,C4,0.6299212598425197,0.06443302083334856,190.97947375
7,note_on,42,F#2,1,0.06443302083334856,190.97947375
7,note_on,70,A#4,1,0.06443302083334856,190.97947375
7,note_on,42,F#2,1,0.06443302083334856,191.134113
7,note_on,60,C4,0.6299212598425197,0.06443302083334856,191.134113
7,note_on,70,A#4,1,0.06443302083334856,191.134113
7,note_on,42,F#2,1,0.06443302083334856,191.28875225000002
7,note_on,70,A#4,1,0.06443302083334856,191.28875225000002
7,note_on,60,C4,0.6299212598425197,0.06443302083334856,191.28875225000002
7,note_on,42,F#2,1,0.06443302083332014,191.44339150000002
7,note_on,61,C#4,0.7559055118110236,0.06443302083332014,191.44339150000002
7,note_on,60,C4,0.6299212598425197,0.06443302083332014,191.44339150000002
7,note_on,70,A#4,1,0.06443302083332014,191.44339150000002
7,note_on,64,E4,1,0.06443302083332014,191.59803075000002
7,note_on,70,A#4,1,0.06443302083332014,191.59803075000002
7,note_on,42,F#2,1,0.06443302083332014,191.59803075000002
7,note_on,35,B1,0.6299212598425197,0.06443302083332014,191.59803075000002
7,note_on,70,A#4,1,0.06443302083334856,192.98978400000001
7,note_on,42,F#2,1,0.06443302083334856,192.98978400000001
7,note_on,60,C4,0.6299212598425197,0.06443302083334856,192.98978400000001
7,note_on,60,C4,0.6299212598425197,0.06443302083334856,193.14442325000002
7,note_on,42,F#2,1,0.06443302083334856,193.14442325000002
7,note_on,70,A#4,1,0.06443302083334856,193.14442325000002
7,note_on,70,A#4,1,0.06443302083332014,193.29906250000002
7,note_on,42,F#2,1,0.06443302083332014,193.29906250000002
7,note_on,60,C4,0.6299212598425197,0.06443302083332014,193.29906250000002
7,note_on,62,D4,1,0.06443302083332014,193.29906250000002
7,note_on,60,C4,0.6299212598425197,0.06443302083334856,193.45370175
7,note_on,70,A#4,1,0.06443302083334856,193.45370175
7,note_on,42,F#2,1,0.06443302083334856,193.45370175
7,note_on,70,A#4,1,0.06443302083334856,193.608341
7,note_on,42,F#2,1,0.06443302083334856,193.608341
7,note_on,60,C4,0.6299212598425197,0.06443302083334856,193.608341
7,note_on,42,F#2,1,0.06443302083334856,193.76298025
7,note_on,60,C4,0.6299212598425197,0.06443302083334856,193.76298025
7,note_on,70,A#4,1,0.06443302083334856,193.76298025
7,note_on,63,D#4,1,0.06443302083334856,193.9176195
7,note_on,61,C#4,0.7559055118110236,0.06443302083334856,193.9176195
7,note_on,42,F#2,1,0.06443302083334856,193.9176195
7,note_on,70,A#4,1,0.06443302083334856,193.9176195
7,note_on,70,A#4,1,0.06443302083334856,194.07225875
7,note_on,42,F#2,1,0.06443302083334856,194.07225875
7,note_on,63,D#4,1,0.06443302083334856,194.07225875
7,note_on,60,C4,0.6299212598425197,0.06443302083334856,194.226898
7,note_on,70,A#4,1,0.06443302083334856,194.226898
7,note_on,42,F#2,1,0.06443302083334856,194.226898
7,note_on,42,F#2,1,0.06443302083334856,194.38153725
7,note_on,70,A#4,1,0.06443302083334856,194.38153725
7,note_on,60,C4,0.6299212598425197,0.06443302083334856,194.38153725
7,note_on,60,C4,0.6299212598425197,0.06443302083334856,194.5361765
7,note_on,70,A#4,1,0.06443302083334856,194.5361765
7,note_on,62,D4,1,0.06443302083334856,194.5361765
7,note_on,42,F#2,1,0.06443302083334856,194.5361765
7,note_on,42,F#2,1,0.06443302083334856,194.69081575
7,note_on,60,C4,0.6299212598425197,0.06443302083334856,194.69081575
7,note_on,70,A#4,1,0.06443302083334856,194.69081575
7,note_on,60,C4,0.6299212598425197,0.06443302083334856,194.84545500000002
7,note_on,42,F#2,1,0.06443302083334856,194.84545500000002
7,note_on,70,A#4,1,0.06443302083334856,194.84545500000002
7,note_on,60,C4,0.6299212598425197,0.06443302083334856,195.00009425000002
7,note_on,42,F#2,1,0.06443302083334856,195.00009425000002
7,note_on,70,A#4,1,0.06443302083334856,195.00009425000002
7,note_on,70,A#4,1,0.06443302083332014,195.15473350000002
7,note_on,61,C#4,0.7559055118110236,0.06443302083332014,195.15473350000002
7,note_on,42,F#2,1,0.06443302083332014,195.15473350000002
7,note_on,63,D#4,1,0.06443302083332014,195.15473350000002
7,note_on,70,A#4,1,0.06443302083334856,195.30937275
7,note_on,63,D#4,1,0.06443302083334856,195.30937275
7,note_on,66,F#4,1,0.06443302083334856,195.30937275
7,note_on,35,B1,0.6299212598425197,0.06443302083334856,195.30937275
7,note_on,37,C#2,1,0.06443302083334856,195.30937275
7,note_on,42,F#2,1,0.06443302083334856,195.30937275
7,note_on,56,G#3,1,0.06443302083334856,195.61865125
7,note_on,64,E4,1,0.06443302083334856,195.61865125
7,note_on,70,A#4,1,0.06443302083334856,195.61865125
7,note_on,35,B1,0.6299212598425197,0.06443302083334856,195.61865125
7,note_on,42,F#2,1,0.06443302083334856,195.61865125
7,note_on,35,B1,0.6299212598425197,0.06443302083334856,195.92792975
7,note_on,64,E4,1,0.06443302083334856,195.92792975
7,note_on,70,A#4,1,0.06443302083334856,195.92792975
7,note_on,42,F#2,1,0.06443302083334856,195.92792975
7,note_on,56,G#3,1,0.06443302083334856,195.92792975
7,note_on,42,F#2,1,0.06443302083334856,196.23720825
7,note_on,64,E4,1,0.06443302083334856,196.23720825
7,note_on,56,G#3,1,0.06443302083334856,196.23720825
7,note_on,35,B1,0.6299212598425197,0.06443302083334856,196.23720825
7,note_on,70,A#4,1,0.06443302083334856,196.23720825
7,note_on,70,A#4,1,0.06443302083334856,196.54648675
7,note_on,64,E4,1,0.06443302083334856,196.54648675
7,note_on,35,B1,0.6299212598425197,0.06443302083334856,196.54648675
7,note_on,42,F#2,1,0.06443302083334856,196.54648675
7,note_on,56,G#3,1,0.06443302083334856,196.54648675
7,note_on,70,A#4,1,0.06443302083334856,197.93824
7,note_on,42,F#2,1,0.06443302083334856,197.93824
7,note_on,60,C4,0.6299212598425197,0.06443302083334856,197.93824
7,note_on,64,E4,0.9448818897637795,0.03221651041664586,197.93824
7,note_on,68,G#4,1,0.06443302083334856,198.09287925
7,note_on,60,C4,0.6299212598425197,0.06443302083334856,198.09287925
7,note_on,70,A#4,1,0.06443302083334856,198.09287925
7,note_on,42,F#2,1,0.06443302083334856,198.09287925
7,note_on,42,F#2,1,0.06443302083334856,198.2475185
7,note_on,60,C4,0.6299212598425197,0.06443302083334856,198.2475185
7,note_on,62,D4,1,0.06443302083334856,198.2475185
7,note_on,68,G#4,1,0.06443302083334856,198.2475185
7,note_on,70,A#4,1,0.06443302083334856,198.2475185
7,note_on,70,A#4,1,0.06443302083334856,198.40215775000001
7,note_on,68,G#4,1,0.06443302083334856,198.40215775000001
7,note_on,60,C4,0.6299212598425197,0.06443302083334856,198.40215775000001
7,note_on,42,F#2,1,0.06443302083334856,198.40215775000001
7,note_on,68,G#4,1,0.06443302083334856,198.55679700000002
7,note_on,42,F#2,1,0.06443302083334856,198.55679700000002
7,note_on,70,A#4,1,0.06443302083334856,198.55679700000002
7,note_on,60,C4,0.6299212598425197,0.06443302083334856,198.55679700000002
7,note_on,70,A#4,1,0.06443302083332014,198.71143625000002
7,note_on,60,C4,0.6299212598425197,0.06443302083332014,198.71143625000002
7,note_on,42,F#2,1,0.06443302083332014,198.71143625000002
7,note_on,63,D#4,1,0.06443302083334856,198.8660755
7,note_on,61,C#4,0.7559055118110236,0.06443302083334856,198.8660755
7,note_on,70,A#4,1,0.06443302083334856,198.8660755
7,note_on,68,G#4,1,0.06443302083334856,198.8660755
7,note_on,42,F#2,1,0.06443302083334856,198.8660755
7,note_on,42,F#2,1,0.06443302083334856,199.02071475
7,note_on,63,D#4,1,0.06443302083334856,199.02071475
7,note_on,70,A#4,1,0.06443302083334856,199.02071475
7,note_on,68,G#4,1,0.06443302083334856,199.02071475
7,note_on,68,G#4,1,0.06443302083334856,199.175354
7,note_on,60,C4,0.6299212598425197,0.06443302083334856,199.175354
7,note_on,42,F#2,1,0.06443302083334856,199.175354
7,note_on,70,A#4,1,0.06443302083334856,199.175354
7,note_on,42,F#2,1,0.06443302083334856,199.32999325
7,note_on,60,C4,0.6299212598425197,0.06443302083334856,199.32999325
7,note_on,70,A#4,1,0.06443302083334856,199.32999325
7,note_on,42,F#2,1,0.06443302083334856,199.4846325
7,note_on,62,D4,1,0.06443302083334856,199.4846325
7,note_on,60,C4,0.6299212598425197,0.06443302083334856,199.4846325
7,note_on,70,A#4,1,0.06443302083334856,199.4846325
7,note_on,68,G#4,1,0.06443302083334856,199.4846325
7,note_on,60,C4,0.6299212598425197,0.06443302083334856,199.63927175
7,note_on,64,E4,1,0.06443302083334856,199.63927175
7,note_on,42,F#2,1,0.06443302083334856,199.63927175
7,note_on,70,A#4,1,0.06443302083334856,199.63927175
7,note_on,70,A#4,1,0.06443302083334856,199.793911
7,note_on,68,G#4,1,0.06443302083334856,199.793911
7,note_on,42,F#2,1,0.06443302083334856,199.793911
7,note_on,64,E4,1,0.06443302083334856,199.793911
7,note_on,60,C4,0.6299212598425197,0.06443302083334856,199.793911
7,note_on,42,F#2,1,0.06443302083334856,199.94855025
7,note_on,60,C4,0.6299212598425197,0.06443302083334856,199.94855025
7,note_on,68,G#4,1,0.06443302083334856,199.94855025
7,note_on,70,A#4,1,0.06443302083334856,199.94855025
7,note_on,61,C#4,0.7559055118110236,0.06443302083334856,200.1031895
7,note_on,63,D#4,1,0.06443302083334856,200.1031895
7,note_on,42,F#2,1,0.06443302083334856,200.1031895
7,note_on,70,A#4,1,0.06443302083334856,200.1031895
7,note_on,68,G#4,1,0.06443302083334856,200.1031895
7,note_on,68,G#4,1,0.06443302083334856,200.25782875000002
7,note_on,70,A#4,1,0.06443302083334856,200.25782875000002
7,note_on,63,D#4,1,0.06443302083334856,200.25782875000002
7,note_on,42,F#2,1,0.06443302083334856,200.25782875000002
7,note_on,60,C4,0.6299212598425197,0.06443302083334856,200.41246800000002
7,note_on,42,F#2,1,0.06443302083334856,200.41246800000002
7,note_on,70,A#4,1,0.06443302083334856,200.41246800000002
7,note_on,42,F#2,1,0.06443302083332014,200.56710725000002
7,note_on,60,C4,0.6299212598425197,0.06443302083332014,200.56710725000002
7,note_on,68,G#4,1,0.06443302083332014,200.56710725000002
7,note_on,70,A#4,1,0.06443302083332014,200.56710725000002
7,note_on,68,G#4,1,0.06443302083334856,200.7217465
7,note_on,62,D4,1,0.06443302083334856,200.7217465
7,note_on,42,F#2,1,0.06443302083334856,200.7217465
7,note_on,70,A#4,1,0.06443302083334856,200.7217465
7,note_on,60,C4,0.6299212598425197,0.06443302083334856,200.7217465
7,note_on,42,F#2,1,0.06443302083334856,200.87638575
7,note_on,70,A#4,1,0.06443302083334856,200.87638575
7,note_on,68,G#4,1,0.06443302083334856,200.87638575
7,note_on,60,C4,0.6299212598425197,0.06443302083334856,200.87638575
7,note_on,68,G#4,1,0.06443302083334856,201.031025
7,note_on,70,A#4,1,0.06443302083334856,201.031025
7,note_on,60,C4,0.6299212598425197,0.06443302083334856,201.031025
7,note_on,42,F#2,1,0.06443302083334856,201.031025
7,note_on,42,F#2,1,0.06443302083334856,201.18566425
7,note_on,70,A#4,1,0.06443302083334856,201.18566425
7,note_on,60,C4,0.6299212598425197,0.06443302083334856,201.18566425
7,note_on,70,A#4,1,0.06443302083334856,201.3403035
7,note_on,68,G#4,1,0.06443302083334856,201.3403035
7,note_on,63,D#4,1,0.06443302083334856,201.3403035
7,note_on,61,C#4,0.7559055118110236,0.06443302083334856,201.3403035
7,note_on,42,F#2,1,0.06443302083334856,201.3403035
7,note_on,42,F#2,1,0.06443302083334856,201.49494275
7,note_on,63,D#4,1,0.06443302083334856,201.49494275
7,note_on,70,A#4,1,0.06443302083334856,201.49494275
7,note_on,68,G#4,1,0.06443302083334856,201.49494275
7,note_on,68,G#4,1,0.06443302083334856,201.649582
7,note_on,60,C4,0.6299212598425197,0.06443302083334856,201.649582
7,note_on,70,A#4,1,0.06443302083334856,201.649582
7,note_on,42,F#2,1,0.06443302083334856,201.649582
7,note_on,42,F#2,1,0.06443302083334856,201.80422125
7,note_on,70,A#4,1,0.06443302083334856,201.80422125
7,note_on,60,C4,0.6299212598425197,0.06443302083334856,201.80422125
7,note_on,42,F#2,1,0.06443302083334856,201.95886050000001
7,note_on,60,C4,0.6299212598425197,0.06443302083334856,201.95886050000001
7,note_on,70,A#4,1,0.06443302083334856,201.95886050000001
7,note_on,68,G#4,1,0.06443302083334856,201.95886050000001
7,note_on,62,D4,1,0.06443302083334856,201.95886050000001
7,note_on,70,A#4,1,0.06443302083334856,202.11349975000002
7,note_on,64,E4,1,0.06443302083334856,202.11349975000002
7,note_on,42,F#2,1,0.06443302083334856,202.11349975000002
7,note_on,60,C4,0.6299212598425197,0.06443302083334856,202.11349975000002
7,note_on,60,C4,0.6299212598425197,0.06443302083332014,202.26813900000002
7,note_on,42,F#2,1,0.06443302083332014,202.26813900000002
7,note_on,70,A#4,1,0.06443302083332014,202.26813900000002
7,note_on,68,G#4,1,0.06443302083332014,202.26813900000002
7,note_on,64,E4,1,0.06443302083332014,202.26813900000002
7,note_on,68,G#4,1,0.06443302083332014,202.42277825000002
7,note_on,60,C4,0.6299212598425197,0.06443302083332014,202.42277825000002
7,note_on,42,F#2,1,0.06443302083332014,202.42277825000002
7,note_on,70,A#4,1,0.06443302083332014,202.42277825000002
7,note_on,68,G#4,1,0.06443302083334856,202.5774175
7,note_on,70,A#4,1,0.06443302083334856,202.5774175
7,note_on,61,C#4,0.7559055118110236,0.06443302083334856,202.5774175
7,note_on,42,F#2,1,0.06443302083334856,202.5774175
7,note_on,63,D#4,1,0.06443302083334856,202.5774175
7,note_on,68,G#4,1,0.06443302083334856,202.73205675
7,note_on,42,F#2,1,0.06443302083334856,202.73205675
7,note_on,70,A#4,1,0.06443302083334856,202.73205675
7,note_on,63,D#4,1,0.06443302083334856,202.73205675
7,note_on,70,A#4,1,0.06443302083334856,202.886696
7,note_on,42,F#2,1,0.06443302083334856,202.886696
7,note_on,56,G#3,1,0.06443302083334856,202.886696
7,note_on,60,C4,0.6299212598425197,0.06443302083334856,202.886696
7,note_on,68,G#4,1,0.06443302083334856,203.04133525
7,note_on,60,C4,0.6299212598425197,0.06443302083334856,203.04133525
7,note_on,70,A#4,1,0.06443302083334856,203.04133525
7,note_on,42,F#2,1,0.06443302083334856,203.04133525
7,note_on,42,F#2,1,0.06443302083334856,203.1959745
7,note_on,70,A#4,1,0.06443302083334856,203.1959745
7,note_on,60,C4,0.6299212598425197,0.06443302083334856,203.1959745
7,note_on,62,D4,1,0.06443302083334856,203.1959745
7,note_on,68,G#4,1,0.06443302083334856,203.1959745
7,note_on,68,G#4,1,0.06443302083334856,203.35061375
7,note_on,42,F#2,1,0.06443302083334856,203.35061375
7,note_on,60,C4,0.6299212598425197,0.06443302083334856,203.35061375
7,note_on,70,A#4,1,0.06443302083334856,203.35061375
7,note_on,42,F#2,1,0.06443302083334856,203.505253
7,note_on,68,G#4,1,0.06443302083334856,203.505253
7,note_on,60,C4,0.6299212598425197,0.06443302083334856,203.505253
7,note_on,56,G#3,1,0.06443302083334856,203.505253
7,note_on,70,A#4,1,0.06443302083334856,203.505253
7,note_on,70,A#4,1,0.06443302083334856,203.65989225
7,note_on,42,F#2,1,0.06443302083334856,203.65989225
7,note_on,60,C4,0.6299212598425197,0.06443302083334856,203.65989225
7,note_on,42,F#2,1,0.06443302083334856,203.81453150000002
7,note_on,68,G#4,1,0.06443302083334856,203.81453150000002
7,note_on,70,A#4,1,0.06443302083334856,203.81453150000002
7,note_on,61,C#4,0.7559055118110236,0.06443302083334856,203.81453150000002
7,note_on,63,D#4,1,0.06443302083334856,203.81453150000002
7,note_on,70,A#4,1,0.06443302083334856,203.96917075000002
7,note_on,63,D#4,1,0.06443302083334856,203.96917075000002
7,note_on,68,G#4,1,0.06443302083334856,203.96917075000002
7,note_on,42,F#2,1,0.06443302083334856,203.96917075000002
7,note_on,70,A#4,1,0.06443302083332014,204.12381000000002
7,note_on,42,F#2,1,0.06443302083332014,204.12381000000002
7,note_on,60,C4,0.6299212598425197,0.06443302083332014,204.12381000000002
7,note_on,56,G#3,1,0.06443302083332014,204.12381000000002
7,note_on,68,G#4,1,0.06443302083332014,204.12381000000002
7,note_on,60,C4,0.6299212598425197,0.06443302083334856,204.27844925
7,note_on,70,A#4,1,0.06443302083334856,204.27844925
7,note_on,42,F#2,1,0.06443302083334856,204.27844925
7,note_on,70,A#4,1,0.06443302083334856,204.4330885
7,note_on,42,F#2,1,0.06443302083334856,204.4330885
7,note_on,68,G#4,1,0.06443302083334856,204.4330885
7,note_on,60,C4,0.6299212598425197,0.06443302083334856,204.4330885
7,note_on,62,D4,1,0.06443302083334856,204.4330885
7,note_on,42,F#2,1,0.06443302083334856,204.58772775
7,note_on,70,A#4,1,0.06443302083334856,204.58772775
7,note_on,60,C4,0.6299212598425197,0.06443302083334856,204.58772775
7,note_on,64,E4,1,0.06443302083334856,204.58772775
7,note_on,42,F#2,1,0.06443302083334856,204.742367
7,note_on,70,A#4,1,0.06443302083334856,204.742367
7,note_on,56,G#3,1,0.06443302083334856,204.742367
7,note_on,60,C4,0.6299212598425197,0.06443302083334856,204.742367
7,note_on,68,G#4,1,0.06443302083334856,204.742367
7,note_on,64,E4,1,0.06443302083334856,204.742367
7,note_on,60,C4,0.6299212598425197,0.06443302083334856,204.89700625
7,note_on,68,G#4,1,0.06443302083334856,204.89700625
7,note_on,42,F#2,1,0.06443302083334856,204.89700625
7,note_on,70,A#4,1,0.06443302083334856,204.89700625
7,note_on,68,G#4,1,0.06443302083334856,205.0516455
7,note_on,70,A#4,1,0.06443302083334856,205.0516455
7,note_on,61,C#4,0.7559055118110236,0.06443302083334856,205.0516455
7,note_on,42,F#2,1,0.06443302083334856,205.0516455
7,note_on,63,D#4,1,0.06443302083334856,205.0516455
7,note_on,42,F#2,1,0.06443302083334856,205.20628475
7,note_on,63,D#4,1,0.06443302083334856,205.20628475
7,note_on,68,G#4,1,0.06443302083334856,205.20628475
7,note_on,70,A#4,1,0.06443302083334856,205.20628475
7,note_on,70,A#4,1,0.06443302083334856,205.360924
7,note_on,60,C4,0.6299212598425197,0.06443302083334856,205.360924
7,note_on,56,G#3,1,0.06443302083334856,205.360924
7,note_on,42,F#2,1,0.06443302083334856,205.360924
7,note_on,60,C4,0.6299212598425197,0.06443302083334856,205.51556325
7,note_on,42,F#2,1,0.06443302083334856,205.51556325
7,note_on,70,A#4,1,0.06443302083334856,205.51556325
7,note_on,68,G#4,1,0.06443302083334856,205.51556325
7,note_on,42,F#2,1,0.06443302083334856,205.67020250000002
7,note_on,68,G#4,1,0.06443302083334856,205.67020250000002
7,note_on,62,D4,1,0.06443302083334856,205.67020250000002
7,note_on,60,C4,0.6299212598425197,0.06443302083334856,205.67020250000002
7,note_on,70,A#4,1,0.06443302083334856,205.67020250000002
7,note_on,68,G#4,1,0.06443302083332014,205.82484175000002
7,note_on,60,C4,0.6299212598425197,0.06443302083332014,205.82484175000002
7,note_on,70,A#4,1,0.06443302083332014,205.82484175000002
7,note_on,42,F#2,1,0.06443302083332014,205.82484175000002
7,note_on,70,A#4,1,0.06443302083332014,205.97948100000002
7,note_on,42,F#2,1,0.06443302083332014,205.97948100000002
7,note_on,68,G#4,1,0.06443302083332014,205.97948100000002
7,note_on,56,G#3,1,0.06443302083332014,205.97948100000002
7,note_on,60,C4,0.6299212598425197,0.06443302083332014,205.97948100000002
7,note_on,42,F#2,1,0.06443302083334856,206.13412025
7,note_on,60,C4,0.6299212598425197,0.06443302083334856,206.13412025
7,note_on,70,A#4,1,0.06443302083334856,206.13412025
7,note_on,63,D#4,1,0.06443302083334856,206.2887595
7,note_on,42,F#2,1,0.06443302083334856,206.2887595
7,note_on,61,C#4,0.7559055118110236,0.06443302083334856,206.2887595
7,note_on,68,G#4,1,0.06443302083334856,206.2887595
7,note_on,70,A#4,1,0.06443302083334856,206.2887595
7,note_on,70,A#4,1,0.06443302083334856,206.44339875
7,note_on,68,G#4,1,0.06443302083334856,206.44339875
7,note_on,42,F#2,1,0.06443302083334856,206.44339875
7,note_on,63,D#4,1,0.06443302083334856,206.44339875
7,note_on,70,A#4,1,0.06443302083334856,206.598038
7,note_on,42,F#2,1,0.06443302083334856,206.598038
7,note_on,56,G#3,1,0.06443302083334856,206.598038
7,note_on,68,G#4,1,0.06443302083334856,206.598038
7,note_on,60,C4,0.6299212598425197,0.06443302083334856,206.598038
7,note_on,60,C4,0.6299212598425197,0.06443302083334856,206.75267725
7,note_on,70,A#4,1,0.06443302083334856,206.75267725
7,note_on,42,F#2,1,0.06443302083334856,206.75267725
7,note_on,62,D4,1,0.06443302083334856,206.9073165
7,note_on,42,F#2,1,0.06443302083334856,206.9073165
7,note_on,68,G#4,1,0.06443302083334856,206.9073165
7,note_on,60,C4,0.6299212598425197,0.06443302083334856,206.9073165
7,note_on,70,A#4,1,0.06443302083334856,206.9073165
7,note_on,60,C4,0.6299212598425197,0.06443302083334856,207.06195575
7,note_on,70,A#4,1,0.06443302083334856,207.06195575
7,note_on,42,F#2,1,0.06443302083334856,207.06195575
7,note_on,64,E4,1,0.06443302083334856,207.06195575
7,note_on,64,E4,1,0.06443302083334856,207.216595
7,note_on,68,G#4,1,0.06443302083334856,207.216595
7,note_on,60,C4,0.6299212598425197,0.06443302083334856,207.216595
7,note_on,70,A#4,1,0.06443302083334856,207.216595
7,note_on,42,F#2,1,0.06443302083334856,207.216595
7,note_on,56,G#3,1,0.06443302083334856,207.216595
7,note_on,42,F#2,1,0.06443302083334856,207.37123425000001
7,note_on,60,C4,0.6299212598425197,0.06443302083334856,207.37123425000001
7,note_on,70,A#4,1,0.06443302083334856,207.37123425000001
7,note_on,68,G#4,1,0.06443302083334856,207.37123425000001
7,note_on,70,A#4,1,0.06443302083334856,207.52587350000002
7,note_on,68,G#4,1,0.06443302083334856,207.52587350000002
7,note_on,42,F#2,1,0.06443302083334856,207.52587350000002
7,note_on,63,D#4,1,0.06443302083334856,207.52587350000002
7,note_on,61,C#4,0.7559055118110236,0.06443302083334856,207.52587350000002
7,note_on,42,F#2,1,0.06443302083332014,207.68051275000002
7,note_on,68,G#4,1,0.06443302083332014,207.68051275000002
7,note_on,70,A#4,1,0.06443302083332014,207.68051275000002
7,note_on,63,D#4,1,0.06443302083332014,207.68051275000002
7,note_on,70,A#4,1,0.06443302083334856,207.835152
7,note_on,42,F#2,1,0.06443302083334856,207.835152
7,note_on,60,C4,0.6299212598425197,0.06443302083334856,207.835152
7,note_on,56,G#3,1,0.06443302083334856,207.835152
7,note_on,70,A#4,1,0.06443302083334856,207.98979125
7,note_on,68,G#4,1,0.06443302083334856,207.98979125
7,note_on,60,C4,0.6299212598425197,0.06443302083334856,207.98979125
7,note_on,42,F#2,1,0.06443302083334856,207.98979125
7,note_on,62,D4,1,0.06443302083334856,208.1444305
7,note_on,70,A#4,1,0.06443302083334856,208.1444305
7,note_on,68,G#4,1,0.06443302083334856,208.1444305
7,note_on,42,F#2,1,0.06443302083334856,208.1444305
7,note_on,60,C4,0.6299212598425197,0.06443302083334856,208.1444305
7,note_on,68,G#4,1,0.06443302083334856,208.29906975
7,note_on,60,C4,0.6299212598425197,0.06443302083334856,208.29906975
7,note_on,42,F#2,1,0.06443302083334856,208.29906975
7,note_on,70,A#4,1,0.06443302083334856,208.29906975
7,note_on,42,F#2,1,0.06443302083334856,208.453709
7,note_on,60,C4,0.6299212598425197,0.06443302083334856,208.453709
7,note_on,70,A#4,1,0.06443302083334856,208.453709
7,note_on,56,G#3,1,0.06443302083334856,208.453709
7,note_on,68,G#4,1,0.06443302083334856,208.453709
7,note_on,42,F#2,1,0.06443302083334856,208.60834825
7,note_on,70,A#4,1,0.06443302083334856,208.60834825
7,note_on,60,C4,0.6299212598425197,0.06443302083334856,208.60834825
7,note_on,42,F#2,1,0.06443302083334856,208.7629875
7,note_on,70,A#4,1,0.06443302083334856,208.7629875
7,note_on,61,C#4,0.7559055118110236,0.06443302083334856,208.7629875
7,note_on,68,G#4,1,0.06443302083334856,208.7629875
7,note_on,63,D#4,1,0.06443302083334856,208.7629875
7,note_on,63,D#4,1,0.06443302083334856,208.91762675
7,note_on,42,F#2,1,0.06443302083334856,208.91762675
7,note_on,70,A#4,1,0.06443302083334856,208.91762675
7,note_on,68,G#4,1,0.06443302083334856,208.91762675
7,note_on,56,G#3,1,0.06443302083334856,209.072266
7,note_on,42,F#2,1,0.06443302083334856,209.072266
7,note_on,60,C4,0.6299212598425197,0.06443302083334856,209.072266
7,note_on,70,A#4,1,0.06443302083334856,209.072266
7,note_on,68,G#4,1,0.06443302083334856,209.072266
7,note_on,42,F#2,1,0.06443302083334856,209.22690525000002
7,note_on,70,A#4,1,0.06443302083334856,209.22690525000002
7,note_on,60,C4,0.6299212598425197,0.06443302083334856,209.22690525000002
7,note_on,70,A#4,1,0.06443302083334856,209.38154450000002
7,note_on,68,G#4,1,0.06443302083334856,209.38154450000002
7,note_on,62,D4,1,0.06443302083334856,209.38154450000002
7,note_on,60,C4,0.6299212598425197,0.06443302083334856,209.38154450000002
7,note_on,42,F#2,1,0.06443302083334856,209.38154450000002
7,note_on,70,A#4,1,0.06443302083332014,209.53618375000002
7,note_on,64,E4,1,0.06443302083332014,209.53618375000002
7,note_on,60,C4,0.6299212598425197,0.06443302083332014,209.53618375000002
7,note_on,42,F#2,1,0.06443302083332014,209.53618375000002
7,note_on,70,A#4,1,0.06443302083334856,209.690823
7,note_on,42,F#2,1,0.06443302083334856,209.690823
7,note_on,68,G#4,1,0.06443302083334856,209.690823
7,note_on,60,C4,0.6299212598425197,0.06443302083334856,209.690823
7,note_on,64,E4,1,0.06443302083334856,209.690823
7,note_on,56,G#3,1,0.06443302083334856,209.690823
7,note_on,68,G#4,1,0.06443302083334856,209.84546225
7,note_on,42,F#2,1,0.06443302083334856,209.84546225
7,note_on,60,C4,0.6299212598425197,0.06443302083334856,209.84546225
7,note_on,70,A#4,1,0.06443302083334856,209.84546225
7,note_on,68,G#4,1,0.06443302083334856,210.0001015
7,note_on,70,A#4,1,0.06443302083334856,210.0001015
7,note_on,61,C#4,0.7559055118110236,0.06443302083334856,210.0001015
7,note_on,63,D#4,1,0.06443302083334856,210.0001015
7,note_on,42,F#2,1,0.06443302083334856,210.0001015
7,note_on,63,D#4,1,0.06443302083334856,210.15474075
7,note_on,42,F#2,1,0.06443302083334856,210.15474075
7,note_on,68,G#4,1,0.06443302083334856,210.15474075
7,note_on,70,A#4,1,0.06443302083334856,210.15474075
7,note_on,60,C4,0.6299212598425197,0.06443302083334856,210.30938
7,note_on,42,F#2,1,0.06443302083334856,210.30938
7,note_on,70,A#4,1,0.06443302083334856,210.30938
7,note_on,56,G#3,1,0.06443302083334856,210.30938
7,note_on,70,A#4,1,0.06443302083334856,210.46401925
7,note_on,42,F#2,1,0.06443302083334856,210.46401925
7,note_on,68,G#4,1,0.06443302083334856,210.46401925
7,note_on,60,C4,0.6299212598425197,0.06443302083334856,210.46401925
7,note_on,70,A#4,1,0.06443302083334856,210.6186585
7,note_on,68,G#4,1,0.06443302083334856,210.6186585
7,note_on,42,F#2,1,0.06443302083334856,210.6186585
7,note_on,62,D4,1,0.06443302083334856,210.6186585
7,note_on,60,C4,0.6299212598425197,0.06443302083334856,210.6186585
7,note_on,70,A#4,1,0.06443302083334856,210.77329775
7,note_on,60,C4,0.6299212598425197,0.06443302083334856,210.77329775
7,note_on,42,F#2,1,0.06443302083334856,210.77329775
7,note_on,68,G#4,1,0.06443302083334856,210.77329775
7,note_on,42,F#2,1,0.06443302083334856,210.92793700000001
7,note_on,68,G#4,1,0.06443302083334856,210.92793700000001
7,note_on,70,A#4,1,0.06443302083334856,210.92793700000001
7,note_on,56,G#3,1,0.06443302083334856,210.92793700000001
7,note_on,60,C4,0.6299212598425197,0.06443302083334856,210.92793700000001
7,note_on,70,A#4,1,0.06443302083334856,211.08257625000002
7,note_on,60,C4,0.6299212598425197,0.06443302083334856,211.08257625000002
7,note_on,42,F#2,1,0.06443302083334856,211.08257625000002
7,note_on,68,G#4,1,0.06443302083332014,211.23721550000002
7,note_on,42,F#2,1,0.06443302083332014,211.23721550000002
7,note_on,70,A#4,1,0.06443302083332014,211.23721550000002
7,note_on,61,C#4,0.7559055118110236,0.06443302083332014,211.23721550000002
7,note_on,63,D#4,1,0.06443302083332014,211.23721550000002
7,note_on,63,D#4,1,0.06443302083332014,211.39185475000002
7,note_on,42,F#2,1,0.06443302083332014,211.39185475000002
7,note_on,70,A#4,1,0.06443302083332014,211.39185475000002
7,note_on,68,G#4,1,0.06443302083332014,211.39185475000002
7,note_on,60,C4,0.6299212598425197,0.06443302083334856,211.546494
7,note_on,42,F#2,1,0.06443302083334856,211.546494
7,note_on,68,G#4,1,0.06443302083334856,211.546494
7,note_on,70,A#4,1,0.06443302083334856,211.546494
7,note_on,56,G#3,1,0.06443302083334856,211.546494
7,note_on,42,F#2,1,0.06443302083334856,211.70113325
7,note_on,60,C4,0.6299212598425197,0.06443302083334856,211.70113325
7,note_on,70,A#4,1,0.06443302083334856,211.70113325
7,note_on,60,C4,0.6299212598425197,0.06443302083334856,211.8557725
7,note_on,62,D4,1,0.06443302083334856,211.8557725
7,note_on,70,A#4,1,0.06443302083334856,211.8557725
7,note_on,42,F#2,1,0.06443302083334856,211.8557725
7,note_on,68,G#4,1,0.06443302083334856,211.8557725
7,note_on,42,F#2,1,0.06443302083334856,212.01041175
7,note_on,70,A#4,1,0.06443302083334856,212.01041175
7,note_on,60,C4,0.6299212598425197,0.06443302083334856,212.01041175
7,note_on,64,E4,1,0.06443302083334856,212.01041175
7,note_on,70,A#4,1,0.06443302083334856,212.165051
7,note_on,68,G#4,1,0.06443302083334856,212.165051
7,note_on,42,F#2,1,0.06443302083334856,212.165051
7,note_on,56,G#3,1,0.06443302083334856,212.165051
7,note_on,60,C4,0.6299212598425197,0.06443302083334856,212.165051
7,note_on,64,E4,1,0.06443302083334856,212.165051
7,note_on,42,F#2,1,0.06443302083334856,212.31969025
7,note_on,70,A#4,1,0.06443302083334856,212.31969025
7,note_on,60,C4,0.6299212598425197,0.06443302083334856,212.31969025
7,note_on,68,G#4,1,0.06443302083334856,212.31969025
7,note_on,42,F#2,1,0.06443302083334856,212.4743295
7,note_on,61,C#4,0.7559055118110236,0.06443302083334856,212.4743295
7,note_on,63,D#4,1,0.06443302083334856,212.4743295
7,note_on,68,G#4,1,0.06443302083334856,212.4743295
7,note_on,70,A#4,1,0.06443302083334856,212.4743295
7,note_on,42,F#2,1,0.06443302083334856,212.62896875
7,note_on,68,G#4,1,0.06443302083334856,212.62896875
7,note_on,63,D#4,1,0.06443302083334856,212.62896875
7,note_on,70,A#4,1,0.06443302083334856,212.62896875
7,note_on,42,F#2,1,0.06443302083334856,212.78360800000002
7,note_on,60,C4,0.6299212598425197,0.06443302083334856,212.78360800000002
7,note_on,70,A#4,1,0.06443302083334856,212.78360800000002
7,note_on,56,G#3,1,0.06443302083334856,212.78360800000002
7,note_on,60,C4,0.6299212598425197,0.06443302083334856,212.93824725000002
7,note_on,68,G#4,1,0.06443302083334856,212.93824725000002
7,note_on,42,F#2,1,0.06443302083334856,212.93824725000002
7,note_on,70,A#4,1,0.06443302083334856,212.93824725000002
7,note_on,68,G#4,1,0.06443302083332014,213.09288650000002
7,note_on,70,A#4,1,0.06443302083332014,213.09288650000002
7,note_on,62,D4,1,0.06443302083332014,213.09288650000002
7,note_on,60,C4,0.6299212598425197,0.06443302083332014,213.09288650000002
7,note_on,42,F#2,1,0.06443302083332014,213.09288650000002
7,note_on,42,F#2,1,0.06443302083334856,213.24752575
7,note_on,70,A#4,1,0.06443302083334856,213.24752575
7,note_on,68,G#4,1,0.06443302083334856,213.24752575
7,note_on,60,C4,0.6299212598425197,0.06443302083334856,213.24752575
7,note_on,68,G#4,1,0.06443302083334856,213.402165
7,note_on,60,C4,0.6299212598425197,0.06443302083334856,213.402165
7,note_on,70,A#4,1,0.06443302083334856,213.402165
7,note_on,56,G#3,1,0.06443302083334856,213.402165
7,note_on,42,F#2,1,0.06443302083334856,213.402165
7,note_on,42,F#2,1,0.06443302083334856,213.55680425
7,note_on,70,A#4,1,0.06443302083334856,213.55680425
7,note_on,60,C4,0.6299212598425197,0.06443302083334856,213.55680425
7,note_on,68,G#4,1,0.06443302083334856,213.7114435
7,note_on,63,D#4,1,0.06443302083334856,213.7114435
7,note_on,61,C#4,0.7559055118110236,0.06443302083334856,213.7114435
7,note_on,42,F#2,1,0.06443302083334856,213.7114435
7,note_on,70,A#4,1,0.06443302083334856,213.7114435
7,note_on,68,G#4,1,0.06443302083334856,213.86608275
7,note_on,70,A#4,1,0.06443302083334856,213.86608275
7,note_on,63,D#4,1,0.06443302083334856,213.86608275
7,note_on,42,F#2,1,0.06443302083334856,213.86608275
7,note_on,42,F#2,1,0.06443302083334856,214.020722
7,note_on,70,A#4,1,0.06443302083334856,214.020722
7,note_on,56,G#3,1,0.06443302083334856,214.020722
7,note_on,68,G#4,1,0.06443302083334856,214.020722
7,note_on,60,C4,0.6299212598425197,0.06443302083334856,214.020722
7,note_on,70,A#4,1,0.06443302083334856,214.17536125
7,note_on,60,C4,0.6299212598425197,0.06443302083334856,214.17536125
7,note_on,42,F#2,1,0.06443302083334856,214.17536125
7,note_on,60,C4,0.6299212598425197,0.06443302083334856,214.3300005
7,note_on,62,D4,1,0.06443302083334856,214.3300005
7,note_on,70,A#4,1,0.06443302083334856,214.3300005
7,note_on,42,F#2,1,0.06443302083334856,214.3300005
7,note_on,68,G#4,1,0.06443302083334856,214.3300005
7,note_on,64,E4,1,0.06443302083334856,214.48463975
7,note_on,60,C4,0.6299212598425197,0.06443302083334856,214.48463975
7,note_on,42,F#2,1,0.219072270833351,214.48463975
7,note_on,70,A#4,1,0.06443302083334856,214.48463975
7,note_on,60,C4,0.6299212598425197,0.06443302083334856,214.63927900000002
7,note_on,42,F#2,1,0.219072270833351,214.63927900000002
7,note_on,56,G#3,1,0.06443302083334856,214.63927900000002
7,note_on,64,E4,1,0.06443302083334856,214.63927900000002
7,note_on,70,A#4,1,0.06443302083334856,214.63927900000002
7,note_on,68,G#4,1,0.06443302083334856,214.63927900000002
7,note_on,70,A#4,1,0.06443302083334856,214.79391825000002
7,note_on,60,C4,0.6299212598425197,0.06443302083334856,214.79391825000002
7,note_on,68,G#4,1,0.06443302083334856,214.79391825000002
7,note_on,42,F#2,1,0.2190722708333226,214.79391825000002
7,note_on,42,F#2,1,0.2190722708333226,214.94855750000002
7,note_on,68,G#4,1,0.06443302083332014,214.94855750000002
7,note_on,61,C#4,0.7559055118110236,0.06443302083332014,214.94855750000002
7,note_on,70,A#4,1,0.06443302083332014,214.94855750000002
7,note_on,63,D#4,1,0.06443302083332014,214.94855750000002
7,note_on,63,D#4,1,0.06443302083334856,215.10319675
7,note_on,42,F#2,1,0.219072270833351,215.10319675
7,note_on,68,G#4,1,0.06443302083334856,215.10319675
7,note_on,70,A#4,1,0.06443302083334856,215.10319675
7,note_on,56,G#3,1,0.06443302083334856,215.257836
7,note_on,70,A#4,1,0.06443302083334856,215.257836
7,note_on,60,C4,0.6299212598425197,0.06443302083334856,215.257836
7,note_on,42,F#2,1,0.219072270833351,215.257836
7,note_on,42,F#2,1,0.219072270833351,215.41247525
7,note_on,60,C4,0.6299212598425197,0.06443302083334856,215.41247525
7,note_on,70,A#4,1,0.06443302083334856,215.41247525
7,note_on,68,G#4,1,0.06443302083334856,215.41247525
7,note_on,42,F#2,1,0.219072270833351,215.5671145
7,note_on,70,A#4,1,0.06443302083334856,215.5671145
7,note_on,62,D4,1,0.06443302083334856,215.5671145
7,note_on,60,C4,0.6299212598425197,0.06443302083334856,215.5671145
7,note_on,68,G#4,1,0.06443302083334856,215.5671145
7,note_on,68,G#4,1,0.06443302083334856,215.72175375
7,note_on,60,C4,0.6299212598425197,0.06443302083334856,215.72175375
7,note_on,70,A#4,1,0.06443302083334856,215.72175375
7,note_on,42,F#2,1,0.219072270833351,215.72175375
7,note_on,42,F#2,1,0.219072270833351,215.876393
7,note_on,60,C4,0.6299212598425197,0.06443302083334856,215.876393
7,note_on,56,G#3,1,0.06443302083334856,215.876393
7,note_on,68,G#4,1,0.06443302083334856,215.876393
7,note_on,70,A#4,1,0.06443302083334856,215.876393
7,note_on,70,A#4,1,0.06443302083334856,216.03103225
7,note_on,60,C4,0.6299212598425197,0.06443302083334856,216.03103225
7,note_on,42,F#2,1,0.219072270833351,216.03103225
7,note_on,70,A#4,1,0.06443302083334856,216.1856715
7,note_on,68,G#4,1,0.06443302083334856,216.1856715
7,note_on,63,D#4,1,0.06443302083334856,216.1856715
7,note_on,42,F#2,1,0.219072270833351,216.1856715
7,note_on,61,C#4,0.7559055118110236,0.06443302083334856,216.1856715
7,note_on,63,D#4,1,0.06443302083334856,216.34031075000001
7,note_on,68,G#4,1,0.06443302083334856,216.34031075000001
7,note_on,70,A#4,1,0.06443302083334856,216.34031075000001
7,note_on,42,F#2,1,0.219072270833351,216.34031075000001
7,note_on,42,F#2,1,0.2190722708333226,216.49495000000002
7,note_on,56,G#3,1,0.06443302083334856,216.49495000000002
7,note_on,70,A#4,1,0.06443302083334856,216.49495000000002
7,note_on,60,C4,0.6299212598425197,0.06443302083334856,216.49495000000002
7,note_on,68,G#4,1,0.06443302083334856,216.49495000000002
7,note_on,42,F#2,1,0.2190722708333226,216.64958925000002
7,note_on,60,C4,0.6299212598425197,0.06443302083332014,216.64958925000002
7,note_on,70,A#4,1,0.06443302083332014,216.64958925000002
7,note_on,42,F#2,1,0.2190722708333226,216.80422850000002
7,note_on,60,C4,0.6299212598425197,0.06443302083332014,216.80422850000002
7,note_on,70,A#4,1,0.06443302083332014,216.80422850000002
7,note_on,68,G#4,1,0.06443302083332014,216.80422850000002
7,note_on,62,D4,1,0.06443302083332014,216.80422850000002
7,note_on,60,C4,0.6299212598425197,0.06443302083334856,216.95886775
7,note_on,64,E4,1,0.06443302083334856,216.95886775
7,note_on,70,A#4,1,0.06443302083334856,216.95886775
7,note_on,42,F#2,1,0.219072270833351,216.95886775
7,note_on,56,G#3,1,0.06443302083334856,217.113507
7,note_on,60,C4,0.6299212598425197,0.06443302083334856,217.113507
7,note_on,42,F#2,1,0.219072270833351,217.113507
7,note_on,70,A#4,1,0.06443302083334856,217.113507
7,note_on,64,E4,1,0.06443302083334856,217.113507
7,note_on,68,G#4,1,0.06443302083334856,217.113507
7,note_on,42,F#2,1,0.219072270833351,217.26814625
7,note_on,60,C4,0.6299212598425197,0.06443302083334856,217.26814625
7,note_on,68,G#4,1,0.06443302083334856,217.26814625
7,note_on,70,A#4,1,0.06443302083334856,217.26814625
7,note_on,61,C#4,0.7559055118110236,0.06443302083334856,217.4227855
7,note_on,63,D#4,1,0.06443302083334856,217.4227855
7,note_on,70,A#4,1,0.06443302083334856,217.4227855
7,note_on,42,F#2,1,0.219072270833351,217.4227855
7,note_on,68,G#4,1,0.06443302083334856,217.4227855
7,note_on,63,D#4,1,0.06443302083334856,217.57742475
7,note_on,42,F#2,1,0.219072270833351,217.57742475
7,note_on,68,G#4,1,0.06443302083334856,217.57742475
7,note_on,70,A#4,1,0.06443302083334856,217.57742475
7,note_on,60,C4,0.6299212598425197,0.06443302083334856,217.732064
7,note_on,56,G#3,1,0.06443302083334856,217.732064
7,note_on,70,A#4,1,0.06443302083334856,217.732064
7,note_on,42,F#2,1,0.219072270833351,217.732064
7,note_on,42,F#2,1,0.219072270833351,217.88670325
7,note_on,60,C4,0.6299212598425197,0.06443302083334856,217.88670325
7,note_on,68,G#4,1,0.06443302083334856,217.88670325
7,note_on,70,A#4,1,0.06443302083334856,217.88670325
7,note_on,60,C4,0.6299212598425197,0.06443302083334856,218.0413425
7,note_on,70,A#4,1,0.06443302083334856,218.0413425
7,note_on,68,G#4,1,0.06443302083334856,218.0413425
7,note_on,62,D4,1,0.06443302083334856,218.0413425
7,note_on,42,F#2,1,0.219072270833351,218.0413425
7,note_on,60,C4,0.6299212598425197,0.06443302083334856,218.19598175000002
7,note_on,68,G#4,1,0.06443302083334856,218.19598175000002
7,note_on,70,A#4,1,0.06443302083334856,218.19598175000002
7,note_on,42,F#2,1,0.219072270833351,218.19598175000002
7,note_on,68,G#4,1,0.06443302083334856,218.35062100000002
7,note_on,56,G#3,1,0.06443302083334856,218.35062100000002
7,note_on,70,A#4,1,0.06443302083334856,218.35062100000002
7,note_on,42,F#2,1,0.2190722708333226,218.35062100000002
7,note_on,60,C4,0.6299212598425197,0.06443302083334856,218.35062100000002
7,note_on,60,C4,0.6299212598425197,0.06443302083332014,218.50526025000002
7,note_on,42,F#2,1,0.2190722708333226,218.50526025000002
7,note_on,70,A#4,1,0.06443302083332014,218.50526025000002
7,note_on,42,F#2,1,0.219072270833351,218.6598995
7,note_on,61,C#4,0.7559055118110236,0.06443302083334856,218.6598995
7,note_on,68,G#4,1,0.06443302083334856,218.6598995
7,note_on,63,D#4,1,0.06443302083334856,218.6598995
7,note_on,70,A#4,1,0.06443302083334856,218.6598995
7,note_on,68,G#4,1,0.06443302083334856,218.81453875
7,note_on,63,D#4,1,0.06443302083334856,218.81453875
7,note_on,42,F#2,1,0.219072270833351,218.81453875
7,note_on,70,A#4,1,0.06443302083334856,218.81453875
7,note_on,70,A#4,1,0.06443302083334856,218.969178
7,note_on,68,G#4,1,0.06443302083334856,218.969178
7,note_on,60,C4,0.6299212598425197,0.06443302083334856,218.969178
7,note_on,56,G#3,1,0.06443302083334856,218.969178
7,note_on,42,F#2,1,0.219072270833351,218.969178
7,note_on,60,C4,0.6299212598425197,0.06443302083334856,219.12381725
7,note_on,42,F#2,1,0.219072270833351,219.12381725
7,note_on,70,A#4,1,0.06443302083334856,219.12381725
7,note_on,42,F#2,1,0.219072270833351,219.2784565
7,note_on,60,C4,0.6299212598425197,0.06443302083334856,219.2784565
7,note_on,62,D4,1,0.06443302083334856,219.2784565
7,note_on,68,G#4,1,0.06443302083334856,219.2784565
7,note_on,70,A#4,1,0.06443302083334856,219.2784565
7,note_on,42,F#2,1,0.219072270833351,219.43309575
7,note_on,70,A#4,1,0.06443302083334856,219.43309575
7,note_on,64,E4,1,0.06443302083334856,219.43309575
7,note_on,60,C4,0.6299212598425197,0.06443302083334856,219.43309575
7,note_on,42,F#2,1,0.219072270833351,219.587735
7,note_on,60,C4,0.6299212598425197,0.06443302083334856,219.587735
7,note_on,68,G#4,1,0.06443302083334856,219.587735
7,note_on,56,G#3,1,0.06443302083334856,219.587735
7,note_on,64,E4,1,0.06443302083334856,219.587735
7,note_on,70,A#4,1,0.06443302083334856,219.587735
7,note_on,70,A#4,1,0.06443302083334856,219.74237425
7,note_on,42,F#2,1,0.219072270833351,219.74237425
7,note_on,60,C4,0.6299212598425197,0.06443302083334856,219.74237425
7,note_on,68,G#4,1,0.06443302083334856,219.74237425
7,note_on,63,D#4,1,0.06443302083334856,219.8970135
7,note_on,68,G#4,1,0.06443302083334856,219.8970135
7,note_on,61,C#4,0.7559055118110236,0.06443302083334856,219.8970135
7,note_on,70,A#4,1,0.06443302083334856,219.8970135
7,note_on,42,F#2,1,0.219072270833351,219.8970135
7,note_on,42,F#2,1,0.219072270833351,220.05165275000002
7,note_on,70,A#4,1,0.06443302083334856,220.05165275000002
7,note_on,63,D#4,1,0.06443302083334856,220.05165275000002
7,note_on,68,G#4,1,0.06443302083334856,220.05165275000002
7,note_on,42,F#2,1,0.2190722708333226,220.20629200000002
7,note_on,70,A#4,1,0.06443302083334856,220.20629200000002
7,note_on,56,G#3,1,0.06443302083334856,220.20629200000002
7,note_on,60,C4,0.6299212598425197,0.06443302083334856,220.20629200000002
7,note_on,70,A#4,1,0.06443302083332014,220.36093125000002
7,note_on,42,F#2,1,0.2190722708333226,220.36093125000002
7,note_on,60,C4,0.6299212598425197,0.06443302083332014,220.36093125000002
7,note_on,68,G#4,1,0.06443302083332014,220.36093125000002
7,note_on,42,F#2,1,0.219072270833351,220.5155705
7,note_on,70,A#4,1,0.06443302083334856,220.5155705
7,note_on,62,D4,1,0.06443302083334856,220.5155705
7,note_on,60,C4,0.6299212598425197,0.06443302083334856,220.5155705
7,note_on,68,G#4,1,0.06443302083334856,220.5155705
7,note_on,70,A#4,1,0.06443302083334856,220.67020975
7,note_on,68,G#4,1,0.06443302083334856,220.67020975
7,note_on,60,C4,0.6299212598425197,0.06443302083334856,220.67020975
7,note_on,42,F#2,1,0.219072270833351,220.67020975
7,note_on,42,F#2,1,0.219072270833351,220.824849
7,note_on,60,C4,0.6299212598425197,0.06443302083334856,220.824849
7,note_on,70,A#4,1,0.06443302083334856,220.824849
7,note_on,56,G#3,1,0.06443302083334856,220.824849
7,note_on,68,G#4,1,0.06443302083334856,220.824849
7,note_on,70,A#4,1,0.06443302083334856,220.97948825
7,note_on,60,C4,0.6299212598425197,0.06443302083334856,220.97948825
7,note_on,42,F#2,1,0.219072270833351,220.97948825
7,note_on,68,G#4,1,0.06443302083334856,221.1341275
7,note_on,63,D#4,1,0.06443302083334856,221.1341275
7,note_on,42,F#2,1,0.219072270833351,221.1341275
7,note_on,61,C#4,0.7559055118110236,0.06443302083334856,221.1341275
7,note_on,70,A#4,1,0.06443302083334856,221.1341275
7,note_on,68,G#4,1,0.06443302083334856,221.28876675
7,note_on,63,D#4,1,0.06443302083334856,221.28876675
7,note_on,42,F#2,1,0.219072270833351,221.28876675
7,note_on,70,A#4,1,0.06443302083334856,221.28876675
7,note_on,70,A#4,1,0.06443302083334856,221.443406
7,note_on,42,F#2,1,0.219072270833351,221.443406
7,note_on,56,G#3,1,0.06443302083334856,221.443406
7,note_on,60,C4,0.6299212598425197,0.06443302083334856,221.443406
7,note_on,68,G#4,1,0.06443302083334856,221.443406
7,note_on,70,A#4,1,0.06443302083334856,221.59804525
7,note_on,42,F#2,1,0.219072270833351,221.59804525
7,note_on,60,C4,0.6299212598425197,0.06443302083334856,221.59804525
7,note_on,70,A#4,1,0.06443302083334856,221.75268450000002
7,note_on,42,F#2,1,0.219072270833351,221.75268450000002
7,note_on,68,G#4,1,0.06443302083334856,221.75268450000002
7,note_on,60,C4,0.6299212598425197,0.06443302083334856,221.75268450000002
7,note_on,62,D4,1,0.06443302083334856,221.75268450000002
7,note_on,60,C4,0.6299212598425197,0.06443302083334856,221.90732375000002
7,note_on,42,F#2,1,0.2190722708333226,221.90732375000002
7,note_on,64,E4,1,0.06443302083334856,221.90732375000002
7,note_on,70,A#4,1,0.06443302083334856,221.90732375000002
7,note_on,56,G#3,1,0.06443302083332014,222.06196300000002
7,note_on,42,F#2,1,0.2190722708333226,222.06196300000002
7,note_on,64,E4,1,0.06443302083332014,222.06196300000002
7,note_on,68,G#4,1,0.06443302083332014,222.06196300000002
7,note_on,70,A#4,1,0.06443302083332014,222.06196300000002
7,note_on,60,C4,0.6299212598425197,0.06443302083332014,222.06196300000002
7,note_on,70,A#4,1,0.06443302083332014,222.21660225000002
7,note_on,68,G#4,1,0.06443302083332014,222.21660225000002
7,note_on,42,F#2,1,0.2190722708333226,222.21660225000002
7,note_on,60,C4,0.6299212598425197,0.06443302083332014,222.21660225000002
7,note_on,42,F#2,1,0.219072270833351,222.3712415
7,note_on,63,D#4,1,0.06443302083334856,222.3712415
7,note_on,61,C#4,0.7559055118110236,0.06443302083334856,222.3712415
7,note_on,68,G#4,1,0.06443302083334856,222.3712415
7,note_on,70,A#4,1,0.06443302083334856,222.3712415
7,note_on,42,F#2,1,0.219072270833351,222.52588075
7,note_on,63,D#4,1,0.06443302083334856,222.52588075
7,note_on,68,G#4,1,0.06443302083334856,222.52588075
7,note_on,70,A#4,1,0.06443302083334856,222.52588075
7,note_on,56,G#3,1,0.06443302083334856,222.68052
7,note_on,42,F#2,1,0.219072270833351,222.68052
7,note_on,60,C4,0.6299212598425197,0.06443302083334856,222.68052
7,note_on,70,A#4,1,0.06443302083334856,222.68052
7,note_on,60,C4,0.6299212598425197,0.06443302083334856,222.83515925
7,note_on,42,F#2,1,0.219072270833351,222.83515925
7,note_on,70,A#4,1,0.06443302083334856,222.83515925
7,note_on,68,G#4,1,0.06443302083334856,222.83515925
7,note_on,42,F#2,1,0.219072270833351,222.9897985
7,note_on,60,C4,0.6299212598425197,0.06443302083334856,222.9897985
7,note_on,70,A#4,1,0.06443302083334856,222.9897985
7,note_on,68,G#4,1,0.06443302083334856,222.9897985
7,note_on,62,D4,1,0.06443302083334856,222.9897985
7,note_on,68,G#4,1,0.06443302083334856,223.14443775
7,note_on,60,C4,0.6299212598425197,0.06443302083334856,223.14443775
7,note_on,42,F#2,1,0.219072270833351,223.14443775
7,note_on,70,A#4,1,0.06443302083334856,223.14443775
7,note_on,42,F#2,1,0.219072270833351,223.299077
7,note_on,56,G#3,1,0.06443302083334856,223.299077
7,note_on,60,C4,0.6299212598425197,0.06443302083334856,223.299077
7,note_on,68,G#4,1,0.06443302083334856,223.299077
7,note_on,70,A#4,1,0.06443302083334856,223.299077
7,note_on,60,C4,0.6299212598425197,0.06443302083334856,223.45371625
7,note_on,42,F#2,1,0.219072270833351,223.45371625
7,note_on,70,A#4,1,0.06443302083334856,223.45371625
7,note_on,61,C#4,0.7559055118110236,0.06443302083334856,223.60835550000002
7,note_on,42,F#2,1,0.219072270833351,223.60835550000002
7,note_on,68,G#4,1,0.06443302083334856,223.60835550000002
7,note_on,63,D#4,1,0.06443302083334856,223.60835550000002
7,note_on,70,A#4,1,0.06443302083334856,223.60835550000002
7,note_on,42,F#2,1,0.2190722708333226,223.76299475000002
7,note_on,63,D#4,1,0.06443302083334856,223.76299475000002
7,note_on,68,G#4,1,0.06443302083334856,223.76299475000002
7,note_on,70,A#4,1,0.06443302083334856,223.76299475000002
7,note_on,68,G#4,1,0.06443302083332014,223.91763400000002
7,note_on,70,A#4,1,0.06443302083332014,223.91763400000002
7,note_on,42,F#2,1,0.2190722708333226,223.91763400000002
7,note_on,60,C4,0.6299212598425197,0.06443302083332014,223.91763400000002
7,note_on,56,G#3,1,0.06443302083332014,223.91763400000002
7,note_on,60,C4,0.6299212598425197,0.06443302083334856,224.07227325
7,note_on,70,A#4,1,0.06443302083334856,224.07227325
7,note_on,42,F#2,1,0.219072270833351,224.07227325
7,note_on,68,G#4,1,0.06443302083334856,224.2269125
7,note_on,62,D4,1,0.06443302083334856,224.2269125
7,note_on,42,F#2,1,0.219072270833351,224.2269125
7,note_on,60,C4,0.6299212598425197,0.06443302083334856,224.2269125
7,note_on,70,A#4,1,0.06443302083334856,224.2269125
7,note_on,64,E4,1,0.06443302083334856,224.38155175
7,note_on,60,C4,0.6299212598425197,0.06443302083334856,224.38155175
7,note_on,42,F#2,1,0.219072270833351,224.38155175
7,note_on,70,A#4,1,0.06443302083334856,224.38155175
7,note_on,64,E4,1,0.06443302083334856,224.536191
7,note_on,56,G#3,1,0.06443302083334856,224.536191
7,note_on,42,F#2,1,0.219072270833351,224.536191
7,note_on,68,G#4,1,0.06443302083334856,224.536191
7,note_on,70,A#4,1,0.06443302083334856,224.536191
7,note_on,60,C4,0.6299212598425197,0.06443302083334856,224.536191
7,note_on,60,C4,0.6299212598425197,0.06443302083334856,224.69083025
7,note_on,70,A#4,1,0.06443302083334856,224.69083025
7,note_on,42,F#2,1,0.219072270833351,224.69083025
7,note_on,68,G#4,1,0.06443302083334856,224.69083025
7,note_on,63,D#4,1,0.06443302083334856,224.8454695
7,note_on,70,A#4,1,0.06443302083334856,224.8454695
7,note_on,68,G#4,1,0.06443302083334856,224.8454695
7,note_on,42,F#2,1,0.219072270833351,224.8454695
7,note_on,61,C#4,0.7559055118110236,0.06443302083334856,224.8454695
7,note_on,68,G#4,1,0.06443302083334856,225.00010875
7,note_on,70,A#4,1,0.06443302083334856,225.00010875
7,note_on,42,F#2,1,0.219072270833351,225.00010875
7,note_on,63,D#4,1,0.06443302083334856,225.00010875
7,note_on,70,A#4,1,0.06443302083334856,225.154748
7,note_on,60,C4,0.6299212598425197,0.06443302083334856,225.154748
7,note_on,56,G#3,1,0.06443302083334856,225.154748
7,note_on,42,F#2,1,0.219072270833351,225.154748
7,note_on,68,G#4,1,0.06443302083334856,225.30938725000001
7,note_on,70,A#4,1,0.06443302083334856,225.30938725000001
7,note_on,60,C4,0.6299212598425197,0.06443302083334856,225.30938725000001
7,note_on,42,F#2,1,0.219072270833351,225.30938725000001
7,note_on,60,C4,0.6299212598425197,0.06443302083334856,225.46402650000002
7,note_on,62,D4,1,0.06443302083334856,225.46402650000002
7,note_on,70,A#4,1,0.06443302083334856,225.46402650000002
7,note_on,42,F#2,1,0.2190722708333226,225.46402650000002
7,note_on,68,G#4,1,0.06443302083334856,225.46402650000002
7,note_on,70,A#4,1,0.06443302083332014,225.61866575000002
7,note_on,68,G#4,1,0.06443302083332014,225.61866575000002
7,note_on,60,C4,0.6299212598425197,0.06443302083332014,225.61866575000002
7,note_on,42,F#2,1,0.2190722708333226,225.61866575000002
7,note_on,60,C4,0.6299212598425197,0.06443302083332014,225.77330500000002
7,note_on,42,F#2,1,0.2190722708333226,225.77330500000002
7,note_on,70,A#4,1,0.06443302083332014,225.77330500000002
7,note_on,56,G#3,1,0.06443302083332014,225.77330500000002
7,note_on,68,G#4,1,0.06443302083332014,225.77330500000002
7,note_on,70,A#4,1,0.06443302083334856,225.92794425
7,note_on,60,C4,0.6299212598425197,0.06443302083334856,225.92794425
7,note_on,42,F#2,1,0.219072270833351,225.92794425
7,note_on,70,A#4,1,0.06443302083334856,226.0825835
7,note_on,63,D#4,1,0.06443302083334856,226.0825835
7,note_on,61,C#4,0.7559055118110236,0.06443302083334856,226.0825835
7,note_on,68,G#4,1,0.06443302083334856,226.0825835
7,note_on,42,F#2,1,0.219072270833351,226.0825835
7,note_on,68,G#4,1,0.06443302083334856,226.23722275
7,note_on,70,A#4,1,0.06443302083334856,226.23722275
7,note_on,42,F#2,1,0.219072270833351,226.23722275
7,note_on,63,D#4,1,0.06443302083334856,226.23722275
7,note_on,70,A#4,1,0.06443302083334856,226.391862
7,note_on,56,G#3,1,0.06443302083334856,226.391862
7,note_on,42,F#2,1,0.219072270833351,226.391862
7,note_on,68,G#4,1,0.06443302083334856,226.391862
7,note_on,60,C4,0.6299212598425197,0.06443302083334856,226.391862
7,note_on,60,C4,0.6299212598425197,0.06443302083334856,226.54650125
7,note_on,70,A#4,1,0.06443302083334856,226.54650125
7,note_on,42,F#2,1,0.219072270833351,226.54650125
7,note_on,42,F#2,1,0.219072270833351,226.7011405
7,note_on,62,D4,1,0.06443302083334856,226.7011405
7,note_on,60,C4,0.6299212598425197,0.06443302083334856,226.7011405
7,note_on,70,A#4,1,0.06443302083334856,226.7011405
7,note_on,68,G#4,1,0.06443302083334856,226.7011405
7,note_on,70,A#4,1,0.06443302083334856,226.85577975
7,note_on,60,C4,0.6299212598425197,0.06443302083334856,226.85577975
7,note_on,64,E4,1,0.06443302083334856,226.85577975
7,note_on,42,F#2,1,0.219072270833351,226.85577975
7,note_on,60,C4,0.6299212598425197,0.06443302083334856,227.010419
7,note_on,42,F#2,1,0.219072270833351,227.010419
7,note_on,64,E4,1,0.06443302083334856,227.010419
7,note_on,56,G#3,1,0.06443302083334856,227.010419
7,note_on,70,A#4,1,0.06443302083334856,227.010419
7,note_on,68,G#4,1,0.06443302083334856,227.010419
7,note_on,42,F#2,1,0.219072270833351,227.16505825000002
7,note_on,60,C4,0.6299212598425197,0.06443302083334856,227.16505825000002
7,note_on,70,A#4,1,0.06443302083334856,227.16505825000002
7,note_on,68,G#4,1,0.06443302083334856,227.16505825000002
7,note_on,70,A#4,1,0.06443302083334856,227.31969750000002
7,note_on,68,G#4,1,0.06443302083334856,227.31969750000002
7,note_on,63,D#4,1,0.06443302083334856,227.31969750000002
7,note_on,61,C#4,0.7559055118110236,0.06443302083334856,227.31969750000002
7,note_on,42,F#2,1,0.2190722708333226,227.31969750000002
7,note_on,63,D#4,1,0.06443302083332014,227.47433675000002
7,note_on,42,F#2,1,0.2190722708333226,227.47433675000002
7,note_on,68,G#4,1,0.06443302083332014,227.47433675000002
7,note_on,70,A#4,1,0.06443302083332014,227.47433675000002
7,note_on,42,F#2,1,0.2190722708333226,227.62897600000002
7,note_on,56,G#3,1,0.06443302083332014,227.62897600000002
7,note_on,60,C4,0.6299212598425197,0.06443302083332014,227.62897600000002
7,note_on,70,A#4,1,0.06443302083332014,227.62897600000002
7,note_on,60,C4,0.6299212598425197,0.06443302083334856,227.78361525
7,note_on,68,G#4,1,0.06443302083334856,227.78361525
7,note_on,42,F#2,1,0.219072270833351,227.78361525
7,note_on,70,A#4,1,0.06443302083334856,227.78361525
7,note_on,68,G#4,1,0.06443302083334856,227.9382545
7,note_on,60,C4,0.6299212598425197,0.06443302083334856,227.9382545
7,note_on,62,D4,1,0.06443302083334856,227.9382545
7,note_on,70,A#4,1,0.06443302083334856,227.9382545
7,note_on,42,F#2,1,0.219072270833351,227.9382545
7,note_on,60,C4,0.6299212598425197,0.06443302083334856,228.09289375
7,note_on,68,G#4,1,0.06443302083334856,228.09289375
7,note_on,42,F#2,1,0.219072270833351,228.09289375
7,note_on,70,A#4,1,0.06443302083334856,228.09289375
7,note_on,56,G#3,1,0.06443302083334856,228.247533
7,note_on,60,C4,0.6299212598425197,0.06443302083334856,228.247533
7,note_on,42,F#2,1,0.219072270833351,228.247533
7,note_on,70,A#4,1,0.06443302083334856,228.247533
7,note_on,68,G#4,1,0.06443302083334856,228.247533
7,note_on,70,A#4,1,0.06443302083334856,228.40217225
7,note_on,60,C4,0.6299212598425197,0.06443302083334856,228.40217225
7,note_on,42,F#2,1,0.219072270833351,228.40217225
7,note_on,68,G#4,1,0.06443302083334856,228.5568115
7,note_on,63,D#4,1,0.06443302083334856,228.5568115
7,note_on,42,F#2,1,0.219072270833351,228.5568115
7,note_on,61,C#4,0.7559055118110236,0.06443302083334856,228.5568115
7,note_on,70,A#4,1,0.06443302083334856,228.5568115
7,note_on,68,G#4,1,0.06443302083334856,228.71145075
7,note_on,70,A#4,1,0.06443302083334856,228.71145075
7,note_on,63,D#4,1,0.06443302083334856,228.71145075
7,note_on,42,F#2,1,0.219072270833351,228.71145075
7,note_on,60,C4,0.6299212598425197,0.06443302083334856,228.86609
7,note_on,68,G#4,1,0.06443302083334856,228.86609
7,note_on,70,A#4,1,0.06443302083334856,228.86609
7,note_on,56,G#3,1,0.06443302083334856,228.86609
7,note_on,42,F#2,1,0.219072270833351,228.86609
7,note_on,42,F#2,1,0.219072270833351,229.02072925000002
7,note_on,60,C4,0.6299212598425197,0.06443302083334856,229.02072925000002
7,note_on,70,A#4,1,0.06443302083334856,229.02072925000002
7,note_on,42,F#2,1,0.2190722708333226,229.17536850000002
7,note_on,68,G#4,1,0.06443302083334856,229.17536850000002
7,note_on,60,C4,0.6299212598425197,0.06443302083334856,229.17536850000002
7,note_on,70,A#4,1,0.06443302083334856,229.17536850000002
7,note_on,62,D4,1,0.06443302083334856,229.17536850000002
7,note_on,60,C4,0.6299212598425197,0.06443302083332014,229.33000775000002
7,note_on,42,F#2,1,0.2190722708333226,229.33000775000002
7,note_on,64,E4,1,0.06443302083332014,229.33000775000002
7,note_on,70,A#4,1,0.06443302083332014,229.33000775000002
7,note_on,56,G#3,1,0.06443302083334856,229.484647
7,note_on,60,C4,0.6299212598425197,0.06443302083334856,229.484647
7,note_on,42,F#2,1,0.219072270833351,229.484647
7,note_on,64,E4,1,0.06443302083334856,229.484647
7,note_on,68,G#4,1,0.06443302083334856,229.484647
7,note_on,70,A#4,1,0.06443302083334856,229.484647
7,note_on,68,G#4,1,0.06443302083334856,229.63928625
7,note_on,70,A#4,1,0.06443302083334856,229.63928625
7,note_on,60,C4,0.6299212598425197,0.06443302083334856,229.63928625
7,note_on,42,F#2,1,0.219072270833351,229.63928625
7,note_on,61,C#4,0.7559055118110236,0.06443302083334856,229.7939255
7,note_on,42,F#2,1,0.219072270833351,229.7939255
7,note_on,63,D#4,1,0.06443302083334856,229.7939255
7,note_on,68,G#4,1,0.06443302083334856,229.7939255
7,note_on,70,A#4,1,0.06443302083334856,229.7939255
7,note_on,42,F#2,1,0.219072270833351,229.94856475
7,note_on,63,D#4,1,0.06443302083334856,229.94856475
7,note_on,68,G#4,1,0.06443302083334856,229.94856475
7,note_on,70,A#4,1,0.06443302083334856,229.94856475
7,note_on,56,G#3,1,0.06443302083334856,230.103204
7,note_on,42,F#2,1,0.219072270833351,230.103204
7,note_on,60,C4,0.6299212598425197,0.06443302083334856,230.103204
7,note_on,70,A#4,1,0.06443302083334856,230.103204
7,note_on,70,A#4,1,0.06443302083334856,230.25784325
7,note_on,60,C4,0.6299212598425197,0.06443302083334856,230.25784325
7,note_on,68,G#4,1,0.06443302083334856,230.25784325
7,note_on,42,F#2,1,0.219072270833351,230.25784325
7,note_on,62,D4,1,0.06443302083334856,230.4124825
7,note_on,68,G#4,1,0.06443302083334856,230.4124825
7,note_on,42,F#2,1,0.219072270833351,230.4124825
7,note_on,60,C4,0.6299212598425197,0.06443302083334856,230.4124825
7,note_on,70,A#4,1,0.06443302083334856,230.4124825
7,note_on,70,A#4,1,0.06443302083334856,230.56712175
7,note_on,60,C4,0.6299212598425197,0.06443302083334856,230.56712175
7,note_on,42,F#2,1,0.219072270833351,230.56712175
7,note_on,68,G#4,1,0.06443302083334856,230.56712175
7,note_on,68,G#4,1,0.06443302083334856,230.72176100000001
7,note_on,60,C4,0.6299212598425197,0.06443302083334856,230.72176100000001
7,note_on,70,A#4,1,0.06443302083334856,230.72176100000001
7,note_on,42,F#2,1,0.219072270833351,230.72176100000001
7,note_on,56,G#3,1,0.06443302083334856,230.72176100000001
7,note_on,70,A#4,1,0.06443302083334856,230.87640025000002
7,note_on,60,C4,0.6299212598425197,0.06443302083334856,230.87640025000002
7,note_on,42,F#2,1,0.2190722708333226,230.87640025000002
7,note_on,70,A#4,1,0.06443302083332014,231.03103950000002
7,note_on,68,G#4,1,0.06443302083332014,231.03103950000002
7,note_on,63,D#4,1,0.06443302083332014,231.03103950000002
7,note_on,61,C#4,0.7559055118110236,0.06443302083332014,231.03103950000002
7,note_on,42,F#2,1,0.2190722708333226,231.03103950000002
7,note_on,42,F#2,1,0.2190722708333226,231.18567875000002
7,note_on,68,G#4,1,0.06443302083332014,231.18567875000002
7,note_on,70,A#4,1,0.06443302083332014,231.18567875000002
7,note_on,63,D#4,1,0.06443302083332014,231.18567875000002
7,note_on,68,G#4,1,0.06443302083334856,231.340318
7,note_on,42,F#2,1,0.219072270833351,231.340318
7,note_on,60,C4,0.6299212598425197,0.06443302083334856,231.340318
7,note_on,56,G#3,1,0.06443302083334856,231.340318
7,note_on,70,A#4,1,0.06443302083334856,231.340318
7,note_on,70,A#4,1,0.06443302083334856,231.49495725
7,note_on,42,F#2,1,0.219072270833351,231.49495725
7,note_on,60,C4,0.6299212598425197,0.06443302083334856,231.49495725
7,note_on,42,F#2,1,0.219072270833351,231.6495965
7,note_on,60,C4,0.6299212598425197,0.06443302083334856,231.6495965
7,note_on,68,G#4,1,0.06443302083334856,231.6495965
7,note_on,70,A#4,1,0.06443302083334856,231.6495965
7,note_on,62,D4,1,0.06443302083334856,231.6495965
7,note_on,42,F#2,1,0.219072270833351,231.80423575
7,note_on,60,C4,0.6299212598425197,0.06443302083334856,231.80423575
7,note_on,64,E4,1,0.06443302083334856,231.80423575
7,note_on,70,A#4,1,0.06443302083334856,231.80423575
7,note_on,64,E4,1,0.06443302083334856,231.958875
7,note_on,60,C4,0.6299212598425197,0.06443302083334856,231.958875
7,note_on,56,G#3,1,0.06443302083334856,231.958875
7,note_on,42,F#2,1,0.219072270833351,231.958875
7,note_on,68,G#4,1,0.06443302083334856,231.958875
7,note_on,70,A#4,1,0.06443302083334856,231.958875
7,note_on,68,G#4,1,0.06443302083334856,232.11351425
7,note_on,42,F#2,1,0.219072270833351,232.11351425
7,note_on,60,C4,0.6299212598425197,0.06443302083334856,232.11351425
7,note_on,70,A#4,1,0.06443302083334856,232.11351425
7,note_on,70,A#4,1,0.06443302083334856,232.2681535
7,note_on,42,F#2,1,0.219072270833351,232.2681535
7,note_on,68,G#4,1,0.06443302083334856,232.2681535
7,note_on,61,C#4,0.7559055118110236,0.06443302083334856,232.2681535
7,note_on,63,D#4,1,0.06443302083334856,232.2681535
7,note_on,68,G#4,1,0.06443302083334856,232.42279275
7,note_on,63,D#4,1,0.06443302083334856,232.42279275
7,note_on,42,F#2,1,0.219072270833351,232.42279275
7,note_on,70,A#4,1,0.06443302083334856,232.42279275
7,note_on,35,B1,0.6299212598425197,0.06443302083334856,232.57743200000002
7,note_on,42,F#2,1,0.5283507708333275,232.57743200000002
7,note_on,64,E4,1,0.06443302083334856,232.57743200000002
7,note_on,66,F#4,1,0.06443302083334856,232.57743200000002
7,note_on,68,G#4,1,0.06443302083334856,232.57743200000002
7,note_on,70,A#4,1,0.06443302083334856,232.57743200000002
7,note_on,56,G#3,1,0.06443302083334856,232.57743200000002
7,note_on,42,F#2,1,0.5283507708333559,233.04134975
7,note_on,66,F#4,1,0.06443302083334856,233.04134975
7,note_on,68,G#4,1,0.06443302083334856,233.04134975
7,note_on,70,A#4,1,0.06443302083334856,233.04134975
7,note_on,35,B1,0.6299212598425197,0.06443302083334856,233.04134975
7,note_on,56,G#3,1,0.06443302083334856,233.04134975
7,note_on,64,E4,1,0.06443302083334856,233.04134975
7,note_on,64,E4,1,0.06443302083334856,233.5052675
7,note_on,68,G#4,1,0.06443302083334856,233.5052675
7,note_on,66,F#4,1,0.06443302083334856,233.5052675
7,note_on,56,G#3,1,0.06443302083334856,233.5052675
7,note_on,42,F#2,1,0.5283507708333559,233.5052675
7,note_on,70,A#4,1,0.06443302083334856,233.5052675
7,note_on,35,B1,0.6299212598425197,0.06443302083334856,233.5052675
7,note_on,35,B1,0.6299212598425197,0.06443302083334856,233.96918525
7,note_on,42,F#2,1,0.5283507708333559,233.96918525
7,note_on,64,E4,1,0.06443302083334856,233.96918525
7,note_on,68,G#4,1,0.06443302083334856,233.96918525
7,note_on,70,A#4,1,0.06443302083334856,233.96918525
7,note_on,56,G#3,1,0.06443302083334856,233.96918525
7,note_on,66,F#4,1,0.06443302083334856,233.96918525
7,note_on,42,F#2,1,0.5283507708333275,234.43310300000002
7,note_on,35,B1,0.6299212598425197,0.06443302083334856,234.43310300000002
7,note_on,66,F#4,1,0.06443302083334856,234.43310300000002
7,note_on,56,G#3,1,0.06443302083334856,234.43310300000002
7,note_on,64,E4,1,0.06443302083334856,234.43310300000002
7,note_on,70,A#4,1,0.06443302083334856,234.43310300000002
7,note_on,68,G#4,1,0.06443302083334856,234.43310300000002
7,note_on,66,F#4,1,0.06443302083334856,234.89702075
7,note_on,70,A#4,1,0.06443302083334856,234.89702075
7,note_on,68,G#4,1,0.06443302083334856,234.89702075
7,note_on,35,B1,0.6299212598425197,0.06443302083334856,234.89702075
7,note_on,56,G#3,1,0.06443302083334856,234.89702075
7,note_on,64,E4,1,0.06443302083334856,234.89702075
7,note_on,42,F#2,1,0.37371152083335346,234.89702075
7,note_on,35,B1,0.7559055118110236,0.06443302083334856,235.20629925
7,note_on,42,F#2,1,0.37371152083335346,235.20629925
7,note_on,56,G#3,1,0.06443302083334856,235.20629925
7,note_on,70,A#4,1,0.06443302083334856,235.20629925
7,note_on,68,G#4,1,0.06443302083334856,235.20629925
7,note_on,64,E4,1,0.06443302083334856,235.20629925
7,note_on,70,A#4,1,0.06443302083334856,235.51557775
7,note_on,35,B1,0.7559055118110236,0.06443302083334856,235.51557775
7,note_on,68,G#4,1,0.06443302083334856,235.51557775
7,note_on,64,E4,1,0.06443302083334856,235.51557775
7,note_on,42,F#2,1,0.37371152083335346,235.51557775
7,note_on,56,G#3,1,0.06443302083334856,235.51557775
7,note_on,35,B1,0.7559055118110236,0.06443302083334856,235.82485625
7,note_on,56,G#3,1,0.06443302083334856,235.82485625
7,note_on,64,E4,1,0.06443302083334856,235.82485625
7,note_on,68,G#4,1,0.06443302083334856,235.82485625
7,note_on,70,A#4,1,0.06443302083334856,235.82485625
7,note_on,42,F#2,1,0.37371152083335346,235.82485625
7,note_on,70,A#4,1,0.06443302083334856,236.13413475000002
7,note_on,56,G#3,1,0.06443302083334856,236.13413475000002
7,note_on,35,B1,0.7559055118110236,0.06443302083334856,236.13413475000002
7,note_on,42,F#2,1,0.37371152083332504,236.13413475000002
7,note_on,68,G#4,1,0.06443302083334856,236.13413475000002
7,note_on,64,E4,1,0.06443302083334856,236.13413475000002
7,note_on,56,G#3,1,0.06443302083332014,236.44341325000002
7,note_on,68,G#4,1,0.06443302083332014,236.44341325000002
7,note_on,42,F#2,1,0.37371152083332504,236.44341325000002
7,note_on,64,E4,1,0.06443302083332014,236.44341325000002
7,note_on,35,B1,0.7559055118110236,0.06443302083332014,236.44341325000002
7,note_on,70,A#4,1,0.06443302083332014,236.44341325000002
7,note_on,64,E4,1,0.06443302083334856,236.75269175
7,note_on,70,A#4,1,0.06443302083334856,236.75269175
7,note_on,68,G#4,1,0.06443302083334856,236.75269175
7,note_on,35,B1,0.7559055118110236,0.06443302083334856,236.75269175
7,note_on,56,G#3,1,0.06443302083334856,236.75269175
7,note_on,42,F#2,1,0.37371152083335346,236.75269175
7,note_on,35,B1,0.7559055118110236,0.06443302083334856,237.06197025
7,note_on,42,F#2,1,0.5283507708333559,237.06197025
7,note_on,70,A#4,1,0.06443302083334856,237.06197025
7,note_on,68,G#4,1,0.06443302083334856,237.06197025
7,note_on,64,E4,1,0.06443302083334856,237.06197025
7,note_on,56,G#3,1,0.06443302083334856,237.06197025
7,note_on,56,G#3,1,0.06443302083334856,237.525888
7,note_on,42,F#2,1,0.219072270833351,237.525888
7,note_on,60,C4,0.6299212598425197,0.06443302083334856,237.525888
7,note_on,70,A#4,1,0.06443302083334856,237.525888
7,note_on,70,A#4,1,0.06443302083334856,237.68052725
7,note_on,68,G#4,1,0.06443302083334856,237.68052725
7,note_on,60,C4,0.6299212598425197,0.06443302083334856,237.68052725
7,note_on,42,F#2,1,0.219072270833351,237.68052725
7,note_on,70,A#4,1,0.06443302083334856,237.8351665
7,note_on,68,G#4,1,0.06443302083334856,237.8351665
7,note_on,42,F#2,1,0.219072270833351,237.8351665
7,note_on,62,D4,1,0.06443302083334856,237.8351665
7,note_on,60,C4,0.6299212598425197,0.06443302083334856,237.8351665
7,note_on,70,A#4,1,0.06443302083334856,237.98980575000002
7,note_on,42,F#2,1,0.219072270833351,237.98980575000002
7,note_on,60,C4,0.6299212598425197,0.06443302083334856,237.98980575000002
7,note_on,68,G#4,1,0.06443302083334856,237.98980575000002
7,note_on,42,F#2,1,0.2190722708333226,238.14444500000002
7,note_on,56,G#3,1,0.06443302083334856,238.14444500000002
7,note_on,70,A#4,1,0.06443302083334856,238.14444500000002
7,note_on,60,C4,0.6299212598425197,0.06443302083334856,238.14444500000002
7,note_on,68,G#4,1,0.06443302083334856,238.14444500000002
7,note_on,42,F#2,1,0.2190722708333226,238.29908425000002
7,note_on,70,A#4,1,0.06443302083332014,238.29908425000002
7,note_on,60,C4,0.6299212598425197,0.06443302083332014,238.29908425000002
7,note_on,70,A#4,1,0.06443302083334856,238.4537235
7,note_on,63,D#4,1,0.06443302083334856,238.4537235
7,note_on,68,G#4,1,0.06443302083334856,238.4537235
7,note_on,61,C#4,0.7559055118110236,0.06443302083334856,238.4537235
7,note_on,42,F#2,1,0.219072270833351,238.4537235
7,note_on,63,D#4,1,0.06443302083334856,238.60836275
7,note_on,70,A#4,1,0.06443302083334856,238.60836275
7,note_on,68,G#4,1,0.06443302083334856,238.60836275
7,note_on,42,F#2,1,0.219072270833351,238.60836275
7,note_on,68,G#4,1,0.06443302083334856,238.763002
7,note_on,70,A#4,1,0.06443302083334856,238.763002
7,note_on,42,F#2,1,0.219072270833351,238.763002
7,note_on,56,G#3,1,0.06443302083334856,238.763002
7,note_on,60,C4,0.6299212598425197,0.06443302083334856,238.763002
7,note_on,70,A#4,1,0.06443302083334856,238.91764125
7,note_on,60,C4,0.6299212598425197,0.06443302083334856,238.91764125
7,note_on,42,F#2,1,0.219072270833351,238.91764125
7,note_on,68,G#4,1,0.06443302083334856,239.0722805
7,note_on,42,F#2,1,0.219072270833351,239.0722805
7,note_on,70,A#4,1,0.06443302083334856,239.0722805
7,note_on,62,D4,1,0.06443302083334856,239.0722805
7,note_on,60,C4,0.6299212598425197,0.06443302083334856,239.0722805
7,note_on,70,A#4,1,0.06443302083334856,239.22691975
7,note_on,64,E4,1,0.06443302083334856,239.22691975
7,note_on,42,F#2,1,0.219072270833351,239.22691975
7,note_on,60,C4,0.6299212598425197,0.06443302083334856,239.22691975
7,note_on,56,G#3,1,0.06443302083334856,239.381559
7,note_on,60,C4,0.6299212598425197,0.06443302083334856,239.381559
7,note_on,42,F#2,1,0.219072270833351,239.381559
7,note_on,70,A#4,1,0.06443302083334856,239.381559
7,note_on,68,G#4,1,0.06443302083334856,239.381559
7,note_on,64,E4,1,0.06443302083334856,239.381559
7,note_on,60,C4,0.6299212598425197,0.06443302083334856,239.53619825
7,note_on,70,A#4,1,0.06443302083334856,239.53619825
7,note_on,68,G#4,1,0.06443302083334856,239.53619825
7,note_on,42,F#2,1,0.219072270833351,239.53619825
7,note_on,70,A#4,1,0.06443302083334856,239.69083750000001
7,note_on,68,G#4,1,0.06443302083334856,239.69083750000001
7,note_on,42,F#2,1,0.219072270833351,239.69083750000001
7,note_on,63,D#4,1,0.06443302083334856,239.69083750000001
7,note_on,61,C#4,0.7559055118110236,0.06443302083334856,239.69083750000001
7,note_on,42,F#2,1,0.219072270833351,239.84547675000002
7,note_on,63,D#4,1,0.06443302083334856,239.84547675000002
7,note_on,70,A#4,1,0.06443302083334856,239.84547675000002
7,note_on,68,G#4,1,0.06443302083334856,239.84547675000002
7,note_on,70,A#4,1,0.06443302083334856,240.00011600000002
7,note_on,42,F#2,1,0.2190722708333226,240.00011600000002
7,note_on,60,C4,0.6299212598425197,0.06443302083334856,240.00011600000002
7,note_on,56,G#3,1,0.06443302083334856,240.00011600000002
7,note_on,70,A#4,1,0.06443302083332014,240.15475525000002
7,note_on,42,F#2,1,0.2190722708333226,240.15475525000002
7,note_on,68,G#4,1,0.06443302083332014,240.15475525000002
7,note_on,60,C4,0.6299212598425197,0.06443302083332014,240.15475525000002
7,note_on,60,C4,0.6299212598425197,0.06443302083334856,240.3093945
7,note_on,42,F#2,1,0.219072270833351,240.3093945
7,note_on,68,G#4,1,0.06443302083334856,240.3093945
7,note_on,70,A#4,1,0.06443302083334856,240.3093945
7,note_on,62,D4,1,0.06443302083334856,240.3093945
7,note_on,70,A#4,1,0.06443302083334856,240.46403375
7,note_on,42,F#2,1,0.219072270833351,240.46403375
7,note_on,68,G#4,1,0.06443302083334856,240.46403375
7,note_on,60,C4,0.6299212598425197,0.06443302083334856,240.46403375
7,note_on,42,F#2,1,0.219072270833351,240.618673
7,note_on,60,C4,0.6299212598425197,0.06443302083334856,240.618673
7,note_on,56,G#3,1,0.06443302083334856,240.618673
7,note_on,70,A#4,1,0.06443302083334856,240.618673
7,note_on,68,G#4,1,0.06443302083334856,240.618673
7,note_on,42,F#2,1,0.219072270833351,240.77331225
7,note_on,60,C4,0.6299212598425197,0.06443302083334856,240.77331225
7,note_on,70,A#4,1,0.06443302083334856,240.77331225
7,note_on,68,G#4,1,0.06443302083334856,240.9279515
7,note_on,70,A#4,1,0.06443302083334856,240.9279515
7,note_on,63,D#4,1,0.06443302083334856,240.9279515
7,note_on,42,F#2,1,0.219072270833351,240.9279515
7,note_on,61,C#4,0.7559055118110236,0.06443302083334856,240.9279515
7,note_on,63,D#4,1,0.06443302083334856,241.08259075
7,note_on,70,A#4,1,0.06443302083334856,241.08259075
7,note_on,68,G#4,1,0.06443302083334856,241.08259075
7,note_on,42,F#2,1,0.219072270833351,241.08259075
7,note_on,60,C4,0.6299212598425197,0.06443302083334856,241.23723
7,note_on,68,G#4,1,0.06443302083334856,241.23723
7,note_on,56,G#3,1,0.06443302083334856,241.23723
7,note_on,42,F#2,1,0.219072270833351,241.23723
7,note_on,70,A#4,1,0.06443302083334856,241.23723
7,note_on,42,F#2,1,0.219072270833351,241.39186925
7,note_on,60,C4,0.6299212598425197,0.06443302083334856,241.39186925
7,note_on,70,A#4,1,0.06443302083334856,241.39186925
7,note_on,42,F#2,1,0.219072270833351,241.54650850000002
7,note_on,62,D4,1,0.06443302083334856,241.54650850000002
7,note_on,60,C4,0.6299212598425197,0.06443302083334856,241.54650850000002
7,note_on,70,A#4,1,0.06443302083334856,241.54650850000002
7,note_on,68,G#4,1,0.06443302083334856,241.54650850000002
7,note_on,70,A#4,1,0.06443302083334856,241.70114775000002
7,note_on,60,C4,0.6299212598425197,0.06443302083334856,241.70114775000002
7,note_on,42,F#2,1,0.2190722708333226,241.70114775000002
7,note_on,64,E4,1,0.06443302083334856,241.70114775000002
7,note_on,60,C4,0.6299212598425197,0.06443302083332014,241.85578700000002
7,note_on,56,G#3,1,0.06443302083332014,241.85578700000002
7,note_on,68,G#4,1,0.06443302083332014,241.85578700000002
7,note_on,64,E4,1,0.06443302083332014,241.85578700000002
7,note_on,42,F#2,1,0.2190722708333226,241.85578700000002
7,note_on,70,A#4,1,0.06443302083332014,241.85578700000002
7,note_on,42,F#2,1,0.2190722708333226,242.01042625000002
7,note_on,68,G#4,1,0.06443302083332014,242.01042625000002
7,note_on,70,A#4,1,0.06443302083332014,242.01042625000002
7,note_on,60,C4,0.6299212598425197,0.06443302083332014,242.01042625000002
7,note_on,63,D#4,1,0.06443302083334856,242.1650655
7,note_on,61,C#4,0.7559055118110236,0.06443302083334856,242.1650655
7,note_on,70,A#4,1,0.06443302083334856,242.1650655
7,note_on,68,G#4,1,0.06443302083334856,242.1650655
7,note_on,42,F#2,1,0.219072270833351,242.1650655
7,note_on,70,A#4,1,0.06443302083334856,242.31970475
7,note_on,68,G#4,1,0.06443302083334856,242.31970475
7,note_on,63,D#4,1,0.06443302083334856,242.31970475
7,note_on,42,F#2,1,0.219072270833351,242.31970475
7,note_on,42,F#2,1,0.219072270833351,242.474344
7,note_on,60,C4,0.6299212598425197,0.06443302083334856,242.474344
7,note_on,56,G#3,1,0.06443302083334856,242.474344
7,note_on,70,A#4,1,0.06443302083334856,242.474344
7,note_on,70,A#4,1,0.06443302083334856,242.62898325
7,note_on,68,G#4,1,0.06443302083334856,242.62898325
7,note_on,60,C4,0.6299212598425197,0.06443302083334856,242.62898325
7,note_on,42,F#2,1,0.219072270833351,242.62898325
7,note_on,42,F#2,1,0.219072270833351,242.7836225
7,note_on,60,C4,0.6299212598425197,0.06443302083334856,242.7836225
7,note_on,70,A#4,1,0.06443302083334856,242.7836225
7,note_on,68,G#4,1,0.06443302083334856,242.7836225
7,note_on,62,D4,1,0.06443302083334856,242.7836225
7,note_on,60,C4,0.6299212598425197,0.06443302083334856,242.93826175
7,note_on,42,F#2,1,0.219072270833351,242.93826175
7,note_on,70,A#4,1,0.06443302083334856,242.93826175
7,note_on,68,G#4,1,0.06443302083334856,242.93826175
7,note_on,68,G#4,1,0.06443302083334856,243.092901
7,note_on,42,F#2,1,0.219072270833351,243.092901
7,note_on,56,G#3,1,0.06443302083334856,243.092901
7,note_on,60,C4,0.6299212598425197,0.06443302083334856,243.092901
7,note_on,70,A#4,1,0.06443302083334856,243.092901
7,note_on,60,C4,0.6299212598425197,0.06443302083334856,243.24754025000001
7,note_on,42,F#2,1,0.219072270833351,243.24754025000001
7,note_on,70,A#4,1,0.06443302083334856,243.24754025000001
7,note_on,68,G#4,1,0.06443302083334856,243.40217950000002
7,note_on,70,A#4,1,0.06443302083334856,243.40217950000002
7,note_on,42,F#2,1,0.219072270833351,243.40217950000002
7,note_on,61,C#4,0.7559055118110236,0.06443302083334856,243.40217950000002
7,note_on,63,D#4,1,0.06443302083334856,243.40217950000002
7,note_on,42,F#2,1,0.2190722708333226,243.55681875000002
7,note_on,68,G#4,1,0.06443302083334856,243.55681875000002
7,note_on,63,D#4,1,0.06443302083334856,243.55681875000002
7,note_on,70,A#4,1,0.06443302083334856,243.55681875000002
7,note_on,56,G#3,1,0.06443302083332014,243.71145800000002
7,note_on,42,F#2,1,0.2190722708333226,243.71145800000002
7,note_on,70,A#4,1,0.06443302083332014,243.71145800000002
7,note_on,60,C4,0.6299212598425197,0.06443302083332014,243.71145800000002
7,note_on,68,G#4,1,0.06443302083332014,243.71145800000002
7,note_on,42,F#2,1,0.219072270833351,243.86609725
7,note_on,60,C4,0.6299212598425197,0.06443302083334856,243.86609725
7,note_on,70,A#4,1,0.06443302083334856,243.86609725
7,note_on,60,C4,0.6299212598425197,0.06443302083334856,244.0207365
7,note_on,62,D4,1,0.06443302083334856,244.0207365
7,note_on,42,F#2,1,0.219072270833351,244.0207365
7,note_on,68,G#4,1,0.06443302083334856,244.0207365
7,note_on,70,A#4,1,0.06443302083334856,244.0207365
7,note_on,60,C4,0.6299212598425197,0.06443302083334856,244.17537575
7,note_on,42,F#2,1,0.219072270833351,244.17537575
7,note_on,70,A#4,1,0.06443302083334856,244.17537575
7,note_on,64,E4,1,0.06443302083334856,244.17537575
7,note_on,70,A#4,1,0.06443302083334856,244.330015
7,note_on,68,G#4,1,0.06443302083334856,244.330015
7,note_on,64,E4,1,0.06443302083334856,244.330015
7,note_on,56,G#3,1,0.06443302083334856,244.330015
7,note_on,42,F#2,1,0.219072270833351,244.330015
7,note_on,60,C4,0.6299212598425197,0.06443302083334856,244.330015
7,note_on,60,C4,0.6299212598425197,0.06443302083334856,244.48465425
7,note_on,42,F#2,1,0.219072270833351,244.48465425
7,note_on,68,G#4,1,0.06443302083334856,244.48465425
7,note_on,70,A#4,1,0.06443302083334856,244.48465425
7,note_on,61,C#4,0.7559055118110236,0.06443302083334856,244.6392935
7,note_on,42,F#2,1,0.219072270833351,244.6392935
7,note_on,70,A#4,1,0.06443302083334856,244.6392935
7,note_on,68,G#4,1,0.06443302083334856,244.6392935
7,note_on,63,D#4,1,0.06443302083334856,244.6392935
7,note_on,63,D#4,1,0.06443302083334856,244.79393275
7,note_on,68,G#4,1,0.06443302083334856,244.79393275
7,note_on,70,A#4,1,0.06443302083334856,244.79393275
7,note_on,42,F#2,1,0.219072270833351,244.79393275
7,note_on,60,C4,0.6299212598425197,0.06443302083334856,244.948572
7,note_on,42,F#2,1,0.219072270833351,244.948572
7,note_on,56,G#3,1,0.06443302083334856,244.948572
7,note_on,70,A#4,1,0.06443302083334856,244.948572
7,note_on,70,A#4,1,0.06443302083334856,245.10321125000002
7,note_on,68,G#4,1,0.06443302083334856,245.10321125000002
7,note_on,42,F#2,1,0.219072270833351,245.10321125000002
7,note_on,60,C4,0.6299212598425197,0.06443302083334856,245.10321125000002
7,note_on,42,F#2,1,0.2190722708333226,245.25785050000002
7,note_on,68,G#4,1,0.06443302083334856,245.25785050000002
7,note_on,70,A#4,1,0.06443302083334856,245.25785050000002
7,note_on,62,D4,1,0.06443302083334856,245.25785050000002
7,note_on,60,C4,0.6299212598425197,0.06443302083334856,245.25785050000002
7,note_on,42,F#2,1,0.2190722708333226,245.41248975000002
7,note_on,60,C4,0.6299212598425197,0.06443302083332014,245.41248975000002
7,note_on,68,G#4,1,0.06443302083332014,245.41248975000002
7,note_on,70,A#4,1,0.06443302083332014,245.41248975000002
7,note_on,42,F#2,1,0.2190722708333226,245.56712900000002
7,note_on,68,G#4,1,0.06443302083332014,245.56712900000002
7,note_on,70,A#4,1,0.06443302083332014,245.56712900000002
7,note_on,56,G#3,1,0.06443302083332014,245.56712900000002
7,note_on,60,C4,0.6299212598425197,0.06443302083332014,245.56712900000002
7,note_on,42,F#2,1,0.219072270833351,245.72176825
7,note_on,70,A#4,1,0.06443302083334856,245.72176825
7,note_on,60,C4,0.6299212598425197,0.06443302083334856,245.72176825
7,note_on,42,F#2,1,0.219072270833351,245.8764075
7,note_on,61,C#4,0.7559055118110236,0.06443302083334856,245.8764075
7,note_on,63,D#4,1,0.06443302083334856,245.8764075
7,note_on,70,A#4,1,0.06443302083334856,245.8764075
7,note_on,68,G#4,1,0.06443302083334856,245.8764075
7,note_on,70,A#4,1,0.06443302083334856,246.03104675
7,note_on,68,G#4,1,0.06443302083334856,246.03104675
7,note_on,63,D#4,1,0.06443302083334856,246.03104675
7,note_on,42,F#2,1,0.219072270833351,246.03104675
7,note_on,42,F#2,1,0.219072270833351,246.185686
7,note_on,68,G#4,1,0.06443302083334856,246.185686
7,note_on,60,C4,0.6299212598425197,0.06443302083334856,246.185686
7,note_on,56,G#3,1,0.06443302083334856,246.185686
7,note_on,70,A#4,1,0.06443302083334856,246.185686
7,note_on,60,C4,0.6299212598425197,0.06443302083334856,246.34032525
7,note_on,42,F#2,1,0.219072270833351,246.34032525
7,note_on,70,A#4,1,0.06443302083334856,246.34032525
7,note_on,62,D4,1,0.06443302083334856,246.4949645
7,note_on,68,G#4,1,0.06443302083334856,246.4949645
7,note_on,70,A#4,1,0.06443302083334856,246.4949645
7,note_on,42,F#2,1,0.219072270833351,246.4949645
7,note_on,60,C4,0.6299212598425197,0.06443302083334856,246.4949645
7,note_on,60,C4,0.6299212598425197,0.06443302083334856,246.64960375
7,note_on,70,A#4,1,0.06443302083334856,246.64960375
7,note_on,42,F#2,1,0.219072270833351,246.64960375
7,note_on,64,E4,1,0.06443302083334856,246.64960375
7,note_on,70,A#4,1,0.06443302083334856,246.804243
7,note_on,68,G#4,1,0.06443302083334856,246.804243
7,note_on,42,F#2,1,0.219072270833351,246.804243
7,note_on,56,G#3,1,0.06443302083334856,246.804243
7,note_on,60,C4,0.6299212598425197,0.06443302083334856,246.804243
7,note_on,64,E4,1,0.06443302083334856,246.804243
7,note_on,68,G#4,1,0.06443302083334856,246.95888225000002
7,note_on,42,F#2,1,0.219072270833351,246.95888225000002
7,note_on,70,A#4,1,0.06443302083334856,246.95888225000002
7,note_on,60,C4,0.6299212598425197,0.06443302083334856,246.95888225000002
7,note_on,42,F#2,1,0.2190722708333226,247.11352150000002
7,note_on,70,A#4,1,0.06443302083334856,247.11352150000002
7,note_on,68,G#4,1,0.06443302083334856,247.11352150000002
7,note_on,61,C#4,0.7559055118110236,0.06443302083334856,247.11352150000002
7,note_on,63,D#4,1,0.06443302083334856,247.11352150000002
7,note_on,68,G#4,1,0.06443302083332014,247.26816075000002
7,note_on,70,A#4,1,0.06443302083332014,247.26816075000002
7,note_on,63,D#4,1,0.06443302083332014,247.26816075000002
7,note_on,42,F#2,1,0.2190722708333226,247.26816075000002
7,note_on,56,G#3,1,0.06443302083334856,247.4228
7,note_on,42,F#2,1,0.219072270833351,247.4228
7,note_on,60,C4,0.6299212598425197,0.06443302083334856,247.4228
7,note_on,70,A#4,1,0.06443302083334856,247.4228
7,note_on,68,G#4,1,0.06443302083334856,247.57743925
7,note_on,60,C4,0.6299212598425197,0.06443302083334856,247.57743925
7,note_on,70,A#4,1,0.06443302083334856,247.57743925
7,note_on,42,F#2,1,0.219072270833351,247.57743925
7,note_on,70,A#4,1,0.06443302083334856,247.7320785
7,note_on,68,G#4,1,0.06443302083334856,247.7320785
7,note_on,60,C4,0.6299212598425197,0.06443302083334856,247.7320785
7,note_on,42,F#2,1,0.219072270833351,247.7320785
7,note_on,62,D4,1,0.06443302083334856,247.7320785
7,note_on,68,G#4,1,0.06443302083334856,247.88671775
7,note_on,70,A#4,1,0.06443302083334856,247.88671775
7,note_on,60,C4,0.6299212598425197,0.06443302083334856,247.88671775
7,note_on,42,F#2,1,0.219072270833351,247.88671775
7,note_on,42,F#2,1,0.219072270833351,248.041357
7,note_on,68,G#4,1,0.06443302083334856,248.041357
7,note_on,70,A#4,1,0.06443302083334856,248.041357
7,note_on,56,G#3,1,0.06443302083334856,248.041357
7,note_on,60,C4,0.6299212598425197,0.06443302083334856,248.041357
7,note_on,70,A#4,1,0.06443302083334856,248.19599625
7,note_on,60,C4,0.6299212598425197,0.06443302083334856,248.19599625
7,note_on,42,F#2,1,0.219072270833351,248.19599625
7,note_on,42,F#2,1,0.219072270833351,248.3506355
7,note_on,61,C#4,0.7559055118110236,0.06443302083334856,248.3506355
7,note_on,70,A#4,1,0.06443302083334856,248.3506355
7,note_on,68,G#4,1,0.06443302083334856,248.3506355
7,note_on,63,D#4,1,0.06443302083334856,248.3506355
7,note_on,42,F#2,1,0.219072270833351,248.50527475
7,note_on,70,A#4,1,0.06443302083334856,248.50527475
7,note_on,63,D#4,1,0.06443302083334856,248.50527475
7,note_on,68,G#4,1,0.06443302083334856,248.50527475
7,note_on,70,A#4,1,0.06443302083334856,248.65991400000001
7,note_on,60,C4,0.6299212598425197,0.06443302083334856,248.65991400000001
7,note_on,68,G#4,1,0.06443302083334856,248.65991400000001
7,note_on,42,F#2,1,0.219072270833351,248.65991400000001
7,note_on,56,G#3,1,0.06443302083334856,248.65991400000001
7,note_on,42,F#2,1,0.219072270833351,248.81455325000002
7,note_on,70,A#4,1,0.06443302083334856,248.81455325000002
7,note_on,60,C4,0.6299212598425197,0.06443302083334856,248.81455325000002
7,note_on,62,D4,1,0.06443302083334856,248.96919250000002
7,note_on,60,C4,0.6299212598425197,0.06443302083334856,248.96919250000002
7,note_on,70,A#4,1,0.06443302083334856,248.96919250000002
7,note_on,42,F#2,1,0.2190722708333226,248.96919250000002
7,note_on,68,G#4,1,0.06443302083334856,248.96919250000002
7,note_on,42,F#2,1,0.2190722708333226,249.12383175000002
7,note_on,64,E4,1,0.06443302083332014,249.12383175000002
7,note_on,60,C4,0.6299212598425197,0.06443302083332014,249.12383175000002
7,note_on,70,A#4,1,0.06443302083332014,249.12383175000002
7,note_on,56,G#3,1,0.06443302083334856,249.278471
7,note_on,70,A#4,1,0.06443302083334856,249.278471
7,note_on,68,G#4,1,0.06443302083334856,249.278471
7,note_on,42,F#2,1,0.219072270833351,249.278471
7,note_on,64,E4,1,0.06443302083334856,249.278471
7,note_on,60,C4,0.6299212598425197,0.06443302083334856,249.278471
7,note_on,42,F#2,1,0.219072270833351,249.43311025
7,note_on,60,C4,0.6299212598425197,0.06443302083334856,249.43311025
7,note_on,70,A#4,1,0.06443302083334856,249.43311025
7,note_on,68,G#4,1,0.06443302083334856,249.43311025
7,note_on,68,G#4,1,0.06443302083334856,249.5877495
7,note_on,61,C#4,0.7559055118110236,0.06443302083334856,249.5877495
7,note_on,63,D#4,1,0.06443302083334856,249.5877495
7,note_on,70,A#4,1,0.06443302083334856,249.5877495
7,note_on,42,F#2,1,0.219072270833351,249.5877495
7,note_on,68,G#4,1,0.06443302083334856,249.74238875
7,note_on,63,D#4,1,0.06443302083334856,249.74238875
7,note_on,42,F#2,1,0.219072270833351,249.74238875
7,note_on,70,A#4,1,0.06443302083334856,249.74238875
7,note_on,56,G#3,1,0.06443302083334856,249.897028
7,note_on,70,A#4,1,0.06443302083334856,249.897028
7,note_on,60,C4,0.6299212598425197,0.06443302083334856,249.897028
7,note_on,42,F#2,1,0.219072270833351,249.897028
7,note_on,68,G#4,1,0.06443302083334856,250.05166725
7,note_on,70,A#4,1,0.06443302083334856,250.05166725
7,note_on,42,F#2,1,0.219072270833351,250.05166725
7,note_on,60,C4,0.6299212598425197,0.06443302083334856,250.05166725
7,note_on,68,G#4,1,0.06443302083334856,250.2063065
7,note_on,70,A#4,1,0.06443302083334856,250.2063065
7,note_on,60,C4,0.6299212598425197,0.06443302083334856,250.2063065
7,note_on,42,F#2,1,0.219072270833351,250.2063065
7,note_on,62,D4,1,0.06443302083334856,250.2063065
7,note_on,68,G#4,1,0.06443302083334856,250.36094575
7,note_on,42,F#2,1,0.219072270833351,250.36094575
7,note_on,70,A#4,1,0.06443302083334856,250.36094575
7,note_on,60,C4,0.6299212598425197,0.06443302083334856,250.36094575
7,note_on,60,C4,0.6299212598425197,0.06443302083334856,250.51558500000002
7,note_on,68,G#4,1,0.06443302083334856,250.51558500000002
7,note_on,56,G#3,1,0.06443302083334856,250.51558500000002
7,note_on,42,F#2,1,0.219072270833351,250.51558500000002
7,note_on,70,A#4,1,0.06443302083334856,250.51558500000002
7,note_on,70,A#4,1,0.06443302083334856,250.67022425000002
7,note_on,60,C4,0.6299212598425197,0.06443302083334856,250.67022425000002
7,note_on,42,F#2,1,0.2190722708333226,250.67022425000002
7,note_on,70,A#4,1,0.06443302083332014,250.82486350000002
7,note_on,68,G#4,1,0.06443302083332014,250.82486350000002
7,note_on,61,C#4,0.7559055118110236,0.06443302083332014,250.82486350000002
7,note_on,42,F#2,1,0.2190722708333226,250.82486350000002
7,note_on,63,D#4,1,0.06443302083332014,250.82486350000002
7,note_on,70,A#4,1,0.06443302083332014,250.97950275000002
7,note_on,63,D#4,1,0.06443302083332014,250.97950275000002
7,note_on,68,G#4,1,0.06443302083332014,250.97950275000002
7,note_on,42,F#2,1,0.2190722708333226,250.97950275000002
7,note_on,56,G#3,1,0.06443302083334856,251.134142
7,note_on,60,C4,0.6299212598425197,0.06443302083334856,251.134142
7,note_on,70,A#4,1,0.06443302083334856,251.134142
7,note_on,42,F#2,1,0.219072270833351,251.134142
7,note_on,68,G#4,1,0.06443302083334856,251.134142
7,note_on,70,A#4,1,0.06443302083334856,251.28878125
7,note_on,42,F#2,1,0.219072270833351,251.28878125
7,note_on,60,C4,0.6299212598425197,0.06443302083334856,251.28878125
7,note_on,60,C4,0.6299212598425197,0.06443302083334856,251.4434205
7,note_on,62,D4,1,0.06443302083334856,251.4434205
7,note_on,70,A#4,1,0.06443302083334856,251.4434205
7,note_on,42,F#2,1,0.219072270833351,251.4434205
7,note_on,68,G#4,1,0.06443302083334856,251.4434205
7,note_on,42,F#2,1,0.219072270833351,251.59805975
7,note_on,64,E4,1,0.06443302083334856,251.59805975
7,note_on,70,A#4,1,0.06443302083334856,251.59805975
7,note_on,60,C4,0.6299212598425197,0.06443302083334856,251.59805975
7,note_on,60,C4,0.6299212598425197,0.06443302083334856,251.752699
7,note_on,68,G#4,1,0.06443302083334856,251.752699
7,note_on,70,A#4,1,0.06443302083334856,251.752699
7,note_on,56,G#3,1,0.06443302083334856,251.752699
7,note_on,42,F#2,1,0.219072270833351,251.752699
7,note_on,64,E4,1,0.06443302083334856,251.752699
7,note_on,60,C4,0.6299212598425197,0.06443302083334856,251.90733825
7,note_on,68,G#4,1,0.06443302083334856,251.90733825
7,note_on,70,A#4,1,0.06443302083334856,251.90733825
7,note_on,42,F#2,1,0.219072270833351,251.90733825
7,note_on,42,F#2,1,0.219072270833351,252.0619775
7,note_on,68,G#4,1,0.06443302083334856,252.0619775
7,note_on,70,A#4,1,0.06443302083334856,252.0619775
7,note_on,61,C#4,0.7559055118110236,0.06443302083334856,252.0619775
7,note_on,63,D#4,1,0.06443302083334856,252.0619775
7,note_on,70,A#4,1,0.06443302083334856,252.21661675000001
7,note_on,63,D#4,1,0.06443302083334856,252.21661675000001
7,note_on,68,G#4,1,0.06443302083334856,252.21661675000001
7,note_on,42,F#2,1,0.219072270833351,252.21661675000001
7,note_on,70,A#4,1,0.06443302083334856,252.37125600000002
7,note_on,42,F#2,1,0.219072270833351,252.37125600000002
7,note_on,60,C4,0.6299212598425197,0.06443302083334856,252.37125600000002
7,note_on,56,G#3,1,0.06443302083334856,252.37125600000002
7,note_on,60,C4,0.6299212598425197,0.06443302083334856,252.52589525000002
7,note_on,42,F#2,1,0.2190722708333226,252.52589525000002
7,note_on,70,A#4,1,0.06443302083334856,252.52589525000002
7,note_on,68,G#4,1,0.06443302083334856,252.52589525000002
7,note_on,42,F#2,1,0.2190722708333226,252.68053450000002
7,note_on,62,D4,1,0.06443302083332014,252.68053450000002
7,note_on,68,G#4,1,0.06443302083332014,252.68053450000002
7,note_on,60,C4,0.6299212598425197,0.06443302083332014,252.68053450000002
7,note_on,70,A#4,1,0.06443302083332014,252.68053450000002
7,note_on,42,F#2,1,0.219072270833351,252.83517375
7,note_on,70,A#4,1,0.06443302083334856,252.83517375
7,note_on,68,G#4,1,0.06443302083334856,252.83517375
7,note_on,60,C4,0.6299212598425197,0.06443302083334856,252.83517375
7,note_on,42,F#2,1,0.219072270833351,252.989813
7,note_on,68,G#4,1,0.06443302083334856,252.989813
7,note_on,56,G#3,1,0.06443302083334856,252.989813
7,note_on,60,C4,0.6299212598425197,0.06443302083334856,252.989813
7,note_on,70,A#4,1,0.06443302083334856,252.989813
7,note_on,70,A#4,1,0.06443302083334856,253.14445225
7,note_on,42,F#2,1,0.219072270833351,253.14445225
7,note_on,60,C4,0.6299212598425197,0.06443302083334856,253.14445225
7,note_on,63,D#4,1,0.06443302083334856,253.2990915
7,note_on,42,F#2,1,0.219072270833351,253.2990915
7,note_on,61,C#4,0.7559055118110236,0.06443302083334856,253.2990915
7,note_on,68,G#4,1,0.06443302083334856,253.2990915
7,note_on,70,A#4,1,0.06443302083334856,253.2990915
7,note_on,63,D#4,1,0.06443302083334856,253.45373075
7,note_on,42,F#2,1,0.219072270833351,253.45373075
7,note_on,70,A#4,1,0.06443302083334856,253.45373075
7,note_on,68,G#4,1,0.06443302083334856,253.45373075
7,note_on,42,F#2,1,0.219072270833351,253.60837
7,note_on,60,C4,0.6299212598425197,0.06443302083334856,253.60837
7,note_on,70,A#4,1,0.06443302083334856,253.60837
7,note_on,56,G#3,1,0.06443302083334856,253.60837
7,note_on,68,G#4,1,0.06443302083334856,253.60837
7,note_on,64,E4,0.9448818897637795,0.03865981250001482,253.62125660416666
7,note_on,64,E4,0.889763779527559,0.05154641666666748,253.685689625
7,note_on,64,E4,0.889763779527559,0.09664953124999442,253.76300925
7,note_on,42,F#2,1,0.219072270833351,253.76300925
7,note_on,70,A#4,1,0.06443302083334856,253.76300925
7,note_on,60,C4,0.6299212598425197,0.06443302083334856,253.76300925
7,note_on,62,D4,0.9448818897637795,0.0386598124999864,253.91120519791667
7,note_on,60,C4,0.6299212598425197,0.06443302083334856,253.9176485
7,note_on,42,F#2,1,0.219072270833351,253.9176485
7,note_on,62,D4,1,0.06443302083334856,253.9176485
7,note_on,70,A#4,1,0.06443302083334856,253.9176485
7,note_on,68,G#4,1,0.06443302083334856,253.9176485
7,note_on,62,D4,1,0.051546416666695904,254.04651454166665
7,note_on,70,A#4,1,0.06443302083334856,254.07228775000002
7,note_on,64,E4,1,0.06443302083334856,254.07228775000002
7,note_on,60,C4,0.6299212598425197,0.06443302083334856,254.07228775000002
7,note_on,42,F#2,1,0.219072270833351,254.07228775000002
7,note_on,64,E4,0.9448818897637795,0.04510311458332694,254.22048369791668
7,note_on,56,G#3,1,0.06443302083334856,254.22692700000002
7,note_on,42,F#2,1,0.219072270833351,254.22692700000002
7,note_on,60,C4,0.6299212598425197,0.06443302083334856,254.22692700000002
7,note_on,68,G#4,1,0.06443302083334856,254.22692700000002
7,note_on,70,A#4,1,0.06443302083334856,254.22692700000002
7,note_on,64,E4,1,0.06443302083334856,254.22692700000002
7,note_on,64,E4,0.889763779527559,0.057989718750008024,254.28491671875
7,note_on,64,E4,0.9448818897637795,0.051546416666695904,254.35579304166666
7,note_on,70,A#4,1,0.06443302083334856,254.38156625000002
7,note_on,68,G#4,1,0.06443302083334856,254.38156625000002
7,note_on,60,C4,0.6299212598425197,0.06443302083334856,254.38156625000002
7,note_on,42,F#2,1,0.2190722708333226,254.38156625000002
7,note_on,64,E4,0.889763779527559,0.03865981250001482,254.4202260625
7,note_on,62,D4,0.9448818897637795,0.051546416666695904,254.51043229166666
7,note_on,61,C#4,0.7559055118110236,0.06443302083332014,254.53620550000002
7,note_on,63,D#4,1,0.06443302083332014,254.53620550000002
7,note_on,68,G#4,1,0.06443302083332014,254.53620550000002
7,note_on,42,F#2,1,0.2190722708333226,254.53620550000002
7,note_on,70,A#4,1,0.06443302083332014,254.53620550000002
7,note_on,62,D4,1,0.04510311458332694,254.67795814583334
7,note_on,70,A#4,1,0.06443302083334856,254.69084475
7,note_on,68,G#4,1,0.06443302083334856,254.69084475
7,note_on,42,F#2,1,0.219072270833351,254.69084475
7,note_on,63,D#4,1,0.06443302083334856,254.69084475
7,note_on,60,C4,0.6299212598425197,0.06443302083334856,254.845484
7,note_on,56,G#3,1,0.06443302083334856,254.845484
7,note_on,70,A#4,1,0.06443302083334856,254.845484
7,note_on,42,F#2,1,0.219072270833351,254.845484
7,note_on,68,G#4,1,0.06443302083334856,255.00012325
7,note_on,70,A#4,1,0.06443302083334856,255.00012325
7,note_on,60,C4,0.6299212598425197,0.06443302083334856,255.00012325
7,note_on,42,F#2,1,0.219072270833351,255.00012325
7,note_on,60,C4,0.6299212598425197,0.06443302083334856,255.1547625
7,note_on,62,D4,1,0.06443302083334856,255.1547625
7,note_on,68,G#4,1,0.06443302083334856,255.1547625
7,note_on,70,A#4,1,0.06443302083334856,255.1547625
7,note_on,42,F#2,1,0.219072270833351,255.1547625
7,note_on,42,F#2,1,0.219072270833351,255.30940175
7,note_on,70,A#4,1,0.06443302083334856,255.30940175
7,note_on,68,G#4,1,0.06443302083334856,255.30940175
7,note_on,60,C4,0.6299212598425197,0.06443302083334856,255.30940175
7,note_on,60,C4,0.6299212598425197,0.06443302083334856,255.464041
7,note_on,56,G#3,1,0.06443302083334856,255.464041
7,note_on,70,A#4,1,0.06443302083334856,255.464041
7,note_on,68,G#4,1,0.06443302083334856,255.464041
7,note_on,42,F#2,1,0.219072270833351,255.464041
7,note_on,70,A#4,1,0.06443302083334856,255.61868025
7,note_on,60,C4,0.6299212598425197,0.06443302083334856,255.61868025
7,note_on,42,F#2,1,0.219072270833351,255.61868025
7,note_on,70,A#4,1,0.06443302083334856,255.7733195
7,note_on,61,C#4,0.7559055118110236,0.06443302083334856,255.7733195
7,note_on,63,D#4,1,0.06443302083334856,255.7733195
7,note_on,42,F#2,1,0.219072270833351,255.7733195
7,note_on,68,G#4,1,0.06443302083334856,255.7733195
7,note_on,70,A#4,1,0.06443302083334856,255.92795875000002
7,note_on,68,G#4,1,0.06443302083334856,255.92795875000002
7,note_on,42,F#2,1,0.219072270833351,255.92795875000002
7,note_on,63,D#4,1,0.06443302083334856,255.92795875000002
7,note_on,70,A#4,1,0.06443302083334856,256.082598
7,note_on,60,C4,0.6299212598425197,0.06443302083334856,256.082598
7,note_on,68,G#4,1,0.06443302083334856,256.082598
7,note_on,56,G#3,1,0.06443302083334856,256.082598
7,note_on,42,F#2,1,0.219072270833351,256.082598
7,note_on,70,A#4,1,0.06443302083334856,256.23723725
7,note_on,60,C4,0.6299212598425197,0.06443302083334856,256.23723725
7,note_on,42,F#2,1,0.219072270833351,256.23723725
7,note_on,60,C4,0.6299212598425197,0.06443302083334856,256.3918765
7,note_on,68,G#4,1,0.06443302083334856,256.3918765
7,note_on,70,A#4,1,0.06443302083334856,256.3918765
7,note_on,42,F#2,1,0.219072270833351,256.3918765
7,note_on,62,D4,1,0.06443302083334856,256.3918765
7,note_on,70,A#4,1,0.06443302083334856,256.54651575
7,note_on,60,C4,0.6299212598425197,0.06443302083334856,256.54651575
7,note_on,42,F#2,1,0.219072270833351,256.54651575
7,note_on,64,E4,1,0.06443302083334856,256.54651575
7,note_on,70,A#4,1,0.06443302083334856,256.701155
7,note_on,60,C4,0.6299212598425197,0.06443302083334856,256.701155
7,note_on,56,G#3,1,0.06443302083334856,256.701155
7,note_on,42,F#2,1,0.219072270833351,256.701155
7,note_on,64,E4,1,0.06443302083334856,256.701155
7,note_on,68,G#4,1,0.06443302083334856,256.701155
7,note_on,68,G#4,1,0.06443302083334856,256.85579425000003
7,note_on,60,C4,0.6299212598425197,0.06443302083334856,256.85579425000003
7,note_on,70,A#4,1,0.06443302083334856,256.85579425000003
7,note_on,42,F#2,1,0.219072270833351,256.85579425000003
7,note_on,63,D#4,1,0.06443302083334856,257.01043350000003
7,note_on,68,G#4,1,0.06443302083334856,257.01043350000003
7,note_on,42,F#2,1,0.21907227083329417,257.01043350000003
7,note_on,61,C#4,0.7559055118110236,0.06443302083334856,257.01043350000003
7,note_on,70,A#4,1,0.06443302083334856,257.01043350000003
7,note_on,70,A#4,1,0.06443302083329172,257.16507275000004
7,note_on,42,F#2,1,0.21907227083329417,257.16507275000004
7,note_on,63,D#4,1,0.06443302083329172,257.16507275000004
7,note_on,68,G#4,1,0.06443302083329172,257.16507275000004
7,note_on,56,G#3,1,0.06443302083334856,257.319712
7,note_on,60,C4,0.6299212598425197,0.06443302083334856,257.319712
7,note_on,70,A#4,1,0.06443302083334856,257.319712
7,note_on,42,F#2,1,0.219072270833351,257.319712
7,note_on,68,G#4,1,0.06443302083334856,257.47435125
7,note_on,42,F#2,1,0.219072270833351,257.47435125
7,note_on,60,C4,0.6299212598425197,0.06443302083334856,257.47435125
7,note_on,70,A#4,1,0.06443302083334856,257.47435125
7,note_on,70,A#4,1,0.06443302083334856,257.6289905
7,note_on,68,G#4,1,0.06443302083334856,257.6289905
7,note_on,42,F#2,1,0.219072270833351,257.6289905
7,note_on,62,D4,1,0.06443302083334856,257.6289905
7,note_on,60,C4,0.6299212598425197,0.06443302083334856,257.6289905
7,note_on,60,C4,0.6299212598425197,0.06443302083334856,257.78362975
7,note_on,68,G#4,1,0.06443302083334856,257.78362975
7,note_on,42,F#2,1,0.219072270833351,257.78362975
7,note_on,70,A#4,1,0.06443302083334856,257.78362975
7,note_on,42,F#2,1,0.219072270833351,257.938269
7,note_on,56,G#3,1,0.06443302083334856,257.938269
7,note_on,60,C4,0.6299212598425197,0.06443302083334856,257.938269
7,note_on,70,A#4,1,0.06443302083334856,257.938269
7,note_on,68,G#4,1,0.06443302083334856,257.938269
7,note_on,70,A#4,1,0.06443302083334856,258.09290825
7,note_on,60,C4,0.6299212598425197,0.06443302083334856,258.09290825
7,note_on,42,F#2,1,0.219072270833351,258.09290825
7,note_on,42,F#2,1,0.219072270833351,258.2475475
7,note_on,63,D#4,1,0.06443302083334856,258.2475475
7,note_on,61,C#4,0.7559055118110236,0.06443302083334856,258.2475475
7,note_on,68,G#4,1,0.06443302083334856,258.2475475
7,note_on,70,A#4,1,0.06443302083334856,258.2475475
7,note_on,68,G#4,1,0.06443302083334856,258.40218675
7,note_on,63,D#4,1,0.06443302083334856,258.40218675
7,note_on,70,A#4,1,0.06443302083334856,258.40218675
7,note_on,42,F#2,1,0.219072270833351,258.40218675
7,note_on,42,F#2,1,0.219072270833351,258.556826
7,note_on,56,G#3,1,0.06443302083334856,258.556826
7,note_on,68,G#4,1,0.06443302083334856,258.556826
7,note_on,60,C4,0.6299212598425197,0.06443302083334856,258.556826
7,note_on,70,A#4,1,0.06443302083334856,258.556826
7,note_on,70,A#4,1,0.06443302083334856,258.71146525
7,note_on,60,C4,0.6299212598425197,0.06443302083334856,258.71146525
7,note_on,42,F#2,1,0.219072270833351,258.71146525
7,note_on,62,D4,1,0.06443302083334856,258.8661045
7,note_on,70,A#4,1,0.06443302083334856,258.8661045
7,note_on,68,G#4,1,0.06443302083334856,258.8661045
7,note_on,60,C4,0.6299212598425197,0.06443302083334856,258.8661045
7,note_on,42,F#2,1,0.219072270833351,258.8661045
7,note_on,42,F#2,1,0.219072270833351,259.02074375
7,note_on,64,E4,1,0.06443302083334856,259.02074375
7,note_on,70,A#4,1,0.06443302083334856,259.02074375
7,note_on,60,C4,0.6299212598425197,0.06443302083334856,259.02074375
7,note_on,42,F#2,1,0.219072270833351,259.175383
7,note_on,56,G#3,1,0.06443302083334856,259.175383
7,note_on,68,G#4,1,0.06443302083334856,259.175383
7,note_on,64,E4,1,0.06443302083334856,259.175383
7,note_on,60,C4,0.6299212598425197,0.06443302083334856,259.175383
7,note_on,70,A#4,1,0.06443302083334856,259.175383
7,note_on,70,A#4,1,0.06443302083334856,259.33002225
7,note_on,68,G#4,1,0.06443302083334856,259.33002225
7,note_on,60,C4,0.6299212598425197,0.06443302083334856,259.33002225
7,note_on,42,F#2,1,0.219072270833351,259.33002225
7,note_on,68,G#4,1,0.06443302083334856,259.4846615
7,note_on,63,D#4,1,0.06443302083334856,259.4846615
7,note_on,42,F#2,1,0.219072270833351,259.4846615
7,note_on,61,C#4,0.7559055118110236,0.06443302083334856,259.4846615
7,note_on,70,A#4,1,0.06443302083334856,259.4846615
7,note_on,68,G#4,1,0.06443302083334856,259.63930075
7,note_on,63,D#4,1,0.06443302083334856,259.63930075
7,note_on,70,A#4,1,0.06443302083334856,259.63930075
7,note_on,42,F#2,1,0.219072270833351,259.63930075
7,note_on,42,F#2,1,0.219072270833351,259.79394
7,note_on,60,C4,0.6299212598425197,0.06443302083334856,259.79394
7,note_on,70,A#4,1,0.06443302083334856,259.79394
7,note_on,56,G#3,1,0.06443302083334856,259.79394
7,note_on,68,G#4,1,0.06443302083334856,259.94857925
7,note_on,42,F#2,1,0.219072270833351,259.94857925
7,note_on,70,A#4,1,0.06443302083334856,259.94857925
7,note_on,60,C4,0.6299212598425197,0.06443302083334856,259.94857925
7,note_on,49,C#3,1,0.0579897187499796,260.07100198958335
7,note_on,66,F#4,0.889763779527559,0.0579897187499796,260.07744529166666
7,note_on,70,A#4,1,0.06443302083334856,260.1032185
7,note_on,60,C4,0.6299212598425197,0.06443302083334856,260.1032185
7,note_on,62,D4,1,0.06443302083334856,260.1032185
7,note_on,68,G#4,1,0.06443302083334856,260.1032185
7,note_on,42,F#2,1,0.219072270833351,260.1032185
7,note_on,66,F#4,0.8031496062992126,0.07087632291671753,260.25141444791666
7,note_on,42,F#2,1,0.219072270833351,260.25785775
7,note_on,60,C4,0.6299212598425197,0.06443302083334856,260.25785775
7,note_on,49,C#3,0.889763779527559,0.07087632291666068,260.25785775
7,note_on,70,A#4,1,0.06443302083334856,260.25785775
7,note_on,68,G#4,1,0.06443302083334856,260.25785775
7,note_on,60,C4,0.6299212598425197,0.06443302083334856,260.41249700000003
7,note_on,70,A#4,1,0.06443302083334856,260.41249700000003
7,note_on,42,F#2,1,0.219072270833351,260.41249700000003
7,note_on,68,G#4,1,0.06443302083334856,260.41249700000003
7,note_on,56,G#3,1,0.06443302083334856,260.41249700000003
7,note_on,66,F#4,1,0.057989718750036445,260.54780634375
7,note_on,49,C#3,1,0.057989718750036445,260.54780634375
7,note_on,60,C4,0.6299212598425197,0.06443302083334856,260.56713625000003
7,note_on,42,F#2,1,0.21907227083329417,260.56713625000003
7,note_on,70,A#4,1,0.06443302083334856,260.56713625000003
7,note_on,42,F#2,1,0.21907227083329417,260.72177550000004
7,note_on,63,D#4,1,0.06443302083329172,260.72177550000004
7,note_on,61,C#4,0.7559055118110236,0.06443302083329172,260.72177550000004
7,note_on,70,A#4,1,0.06443302083329172,260.72177550000004
7,note_on,68,G#4,1,0.06443302083329172,260.72177550000004
7,note_on,66,F#4,0.889763779527559,0.0579897187499796,260.8506415416667
7,note_on,49,C#3,0.889763779527559,0.0386598124999864,260.86352814583336
7,note_on,63,D#4,1,0.06443302083329172,260.87641475000004
7,note_on,42,F#2,1,0.21907227083329417,260.87641475000004
7,note_on,70,A#4,1,0.06443302083329172,260.87641475000004
7,note_on,68,G#4,1,0.06443302083329172,260.87641475000004
7,note_on,66,F#4,0.889763779527559,0.05154641666666748,261.0052807916667
7,note_on,49,C#3,0.889763779527559,0.057989718750036445,261.01172409375
7,note_on,70,A#4,1,0.06443302083334856,261.031054
7,note_on,56,G#3,1,0.06443302083334856,261.031054
7,note_on,68,G#4,1,0.06443302083334856,261.031054
7,note_on,42,F#2,1,0.219072270833351,261.031054
7,note_on,60,C4,0.6299212598425197,0.06443302083334856,261.031054
7,note_on,66,F#4,0.889763779527559,0.05154641666666748,261.16636334375
7,note_on,49,C#3,0.889763779527559,0.05154641666666748,261.1792499479167
7,note_on,42,F#2,1,0.219072270833351,261.18569325
7,note_on,70,A#4,1,0.06443302083334856,261.18569325
7,note_on,60,C4,0.6299212598425197,0.06443302083334856,261.18569325
7,note_on,42,F#2,1,0.219072270833351,261.3403325
7,note_on,60,C4,0.6299212598425197,0.06443302083334856,261.3403325
7,note_on,68,G#4,1,0.06443302083334856,261.3403325
7,note_on,62,D4,1,0.06443302083334856,261.3403325
7,note_on,70,A#4,1,0.06443302083334856,261.3403325
7,note_on,66,F#4,1,0.0579897187499796,261.4691985416667
7,note_on,49,C#3,1,0.04510311458329852,261.48208514583337
7,note_on,42,F#2,1,0.219072270833351,261.49497175
7,note_on,60,C4,0.6299212598425197,0.06443302083334856,261.49497175
7,note_on,70,A#4,1,0.06443302083334856,261.49497175
7,note_on,64,E4,1,0.06443302083334856,261.49497175
7,note_on,70,A#4,1,0.06443302083334856,261.649611
7,note_on,68,G#4,1,0.06443302083334856,261.649611
7,note_on,64,E4,1,0.06443302083334856,261.649611
7,note_on,56,G#3,1,0.06443302083334856,261.649611
7,note_on,60,C4,0.6299212598425197,0.06443302083334856,261.649611
7,note_on,42,F#2,1,0.219072270833351,261.649611
7,note_on,60,C4,0.6299212598425197,0.06443302083334856,261.80425025
7,note_on,68,G#4,1,0.06443302083334856,261.80425025
7,note_on,42,F#2,1,0.219072270833351,261.80425025
7,note_on,70,A#4,1,0.06443302083334856,261.80425025
7,note_on,42,F#2,1,0.219072270833351,261.9588895
7,note_on,70,A#4,1,0.06443302083334856,261.9588895
7,note_on,63,D#4,1,0.06443302083334856,261.9588895
7,note_on,68,G#4,1,0.06443302083334856,261.9588895
7,note_on,61,C#4,0.7559055118110236,0.06443302083334856,261.9588895
7,note_on,63,D#4,1,0.06443302083334856,262.11352875
7,note_on,68,G#4,1,0.06443302083334856,262.11352875
7,note_on,70,A#4,1,0.06443302083334856,262.11352875
7,note_on,42,F#2,1,0.219072270833351,262.11352875
7,note_on,60,C4,0.6299212598425197,0.06443302083334856,262.268168
7,note_on,56,G#3,1,0.06443302083334856,262.268168
7,note_on,42,F#2,1,0.219072270833351,262.268168
7,note_on,70,A#4,1,0.06443302083334856,262.268168
7,note_on,42,F#2,1,0.219072270833351,262.42280725
7,note_on,60,C4,0.6299212598425197,0.06443302083334856,262.42280725
7,note_on,70,A#4,1,0.06443302083334856,262.42280725
7,note_on,68,G#4,1,0.06443302083334856,262.42280725
7,note_on,68,G#4,1,0.06443302083334856,262.5774465
7,note_on,70,A#4,1,0.06443302083334856,262.5774465
7,note_on,62,D4,1,0.06443302083334856,262.5774465
7,note_on,60,C4,0.6299212598425197,0.06443302083334856,262.5774465
7,note_on,42,F#2,1,0.219072270833351,262.5774465
7,note_on,68,G#4,1,0.06443302083334856,262.73208575
7,note_on,42,F#2,1,0.219072270833351,262.73208575
7,note_on,70,A#4,1,0.06443302083334856,262.73208575
7,note_on,60,C4,0.6299212598425197,0.06443302083334856,262.73208575
7,note_on,68,G#4,1,0.06443302083334856,262.886725
7,note_on,42,F#2,1,0.219072270833351,262.886725
7,note_on,56,G#3,1,0.06443302083334856,262.886725
7,note_on,60,C4,0.6299212598425197,0.06443302083334856,262.886725
7,note_on,70,A#4,1,0.06443302083334856,262.886725
7,note_on,60,C4,0.6299212598425197,0.06443302083334856,263.04136425
7,note_on,70,A#4,1,0.06443302083334856,263.04136425
7,note_on,42,F#2,1,0.219072270833351,263.04136425
7,note_on,42,F#2,1,0.219072270833351,263.1960035
7,note_on,70,A#4,1,0.06443302083334856,263.1960035
7,note_on,68,G#4,1,0.06443302083334856,263.1960035
7,note_on,61,C#4,0.7559055118110236,0.06443302083334856,263.1960035
7,note_on,63,D#4,1,0.06443302083334856,263.1960035
7,note_on,70,A#4,1,0.06443302083334856,263.35064275
7,note_on,42,F#2,1,0.219072270833351,263.35064275
7,note_on,68,G#4,1,0.06443302083334856,263.35064275
7,note_on,63,D#4,1,0.06443302083334856,263.35064275
7,note_on,56,G#3,1,0.06443302083334856,263.505282
7,note_on,60,C4,0.6299212598425197,0.06443302083334856,263.505282
7,note_on,68,G#4,1,0.06443302083334856,263.505282
7,note_on,70,A#4,1,0.06443302083334856,263.505282
7,note_on,42,F#2,1,0.219072270833351,263.505282
7,note_on,70,A#4,1,0.06443302083334856,263.65992125
7,note_on,42,F#2,1,0.219072270833351,263.65992125
7,note_on,60,C4,0.6299212598425197,0.06443302083334856,263.65992125
7,note_on,42,F#2,1,0.219072270833351,263.8145605
7,note_on,62,D4,1,0.06443302083334856,263.8145605
7,note_on,60,C4,0.6299212598425197,0.06443302083334856,263.8145605
7,note_on,68,G#4,1,0.06443302083334856,263.8145605
7,note_on,70,A#4,1,0.06443302083334856,263.8145605
7,note_on,70,A#4,1,0.06443302083334856,263.96919975000003
7,note_on,42,F#2,1,0.219072270833351,263.96919975000003
7,note_on,60,C4,0.6299212598425197,0.06443302083334856,263.96919975000003
7,note_on,64,E4,1,0.06443302083334856,263.96919975000003
7,note_on,60,C4,0.6299212598425197,0.06443302083334856,264.12383900000003
7,note_on,42,F#2,1,0.219072270833351,264.12383900000003
7,note_on,70,A#4,1,0.06443302083334856,264.12383900000003
7,note_on,64,E4,1,0.06443302083334856,264.12383900000003
7,note_on,68,G#4,1,0.06443302083334856,264.12383900000003
7,note_on,56,G#3,1,0.06443302083334856,264.12383900000003
7,note_on,70,A#4,1,0.06443302083334856,264.27847825000003
7,note_on,60,C4,0.6299212598425197,0.06443302083334856,264.27847825000003
7,note_on,42,F#2,1,0.21907227083329417,264.27847825000003
7,note_on,68,G#4,1,0.06443302083334856,264.27847825000003
7,note_on,42,F#2,1,0.21907227083329417,264.43311750000004
7,note_on,70,A#4,1,0.06443302083329172,264.43311750000004
7,note_on,63,D#4,1,0.06443302083329172,264.43311750000004
7,note_on,61,C#4,0.7559055118110236,0.06443302083329172,264.43311750000004
7,note_on,68,G#4,1,0.06443302083329172,264.43311750000004
7,note_on,42,F#2,1,0.219072270833351,264.58775675
7,note_on,70,A#4,1,0.06443302083334856,264.58775675
7,note_on,68,G#4,1,0.06443302083334856,264.58775675
7,note_on,63,D#4,1,0.06443302083334856,264.58775675
7,note_on,56,G#3,1,0.06443302083334856,264.742396
7,note_on,64,E4,1,0.06443302083334856,264.742396
7,note_on,42,F#2,1,0.219072270833351,264.742396
7,note_on,35,B1,0.6299212598425197,0.06443302083334856,264.742396
7,note_on,68,G#4,1,0.06443302083334856,264.742396
7,note_on,70,A#4,1,0.06443302083334856,264.742396
7,note_on,56,G#3,1,0.06443302083334856,264.89703525
7,note_on,68,G#4,1,0.06443302083334856,264.89703525
7,note_on,42,F#2,1,0.37371152083335346,264.89703525
7,note_on,64,E4,1,0.06443302083334856,264.89703525
7,note_on,70,A#4,1,0.06443302083334856,264.89703525
7,note_on,35,B1,0.6299212598425197,0.06443302083334856,264.89703525
7,note_on,56,G#3,1,0.06443302083334856,265.20631375
7,note_on,64,E4,1,0.06443302083334856,265.20631375
7,note_on,42,F#2,1,0.37371152083335346,265.20631375
7,note_on,35,B1,0.6299212598425197,0.06443302083334856,265.20631375
7,note_on,68,G#4,1,0.06443302083334856,265.20631375
7,note_on,70,A#4,1,0.06443302083334856,265.20631375
7,note_on,68,G#4,1,0.06443302083334856,265.51559225
7,note_on,64,E4,1,0.06443302083334856,265.51559225
7,note_on,70,A#4,1,0.06443302083334856,265.51559225
7,note_on,35,B1,0.6299212598425197,0.06443302083334856,265.51559225
7,note_on,42,F#2,1,0.37371152083335346,265.51559225
7,note_on,56,G#3,1,0.06443302083334856,265.51559225
7,note_on,56,G#3,1,0.06443302083334856,265.82487075
7,note_on,68,G#4,1,0.06443302083334856,265.82487075
7,note_on,42,F#2,1,1.4561862708333706,265.82487075
7,note_on,64,E4,1,0.06443302083334856,265.82487075
7,note_on,70,A#4,1,0.06443302083334856,265.82487075
7,note_on,35,B1,0.6299212598425197,0.06443302083334856,265.82487075
7,note_on,70,A#4,1,0.06443302083334856,267.216624
7,note_on,42,F#2,1,0.219072270833351,267.216624
7,note_on,60,C4,0.6299212598425197,0.06443302083334856,267.216624
7,note_on,56,G#3,1,0.06443302083334856,267.216624
7,note_on,70,A#4,1,0.06443302083334856,267.37126325
7,note_on,42,F#2,1,0.219072270833351,267.37126325
7,note_on,68,G#4,1,0.06443302083334856,267.37126325
7,note_on,60,C4,0.6299212598425197,0.06443302083334856,267.37126325
7,note_on,42,F#2,1,0.219072270833351,267.52590250000003
7,note_on,60,C4,0.6299212598425197,0.06443302083334856,267.52590250000003
7,note_on,68,G#4,1,0.06443302083334856,267.52590250000003
7,note_on,70,A#4,1,0.06443302083334856,267.52590250000003
7,note_on,62,D4,1,0.06443302083334856,267.52590250000003
7,note_on,60,C4,0.6299212598425197,0.06443302083334856,267.68054175000003
7,note_on,68,G#4,1,0.06443302083334856,267.68054175000003
7,note_on,42,F#2,1,0.219072270833351,267.68054175000003
7,note_on,70,A#4,1,0.06443302083334856,267.68054175000003
7,note_on,56,G#3,1,0.06443302083334856,267.83518100000003
7,note_on,60,C4,0.6299212598425197,0.06443302083334856,267.83518100000003
7,note_on,68,G#4,1,0.06443302083334856,267.83518100000003
7,note_on,70,A#4,1,0.06443302083334856,267.83518100000003
7,note_on,42,F#2,1,0.21907227083329417,267.83518100000003
7,note_on,42,F#2,1,0.21907227083329417,267.98982025000004
7,note_on,70,A#4,1,0.06443302083329172,267.98982025000004
7,note_on,60,C4,0.6299212598425197,0.06443302083329172,267.98982025000004
7,note_on,68,G#4,1,0.06443302083334856,268.1444595
7,note_on,70,A#4,1,0.06443302083334856,268.1444595
7,note_on,63,D#4,1,0.06443302083334856,268.1444595
7,note_on,61,C#4,0.7559055118110236,0.06443302083334856,268.1444595
7,note_on,42,F#2,1,0.219072270833351,268.1444595
7,note_on,42,F#2,1,0.219072270833351,268.29909875
7,note_on,68,G#4,1,0.06443302083334856,268.29909875
7,note_on,63,D#4,1,0.06443302083334856,268.29909875
7,note_on,70,A#4,1,0.06443302083334856,268.29909875
7,note_on,70,A#4,1,0.06443302083334856,268.453738
7,note_on,68,G#4,1,0.06443302083334856,268.453738
7,note_on,60,C4,0.6299212598425197,0.06443302083334856,268.453738
7,note_on,56,G#3,1,0.06443302083334856,268.453738
7,note_on,42,F#2,1,0.219072270833351,268.453738
7,note_on,60,C4,0.6299212598425197,0.06443302083334856,268.60837725
7,note_on,70,A#4,1,0.06443302083334856,268.60837725
7,note_on,42,F#2,1,0.219072270833351,268.60837725
7,note_on,62,D4,1,0.06443302083334856,268.7630165
7,note_on,60,C4,0.6299212598425197,0.06443302083334856,268.7630165
7,note_on,42,F#2,1,0.219072270833351,268.7630165
7,note_on,68,G#4,1,0.06443302083334856,268.7630165
7,note_on,70,A#4,1,0.06443302083334856,268.7630165
7,note_on,70,A#4,1,0.06443302083334856,268.91765575
7,note_on,64,E4,1,0.06443302083334856,268.91765575
7,note_on,60,C4,0.6299212598425197,0.06443302083334856,268.91765575
7,note_on,42,F#2,1,0.219072270833351,268.91765575
7,note_on,64,E4,1,0.06443302083334856,269.072295
7,note_on,70,A#4,1,0.06443302083334856,269.072295
7,note_on,60,C4,0.6299212598425197,0.06443302083334856,269.072295
7,note_on,42,F#2,1,0.219072270833351,269.072295
7,note_on,68,G#4,1,0.06443302083334856,269.072295
7,note_on,56,G#3,1,0.06443302083334856,269.072295
7,note_on,70,A#4,1,0.06443302083334856,269.22693425
7,note_on,68,G#4,1,0.06443302083334856,269.22693425
7,note_on,42,F#2,1,0.219072270833351,269.22693425
7,note_on,60,C4,0.6299212598425197,0.06443302083334856,269.22693425
7,note_on,61,C#4,0.7559055118110236,0.06443302083334856,269.3815735
7,note_on,68,G#4,1,0.06443302083334856,269.3815735
7,note_on,63,D#4,1,0.06443302083334856,269.3815735
7,note_on,70,A#4,1,0.06443302083334856,269.3815735
7,note_on,42,F#2,1,0.219072270833351,269.3815735
7,note_on,42,F#2,1,0.219072270833351,269.53621275
7,note_on,63,D#4,1,0.06443302083334856,269.53621275
7,note_on,68,G#4,1,0.06443302083334856,269.53621275
7,note_on,70,A#4,1,0.06443302083334856,269.53621275
7,note_on,42,F#2,1,0.219072270833351,269.690852
7,note_on,70,A#4,1,0.06443302083334856,269.690852
7,note_on,60,C4,0.6299212598425197,0.06443302083334856,269.690852
7,note_on,56,G#3,1,0.06443302083334856,269.690852
7,note_on,60,C4,0.6299212598425197,0.06443302083334856,269.84549125
7,note_on,68,G#4,1,0.06443302083334856,269.84549125
7,note_on,70,A#4,1,0.06443302083334856,269.84549125
7,note_on,42,F#2,1,0.219072270833351,269.84549125
7,note_on,68,G#4,1,0.06443302083334856,270.0001305
7,note_on,42,F#2,1,0.219072270833351,270.0001305
7,note_on,70,A#4,1,0.06443302083334856,270.0001305
7,note_on,62,D4,1,0.06443302083334856,270.0001305
7,note_on,60,C4,0.6299212598425197,0.06443302083334856,270.0001305
7,note_on,70,A#4,1,0.06443302083334856,270.15476975
7,note_on,68,G#4,1,0.06443302083334856,270.15476975
7,note_on,60,C4,0.6299212598425197,0.06443302083334856,270.15476975
7,note_on,42,F#2,1,0.219072270833351,270.15476975
7,note_on,70,A#4,1,0.06443302083334856,270.309409
7,note_on,68,G#4,1,0.06443302083334856,270.309409
7,note_on,60,C4,0.6299212598425197,0.06443302083334856,270.309409
7,note_on,56,G#3,1,0.06443302083334856,270.309409
7,note_on,42,F#2,1,0.219072270833351,270.309409
7,note_on,42,F#2,1,0.219072270833351,270.46404825
7,note_on,60,C4,0.6299212598425197,0.06443302083334856,270.46404825
7,note_on,70,A#4,1,0.06443302083334856,270.46404825
7,note_on,68,G#4,1,0.06443302083334856,270.6186875
7,note_on,42,F#2,1,0.219072270833351,270.6186875
7,note_on,70,A#4,1,0.06443302083334856,270.6186875
7,note_on,63,D#4,1,0.06443302083334856,270.6186875
7,note_on,61,C#4,0.7559055118110236,0.06443302083334856,270.6186875
7,note_on,70,A#4,1,0.06443302083334856,270.77332675
7,note_on,68,G#4,1,0.06443302083334856,270.77332675
7,note_on,63,D#4,1,0.06443302083334856,270.77332675
7,note_on,42,F#2,1,0.219072270833351,270.77332675
7,note_on,42,F#2,1,0.219072270833351,270.927966
7,note_on,70,A#4,1,0.06443302083334856,270.927966
7,note_on,56,G#3,1,0.06443302083334856,270.927966
7,note_on,60,C4,0.6299212598425197,0.06443302083334856,270.927966
7,note_on,68,G#4,1,0.06443302083334856,270.927966
7,note_on,42,F#2,1,0.219072270833351,271.08260525000003
7,note_on,60,C4,0.6299212598425197,0.06443302083334856,271.08260525000003
7,note_on,70,A#4,1,0.06443302083334856,271.08260525000003
7,note_on,62,D4,1,0.06443302083334856,271.23724450000003
7,note_on,68,G#4,1,0.06443302083334856,271.23724450000003
7,note_on,60,C4,0.6299212598425197,0.06443302083334856,271.23724450000003
7,note_on,42,F#2,1,0.219072270833351,271.23724450000003
7,note_on,70,A#4,1,0.06443302083334856,271.23724450000003
7,note_on,70,A#4,1,0.06443302083334856,271.39188375000003
7,note_on,42,F#2,1,0.21907227083329417,271.39188375000003
7,note_on,60,C4,0.6299212598425197,0.06443302083334856,271.39188375000003
7,note_on,64,E4,1,0.06443302083334856,271.39188375000003
7,note_on,60,C4,0.6299212598425197,0.06443302083329172,271.54652300000004
7,note_on,64,E4,1,0.06443302083329172,271.54652300000004
7,note_on,68,G#4,1,0.06443302083329172,271.54652300000004
7,note_on,42,F#2,1,0.21907227083329417,271.54652300000004
7,note_on,70,A#4,1,0.06443302083329172,271.54652300000004
7,note_on,56,G#3,1,0.06443302083329172,271.54652300000004
7,note_on,70,A#4,1,0.06443302083329172,271.70116225000004
7,note_on,42,F#2,1,0.21907227083329417,271.70116225000004
7,note_on,68,G#4,1,0.06443302083329172,271.70116225000004
7,note_on,60,C4,0.6299212598425197,0.06443302083329172,271.70116225000004
7,note_on,63,D#4,1,0.06443302083334856,271.8558015
7,note_on,68,G#4,1,0.06443302083334856,271.8558015
7,note_on,70,A#4,1,0.06443302083334856,271.8558015
7,note_on,42,F#2,1,0.219072270833351,271.8558015
7,note_on,61,C#4,0.7559055118110236,0.06443302083334856,271.8558015
7,note_on,42,F#2,1,0.219072270833351,272.01044075
7,note_on,70,A#4,1,0.06443302083334856,272.01044075
7,note_on,63,D#4,1,0.06443302083334856,272.01044075
7,note_on,68,G#4,1,0.06443302083334856,272.01044075
7,note_on,60,C4,0.6299212598425197,0.06443302083334856,272.16508
7,note_on,56,G#3,1,0.06443302083334856,272.16508
7,note_on,42,F#2,1,0.219072270833351,272.16508
7,note_on,70,A#4,1,0.06443302083334856,272.16508
7,note_on,70,A#4,1,0.06443302083334856,272.31971925
7,note_on,42,F#2,1,0.219072270833351,272.31971925
7,note_on,60,C4,0.6299212598425197,0.06443302083334856,272.31971925
7,note_on,68,G#4,1,0.06443302083334856,272.31971925
7,note_on,70,A#4,1,0.06443302083334856,272.4743585
7,note_on,68,G#4,1,0.06443302083334856,272.4743585
7,note_on,62,D4,1,0.06443302083334856,272.4743585
7,note_on,42,F#2,1,0.219072270833351,272.4743585
7,note_on,60,C4,0.6299212598425197,0.06443302083334856,272.4743585
7,note_on,42,F#2,1,0.219072270833351,272.62899775
7,note_on,68,G#4,1,0.06443302083334856,272.62899775
7,note_on,60,C4,0.6299212598425197,0.06443302083334856,272.62899775
7,note_on,70,A#4,1,0.06443302083334856,272.62899775
7,note_on,68,G#4,1,0.06443302083334856,272.783637
7,note_on,60,C4,0.6299212598425197,0.06443302083334856,272.783637
7,note_on,56,G#3,1,0.06443302083334856,272.783637
7,note_on,42,F#2,1,0.219072270833351,272.783637
7,note_on,70,A#4,1,0.06443302083334856,272.783637
7,note_on,42,F#2,1,0.219072270833351,272.93827625
7,note_on,60,C4,0.6299212598425197,0.06443302083334856,272.93827625
7,note_on,70,A#4,1,0.06443302083334856,272.93827625
7,note_on,68,G#4,1,0.06443302083334856,273.0929155
7,note_on,42,F#2,1,0.219072270833351,273.0929155
7,note_on,70,A#4,1,0.06443302083334856,273.0929155
7,note_on,63,D#4,1,0.06443302083334856,273.0929155
7,note_on,61,C#4,0.7559055118110236,0.06443302083334856,273.0929155
7,note_on,63,D#4,1,0.06443302083334856,273.24755475
7,note_on,68,G#4,1,0.06443302083334856,273.24755475
7,note_on,70,A#4,1,0.06443302083334856,273.24755475
7,note_on,42,F#2,1,0.219072270833351,273.24755475
7,note_on,60,C4,0.6299212598425197,0.06443302083334856,273.402194
7,note_on,42,F#2,1,0.219072270833351,273.402194
7,note_on,70,A#4,1,0.06443302083334856,273.402194
7,note_on,56,G#3,1,0.06443302083334856,273.402194
7,note_on,68,G#4,1,0.06443302083334856,273.402194
7,note_on,60,C4,0.6299212598425197,0.06443302083334856,273.55683325
7,note_on,70,A#4,1,0.06443302083334856,273.55683325
7,note_on,42,F#2,1,0.219072270833351,273.55683325
7,note_on,62,D4,1,0.06443302083334856,273.7114725
7,note_on,60,C4,0.6299212598425197,0.06443302083334856,273.7114725
7,note_on,68,G#4,1,0.06443302083334856,273.7114725
7,note_on,70,A#4,1,0.06443302083334856,273.7114725
7,note_on,42,F#2,1,0.219072270833351,273.7114725
7,note_on,60,C4,0.6299212598425197,0.06443302083334856,273.86611175
7,note_on,42,F#2,1,0.219072270833351,273.86611175
7,note_on,64,E4,1,0.06443302083334856,273.86611175
7,note_on,70,A#4,1,0.06443302083334856,273.86611175
7,note_on,68,G#4,1,0.06443302083334856,274.020751
7,note_on,70,A#4,1,0.06443302083334856,274.020751
7,note_on,64,E4,1,0.06443302083334856,274.020751
7,note_on,56,G#3,1,0.06443302083334856,274.020751
7,note_on,60,C4,0.6299212598425197,0.06443302083334856,274.020751
7,note_on,42,F#2,1,0.219072270833351,274.020751
7,note_on,68,G#4,1,0.06443302083334856,274.17539025
7,note_on,42,F#2,1,0.219072270833351,274.17539025
7,note_on,60,C4,0.6299212598425197,0.06443302083334856,274.17539025
7,note_on,70,A#4,1,0.06443302083334856,274.17539025
7,note_on,42,F#2,1,0.219072270833351,274.3300295
7,note_on,61,C#4,0.7559055118110236,0.06443302083334856,274.3300295
7,note_on,63,D#4,1,0.06443302083334856,274.3300295
7,note_on,68,G#4,1,0.06443302083334856,274.3300295
7,note_on,70,A#4,1,0.06443302083334856,274.3300295
7,note_on,68,G#4,1,0.06443302083334856,274.48466875
7,note_on,63,D#4,1,0.06443302083334856,274.48466875
7,note_on,70,A#4,1,0.06443302083334856,274.48466875
7,note_on,42,F#2,1,0.219072270833351,274.48466875
7,note_on,42,F#2,1,0.219072270833351,274.639308
7,note_on,70,A#4,1,0.06443302083334856,274.639308
7,note_on,56,G#3,1,0.06443302083334856,274.639308
7,note_on,60,C4,0.6299212598425197,0.06443302083334856,274.639308
7,note_on,70,A#4,1,0.06443302083334856,274.79394725000003
7,note_on,60,C4,0.6299212598425197,0.06443302083334856,274.79394725000003
7,note_on,68,G#4,1,0.06443302083334856,274.79394725000003
7,note_on,42,F#2,1,0.219072270833351,274.79394725000003
7,note_on,62,D4,1,0.06443302083334856,274.94858650000003
7,note_on,60,C4,0.6299212598425197,0.06443302083334856,274.94858650000003
7,note_on,70,A#4,1,0.06443302083334856,274.94858650000003
7,note_on,68,G#4,1,0.06443302083334856,274.94858650000003
7,note_on,42,F#2,1,0.21907227083329417,274.94858650000003
7,note_on,42,F#2,1,0.21907227083329417,275.10322575000004
7,note_on,70,A#4,1,0.06443302083329172,275.10322575000004
7,note_on,60,C4,0.6299212598425197,0.06443302083329172,275.10322575000004
7,note_on,68,G#4,1,0.06443302083329172,275.10322575000004
7,note_on,68,G#4,1,0.06443302083329172,275.25786500000004
7,note_on,70,A#4,1,0.06443302083329172,275.25786500000004
7,note_on,60,C4,0.6299212598425197,0.06443302083329172,275.25786500000004
7,note_on,56,G#3,1,0.06443302083329172,275.25786500000004
7,note_on,42,F#2,1,0.21907227083329417,275.25786500000004
7,note_on,42,F#2,1,0.219072270833351,275.41250425
7,note_on,70,A#4,1,0.06443302083334856,275.41250425
7,note_on,60,C4,0.6299212598425197,0.06443302083334856,275.41250425
7,note_on,63,D#4,1,0.06443302083334856,275.5671435
7,note_on,68,G#4,1,0.06443302083334856,275.5671435
7,note_on,70,A#4,1,0.06443302083334856,275.5671435
7,note_on,61,C#4,0.7559055118110236,0.06443302083334856,275.5671435
7,note_on,42,F#2,1,0.219072270833351,275.5671435
7,note_on,70,A#4,1,0.06443302083334856,275.72178275
7,note_on,42,F#2,1,0.219072270833351,275.72178275
7,note_on,68,G#4,1,0.06443302083334856,275.72178275
7,note_on,63,D#4,1,0.06443302083334856,275.72178275
7,note_on,60,C4,0.6299212598425197,0.06443302083334856,275.876422
7,note_on,42,F#2,1,0.219072270833351,275.876422
7,note_on,70,A#4,1,0.06443302083334856,275.876422
7,note_on,68,G#4,1,0.06443302083334856,275.876422
7,note_on,56,G#3,1,0.06443302083334856,275.876422
7,note_on,70,A#4,1,0.06443302083334856,276.03106125
7,note_on,60,C4,0.6299212598425197,0.06443302083334856,276.03106125
7,note_on,42,F#2,1,0.219072270833351,276.03106125
7,note_on,68,G#4,1,0.06443302083334856,276.1857005
7,note_on,62,D4,1,0.06443302083334856,276.1857005
7,note_on,60,C4,0.6299212598425197,0.06443302083334856,276.1857005
7,note_on,42,F#2,1,0.219072270833351,276.1857005
7,note_on,70,A#4,1,0.06443302083334856,276.1857005
7,note_on,42,F#2,1,0.219072270833351,276.34033975
7,note_on,70,A#4,1,0.06443302083334856,276.34033975
7,note_on,64,E4,1,0.06443302083334856,276.34033975
7,note_on,60,C4,0.6299212598425197,0.06443302083334856,276.34033975
7,note_on,70,A#4,1,0.06443302083334856,276.494979
7,note_on,60,C4,0.6299212598425197,0.06443302083334856,276.494979
7,note_on,68,G#4,1,0.06443302083334856,276.494979
7,note_on,42,F#2,1,0.219072270833351,276.494979
7,note_on,64,E4,1,0.06443302083334856,276.494979
7,note_on,56,G#3,1,0.06443302083334856,276.494979
7,note_on,42,F#2,1,0.219072270833351,276.64961825
7,note_on,60,C4,0.6299212598425197,0.06443302083334856,276.64961825
7,note_on,68,G#4,1,0.06443302083334856,276.64961825
7,note_on,70,A#4,1,0.06443302083334856,276.64961825
7,note_on,42,F#2,1,0.219072270833351,276.8042575
7,note_on,61,C#4,0.7559055118110236,0.06443302083334856,276.8042575
7,note_on,70,A#4,1,0.06443302083334856,276.8042575
7,note_on,63,D#4,1,0.06443302083334856,276.8042575
7,note_on,68,G#4,1,0.06443302083334856,276.8042575
7,note_on,70,A#4,1,0.06443302083334856,276.95889675
7,note_on,68,G#4,1,0.06443302083334856,276.95889675
7,note_on,42,F#2,1,0.219072270833351,276.95889675
7,note_on,63,D#4,1,0.06443302083334856,276.95889675
7,note_on,70,A#4,1,0.06443302083334856,277.113536
7,note_on,56,G#3,1,0.06443302083334856,277.113536
7,note_on,42,F#2,1,0.219072270833351,277.113536
7,note_on,60,C4,0.6299212598425197,0.06443302083334856,277.113536
7,note_on,68,G#4,1,0.06443302083334856,277.26817525
7,note_on,60,C4,0.6299212598425197,0.06443302083334856,277.26817525
7,note_on,70,A#4,1,0.06443302083334856,277.26817525
7,note_on,42,F#2,1,0.219072270833351,277.26817525
7,note_on,70,A#4,1,0.06443302083334856,277.4228145
7,note_on,42,F#2,1,0.219072270833351,277.4228145
7,note_on,60,C4,0.6299212598425197,0.06443302083334856,277.4228145
7,note_on,62,D4,1,0.06443302083334856,277.4228145
7,note_on,68,G#4,1,0.06443302083334856,277.4228145
7,note_on,70,A#4,1,0.06443302083334856,277.57745375
7,note_on,68,G#4,1,0.06443302083334856,277.57745375
7,note_on,60,C4,0.6299212598425197,0.06443302083334856,277.57745375
7,note_on,42,F#2,1,0.219072270833351,277.57745375
7,note_on,42,F#2,1,0.219072270833351,277.732093
7,note_on,70,A#4,1,0.06443302083334856,277.732093
7,note_on,68,G#4,1,0.06443302083334856,277.732093
7,note_on,56,G#3,1,0.06443302083334856,277.732093
7,note_on,60,C4,0.6299212598425197,0.06443302083334856,277.732093
7,note_on,70,A#4,1,0.06443302083334856,277.88673225
7,note_on,60,C4,0.6299212598425197,0.06443302083334856,277.88673225
7,note_on,42,F#2,1,0.219072270833351,277.88673225
7,note_on,70,A#4,1,0.06443302083334856,278.0413715
7,note_on,63,D#4,1,0.06443302083334856,278.0413715
7,note_on,42,F#2,1,0.219072270833351,278.0413715
7,note_on,61,C#4,0.7559055118110236,0.06443302083334856,278.0413715
7,note_on,68,G#4,1,0.06443302083334856,278.0413715
7,note_on,70,A#4,1,0.06443302083334856,278.19601075
7,note_on,68,G#4,1,0.06443302083334856,278.19601075
7,note_on,63,D#4,1,0.06443302083334856,278.19601075
7,note_on,42,F#2,1,0.219072270833351,278.19601075
7,note_on,42,F#2,1,0.219072270833351,278.35065000000003
7,note_on,70,A#4,1,0.06443302083334856,278.35065000000003
7,note_on,56,G#3,1,0.06443302083334856,278.35065000000003
7,note_on,60,C4,0.6299212598425197,0.06443302083334856,278.35065000000003
7,note_on,68,G#4,1,0.06443302083334856,278.35065000000003
7,note_on,60,C4,0.6299212598425197,0.06443302083334856,278.50528925000003
7,note_on,42,F#2,1,0.219072270833351,278.50528925000003
7,note_on,70,A#4,1,0.06443302083334856,278.50528925000003
7,note_on,68,G#4,1,0.06443302083334856,278.65992850000004
7,note_on,70,A#4,1,0.06443302083334856,278.65992850000004
7,note_on,60,C4,0.6299212598425197,0.06443302083334856,278.65992850000004
7,note_on,62,D4,1,0.06443302083334856,278.65992850000004
7,note_on,42,F#2,1,0.21907227083329417,278.65992850000004
7,note_on,42,F#2,1,0.21907227083329417,278.81456775000004
7,note_on,60,C4,0.6299212598425197,0.06443302083329172,278.81456775000004
7,note_on,64,E4,1,0.06443302083329172,278.81456775000004
7,note_on,70,A#4,1,0.06443302083329172,278.81456775000004
7,note_on,64,E4,1,0.06443302083334856,278.969207
7,note_on,70,A#4,1,0.06443302083334856,278.969207
7,note_on,68,G#4,1,0.06443302083334856,278.969207
7,note_on,42,F#2,1,0.219072270833351,278.969207
7,note_on,60,C4,0.6299212598425197,0.06443302083334856,278.969207
7,note_on,56,G#3,1,0.06443302083334856,278.969207
7,note_on,42,F#2,1,0.219072270833351,279.12384625
7,note_on,60,C4,0.6299212598425197,0.06443302083334856,279.12384625
7,note_on,68,G#4,1,0.06443302083334856,279.12384625
7,note_on,70,A#4,1,0.06443302083334856,279.12384625
7,note_on,61,C#4,0.7559055118110236,0.06443302083334856,279.2784855
7,note_on,42,F#2,1,0.219072270833351,279.2784855
7,note_on,63,D#4,1,0.06443302083334856,279.2784855
7,note_on,68,G#4,1,0.06443302083334856,279.2784855
7,note_on,70,A#4,1,0.06443302083334856,279.2784855
7,note_on,42,F#2,1,0.219072270833351,279.43312475
7,note_on,70,A#4,1,0.06443302083334856,279.43312475
7,note_on,68,G#4,1,0.06443302083334856,279.43312475
7,note_on,63,D#4,1,0.06443302083334856,279.43312475
7,note_on,60,C4,0.6299212598425197,0.06443302083334856,279.587764
7,note_on,56,G#3,1,0.06443302083334856,279.587764
7,note_on,42,F#2,1,0.219072270833351,279.587764
7,note_on,70,A#4,1,0.06443302083334856,279.587764
7,note_on,68,G#4,1,0.06443302083334856,279.74240325
7,note_on,60,C4,0.6299212598425197,0.06443302083334856,279.74240325
7,note_on,70,A#4,1,0.06443302083334856,279.74240325
7,note_on,42,F#2,1,0.219072270833351,279.74240325
7,note_on,70,A#4,1,0.06443302083334856,279.8970425
7,note_on,60,C4,0.6299212598425197,0.06443302083334856,279.8970425
7,note_on,68,G#4,1,0.06443302083334856,279.8970425
7,note_on,62,D4,1,0.06443302083334856,279.8970425
7,note_on,42,F#2,1,0.219072270833351,279.8970425
7,note_on,42,F#2,1,0.219072270833351,280.05168175
7,note_on,70,A#4,1,0.06443302083334856,280.05168175
7,note_on,60,C4,0.6299212598425197,0.06443302083334856,280.05168175
7,note_on,68,G#4,1,0.06443302083334856,280.05168175
7,note_on,56,G#3,1,0.06443302083334856,280.206321
7,note_on,68,G#4,1,0.06443302083334856,280.206321
7,note_on,60,C4,0.6299212598425197,0.06443302083334856,280.206321
7,note_on,42,F#2,1,0.219072270833351,280.206321
7,note_on,70,A#4,1,0.06443302083334856,280.206321
7,note_on,60,C4,0.6299212598425197,0.06443302083334856,280.36096025
7,note_on,70,A#4,1,0.06443302083334856,280.36096025
7,note_on,42,F#2,1,0.219072270833351,280.36096025
7,note_on,61,C#4,0.7559055118110236,0.06443302083334856,280.5155995
7,note_on,42,F#2,1,0.219072270833351,280.5155995
7,note_on,70,A#4,1,0.06443302083334856,280.5155995
7,note_on,63,D#4,1,0.06443302083334856,280.5155995
7,note_on,68,G#4,1,0.06443302083334856,280.5155995
7,note_on,70,A#4,1,0.06443302083334856,280.67023875
7,note_on,68,G#4,1,0.06443302083334856,280.67023875
7,note_on,63,D#4,1,0.06443302083334856,280.67023875
7,note_on,42,F#2,1,0.219072270833351,280.67023875
7,note_on,56,G#3,1,0.06443302083334856,280.824878
7,note_on,60,C4,0.6299212598425197,0.06443302083334856,280.824878
7,note_on,70,A#4,1,0.06443302083334856,280.824878
7,note_on,42,F#2,1,0.219072270833351,280.824878
7,note_on,68,G#4,1,0.06443302083334856,280.824878
7,note_on,60,C4,0.6299212598425197,0.06443302083334856,280.97951725
7,note_on,42,F#2,1,0.219072270833351,280.97951725
7,note_on,70,A#4,1,0.06443302083334856,280.97951725
7,note_on,62,D4,1,0.06443302083334856,281.1341565
7,note_on,60,C4,0.6299212598425197,0.06443302083334856,281.1341565
7,note_on,68,G#4,1,0.06443302083334856,281.1341565
7,note_on,70,A#4,1,0.06443302083334856,281.1341565
7,note_on,42,F#2,1,0.219072270833351,281.1341565
7,note_on,64,E4,1,0.06443302083334856,281.28879575
7,note_on,70,A#4,1,0.06443302083334856,281.28879575
7,note_on,60,C4,0.6299212598425197,0.06443302083334856,281.28879575
7,note_on,42,F#2,1,0.219072270833351,281.28879575
7,note_on,70,A#4,1,0.06443302083334856,281.443435
7,note_on,42,F#2,1,0.219072270833351,281.443435
7,note_on,60,C4,0.6299212598425197,0.06443302083334856,281.443435
7,note_on,68,G#4,1,0.06443302083334856,281.443435
7,note_on,56,G#3,1,0.06443302083334856,281.443435
7,note_on,64,E4,1,0.06443302083334856,281.443435
7,note_on,68,G#4,1,0.06443302083334856,281.59807425
7,note_on,70,A#4,1,0.06443302083334856,281.59807425
7,note_on,60,C4,0.6299212598425197,0.06443302083334856,281.59807425
7,note_on,42,F#2,1,0.219072270833351,281.59807425
7,note_on,42,F#2,1,0.219072270833351,281.7527135
7,note_on,61,C#4,0.7559055118110236,0.06443302083334856,281.7527135
7,note_on,63,D#4,1,0.06443302083334856,281.7527135
7,note_on,68,G#4,1,0.06443302083334856,281.7527135
7,note_on,70,A#4,1,0.06443302083334856,281.7527135
7,note_on,68,G#4,1,0.06443302083334856,281.90735275000003
7,note_on,70,A#4,1,0.06443302083334856,281.90735275000003
7,note_on,42,F#2,1,0.219072270833351,281.90735275000003
7,note_on,63,D#4,1,0.06443302083334856,281.90735275000003
7,note_on,60,C4,0.6299212598425197,0.06443302083334856,282.06199200000003
7,note_on,42,F#2,1,0.219072270833351,282.06199200000003
7,note_on,70,A#4,1,0.06443302083334856,282.06199200000003
7,note_on,56,G#3,1,0.06443302083334856,282.06199200000003
7,note_on,42,F#2,1,0.21907227083329417,282.21663125000003
7,note_on,70,A#4,1,0.06443302083334856,282.21663125000003
7,note_on,68,G#4,1,0.06443302083334856,282.21663125000003
7,note_on,60,C4,0.6299212598425197,0.06443302083334856,282.21663125000003
7,note_on,62,D4,1,0.06443302083329172,282.37127050000004
7,note_on,68,G#4,1,0.06443302083329172,282.37127050000004
7,note_on,70,A#4,1,0.06443302083329172,282.37127050000004
7,note_on,42,F#2,1,0.21907227083329417,282.37127050000004
7,note_on,60,C4,0.6299212598425197,0.06443302083329172,282.37127050000004
7,note_on,60,C4,0.6299212598425197,0.06443302083334856,282.52590975
7,note_on,42,F#2,1,0.219072270833351,282.52590975
7,note_on,68,G#4,1,0.06443302083334856,282.52590975
7,note_on,70,A#4,1,0.06443302083334856,282.52590975
7,note_on,56,G#3,1,0.06443302083334856,282.680549
7,note_on,60,C4,0.6299212598425197,0.06443302083334856,282.680549
7,note_on,42,F#2,1,0.219072270833351,282.680549
7,note_on,68,G#4,1,0.06443302083334856,282.680549
7,note_on,70,A#4,1,0.06443302083334856,282.680549
7,note_on,70,A#4,1,0.06443302083334856,282.83518825
7,note_on,60,C4,0.6299212598425197,0.06443302083334856,282.83518825
7,note_on,42,F#2,1,0.219072270833351,282.83518825
7,note_on,42,F#2,1,0.219072270833351,282.9898275
7,note_on,63,D#4,1,0.06443302083334856,282.9898275
7,note_on,61,C#4,0.7559055118110236,0.06443302083334856,282.9898275
7,note_on,70,A#4,1,0.06443302083334856,282.9898275
7,note_on,68,G#4,1,0.06443302083334856,282.9898275
7,note_on,70,A#4,1,0.06443302083334856,283.14446675
7,note_on,68,G#4,1,0.06443302083334856,283.14446675
7,note_on,42,F#2,1,0.219072270833351,283.14446675
7,note_on,63,D#4,1,0.06443302083334856,283.14446675
7,note_on,70,A#4,1,0.06443302083334856,283.299106
7,note_on,60,C4,0.6299212598425197,0.06443302083334856,283.299106
7,note_on,68,G#4,1,0.06443302083334856,283.299106
7,note_on,56,G#3,1,0.06443302083334856,283.299106
7,note_on,42,F#2,1,0.219072270833351,283.299106
7,note_on,42,F#2,1,0.219072270833351,283.45374525
7,note_on,60,C4,0.6299212598425197,0.06443302083334856,283.45374525
7,note_on,70,A#4,1,0.06443302083334856,283.45374525
7,note_on,60,C4,0.6299212598425197,0.06443302083334856,283.6083845
7,note_on,42,F#2,1,0.219072270833351,283.6083845
7,note_on,62,D4,1,0.06443302083334856,283.6083845
7,note_on,68,G#4,1,0.06443302083334856,283.6083845
7,note_on,70,A#4,1,0.06443302083334856,283.6083845
7,note_on,70,A#4,1,0.06443302083334856,283.76302375
7,note_on,64,E4,1,0.06443302083334856,283.76302375
7,note_on,42,F#2,1,0.219072270833351,283.76302375
7,note_on,60,C4,0.6299212598425197,0.06443302083334856,283.76302375
7,note_on,42,F#2,1,0.219072270833351,283.917663
7,note_on,60,C4,0.6299212598425197,0.06443302083334856,283.917663
7,note_on,64,E4,1,0.06443302083334856,283.917663
7,note_on,70,A#4,1,0.06443302083334856,283.917663
7,note_on,56,G#3,1,0.06443302083334856,283.917663
7,note_on,68,G#4,1,0.06443302083334856,283.917663
7,note_on,60,C4,0.6299212598425197,0.06443302083334856,284.07230225
7,note_on,42,F#2,1,0.219072270833351,284.07230225
7,note_on,70,A#4,1,0.06443302083334856,284.07230225
7,note_on,68,G#4,1,0.06443302083334856,284.07230225
7,note_on,63,D#4,1,0.06443302083334856,284.2269415
7,note_on,68,G#4,1,0.06443302083334856,284.2269415
7,note_on,70,A#4,1,0.06443302083334856,284.2269415
7,note_on,61,C#4,0.7559055118110236,0.06443302083334856,284.2269415
7,note_on,42,F#2,1,0.219072270833351,284.2269415
7,note_on,68,G#4,1,0.06443302083334856,284.38158075
7,note_on,63,D#4,1,0.06443302083334856,284.38158075
7,note_on,70,A#4,1,0.06443302083334856,284.38158075
7,note_on,42,F#2,1,0.219072270833351,284.38158075
7,note_on,56,G#3,1,0.06443302083334856,284.53622
7,note_on,60,C4,0.6299212598425197,0.06443302083334856,284.53622
7,note_on,42,F#2,1,0.219072270833351,284.53622
7,note_on,70,A#4,1,0.06443302083334856,284.53622
7,note_on,68,G#4,1,0.06443302083334856,284.69085925
7,note_on,42,F#2,1,0.219072270833351,284.69085925
7,note_on,70,A#4,1,0.06443302083334856,284.69085925
7,note_on,60,C4,0.6299212598425197,0.06443302083334856,284.69085925
7,note_on,70,A#4,1,0.06443302083334856,284.8454985
7,note_on,62,D4,1,0.06443302083334856,284.8454985
7,note_on,68,G#4,1,0.06443302083334856,284.8454985
7,note_on,42,F#2,1,0.219072270833351,284.8454985
7,note_on,60,C4,0.6299212598425197,0.06443302083334856,284.8454985
7,note_on,70,A#4,1,0.06443302083334856,285.00013775
7,note_on,42,F#2,1,0.219072270833351,285.00013775
7,note_on,60,C4,0.6299212598425197,0.06443302083334856,285.00013775
7,note_on,68,G#4,1,0.06443302083334856,285.00013775
7,note_on,56,G#3,1,0.06443302083334856,285.154777
7,note_on,70,A#4,1,0.06443302083334856,285.154777
7,note_on,42,F#2,1,0.219072270833351,285.154777
7,note_on,68,G#4,1,0.06443302083334856,285.154777
7,note_on,60,C4,0.6299212598425197,0.06443302083334856,285.154777
7,note_on,70,A#4,1,0.06443302083334856,285.30941625
7,note_on,42,F#2,1,0.219072270833351,285.30941625
7,note_on,60,C4,0.6299212598425197,0.06443302083334856,285.30941625
7,note_on,61,C#4,0.7559055118110236,0.06443302083334856,285.46405550000003
7,note_on,63,D#4,1,0.06443302083334856,285.46405550000003
7,note_on,70,A#4,1,0.06443302083334856,285.46405550000003
7,note_on,42,F#2,1,0.219072270833351,285.46405550000003
7,note_on,68,G#4,1,0.06443302083334856,285.46405550000003
7,note_on,68,G#4,1,0.06443302083334856,285.61869475000003
7,note_on,42,F#2,1,0.219072270833351,285.61869475000003
7,note_on,63,D#4,1,0.06443302083334856,285.61869475000003
7,note_on,70,A#4,1,0.06443302083334856,285.61869475000003
7,note_on,70,A#4,1,0.06443302083334856,285.77333400000003
7,note_on,60,C4,0.6299212598425197,0.06443302083334856,285.77333400000003
7,note_on,68,G#4,1,0.06443302083334856,285.77333400000003
7,note_on,56,G#3,1,0.06443302083334856,285.77333400000003
7,note_on,42,F#2,1,0.21907227083329417,285.77333400000003
7,note_on,70,A#4,1,0.06443302083329172,285.92797325000004
7,note_on,60,C4,0.6299212598425197,0.06443302083329172,285.92797325000004
7,note_on,42,F#2,1,0.21907227083329417,285.92797325000004
7,note_on,60,C4,0.6299212598425197,0.06443302083329172,286.08261250000004
7,note_on,70,A#4,1,0.06443302083329172,286.08261250000004
7,note_on,68,G#4,1,0.06443302083329172,286.08261250000004
7,note_on,62,D4,1,0.06443302083329172,286.08261250000004
7,note_on,42,F#2,1,0.21907227083329417,286.08261250000004
7,note_on,42,F#2,1,0.219072270833351,286.23725175
7,note_on,64,E4,1,0.06443302083334856,286.23725175
7,note_on,60,C4,0.6299212598425197,0.06443302083334856,286.23725175
7,note_on,70,A#4,1,0.06443302083334856,286.23725175
7,note_on,60,C4,0.6299212598425197,0.06443302083334856,286.391891
7,note_on,64,E4,1,0.06443302083334856,286.391891
7,note_on,70,A#4,1,0.06443302083334856,286.391891
7,note_on,68,G#4,1,0.06443302083334856,286.391891
7,note_on,56,G#3,1,0.06443302083334856,286.391891
7,note_on,42,F#2,1,0.219072270833351,286.391891
7,note_on,68,G#4,1,0.06443302083334856,286.54653025
7,note_on,42,F#2,1,0.219072270833351,286.54653025
7,note_on,70,A#4,1,0.06443302083334856,286.54653025
7,note_on,60,C4,0.6299212598425197,0.06443302083334856,286.54653025
7,note_on,68,G#4,1,0.06443302083334856,286.7011695
7,note_on,63,D#4,1,0.06443302083334856,286.7011695
7,note_on,61,C#4,0.7559055118110236,0.06443302083334856,286.7011695
7,note_on,42,F#2,1,0.219072270833351,286.7011695
7,note_on,70,A#4,1,0.06443302083334856,286.7011695
7,note_on,63,D#4,1,0.06443302083334856,286.85580875
7,note_on,68,G#4,1,0.06443302083334856,286.85580875
7,note_on,42,F#2,1,0.219072270833351,286.85580875
7,note_on,70,A#4,1,0.06443302083334856,286.85580875
7,note_on,56,G#3,1,0.06443302083334856,287.010448
7,note_on,64,E4,1,0.06443302083334856,287.010448
7,note_on,66,F#4,1,0.06443302083334856,287.010448
7,note_on,68,G#4,1,0.06443302083334856,287.010448
7,note_on,42,F#2,1,0.5283507708333559,287.010448
7,note_on,35,B1,0.6299212598425197,0.06443302083334856,287.010448
7,note_on,70,A#4,1,0.06443302083334856,287.010448
7,note_on,35,B1,0.6299212598425197,0.06443302083334856,287.47436575
7,note_on,64,E4,1,0.06443302083334856,287.47436575
7,note_on,70,A#4,1,0.06443302083334856,287.47436575
7,note_on,66,F#4,1,0.06443302083334856,287.47436575
7,note_on,56,G#3,1,0.06443302083334856,287.47436575
7,note_on,68,G#4,1,0.06443302083334856,287.47436575
7,note_on,42,F#2,1,0.5283507708333559,287.47436575
7,note_on,66,F#4,1,0.06443302083334856,287.9382835
7,note_on,68,G#4,1,0.06443302083334856,287.9382835
7,note_on,56,G#3,1,0.06443302083334856,287.9382835
7,note_on,42,F#2,1,0.5283507708333559,287.9382835
7,note_on,70,A#4,1,0.06443302083334856,287.9382835
7,note_on,64,E4,1,0.06443302083334856,287.9382835
7,note_on,35,B1,0.6299212598425197,0.06443302083334856,287.9382835
7,note_on,66,F#4,1,0.06443302083334856,288.40220125
7,note_on,70,A#4,1,0.06443302083334856,288.40220125
7,note_on,56,G#3,1,0.06443302083334856,288.40220125
7,note_on,68,G#4,1,0.06443302083334856,288.40220125
7,note_on,35,B1,0.6299212598425197,0.06443302083334856,288.40220125
7,note_on,42,F#2,1,0.5283507708333559,288.40220125
7,note_on,64,E4,1,0.06443302083334856,288.40220125
7,note_on,68,G#4,1,0.06443302083334856,288.866119
7,note_on,35,B1,0.6299212598425197,0.06443302083334856,288.866119
7,note_on,64,E4,1,0.06443302083334856,288.866119
7,note_on,70,A#4,1,0.06443302083334856,288.866119
7,note_on,56,G#3,1,0.06443302083334856,288.866119
7,note_on,66,F#4,1,0.06443302083334856,288.866119
7,note_on,42,F#2,1,0.5283507708333559,288.866119
7,note_on,70,A#4,1,0.06443302083334856,289.33003675000003
7,note_on,42,F#2,1,0.3737115208332966,289.33003675000003
7,note_on,64,E4,1,0.06443302083334856,289.33003675000003
7,note_on,35,B1,0.6299212598425197,0.06443302083334856,289.33003675000003
7,note_on,56,G#3,1,0.06443302083334856,289.33003675000003
7,note_on,66,F#4,1,0.06443302083334856,289.33003675000003
7,note_on,68,G#4,1,0.06443302083334856,289.33003675000003
7,note_on,42,F#2,1,0.3737115208332966,289.63931525000004
7,note_on,64,E4,1,0.06443302083329172,289.63931525000004
7,note_on,70,A#4,1,0.06443302083329172,289.63931525000004
7,note_on,56,G#3,1,0.06443302083329172,289.63931525000004
7,note_on,68,G#4,1,0.06443302083329172,289.63931525000004
7,note_on,35,B1,0.7559055118110236,0.06443302083329172,289.63931525000004
7,note_on,68,G#4,1,0.06443302083334856,289.94859375
7,note_on,56,G#3,1,0.06443302083334856,289.94859375
7,note_on,64,E4,1,0.06443302083334856,289.94859375
7,note_on,42,F#2,1,0.37371152083335346,289.94859375
7,note_on,35,B1,0.7559055118110236,0.06443302083334856,289.94859375
7,note_on,70,A#4,1,0.06443302083334856,289.94859375
7,note_on,56,G#3,1,0.06443302083334856,290.25787225
7,note_on,70,A#4,1,0.06443302083334856,290.25787225
7,note_on,42,F#2,1,0.37371152083335346,290.25787225
7,note_on,64,E4,1,0.06443302083334856,290.25787225
7,note_on,68,G#4,1,0.06443302083334856,290.25787225
7,note_on,35,B1,0.7559055118110236,0.06443302083334856,290.25787225
7,note_on,64,E4,1,0.06443302083334856,290.56715075
7,note_on,56,G#3,1,0.06443302083334856,290.56715075
7,note_on,42,F#2,1,0.37371152083335346,290.56715075
7,note_on,35,B1,0.7559055118110236,0.06443302083334856,290.56715075
7,note_on,70,A#4,1,0.06443302083334856,290.56715075
7,note_on,68,G#4,1,0.06443302083334856,290.56715075
7,note_on,68,G#4,1,0.06443302083334856,290.87642925
7,note_on,70,A#4,1,0.06443302083334856,290.87642925
7,note_on,56,G#3,1,0.06443302083334856,290.87642925
7,note_on,42,F#2,1,0.219072270833351,290.87642925
7,note_on,64,E4,1,0.06443302083334856,290.87642925
7,note_on,35,B1,0.7559055118110236,0.06443302083334856,290.87642925
7,note_on,56,G#3,1,0.06443302083334856,291.0310685
7,note_on,35,B1,0.7559055118110236,0.06443302083334856,291.0310685
7,note_on,42,F#2,1,0.219072270833351,291.0310685
7,note_on,64,E4,1,0.06443302083334856,291.0310685
7,note_on,68,G#4,1,0.06443302083334856,291.0310685
7,note_on,35,B1,0.7559055118110236,0.06443302083334856,291.18570775
7,note_on,64,E4,1,0.06443302083334856,291.18570775
7,note_on,70,A#4,1,0.06443302083334856,291.18570775
7,note_on,68,G#4,1,0.06443302083334856,291.18570775
7,note_on,56,G#3,1,0.06443302083334856,291.18570775
7,note_on,42,F#2,1,0.37371152083335346,291.18570775
7,note_on,68,G#4,1,0.06443302083334856,291.49498625
7,note_on,56,G#3,1,0.06443302083334856,291.49498625
7,note_on,64,E4,1,0.06443302083334856,291.49498625
7,note_on,35,B1,0.7559055118110236,0.06443302083334856,291.49498625
7,note_on,42,F#2,1,0.5283507708333559,291.49498625
7,note_on,70,A#4,1,0.06443302083334856,291.49498625
7,note_on,64,E4,1,0.06443302083334856,291.958904
7,note_on,68,G#4,1,0.06443302083334856,291.958904
7,note_on,56,G#3,1,0.06443302083334856,291.958904
7,note_on,35,B1,0.6299212598425197,0.06443302083334856,291.958904
7,note_on,42,F#2,1,0.219072270833351,291.958904
7,note_on,64,E4,1,0.06443302083334856,292.11354325
7,note_on,68,G#4,1,0.06443302083334856,292.11354325
7,note_on,56,G#3,1,0.06443302083334856,292.11354325
7,note_on,42,F#2,1,0.37371152083335346,292.11354325
7,note_on,35,B1,0.6299212598425197,0.06443302083334856,292.11354325
7,note_on,35,B1,0.6299212598425197,0.06443302083334856,292.42282175
7,note_on,42,F#2,1,0.5283507708333559,292.42282175
7,note_on,68,G#4,1,0.06443302083334856,292.42282175
7,note_on,56,G#3,1,0.06443302083334856,292.42282175
7,note_on,64,E4,1,0.06443302083334856,292.42282175
7,note_on,42,F#2,1,343.85970228125,292.88673950000003
7,note_on,64,E4,1,0.06443302083334856,292.88673950000003
7,note_on,56,G#3,1,0.06443302083334856,292.88673950000003
7,note_on,35,B1,0.6299212598425197,0.06443302083334856,292.88673950000003
7,note_on,68,G#4,1,0.06443302083334856,292.88673950000003